<svg width="600" height="600" viewBox="0 0 600 600" fill="none" xmlns="http://www.w3.org/2000/svg">
<path d="M292.5 4.33012C297.141 1.65063 302.859 1.65063 307.5 4.33013L552.308 145.67C556.949 148.349 559.808 153.301 559.808 158.66V441.34C559.808 446.699 556.949 451.651 552.308 454.33L307.5 595.67C302.859 598.349 297.141 598.349 292.5 595.67L47.6924 454.33C43.0514 451.651 40.1924 446.699 40.1924 441.34V158.66C40.1924 153.301 43.0514 148.349 47.6924 145.67L292.5 4.33012Z" fill="#191919"/>
<path d="M105.14 412.5L494.86 187.75" stroke="#272727" stroke-width="18" stroke-linecap="round"/>
<path d="M105.14 187.5L494.86 412.5" stroke="#272727" stroke-width="18" stroke-linecap="round"/>
<path d="M105.14 412.5L105.14 187.5" stroke="white" stroke-width="18" stroke-linecap="round"/>
<path d="M494.86 187.75V412.5" stroke="white" stroke-width="18" stroke-linecap="round"/>
<path d="M202.569 131.25L105.14 187.5" stroke="white" stroke-width="18" stroke-linecap="round"/>
<path d="M397.43 131.25L494.86 187.75" stroke="white" stroke-width="18" stroke-linecap="round"/>
<path d="M300 525L235 262.43" stroke="white" stroke-width="18" stroke-linecap="round"/>
<path d="M300 525L365 262.43" stroke="white" stroke-width="18" stroke-linecap="round"/>
<path d="M348.74 328.06L300 300" stroke="white" stroke-width="18" stroke-linecap="round"/>
<path d="M494.546 300L445.806 271.94" stroke="white" stroke-width="18" stroke-linecap="round"/>
<path d="M251.26 328.06L300 300" stroke="white" stroke-width="18" stroke-linecap="round"/>
<path d="M105.14 300.125L153.881 272.065" stroke="white" stroke-width="18" stroke-linecap="round"/>
</svg>
