<svg width="1585" height="1807" viewBox="0 0 1585 1807" fill="none" xmlns="http://www.w3.org/2000/svg">
<path d="M701.899 3.45634C853.111 -14.1638 992.431 35.9219 1099.01 146.003C1174.63 225.217 1221.92 327.909 1233.33 437.657C1237.35 477.399 1235.35 542.735 1235.03 584.255C1241.14 583.012 1247.22 581.598 1253.26 580.008C1288.15 570.653 1284.14 519.887 1302.25 496.034C1360.89 418.773 1492.89 512.131 1503.46 585.891C1511.71 643.5 1457.62 653.681 1416.69 656.359C1474.54 751.578 1426.23 780.673 1429.17 865.34L1429.3 868.503C1430.62 909.902 1471.06 954.359 1495.52 992.662L1487.49 998.646C1461.57 1001.72 1436.76 989.504 1413.71 978.597C1409.52 1001.56 1407.35 1042.45 1388.4 1054.34C1377.34 1051.52 1372.07 1047.43 1365.5 1036.73C1269.33 880.061 1339.6 826.069 1366.03 687.336C1267.75 792.619 1278.18 681.044 1253.41 668.96L1243.24 674.868C1229.59 708.16 1237.26 1039.1 1238.14 1097.7C1318.14 1098.1 1398.12 1099.79 1478.07 1102.77C1496.17 1103.54 1534.71 1103.47 1546.83 1116.9C1574.55 1174.29 1548.48 1438.13 1548.05 1514.3C1548 1523.43 1533.06 1532.36 1525.76 1535.99L1507.53 1544.93C1505.73 1567.54 1517.14 1628.09 1520.99 1655.16C1544.44 1654.29 1574.06 1648.14 1584.46 1673.62L1578.11 1681.83C1563.23 1690.27 1544.65 1686.47 1527.24 1684.98C1530.4 1706.52 1545.97 1780.27 1532.54 1790.93C1452.69 1854.36 1451.54 1707.57 1449.28 1684.39C1387.98 1689.71 1311.11 1686.88 1248.74 1685.93C1244.9 1714.27 1240.26 1771.42 1225.58 1793.65C1207.85 1806.16 1182.5 1807.56 1165.7 1792.63C1151.64 1768.96 1161.76 1737.24 1166.91 1709.78C1169.18 1695.73 1171.31 1697.34 1165.98 1687.68C1130.83 1679.8 948.774 1686.43 905.758 1686.49L351.877 1686.39C254.436 1686.57 101.646 1690.57 10.1826 1682.7C-0.0372629 1676.02 2.8465 1680.5 0 1669.74C20.6298 1643.89 243.579 1655.15 288.193 1655.58C294.34 1333.02 285.672 1007.05 289.31 684.303C289.409 675.557 278.794 671.243 272.779 668.301C254.247 677.948 249.139 792.715 175.667 699.799L171.751 703.746C165.231 761.213 209.029 826.574 209.272 888.414C209.424 926.45 171.226 1053.73 130.067 1053.62C115.296 1039.65 115.756 1001.14 113.53 978.125C92.1151 986.671 60.0169 1001.52 37.2553 999.451L34.2603 993.409C41.7867 962.178 89.6887 907.148 91.6263 880.077C98.7099 781.124 47.4138 753.907 110.565 661.363C61.199 650.881 -5.72999 631.505 32.9353 561.812C75.112 485.79 178.558 407.215 239.863 522.504C242.606 527.657 247.997 559.63 249.615 567.8C258.308 578.736 273.353 580.676 287.631 584.711C287.471 542.031 286.502 495.671 289.984 453.325C309.698 213.46 468.563 41.1 701.899 3.45634Z" fill="#301E0F"/>
<path d="M706.575 32.7387C724.113 31.2493 741.613 29.9641 759.217 29.9222C877.509 29.0417 991.182 76.5451 1074.64 161.734C1141.22 229.757 1197.24 340.172 1204.62 435.241C1208.23 481.701 1206.47 545.085 1206.1 592.751C1179.96 597.424 1153.91 602.614 1127.97 608.318C1128.27 582.799 1132.29 542.757 1117.82 523.184C1087.23 511.346 860.792 518.056 814.741 518.415C770.533 517.088 425.931 513.203 402.739 520.517C386.618 542.423 392.026 583.083 392.851 611.456C367.675 606.224 342.196 598.133 317.452 590.811C317.029 436.998 313.297 337.014 412.15 205.061C486.276 106.116 586.049 49.8748 706.575 32.7387Z" fill="#EBE6DB"/>
<path d="M717.203 112.045C888.918 90.4487 1049.04 195.102 1109.86 358.177C1120.31 386.199 1132.3 413.237 1110.62 438.058C1088.17 443.115 850.409 440.795 811.84 440.758L563.458 440.62C521.923 440.879 448.787 443.7 409.483 438.843C377.52 405.96 446.003 289.078 468.469 259.032C531.068 175.296 615.332 127.571 717.203 112.045Z" fill="#301E0F"/>
<path d="M531.761 230.363C550.543 242.23 699.553 387.965 714.562 408.435L624.097 410.237L429.117 410.925C452.605 331.532 473.194 289.165 531.761 230.363Z" fill="#EBE6DB"/>
<path d="M988.986 230.871C1032.34 248.971 1081.48 364.176 1094.45 410.912C1035.65 411.692 976.844 411.425 918.059 410.115L809.039 408.091C866.863 350.04 928.92 285.547 988.986 230.871Z" fill="#EBE6DB"/>
<path d="M717.655 140.998C730.832 139.012 732.093 138.253 744.461 142.062C752.731 173.96 746.037 346.641 748.419 395.763C724.32 369.627 699.177 347.179 673.037 323.225C634.603 288.565 594.271 246.911 557.176 210.157C606.323 175.225 658.386 151.496 717.655 140.998Z" fill="#EBE6DB"/>
<path d="M778.02 139.285C858.814 143.232 899.777 167.687 965.752 208.986C935.091 238.714 904.787 268.822 874.852 299.306L777.141 396.282L778.02 139.285Z" fill="#EBE6DB"/>
<path d="M1094.43 737.594C1102.17 746.765 1099.34 1572.54 1099.42 1655.68C1026.76 1655.39 954.101 1655.61 881.445 1656.33C854.849 1656.34 802.178 1657.48 777.993 1654.11C770.663 1377.27 776.252 1068.95 776.798 790.279C895.706 790.325 980.959 769.083 1094.43 737.594Z" fill="#EBE6DB"/>
<path d="M843.048 1143.92C870.046 1136.37 897.981 1152.38 905.594 1179.76C913.211 1207.14 897.657 1235.64 870.765 1243.57C843.602 1251.58 815.212 1235.59 807.521 1207.93C799.826 1180.27 815.775 1151.54 843.048 1143.92Z" fill="#301E0F"/>
<path d="M850.24 1173.2C860.9 1170.34 871.962 1176.14 875.847 1186.62C879.731 1197.11 875.186 1208.88 865.318 1213.88C857.972 1217.59 849.185 1216.74 842.664 1211.68C836.148 1206.61 833.035 1198.21 834.645 1190.04C836.255 1181.86 842.307 1175.33 850.24 1173.2Z" fill="#EBE6DB"/>
<path d="M423.83 737.355C555.348 775.254 610.819 784.871 746.666 788.614L745.873 1655.31L421.305 1656.07L423.83 737.355Z" fill="#EBE6DB"/>
<path d="M647.32 1148.02C664.061 1140.57 683.459 1142.91 698.024 1154.13C712.584 1165.35 720.033 1183.7 717.495 1202.1C714.953 1220.48 702.82 1236.04 685.779 1242.76C660.197 1252.83 631.38 1240.29 620.917 1214.51C610.454 1188.74 622.186 1159.2 647.32 1148.02Z" fill="#301E0F"/>
<path d="M659.389 1176.57C669.482 1171.9 681.398 1176.23 686.293 1186.34C691.187 1196.46 687.286 1208.69 677.485 1213.97C670.878 1217.52 662.891 1217.14 656.637 1212.98C650.388 1208.81 646.861 1201.52 647.431 1193.95C648.002 1186.38 652.584 1179.72 659.389 1176.57Z" fill="#EBE6DB"/>
<path d="M777.282 547.267C876.275 548.79 1001.26 552.065 1099.11 546.027L1101.84 616.5C1081.99 621.348 1038.22 634.349 1021.22 636.966C1024.92 646.45 1025.59 646.508 1024.83 657.064C1023.75 657.619 1245.74 613.905 1249.42 614.214L1252.23 622.567C1243.65 647.059 1195.99 666.077 1172.65 676.216C1050.63 728.572 920.047 757.286 787.637 760.883C648.005 764.818 509.038 739.925 379.146 687.711C356.644 678.815 278.486 647.28 278.219 622.262C301.054 612.979 411.059 647.868 466.571 648.853C467.959 639.015 466.962 630.227 466.395 620.314C455.321 626.848 445.646 620.848 429.661 616.922C414.275 597.203 421.005 575.251 423.616 547.972C531.302 547.117 640.158 549.904 747.544 547.835C746.682 565.013 743.594 583.05 752.632 597.09L760.285 602.018C781.778 590.773 776.189 569.823 777.282 547.267Z" fill="#EBE6DB"/>
<path d="M998.105 594.82C1000.63 594.256 1003.16 593.71 1005.69 593.18C1017.96 590.61 1039.49 585.469 1049.84 592.396C1031.31 620.355 1015.13 602.647 1021.22 636.961C1024.92 646.445 1025.58 646.504 1024.82 657.06L1025.32 670.308C1038.59 681.974 1051.15 668.672 1067.36 679.387L1063.72 688.742C1053.33 697.253 1024.27 697.879 1009.2 699.365C1002.68 664.333 1000.08 630.315 998.105 594.82Z" fill="#261C10"/>
<path d="M531.819 657.848C543.23 633.406 549.993 610.265 569.341 593.48L573.595 592.387C582.485 613.658 547.603 681.093 528.973 696.184L521.003 696.243C509.029 679.666 514.946 660.719 512.684 639.635C513.345 631.483 526.386 601.954 530.049 593.334C532.163 618.01 532.418 633.022 531.819 657.848Z" fill="#261C10"/>
<path d="M466.393 620.311C464.213 605.049 459.983 590.495 466.172 577.39L474.573 576.305C490.903 590.362 480.277 626.629 484.243 649.769C482.831 660.187 480.962 664.009 475.866 673.164C481.841 678.567 481.886 677.983 489.77 680.011C487.134 681.988 481.196 684.842 478.347 686.336L470.187 682.685C464.221 670.781 465.987 662.357 466.57 648.851C467.958 639.012 466.96 630.225 466.393 620.311Z" fill="#261C10"/>
<path d="M484.244 649.768C493.085 628.789 504.447 588.024 530.049 593.336C526.386 601.956 513.345 631.485 512.684 639.638L489.771 680.01C481.887 677.982 481.842 678.566 475.867 673.163C480.963 664.009 482.831 660.187 484.244 649.768Z" fill="#130F0C"/>
<path d="M792.659 642.813C806.747 618.584 820.548 601.018 850.29 608.686C882.232 635.123 884.363 707.056 843.912 720.825C820.137 721.017 803.749 704.848 790.285 686.602C790.33 671.899 791.603 657.475 792.659 642.813Z" fill="#261C10"/>
<path d="M828.803 629.844C836.655 630.895 838.026 632.101 845.331 635.101C864.84 659.222 857.736 675.248 840.654 698.539C798.873 688.984 807.607 656.418 828.803 629.844Z" fill="#EBE6DB"/>
<path d="M785.526 688.639C760.198 757.259 685.65 693.917 713.658 643.222C733.882 606.617 773.934 593.499 786.688 642.1L792.658 642.813C791.603 657.475 790.33 671.899 790.285 686.603L785.526 688.639Z" fill="#261C10"/>
<path d="M785.528 688.638C763.991 686.252 759.417 704.097 736.697 688.597C723.495 666.858 724.468 646.447 748.72 634.647C757.421 630.412 777.771 638.953 786.69 642.099L792.66 642.813C791.605 657.475 790.332 671.899 790.287 686.602L785.528 688.638Z" fill="#EBE6DB"/>
<path d="M586.968 598.27C607.528 600.322 639.195 596.58 641.121 618.664C631.241 626.897 625.563 623.488 609.667 622.741C600.071 627.869 603.491 624.018 599.993 635.438C609.409 643.67 619.814 645.41 631.96 649.048L634.03 655.04C617.843 670.09 612.546 651.798 591.986 676.186C607.368 693.297 617.182 679.436 632.322 694.565L628.946 704.562C618.159 709.528 587.781 704.241 574.145 702.701C576.272 672.36 580.045 626.98 586.968 598.27Z" fill="#261C10"/>
<path d="M890.539 611.296L899.712 606.957C918.375 616.253 929.343 644.793 939.337 664.583L954.42 678.181C949.402 690.147 948.408 693.815 937.124 697.152C924.407 689.388 918.893 674.684 911.485 660.748C909.543 680.187 912.631 694.056 903.658 710.316L898.378 707.512C888.223 668.4 888.991 652.324 890.539 611.296Z" fill="#261C10"/>
<path d="M890.539 611.297C893.984 643.162 911.419 635.426 911.485 660.749C909.543 680.188 912.631 694.057 903.658 710.317L898.378 707.513C888.223 668.401 888.991 652.325 890.539 611.297Z" fill="#301E0F"/>
<path d="M939.336 664.581C943.996 644.137 950.349 606.368 967.714 595.215C983.564 607.023 992.043 686.17 983.58 704.282L976.899 702.376C968.716 685.895 970.079 661.753 963.973 656.658C959.969 664.628 957.337 669.564 954.418 678.18L939.336 664.581Z" fill="#261C10"/>
<path d="M656.457 604.027C690.97 613.874 657.898 668.22 672.68 689.395C695.762 692.157 699.063 689.441 707.637 710.091C627.052 727.014 652.231 659.062 656.457 604.027Z" fill="#261C10"/>
<path d="M1190.26 1125.23C1290.87 1122.52 1426.14 1131.65 1530.48 1133.51C1531.39 1230.33 1528.51 1417.87 1520.26 1509.81C1458.77 1510.12 1398.12 1505.37 1336.72 1502.96C1283.49 1500.86 1230.72 1500.92 1177.55 1496.83C1175.58 1445.03 1179.55 1372.91 1180.67 1318.82C1181.76 1266.2 1182.58 1175.35 1190.26 1125.23Z" fill="#EBE6DB"/>
<path d="M1397.25 1263.32L1416.83 1299.53L1423.38 1301.19C1431.06 1293.35 1437.73 1286.09 1445.01 1277.87L1456.62 1278.65L1464.9 1279.79C1464.91 1299.65 1464.21 1325.62 1466.18 1344.78L1446.87 1346.56L1438.52 1310.51L1435.6 1309.94L1428.05 1330.11C1416.23 1333.28 1424.52 1320.73 1409.41 1317.4C1404.79 1325.99 1400.54 1333.87 1395.5 1342.22C1388.13 1331.6 1395.74 1280 1397.25 1263.32Z" fill="#130F0C"/>
<path d="M1456.62 1278.65L1464.9 1279.8C1464.91 1299.65 1464.21 1325.63 1466.17 1344.79L1446.87 1346.57C1453.21 1335.66 1454.3 1296.14 1456.62 1278.65Z" fill="#EBE6DB"/>
<path d="M1345.59 1272.86C1361.05 1273.56 1362.66 1274.47 1374.86 1284.24C1391.79 1309.93 1377.43 1329.07 1358.76 1346.45C1316.56 1335.94 1317.4 1300.79 1345.59 1272.86Z" fill="#130F0C"/>
<path d="M1344.29 1284.25C1357.67 1288.33 1358.33 1288.29 1366.91 1298.9C1370.19 1313.3 1366.38 1318.59 1360.77 1332.46C1342.6 1327.03 1348.02 1331.2 1337.72 1318.11C1335.2 1303.41 1338.65 1297.93 1344.29 1284.25Z" fill="#EBE6DB"/>
<path d="M1224.12 1269.47C1232.32 1269.33 1245.32 1270.54 1250.22 1277.38C1232.14 1287.3 1220.27 1289.6 1218.19 1311.92C1226 1324.59 1221.84 1321.71 1233.9 1327.03L1243.99 1322.36L1243.92 1316.64C1233.59 1310.77 1232.51 1310.69 1226.28 1300.91C1242.68 1298.92 1248.74 1298.46 1259.53 1311.04L1258.54 1321.36C1245.19 1339.35 1230.51 1344.8 1211.79 1332.51C1195.63 1304.21 1206.71 1290 1224.12 1269.47Z" fill="#130F0C"/>
<path d="M1464.9 1279.79C1481.75 1275.31 1483.88 1275.52 1500.96 1279.25L1505.51 1283.66C1495.91 1290.52 1489.27 1290.74 1477.47 1293.17C1483.31 1300.57 1488.73 1302.33 1497.06 1306.53L1496.07 1313.2L1477.26 1327.03C1488.89 1338.4 1496.3 1326.95 1502.15 1339.38C1493.12 1348.51 1478.74 1346.02 1466.17 1344.78C1464.21 1325.62 1464.91 1299.65 1464.9 1279.79Z" fill="#130F0C"/>
<path d="M1272.22 1268.82L1277.96 1272.9C1288.75 1289.92 1269.77 1306.04 1290.65 1329.12C1307.48 1317.89 1301.11 1293.5 1308.17 1274.13L1315.97 1273.03C1317.63 1300.33 1323.22 1336.84 1287.62 1338.82C1261.11 1322.31 1268.66 1295.92 1272.22 1268.82Z" fill="#130F0C"/>
<path d="M319.793 694.137C340.657 701.706 373.297 717.19 396.095 726.473C386.351 1026.3 394.383 1350.76 392.21 1653.68C383.571 1655.73 330.161 1656.01 317.999 1656.25L317.514 1071.19C317.3 961.356 312.385 801.811 319.793 694.137Z" fill="#EBE6DB"/>
<path d="M1201.68 695.512L1203.8 697.489C1208.29 712.752 1210.07 1066.32 1205.89 1091.59C1192.41 1096.98 1176.04 1102.64 1166.76 1114.32C1155.21 1128.89 1144.57 1452.93 1148.91 1488.16C1154.27 1531.68 1169.1 1510.32 1191.84 1528.12C1202.13 1557.18 1186.07 1614.54 1179.39 1645.56C1179.09 1647.4 1175.93 1653.51 1174.99 1655.49C1161.84 1659.19 1142.13 1655.65 1127.8 1654.18C1123.53 1346.63 1130.91 1033.84 1127.31 724.343C1152.94 715.31 1176.57 705.739 1201.68 695.512Z" fill="#EBE6DB"/>
<path d="M1276.66 1530.14C1326.17 1532.21 1375.71 1533.41 1425.26 1533.71C1429.76 1558.05 1445.47 1632.38 1438.82 1653.1L1428.1 1655.08C1369.98 1655.43 1311.87 1655.46 1253.76 1655.16C1263.1 1615.84 1269.83 1570.47 1276.66 1530.14Z" fill="#EBE6DB"/>
<path d="M137.255 667.832C144.224 671.316 140.969 669.167 145.604 677.95C130.221 795.275 199.567 823.551 173.846 930.725C170.872 943.113 154.833 988.676 144.798 993.916L145.276 986.577C142.567 971.327 141.981 957.407 131.662 946.822C117.88 941.702 108.193 947.022 93.5234 951.654C161.181 812.924 66.972 762.392 137.255 667.832Z" fill="#EBE6DB"/>
<path d="M1384.14 667.973C1448.85 722.152 1392.95 813.649 1401.12 883.387C1403.67 905.172 1426.09 930.14 1424.93 947.676C1397.92 947.038 1397.75 945.002 1385.46 967.654C1383.37 977.797 1382.03 983.226 1378.84 993.064C1368.68 986.017 1361.95 966.189 1357.41 954.87C1325.54 875.343 1366.36 804.562 1383.16 728.027C1386.42 713.181 1384.74 684.358 1384.14 667.973Z" fill="#EBE6DB"/>
<path d="M1228.23 1525.69C1234.76 1527.11 1238.58 1529.08 1244.72 1531.72C1247.78 1560.86 1213.69 1733.8 1206.25 1774.68L1193 1774.21L1188.05 1768.51C1188.75 1737.73 1220.86 1570.26 1228.23 1525.69Z" fill="#EBE6DB"/>
<path d="M219.968 603.282C230.805 602.903 238.163 601.058 246.474 607.476C254.752 630.775 237.884 689.885 221.143 702.753L215.238 700.68C194.37 679.892 182.745 667.075 167.906 641.711C185.784 629.64 202.8 616.371 219.968 603.282Z" fill="#EBE6DB"/>
<path d="M1458.42 1535.18C1469.97 1539.18 1465.21 1535.96 1473.35 1545.06C1481.85 1578.85 1513.01 1751.6 1506.13 1777.33C1498.67 1775.09 1498.59 1774.23 1492.41 1769.2C1484.61 1748.41 1455.32 1554.77 1458.42 1535.18Z" fill="#EBE6DB"/>
<path d="M1282.59 598.321C1315.35 598.6 1330.91 623.034 1359.38 647.731L1327.26 680.054L1299.94 705.306C1293.94 682.837 1276.67 617.948 1282.59 598.321Z" fill="#EBE6DB"/>
<path d="M1438.76 534.41C1461.71 550.958 1484.13 581.738 1468.94 610.641C1457.51 621.581 1445.65 621.606 1429.66 624.364C1416.54 625.232 1406.76 627.293 1394.84 622.257C1395.68 607.474 1420.15 588.21 1427.53 572.451C1433.48 559.716 1435.79 547.983 1438.76 534.41Z" fill="#EBE6DB"/>
<path d="M82.3621 539.398C84.7781 542.319 84.6136 541.718 86.1037 545.39C101.707 583.835 116.206 593.686 141.289 622.551L139.777 627.182L119.061 629.774C93.6668 623.849 67.7543 624.195 55.0865 598.96C52.7405 574.802 68.1072 559.084 82.3621 539.398Z" fill="#EBE6DB"/>
<path d="M133.833 495.177C142.014 494.568 161.67 493.375 168.625 496.162C196.374 507.285 230.279 539.046 222.075 570.844L212.856 575.58C190.141 552.89 132.009 514.708 125.273 504.778L133.833 495.177Z" fill="#EBE6DB"/>
<path d="M1353.41 494.395C1367.65 494.816 1386.17 495.329 1396.08 505.36C1389.09 518.031 1359.31 534.045 1341.78 550.593L1338.07 554.127C1328.76 564.922 1327.6 567.254 1315.55 574.063L1308.02 571.814C1296.14 540.149 1327.4 507.918 1353.41 494.395Z" fill="#EBE6DB"/>
<path d="M118.664 543.723C140.902 549.309 174.701 576.981 184.855 597.484C150.203 604.227 127.582 573.806 118.664 543.723Z" fill="#EBE6DB"/>
<path d="M1396 543.984C1399.83 547.468 1398.13 545.887 1399.6 552.692C1389.19 576.809 1372.73 588.976 1351.11 601.748C1349.53 599.749 1348 595.731 1346.85 593.182C1359.15 574.644 1379.13 558.817 1396 543.984Z" fill="#EBE6DB"/>
</svg>
