<svg width="1585" height="1807" viewBox="0 0 1585 1807" fill="none" xmlns="http://www.w3.org/2000/svg">
<path d="M843.04 1143.92C870.038 1136.37 897.973 1152.38 905.586 1179.76C913.202 1207.14 897.648 1235.64 870.756 1243.57C843.594 1251.58 815.204 1235.59 807.513 1207.93C799.818 1180.27 815.766 1151.54 843.04 1143.92ZM875.838 1186.62C871.954 1176.14 860.892 1170.34 850.232 1173.2C842.299 1175.33 836.246 1181.86 834.636 1190.04C833.027 1198.21 836.14 1206.61 842.656 1211.68C849.176 1216.74 857.964 1217.59 865.31 1213.88C875.177 1208.88 879.723 1197.11 875.838 1186.62Z" fill="#FF0004"/>
<path d="M647.319 1148.02C664.06 1140.57 683.459 1142.91 698.023 1154.13C712.584 1165.35 720.033 1183.7 717.495 1202.09C714.953 1220.48 702.819 1236.04 685.778 1242.76C660.197 1252.83 631.38 1240.29 620.917 1214.51C610.454 1188.74 622.185 1159.2 647.319 1148.02ZM686.292 1186.34C681.397 1176.23 669.482 1171.9 659.389 1176.57C652.584 1179.72 648.002 1186.38 647.431 1193.95C646.86 1201.52 650.388 1208.81 656.638 1212.98C662.891 1217.14 670.878 1217.52 677.484 1213.97C687.286 1208.69 691.187 1196.46 686.292 1186.34Z" fill="#A70064"/>
<path d="M998.102 594.82C1000.62 594.256 1003.15 593.71 1005.68 593.18C1017.96 590.61 1039.48 585.469 1049.84 592.396C1031.31 620.355 1015.13 602.647 1021.21 636.961C1024.92 646.445 1025.58 646.504 1024.82 657.06L1025.31 670.308C1038.58 681.974 1051.15 668.672 1067.35 679.387L1063.71 688.742C1053.33 697.253 1024.26 697.879 1009.19 699.365C1002.68 664.333 1000.08 630.315 998.102 594.82Z" fill="#A70064"/>
<path d="M531.815 657.848C543.226 633.406 549.989 610.265 569.338 593.48L573.591 592.387C582.482 613.658 547.599 681.093 528.969 696.184L520.999 696.243C509.025 679.666 514.942 660.719 512.68 639.635C513.341 631.483 526.382 601.954 530.045 593.334C532.16 618.01 532.414 633.022 531.815 657.848Z" fill="#A70064"/>
<path d="M466.386 620.311C464.205 605.049 459.976 590.495 466.164 577.39L474.565 576.305C490.896 590.362 480.269 626.629 484.235 649.769C482.823 660.187 480.954 664.009 475.859 673.164C481.833 678.567 481.878 677.983 489.762 680.011C487.126 681.988 481.189 684.842 478.339 686.336L470.18 682.685C464.213 670.781 465.979 662.357 466.562 648.851C467.95 639.012 466.952 630.225 466.386 620.311Z" fill="#A70064"/>
<path d="M484.236 649.768C493.077 628.789 504.439 588.024 530.041 593.336C526.378 601.956 513.337 631.485 512.676 639.638L489.763 680.01C481.879 677.982 481.834 678.566 475.859 673.163C480.955 664.009 482.824 660.187 484.236 649.768Z" fill="#A70064"/>
<path d="M792.654 642.812C806.743 618.583 820.544 601.018 850.285 608.686C882.227 635.123 884.359 707.056 843.908 720.825C820.133 721.017 803.746 704.848 790.281 686.602C790.326 671.899 791.599 657.474 792.654 642.812ZM828.8 629.844C807.604 656.418 798.87 688.984 840.65 698.539C857.732 675.248 864.836 659.221 845.327 635.1C838.022 632.1 836.651 630.895 828.8 629.844Z" fill="#A70064"/>
<path d="M713.658 643.222C733.881 606.617 773.932 593.499 786.687 642.098C777.767 638.951 757.421 630.413 748.72 634.647C724.469 646.446 723.495 666.859 736.697 688.597C759.416 704.097 763.991 686.251 785.528 688.638L790.284 686.602V686.603L785.526 688.639C760.198 757.259 685.65 693.917 713.658 643.222Z" fill="#A70064"/>
<path d="M586.964 598.27C607.524 600.322 639.191 596.58 641.117 618.664C631.237 626.897 625.559 623.488 609.663 622.741C600.067 627.869 603.488 624.018 599.989 635.438C609.405 643.67 619.81 645.41 631.956 649.048L634.026 655.04C617.839 670.09 612.542 651.798 591.982 676.186C607.364 693.297 617.178 679.436 632.318 694.565L628.942 704.562C618.155 709.528 587.778 704.241 574.141 702.701C576.268 672.36 580.041 626.98 586.964 598.27Z" fill="#A70064"/>
<path d="M890.531 611.296L899.704 606.957C918.367 616.253 929.335 644.793 939.33 664.583L954.412 678.181C949.394 690.147 948.4 693.815 937.116 697.152C924.4 689.388 918.885 674.684 911.477 660.748C909.535 680.187 912.623 694.056 903.651 710.316L898.37 707.512C888.216 668.4 888.983 652.324 890.531 611.296Z" fill="#A70064"/>
<path d="M890.531 611.297C893.976 643.162 911.411 635.426 911.477 660.749C909.535 680.188 912.623 694.057 903.651 710.317L898.37 707.513C888.216 668.401 888.983 652.325 890.531 611.297Z" fill="#A70064"/>
<path d="M939.328 664.581C943.989 644.137 950.341 606.368 967.706 595.215C983.556 607.023 992.035 686.17 983.573 704.282L976.892 702.376C968.708 685.895 970.071 661.753 963.965 656.658C959.961 664.628 957.329 669.564 954.41 678.18L939.328 664.581Z" fill="#A70064"/>
<path d="M656.453 604.027C690.966 613.874 657.894 668.22 672.677 689.395C695.758 692.157 699.059 689.441 707.633 710.091C627.048 727.014 652.228 659.062 656.453 604.027Z" fill="#A70064"/>
<path d="M701.899 3.45633C853.111 -14.1637 992.432 35.9218 1099.01 146.003C1174.63 225.217 1221.92 327.909 1233.33 437.657C1237.35 477.399 1235.35 542.735 1235.03 584.255C1241.14 583.012 1247.22 581.598 1253.26 580.008C1288.15 570.653 1284.14 519.887 1302.25 496.033C1360.89 418.773 1492.89 512.131 1503.46 585.891C1511.71 643.5 1457.62 653.681 1416.69 656.36C1474.53 751.579 1426.23 780.673 1429.17 865.34L1429.3 868.503C1430.62 909.902 1471.06 954.359 1495.52 992.662L1487.49 998.646C1461.57 1001.72 1436.76 989.504 1413.71 978.597C1409.52 1001.56 1407.35 1042.45 1388.4 1054.34C1377.35 1051.52 1372.07 1047.43 1365.5 1036.73C1269.33 880.061 1339.6 826.069 1366.03 687.335C1267.75 792.618 1278.18 681.044 1253.42 668.96L1243.24 674.868C1229.59 708.161 1237.26 1039.1 1238.14 1097.7C1318.14 1098.1 1398.12 1099.79 1478.07 1102.77C1496.17 1103.54 1534.71 1103.47 1546.83 1116.9C1574.56 1174.29 1548.48 1438.13 1548.05 1514.3C1548 1523.43 1533.06 1532.36 1525.76 1535.99L1507.53 1544.93C1505.74 1567.54 1517.14 1628.09 1520.99 1655.16C1544.44 1654.29 1574.06 1648.14 1584.46 1673.62L1578.11 1681.83C1563.23 1690.27 1544.65 1686.47 1527.24 1684.98C1530.4 1706.52 1545.97 1780.27 1532.54 1790.93C1452.69 1854.36 1451.54 1707.57 1449.28 1684.39C1387.98 1689.71 1311.11 1686.88 1248.74 1685.93C1244.9 1714.27 1240.26 1771.42 1225.58 1793.65C1207.85 1806.16 1182.5 1807.56 1165.7 1792.63C1151.64 1768.96 1161.76 1737.24 1166.91 1709.78C1169.18 1695.73 1171.31 1697.34 1165.98 1687.68C1130.83 1679.8 948.775 1686.43 905.758 1686.49L351.877 1686.39C254.436 1686.57 101.646 1690.57 10.1826 1682.7C-0.0371225 1676.02 2.84649 1680.5 0 1669.74C20.6315 1643.89 243.579 1655.15 288.193 1655.58C294.34 1333.02 285.673 1007.05 289.311 684.303C289.409 675.558 278.794 671.243 272.778 668.301C254.247 677.948 249.139 792.715 175.667 699.799L171.751 703.746C165.232 761.213 209.029 826.575 209.271 888.414C209.423 926.451 171.226 1053.73 130.067 1053.62C115.296 1039.65 115.756 1001.14 113.53 978.125C92.1155 986.67 60.0165 1001.52 37.2549 999.45L34.2607 993.409C41.7873 962.179 89.688 907.148 91.626 880.077C98.7095 781.124 47.4138 753.907 110.564 661.363C61.1987 650.881 -5.72962 631.504 32.9355 561.812C75.1125 485.79 178.559 407.216 239.863 522.504C242.606 527.659 247.997 559.629 249.615 567.799C258.308 578.735 273.354 580.676 287.631 584.71C287.471 542.03 286.501 495.67 289.983 453.324C309.697 213.46 468.563 41.1 701.899 3.45633ZM1458.42 1535.18C1455.32 1554.77 1484.61 1748.41 1492.41 1769.19C1498.59 1774.23 1498.67 1775.09 1506.13 1777.33C1513.01 1751.59 1481.85 1578.85 1473.35 1545.06C1465.21 1535.96 1469.97 1539.18 1458.42 1535.18ZM1228.23 1525.69C1220.86 1570.26 1188.75 1737.73 1188.05 1768.51L1193 1774.21L1206.25 1774.68C1213.69 1733.8 1247.78 1560.86 1244.72 1531.72C1238.58 1529.08 1234.76 1527.11 1228.23 1525.69ZM1201.68 695.511C1176.57 705.738 1152.94 715.31 1127.31 724.343C1130.91 1033.84 1123.53 1346.63 1127.8 1654.18C1142.13 1655.65 1161.84 1659.19 1174.99 1655.49C1175.93 1653.51 1179.09 1647.4 1179.39 1645.56C1186.07 1614.54 1202.14 1557.18 1191.84 1528.12C1169.1 1510.32 1154.27 1531.68 1148.91 1488.16C1144.57 1452.93 1155.21 1128.89 1166.76 1114.32C1176.04 1102.64 1192.41 1096.97 1205.89 1091.59C1210.07 1066.32 1208.29 712.751 1203.8 697.489L1201.68 695.511ZM1094.43 737.593C980.959 769.082 895.706 790.324 776.798 790.279C776.252 1068.95 770.663 1377.27 777.992 1654.11C802.178 1657.48 854.849 1656.34 881.445 1656.33C954.101 1655.61 1026.76 1655.39 1099.42 1655.68C1099.34 1572.54 1102.17 746.764 1094.43 737.593ZM319.793 694.137C312.385 801.811 317.3 961.356 317.514 1071.19L317.998 1656.25C330.16 1656.01 383.569 1655.73 392.21 1653.68C394.382 1350.76 386.351 1026.3 396.095 726.473C373.297 717.189 340.657 701.706 319.793 694.137ZM421.305 1656.07L745.873 1655.31L746.666 788.614C610.82 784.871 555.348 775.253 423.83 737.355L421.305 1656.07ZM1276.66 1530.14C1269.83 1570.47 1263.1 1615.84 1253.76 1655.16C1311.87 1655.46 1369.98 1655.43 1428.1 1655.08L1438.82 1653.1C1445.47 1632.38 1429.76 1558.05 1425.26 1533.71C1375.71 1533.41 1326.17 1532.21 1276.66 1530.14ZM1530.48 1133.51C1426.14 1131.65 1290.87 1122.52 1190.26 1125.23C1182.58 1175.35 1181.76 1266.2 1180.67 1318.82C1179.55 1372.91 1175.58 1445.03 1177.55 1496.83C1230.72 1500.92 1283.49 1500.86 1336.72 1502.95C1398.12 1505.37 1458.76 1510.12 1520.26 1509.81C1528.51 1417.87 1531.39 1230.33 1530.48 1133.51ZM137.255 667.831C66.9716 762.391 161.181 812.924 93.5234 951.654C108.193 947.022 117.88 941.702 131.662 946.822C141.981 957.407 142.567 971.326 145.275 986.576L144.798 993.916C154.833 988.676 170.872 943.112 173.846 930.724C199.566 823.551 130.22 795.274 145.604 677.949C140.969 669.167 144.223 671.315 137.255 667.831ZM1384.14 667.972C1384.74 684.357 1386.42 713.181 1383.16 728.027C1366.36 804.562 1325.54 875.343 1357.41 954.869C1361.95 966.189 1368.68 986.016 1378.84 993.064C1382.03 983.225 1383.37 977.797 1385.46 967.654C1397.75 945.001 1397.92 947.038 1424.93 947.676C1426.09 930.139 1403.67 905.171 1401.12 883.387C1392.95 813.649 1448.85 722.151 1384.14 667.972ZM1099.11 546.027C1001.26 552.064 876.274 548.789 777.281 547.266C776.189 569.822 781.777 590.773 760.285 602.018L752.632 597.09C743.594 583.05 746.682 565.012 747.544 547.834C640.158 549.904 531.302 547.117 423.616 547.972C421.005 575.251 414.274 597.202 429.66 616.921C445.645 620.847 455.32 626.847 466.395 620.314C466.961 630.227 467.959 639.014 466.571 648.853C411.059 647.868 301.054 612.978 278.219 622.262C278.486 647.28 356.643 678.815 379.146 687.71C509.038 739.924 648.005 764.818 787.638 760.883C920.047 757.286 1050.63 728.572 1172.65 676.216C1195.99 666.077 1243.65 647.059 1252.23 622.567L1249.42 614.213C1245.74 613.904 1023.76 657.615 1024.83 657.064C1025.58 646.508 1024.92 646.449 1021.22 636.965C1038.22 634.349 1081.99 621.348 1101.84 616.499L1099.11 546.027ZM1282.59 598.321C1276.67 617.948 1293.94 682.836 1299.94 705.305L1327.26 680.054L1359.38 647.73C1330.91 623.033 1315.35 598.6 1282.59 598.321ZM246.474 607.475C238.163 601.058 230.805 602.902 219.969 603.282C202.801 616.37 185.784 629.639 167.906 641.71C182.745 667.074 194.37 679.892 215.238 700.679L221.143 702.753C237.884 689.885 254.752 630.774 246.474 607.475ZM82.3623 539.398C68.1074 559.083 52.7409 574.802 55.0869 598.96C67.7549 624.195 93.667 623.849 119.061 629.774L139.777 627.182L141.289 622.551C116.205 593.686 101.706 583.835 86.1035 545.39C84.6134 541.718 84.7783 542.318 82.3623 539.398ZM1438.76 534.409C1435.79 547.983 1433.48 559.716 1427.53 572.45C1420.15 588.21 1395.68 607.473 1394.84 622.256C1406.76 627.292 1416.54 625.231 1429.67 624.364C1445.65 621.606 1457.5 621.58 1468.94 610.64C1484.13 581.737 1461.71 550.957 1438.76 534.409ZM759.217 29.9221C741.614 29.964 724.113 31.2492 706.575 32.7386C586.05 49.8747 486.277 106.116 412.151 205.061C313.298 337.014 317.03 436.998 317.453 590.811C342.197 598.133 367.676 606.223 392.852 611.455C392.026 583.083 386.619 542.423 402.739 520.518C425.934 513.204 770.535 517.088 814.742 518.414C860.795 518.055 1087.23 511.347 1117.82 523.184C1132.29 542.757 1128.27 582.799 1127.97 608.318C1153.91 602.614 1179.96 597.423 1206.1 592.75C1206.47 545.085 1208.23 481.701 1204.62 435.241C1197.24 340.173 1141.22 229.757 1074.64 161.734C991.183 76.5452 877.509 29.0418 759.217 29.9221ZM1396 543.984C1379.13 558.817 1359.15 574.643 1346.85 593.181C1348 595.73 1349.53 599.749 1351.11 601.747C1372.73 588.975 1389.19 576.808 1399.6 552.692C1398.13 545.887 1399.83 547.468 1396 543.984ZM118.664 543.722C127.582 573.805 150.203 604.226 184.854 597.484C174.7 576.98 140.902 549.309 118.664 543.722ZM168.625 496.161C161.67 493.374 142.014 494.568 133.833 495.177L125.273 504.778C132.01 514.708 190.141 552.89 212.856 575.579L222.075 570.844C230.28 539.046 196.374 507.285 168.625 496.161ZM1353.41 494.395C1327.4 507.918 1296.14 540.149 1308.02 571.814L1315.55 574.063C1327.6 567.253 1328.76 564.921 1338.07 554.127L1341.78 550.593C1359.31 534.045 1389.09 518.031 1396.08 505.36C1386.17 495.329 1367.65 494.816 1353.41 494.395ZM717.204 112.045C888.918 90.449 1049.04 195.102 1109.86 358.177C1120.31 386.199 1132.3 413.236 1110.62 438.058C1088.17 443.115 850.41 440.795 811.84 440.758L563.458 440.62C521.924 440.879 448.788 443.7 409.483 438.843C377.521 405.96 446.004 289.077 468.469 259.032C531.068 175.295 615.333 127.571 717.204 112.045ZM988.986 230.871C928.921 285.547 866.863 350.04 809.039 408.091L918.06 410.115C976.844 411.425 1035.65 411.692 1094.45 410.911C1081.48 364.176 1032.34 248.972 988.986 230.871ZM531.761 230.364C473.194 289.165 452.605 331.532 429.117 410.925L624.098 410.237L714.562 408.435C699.553 387.965 550.543 242.231 531.761 230.364ZM777.141 396.282L874.853 299.306C904.787 268.822 935.091 238.714 965.752 208.986C899.777 167.687 858.814 143.232 778.02 139.285L777.141 396.282ZM744.461 142.062C732.093 138.252 730.832 139.012 717.655 140.998C658.386 151.496 606.323 175.225 557.176 210.157C594.271 246.911 634.603 288.564 673.037 323.225C699.177 347.179 724.319 369.627 748.419 395.763C746.037 346.641 752.731 173.96 744.461 142.062Z" fill="#301E0F"/>
<path d="M1385.69 1170.58C1381.84 1160.58 1378.12 1153.72 1374.53 1150.01C1370.95 1146.13 1365.69 1143.71 1358.76 1142.76L1358.96 1137.67C1359.81 1137.71 1361.09 1137.67 1362.79 1137.57C1364.32 1137.46 1365.94 1137.44 1367.63 1137.51C1376.12 1137.84 1384.17 1140.37 1391.8 1145.09C1399.43 1149.64 1405.71 1158.46 1410.63 1171.57L1450.08 1275.82L1466.47 1241.56C1474.25 1225.39 1489.18 1193.45 1511.29 1145.73L1523.5 1146.21L1443.74 1313.8L1439.16 1313.62L1385.69 1170.58Z" fill="black"/>
<path d="M1233.67 1167.89C1229.83 1161.79 1226.45 1156.98 1223.53 1153.47C1220.62 1149.79 1216.76 1146.49 1211.95 1143.59C1207.14 1140.68 1201.18 1138.91 1194.06 1138.29L1194.27 1133.2L1224.8 1134.41C1232.26 1134.7 1238.44 1137.41 1243.33 1142.53C1248.23 1147.48 1253.56 1154.57 1259.31 1163.8L1283.25 1202.97L1336.75 1138.83L1349.47 1139.34L1289.25 1212.13L1327.6 1273.53C1332.55 1281.54 1337.89 1288.29 1343.62 1293.79C1349.52 1299.12 1356.11 1302.18 1363.39 1302.98L1363.18 1308.07L1336.47 1307.01C1329.18 1306.72 1322.83 1303.92 1317.43 1298.61C1312.05 1293.13 1306.89 1286.13 1301.96 1277.61L1273.23 1230.61L1213.07 1302.13L1200.35 1301.63L1267.23 1221.45L1233.67 1167.89Z" fill="black"/>
<path d="M1323.32 1428.55C1324.09 1428.58 1324.72 1428.99 1325.21 1429.53C1325.66 1430.01 1325.85 1430.62 1325.82 1431.25C1325.8 1431.81 1325.62 1432.33 1325.32 1432.8L1325.31 1432.82L1325.29 1432.84C1324.14 1434.48 1323.19 1436.14 1322.43 1437.83L1322.43 1437.84C1321.68 1439.47 1321.31 1440.87 1321.26 1442.08C1321.23 1442.91 1321.37 1443.35 1321.51 1443.57C1321.62 1443.72 1321.78 1443.85 1322.18 1443.87C1322.73 1443.89 1323.42 1443.78 1324.26 1443.49C1325.07 1443.16 1325.91 1442.65 1326.79 1441.93C1327.4 1441.42 1328.03 1440.83 1328.7 1440.16L1328.72 1440.15L1328.73 1440.14C1329.43 1439.49 1330.14 1438.72 1330.86 1437.81L1330.88 1437.79L1330.89 1437.78C1331.59 1436.99 1332.11 1436.4 1332.46 1436C1332.63 1435.81 1332.76 1435.66 1332.85 1435.56C1332.89 1435.51 1332.92 1435.48 1332.94 1435.45C1332.95 1435.44 1332.96 1435.43 1332.97 1435.42C1332.97 1435.42 1332.97 1435.42 1332.97 1435.42L1332.98 1435.41L1333.29 1435.06L1333.77 1435.07C1334.21 1435.09 1334.63 1435.32 1334.88 1435.74C1335.07 1436.09 1335.09 1436.46 1335.08 1436.74C1335.06 1437.44 1334.73 1438.04 1334.27 1438.54C1331.81 1441.56 1329.51 1443.85 1327.38 1445.38C1325.26 1446.91 1323.21 1447.74 1321.27 1447.67C1319.69 1447.6 1318.35 1447.13 1317.44 1446.07C1316.55 1445.03 1316.22 1443.6 1316.29 1441.96C1316.35 1440.35 1317 1438.14 1318.14 1435.42C1318.65 1434.14 1319.17 1433.04 1319.69 1432.15L1319.71 1432.13C1320.26 1431.21 1320.82 1430.37 1321.38 1429.6C1321.82 1428.99 1322.47 1428.51 1323.32 1428.55ZM1327.37 1420.91C1328.13 1420.94 1328.88 1421.16 1329.42 1421.74C1329.96 1422.32 1330.12 1423.09 1330.09 1423.85C1330.05 1424.74 1329.67 1425.51 1329.02 1426.12C1328.31 1426.77 1327.46 1427.12 1326.51 1427.08C1325.75 1427.05 1325 1426.83 1324.46 1426.25C1323.93 1425.67 1323.76 1424.9 1323.79 1424.14C1323.83 1423.25 1324.21 1422.48 1324.87 1421.87C1325.57 1421.22 1326.42 1420.87 1327.37 1420.91Z" fill="black" stroke="black" stroke-width="2"/>
<path d="M1321.09 1437.05C1321.09 1436.98 1321.11 1436.43 1320.58 1436.14C1320.45 1436.07 1320.33 1436.04 1320.23 1436.02C1320.28 1436.14 1320.31 1436.31 1320.3 1436.54L1320.29 1436.62C1320.27 1436.67 1320.25 1436.73 1320.21 1436.79C1320.26 1436.77 1320.29 1436.76 1320.31 1436.75C1320.34 1436.73 1320.35 1436.72 1320.31 1436.75C1320.27 1436.79 1320.22 1436.84 1320.15 1436.92L1320.18 1436.94L1321.01 1437.4C1321.01 1437.39 1321.01 1437.39 1321.01 1437.38C1321.02 1437.37 1321.03 1437.35 1321.04 1437.31C1321.05 1437.29 1321.08 1437.18 1321.09 1437.05ZM1321.3 1436.58C1321.28 1436.98 1321.08 1437.3 1320.94 1437.5L1320.22 1436.98L1320.91 1437.62C1320.25 1438.42 1319.58 1439.22 1318.88 1440.02C1318.15 1440.84 1317.3 1441.68 1316.33 1442.53L1316.33 1442.53C1314.12 1444.52 1311.99 1445.7 1310 1445.62C1309.21 1445.59 1308.48 1445.33 1307.87 1444.84C1307.26 1444.36 1306.82 1443.69 1306.5 1442.9C1305.88 1441.36 1305.66 1439.19 1305.77 1436.5L1305.77 1436.37C1305.39 1436.82 1304.98 1437.32 1304.55 1437.87C1303.45 1439.32 1302.37 1440.97 1301.29 1442.83L1301.29 1442.84C1300.43 1444.3 1299.28 1445.42 1297.78 1445.36C1297.23 1445.34 1296.68 1445.12 1296.32 1444.6L1296.21 1444.44L1296.17 1444.26C1296.01 1443.57 1295.97 1442.76 1296 1441.85C1296.03 1441.13 1296.15 1440.07 1296.36 1438.7C1296.57 1437.25 1296.9 1435.53 1297.34 1433.54C1297.46 1432.97 1297.56 1432.44 1297.66 1431.97C1297.65 1431.98 1297.63 1431.99 1297.62 1432.01C1296.84 1432.88 1296.02 1433.83 1295.17 1434.85C1294.11 1436.18 1292.96 1437.63 1291.73 1439.2L1291.73 1439.2C1290.56 1440.71 1289.36 1442.38 1288.13 1444.21L1288.11 1444.23C1287.92 1444.49 1287.72 1444.73 1287.5 1444.91C1287.3 1445.08 1286.94 1445.32 1286.47 1445.3C1286.17 1445.29 1285.87 1445.19 1285.61 1444.98C1285.37 1444.78 1285.23 1444.54 1285.14 1444.31C1284.96 1443.88 1284.93 1443.36 1284.95 1442.86C1284.96 1442.69 1284.97 1442.52 1285 1442.36C1285.02 1442.24 1285.06 1442.06 1285.14 1441.88L1285.14 1441.88C1285.74 1440.56 1286.38 1438.96 1287.06 1437.06C1287.74 1435.19 1288.42 1433.04 1289.12 1430.6C1289.19 1430.26 1289.25 1429.93 1289.31 1429.59L1289.32 1429.53L1289.34 1429.46C1289.45 1429.15 1289.62 1428.52 1289.86 1427.56L1289.89 1427.44L1289.95 1427.32C1290.06 1427.14 1290.21 1426.93 1290.38 1426.73C1290.63 1426.41 1290.97 1426.15 1291.34 1425.92L1291.35 1425.92L1291.36 1425.91C1292.03 1425.52 1292.74 1425.28 1293.45 1425.3L1293.69 1425.33C1293.95 1425.37 1294.24 1425.47 1294.49 1425.7C1294.85 1426.03 1294.94 1426.47 1294.93 1426.82C1294.92 1427.01 1294.87 1427.23 1294.82 1427.39C1294.77 1427.58 1294.7 1427.81 1294.61 1428.09C1294.43 1428.65 1294.17 1429.41 1293.82 1430.37C1293.56 1431.11 1293.24 1431.97 1292.88 1432.96L1297.95 1426.72L1297.95 1426.72L1297.96 1426.71C1298.83 1425.67 1299.91 1425.02 1301.18 1425.07C1301.78 1425.1 1302.39 1425.29 1302.82 1425.82C1303.23 1426.32 1303.33 1426.95 1303.31 1427.53C1303.29 1427.96 1303.21 1428.51 1303.09 1429.17C1303 1429.83 1302.83 1430.65 1302.59 1431.61C1302.36 1432.53 1302.11 1433.72 1301.85 1435.16C1301.81 1435.49 1301.75 1435.84 1301.7 1436.2C1301.83 1436.03 1301.96 1435.86 1302.09 1435.69L1302.1 1435.69C1303.29 1434.19 1304.68 1432.51 1306.29 1430.63C1307.21 1429.56 1308.31 1428.87 1309.59 1428.92C1310.2 1428.95 1310.8 1429.17 1311.21 1429.73C1311.58 1430.24 1311.66 1430.87 1311.64 1431.46C1311.62 1431.93 1311.54 1432.48 1311.42 1433.1C1311.34 1433.66 1311.24 1434.35 1311.1 1435.15C1310.97 1435.95 1310.84 1436.65 1310.72 1437.26C1310.65 1437.84 1310.6 1438.31 1310.59 1438.68C1310.54 1439.95 1310.68 1440.75 1310.89 1441.21C1310.99 1441.42 1311.1 1441.53 1311.18 1441.59C1311.25 1441.64 1311.36 1441.68 1311.53 1441.69C1312.17 1441.72 1313.07 1441.4 1314.27 1440.44C1315.46 1439.49 1316.82 1438.02 1318.35 1435.97L1318.36 1435.96C1318.56 1435.7 1318.76 1435.46 1318.95 1435.28C1319.05 1435.19 1319.17 1435.09 1319.31 1435.01C1319.44 1434.94 1319.68 1434.83 1319.99 1434.84L1320.15 1434.85C1320.32 1434.88 1320.49 1434.94 1320.66 1435.05C1320.88 1435.19 1321.02 1435.38 1321.12 1435.57C1321.29 1435.91 1321.31 1436.29 1321.3 1436.58Z" fill="black" stroke="black" stroke-width="2"/>
<path d="M1283.13 1423.06C1283.88 1423.09 1284.54 1423.38 1285.05 1423.92C1285.72 1424.55 1285.95 1425.41 1285.91 1426.31C1285.87 1427.35 1285.44 1428.39 1284.74 1429.41C1284.04 1430.44 1283.03 1431.5 1281.76 1432.61L1281.76 1432.61C1280.72 1433.52 1279.62 1434.33 1278.47 1435.03C1277.57 1435.61 1276.7 1436.06 1275.88 1436.37C1275.76 1436.81 1275.69 1437.32 1275.67 1437.91C1275.63 1438.91 1275.83 1439.81 1276.27 1440.64C1276.6 1441.28 1277.13 1441.63 1278.04 1441.66C1279.36 1441.72 1280.58 1441.39 1281.72 1440.68C1282.95 1439.92 1284.09 1438.97 1285.16 1437.85C1286.26 1436.64 1287.23 1435.52 1288.07 1434.5C1288.5 1433.95 1289.14 1433.39 1289.98 1433.42C1290.24 1433.43 1290.61 1433.51 1290.9 1433.83C1291.2 1434.14 1291.25 1434.52 1291.24 1434.78C1291.23 1435.03 1291.16 1435.27 1291.08 1435.47L1291.06 1435.54L1291.02 1435.6C1290.97 1435.7 1290.91 1435.8 1290.86 1435.9L1290.82 1435.96L1290.77 1436.03C1289.85 1437.23 1288.79 1438.52 1287.61 1439.91C1286.37 1441.37 1284.98 1442.6 1283.43 1443.62C1281.78 1444.7 1279.9 1445.19 1277.82 1445.11C1275.94 1445.04 1274.27 1444.42 1272.86 1443.26C1271.29 1441.97 1270.68 1439.94 1270.78 1437.48C1270.84 1435.97 1271.24 1434.38 1271.95 1432.75C1272.66 1431.06 1273.58 1429.49 1274.7 1428.04L1274.71 1428.03L1274.72 1428.02C1275.9 1426.57 1277.19 1425.37 1278.59 1424.44C1280.04 1423.49 1281.56 1423 1283.13 1423.06ZM1281.58 1427.18C1281.47 1427.24 1281.25 1427.36 1280.92 1427.68C1280.41 1428.17 1279.79 1428.96 1279.04 1430.08L1279.03 1430.09L1279.02 1430.1C1278.66 1430.61 1278.34 1431.08 1278.06 1431.52C1278.44 1431.23 1278.83 1430.9 1279.22 1430.54L1279.23 1430.53C1280.85 1429.08 1281.49 1427.97 1281.58 1427.18Z" fill="black" stroke="black" stroke-width="2"/>
<path d="M1264.63 1420.04C1266.4 1420.11 1267.81 1420.8 1268.49 1422.33L1268.49 1422.33C1269.08 1423.58 1269.34 1424.95 1269.28 1426.42C1269.23 1427.62 1269.05 1428.76 1268.73 1429.85L1268.73 1429.85C1268.42 1430.96 1267.98 1432.18 1267.4 1433.51C1266.95 1434.57 1266.41 1435.66 1265.79 1436.8C1266.17 1436.93 1266.57 1437.01 1267.02 1437.03C1267.79 1437.06 1268.51 1436.99 1269.18 1436.85C1269.77 1436.67 1270.36 1436.33 1270.95 1435.79C1271.61 1435.18 1272.1 1434.66 1272.43 1434.23L1272.45 1434.2L1272.47 1434.18C1272.68 1433.93 1272.83 1433.76 1272.92 1433.65C1272.94 1433.62 1272.96 1433.6 1272.97 1433.59L1272.98 1433.57C1272.98 1433.58 1272.98 1433.58 1272.97 1433.59C1272.96 1433.6 1272.95 1433.62 1272.94 1433.64C1272.93 1433.65 1272.89 1433.71 1272.86 1433.81C1272.84 1433.84 1272.78 1433.99 1272.79 1434.2C1272.8 1434.31 1272.82 1434.51 1272.96 1434.72C1273.02 1434.8 1273.08 1434.87 1273.15 1434.92L1273.22 1434.83C1273.56 1434.44 1273.75 1434.22 1273.79 1434.17L1273.1 1433.43C1273.32 1433.23 1273.67 1433.01 1274.13 1433.03L1274.26 1433.04C1274.54 1433.07 1274.81 1433.19 1275.03 1433.39C1275.23 1433.58 1275.36 1433.8 1275.44 1434.01C1275.58 1434.28 1275.66 1434.6 1275.61 1434.95C1275.56 1435.29 1275.41 1435.57 1275.23 1435.79L1275.23 1435.79C1274.29 1437.03 1273.08 1438.11 1271.64 1439.03L1271.63 1439.04C1270.16 1439.96 1268.54 1440.39 1266.81 1440.32C1265.84 1440.28 1264.94 1440.09 1264.13 1439.73C1261.74 1442.97 1259.15 1444.83 1256.32 1444.72C1255.23 1444.68 1254.26 1444.31 1253.6 1443.48C1252.97 1442.68 1252.76 1441.61 1252.81 1440.45C1252.93 1437.36 1254.38 1433.92 1256.99 1430.16C1256.96 1430.01 1256.94 1429.85 1256.92 1429.69L1256.91 1429.61L1256.94 1428.68C1257.03 1426.61 1257.8 1424.66 1259.19 1422.84C1260.64 1420.96 1262.46 1419.95 1264.63 1420.04ZM1259.24 1435.52C1258.8 1436.42 1258.45 1437.23 1258.19 1437.93C1257.77 1439.04 1257.59 1439.85 1257.57 1440.41C1257.56 1440.6 1257.57 1440.74 1257.59 1440.83C1257.6 1440.88 1257.61 1440.91 1257.62 1440.93C1257.63 1440.93 1257.66 1440.94 1257.69 1440.94C1257.74 1440.94 1257.94 1440.92 1258.36 1440.67C1258.76 1440.43 1259.26 1440.04 1259.87 1439.48C1260.37 1439.02 1260.8 1438.58 1261.14 1438.17C1261.25 1438.04 1261.36 1437.9 1261.45 1437.78C1260.59 1437.07 1259.85 1436.32 1259.24 1435.52ZM1264.79 1429.25C1264.63 1429.45 1264.43 1429.59 1264.24 1429.68C1263.87 1429.84 1263.45 1429.87 1263.1 1429.85C1263.01 1429.85 1262.78 1429.88 1262.38 1430.26C1262.04 1430.57 1261.65 1431.06 1261.22 1431.75C1261.65 1432.95 1262.27 1433.98 1263.09 1434.84C1263.54 1433.78 1263.91 1432.85 1264.19 1432.04C1264.55 1431.03 1264.74 1430.1 1264.79 1429.25ZM1263.34 1423.75C1262.69 1423.72 1262.05 1424.04 1261.44 1425.23L1261.43 1425.24C1261.26 1425.56 1261.12 1425.9 1261.02 1426.26C1261.41 1426.12 1261.82 1426.04 1262.25 1426.06C1263.26 1426.1 1264.15 1426.49 1264.7 1427.35L1264.7 1427.35C1264.74 1427.41 1264.79 1427.47 1264.82 1427.54C1264.78 1426.63 1264.62 1425.78 1264.35 1424.98L1264.34 1424.98L1264.34 1424.97C1263.98 1423.89 1263.59 1423.76 1263.34 1423.75Z" fill="black" stroke="black" stroke-width="2"/>
<path d="M1221.56 1396.09C1225.87 1396.26 1229.24 1397.24 1231.52 1399.18C1233.84 1401.16 1234.87 1404.01 1234.73 1407.55C1234.6 1410.72 1233.65 1414.31 1231.91 1418.31C1233.3 1416.73 1234.62 1415.28 1235.85 1413.97L1235.86 1413.96C1238.12 1411.62 1240.19 1409.85 1242.06 1408.69C1243.91 1407.54 1245.64 1406.9 1247.2 1406.96C1249.2 1407.04 1250.87 1407.59 1252.01 1408.77C1253.16 1409.96 1253.6 1411.62 1253.52 1413.56C1253.39 1416.86 1251.63 1421.7 1248.43 1428C1246.83 1431.14 1245.64 1433.71 1244.83 1435.72C1244.01 1437.78 1243.64 1439.15 1243.61 1439.93C1243.59 1440.56 1243.72 1440.84 1243.84 1440.98C1243.94 1441.09 1244.16 1441.24 1244.7 1441.26C1245.14 1441.28 1245.92 1441.04 1247.14 1440.25L1247.15 1440.24L1247.16 1440.24C1247.82 1439.83 1248.34 1439.51 1248.73 1439.3C1248.92 1439.19 1249.1 1439.1 1249.24 1439.03C1249.32 1439 1249.4 1438.97 1249.48 1438.94C1249.54 1438.92 1249.71 1438.86 1249.92 1438.87L1250.04 1438.88C1250.34 1438.92 1250.67 1439.06 1250.91 1439.38C1251.15 1439.71 1251.18 1440.07 1251.17 1440.3C1251.11 1441.86 1249.99 1442.97 1248.45 1443.75L1248.45 1443.75L1248.44 1443.75C1246.9 1444.5 1245.44 1444.9 1244.1 1444.85C1242.58 1444.79 1241.28 1444.33 1240.4 1443.32C1239.52 1442.32 1239.2 1440.94 1239.26 1439.38C1239.35 1437.08 1240.3 1434.16 1241.98 1430.67L1241.98 1430.67L1245.15 1424.15L1245.15 1424.15C1245.75 1422.92 1246.27 1421.76 1246.71 1420.69C1247.15 1419.56 1247.52 1418.5 1247.8 1417.53L1247.81 1417.51L1247.81 1417.49C1248.5 1415.46 1248.83 1413.95 1248.87 1412.92C1248.9 1412.12 1248.77 1411.69 1248.64 1411.49C1248.54 1411.35 1248.4 1411.23 1248.03 1411.21C1247.51 1411.19 1246.86 1411.32 1246.07 1411.65L1246.05 1411.66C1244.34 1412.34 1242.29 1413.7 1239.9 1415.81L1239.89 1415.82C1237.51 1417.87 1234.92 1420.54 1232.11 1423.81L1232.11 1423.82C1229.98 1426.26 1227.93 1428.79 1225.96 1431.39L1225.95 1431.4C1223.99 1433.95 1222.14 1436.6 1220.42 1439.36L1220.41 1439.36C1220.02 1439.99 1219.46 1440.77 1218.76 1441.72L1218.76 1441.72C1218.09 1442.64 1217.29 1443.63 1216.37 1444.68L1216.06 1445.04L1215.58 1445.02C1214.86 1444.99 1214.15 1444.79 1213.64 1444.23C1213.13 1443.68 1212.98 1442.95 1213.01 1442.24C1213.03 1441.73 1213.14 1441.18 1213.49 1440.74L1213.52 1440.71C1214.86 1439.19 1216.33 1437.16 1217.95 1434.6C1219.56 1432 1221.36 1428.71 1223.34 1424.73C1227.33 1416.68 1229.3 1410.97 1229.44 1407.49C1229.54 1404.95 1228.86 1403.17 1227.57 1401.99C1226.24 1400.78 1224.1 1400.02 1220.96 1399.9C1217.99 1399.78 1214.54 1400.3 1210.59 1401.5L1210.58 1401.5C1208.3 1402.16 1206.07 1402.97 1203.88 1403.94C1201.76 1404.9 1199.56 1406.11 1197.3 1407.57L1197.29 1407.58C1191.52 1411.2 1188.96 1414.56 1188.84 1417.58C1188.8 1418.78 1189.16 1419.56 1189.81 1420.08C1190.52 1420.65 1191.72 1421.05 1193.59 1421.13C1195.43 1421.2 1198.17 1420.83 1201.85 1419.96L1201.86 1419.96L1201.88 1419.96C1202.04 1419.92 1202.23 1419.89 1202.41 1419.88C1202.45 1419.87 1202.49 1419.86 1202.53 1419.85C1202.6 1419.83 1202.74 1419.81 1202.89 1419.81L1203.13 1419.83C1203.39 1419.87 1203.68 1419.96 1203.94 1420.17C1204.33 1420.49 1204.46 1420.94 1204.44 1421.33C1204.4 1422.34 1203.61 1422.97 1202.86 1423.35C1202.05 1423.76 1200.94 1424.07 1199.57 1424.33L1199.56 1424.34L1199.54 1424.34C1198.51 1424.5 1197.56 1424.64 1196.68 1424.76C1195.76 1424.89 1194.91 1424.94 1194.13 1424.91C1191.17 1424.79 1188.8 1424.12 1187.17 1422.74C1185.5 1421.32 1184.79 1419.28 1184.88 1416.81C1185.07 1412.14 1188.49 1407.91 1194.53 1404.07L1194.54 1404.06C1199.22 1401.13 1204.19 1398.97 1209.44 1397.56L1209.44 1397.56C1213.74 1396.44 1217.78 1395.94 1221.56 1396.09Z" fill="black" stroke="black" stroke-width="2"/>
<path d="M1511.1 1431.92C1511.6 1431.94 1512.11 1432.01 1512.53 1432.21C1512.75 1432.32 1512.98 1432.49 1513.16 1432.74C1513.34 1433.01 1513.42 1433.32 1513.41 1433.62C1513.39 1434.06 1513.27 1434.84 1513.08 1435.89C1512.88 1436.98 1512.57 1438.43 1512.14 1440.25L1512.14 1440.25C1511.58 1442.78 1511.09 1444.95 1510.66 1446.78L1510.65 1446.78C1510.31 1448.23 1509.9 1449.78 1509.44 1451.45C1510.44 1451.56 1511.3 1451.78 1511.96 1452.15C1512.41 1452.4 1512.8 1452.74 1513.06 1453.18C1513.33 1453.63 1513.44 1454.13 1513.42 1454.65C1513.41 1454.85 1513.38 1455.15 1513.23 1455.43C1513.14 1455.58 1513.01 1455.76 1512.8 1455.88C1512.58 1456.02 1512.35 1456.06 1512.14 1456.05C1511.96 1456.05 1511.83 1456 1511.79 1455.98C1511.74 1455.96 1511.69 1455.94 1511.65 1455.92C1511.59 1455.89 1511.51 1455.85 1511.45 1455.81C1511.32 1455.73 1511.17 1455.63 1510.98 1455.5C1510.78 1455.39 1510.52 1455.23 1510.22 1455.05C1510.03 1454.96 1509.73 1454.89 1509.28 1454.87L1508.62 1454.85C1506.46 1462.05 1503.83 1467.78 1500.71 1471.98L1500.71 1471.99C1494.82 1479.92 1488.5 1484.02 1481.76 1483.75C1479.07 1483.65 1476.81 1482.78 1475.08 1481.09L1475.08 1481.09C1473.25 1479.34 1472.38 1477.12 1472.49 1474.51C1472.72 1468.59 1477.21 1463.28 1485.27 1458.5L1485.28 1458.5C1491.9 1454.63 1498.24 1452.26 1504.3 1451.42C1504.66 1450 1505.07 1448.29 1505.5 1446.29C1505.67 1445.49 1505.84 1444.65 1506.02 1443.77C1505.82 1444.06 1505.61 1444.35 1505.39 1444.65C1504.47 1445.94 1503.68 1447.01 1503.03 1447.86L1503.01 1447.88C1502.35 1448.7 1501.68 1449.42 1501 1450.05L1501 1450.05C1499.59 1451.45 1498.07 1452.29 1496.46 1452.22C1495.29 1452.18 1494.37 1451.59 1493.82 1450.55C1493.33 1449.59 1493.17 1448.3 1493.23 1446.81C1493.3 1445.04 1493.95 1442.96 1495.09 1440.6C1495.72 1439.25 1496.43 1438.16 1497.23 1437.4C1498.05 1436.63 1499.01 1436.18 1500.08 1436.22C1500.49 1436.24 1500.97 1436.31 1501.36 1436.56C1501.84 1436.86 1502.1 1437.35 1502.08 1437.91C1502.07 1438.08 1502.03 1438.21 1502.02 1438.24C1502 1438.29 1501.98 1438.34 1501.96 1438.37C1501.93 1438.44 1501.89 1438.51 1501.85 1438.58C1501.77 1438.73 1501.66 1438.91 1501.52 1439.14C1501.25 1439.6 1500.7 1440.47 1499.89 1441.76L1499.89 1441.76C1498.54 1443.93 1497.96 1445.47 1497.92 1446.47C1497.89 1447.22 1497.99 1447.63 1498.08 1447.82C1498.1 1447.86 1498.12 1447.88 1498.13 1447.89C1498.14 1447.9 1498.15 1447.91 1498.15 1447.91C1498.15 1447.91 1498.15 1447.91 1498.16 1447.91C1498.17 1447.92 1498.19 1447.92 1498.22 1447.92C1498.24 1447.92 1498.31 1447.9 1498.41 1447.84C1498.59 1447.74 1498.82 1447.57 1499.11 1447.29C1499.7 1446.74 1500.44 1445.87 1501.34 1444.65C1503.11 1442.23 1505.38 1438.56 1508.17 1433.62C1508.32 1433.04 1508.67 1432.57 1509.22 1432.27C1509.77 1431.97 1510.43 1431.89 1511.1 1431.92ZM1503.65 1454.91C1500.74 1455.44 1497.27 1456.62 1493.23 1458.48L1493.23 1458.49C1488.44 1460.67 1484.92 1462.82 1482.59 1464.92L1482.58 1464.93C1478.68 1468.35 1476.82 1471.67 1476.69 1474.91C1476.62 1476.67 1477.1 1477.98 1478.05 1478.97C1479.13 1480.04 1480.51 1480.63 1482.26 1480.7C1485.12 1480.81 1488.02 1479.74 1490.99 1477.32L1490.99 1477.31L1491 1477.31C1493.37 1475.45 1495.56 1472.95 1497.58 1469.8C1500.17 1465.72 1502.2 1460.76 1503.65 1454.91Z" fill="black" stroke="black" stroke-width="2"/>
<path d="M1484.36 1431.47C1486.43 1431.56 1488.06 1432.35 1489.04 1433.97L1489.19 1434.2C1489.33 1434.45 1489.44 1434.77 1489.43 1435.12C1489.4 1435.84 1488.76 1436.1 1488.65 1436.14C1488.44 1436.22 1488.21 1436.26 1488.01 1436.28L1488.01 1436.28L1488 1436.28L1488 1436.28C1488 1436.28 1488 1436.28 1488 1436.29C1487.99 1436.29 1487.96 1436.31 1487.92 1436.37C1486.78 1438.08 1486.07 1440.81 1485.91 1444.69C1485.84 1446.48 1485.99 1447.7 1486.28 1448.44C1486.41 1448.8 1486.56 1448.99 1486.68 1449.09C1486.79 1449.18 1486.92 1449.23 1487.1 1449.24C1487.32 1449.25 1487.76 1449.14 1488.51 1448.64C1489.23 1448.17 1490.1 1447.42 1491.14 1446.36L1491.16 1446.35L1491.17 1446.33C1491.43 1446.09 1491.84 1445.63 1492.43 1444.89C1492.72 1444.52 1493.02 1444.15 1493.32 1443.78C1493.61 1443.41 1493.9 1443.04 1494.19 1442.68C1494.78 1441.9 1495.2 1441.35 1495.44 1441.08L1495.47 1441.04L1495.51 1441C1495.63 1440.89 1495.77 1440.78 1495.93 1440.69C1496.08 1440.61 1496.32 1440.51 1496.62 1440.52L1496.79 1440.54C1497.18 1440.6 1497.51 1440.85 1497.69 1441.2C1497.86 1441.52 1497.87 1441.86 1497.86 1442.1C1497.84 1442.67 1497.52 1443.23 1497.19 1443.68L1497.19 1443.68C1495.97 1445.46 1494.6 1447.18 1493.08 1448.83C1491.57 1450.48 1490.19 1451.65 1488.96 1452.2C1487.9 1452.68 1486.82 1452.91 1485.74 1452.87C1483.92 1452.8 1482.45 1452.08 1481.51 1450.64C1480.8 1449.55 1480.45 1448.14 1480.38 1446.48C1479.27 1448 1478.2 1449.24 1477.17 1450.19C1475.52 1451.72 1473.83 1452.63 1472.14 1452.56C1471.17 1452.52 1470.28 1452.22 1469.67 1451.49C1469.07 1450.78 1468.88 1449.83 1468.92 1448.83C1469.03 1445.94 1470.57 1442.61 1473.3 1438.89C1475.99 1435.22 1478.71 1432.82 1481.49 1431.95L1481.51 1431.95C1481.99 1431.81 1482.45 1431.69 1482.89 1431.6C1483.38 1431.5 1483.87 1431.45 1484.36 1431.47ZM1483.24 1436.03C1481.78 1436.26 1480.15 1437.25 1478.33 1439.29L1478.33 1439.3C1475.1 1442.86 1473.64 1445.65 1473.56 1447.72C1473.55 1447.93 1473.57 1448.09 1473.59 1448.21C1473.6 1448.26 1473.61 1448.3 1473.62 1448.32C1473.83 1448.33 1474.27 1448.21 1474.98 1447.69C1475.7 1447.12 1476.46 1446.34 1477.28 1445.35C1478.54 1443.81 1479.73 1442.15 1480.85 1440.39C1481.72 1439.04 1482.51 1437.58 1483.24 1436.03Z" fill="black" stroke="black" stroke-width="2"/>
<path d="M1417.41 1405.28C1421.23 1405.43 1424.24 1406.27 1426.29 1407.96C1428.38 1409.68 1429.3 1412.17 1429.18 1415.23C1429.06 1418.39 1428.07 1422.05 1426.27 1426.2C1427.73 1424.54 1429.1 1423.02 1430.38 1421.66L1430.39 1421.65L1430.39 1421.65C1432.66 1419.31 1434.72 1417.54 1436.6 1416.38C1438.45 1415.23 1440.17 1414.59 1441.74 1414.65C1443.55 1414.72 1445 1415.49 1445.92 1416.98C1446.79 1418.41 1447.1 1420.37 1447 1422.74C1446.88 1425.98 1445.76 1430.17 1443.7 1435.28C1444.32 1434.67 1444.93 1434.06 1445.54 1433.46L1445.55 1433.45L1447 1432.09C1448.47 1430.73 1449.98 1429.36 1451.53 1428C1454.45 1425.41 1456.96 1423.36 1459.08 1421.87C1461.04 1420.49 1462.72 1419.54 1464.08 1419.11L1464.35 1419.03C1465.04 1418.83 1465.71 1418.73 1466.34 1418.76C1467.36 1418.8 1468.27 1419.18 1468.86 1420.01C1469.42 1420.79 1469.59 1421.83 1469.55 1422.94C1469.48 1424.65 1468.91 1426.67 1467.9 1428.98L1466.99 1431.01C1466.29 1432.55 1465.63 1433.96 1465 1435.25L1465 1435.25C1464.23 1436.89 1463.37 1438.76 1462.42 1440.85C1461.26 1443.43 1460.4 1445.67 1459.83 1447.58C1459.31 1449.45 1459.04 1450.91 1459 1451.96C1458.97 1452.78 1459.11 1453.22 1459.26 1453.43C1459.37 1453.59 1459.55 1453.73 1459.99 1453.75C1460.37 1453.77 1461.12 1453.53 1462.36 1452.73L1462.37 1452.72L1462.38 1452.72C1463.03 1452.31 1463.56 1451.99 1463.95 1451.78C1464.14 1451.67 1464.31 1451.58 1464.46 1451.52C1464.53 1451.48 1464.61 1451.45 1464.7 1451.42C1464.76 1451.4 1464.93 1451.35 1465.13 1451.36L1465.26 1451.37C1465.55 1451.4 1465.88 1451.54 1466.12 1451.87C1466.36 1452.19 1466.39 1452.55 1466.38 1452.79C1466.32 1454.34 1465.2 1455.45 1463.67 1456.23L1463.65 1456.24C1462.12 1456.98 1460.69 1457.39 1459.39 1457.33C1457.74 1457.27 1456.35 1456.72 1455.43 1455.55C1454.53 1454.4 1454.21 1452.83 1454.28 1451.01C1454.38 1448.61 1455.15 1445.55 1456.53 1441.84L1456.53 1441.84C1457.05 1440.47 1457.68 1438.92 1458.41 1437.21L1458.42 1437.19C1459.21 1435.42 1460.13 1433.52 1461.19 1431.51L1461.19 1431.51C1461.74 1430.46 1462.15 1429.67 1462.42 1429.13L1462.43 1429.11L1462.44 1429.1C1462.76 1428.52 1463.02 1427.99 1463.23 1427.52L1463.24 1427.5L1463.25 1427.48C1463.51 1426.97 1463.81 1426.29 1464.14 1425.46L1464.14 1425.45C1464.42 1424.77 1464.6 1424.23 1464.71 1423.84C1464.79 1423.49 1464.84 1423.21 1464.86 1422.97C1464.49 1423.03 1464.01 1423.18 1463.44 1423.44C1462.6 1423.82 1461.6 1424.42 1460.44 1425.26C1458.11 1426.95 1455.22 1429.52 1451.76 1433.01C1449.33 1435.5 1447.05 1437.92 1444.93 1440.27C1442.82 1442.61 1440.91 1444.93 1439.21 1447.23L1436.6 1450.86C1436.44 1451.19 1436.22 1451.49 1435.96 1451.79C1435.74 1452.09 1435.5 1452.41 1435.24 1452.75L1435.04 1453.01L1434.72 1453.1C1434.42 1453.18 1434.1 1453.2 1433.79 1453.19C1432.92 1453.15 1432.09 1452.95 1431.48 1452.42C1430.82 1451.85 1430.58 1451.06 1430.61 1450.23C1430.63 1449.78 1430.76 1449.34 1431.04 1448.96C1431.15 1448.77 1431.42 1448.33 1431.83 1447.67C1432.3 1446.84 1433.06 1445.42 1434.11 1443.37L1434.12 1443.36C1436.89 1438.11 1438.98 1433.62 1440.4 1429.88C1441.82 1426.13 1442.54 1423.2 1442.62 1421.04C1442.66 1420.04 1442.53 1419.46 1442.35 1419.15C1442.22 1418.92 1442.06 1418.81 1441.73 1418.79C1441.01 1418.77 1439.8 1419.21 1437.99 1420.49C1436.22 1421.73 1434.05 1423.64 1431.47 1426.24C1428.47 1429.31 1425.58 1432.55 1422.82 1435.98C1420.1 1439.42 1417.45 1443.11 1414.86 1447.06L1413.07 1449.82L1413.07 1449.82L1413.07 1449.83C1412.21 1451.11 1411.41 1452.09 1410.69 1452.55L1410.43 1452.72L1410.11 1452.71C1409.38 1452.68 1408.66 1452.48 1408.13 1451.93C1407.6 1451.38 1407.43 1450.65 1407.46 1449.92C1407.48 1449.39 1407.64 1448.83 1408.06 1448.4L1408.58 1447.78C1411.25 1444.59 1414.26 1439.62 1417.63 1432.79L1417.63 1432.79C1419.56 1428.92 1421 1425.58 1421.96 1422.77L1421.96 1422.76L1422.32 1421.71C1423.1 1419.32 1423.5 1417.37 1423.56 1415.85C1423.66 1413.49 1423.08 1411.87 1421.99 1410.8C1420.89 1409.71 1419.1 1409.03 1416.43 1408.93C1415.03 1408.87 1413.46 1408.98 1411.72 1409.26C1409.99 1409.53 1408.08 1410 1406 1410.67L1405.97 1410.68C1404.46 1411.12 1403.05 1411.61 1401.74 1412.15C1400.42 1412.7 1398.99 1413.37 1397.45 1414.16L1397.44 1414.17L1397.43 1414.17C1394.41 1415.66 1391.61 1417.3 1389.04 1419.1L1389.04 1419.11C1387.08 1420.48 1385.65 1421.72 1384.71 1422.83C1383.76 1423.95 1383.39 1424.83 1383.37 1425.5C1383.35 1426.05 1383.46 1426.48 1383.67 1426.84C1383.89 1427.21 1384.25 1427.56 1384.81 1427.88C1385.96 1428.53 1387.84 1428.96 1390.56 1429.07C1391.08 1429.09 1391.77 1429.09 1392.61 1429.07C1393.45 1429.01 1394.35 1428.92 1395.31 1428.81L1395.31 1428.81C1397.62 1428.54 1399.34 1428.42 1400.44 1428.46C1400.7 1428.47 1401.04 1428.51 1401.34 1428.68C1401.51 1428.77 1401.69 1428.92 1401.82 1429.14C1401.96 1429.36 1402.01 1429.61 1402 1429.83C1401.98 1430.5 1401.54 1430.91 1401.14 1431.15L1401.14 1431.15C1399.1 1432.48 1395.93 1432.96 1391.86 1432.8C1388.78 1432.68 1386.16 1432.16 1384.06 1431.2L1384.05 1431.19C1382.55 1430.51 1381.35 1429.62 1380.54 1428.51C1379.73 1427.39 1379.36 1426.09 1379.41 1424.66C1379.54 1421.53 1381.89 1418.51 1385.88 1415.57C1387.28 1414.53 1388.75 1413.57 1390.3 1412.69C1391.84 1411.82 1393.59 1410.95 1395.53 1410.1L1395.54 1410.1L1395.55 1410.09C1397.12 1409.43 1398.61 1408.85 1400.02 1408.34C1401.46 1407.82 1403.14 1407.31 1405.07 1406.82C1407.37 1406.19 1409.55 1405.76 1411.6 1405.52L1411.6 1405.52C1413.69 1405.29 1415.63 1405.21 1417.41 1405.28Z" fill="black" stroke="black" stroke-width="2"/>
</svg>
