<svg width="2102" height="2327" viewBox="0 0 2102 2327" fill="none" xmlns="http://www.w3.org/2000/svg">
<path d="M1023 191.344C999.852 162.857 980.032 140.488 972.835 102.898C963.454 53.901 991.581 7.90893 1042.88 0.703292C1064.49 -2.16995 1086.34 3.8352 1103.44 17.3502C1120.98 30.9811 1131.32 50.2812 1133.57 72.1934C1138.76 122.79 1111.06 158.068 1081.75 194.444C1119.61 296.632 1155.86 399.405 1190.51 502.726C1214.51 572.348 1240.92 644.846 1262.74 714.995C1321.13 697.034 1380.36 672.568 1438.24 652.474C1553.57 612.428 1668.01 568.052 1784.76 532.418C1791.98 530.212 1806.1 531.102 1813.77 531.476C1822.56 536.562 1833.25 546.269 1840.29 553.416C1919.73 634.302 1940.98 767.991 1939.73 876.695C1939.6 889.62 1941.57 903.368 1932.6 912.387C1918.53 917.065 1877.68 918.654 1863.84 913.184C1855.89 904.333 1858.84 861.686 1858.52 847.64C1857.89 813.504 1855.14 779.441 1850.3 745.64C1842.74 805.876 1845.49 875.437 1828.05 933.072C1824.97 943.287 1765.48 932.092 1755.47 922.199C1753 916.609 1753.45 908.774 1754.43 902.769C1769.05 813.77 1779.76 724.877 1790.78 635.434C1775.29 665.914 1747.55 709.414 1729.37 738.986L1630.9 898.582C1606.81 937.327 1553.92 1028.55 1528.86 1059.29C1625.39 1110.11 1730.22 1155.5 1828.05 1205.16C1881.11 1232.08 1936.01 1256.59 1987.36 1287.84C2016.95 1305.81 2008.27 1314.53 2024.85 1341.04C2035.93 1358.76 2046.37 1374.6 2055.25 1393.58C2091.44 1470.83 2085.96 1548.13 2088.19 1630.54C2088.8 1653.91 2096.09 1687.28 2101.18 1710.49C2083.83 1717.96 2034.84 1734.19 2018.81 1722.98C1996.22 1690.18 2008.5 1540.62 2006.64 1494.89C1989.95 1560.36 1985.39 1636.8 1992.61 1703.55C1993.72 1713.76 1993.79 1720.96 1987.52 1727.99C1968.52 1735.93 1937.8 1732.42 1917.44 1729.85C1898.96 1726.33 1904.27 1689.16 1903.59 1675.18C1897.91 1560.16 1944.3 1464.63 1976.13 1358.08C1955.62 1359.33 1854.21 1381.21 1829.19 1386.22L1517.76 1448.91L1603.75 1692.81C1618.85 1735.84 1662.97 1852.38 1663.97 1890.6C1669.06 1896.93 1673.84 1903.54 1678.31 1910.33C1728.45 1986.49 1738.42 2122.41 1720.51 2208.22C1698.17 2208.54 1664.19 2210.47 1646.14 2197.74C1640.56 2189.21 1646.55 2135.89 1646.98 2120.98C1647.8 2092.41 1649.11 2069.67 1644.66 2040.87C1638.92 2067.69 1626.5 2177.4 1613.56 2191.22C1595.31 2195.79 1563.24 2183.74 1545.81 2176.79C1551.67 2100.33 1585.44 1981.29 1618.93 1911.55L1209.85 1671.71C1204.71 1682.58 1200.1 1694.81 1195.58 1706.04C1158.3 1798.82 1121.89 1891.03 1082.03 1982.75C1128.43 2071.92 1148.97 2150.24 1156.17 2250.78C1157.15 2264.44 1160.45 2291.54 1157.3 2303.82C1143.23 2319.04 1094.25 2323.04 1075.94 2314.8C1064.71 2302.07 1070.18 2274.31 1068.95 2257.15C1066.36 2220.86 1068.7 2173.79 1059.79 2138.93L1059.21 2136.76C1051.57 2183.78 1045.71 2230.76 1045.43 2278.42C1045.35 2291.29 1045.14 2304.18 1043.23 2316.91C1029.39 2335.48 988.921 2323.56 970.84 2316.78C960.755 2313.53 957.211 2299.66 957.393 2289.99C959.261 2189.41 987.749 2078.95 1032.53 1989.06C982.589 1892.67 944.597 1766.91 895.403 1671.53C756.925 1749.35 617.722 1836.2 478.655 1910.67C508.239 1988.67 549.407 2092.93 549.868 2177.38C536.314 2183.89 495.757 2195.97 481.772 2190.07C470.423 2174.77 458.528 2071.71 450.158 2041.37C444.854 2092.11 451.863 2140.05 453.904 2190.34C454.787 2212.1 390.552 2208.81 375.464 2208.06C363.551 2152.71 367.722 2049.79 380.717 1993.91C386.327 1969.81 398.864 1941.96 412.586 1921.08C416.779 1912.91 428.047 1898.89 429.997 1890.56C438.638 1853.56 450.61 1818.57 462.59 1782.57C500.611 1670.41 539.756 1558.62 580.023 1447.23C430.796 1413 270.559 1384.11 119.922 1353.5C131.083 1391.35 147.661 1429.71 159.923 1467.7C182.277 1536.94 197.091 1607.5 194.43 1680.67C193.985 1692.88 195.061 1711.4 189.585 1722.11C176.426 1734.8 123.648 1737.3 108.916 1728.01C100.788 1717.48 109.449 1678.47 109.636 1661.56C110.171 1612.52 104.875 1571.3 97.1306 1523.26C88.4943 1536.37 96.252 1569.83 93.1802 1589.5C92.1017 1626.93 95.7456 1665.1 88.0174 1702.41C81.1655 1735.5 61.2592 1727.63 36.0426 1722.7C24.1053 1720.37 8.83501 1718.23 0.316787 1708.81C-1.97632 1695.67 8.90315 1647.08 9.74546 1627.9C13.3031 1546.97 4.86205 1482.29 37.1801 1405.15C51.7601 1370.34 68.8217 1354.45 84.1055 1323.54C84.4574 1321.77 86.6278 1310.35 87.6971 1309.08C116.875 1274.81 210.899 1235.87 247.758 1217.51C356.05 1164.06 464.883 1111.7 574.238 1060.46C485.461 924.316 404.871 778.882 317.52 641.575C324.665 696.65 330.468 749.417 339.604 804.512C342.941 824.654 355.122 903.788 353.473 920.834C343.638 934.957 295.042 941.734 280.761 934.281C271.582 918.914 261.282 779.329 259.277 753.397C252.614 788.119 251.025 825.657 250.752 860.939C250.643 874.769 253.454 892.288 251.122 905.631C250.337 910.129 248.11 912.984 244.161 915.251C234.27 920.934 194.9 918.013 183.648 914.793C179.051 913.479 174.669 911.772 172.396 907.319C154.831 872.888 184.163 716.908 198.601 674.846C212.406 634.619 249.186 555.671 288.517 537.156C300.27 531.623 312.051 533.303 324.32 535.933C377.784 547.401 440.091 573.725 492.202 592.142L837.832 716.635L955.195 378.484C973.33 326.362 1001.69 240.416 1023 191.344Z" fill="#301E0F"/>
<path d="M633.277 1143.45C893.514 1206.5 1164.42 1211.63 1426.86 1158.5C1446.14 1154.07 1464.55 1149.89 1483.58 1144.54C1485.9 1187.16 1486.68 1246.24 1476.14 1288.06L1410.84 1301.98C1409.95 1295.85 1407.93 1284.5 1407.96 1278.76C1405.42 1261.19 1404.25 1245.56 1393.83 1230.58L1389.18 1231.89C1381.57 1253.27 1386.85 1282.09 1389.24 1305.13C1365.25 1309.4 1340.63 1314.14 1316.49 1316.93C1314.75 1298.59 1314.41 1271.65 1302.66 1257.7L1298.4 1257.15C1288.41 1269.04 1295.25 1302.54 1297.29 1317.7C1269.4 1322.83 1241.38 1325.28 1213.11 1327.39C1212.19 1308.08 1213.28 1282.41 1201.87 1267L1197.55 1266.07C1185.93 1277.08 1191.65 1312.82 1193.03 1327.92C1152.91 1331.3 1104.69 1332.23 1064.28 1332.23L1064.2 1296.98C1061.67 1307.99 1063.61 1323.01 1059.29 1330.39C1053.41 1334.07 1051.42 1333.14 1044.04 1332.48C1020.84 1332.5 933.581 1331.77 916.072 1325.58C913.747 1324.49 902.795 1326.46 896.994 1325.76C886.623 1328.87 820.974 1319.61 808.099 1317.95C810.07 1301.91 816.833 1267.39 805.227 1254.75L800.914 1255.47C788.595 1269.54 788.584 1297.51 787.078 1316.07C772.857 1314.1 727.403 1308.85 716.582 1301.98L715.561 1295.98C710.902 1298.09 701.95 1294.96 696.397 1293.67C695.534 1295.6 694.251 1296.53 692.658 1298.23C681.385 1299.05 663.218 1294.6 651.558 1292.31C644.209 1242.22 638.874 1193.76 633.277 1143.45Z" fill="#CA6C55"/>
<path d="M1426.86 1158.5C1446.14 1154.07 1464.55 1149.9 1483.58 1144.54C1485.9 1187.16 1486.68 1246.24 1476.14 1288.06L1410.84 1301.98C1409.95 1295.85 1407.93 1284.5 1407.96 1278.76C1425.62 1261.69 1427.47 1184.07 1426.86 1158.5Z" fill="#CA6C55"/>
<path d="M1044.04 1332.48C1043.93 1312.3 1040.91 1280.91 1051.07 1264.6L1055.08 1264.21C1065.59 1275.13 1064.6 1282.82 1064.2 1296.98C1061.67 1307.99 1063.61 1323.01 1059.29 1330.39C1053.41 1334.07 1051.42 1333.14 1044.04 1332.48Z" fill="#301E0F"/>
<path d="M896.994 1325.76C898.048 1307.4 897.085 1277.72 908.907 1264.35L912.691 1263.8C924.193 1276.11 918.919 1309.72 916.072 1325.58C913.747 1324.49 902.795 1326.47 896.994 1325.76Z" fill="#301E0F"/>
<path d="M696.396 1293.67C698.329 1272.38 697.386 1257.31 708.781 1239.32L713.406 1236.77C727.586 1245.28 717.944 1281.82 715.56 1295.99C710.902 1298.1 701.95 1294.96 696.396 1293.67Z" fill="#301E0F"/>
<path d="M1394.75 1010.7C1409 1006.41 1423.16 1001.82 1437.22 996.934C1459.58 1035.6 1470.91 1078.18 1478.42 1121.91C1459.54 1125.54 1444.63 1129.08 1426.05 1134.08L1390.48 1142.16C1388.79 1125.52 1380.31 1079.9 1365.06 1072.48L1362.97 1075C1357.46 1094.36 1366.76 1124.98 1371.39 1145.27C1343.18 1150.24 1313.43 1154.23 1285 1158.5C1280.78 1141.97 1275.71 1113.27 1262.77 1102.6L1258.89 1103.57C1251.9 1119.48 1258.56 1143.18 1261.79 1160.49C1213 1165.01 1164.08 1167.92 1115.11 1169.21C1114.6 1154.84 1115.76 1119.39 1103.27 1110.81L1098.89 1112.47C1089.08 1128.99 1091.93 1150.49 1092.45 1169.75C1050.95 1173 967.225 1168.28 924.35 1165.19C926.182 1150.28 932.603 1117.96 922.241 1106.62L918.077 1107C905.897 1120.32 904.934 1145.7 902.537 1163.85C859.998 1158.59 818.385 1154.73 775.11 1149.01C778.738 1133.46 789.236 1098.01 779.98 1084.28L775.961 1084.58C762.664 1097.99 758.341 1127.47 754.18 1146.13C731.297 1139.8 700.979 1134.53 677.209 1129.76C681.407 1111.02 693.896 1086.37 692.048 1068.05C691.562 1063.22 685.711 1061.07 681.123 1058.27C685.003 1047.12 699.908 1021.12 706.167 1007.09C904.499 1059 1197.48 1067.97 1394.75 1010.7Z" fill="white"/>
<path d="M1394.75 1010.7C1409 1006.41 1423.16 1001.82 1437.22 996.934C1459.58 1035.6 1470.91 1078.18 1478.42 1121.91C1459.54 1125.54 1444.63 1129.08 1426.05 1134.08C1426.27 1127.99 1426.08 1121.91 1425.48 1115.88C1423.46 1093.72 1410.27 1023.72 1394.75 1010.7Z" fill="white"/>
<path d="M1381.21 1331.14C1409.86 1325.06 1440.7 1320.43 1469.71 1315.23C1457.75 1358.56 1430.51 1422.74 1397.14 1453.31L1371.57 1459.98C1364.16 1462.36 1359.29 1464.16 1351.45 1465.22C1335.74 1467.86 1289.93 1480.32 1279.3 1476.09L1277.98 1471.31C1278.08 1456.17 1279.53 1431.79 1273.49 1418.7C1267.99 1415.32 1270.3 1416.2 1263.2 1416.45C1248.89 1431.04 1267.58 1463.48 1252.96 1481.81C1233.93 1493.46 1203.65 1466.27 1184.82 1459.1C1143.82 1443.44 1101.69 1437.51 1058.13 1436.33C1058.21 1419.04 1060.99 1402.81 1050.14 1389.9L1045.53 1389.63C1036.82 1398.48 1037.2 1406.08 1037.26 1417.77C1037.32 1424.03 1037.42 1430.3 1037.56 1436.56C982.396 1440.39 938.826 1448.07 888.511 1472.96C874.035 1480.13 863.682 1491.3 851.963 1486.06C840.561 1466.56 855.434 1431.48 842.78 1415.68C835.208 1416.27 838.107 1415.16 832.057 1420.72C824.921 1436.88 833.921 1480.86 820.233 1481.77C805.442 1486.17 733.679 1473.1 724.105 1464.59C670.207 1448 664.788 1365.07 656.086 1317.27C895.052 1364.93 1140.6 1369.63 1381.21 1331.14Z" fill="#825435"/>
<path d="M1381.22 1331.14C1409.86 1325.06 1440.7 1320.43 1469.71 1315.23C1457.75 1358.56 1430.51 1422.74 1397.14 1453.31L1371.57 1459.98C1364.17 1462.36 1359.29 1464.16 1351.45 1465.22C1351.47 1441.26 1350.5 1421.76 1345.45 1398.14L1356.47 1388.42C1361.99 1372.97 1384.82 1347.68 1381.22 1331.14Z" fill="#825435"/>
<path d="M1356.47 1388.42C1374.67 1405.99 1368.59 1434.65 1371.57 1459.98C1364.16 1462.36 1359.29 1464.16 1351.45 1465.22C1351.47 1441.26 1350.5 1421.76 1345.45 1398.14L1356.47 1388.42Z" fill="#825435"/>
<path d="M1345.45 1398.14C1350.5 1421.76 1351.47 1441.26 1351.45 1465.22C1335.74 1467.86 1289.93 1480.32 1279.3 1476.1L1277.98 1471.31C1308.91 1456.33 1333.02 1430.18 1345.45 1398.14Z" fill="#825435"/>
<path d="M724.105 1464.59C726.589 1445.02 725.647 1409.39 734.656 1395.3L739.037 1392.98C746.836 1395.69 744.291 1393.67 748.702 1400.43C749.297 1424.1 745.008 1444.46 745.885 1467.04C773.176 1473.89 792.606 1477.25 820.233 1481.77C805.442 1486.17 733.68 1473.1 724.105 1464.59Z" fill="#825435"/>
<path d="M805.988 893.207C947.052 930.13 1152.26 935.64 1291.95 897.045C1309.07 910.587 1321.85 917.68 1326.25 940.032L1350.36 996.448C1324.89 1002.73 1299.13 1007.71 1273.16 1011.35C1268.91 997.322 1259.79 959.237 1247.11 953.82L1242.27 956.586C1234.66 969.455 1246.56 995.527 1251.04 1014.34C1223.75 1018.76 1185.09 1021.21 1156.82 1023.83C1154.88 1011.89 1149.88 966.209 1136.09 963.647C1126.95 976.034 1132.48 1007.92 1133.94 1023.8C1086.87 1027.37 1024.93 1026.72 978.131 1023.63C979.139 1004.96 985.467 983.986 976.989 966.604L973.484 965.454C961.288 975.326 957.964 1006.28 954.795 1022.31C921.348 1021.15 890.065 1016.93 856.95 1012.83C861.607 998.745 873.462 969.33 865.546 956.214L861.216 956.307C847.279 967.7 841.626 992.667 836.179 1009.98C809.498 1004.2 784.361 1001.58 755.678 994.865C764.509 975.208 780.735 949.451 771.155 929.345C777.67 925.451 799.753 900.106 805.988 893.207Z" fill="white"/>
<path d="M891.863 1500.85C970.458 1447.32 1104.02 1456.03 1189.24 1488.94C1207.53 1498.2 1222.39 1506.78 1238.66 1519.58C1227.45 1551.15 1204.64 1611.93 1190.75 1642.7C1182.39 1640.09 1163.22 1634.71 1155.98 1631.51C1148.86 1630.24 1142.83 1629.67 1135.69 1629.02C1098.79 1623.48 1062.03 1625.97 1033.69 1621.66C1028.56 1622.03 1017.5 1622.48 1013.06 1623.82C1001.9 1625.27 970.047 1630.04 960.298 1629.95C953.984 1631.42 947.7 1633.01 941.447 1634.73L915.556 1642.18C900.935 1614.04 878.543 1553.67 863.598 1520.03C872.407 1513.09 882.403 1506.96 891.863 1500.85Z" fill="white"/>
<path d="M1189.24 1488.94C1207.53 1498.2 1222.39 1506.78 1238.66 1519.58C1227.45 1551.15 1204.64 1611.93 1190.75 1642.7C1182.39 1640.09 1163.22 1634.71 1155.98 1631.51C1159.93 1611.75 1161.54 1591.68 1162.82 1571.62C1167.55 1562.95 1186.03 1500.79 1189.24 1488.94Z" fill="white"/>
<path d="M891.863 1500.86C902.747 1521.24 920.951 1575.7 930.516 1585.46C935.728 1600.94 937.318 1618.71 941.447 1634.74L915.556 1642.18C900.935 1614.04 878.543 1553.67 863.598 1520.03C872.407 1513.09 882.403 1506.96 891.863 1500.86Z" fill="white"/>
<path d="M1013.06 1623.82C1012.67 1606.71 1009.33 1569.96 1022 1557.48L1026.05 1558.55C1036.77 1575.14 1034.07 1602.01 1033.69 1621.66C1028.57 1622.03 1017.5 1622.48 1013.06 1623.82Z" fill="#301E0F"/>
<path d="M1135.69 1629.02C1139.61 1611.43 1139.07 1584.99 1148.35 1571.98C1155.61 1568.06 1152.58 1568.94 1162.82 1571.62C1161.54 1591.68 1159.93 1611.74 1155.98 1631.51C1148.86 1630.24 1142.83 1629.67 1135.69 1629.02Z" fill="#301E0F"/>
<path d="M930.516 1585.46C934.01 1578.75 934.473 1576.14 940.814 1572.91C955.748 1577.18 957.09 1615.31 960.298 1629.95C953.984 1631.42 947.7 1633.01 941.447 1634.74C937.318 1618.71 935.728 1600.94 930.516 1585.46Z" fill="#301E0F"/>
<path d="M782.779 856.171C860.488 803.663 927.853 778.641 1023.25 770.922C1119.36 763.147 1252.16 795.919 1325.73 861.034C1303.19 869.956 1284.67 874.191 1261.23 879.608C1254.1 864.323 1243.17 836.344 1228.08 829.399L1224.86 831.167C1221.81 848.729 1231.91 866.919 1238.98 883.273C1201.46 890.254 1172.23 895.175 1134.22 897.136C1132.49 881.932 1130.87 851.046 1117.64 841.333L1114.21 842.889C1106.32 858.892 1111.14 880.609 1113.37 898.411L1017.74 899.351C1019.05 887.286 1026.38 844.927 1011.5 841.144C998.794 850.964 998.074 881.932 996.496 897.503C963.188 896.198 929.989 892.871 897.083 887.54C903.712 865.882 917.448 846.512 903.676 826.286C890.849 835.947 880.707 868.44 874.586 884.27C859.707 881.462 789.365 868.703 780.49 859.223L782.779 856.171Z" fill="#CA6C55"/>
<path d="M470.793 1167.94C469.276 1159.79 467.015 1152.96 469.596 1145.36C492.345 1126.61 572.247 1092.7 602.347 1080.15L605.339 1108.59C607.128 1132.42 608.84 1166.62 612.336 1189.82C614.171 1196.78 615.138 1207.81 615.018 1215.12C616.895 1249.89 632.177 1336.04 639.628 1371.47L650.887 1430.68C606.831 1422.72 551.21 1409.57 508.771 1403.97C503.733 1384.22 500.516 1372.13 498.266 1351.86L495.28 1341.87C494.781 1335 494.198 1328.14 493.53 1321.29C486.038 1277.28 478.945 1233.23 472.257 1189.11C470.815 1182.35 470.97 1174.91 470.793 1167.94Z" fill="#825435"/>
<path d="M498.266 1351.86C545.275 1359.17 592.403 1365.73 639.628 1371.47L650.886 1430.68C606.831 1422.72 551.21 1409.58 508.77 1403.97C503.733 1384.23 500.515 1372.13 498.266 1351.86Z" fill="#825435"/>
<path d="M470.793 1167.94C469.276 1159.79 467.015 1152.96 469.596 1145.36C492.345 1126.61 572.247 1092.7 602.347 1080.15L605.339 1108.59C584.434 1117.53 541.132 1136.05 522.386 1147.44C504.407 1154.14 488.351 1160.2 470.793 1167.94Z" fill="#825435"/>
<path d="M612.336 1189.82C614.171 1196.78 615.138 1207.81 615.017 1215.12C601.212 1216.71 573.972 1227.83 559.771 1224.06C554.252 1218.64 555.489 1221.34 554.377 1214.15C564.469 1198.58 601.094 1202.03 612.336 1189.82Z" fill="#825435"/>
<path d="M493.529 1321.29C509.379 1317.82 535.124 1309.65 549.007 1316C552.837 1322.49 552.088 1319.5 550.857 1327.74C541.326 1338.92 511.031 1334.84 495.28 1341.87C494.78 1335 494.197 1328.14 493.529 1321.29Z" fill="#825435"/>
<path d="M470.793 1167.94C488.352 1160.2 504.408 1154.14 522.386 1147.45C527.635 1156.34 528.251 1154.05 526.67 1161.65C515.08 1173.48 489.135 1180.83 472.257 1189.11C470.816 1182.35 470.97 1174.91 470.793 1167.94Z" fill="#825435"/>
<path d="M1386.06 701.812C1395.33 708.26 1400.24 713.235 1408.38 721.119C1452.88 770.395 1507.64 832.036 1547.8 884.276C1558.86 898.199 1570.17 911.926 1581.71 925.447C1563.41 955.562 1520.13 1028.83 1498.36 1051.58C1486.94 1035.97 1482.77 1026.2 1474.92 1008.51C1468.8 1002.06 1467.69 996.879 1464.86 988.606C1459.57 976.696 1444.33 952.339 1437.16 940.265C1450.58 926.584 1471.95 916.142 1478.26 898.96C1477.31 891.091 1478.66 894.055 1472.87 888.241C1461.13 887.914 1439.26 911.456 1424.23 921.614C1406.67 900.968 1390.33 883.109 1371.7 863.389L1358.5 847.641C1350.68 846.835 1319.36 817.989 1310.27 810.534C1324.52 800.904 1346.65 790.723 1354.63 776.003C1354.69 768.627 1355.84 771.836 1350.75 766.165C1339.84 764.528 1305.63 788.951 1290.44 796.538L1281.76 768.175L1273.78 742.643C1311.4 728.411 1347.89 714.545 1386.06 701.812Z" fill="#825435"/>
<path d="M1547.8 884.277C1558.86 898.201 1570.17 911.927 1581.71 925.449C1563.41 955.563 1520.13 1028.83 1498.36 1051.58C1486.94 1035.97 1482.77 1026.2 1474.92 1008.51C1468.8 1002.06 1467.69 996.88 1464.87 988.608L1499.74 954.785C1504.93 943.864 1539.39 894.847 1547.8 884.277Z" fill="#825435"/>
<path d="M1499.74 954.785C1507.51 961.258 1507.01 958.87 1509.48 967.025C1506.24 983.331 1486.34 994.565 1474.92 1008.51C1468.8 1002.06 1467.69 996.88 1464.87 988.608L1499.74 954.785Z" fill="#825435"/>
<path d="M1386.06 701.812C1395.33 708.26 1400.24 713.235 1408.39 721.119C1378.62 736.332 1315.1 755.423 1281.76 768.176L1273.78 742.644C1311.41 728.411 1347.89 714.545 1386.06 701.812Z" fill="#825435"/>
<path d="M1358.5 847.644C1370.51 838.175 1392.99 817.865 1408.06 819.495C1413.09 823.916 1411.57 821.746 1413.04 829.204C1406.35 841.08 1383.33 852.494 1371.7 863.392L1358.5 847.644Z" fill="#825435"/>
<path d="M719.453 704.059C755.795 716.507 791.927 730.819 828.375 743.612C823.591 761.732 818.12 779.666 811.972 797.37C798.016 790.199 768.125 767.12 757.375 768.293C750.943 773.071 752.312 770.597 750.904 777.346C757.214 791.125 781.724 803.226 795.441 811.528C776.518 825.193 764.685 834.718 747.238 850.23C734.88 840.641 710.676 818.945 694.389 823.658L693.056 827.857C699.656 844.613 716.402 853.939 731.082 864.485C708.992 884.945 698.448 897.99 680.329 921.568C666.316 911.971 647.924 893.717 633.599 888.29L628.232 890.841C619.77 905.191 642.385 919.095 652.962 928.066L660.525 935.799C662.543 950.14 644.028 974.973 635.551 989.809C624.847 979.587 611.774 963.957 597.289 963.612L595.03 967.107C599.044 986.209 611.601 996.05 625.065 1010.06L604.961 1049.76C574.713 1011.92 550.4 965.716 522.709 925C579.54 858.437 655.214 762.524 719.453 704.059Z" fill="#825435"/>
<path d="M1499.37 1078.45L1523.23 1090.1C1550.69 1102.49 1609.82 1126.64 1631.18 1144.31C1633.79 1152.67 1632.73 1158.48 1632.14 1167.17C1631.95 1175.66 1632.23 1180.72 1630.07 1189.02C1624.84 1233.98 1618.18 1278.78 1610.08 1323.34C1610.17 1332.89 1608.65 1336.25 1605.75 1345.08L1604.94 1348.28C1601.1 1368.23 1597.46 1384.3 1592.25 1403.93C1544.56 1413.07 1496.98 1422.83 1449.53 1433.2C1487.94 1360.4 1507.82 1304.63 1512.04 1220.34C1508.99 1211.7 1510.67 1207.48 1512.61 1198.67C1513.21 1155.82 1507.39 1120.28 1499.37 1078.45Z" fill="#825435"/>
<path d="M1512.04 1220.34C1521.53 1221.61 1532.87 1223.43 1542.24 1224.25L1530.5 1225.65C1526.84 1231.99 1528.94 1257.36 1527.52 1267.46C1522.82 1300.71 1511.3 1332.35 1503.42 1364.69C1523.87 1361.67 1591.34 1355.65 1604.94 1348.28C1601.1 1368.23 1597.46 1384.29 1592.25 1403.93C1544.56 1413.07 1496.98 1422.83 1449.53 1433.2C1487.94 1360.4 1507.82 1304.63 1512.04 1220.34Z" fill="#825435"/>
<path d="M1499.38 1078.45L1523.23 1090.1L1520.05 1093.2C1521.64 1116.69 1528.88 1179.9 1533.85 1201.82L1512.61 1198.67C1513.21 1155.82 1507.39 1120.28 1499.38 1078.45Z" fill="#825435"/>
<path d="M1605.75 1345.07C1585.54 1337.43 1557.8 1347.75 1551.19 1324.24L1554.02 1319.88C1568.24 1314.21 1594.22 1320.68 1610.08 1323.33C1610.17 1332.89 1608.66 1336.25 1605.75 1345.07Z" fill="#825435"/>
<path d="M1630.07 1189.02C1613.49 1181.13 1579.94 1173.23 1572.95 1156.41L1575.87 1151.12C1590.83 1146.92 1615.33 1163.33 1632.14 1167.17C1631.95 1175.66 1632.23 1180.72 1630.07 1189.02Z" fill="#825435"/>
<path d="M1512.61 1198.67L1533.85 1201.82C1545.07 1204.18 1554.76 1208.11 1551.99 1221.45C1548.29 1223.32 1546.26 1224.93 1542.24 1224.25C1532.88 1223.43 1521.53 1221.61 1512.04 1220.34C1508.99 1211.7 1510.67 1207.47 1512.61 1198.67Z" fill="#301E0F"/>
<path d="M892.227 648.98L920.842 656.434C997.012 670.802 1079.76 674.22 1156.35 661.377C1173.98 657.997 1194.05 654.815 1210.88 649.094C1227.49 694.367 1242.97 740.041 1257.31 786.078C1228.83 773.258 1205.06 765.162 1174.65 757.355C1078.22 736.777 986.757 735.443 892.145 768.249L841.857 788.15C860.785 743.282 873.256 694.675 892.227 648.98Z" fill="white"/>
<path d="M1156.35 661.376C1173.98 657.997 1194.05 654.815 1210.88 649.094C1227.49 694.366 1242.97 740.041 1257.31 786.078C1228.83 773.257 1205.06 765.162 1174.65 757.355L1178.8 756.429C1184.62 744.679 1162.48 673.918 1156.35 661.376Z" fill="white"/>
<path d="M892.227 648.98L920.842 656.434C912.678 690.427 898.498 721.925 889.877 755.617C888.978 759.13 890.897 764.736 892.145 768.249L841.857 788.15C860.785 743.282 873.256 694.675 892.227 648.98Z" fill="white"/>
<path d="M544.832 662.149L560.815 645.457C597.658 660.245 657.631 683.429 695.588 695.468C688.076 702.073 677.875 710.531 671.432 717.791C666.322 723.49 660.846 729.888 655.542 735.31C639.881 725.156 629.992 715.624 611.654 716.743L608.242 720.079C610.392 735.48 629.05 744.234 641.387 751.542C619.221 775.905 584.556 813.91 564.913 839.806C563.844 844.971 558.063 853.303 553.446 855.954C547.454 860.683 516.852 896.853 509.687 905.13C490.603 868.322 462.09 827.217 440.576 787.902C472.903 740.791 505.777 703.051 544.832 662.149Z" fill="#CA6C55"/>
<path d="M544.832 662.149L560.815 645.457C597.658 660.245 657.631 683.429 695.589 695.468C688.076 702.073 677.876 710.531 671.433 717.791C665.657 716.23 633.429 700.918 626.133 697.588C599.306 685.158 572.199 673.343 544.832 662.149Z" fill="#CA6C55"/>
<path d="M553.447 855.951C542.279 845.296 515.09 822.592 516.972 806.174L520.949 804.395C538.358 808.689 552.498 826.715 564.914 839.804C563.845 844.969 558.065 853.301 553.447 855.951Z" fill="#301E0F"/>
<path d="M1120.15 523.365C1135.01 520.208 1152.19 517.539 1166.56 513.824C1177.02 550.609 1191.02 590.459 1203.76 626.776C1189.76 630.176 1173.26 634.711 1159.16 636.34C1149.95 639.295 1148.19 640.04 1138.23 639.316C1111.66 643.083 1085.55 644.211 1058.76 645.512C1054.34 646.635 1042.16 644.622 1036.97 644.002C1012.09 643.065 987.235 641.562 962.423 639.499C965.601 624.552 974.732 592.575 968.85 579.686C962.482 576.114 965.351 576.788 956.522 579.082C955.337 566.223 964.041 532.661 967.49 519.705C1017.96 528.036 1069.34 529.266 1120.15 523.365Z" fill="#825435"/>
<path d="M1120.15 523.365C1135.01 520.208 1152.2 517.539 1166.56 513.824C1177.02 550.609 1191.02 590.459 1203.76 626.776C1189.77 630.176 1173.26 634.711 1159.17 636.34C1156.51 620.476 1149.09 587.121 1138.69 575.258C1129.71 558.775 1126.96 530.403 1120.15 523.365Z" fill="#825435"/>
<path d="M1036.97 644.002C1036.78 624.954 1034.5 598.103 1045.07 582.103L1049.05 580.648C1061.75 591.054 1058.94 630.181 1058.76 645.512C1054.34 646.635 1042.16 644.622 1036.97 644.002Z" fill="#825435"/>
<path d="M1138.69 575.258C1149.09 587.121 1156.5 620.476 1159.17 636.34C1149.95 639.295 1148.19 640.039 1138.23 639.315C1135.31 614.698 1119.11 594.095 1138.69 575.258Z" fill="#825435"/>
<path d="M327.186 1209.56C355.635 1195.67 414.128 1165.26 441.247 1155.84L444.562 1157.66L446.001 1167.76C452.181 1222.82 462.917 1281.71 471.671 1336.82C474.877 1356.92 477.858 1377.06 480.619 1397.23C437.067 1388.22 393.429 1379.62 349.709 1371.45L344.34 1335.43C338.671 1302.46 333.436 1271.7 329.429 1238.43L327.186 1209.56Z" fill="#CA6C55"/>
<path d="M344.34 1335.43C371.652 1331.98 449.397 1348.73 469.138 1343.01L471.671 1336.81C474.877 1356.92 477.858 1377.05 480.619 1397.23C437.067 1388.22 393.429 1379.62 349.709 1371.45L344.34 1335.43Z" fill="#CA6C55"/>
<path d="M327.186 1209.56C355.635 1195.67 414.128 1165.26 441.247 1155.84L444.562 1157.66L446.001 1167.76C445.737 1172.32 446.394 1183.78 442.561 1186.19C407.483 1208.11 366.392 1219.84 329.428 1238.43L327.186 1209.56Z" fill="#CA6C55"/>
<path d="M1658.45 1155.07C1682.38 1166.26 1756.48 1198.4 1773.86 1211.35C1776.27 1219.89 1774.75 1226.61 1773.75 1235.5C1771.23 1271.18 1765.52 1299.98 1758.51 1335.25C1755.37 1347.55 1752.35 1359.87 1749.48 1372.26C1706.21 1382.57 1662.22 1389.94 1618.7 1399.27L1629.14 1349C1639.26 1312.98 1650.12 1224.72 1654.61 1186.68C1655.72 1176.49 1656.71 1165.06 1658.45 1155.07Z" fill="white"/>
<path d="M1758.51 1335.25C1755.37 1347.55 1752.35 1359.87 1749.48 1372.27C1706.21 1382.57 1662.22 1389.95 1618.7 1399.27L1629.14 1349C1661.58 1348.78 1728.66 1344.1 1758.51 1335.25Z" fill="white"/>
<path d="M1658.46 1155.07C1682.38 1166.26 1756.48 1198.4 1773.86 1211.35C1776.27 1219.89 1774.75 1226.61 1773.75 1235.5C1745.15 1220.41 1686.82 1199.28 1654.61 1186.68C1655.72 1176.49 1656.71 1165.06 1658.46 1155.07Z" fill="white"/>
<path d="M1434.85 683.837C1472.12 670.624 1508.85 656.646 1546.26 643.719L1568.45 667.236C1597.54 697.5 1616.38 719.526 1642.13 752.538C1627.14 778.806 1614.53 794.391 1599.09 818.656L1593.26 808.178C1590.18 802.593 1590.38 802.881 1584.82 799.685C1570.93 799.992 1550.78 825.091 1539.36 836.524C1524.4 816.267 1474.66 764.85 1466.73 747.404C1454.82 745.414 1453.44 744.826 1449.73 733.93L1440.24 721.502L1432.18 712.494C1425.57 705.754 1418.18 698.82 1411.38 692.191C1419.15 689.677 1427.14 686.636 1434.85 683.837Z" fill="#CA6C55"/>
<path d="M1434.85 683.837C1472.12 670.624 1508.85 656.646 1546.26 643.719L1568.45 667.236C1543.89 679.355 1452.18 711.517 1440.24 721.502L1432.18 712.495C1425.57 705.754 1418.18 698.821 1411.38 692.191C1419.15 689.677 1427.14 686.636 1434.85 683.837Z" fill="#CA6C55"/>
<path d="M1411.38 692.19C1419.15 689.675 1427.14 686.634 1434.85 683.836C1434.69 694.537 1435.07 702.14 1432.18 712.493C1425.57 705.753 1418.18 698.819 1411.38 692.19Z" fill="#CA6C55"/>
<path d="M1449.73 733.928C1461.07 727.267 1487.94 709.633 1500.88 716.391C1504.16 729.46 1477.2 744 1466.73 747.402C1454.82 745.412 1453.44 744.824 1449.73 733.928Z" fill="#301E0F"/>
<path d="M955.877 1655.5C1023.53 1644.52 1069.87 1644.18 1137.31 1653.55C1152.97 1657.04 1166.45 1660.02 1181.86 1664.81C1170.62 1695.1 1158.79 1725.2 1146.38 1755.04C1129.74 1750.32 1113.42 1745.26 1096.34 1742.56L1073.99 1740.04C1043.3 1740.56 1022.37 1740.45 992.28 1748.3C983.105 1750.64 971.447 1754.61 962.187 1757.49C951.219 1734.57 935.07 1689.98 924.281 1664.42C934.364 1661.27 945.62 1658.38 955.877 1655.5Z" fill="#825435"/>
<path d="M1137.31 1653.55C1152.97 1657.05 1166.45 1660.02 1181.86 1664.81C1170.62 1695.11 1158.79 1725.2 1146.38 1755.04C1129.74 1750.32 1113.43 1745.26 1096.34 1742.56L1096.57 1741.45C1118.66 1730.85 1126.89 1680.2 1137.31 1653.55Z" fill="#825435"/>
<path d="M924.281 1664.42C934.364 1661.27 945.62 1658.39 955.877 1655.5C969.018 1686.91 978.043 1716.46 992.28 1748.31C983.105 1750.64 971.447 1754.61 962.187 1757.5C951.219 1734.57 935.07 1689.98 924.281 1664.42Z" fill="#825435"/>
<path d="M1073.99 1740.04C1074.6 1723.43 1072.24 1694.56 1082.5 1684.71L1088.87 1684.23C1101.18 1699.12 1090.44 1726.7 1096.57 1741.45L1096.34 1742.56L1073.99 1740.04Z" fill="#825435"/>
<path d="M586.588 1515.47L607.552 1529.45C659.382 1562.7 701.394 1595.16 748.642 1634.12C753.384 1637.96 761.226 1644.79 766.307 1647.45C773.425 1647.74 782.417 1653.53 782.465 1661.15C788.863 1672.05 797.694 1680.63 806.36 1689.82L730.917 1734.16C715.942 1721.98 700.581 1709.13 685.397 1697.31C669.995 1687.23 661.958 1680.2 648.229 1668.21C658.539 1653.89 671.564 1641.11 670.717 1623.5L667.489 1621.39C650.829 1626.88 642.59 1641.79 632.156 1655.91C616.563 1644.88 608.254 1637.64 594.159 1624.93C586.47 1622.14 582.767 1619.44 576.035 1615.08C569.869 1609.89 562.18 1604.17 555.723 1599.13C564.99 1571.26 576.004 1542.91 586.588 1515.47Z" fill="#825435"/>
<path d="M748.643 1634.12C753.386 1637.96 761.228 1644.79 766.308 1647.45C773.426 1647.74 782.419 1653.53 782.466 1661.16C788.864 1672.05 797.696 1680.63 806.362 1689.82L730.919 1734.17C715.943 1721.98 700.582 1709.13 685.398 1697.31C708.397 1676.86 729.205 1658.02 748.643 1634.12Z" fill="#825435"/>
<path d="M766.308 1647.45C773.425 1647.74 782.418 1653.53 782.466 1661.15C769.531 1673.41 749.75 1697.17 731.692 1694.99C726.295 1689 727.315 1691.84 726.936 1684.48C734.591 1674.04 753.128 1661.4 764.398 1649.49L766.308 1647.45Z" fill="#301E0F"/>
<path d="M586.588 1515.47L607.552 1529.45C604.964 1545.45 601.926 1558.23 598.114 1573.89C590.795 1587.46 583.003 1601.4 576.035 1615.08C569.869 1609.89 562.18 1604.17 555.723 1599.13C564.99 1571.26 576.003 1542.91 586.588 1515.47Z" fill="#825435"/>
<path d="M598.114 1573.89C607.42 1574.3 605.536 1572.82 611.806 1577.5C615.659 1590.34 599.351 1611.91 594.159 1624.93C586.47 1622.14 582.767 1619.44 576.035 1615.08C583.003 1601.4 590.795 1587.46 598.114 1573.89Z" fill="#825435"/>
<path d="M1783.06 561.542C1789.93 560.773 1787.05 559.863 1792.18 563.791C1795.68 583.116 1700.28 734.937 1683.21 759.609C1682.21 761.048 1681.19 762.471 1680.14 763.88C1674.09 755.807 1662.02 740.788 1656.98 732.93C1636.28 705.789 1616.25 684.251 1593.07 659.461C1586.51 651.236 1577.65 643.277 1569.95 635.94C1629.62 612.847 1708.62 585.583 1769.41 565.841L1783.06 561.542Z" fill="white"/>
<path d="M1783.06 561.542C1789.94 560.773 1787.05 559.863 1792.18 563.791C1795.68 583.116 1700.28 734.937 1683.21 759.609C1682.21 761.048 1681.19 762.471 1680.15 763.88C1674.09 755.807 1662.02 740.788 1656.98 732.93C1673.42 717.906 1786.96 573.677 1783.06 561.542Z" fill="white"/>
<path d="M1769.41 565.84L1772.55 568.795C1766.16 581.917 1618.85 645.966 1593.07 659.46C1586.52 651.235 1577.66 643.276 1569.95 635.939C1629.62 612.846 1708.62 585.582 1769.41 565.84Z" fill="white"/>
<path d="M316.322 563.305C341.497 567.44 388.144 585.226 414.164 594.615L535.797 637.841C514.612 659.964 493.698 682.344 473.056 704.973L426.085 763.959C411.989 743.49 312.04 582.087 312.317 569.124C312.394 565.495 313.761 565.524 316.322 563.305Z" fill="white"/>
<path d="M604.622 1453.45C625.861 1456.26 653.897 1459.35 674.232 1465.31C689.496 1480.57 701.772 1496.23 716.703 1511.16C763.502 1557.96 809.031 1580.74 869.204 1606.37C874.977 1618.19 881.348 1630.65 886.356 1642.75C867.449 1654.25 847.899 1665.85 829.427 1677.95C810.87 1659.9 791.904 1642.32 772.542 1625.16L762.462 1615.94C714.24 1571.6 650.407 1529.13 594.837 1494.48L594.412 1490.14C599.938 1476.64 601.609 1467.54 604.622 1453.45Z" fill="white"/>
<path d="M594.412 1490.14C602.32 1490.53 662.418 1504.1 669.633 1508.55C700.101 1527.36 759.683 1576.52 784.146 1601.42C775.165 1608.82 772.871 1610.79 762.462 1615.94C714.24 1571.6 650.408 1529.13 594.837 1494.48L594.412 1490.14Z" fill="white"/>
<path d="M784.145 1601.42L791.181 1606.46C792.098 1616.24 780.467 1620.44 772.541 1625.16L762.461 1615.94C772.87 1610.79 775.163 1608.82 784.145 1601.42Z" fill="white"/>
<path d="M1001.51 1770.75C1038.27 1761.19 1059.62 1762.12 1096.1 1766.96C1113.3 1770.86 1120.39 1772.65 1137.11 1779.35C1127.1 1803.16 1067.07 1954.81 1057.83 1962.5L1052.94 1962.98L1051.01 1960.62C1040.94 1946.7 1026.6 1909.46 1019.36 1892.21C1003.26 1853.9 988.559 1816.75 970.609 1779.08C980.531 1776.72 991.555 1773.45 1001.51 1770.75Z" fill="#CA6C55"/>
<path d="M1096.1 1766.96C1113.3 1770.86 1120.4 1772.66 1137.11 1779.35C1127.1 1803.16 1067.07 1954.81 1057.83 1962.5L1052.94 1962.98L1051.01 1960.62C1053.9 1956.06 1053.47 1948.77 1053.73 1943.1C1063.32 1889.86 1084.66 1824.2 1096.1 1766.96Z" fill="#CA6C55"/>
<path d="M970.609 1779.08C980.531 1776.72 991.555 1773.45 1001.51 1770.75C1004.6 1785.12 1047.79 1934.61 1053.73 1943.1C1053.47 1948.77 1053.9 1956.06 1051.01 1960.62C1040.94 1946.71 1026.6 1909.46 1019.36 1892.22C1003.26 1853.91 988.559 1816.75 970.609 1779.08Z" fill="#CA6C55"/>
<path d="M1426.36 1464.79C1443.21 1460.48 1471.95 1456.65 1489.91 1453.74L1504.62 1493.87C1490.18 1503.49 1477.76 1511.03 1462.78 1519.72C1421.77 1547.72 1370.77 1583.51 1334.97 1617.44C1311.81 1635.58 1289.67 1654.41 1269.47 1675.84C1253.23 1665.1 1237.06 1654.28 1220.95 1643.36L1233.72 1606.28C1320.57 1572.62 1368.27 1534.9 1426.36 1464.79Z" fill="white"/>
<path d="M1316.06 1601.08C1346.54 1577.52 1428.88 1493.87 1462.78 1519.72C1421.77 1547.72 1370.77 1583.51 1334.97 1617.44C1330.55 1612.72 1321.31 1605.46 1316.06 1601.08Z" fill="white"/>
<path d="M976.863 400.102C988.037 402.689 1000.33 404.627 1011.71 406.64C1039.23 408.991 1063.91 409.936 1091.54 407.607L1127.52 402.283C1137.58 430.808 1147.71 462.305 1156.73 491.203L1114.61 499.126C1072.84 505.188 1023.79 502.342 981.969 498.247C970.136 496.977 957.152 493.125 945.496 490.052C955.474 459.906 965.931 429.919 976.863 400.102Z" fill="#CA6C55"/>
<path d="M1127.51 402.281C1137.58 430.807 1147.71 462.303 1156.73 491.201L1114.61 499.125C1109.19 470.658 1097.63 439.74 1091.54 407.606L1127.51 402.281Z" fill="#CA6C55"/>
<path d="M976.863 400.102C988.038 402.689 1000.33 404.627 1011.71 406.64C998.999 423.099 981.097 477.876 981.969 498.247C970.136 496.977 957.152 493.125 945.496 490.052C955.474 459.906 965.932 429.919 976.863 400.102Z" fill="#CA6C55"/>
<path d="M1482.56 1534.76C1488.01 1544.27 1495.49 1557.96 1495.24 1569.15L1492.98 1570.35C1489.17 1573.87 1484.81 1576.34 1484.95 1581.11C1485.37 1594.77 1498.83 1612.74 1504.64 1625.95C1491.39 1636.57 1479.49 1646.13 1465.52 1655.89C1455.48 1642.13 1446.54 1626.04 1430.13 1621.39L1426.4 1623.07C1423.28 1638.96 1440.59 1656.48 1450.01 1667.67C1438.3 1677.06 1426.2 1687.09 1414.25 1696.1L1367.9 1730.37C1343.16 1717.8 1317.68 1701.44 1293.86 1686.82C1302.78 1677.76 1308.85 1671.18 1316.88 1661.36L1317.73 1657.25C1323.47 1651.14 1324.96 1650.89 1333.03 1648.37L1354.69 1631.94C1392.11 1599.13 1440.16 1561.54 1482.56 1534.76Z" fill="#825435"/>
<path d="M1333.03 1648.38L1354.69 1631.95C1374.5 1663.15 1382.89 1674.05 1414.25 1696.1L1367.9 1730.37C1343.16 1717.8 1317.68 1701.44 1293.86 1686.82C1302.78 1677.77 1308.85 1671.19 1316.88 1661.36L1317.73 1657.25C1323.47 1651.15 1324.96 1650.9 1333.03 1648.38Z" fill="#825435"/>
<path d="M1316.88 1661.36L1317.73 1657.25C1323.47 1651.14 1324.96 1650.89 1333.03 1648.38C1348.24 1660.49 1362.47 1669.73 1371.42 1687.16L1371.21 1692C1352.5 1695.6 1330.23 1672.86 1316.88 1661.36Z" fill="#825435"/>
<path d="M1800.04 1222.39C1826.72 1234.85 1974.97 1304.73 1983.69 1322.5C1978.51 1331.85 1966.82 1331.23 1956.83 1332.25C1899 1345.37 1834.66 1356.06 1774.97 1368.93C1779.08 1353.77 1782.19 1338.7 1785.46 1323.36C1791.91 1289.91 1795.77 1256.2 1800.04 1222.39Z" fill="#849D87"/>
<path d="M1785.46 1323.36L1787.53 1329.71C1810.21 1336.25 1937.71 1319.59 1956.83 1332.25C1899 1345.37 1834.66 1356.06 1774.97 1368.93C1779.08 1353.77 1782.19 1338.7 1785.46 1323.36Z" fill="#849D87"/>
<path d="M120.285 1315.53C134.576 1302.41 278.345 1233.33 301.355 1222.75L305.696 1248.37C309.122 1274.38 312.949 1300.35 317.175 1326.24C318.53 1331.14 322.033 1359.08 323.012 1365.78C257.892 1351.27 192.409 1340.11 127.123 1326.67C119.981 1325.2 119.093 1325.54 116.387 1321.02L120.285 1315.53Z" fill="white"/>
<path d="M323.012 1365.78C257.892 1351.27 192.409 1340.11 127.123 1326.67C119.981 1325.2 119.093 1325.54 116.387 1321.02L120.285 1315.53C127.461 1318.23 127.974 1318.64 135.471 1318.55C157.062 1321.63 304.608 1331.64 317.175 1326.24C318.53 1331.14 322.033 1359.08 323.012 1365.78Z" fill="white"/>
<path d="M120.285 1315.53C134.577 1302.41 278.345 1233.33 301.355 1222.75L305.696 1248.37C267.325 1262.04 231.67 1279.03 194.316 1295.01C176.208 1302.75 154.109 1313.78 135.471 1318.55C127.975 1318.64 127.462 1318.23 120.285 1315.53Z" fill="white"/>
<path d="M1045.98 208.175C1047.76 206.668 1049.95 206.589 1052.65 205.922C1067.82 219.759 1111.21 350.08 1117.55 378.041C1103.16 380.381 1088.83 382.998 1074.3 383.953C1052.82 383.939 1034.65 384.003 1013.26 382.121L985.135 377.042C994.3 352.084 1038.14 219.616 1045.98 208.175Z" fill="white"/>
<path d="M1052.65 205.922C1067.82 219.759 1111.21 350.08 1117.55 378.041C1103.17 380.381 1088.83 382.998 1074.3 383.953C1079.13 381.858 1079.98 382.06 1082.73 377.548C1081.52 325.685 1056.48 269.214 1056.53 216.366C1056.54 214.094 1053.74 207.971 1052.65 205.922Z" fill="white"/>
<path d="M1045.98 208.176C1056.83 230.14 1021.55 352.277 1013.26 382.122L985.135 377.043C994.3 352.085 1038.14 219.617 1045.98 208.176Z" fill="white"/>
<path d="M547.827 1622.89L575.432 1640.05C607.95 1664.92 640.01 1690.36 671.597 1716.4C683.43 1726.04 696.845 1737.5 709.023 1746.38C685.216 1760.02 661.491 1773.79 637.853 1787.7L610.448 1761.17C589.626 1742.77 569.579 1727.54 547.571 1710.74C541.125 1707.45 529.49 1699.46 522.965 1695.27C529.556 1670.6 537.865 1646.4 547.827 1622.89Z" fill="#CA6C55"/>
<path d="M671.596 1716.39C683.429 1726.04 696.845 1737.5 709.023 1746.38C685.216 1760.01 661.491 1773.79 637.852 1787.7L610.447 1761.17L671.596 1716.39Z" fill="#CA6C55"/>
<path d="M547.827 1622.89L575.432 1640.05C570.383 1648.9 546.44 1711.92 547.571 1710.74C541.125 1707.45 529.49 1699.46 522.965 1695.27C529.556 1670.6 537.865 1646.4 547.827 1622.89Z" fill="#CA6C55"/>
<path d="M1529.09 1636.24L1549.34 1623.62C1559.01 1647.58 1566.15 1671.98 1575.34 1695.13C1569.67 1698.97 1559.59 1706.25 1554.04 1709.43C1530.41 1727.09 1509.75 1744.29 1487.21 1763.17L1461.29 1787.66C1437.76 1772.29 1413.66 1758.56 1389.35 1744.49C1405.21 1734.42 1416.57 1724.61 1430.93 1712.65C1463.26 1686.69 1495.99 1661.22 1529.09 1636.24Z" fill="#CA6C55"/>
<path d="M1430.93 1712.65C1441.65 1729.42 1470.95 1750.48 1487.21 1763.17L1461.29 1787.66C1437.76 1772.29 1413.66 1758.56 1389.35 1744.49C1405.21 1734.41 1416.57 1724.61 1430.93 1712.65Z" fill="#CA6C55"/>
<path d="M1529.09 1636.24L1549.34 1623.62C1559.01 1647.58 1566.15 1671.98 1575.34 1695.13C1569.67 1698.97 1559.59 1706.25 1554.04 1709.43C1554.52 1687.05 1538.8 1656.84 1529.09 1636.24Z" fill="#CA6C55"/>
<path d="M515.307 1718.3L538.896 1735.21C555.79 1747.94 574.075 1761.24 590.287 1774.61C600.481 1784.16 607.06 1790.61 616.142 1801.14C591.895 1814.35 476.673 1884.52 461.818 1883.68C460.304 1864.59 505.5 1742.54 515.307 1718.3Z" fill="white"/>
<path d="M590.287 1774.61C600.481 1784.16 607.06 1790.61 616.142 1801.14C591.895 1814.35 476.673 1884.52 461.818 1883.68C466.059 1879.01 466.952 1876.97 470.053 1871.38C498.08 1854.09 562.644 1798.1 590.287 1774.61Z" fill="white"/>
<path d="M515.307 1718.3L538.896 1735.21C524.825 1758.77 514.32 1785.39 502.01 1810.1C491.692 1830.8 480.301 1850.73 470.053 1871.38C466.952 1876.96 466.059 1879.01 461.818 1883.68C460.304 1864.59 505.5 1742.54 515.307 1718.3Z" fill="white"/>
<path d="M1051.76 27.9141C1143.93 35.5329 1099.69 140.387 1055.02 180.892C1002.93 140.81 962.601 45.1399 1051.76 27.9141Z" fill="white"/>
<path d="M1562.61 1732.17C1568.31 1728.13 1576.9 1721.59 1582.73 1718.32C1598.59 1764.12 1615.17 1810.54 1630.39 1856.47C1632.61 1865.82 1635.3 1872.67 1632.87 1881.75C1625.57 1885.34 1620.88 1880.8 1614.61 1876.1C1572.23 1849.68 1526.89 1827.13 1483.54 1799.05C1491.32 1790.54 1499.29 1783.37 1507.78 1775.56C1526.33 1759.61 1542.98 1746.87 1562.61 1732.17Z" fill="white"/>
<path d="M1483.54 1799.05C1491.32 1790.54 1499.29 1783.37 1507.78 1775.56C1541.71 1810.76 1578.37 1833.59 1612.17 1865.39L1614.61 1876.1C1572.23 1849.69 1526.89 1827.13 1483.54 1799.05Z" fill="white"/>
<path d="M1562.62 1732.17C1568.31 1728.13 1576.9 1721.59 1582.73 1718.32C1598.6 1764.12 1615.17 1810.54 1630.39 1856.47L1619.18 1848.69C1608.48 1822.93 1576.32 1755.61 1562.62 1732.17Z" fill="white"/>
<path d="M1619.18 1848.68L1630.39 1856.47C1632.61 1865.82 1635.3 1872.67 1632.88 1881.75C1625.57 1885.34 1620.88 1880.8 1614.61 1876.1L1612.17 1865.39C1614.84 1866.52 1617.44 1867.36 1620.17 1868.31L1622.43 1865.23L1619.18 1848.68Z" fill="white"/>
<path d="M69.3828 1395.39L74.9429 1387.43C78.4074 1390.94 66.9582 1474.58 66.6404 1489.85C65.1284 1562.27 72.1913 1629.97 63.3212 1702.16L26.2148 1695.83C34.2382 1648.24 37.3713 1618.8 35.8593 1569.99L33.6888 1567.06C28.6964 1525.35 35.1646 1470.99 41.4715 1429.3C43.7056 1414.52 57.0958 1402.9 69.3828 1395.39Z" fill="#825435"/>
<path d="M35.8596 1569.99L33.6892 1567.06C28.6967 1525.34 35.1649 1470.99 41.4719 1429.3C43.7059 1414.52 57.0962 1402.9 69.3833 1395.39C40.5456 1459.46 36.4772 1500.42 35.8596 1569.99Z" fill="#825435"/>
<path d="M103.43 1390.71C119.065 1405.38 157.091 1548.17 162.542 1577.13C169.841 1615.9 170.736 1666.96 168.164 1706.45L129.915 1707.93C138.806 1645.13 130.133 1564.06 118.325 1502.15C111.283 1465.22 102.542 1428.05 103.43 1390.71Z" fill="#CA6C55"/>
<path d="M1992.83 1388.7C2001.71 1400.32 1987.45 1462.5 1984 1478.23C1966.59 1557.41 1962.21 1627.2 1966.95 1707.54L1932.72 1707.07L1930.65 1704.86C1926.09 1687.66 1927.45 1663.9 1928.2 1645.99C1931.92 1555.62 1962.87 1473.28 1992.83 1388.7Z" fill="#CA6C55"/>
<path d="M2014.38 1370.4C2025.19 1390.76 2036.45 1412.68 2042.9 1434.83C2074 1512.38 2053.79 1605.46 2072.18 1695.79L2035.54 1702.5C2032.79 1680.67 2028.09 1646.94 2028.57 1625.04C2029.96 1562.38 2034.52 1509.46 2027.71 1446C2022.89 1427.78 2020.06 1394.03 2014.38 1370.4Z" fill="white"/>
<path d="M2014.38 1370.4C2025.19 1390.76 2036.45 1412.68 2042.9 1434.83C2033.61 1425.96 2034.31 1421.74 2028.07 1411.98C2028.84 1422.81 2029.25 1435.24 2027.71 1446C2022.89 1427.78 2020.06 1394.03 2014.38 1370.4Z" fill="white"/>
<path d="M1072.23 2019.51C1079.21 2027.91 1088.3 2052.74 1092.23 2063.81C1118.66 2136.85 1132.49 2213.85 1133.13 2291.54C1118.84 2293.4 1106.94 2294.33 1092.61 2295.21C1092.98 2246.65 1092.62 2203.93 1086.8 2155.3C1081.21 2108.55 1070.6 2066.6 1072.23 2019.51Z" fill="#849D87"/>
<path d="M271.153 587.699C272.1 592.245 252.262 658.281 249.36 668.944C229.038 743.616 226.743 816.139 227.075 892.881L194.393 892.005C185.276 798.943 213.895 664.092 271.153 587.699Z" fill="#825435"/>
<path d="M1046.41 2021.94C1051.37 2027.46 1027.96 2172.96 1026.46 2187.69C1022.38 2225.59 1020.18 2263.69 1019.87 2301.82L990.696 2297.89C987.563 2296.46 986.966 2295.49 984.232 2293.11C970.771 2237.82 1018.53 2076.21 1046.41 2021.94Z" fill="white"/>
<path d="M1837.43 589.613C1839.18 590.95 1841.34 592.507 1842.65 594.295C1901.11 674.319 1919.21 796.409 1914.74 890.544L1883 892.26C1883.18 762.651 1874.62 714.211 1837.43 589.613Z" fill="#825435"/>
<path d="M1817.7 614.695C1835 637.243 1819.93 874.393 1808.6 910.781C1804.29 912.63 1792.98 910.068 1787.64 909.251L1780.17 907.174C1777.29 901.805 1788.03 837.815 1789.82 827.539C1802.08 757.038 1807.35 685.246 1817.7 614.695Z" fill="white"/>
<path d="M1642.13 752.539L1666.75 786.857C1644.59 825.622 1618.47 866.236 1594.82 904.414L1560.73 864.314L1555.15 855.839C1556.24 844.208 1583.47 819.604 1593.26 808.179L1599.09 818.657C1614.53 794.392 1627.14 778.807 1642.13 752.539Z" fill="#CA6C55"/>
<path d="M1593.26 808.176L1599.09 818.654C1589.11 834.933 1577.7 854.797 1560.73 864.311L1555.15 855.836C1556.24 844.205 1583.47 819.601 1593.26 808.176Z" fill="#CA6C55"/>
<path d="M1658.32 1930.73C1671.5 1941.03 1683.83 1980.16 1688.67 1996.5C1706.76 2057.57 1703.55 2121.28 1700.04 2184.03C1689.16 2182.58 1677.52 2181.71 1666.52 2180.72C1677.05 2081.45 1672.23 2026.8 1658.32 1930.73Z" fill="#825435"/>
<path d="M289.518 623.66C297.285 689.992 308.164 755.926 317.541 821.972C319.652 836.855 329.667 897.009 329.004 907.731L324.865 909.794C316.258 911.446 307.37 912.059 298.624 912.885C291.128 858.028 273.633 671.888 289.518 623.66Z" fill="#CA6C55"/>
<path d="M758.715 877.605C772.619 882.853 791.522 888.486 805.988 893.206C799.754 900.105 777.67 925.449 771.154 929.344C754.801 942.625 742.832 971.262 733.583 990.51C713.817 985.116 696.606 980.07 677.186 973.579C697.691 941.132 727.95 900.639 758.715 877.605Z" fill="white"/>
<path d="M1327.54 886.056C1332.2 883.907 1339.57 880.21 1344.16 878.609C1377.08 906.223 1403.54 939.065 1425.64 975.863L1392.12 986.526C1389.99 987.136 1387.85 987.722 1385.71 988.282C1370.48 992.159 1372.75 992.778 1365.71 979.517C1358.14 965.246 1352.86 940.883 1338.63 932.384C1330.75 933.085 1333.35 932.729 1326.25 940.034C1321.85 917.682 1309.07 910.589 1291.95 897.047C1304.59 894.326 1315.42 890.295 1327.54 886.056Z" fill="white"/>
<path d="M1291.95 897.046C1304.59 894.325 1315.42 890.294 1327.54 886.055C1354.25 920.213 1369.25 955.375 1392.12 986.524C1389.99 987.135 1387.85 987.721 1385.71 988.281C1370.48 992.158 1372.75 992.777 1365.71 979.516C1358.14 965.246 1352.86 940.882 1338.63 932.383C1330.75 933.084 1333.35 932.728 1326.25 940.033C1321.85 917.681 1309.07 910.588 1291.95 897.046Z" fill="white"/>
<path d="M435.53 1930.89C437.455 1941.19 427.824 1987.56 426.907 2004.15C423.645 2063.06 421.254 2122.19 429.895 2180.78L398.703 2184.26C387.751 2098.56 392.373 2007.44 435.53 1930.89Z" fill="white"/>
<path d="M665.173 993.641C678.06 998.311 692.987 1002.79 706.166 1007.09C699.907 1021.12 685.002 1047.13 681.123 1058.27C671.172 1077.34 663.902 1102.62 657.209 1123.48L631.79 1117.92C629.275 1058.49 635.203 1045.84 665.173 993.641Z" fill="white"/>
<path d="M461.65 1944.34C479.134 1959.53 530.721 2138 523.617 2161.15L497.667 2167.76C491.705 2128.49 485.037 2089.32 477.661 2050.31C470.847 2014.7 462.416 1980.54 461.65 1944.34Z" fill="#CA6C55"/>
<path d="M1633.44 1946.61C1638.06 1962.86 1620.56 2040.23 1616.36 2062.54C1610.93 2091.34 1605.26 2137.98 1597.58 2165.35C1591.81 2166.85 1582.65 2163.76 1576.42 2162.24L1572.32 2159.27C1569.15 2122.34 1613.96 1985.33 1633.44 1946.61Z" fill="#CA6C55"/>
<path d="M938.004 512.145C947.031 515.113 958.071 517.458 967.491 519.702C964.042 532.659 955.338 566.221 956.523 579.08C950.922 597.268 945.891 617.948 940.998 636.533C922.877 633.551 916.438 632.164 898.766 626.39C910.887 587.867 924.945 550.364 938.004 512.145Z" fill="#825435"/>
<path d="M1360.36 1487.17C1364.9 1486.36 1363.5 1486.63 1368.32 1487.51C1360.73 1508.44 1280.39 1555.89 1257.5 1566.61L1253.38 1566.58C1250.21 1560.57 1264.14 1541.96 1261.09 1530.41C1260.57 1528.43 1260.25 1511.68 1260.04 1508.17C1264.46 1505.9 1349.21 1489.8 1360.36 1487.17Z" fill="#849D87"/>
<path d="M734.084 1491.28C771.619 1497.97 804.975 1503.9 842.915 1508.21C835.043 1531.36 845.925 1545.79 856.387 1567.85L852.881 1570.23C820.904 1562.45 759.207 1512.38 734.084 1491.28Z" fill="#849D87"/>
<path d="M1482.56 1534.77C1492.28 1528.41 1501.06 1522.65 1511.19 1516.95C1521.92 1544.5 1531.97 1572.33 1541.33 1600.4L1520.2 1615.24C1513.39 1601.1 1504.42 1580.65 1492.98 1570.35L1495.24 1569.15C1495.49 1557.96 1488.01 1544.27 1482.56 1534.77Z" fill="#825435"/>
</svg>
