<svg width="1364" height="1557" viewBox="0 0 1364 1557" fill="none" xmlns="http://www.w3.org/2000/svg">
<path d="M94.1295 171.016C139.331 21.4181 270.8 -26.6739 408.44 13.6317C418.623 9.71379 427.946 6.34659 438.622 3.88075C467.611 -2.89943 498.12 2.60444 523.045 19.1268C546.532 34.2227 562.834 58.4524 568.213 86.1405C575.399 123.533 564.969 147.713 544.972 177.433C547.518 272.277 545.424 274.347 604.389 348.383C525.181 432.904 609.686 598.92 442.481 557.354C442.194 581.692 443.754 602.204 445.561 626.32C556.84 690.842 614.779 617.692 687.541 772.924C751.31 689.538 813.192 708.396 891.251 672.438L896.219 670.102C898.847 651.089 899.627 614.454 900.654 594.076C855.28 590.872 820.131 579.51 807.607 527.618C794.919 475.104 791.305 397.872 808.838 346.192C818.57 317.54 841.195 281.552 845.465 249.533C844.808 202.56 817.257 188.745 846.411 134.103C866.408 96.6099 902.666 70.9071 943.605 59.8417C1016.24 40.223 1080.63 46.4569 1145.8 83.1366C1157.37 68.8795 1171.46 54.1758 1186.73 44.9257C1299.08 -23.135 1409.66 124.431 1342.81 226.856C1323.76 256.034 1308.2 263.223 1278.8 279.35C1301.63 422.272 1225.7 523.805 1090.32 559.162C1091.59 759.555 1238.47 688.186 1311.36 805.54C1374.64 907.445 1335.01 1494.08 1232.19 1554.9C1218.85 1554.64 1224.76 1556.74 1214.04 1547.59C1226.57 1520.34 1279 1408.49 1282.94 1378.83C1304.01 1219.7 1331.6 994.728 1296.08 838.203C1287.75 801.456 1242.62 775.587 1213.88 762.173C1208.62 759.715 1203.28 757.345 1197.95 755.058C1153.56 822.03 1111.96 948.205 1146.54 1026.23L1150.11 1024.94L1150.64 1020.12C1152.41 1005.55 1152.45 999.613 1161.4 987.563L1167.31 984.927C1190.55 1005.46 1188.62 1308.28 1177.21 1348.27C1160.74 1406.07 1123.83 1487.88 1105.23 1549.04H1105.23C1092.91 1554.38 1092.41 1554.69 1079.19 1554.75C1045.32 1546.54 780.958 1551.14 736.487 1554.48L718.994 1552.79C706.758 1541.3 718.748 1490.25 723.593 1476.36C776.974 1323.29 761.288 1276.69 705.444 1133.89C692.632 1149.78 627.959 1225.09 624.797 1236.45C598.642 1330.12 680.847 1457.51 669.555 1548.05C668.938 1553.14 658.592 1554.62 651.858 1556.75C631.737 1551.73 571.375 1553.17 548.339 1553.5C544.48 1554.04 540.702 1554.49 536.842 1554.39C510.234 1553.68 227.891 1324.63 195.697 1291.78C194.802 1243.1 184.796 985.484 192.441 960.634C204.279 958.03 199.516 968.657 218.158 977.29C223.414 968.979 223.578 963.065 223.496 952.935C222.551 867.806 194.855 797.35 137.61 736.679C111.351 748.633 80.7391 769.319 68.0631 795.046C20.5872 891.375 66.7733 1258.3 93.1148 1354.52C156.351 1422.32 272.155 1485.91 348.9 1542.11L349.023 1548.76C337.855 1555.93 328.492 1553.32 314.778 1552.24C269.281 1553.5 219.718 1550.98 174.825 1555.37C164.958 1556.08 165.142 1555.59 156.454 1551.78C146.882 1527.76 166.115 1487.27 175.334 1460.69C112.377 1409.26 59.6332 1391.17 51.6383 1299.85C38.8678 1153.95 -23.2795 872.178 62.9508 751.022C37.7304 733.085 -4.85872 692.688 0.45368 657.744C5.54944 624.231 51.3953 615.397 73.9468 598.478C112.697 569.409 58.8008 508.421 68.4371 471.266C76.3168 434.427 102.334 411.357 129.718 389.677C97.2053 322.113 71.7181 245.181 94.1295 171.016ZM1154.17 1224.79C1134.01 1270.31 1120.13 1320.02 1136.39 1369.49C1156.47 1342.23 1164.85 1255.92 1154.17 1224.79ZM223.946 1212.52C221.934 1250.48 212.325 1279.87 250.143 1298.97C246.324 1273.75 240.658 1232.71 223.946 1212.52ZM784.652 733.246C716.243 764.848 692.426 801.878 665.859 873.815C660.275 888.965 654.896 904.216 649.804 919.55C687.376 1021.98 680.067 1058.6 645.329 1160.95C664.34 1147.41 678.835 1124.61 695.259 1107C680.231 986.02 812.121 792.124 790.893 735.249L784.652 733.246ZM1008.4 166.801C959.579 183.595 919.544 193.392 877.332 223.771C847.972 334.878 815.615 352.174 826.948 473.087C844.892 663.978 982.862 514.352 1019.04 540.588C1011.44 572.598 953.789 583.36 926.072 589.085C925.908 613.428 927.509 680.753 920.652 700.075C906.978 711.85 861.153 712.176 825.264 723.838C812.699 781.897 797.589 839.344 779.891 896.001C819.762 912.452 832.984 920.71 863.986 951.006C878.029 967.195 889.897 980.555 902.174 998.145C970.543 942.018 1017.85 924.348 1104.94 925.8C1118.98 863.873 1134.05 796.329 1171.05 744.053C1077.3 695.406 1034.64 615.299 1076.77 507.292C1097.96 453.026 1176.26 485.424 1153.72 397.182L1147.32 390.856C1132.12 394.703 1112.45 409.669 1098.94 402.33C1073.61 388.557 1070.37 343.625 1065.6 316.812C1010.95 263.163 1010.66 244.403 1014.4 170.852C1012.67 169.53 1010.21 167.289 1008.4 166.801ZM489.989 123.598C476.561 221.09 446.75 221.783 374.973 276.964C355.099 292.235 333.5 323.169 310.341 342.033C294.779 331.827 275.931 317.294 258.438 314.244C226.615 322.894 238.195 345.146 239.262 365.161C240.372 386.585 296.331 416.185 296.462 417.337C306.605 514.801 294.409 626.264 219.593 692.526C255.851 754.199 297.817 843.84 357.193 881.771C397.434 907.465 437.224 925.31 475.658 955.711L485.554 962.967C496.641 957.601 508.467 920.713 513.764 907.073C544.314 828.427 516.31 755.054 491.836 677.893C478.327 672.795 470.442 670.274 457.919 662.664L448.885 663.031C440.796 683.388 449.707 684.044 437.306 692.076C412.382 677.857 416.898 580.706 417.062 551.081C389.469 536.486 380.434 530.994 358.384 508.171L358.671 500.077C406.714 508.593 464.079 550.684 512.656 531.921C555.894 494.674 522.1 411.851 569.444 346.494C476.726 238.816 556.714 195.993 489.989 123.598ZM577.208 693.422C587.72 732.059 614.656 852.817 633.011 878.599C639.704 867.304 642.332 862.029 647.3 849.863L669.186 802.452C653.336 763.594 636.377 717.468 595.151 699.76C589.32 697.244 583.326 695.124 577.208 693.422ZM405.443 43.039C363.806 27.7512 333.297 24.063 288.909 29.8085C225.303 44.2119 180.114 68.4155 143.482 126.346C111.306 177.224 108.296 232.355 121.099 290.059C128.844 324.949 167.011 377.643 149.588 406.888C132.827 435.026 83.1915 455.267 94.734 499.227C105.176 538.995 130.683 557.517 110.107 600.943C100.477 632.829 27.4739 644.041 32.3726 675.947C34.2577 688.231 50.0707 714.738 59.7613 717.004C131.944 733.902 223.948 664.498 252.938 605.342C264.518 568.086 276.878 483.619 269.569 448.921C263.41 419.588 178.157 358.383 211.712 311.969C241.277 271.117 280.656 289.505 311.165 309.144C318.35 299.707 341.345 268.251 349.229 262.517C407.948 219.8 482.599 181.622 466.256 93.5839L469.911 85.9442C497.34 82.2932 524.442 125.815 540.128 146.173C540.045 125.732 540.62 100.606 539.511 80.5741C502.227 20.2659 465.969 20.0029 405.443 43.039ZM1327.91 120.211C1312.88 69.3572 1267.46 52.876 1217.57 59.2724C1194.58 70.9341 1183.98 79.5916 1167.85 100.645C1178.69 113.217 1187.97 121.517 1192.2 137.405L1187.64 143.934C1169.86 137.067 1158.73 122.643 1138.73 111.027C1061.78 66.3279 916.915 63.5279 867.024 150.511C861.973 159.361 859.223 188.801 866.696 198.189C930.876 160.817 982.574 145.045 1056.65 134.752C1013.45 295.932 1089.54 247.249 1100.34 355.143C1102.15 368.532 1099.64 365.045 1107.94 371.9C1178.11 363.685 1207.55 389.591 1168.91 466.105C1158.89 486.012 1099.89 496.464 1095.74 524.098C1124.73 526.722 1161.15 503.694 1182.3 484.939C1255.27 420.221 1267.26 351.505 1246.4 260.371C1311.93 238.061 1350.78 197.4 1327.91 120.211Z" fill="#301E0F"/>
<path d="M736.488 1554.48C748.026 1485.61 786.543 1373.09 782.437 1313.6C768.722 1115.43 654.035 1122.64 769.502 922.656C838.733 955.176 856.759 978.27 896.466 1041.16C971.241 971.565 1006.18 956.774 1106.46 952.56C1112.45 1027.62 1128.63 1058.67 1154.83 1128.19C1128.63 1239.44 1070.98 1302.46 1127.07 1410.36C1113.03 1446.34 1082.48 1519.97 1079.19 1554.75C1045.32 1546.54 780.958 1551.14 736.488 1554.48Z" fill="#849D87"/>
<path d="M502.721 1011.96C519.802 971.431 552.324 887.072 554.377 844.993C556.348 804.45 537.5 729.972 528.056 689.357C529.411 686.507 530.807 683.662 532.203 680.816L538.486 681.309C561.44 709.732 573.43 801.358 587.597 840.108C604.227 885.717 629.562 937.33 643.441 982.596C663.52 1048.11 621.555 1137.52 603.652 1201.14C576.387 1297.78 610.181 1378.19 634.284 1470.2C639.787 1491.14 647.054 1542.78 651.859 1556.75C631.738 1551.73 571.377 1553.17 548.341 1553.49C541.484 1526.52 462.809 1473.49 438.13 1454.19L277.084 1325.85C275.688 1290.51 274.907 1267.76 263.246 1233.47C249.859 1194.06 223.99 1160.08 220.829 1118.04C217.42 1073.09 236.104 1036.17 244.932 992.69C251.79 958.826 252.98 911.506 243.659 876.316C230.15 825.55 202.72 767.407 168.441 727.406C169.127 723.739 169.813 720.071 170.494 716.399L177.052 709.848C202.556 712.69 229.821 765.333 241.031 786.321C286.98 872.402 346.109 913.117 428.85 958.547C450.489 970.426 480.095 996.444 502.721 1011.96Z" fill="#849D87"/>
<path d="M199.967 1474.38C238.524 1499.89 276.794 1525.85 314.777 1552.24C269.28 1553.5 219.717 1550.98 174.824 1555.37L199.967 1474.38Z" fill="#849D87"/>
</svg>
