<svg width="1364" height="1557" viewBox="0 0 1364 1557" fill="none" xmlns="http://www.w3.org/2000/svg">
<path d="M129.718 389.677C97.2051 322.113 71.7176 245.181 94.1295 171.016C139.331 21.4177 270.8 -26.6739 408.44 13.6319C418.624 9.71392 427.945 6.34682 438.622 3.88098C467.611 -2.89931 498.12 2.60438 523.045 19.127C546.533 34.2229 562.834 58.4523 568.214 86.1406C575.399 123.534 564.97 147.713 544.972 177.434C547.518 272.277 545.424 274.347 604.39 348.382C525.181 432.903 609.687 598.921 442.481 557.355C442.194 581.692 443.754 602.204 445.561 626.321C556.84 690.843 614.779 617.692 687.541 772.924C751.311 689.537 813.192 708.397 891.251 672.439L896.219 670.102C898.847 651.089 899.627 614.455 900.654 594.077C855.28 590.872 820.131 579.51 807.607 527.618C794.918 475.104 791.305 397.872 808.838 346.192C818.57 317.54 841.195 281.553 845.466 249.533C844.809 202.56 817.256 188.745 846.411 134.103C866.408 96.6096 902.666 70.9074 943.605 59.842C1016.24 40.2232 1080.63 46.457 1145.8 83.1367C1157.38 68.8794 1171.46 54.1757 1186.73 44.9256C1299.08 -23.1351 1409.66 124.431 1342.81 226.856C1323.76 256.034 1308.2 263.223 1278.8 279.35C1301.63 422.273 1225.7 523.805 1090.32 559.162C1091.59 759.556 1238.47 688.186 1311.36 805.54C1374.64 907.444 1335.01 1494.08 1232.19 1554.9C1218.85 1554.64 1224.76 1556.75 1214.04 1547.59C1184.6 1556.09 1134.17 1558.4 1105.23 1549.03C1092.91 1554.38 1092.41 1554.69 1079.19 1554.75C1045.32 1546.54 780.957 1551.14 736.487 1554.48L718.994 1552.79C706.758 1541.3 718.748 1490.25 723.593 1476.36C776.974 1323.29 761.288 1276.69 705.444 1133.89C692.632 1149.77 627.959 1225.09 624.797 1236.45C598.641 1330.12 680.847 1457.51 669.555 1548.05C668.939 1553.14 658.592 1554.62 651.858 1556.75C631.737 1551.73 571.376 1553.17 548.34 1553.5C544.48 1554.04 540.702 1554.49 536.842 1554.39C510.234 1553.68 227.889 1324.63 195.697 1291.78C194.801 1243.1 184.795 985.481 192.441 960.634C204.279 958.03 199.515 968.658 218.158 977.29C223.414 968.979 223.578 963.066 223.496 952.936C222.552 867.806 194.855 797.35 137.61 736.678C111.351 748.632 80.739 769.319 68.063 795.046C20.5867 891.375 66.7736 1258.3 93.1151 1354.52C156.351 1422.32 272.155 1485.91 348.9 1542.11L349.023 1548.76C337.854 1555.93 328.492 1553.32 314.778 1552.24C269.281 1553.5 219.718 1550.98 174.825 1555.37C164.958 1556.08 165.142 1555.59 156.454 1551.78C146.882 1527.76 166.115 1487.27 175.334 1460.69C112.377 1409.26 59.633 1391.17 51.6383 1299.85C38.8678 1153.95 -23.28 872.178 62.9507 751.023C37.7302 733.085 -4.85944 692.688 0.453816 657.744C5.5496 624.231 51.3957 615.398 73.9472 598.479C112.698 569.409 58.7995 508.421 68.4368 471.265C76.3165 434.427 102.334 411.357 129.718 389.677Z" fill="#301E0F"/>
<path d="M736.488 1554.48C748.027 1485.61 786.543 1373.09 782.437 1313.6C768.722 1115.43 654.035 1122.64 769.502 922.656C838.733 955.176 856.759 978.27 896.467 1041.16C971.241 971.565 1006.19 956.774 1106.46 952.56C1112.45 1027.62 1128.63 1058.67 1154.83 1128.19C1128.63 1239.44 1070.98 1302.46 1127.07 1410.36C1113.03 1446.34 1082.48 1519.97 1079.19 1554.75C1045.32 1546.54 780.959 1551.14 736.488 1554.48Z" fill="#849D87"/>
<path d="M502.721 1011.96C519.803 971.431 552.324 887.072 554.377 844.993C556.348 804.45 537.5 729.972 528.056 689.357C529.411 686.507 530.807 683.662 532.204 680.816L538.486 681.309C561.44 709.732 573.43 801.358 587.597 840.108C604.227 885.717 629.562 937.33 643.441 982.596C663.52 1048.11 621.555 1137.52 603.652 1201.14C576.387 1297.78 610.181 1378.19 634.284 1470.2C639.787 1491.14 647.055 1542.78 651.859 1556.75C631.738 1551.73 571.377 1553.17 548.341 1553.49C541.484 1526.52 462.809 1473.49 438.13 1454.19L277.084 1325.85C275.688 1290.51 274.907 1267.76 263.246 1233.47C249.86 1194.06 223.991 1160.08 220.829 1118.04C217.421 1073.09 236.104 1036.17 244.932 992.69C251.79 958.826 252.98 911.506 243.659 876.316C230.15 825.55 202.72 767.407 168.441 727.406C169.127 723.739 169.813 720.071 170.494 716.399L177.052 709.848C202.556 712.69 229.821 765.333 241.031 786.321C286.98 872.402 346.109 913.117 428.85 958.547C450.49 970.426 480.095 996.444 502.721 1011.96Z" fill="#849D87"/>
<path d="M1197.95 755.059C1203.28 757.345 1208.62 759.715 1213.88 762.173C1242.62 775.587 1287.75 801.456 1296.08 838.203C1331.6 994.728 1304.01 1219.7 1282.94 1378.83C1279 1408.49 1226.57 1520.34 1214.04 1547.59C1184.6 1556.09 1134.18 1558.4 1105.23 1549.04C1123.83 1487.88 1160.74 1406.07 1177.21 1348.27C1188.62 1308.28 1190.55 1005.46 1167.31 984.927L1161.4 987.564C1152.45 999.614 1152.41 1005.55 1150.64 1020.12L1150.11 1024.94L1146.54 1026.23C1111.96 948.205 1153.56 822.03 1197.95 755.059Z" fill="#EBE6DB"/>
<path d="M199.967 1474.38C238.524 1499.89 276.794 1525.85 314.777 1552.24C269.28 1553.5 219.718 1550.98 174.824 1555.37L199.967 1474.38Z" fill="#849D87"/>
<path d="M1008.4 166.801C1010.21 167.289 1012.67 169.529 1014.4 170.852C1010.66 244.404 1010.95 263.163 1065.6 316.813C1070.37 343.625 1073.61 388.558 1098.94 402.331C1112.45 409.67 1132.12 394.704 1147.32 390.857L1153.72 397.182C1176.26 485.425 1097.96 453.026 1076.77 507.292C1034.64 615.3 1077.3 695.407 1171.05 744.053C1134.05 796.33 1118.98 863.873 1104.94 925.8C1017.85 924.348 970.543 942.018 902.174 998.146C889.897 980.555 878.03 967.195 863.986 951.006C832.984 920.71 819.762 912.452 779.891 896.001C797.589 839.343 812.7 781.897 825.265 723.838C861.153 712.176 906.978 711.85 920.652 700.076C927.51 680.753 925.908 613.427 926.072 589.085C953.789 583.36 1011.44 572.599 1019.04 540.588C982.862 514.352 844.892 663.98 826.948 473.087C815.615 352.174 847.972 334.879 877.332 223.771C919.544 193.392 959.579 183.595 1008.4 166.801Z" fill="#EBE6DB"/>
<path d="M489.989 123.598C556.715 195.994 476.726 238.816 569.444 346.494C522.1 411.851 555.894 494.674 512.655 531.921C464.079 550.684 406.714 508.593 358.671 500.077L358.384 508.171C380.434 530.995 389.468 536.485 417.062 551.081C416.898 580.705 412.381 677.856 437.306 692.076C449.707 684.044 440.796 683.389 448.885 663.031L457.919 662.664C470.443 670.275 478.327 672.795 491.836 677.894C516.31 755.055 544.314 828.427 513.764 907.073C508.467 920.713 496.641 957.601 485.554 962.967L475.658 955.711C437.224 925.311 397.434 907.465 357.193 881.771C297.817 843.84 255.852 754.199 219.594 692.526C294.409 626.264 306.605 514.801 296.462 417.337C296.339 416.19 240.371 386.586 239.262 365.161C238.195 345.146 226.615 322.894 258.439 314.245C275.931 317.295 294.778 331.827 310.341 342.033C333.5 323.169 355.099 292.235 374.973 276.964C446.75 221.783 476.562 221.091 489.989 123.598Z" fill="#EBE6DB"/>
<path d="M288.909 29.8084C333.297 24.0629 363.806 27.7513 405.443 43.0391C465.969 20.0031 502.227 20.266 539.512 80.5742C540.62 100.606 540.045 125.733 540.127 146.173C524.442 125.816 497.34 82.2932 469.911 85.9443L466.257 93.584C482.6 181.622 407.948 219.8 349.229 262.518C341.345 268.251 318.35 299.707 311.165 309.144C280.655 289.505 241.277 271.117 211.712 311.969C178.156 358.383 263.409 419.589 269.569 448.921C276.878 483.619 264.518 568.086 252.938 605.342C223.948 664.499 131.944 733.903 59.761 717.004C50.0703 714.739 34.257 688.231 32.3723 675.947C27.4736 644.041 100.478 632.829 110.107 600.944C130.684 557.517 105.176 538.996 94.7337 499.228C83.191 455.267 132.827 435.026 149.588 406.888C167.011 377.643 128.844 324.949 121.1 290.059C108.296 232.355 111.306 177.224 143.482 126.346C180.114 68.4154 225.303 44.2118 288.909 29.8084Z" fill="#EBE6DB"/>
<path d="M1217.57 59.2724C1267.46 52.876 1312.88 69.3571 1327.91 120.211C1350.78 197.401 1311.93 238.061 1246.4 260.371C1267.26 351.505 1255.27 420.221 1182.3 484.94C1161.15 503.695 1124.73 526.723 1095.74 524.098C1099.89 496.464 1158.89 486.012 1168.91 466.106C1207.55 389.591 1178.11 363.685 1107.94 371.9C1099.64 365.045 1102.15 368.533 1100.34 355.144C1089.54 247.249 1013.45 295.933 1056.65 134.752C982.574 145.045 930.876 160.817 866.696 198.189C859.222 188.802 861.973 159.361 867.024 150.511C916.915 63.5281 1061.78 66.3278 1138.73 111.027C1158.73 122.643 1169.86 137.067 1187.64 143.935L1192.2 137.405C1187.97 121.517 1178.69 113.218 1167.85 100.646C1183.98 79.5919 1194.58 70.9342 1217.57 59.2724Z" fill="#EBE6DB"/>
<path d="M784.652 733.246L790.894 735.249C812.123 792.123 680.231 986.02 695.26 1107C678.835 1124.61 664.34 1147.41 645.328 1160.95C680.067 1058.6 687.376 1021.98 649.804 919.55C654.896 904.216 660.275 888.966 665.859 873.815C692.427 801.878 716.243 764.848 784.652 733.246Z" fill="#EBE6DB"/>
<path d="M577.207 693.422C583.326 695.124 589.321 697.244 595.151 699.76C636.378 717.468 653.336 763.594 669.187 802.452L647.301 849.863C642.332 862.03 639.704 867.304 633.011 878.599C614.656 852.817 587.719 732.058 577.207 693.422Z" fill="#EBE6DB"/>
<path d="M1154.17 1224.79C1164.85 1255.92 1156.47 1342.23 1136.39 1369.49C1120.13 1320.03 1134.01 1270.31 1154.17 1224.79Z" fill="#EBE6DB"/>
<path d="M223.946 1212.52C240.658 1232.71 246.324 1273.75 250.143 1298.97C212.325 1279.87 221.934 1250.48 223.946 1212.52Z" fill="#EBE6DB"/>
</svg>
