<svg width="1304" height="1457" viewBox="0 0 1304 1457" fill="none" xmlns="http://www.w3.org/2000/svg">
<path d="M564.858 270.793C572.295 273.613 568.788 271.832 574.508 279.881C565.154 376.836 534 477.792 513.148 572.272C477.424 734.163 437.274 805.804 294.656 892.09L275.418 844.231C233.67 720.686 212.339 682.883 244.067 547.029C260.87 475.092 274.991 399.3 293.728 326.262C422.051 333.146 448.32 322.602 564.858 270.793ZM352.79 435.199C348.089 427.919 338.685 425.506 331.15 429.649C325.673 432.662 322.33 438.55 322.507 444.875C322.688 451.2 326.358 456.883 331.996 459.57C337.634 462.257 344.282 461.485 349.181 457.58C355.923 452.206 357.492 442.48 352.79 435.199Z" fill="#EECE91"/>
<path d="M731.197 264.516C844.291 322.896 876.492 333.332 1004.54 328.88C1006.91 333.737 1009.09 338.689 1011.07 343.726C1025.52 380.167 1035.81 427.658 1045.48 465.827C1084.73 620.716 1089.31 693.192 1027.14 842.022C1022.67 854.999 1013.6 874.901 1008.05 888.128C953.521 863.344 862.793 787.613 843.588 731.661C802.415 611.662 730.474 386.751 731.197 264.516ZM1017.43 603.147C1014.46 593.175 1004.37 587.209 994.357 589.545C987.241 591.214 981.631 596.763 979.808 603.939C977.985 611.116 980.251 618.752 985.688 623.676C991.125 628.641 998.824 630.101 1005.65 627.473C1015.26 623.759 1020.41 613.161 1017.43 603.147ZM890.156 559.589C885.742 551.661 875.911 548.782 868.036 553.121C862.8 556 859.503 561.508 859.417 567.558C859.33 573.608 862.467 579.24 867.617 582.286C872.77 585.29 879.13 585.249 884.251 582.161C891.946 577.53 894.57 567.475 890.156 559.589Z" fill="#EECE91"/>
<path d="M923.208 0.0133663C961.614 -0.587355 978.265 19.0817 987.787 54.7516C1039.96 250.176 1110.51 448.534 1132.28 650.091C1142.23 742.219 1089.46 819.743 1069.21 904.694C1062.96 930.897 1066.84 958.602 1071.1 984.971C1089.89 1071.63 1107.61 1160.3 1134.38 1244.71C1159.05 1322.52 1216.84 1289.1 1274.55 1308.25C1390.02 1377.26 1129.97 1436.3 1091.01 1442.86C1055.51 1448.66 951.702 1479.07 941.177 1425.41C930.502 1370.96 1023.92 1361.37 1045.18 1323.69C1064.39 1274.12 1036.32 1201.94 1023.86 1150.37C996.702 1037.88 992.008 941.954 891.59 870.438C781.154 791.746 748.172 618.966 717.757 490.956C693.765 382.898 677.784 274.118 654.46 167.287C619.759 328.097 576.08 667.783 488.659 791.997C453.69 841.648 402.851 871.899 364.113 917.17C349.995 933.651 338.499 951.05 330.114 971.245C307.452 1025.82 250.77 1239.15 255.203 1292.15C260.46 1354.94 312.715 1352.56 351.687 1386.82C359.731 1393.91 369.348 1404.64 369.467 1416.19C369.57 1426.12 364.252 1435.84 357.091 1442.31C341.258 1456.54 316.065 1457.58 295.92 1456.42C228.019 1452.62 51.7805 1416.11 9.47303 1364.08C0.717386 1353.32 -1.04248 1347.06 0.501349 1333.62C31.4963 1287.39 105.125 1314.59 145.419 1289.39C188.354 1262.52 241.185 965.278 235.535 909.117C232.492 878.909 220.374 851.746 209.628 823.749C169.79 720.064 165.815 666.615 185.804 557.339C208.943 430.814 246.288 306.638 280.686 182.933C294.392 133.636 305.081 72.5759 327.809 26.8962C333.701 15.0467 342.013 8.70416 352.529 1.36493C356.922 1.00207 361.321 0.730981 365.727 0.547546C445.207 -2.65679 590.895 29.2168 650.46 85.2565C724.06 29.7674 832.621 4.76603 923.208 0.0133663ZM956.77 67.1257C870.671 111.72 775.144 134.243 678.516 132.741C706.41 323.459 750.527 534.513 811.87 718.809C830.089 804.094 959.361 868.684 988.712 929.643C1031.59 1018.68 1064.12 1194.55 1080.17 1294.77C1089.95 1355.82 1010.56 1381.89 971.844 1408.51L971.831 1417.53C1004.37 1445.56 1242.79 1385.73 1270.03 1343.67C1263.29 1335.04 1255.34 1333.78 1244.73 1332.57C1198.78 1327.23 1163.75 1339.5 1129.91 1298.57C1086.02 1245.41 1032.42 979.462 1039.6 909.365C1046.98 837.223 1092.43 776.389 1101.1 703.33C1116.95 569.645 1006.33 213.677 962.133 71.7936L956.77 67.1257ZM345.432 64.5475C296.921 230.969 223.723 449.534 205.918 618.881C198.589 688.56 209.749 749.019 235.861 813.483C248.43 844.484 260.786 873.024 264.296 906.904C271.749 978.754 217.654 1283.3 157.789 1318.39C125.009 1337.58 73.1609 1325.86 37.4681 1341.8L36.3285 1347.68C67.6 1386.82 290.891 1441.93 335.72 1419.57L336.739 1413.06L327.84 1405.72C294.083 1386.98 241.655 1365.33 228.351 1325.07C212.469 1277 285.6 988.934 312.328 939.032C348.643 871.272 428.205 832.718 470.877 767.42C540.252 661.231 609.663 266.49 629.402 130.318C528.081 134.144 435.157 113.444 345.432 64.5475ZM939.895 36.2975C929.502 26.3796 907.755 29.8224 894.201 31.1452C846.03 35.7309 725.746 66.2726 687.912 94.4157L687.078 101.28C704.074 105.481 709.548 104.476 726.424 103.149C765.52 99.344 923.704 69.0471 939.895 36.2975ZM625.866 103.332C586.314 57.2599 420.337 24.1006 358.883 31.3522C390.246 78.5796 568.878 108.384 625.866 103.332Z" fill="#301E0F"/>
</svg>
