<svg width="1304" height="1457" viewBox="0 0 1304 1457" fill="none" xmlns="http://www.w3.org/2000/svg">
<path d="M352.529 1.36506C356.923 1.00218 361.32 0.730961 365.726 0.547526C445.206 -2.65691 590.895 29.216 650.46 85.2562C724.06 29.7669 832.621 4.76589 923.208 0.0133668C961.614 -0.587357 978.265 19.0811 987.787 54.7514C1039.96 250.176 1110.51 448.534 1132.28 650.092C1142.23 742.219 1089.46 819.743 1069.21 904.694C1062.96 930.896 1066.84 958.602 1071.1 984.971C1089.89 1071.63 1107.61 1160.3 1134.38 1244.71C1159.05 1322.52 1216.84 1289.1 1274.55 1308.25C1390.02 1377.26 1129.96 1436.3 1091 1442.85C1055.51 1448.65 951.701 1479.07 941.177 1425.41C930.501 1370.96 1023.92 1361.37 1045.18 1323.69C1064.39 1274.12 1036.32 1201.94 1023.86 1150.37C996.701 1037.88 992.008 941.954 891.59 870.438C781.153 791.746 748.172 618.966 717.757 490.955C693.765 382.898 677.783 274.118 654.46 167.287C619.758 328.097 576.08 667.783 488.659 791.997C453.69 841.648 402.851 871.899 364.113 917.17C349.995 933.651 338.498 951.05 330.113 971.244C307.451 1025.82 250.768 1239.16 255.203 1292.15C260.459 1354.94 312.715 1352.56 351.687 1386.82C359.731 1393.91 369.348 1404.64 369.467 1416.19C369.569 1426.12 364.252 1435.85 357.091 1442.31C341.257 1456.54 316.065 1457.58 295.92 1456.42C228.02 1452.62 51.7807 1416.11 9.47308 1364.08C0.716951 1353.31 -1.04247 1347.06 0.501429 1333.62C31.4965 1287.39 105.124 1314.59 145.419 1289.39C188.353 1262.52 241.184 965.278 235.534 909.117C232.491 878.908 220.374 851.746 209.628 823.749C169.789 720.064 165.814 666.615 185.803 557.339C208.942 430.814 246.288 306.638 280.686 182.933C294.392 133.636 305.081 72.5763 327.809 26.8965C333.702 15.0466 342.013 8.70449 352.529 1.36506Z" fill="#301E0F"/>
<path d="M345.431 64.5477C435.156 113.445 528.08 134.144 629.402 130.318C609.663 266.489 540.251 661.231 470.877 767.419C428.205 832.718 348.642 871.272 312.327 939.032C285.599 988.934 212.467 1277 228.35 1325.07C241.655 1365.33 294.083 1386.98 327.84 1405.72L336.738 1413.06L335.72 1419.57C290.892 1441.94 67.5998 1386.82 36.3281 1347.68L37.4676 1341.8C73.1605 1325.86 125.009 1337.58 157.789 1318.39C217.654 1283.3 271.749 978.753 264.296 906.904C260.786 873.023 248.43 844.484 235.861 813.483C209.749 749.019 198.589 688.56 205.918 618.88C223.723 449.534 296.92 230.97 345.431 64.5477Z" fill="#EBE6DB"/>
<path d="M564.858 270.793C572.295 273.613 568.788 271.832 574.508 279.881C565.154 376.836 534 477.791 513.149 572.272C477.424 734.163 437.274 805.804 294.656 892.09L275.418 844.232C233.67 720.686 212.339 682.884 244.067 547.029C260.87 475.092 274.991 399.3 293.728 326.262C422.052 333.146 448.319 322.602 564.858 270.793Z" fill="#EECE91"/>
<path d="M331.15 429.65C338.685 425.507 348.089 427.918 352.79 435.199C357.492 442.48 355.923 452.206 349.181 457.58C344.282 461.485 337.634 462.257 331.996 459.57C326.358 456.883 322.687 451.2 322.507 444.875C322.33 438.549 325.673 432.662 331.15 429.65Z" fill="#EBE6DB"/>
<path d="M956.77 67.125L962.133 71.7938C1006.33 213.677 1116.95 569.645 1101.1 703.33C1092.43 776.389 1046.98 837.223 1039.6 909.365C1032.42 979.462 1086.02 1245.41 1129.91 1298.57C1163.75 1339.5 1198.78 1327.23 1244.73 1332.58C1255.34 1333.79 1263.29 1335.04 1270.03 1343.67C1242.79 1385.73 1004.37 1445.56 971.831 1417.53L971.844 1408.51C1010.56 1381.89 1089.95 1355.82 1080.17 1294.77C1064.12 1194.55 1031.59 1018.68 988.712 929.643C959.361 868.683 830.089 804.094 811.869 718.809C750.527 534.513 706.409 323.459 678.516 132.74C775.143 134.242 870.67 111.72 956.77 67.125Z" fill="#EBE6DB"/>
<path d="M731.196 264.516C844.29 322.896 876.491 333.332 1004.54 328.88C1006.91 333.737 1009.09 338.689 1011.07 343.725C1025.51 380.167 1035.81 427.658 1045.48 465.827C1084.73 620.717 1089.31 693.192 1027.14 842.023C1022.67 854.999 1013.6 874.901 1008.05 888.128C953.52 863.344 862.793 787.614 843.588 731.662C802.415 611.662 730.474 386.751 731.196 264.516Z" fill="#EECE91"/>
<path d="M994.356 589.545C1004.37 587.208 1014.46 593.175 1017.43 603.147C1020.41 613.161 1015.26 623.759 1005.65 627.472C998.824 630.101 991.124 628.641 985.688 623.675C980.251 618.752 977.985 611.116 979.808 603.94C981.631 596.763 987.24 591.214 994.356 589.545Z" fill="#EBE6DB"/>
<path d="M868.035 553.121C875.911 548.782 885.741 551.661 890.155 559.589C894.569 567.475 891.945 577.53 884.25 582.161C879.13 585.249 872.769 585.29 867.616 582.286C862.467 579.24 859.329 573.607 859.416 567.557C859.502 561.508 862.799 556 868.035 553.121Z" fill="#EBE6DB"/>
<path d="M358.883 31.3523C420.337 24.1006 586.314 57.2591 625.866 103.331C568.879 108.384 390.246 78.5799 358.883 31.3523Z" fill="#EBE6DB"/>
<path d="M894.2 31.1446C907.755 29.8219 929.501 26.3795 939.895 36.2976C923.704 69.0472 765.52 99.3436 726.424 103.149C709.547 104.476 704.074 105.481 687.078 101.279L687.912 94.4157C725.746 66.2726 846.03 35.7303 894.2 31.1446Z" fill="#EBE6DB"/>
</svg>
