<svg width="1247" height="1267" viewBox="0 0 1247 1267" fill="none" xmlns="http://www.w3.org/2000/svg">
<path d="M564.374 2.86359C907.22 -30.1278 1211.38 225.751 1243.48 574.141C1275.57 922.581 1023.42 1231.34 680.507 1263.59C338.121 1295.76 34.7984 1040.04 2.75347 692.179C-29.2914 344.294 222.055 35.8049 564.374 2.86359Z" fill="#301E0F"/>
<path d="M575.419 32.1449C902.702 5.34537 1189.22 253.618 1214.87 586.241C1240.52 918.867 995.552 1209.44 668.158 1234.76C341.791 1260.01 56.9052 1012.04 31.3357 680.454C5.76629 348.896 249.167 58.8653 575.419 32.1449Z" fill="#EBE6DB"/>
<path d="M567.336 169.836C756.888 141.764 956.685 255.375 1040.94 429.274C1053.89 451.722 1065.11 506.13 1077.91 524.865C1131.63 603.431 1151.71 677.91 1103.07 766.866C1089.09 792.443 1057.03 817.519 1042.5 841.427C959.777 977.449 868.746 1055.14 711.407 1090.94C588.217 1114.93 460.698 1087.89 357.221 1015.84C284.048 964.89 251.436 913.861 204.457 842.303C178.957 813.764 154.233 804.042 147.195 762.026C141.611 728.688 156.554 705.823 158.475 674.822C160.229 646.533 159.806 619.204 162.356 590.539C170.244 504.211 201.841 421.889 253.547 352.915C331.98 246.426 438.967 188.007 567.336 169.836Z" fill="#301E0F"/>
<path d="M569.626 198.781C784.18 182.313 964.148 286.719 1037.5 497.035C1029.4 492.32 1021.16 487.856 1012.78 483.684C948.927 451.806 892.762 462.988 829.152 484.894C829.871 478.468 830.548 472.042 831.185 465.575C833.87 438.246 841.771 392.537 825.539 372.367C773.878 339.221 665.597 442.71 638.393 488.398C621.357 455.979 608.755 440.916 583.078 415.423C458.709 306.543 452.209 409.819 492.22 514.393C442.625 503.795 379.508 501.459 330.328 514.059C248.052 535.13 223.87 577.146 183.391 644.531C208.225 401.491 323.823 239.575 569.626 198.781Z" fill="#EBE6DB"/>
<path d="M814.182 856.532C895.806 883.694 916.107 881.274 997.821 859.411C872.815 1053.05 653.415 1120.35 442.322 1032.15C358.379 994.013 296.038 936.559 247.531 858.326C283.933 872.137 337.569 883.819 380.754 889.285C503.181 904.639 656.984 913.443 777.666 880.773C784.806 878.812 807.797 861.413 814.182 856.532Z" fill="#EBE6DB"/>
<path d="M906.152 494.741C1040.25 491.737 1141.66 606.771 1082.2 736.826C1061.98 781.596 1024.56 815.935 978.705 831.874C927.656 849.982 876.065 848.355 827.189 824.864C824.709 809.009 825.604 806.339 829.345 790.609C842.579 781.304 883.251 819.607 915.444 809.635C922.391 801.165 920.712 805.921 920.733 794.99C915.214 790.233 853.596 771.248 823.144 752.722C811.392 720.344 811.207 716.047 791.489 686.84C766.827 658.801 754.533 648.495 726.02 625.463C737.62 602.598 773.578 618.328 789.551 625.213C823.727 639.816 855.776 659.093 884.819 682.542C910.993 703.905 984.942 786.936 1017.15 770.831L1017.67 763.195C1002.95 749.426 984.511 737.869 970.484 724.6C899.224 657.299 867.939 623.585 774.777 592.376C798.531 565.881 805.04 552.07 818.003 518.732C849.921 508.301 872.85 500.082 906.152 494.741Z" fill="#EECE91"/>
<path d="M856.18 539.344C923.949 535.422 1076.06 618.579 1067.57 701.36L1053.56 696.353C1033.65 666.312 1000.37 626.799 971.515 605.478C943.872 585.033 883.708 575.853 857.264 553.489L856.18 539.344Z" fill="#301E0F"/>
<path d="M249.848 591.96C319.604 526.828 418.589 525.242 506.109 546.48C525.548 570.138 542.445 587.078 563.88 608.691C620.028 595.882 636.26 591.584 684.652 627.884C681.059 646.368 678.948 650.708 665.353 664.101C660.544 681.333 684.43 698.983 694.893 713.711C716.085 743.628 769.618 833.544 726.663 859.747C706.859 854.156 680.345 812.89 668.276 792.779C634.63 736.66 491.027 629.053 432.066 619.122L431.417 625.172C442.253 642.488 454.01 649.581 470.291 661.681C382.29 660.638 313.942 656.924 249.848 591.96Z" fill="#825435"/>
<path d="M184.388 701.523C189.287 706.155 194.317 710.703 199.47 715.042C303.292 804.291 499.553 795.612 627.429 785.181C641.008 800.327 681.43 847.809 679.299 867.503C583.271 874.554 108.32 892.83 184.388 701.523Z" fill="#825435"/>
<path d="M235.974 614.281C298.245 682.959 422.146 699.107 507.342 677.327C525.344 689.552 596.886 739.58 594.624 758.981L580.014 760.901C470.604 775.462 271.784 768.62 201.617 670.442C213.533 645.908 219.98 636.604 235.974 614.281Z" fill="#825435"/>
<path d="M794.952 401.66C802.224 402.549 798.8 401.151 804.429 408.061C809.32 465.532 784.838 577.604 716.577 595.503C701.642 599.426 692.888 596.213 680.503 587.534C665.089 575.559 658.757 580.483 646.586 566.296C655.111 472.166 713.476 431.151 794.952 401.66Z" fill="#849D87"/>
<path d="M501.465 400.293C546.272 419.011 656.122 508.384 615.215 562.96C603.439 567.09 590.192 574.142 578.793 579.733C570.581 572.556 562.557 565.171 554.739 557.536C513.607 516.854 501.752 456.229 501.465 400.293Z" fill="#849D87"/>
<path d="M684.651 627.883C750.043 678.787 845.131 761.651 774.195 848.897L768.956 850.733C764.061 827.868 767.272 803.918 763.018 784.182C752.954 737.534 713.292 675.24 665.352 664.1C678.947 650.706 681.058 646.367 684.651 627.883Z" fill="#825435"/>
</svg>
