<svg width="1060" height="2159" viewBox="0 0 1060 2159" fill="none" xmlns="http://www.w3.org/2000/svg">
<path d="M275.743 0.346298C329.494 -3.6759 410.592 28.3264 463.85 45.158C468.203 46.5307 468.737 52.1551 470.913 58.08C469.722 82.3679 456.089 97.3468 440.855 114.567C441.306 140.336 440.074 167.577 439.294 193.451L468.941 244.597L433.669 278.331C415.684 351.916 420.981 364.199 342.1 353.009L357.457 398.922C365.013 403.045 372.486 407.284 379.919 411.648C485.777 474.001 470.83 563.404 501.914 682.335C525.813 697.802 548.438 711.029 572.993 725.202C609.005 653.378 623.582 560.02 675.156 499.974C700.943 469.966 782.698 481.916 781.672 421.579C719.052 397.224 727.593 394.287 717.286 328.137C715.479 316.654 710.839 299.91 707.718 288.299L735.517 256.492C740.281 206.723 734.655 198.52 729.605 154.351C726.361 125.949 776.539 92.1105 807.417 87.6545C863.016 79.6352 889.09 90.4751 935.819 122.336C993.142 109.531 1025.29 140.073 1038.35 194.135C1054.61 261.549 1009.32 316.337 1013.8 381.669C1015.89 412.654 1060.94 444.886 1059.79 479.63C1059.05 505.541 1040.82 535.816 1023.24 554.166C1030.26 644.245 992.034 830.035 947.276 913.872C938.078 931.104 916.808 931.772 897.796 934.526C905.926 973.788 922.269 1046.56 921.078 1083.4C915.781 1246.33 791.814 1347.14 744.1 1512.62C827.744 1620.72 824.746 1702.59 880.549 1820.46C888.885 1838.02 926.498 1866.19 944.196 1893.69L946.742 1897.69C947.316 1924.44 947.357 2037.97 929.536 2053.24C912.701 2041.39 909.662 1998.62 906.911 1978.51C887.037 2023.03 880.385 2084.82 821.871 2094.59C800.642 2098.09 766.355 2094.25 748.78 2081.61C746.851 2077.52 740.979 2067.8 744.182 2063.92C848.069 1936.83 796.946 1877.25 720.776 1748.99C716.752 1810.61 706.938 1879.5 735.353 1935.79C741.964 1948.89 746.933 1962.11 752.271 1975.8C743.648 2006.63 728.619 2097.05 713.221 2111.95L706.363 2108.27C696.18 2090.71 697.042 2073.52 695.933 2053.03C678.687 2092 671.132 2124.92 626.579 2136.6C595.7 2139.07 546.795 2145.2 523.43 2122C518.421 2099.18 617.545 2021.95 619.352 1937.29C621.816 1822.25 593.113 1736.01 571.391 1622.69C566.792 1598.82 555.623 1541.78 548.971 1515.7C509.592 1477.19 521.418 1463.3 521.583 1411.56C522.24 1225.05 612.946 1057.95 647.315 884.04C571.72 904.735 531.848 905.695 454.733 905.611C457.813 945.082 469.844 1119.28 464.342 1147.65C456.458 1159.63 446.152 1161.8 432.519 1167.47C460.647 1411.14 435.557 1620.6 377.988 1855.88C364.561 1910.75 358.771 1978.05 341.032 2030.17C365.71 2044.14 379.548 2049.78 406.937 2056.58C436.173 2063.8 497.726 2075.35 499.861 2112.57C470.091 2162.35 342.634 2147.24 294.385 2137.65C205.486 2175.07 193.208 2164.64 174.442 2093.34C171.239 2081.15 106.402 2099.09 89.1969 2079.15C66.243 2052.66 84.3517 2023.62 85.994 1992.07C71.9918 1965.28 77.2477 1965.03 83.8588 1927.07C98.5591 1846.29 114.533 1765.76 131.902 1685.56C142.003 1639.21 177.81 1522.34 171.815 1485C154.609 1377.35 114.286 1271.2 106.731 1160.09C96.5063 1155.46 82.9558 1150.82 75.2772 1142.4C57.5382 1122.91 83.0794 908.198 84.8449 865.689C24.5079 853.981 -3.42663 835.506 0.334602 765.025C5.37294 670.561 -1.91563 518.664 45.7944 437.606C78.3567 382.354 243.345 335.477 191.237 236.874C137.815 128.153 152.392 34.5938 275.743 0.346298Z" fill="#301E0F"/>
<path d="M168.817 374.926C272.253 379.316 331.506 417.373 415.068 467.104C455.35 529.532 478.016 705.045 501.463 790.989C540.8 792.199 628.304 787.809 647.562 830.902C636.106 891.094 425.292 905.364 403.858 848.66C374.991 772.146 339.349 687.433 319.516 607.669C303.337 542.85 332.41 494.992 384.846 461.429L385.052 461.471L379.837 458.692C336.926 465.51 313.932 491.65 303.379 533.433C297.548 557.187 296.275 581.849 299.601 606.091C309.456 682.234 354.994 784.53 382.259 858.219C389.281 877.2 420.037 894.223 428.002 909.912C435.312 976.879 440.485 1069.97 441.964 1137.39C367.148 1164.72 291.634 1163.3 215.135 1145.99C203.884 1101.26 193.003 1056.45 182.614 1011.55C172.554 1047.48 166.806 1121.2 136.584 1137.27C119.995 1140.06 106.69 1131.59 90.5115 1124.42C92.0308 979.841 130.013 848.406 87.1033 700.927C71.4587 647.073 73.1833 592.614 47.1907 538.093C45.8766 629.261 70.473 746.185 84.7215 839.919C71.0066 836.731 37.9104 829.321 34.379 816.666C13.5973 742.417 31.5872 581.966 43.7004 509.237C56.0603 435.001 113.794 410.075 168.817 374.926Z" fill="#EBE6DB"/>
<path d="M673.143 867.934C741.512 873.107 797.931 916.25 871.022 928.643C945.099 1194.47 835.627 1229.98 737.242 1459.25L721.679 1496.01C646.247 1497.97 613.11 1491.59 543.14 1472.23C546.959 1346.68 568.229 1222.34 606.294 1102.84C633.313 1015.64 657.991 959.352 673.143 867.934Z" fill="#849D87"/>
<path d="M766.11 184.102C791.692 197.695 816.247 198.517 844.539 200.224C850.739 220.965 866.507 259.093 878.292 276.55C895.949 273.989 907.035 271.36 921.818 279.425L922.721 288.459C913.482 311.595 901.533 319.122 881.372 330.158C863.838 414.057 861.497 460.838 926.704 519.424C894.799 551.139 889.009 562.838 871.681 605.005C839.488 601.416 819.778 602.969 788.817 611.293L755.023 630.969C735.764 602.226 732.89 600.006 701.929 585.094C714.453 559.759 728.784 522.161 739.912 495.078C750.711 492.115 761.264 488.347 771.489 483.804C806.966 467.878 795.592 443.485 806.145 417.558C810.662 406.468 830.906 404.87 839.241 383.44C822.529 376.564 783.889 397.067 757.774 388.184C741.554 369.483 739.501 320.699 736.339 294.217L757.609 256.919C757.938 225.576 756.789 214.035 766.11 184.102Z" fill="#EBE6DB"/>
<path d="M943.99 533.463C1042.25 530.722 987.269 697.248 976.881 749.774C970.721 780.955 945.221 887.377 920.543 899.853C857.184 931.856 743.647 839.515 674.58 840.8C673.307 840.796 672.034 840.793 670.761 840.788C663.493 807.38 658.36 795.392 631.013 777.705L626.332 774.718L627.81 770.499C682.751 755.875 694.824 798.425 727.427 813.121C760.934 828.225 848.479 832.965 886.749 835.802C891.963 803.996 916.108 689.512 910.77 665.821L896.727 662.116C877.592 626.354 914.712 558.322 943.99 533.463Z" fill="#EBE6DB"/>
<path d="M574.062 1507.28C608.965 1516.83 630.646 1518.25 665.836 1520.5C738.845 1699.33 663.947 1788.58 706.57 1945.09C692.773 1981.6 667.602 2027.25 644.977 2059.08C634.301 2067.22 617.054 2075.98 603.545 2073.77C593.895 2055.45 627.566 2006.59 633.356 1985.06C660.539 1883.96 626.211 1774.48 605.557 1674.34C594.593 1618.76 584.081 1563.06 574.062 1507.28Z" fill="#EBE6DB"/>
<path d="M689.896 606.172C718.311 614.713 729.521 637.92 746.151 662.508C799.532 631.632 809.551 625.703 870.939 625.791C871.638 660.781 871.679 676.515 885.968 708.171L869.831 795.918L866.136 805.703C851.394 812.379 838.131 809.182 822.609 809.14C756.704 808.965 719.872 775.628 666.942 743.542C650.887 680.271 652.447 660.222 689.896 606.172Z" fill="#849D87"/>
<path d="M695.933 1522.8C771.118 1521.05 817.683 1743.23 845.4 1801.35C860.757 1833.52 866.875 1844.87 888.392 1873.66C880.59 1916.13 865.027 1971.04 844.702 2008.64C833.245 2017.9 822.816 2026.16 808.567 2019.9C802.777 1996.37 837.762 1946.64 820.968 1888.22C800.477 1817.04 760.442 1779.03 729.276 1714.81C715.15 1685.69 723.157 1628.65 717.86 1595.65C713.795 1570.49 699.793 1548.88 695.933 1522.8Z" fill="#EBE6DB"/>
<path d="M404.598 115.16C407.719 117.593 417.492 123.731 418.108 130.886C420.982 164.124 426.772 203.783 430.344 237.054C430.344 237.083 416.178 252.208 416.178 252.266C410.635 273.454 405.789 307.639 396.016 325.952C384.478 347.694 354.585 317.173 332.083 322.054C330.071 331.638 329.906 337.601 323.459 344.832C315.575 344.423 249.383 319.409 218.094 313.985C220.311 302.094 220.557 301.747 227.62 291.775C232.342 290.369 239.898 287.945 244.661 288.062C277.264 288.867 275.499 263.628 299.726 239.765C308.185 244.647 311.346 247.397 318.696 253.43C325.389 246.617 299.767 222.049 302.189 191.987C310.155 178.13 305.474 182.657 320.503 175.406C337.256 181.585 343.17 194.599 355.365 210.362C381.193 174.517 392.69 158.019 404.598 115.16Z" fill="#EBE6DB"/>
<path d="M200.107 1183.16L208.238 1190.88C226.223 1264.11 242.771 1337.67 257.882 1411.52C283.792 1536.53 278.495 1524.72 254.638 1648.89C241.868 1716.11 229.713 1783.45 218.175 1850.92C211.153 1892.9 199.82 2001.59 191.279 2034.17L183.395 2029.54C169.475 2004.88 203.31 1870.82 204.912 1837.15C209.346 1743.81 260.51 1606.25 261.536 1517.79C262.563 1428.46 194.605 1270.83 200.107 1183.16Z" fill="#EBE6DB"/>
<path d="M620.748 672.164C627.728 685.487 627.687 694.278 629.494 709.211L637.953 741.022C574.594 756.99 594.837 771.902 516.819 767.425L507.375 714.285C528.357 728.546 557.922 744.385 580.424 757.277C596.562 731.513 610.071 700.599 620.748 672.164Z" fill="#EBE6DB"/>
<path d="M620.75 672.166C631.713 636.892 672.406 528.154 702.423 509.699L706.857 511.339C685.915 599.069 629.167 618.717 629.496 709.213C627.689 694.279 627.73 685.488 620.75 672.166Z" fill="#EBE6DB"/>
<path d="M190.375 338.265C220.925 336.738 327.03 355.823 327.441 391.563C271.596 362.465 218.831 366.082 188.938 350.707L190.375 338.265Z" fill="#EBE6DB"/>
</svg>
