<svg width="1060" height="2159" viewBox="0 0 1060 2159" fill="none" xmlns="http://www.w3.org/2000/svg">
<path d="M275.743 0.346299C329.493 -3.67589 410.591 28.3261 463.849 45.1578C468.201 46.5306 468.737 52.1559 470.913 58.0807C469.721 82.367 456.088 97.3477 440.854 114.567C441.306 140.335 440.074 167.578 439.293 193.451L468.941 244.596L433.668 278.331C415.684 351.914 420.979 364.2 342.1 353.009L357.457 398.922C365.012 403.045 372.486 407.284 379.918 411.648C485.776 474.001 470.83 563.405 501.914 682.336C525.812 697.803 548.438 711.029 572.993 725.203C609.004 653.379 623.583 560.02 675.156 499.974C700.943 469.967 782.696 481.914 781.671 421.579C719.052 397.224 727.592 394.285 717.286 328.137C715.479 316.655 710.839 299.91 707.718 288.298L735.517 256.493C740.28 206.725 734.655 198.519 729.604 154.351C726.36 125.95 776.539 92.1113 807.417 87.6549C863.015 79.6357 889.09 90.4758 935.819 122.337C993.142 109.531 1025.29 140.073 1038.35 194.135C1054.61 261.549 1009.32 316.338 1013.8 381.67C1015.89 412.653 1060.94 444.887 1059.79 479.63C1059.05 505.541 1040.81 535.817 1023.24 554.167C1030.26 644.246 992.032 830.037 947.275 913.873C938.076 931.103 916.806 931.772 897.795 934.526C905.926 973.789 922.268 1046.56 921.078 1083.4C915.78 1246.33 791.813 1347.14 744.099 1512.62C827.742 1620.72 824.746 1702.59 880.549 1820.46C888.887 1838.03 926.499 1866.19 944.196 1893.69L946.741 1897.69C947.315 1924.44 947.356 2037.97 929.536 2053.24C912.701 2041.39 909.662 1998.62 906.911 1978.51C887.037 2023.03 880.383 2084.82 821.871 2094.59C800.642 2098.09 766.355 2094.25 748.78 2081.61C746.85 2077.52 740.981 2067.8 744.181 2063.92C848.068 1936.83 796.946 1877.25 720.776 1748.99C716.752 1810.61 706.938 1879.5 735.353 1935.79C741.964 1948.89 746.932 1962.11 752.27 1975.8C743.647 2006.64 728.618 2097.05 713.22 2111.95L706.363 2108.27C696.18 2090.71 697.042 2073.52 695.933 2053.03C678.688 2092 671.13 2124.92 626.579 2136.61C595.7 2139.07 546.795 2145.2 523.43 2122C518.421 2099.18 617.544 2021.95 619.352 1937.29C621.816 1822.25 593.112 1736.01 571.39 1622.69C566.791 1598.82 555.622 1541.78 548.97 1515.7C509.592 1477.19 521.418 1463.3 521.583 1411.56C522.239 1225.05 612.945 1057.95 647.315 884.04C571.72 904.735 531.847 905.694 454.733 905.611C457.813 945.086 469.843 1119.28 464.341 1147.65C456.457 1159.63 446.15 1161.8 432.518 1167.47C460.645 1411.14 435.557 1620.6 377.988 1855.88C364.561 1910.75 358.771 1978.05 341.032 2030.17C365.709 2044.14 379.548 2049.78 406.936 2056.58C436.172 2063.8 497.726 2075.35 499.861 2112.57C470.089 2162.35 342.633 2147.24 294.385 2137.65C205.487 2175.07 193.207 2164.64 174.442 2093.34C171.239 2081.15 106.404 2099.09 89.1968 2079.15C66.2435 2052.66 84.3507 2023.61 85.9937 1992.07C71.9918 1965.29 77.247 1965.03 83.8579 1927.07C98.558 1846.29 114.533 1765.76 131.902 1685.57C142.003 1639.21 177.807 1522.34 171.814 1485C154.609 1377.35 114.286 1271.2 106.73 1160.09C96.5058 1155.46 82.9556 1150.82 75.2769 1142.4C57.5382 1122.91 83.0779 908.203 84.8443 865.689C24.5081 853.981 -3.42603 835.504 0.334487 765.025C5.37273 670.562 -1.91525 518.664 45.7935 437.606C78.3555 382.355 243.342 335.476 191.237 236.875C137.815 128.154 152.393 34.5941 275.743 0.346299ZM574.062 1507.28C584.081 1563.06 594.593 1618.76 605.556 1674.34C626.21 1774.48 660.539 1883.96 633.356 1985.06C627.566 2006.59 593.895 2055.45 603.544 2073.77C617.054 2075.98 634.3 2067.22 644.976 2059.08C667.601 2027.25 692.773 1981.6 706.57 1945.09C663.947 1788.58 738.844 1699.33 665.835 1520.5C630.645 1518.25 608.965 1516.83 574.062 1507.28ZM200.107 1183.16C194.605 1270.83 262.562 1428.46 261.536 1517.79C260.509 1606.25 209.346 1743.81 204.912 1837.15C203.31 1870.82 169.475 2004.88 183.394 2029.54L191.279 2034.17C199.82 2001.59 211.153 1892.89 218.174 1850.92C229.713 1783.45 241.867 1716.11 254.637 1648.89C278.494 1524.72 283.791 1536.53 257.881 1411.52C242.77 1337.67 226.223 1264.11 208.238 1190.88L200.107 1183.16ZM695.933 1522.8C699.793 1548.88 713.795 1570.49 717.86 1595.65C723.157 1628.65 715.15 1685.69 729.275 1714.81C760.441 1779.03 800.477 1817.04 820.967 1888.22C837.762 1946.63 802.776 1996.37 808.566 2019.9C822.815 2026.16 833.245 2017.9 844.702 2008.64C865.027 1971.04 880.589 1916.13 888.391 1873.66C866.875 1844.87 860.756 1833.52 845.399 1801.35C817.682 1743.23 771.118 1521.05 695.933 1522.8ZM976.88 749.774C987.269 697.247 1042.25 530.721 943.989 533.463C914.712 558.322 877.592 626.353 896.726 662.115L910.77 665.82C916.107 689.514 891.963 803.995 886.749 835.801C848.479 832.964 760.933 828.224 727.426 813.12C694.823 798.424 682.75 755.874 627.809 770.499L626.332 774.717L631.012 777.704C658.359 795.391 663.492 807.379 670.76 840.788C672.033 840.792 673.307 840.795 674.58 840.799C743.646 839.514 857.183 931.854 920.542 899.852C945.221 887.376 970.72 780.957 976.88 749.774ZM620.747 672.164C610.071 700.598 596.561 731.513 580.424 757.277C557.922 744.384 528.357 728.545 507.375 714.284L516.819 767.423C594.837 771.9 574.594 756.989 637.953 741.021L629.494 709.211C627.687 694.278 627.727 685.486 620.747 672.164ZM702.422 509.699C672.406 528.154 631.713 636.891 620.75 672.165C627.73 685.487 627.689 694.279 629.496 709.212C629.167 618.716 685.915 599.067 706.857 511.338L702.422 509.699ZM766.11 184.102C756.789 214.034 757.937 225.577 757.609 256.92L736.338 294.216C739.5 320.699 741.554 369.484 757.773 388.184C783.889 397.067 822.528 376.564 839.241 383.44C830.905 404.868 810.662 406.468 806.145 417.558C795.593 443.485 806.965 467.878 771.489 483.804C761.264 488.348 750.71 492.116 739.911 495.078C728.783 522.161 714.453 559.759 701.929 585.093C732.89 600.005 735.764 602.226 755.022 630.969L788.817 611.293C819.778 602.969 839.487 601.416 871.68 605.005C889.008 562.839 894.799 551.137 926.704 519.423C861.498 460.839 863.837 414.056 881.371 330.158C901.532 319.122 913.482 311.594 922.721 288.459L921.817 279.425C907.035 271.36 895.948 273.989 878.292 276.55C866.507 259.093 850.739 220.966 844.539 200.224C816.247 198.518 791.691 197.696 766.11 184.102ZM404.598 115.161C392.69 158.018 381.192 174.518 355.365 210.363C343.169 194.6 337.255 181.585 320.502 175.406C305.475 182.657 310.155 178.131 302.189 191.987C299.768 222.048 325.388 246.617 318.696 253.43C311.346 247.397 308.183 244.647 299.725 239.765C275.5 263.627 277.263 288.867 244.661 288.062C239.898 287.945 232.342 290.369 227.62 291.775C220.558 301.745 220.31 302.094 218.093 313.985C249.383 319.409 315.574 344.423 323.459 344.833C329.906 337.602 330.071 331.637 332.083 322.054C354.584 317.173 384.477 347.691 396.016 325.952C405.788 307.64 410.634 273.454 416.177 252.266C416.211 252.173 430.181 237.256 430.343 237.054C426.771 203.784 420.981 164.123 418.107 130.886C417.491 123.732 407.72 117.594 404.598 115.161Z" fill="#301E0F"/>
<path d="M168.817 374.926C272.253 379.316 331.506 417.373 415.067 467.104C455.349 529.532 478.015 705.045 501.462 790.989C540.8 792.199 628.304 787.809 647.562 830.902C636.106 891.094 425.292 905.364 403.857 848.66C374.99 772.146 339.348 687.433 319.515 607.669C303.337 542.85 332.409 494.992 384.846 461.429L385.051 461.471L379.836 458.692C336.926 465.51 313.931 491.65 303.378 533.433C297.547 557.187 296.274 581.849 299.6 606.091C309.455 682.234 354.993 784.53 382.259 858.219C389.28 877.2 420.036 894.223 428.002 909.912C435.311 976.879 440.485 1069.97 441.963 1137.39C367.148 1164.72 291.634 1163.3 215.135 1145.99C203.884 1101.26 193.003 1056.45 182.614 1011.55C172.554 1047.48 166.805 1121.2 136.583 1137.27C119.994 1140.06 106.69 1131.59 90.511 1124.42C92.0303 979.841 130.013 848.406 87.1028 700.927C71.4582 647.073 73.1829 592.614 47.1902 538.093C45.8761 629.261 70.4725 746.185 84.721 839.919C71.0061 836.731 37.9099 829.321 34.3785 816.666C13.5968 742.417 31.5867 581.966 43.6999 509.237C56.0598 435.001 113.793 410.075 168.817 374.926Z" fill="#EBE6DB"/>
<path d="M673.143 867.934C741.511 873.107 797.931 916.25 871.022 928.643C945.098 1194.47 835.626 1229.98 737.241 1459.25L721.678 1496.01C646.247 1497.97 613.11 1491.59 543.14 1472.23C546.958 1346.68 568.229 1222.34 606.293 1102.84C633.312 1015.64 657.991 959.352 673.143 867.934Z" fill="#849D87"/>
<path d="M689.896 606.172C718.311 614.713 729.521 637.92 746.151 662.508C799.532 631.632 809.551 625.703 870.939 625.791C871.637 660.781 871.678 676.515 885.968 708.171L869.831 795.918L866.135 805.703C851.394 812.379 838.13 809.182 822.609 809.14C756.704 808.965 719.871 775.628 666.942 743.542C650.887 680.271 652.447 660.222 689.896 606.172Z" fill="#849D87"/>
<path d="M190.374 338.265C220.925 336.738 327.029 355.823 327.44 391.563C271.595 362.465 218.83 366.082 188.937 350.707L190.374 338.265Z" fill="#EBE6DB"/>
</svg>
