<svg width="1285" height="2003" viewBox="0 0 1285 2003" fill="none" xmlns="http://www.w3.org/2000/svg">
<path d="M624.422 0.108376C673.479 -2.01957 719.642 27.229 715.055 84.3076C712.037 121.818 686.492 132.041 660.754 152.402C655.851 166.463 658.894 183.904 660.101 199.426C731.721 231.303 921.192 310.579 995.37 350.885C998.881 352.804 996.561 358.521 995.538 363.819L985.708 369.995C970.109 370.704 887.433 332.485 861.154 322.805C861.092 372.457 861.807 422.15 863.293 471.761C961.879 583.331 875.982 688.811 851.472 808.81C847.271 829.338 848.901 862.258 849.533 884.122C887.52 939.49 942.818 989.601 984.574 1050.98C1103.84 1224.59 1188.28 1419.82 1245.79 1623.02C1255.48 1674.42 1306.98 1787.04 1273.97 1832.56C1244.05 1873.82 1145.47 1875.28 1098.69 1879.71C1074.14 1981.18 1020.87 1963.41 935.132 1963.91C911.349 1964.62 879.114 1960.15 856.197 1963.87C727.964 1984.48 672.764 2024.87 538.753 1987.06C494.18 1974.88 466.114 1967.5 419.012 1962.82C360.548 1957.06 286.052 1981.22 233.891 1954.94C201.965 1938.83 194.816 1910.42 185.918 1879.42C-28.7957 1862.14 -23.1043 1849.29 33.344 1645.59C96.6151 1417.32 187.63 1206.36 328.696 1015.76C361.915 970.867 403.212 932.773 435.367 889.129L438.221 885.207C439.884 841.855 438.262 810.478 424.157 768.629C388.462 662.733 332.797 571.607 419.176 475.182L424.038 325.308C386.236 339.786 338.661 364.278 299.652 370.954C295.365 371.663 294.536 368.784 289.358 364.111L288.894 354.432C302.101 336.323 573.263 232.388 627.715 196.422L628.289 128.16C675.437 114.016 711.506 79.2596 654.914 30.8594C630.605 10.0807 591.342 89.6899 565.896 77.7988C554.785 42.9592 597.095 12.6674 624.422 0.108376ZM454.499 916.168C240.532 1135.93 87.6362 1480.37 30.1076 1791C19.8983 1846.12 158.153 1845.95 197.807 1849.46C217.316 1685.77 318.989 1314.26 410.776 1190.34C381.954 1266.99 352.57 1343.72 327.641 1421.74C303.422 1497.6 203.707 1844.33 229.888 1906.96C234.898 1918.93 246.983 1925.9 258.649 1929.86C310.116 1947.47 374.025 1926.94 427.813 1932.11C503.486 1939.37 574.22 1977.8 650.46 1974.17C710.957 1971.29 765.205 1945.38 824.113 1936.2C879.382 1929.9 929.015 1934.08 984.815 1935.37C1083.42 1937.66 1065.07 1877.54 1053.61 1803.6C1020.65 1590.77 953.73 1398.59 880.208 1197.39C969.219 1315.1 1071.51 1693.95 1089.91 1848.75C1139.75 1844.91 1271.7 1850.63 1253.45 1772.44C1179.58 1455.87 1061.03 1154.54 833.845 918.505C727.227 950.048 557.648 959.186 454.499 916.168ZM466.45 492.918C336.423 508.857 453.963 751.484 469.062 827.297C603.294 857.714 683.636 861.595 818.242 827.84C820.85 812.151 823.277 795.461 826.673 779.981C850.111 705.629 897.53 603.403 867.168 527.173C845.676 473.182 749.92 495.129 712.935 518.87C686.404 535.393 665.528 555.003 643.195 577.451C583.876 524.879 550.234 493.335 466.45 492.918ZM639.533 224.418C579.435 258.048 517.131 287.422 453.066 312.373L450.758 461.788C525.742 460.87 552.588 462.289 611.603 511.648C616.567 515.821 639.148 533.345 644.297 534.973C708.892 475.432 746.919 461.705 833.105 462.289C830.222 411.677 828.63 360.982 828.338 310.287C765.792 280.788 702.851 252.165 639.533 224.418Z" fill="#301E0F"/>
</svg>
