<svg width="1285" height="2003" viewBox="0 0 1285 2003" fill="none" xmlns="http://www.w3.org/2000/svg">
<path d="M624.422 0.108384C673.479 -2.01964 719.641 27.229 715.054 84.3077C712.036 121.818 686.491 132.041 660.754 152.402C655.851 166.463 658.894 183.904 660.101 199.426C731.721 231.303 921.191 310.579 995.37 350.885C998.881 352.804 996.561 358.521 995.538 363.82L985.708 369.995C970.108 370.704 887.434 332.485 861.154 322.805C861.092 372.456 861.807 422.15 863.293 471.761C961.879 583.331 875.981 688.811 851.471 808.81C847.271 829.338 848.901 862.258 849.533 884.122C887.52 939.49 942.818 989.601 984.575 1050.98C1103.84 1224.59 1188.28 1419.82 1245.79 1623.02C1255.47 1674.42 1306.98 1787.04 1273.97 1832.56C1244.05 1873.82 1145.47 1875.28 1098.69 1879.71C1074.14 1981.18 1020.87 1963.41 935.132 1963.91C911.348 1964.62 879.114 1960.15 856.197 1963.87C727.964 1984.48 672.764 2024.87 538.753 1987.06C494.18 1974.88 466.114 1967.5 419.012 1962.82C360.547 1957.06 286.052 1981.22 233.891 1954.94C201.965 1938.83 194.816 1910.42 185.918 1879.42C-28.7962 1862.14 -23.1041 1849.29 33.3442 1645.59C96.6154 1417.32 187.63 1206.36 328.695 1015.76C361.915 970.867 403.211 932.773 435.367 889.129L438.221 885.207C439.884 841.855 438.262 810.478 424.157 768.629C388.461 662.733 332.797 571.607 419.176 475.182L424.038 325.308C386.236 339.786 338.661 364.278 299.652 370.954C295.365 371.663 294.536 368.784 289.357 364.111L288.893 354.432C302.099 336.323 573.262 232.388 627.714 196.422L628.289 128.16C675.437 114.016 711.506 79.2595 654.914 30.8592C630.605 10.0806 591.342 89.6906 565.895 77.7991C554.784 42.9594 597.095 12.6675 624.422 0.108384Z" fill="#301E0F"/>
<path d="M454.499 916.168C557.647 959.186 727.226 950.048 833.844 918.505C1061.03 1154.54 1179.58 1455.87 1253.45 1772.44C1271.7 1850.63 1139.75 1844.91 1089.91 1848.75C1071.51 1693.95 969.218 1315.09 880.208 1197.39C953.73 1398.59 1020.65 1590.77 1053.61 1803.6C1065.07 1877.54 1083.42 1937.66 984.814 1935.37C929.015 1934.08 879.382 1929.9 824.113 1936.2C765.205 1945.38 710.957 1971.29 650.46 1974.17C574.22 1977.8 503.486 1939.37 427.812 1932.11C374.025 1926.94 310.116 1947.47 258.648 1929.86C246.982 1925.9 234.898 1918.93 229.888 1906.95C203.707 1844.33 303.422 1497.6 327.641 1421.74C352.57 1343.72 381.954 1266.99 410.776 1190.34C318.989 1314.26 217.315 1685.77 197.806 1849.46C158.152 1845.95 19.8976 1846.12 30.1074 1791C87.636 1480.36 240.532 1135.93 454.499 916.168Z" fill="#EBE6DB"/>
<path d="M466.45 492.918C550.233 493.335 583.876 524.879 643.194 577.452C665.528 555.004 686.404 535.393 712.934 518.871C749.919 495.129 845.676 473.182 867.168 527.173C897.53 603.404 850.111 705.628 826.673 779.981C823.277 795.461 820.85 812.151 818.243 827.839C683.636 861.595 603.294 857.714 469.061 827.297C453.963 751.484 336.422 508.857 466.45 492.918Z" fill="#EBE6DB"/>
<path d="M639.533 224.418C702.851 252.165 765.791 280.787 828.337 310.287C828.629 360.982 830.222 411.677 833.105 462.289C746.919 461.704 708.892 475.432 644.296 534.972C639.147 533.345 616.567 515.821 611.603 511.648C552.588 462.289 525.742 460.87 450.758 461.788L453.065 312.373C517.131 287.422 579.434 258.048 639.533 224.418Z" fill="#EBE6DB"/>
</svg>
