<svg width="1207" height="1308" viewBox="0 0 1207 1308" fill="none" xmlns="http://www.w3.org/2000/svg">
<path d="M644.991 201.988C694.278 134.27 761.037 62.8792 835.011 18.6931C960.004 -55.9101 1097.2 108.776 1055.21 230.987C1037.6 282.224 984.452 318.107 936.455 340.847C999.641 342.057 1100.44 337.175 1159.83 347.272C1223.88 358.204 1208.04 561.068 1195.21 604.879C1189.47 624.489 1167.8 632.125 1150.59 639.093C1146.75 773.111 1150.83 910.969 1149.29 1045.36C1148.62 1104.82 1151.6 1169.41 1146.82 1228.45C1144.28 1259.7 1127.65 1277.39 1104.45 1295.54C1082.63 1304.43 1069.23 1306.39 1045.45 1306.47C851.559 1307.31 657.109 1306.35 463.225 1306.6L247.32 1306.85C219.989 1306.89 161.606 1308.6 137.034 1305.47C117.115 1302.97 98.5304 1293.96 84.0807 1279.81C42.7968 1238.76 55.9613 1083.67 56.0681 1023.75L55.76 642.889C23.8381 623.153 0.0589072 609.718 1.70145 566.075C2.94969 515.254 -11.3768 396.924 25.7765 359.581C53.0829 332.126 235.362 340.596 276.544 341.848C92.3877 255.144 105.499 69.9721 283.237 1.46049C396.811 -6.30022 501.311 114.074 561.007 201.904C595.93 198.483 610.002 198.442 644.991 201.988Z" fill="#301E0F"/>
<path d="M87.8966 637.93C140.85 637.304 193.808 637.721 246.746 639.056C242.085 668.972 223.546 742.282 242.545 764.771C269.195 771.28 307.066 745.453 332.295 731.809C349.566 754.507 392.115 816.176 421.573 808.165C446.198 774.91 419.031 659.751 447.039 638.013C467.033 638.305 460.972 635.718 475.344 644.855C490.816 671.559 482.53 728.095 482.821 761.058L483.49 1061.97L483.375 1274.64L272.451 1276.6C229.286 1276.98 182.758 1278.98 140.136 1274.1C112.218 1270.93 105.126 1257.7 88.9599 1235.84C85.5025 1166.41 87.1203 1083.42 87.1203 1012.78L87.8966 637.93Z" fill="#A6A79F"/>
<path d="M956.362 637.925C1010.41 638.635 1064.46 638.426 1118.5 637.258L1118.8 1043.19L1119.45 1172.21C1119.38 1301.76 1050.9 1276.35 948.995 1276.43C873.359 1277.02 797.714 1276.27 722.102 1274.26L724.356 638.259C741.04 638.009 748.41 637.884 765.41 640.512C788.031 669.427 755.309 799.065 793.538 811.415C819.707 803.738 854.047 754.336 872.291 731.471C897.68 745.282 943.751 776.867 970.274 762.556C982.67 739.941 963.187 665.046 956.362 637.925Z" fill="#A6A79F"/>
<path d="M646.571 370.512C663.883 375.06 682.451 404.267 692.039 418.662L692.129 1275.18C650.755 1274.64 607.044 1275.76 565.473 1276.06L511.764 1276.72L511.595 724.502C511.493 647.937 507.304 485.921 516.018 413.488C531.445 391.332 534.315 387.577 555.269 370.971C590.94 372.89 610.9 372.89 646.571 370.512Z" fill="#CA6C55"/>
<path d="M57.5586 372.808C157.742 368.427 280.855 371.348 383.014 371.556C334.63 422.544 307.525 475.116 278.884 538.245C269.268 560.359 262.394 583.266 255.023 606.256C197.942 606.214 143.054 607.466 86.2323 610.804C23.0662 611.972 30.0837 537.494 31.4718 494.101C33.0446 445.075 20.266 408.691 57.5586 372.808Z" fill="#A6A79F"/>
<path d="M826.93 373.062C876.878 369.975 1117.93 363.549 1153.39 380.197C1162.87 384.662 1166.71 389.084 1170.17 398.89C1178.18 421.505 1174.23 579.556 1164.55 600.085C1135.43 611.434 993.404 607.887 952.892 607.845C931.375 517.762 887.476 441.407 826.93 373.062Z" fill="#A6A79F"/>
<path d="M677.199 344.105C856.592 360.42 932.426 572.713 940.121 730.723L899.223 708.86C849.049 685.828 837.346 723.588 809.522 763.268C804.472 650.321 791.131 536.872 738.333 432.853C726.416 409.404 681.334 361.463 677.199 344.105Z" fill="#CA6C55"/>
<path d="M513.794 344.016L525.578 345.1C527.217 354.655 514.2 364.586 507.269 373.139C490.15 394.502 475.47 417.743 463.5 442.485C415.339 539.995 402.416 654.654 400.133 762.428C379.405 738.645 357.642 710.69 328.866 698.298C308.454 707.435 287.512 718.2 267.379 728.172C273.887 602.916 326.55 450.163 430.684 374.766C457.013 355.699 482.993 350.775 513.794 344.016Z" fill="#CA6C55"/>
<path d="M297.808 30.5427C382.249 27.2046 493.4 151.126 538.023 217.301L519.257 258.441L464.546 219.471C380.877 150.584 290.811 106.356 181.109 128.637C213.955 77.191 239.266 47.6913 297.808 30.5427Z" fill="#CA6C55"/>
<path d="M888.753 30.8779C960.989 28.2075 991.482 73.5201 1025.54 130.766C913.559 109.236 853 141.823 761.246 205.161C737.463 222.685 715.129 240.751 692.118 259.277C685.096 245.216 677.405 232.949 669.242 219.597C732.56 146.413 791.271 57.3311 888.753 30.8779Z" fill="#CA6C55"/>
<path d="M231.786 152.254C239.251 152.295 251.065 151.044 256.009 155.967C297.535 197.566 318.678 234.2 371.722 265.327C409.454 287.482 482.743 286.397 512.644 304.506L512.467 310.514C498.629 319.109 472.645 322.489 455.797 325.618C354.226 339.93 221.27 319.193 176.919 211.085C160.884 171.989 205.055 157.845 231.786 152.254Z" fill="#CA6C55"/>
<path d="M953.836 150.962C1118.44 147.416 1005.95 341.183 777.293 329.668C754.618 326.705 709.014 322.95 693.078 308.221C696.918 297.456 739.696 293.785 754.889 290.405C852.535 268.708 897.864 228.945 953.836 150.962Z" fill="#CA6C55"/>
<path d="M578.69 231.529C667.758 225.395 702.266 302.46 628.81 344.685C544.177 358.579 509.413 274.171 578.69 231.529Z" fill="#CA6C55"/>
<path d="M300.652 162.77C353.512 176.205 431.267 225.69 471.024 263.951C400.007 254.229 343.295 221.559 300.652 162.77Z" fill="#EBE6DB"/>
<path d="M902.927 164.02C904.266 165.355 905.6 166.648 906.939 167.983C855.989 223.226 819.751 241.251 750.573 261.237L745.055 259.026L746.04 253.769C779.321 221.224 859.877 181.21 902.927 164.02Z" fill="#EBE6DB"/>
<path d="M480.121 479.457C485.812 495.938 483.972 581.098 481.973 601.876C473.6 607.885 458.945 606.257 446.737 606.8C441.822 583.309 471.021 502.28 480.121 479.457Z" fill="#A6A79F"/>
<path d="M723.652 479.082C742.676 502.406 755.792 575.423 762.727 606.717C748.22 607.259 741.716 608.094 727.327 604.172C722.601 592.614 723.71 496.189 723.652 479.082Z" fill="#A6A79F"/>
</svg>
