<svg width="1402" height="953" viewBox="0 0 1402 953" fill="none" xmlns="http://www.w3.org/2000/svg">
<path d="M78.5239 2.80193C127.581 -0.786458 210.543 1.67538 262.319 1.67538L616.481 1.55064H1047.22C1125.69 1.59222 1274.26 -7.2951 1352.89 17.0304C1364.39 20.5769 1393.87 61.0493 1395.88 75.903C1402.95 127.975 1400.32 185.054 1400.07 238.336L1399.99 476.457L1399.41 723.132C1399.21 815.676 1423.15 924.702 1311.71 950.946C1246.17 953.742 1160.47 950.988 1092.72 951.155L567.904 950.362C484.507 950.237 400.411 952.073 317.342 950.863C233.945 949.653 148.478 957.414 66.4191 945.064C50.446 942.644 20.5523 915.315 14.2862 899.668C-0.611367 862.408 1.32326 820.099 0.781256 780.628C0.625157 560.74 2.12373 340.811 0.00896043 120.924C-0.565832 61.3 26.5227 25.2079 78.5239 2.80193Z" fill="#301E0F"/>
<path d="M94.2894 32.097C475.187 17.9525 870.165 42.361 1252.41 31.5546C1324.11 29.5519 1370.39 40.6087 1369.73 125.351C1367.8 373.235 1375.15 624.124 1368.09 871.967C1351.42 899.505 1346.12 906.264 1317.37 919.616C1265.51 922.662 1191.68 920.283 1138.59 920.283L803.685 920.45L362.389 920.659C278.91 920.742 195.422 921.034 111.959 920.075C76.4685 919.658 44.329 912.606 36.8312 871.299C26.7627 815.806 30.4007 755.264 30.4416 698.685L31.2793 419.007C31.3244 320.704 28.0477 222.026 30.2693 123.807C31.2916 78.6195 48.554 42.9453 94.2894 32.097Z" fill="#EBE6DB"/>
<path d="M289.337 201.661C318.081 200.701 370.846 196.404 396.14 205.249C478.716 234.206 475.267 324.957 403.86 363.426C422.379 389.337 465.617 442.202 462.456 472.077C452.436 482.466 457.117 479.378 440.118 481.256C428.21 477.334 427.594 474.204 420.121 462.897C403.039 432.856 385.341 403.148 367.109 373.816L320.668 374.316C321.325 403.857 331.262 468.905 301.327 481.298C287.695 477.876 292.663 480.755 283.26 469.865C277.388 436.527 275.458 228.907 289.337 201.661Z" fill="#301E0F"/>
<path d="M320.505 239.674C383.494 238.213 436.916 246.016 402.958 325.417C379.799 340.438 348.016 336.85 320.094 336.766L320.505 239.674Z" fill="#EBE6DB"/>
<path d="M954.424 199.161C999.592 197.117 1053.67 196.616 1089.4 228.118C1107.46 243.723 1118.43 266.212 1119.78 290.287C1123.4 360.969 1061.14 386.003 1003.37 387.922C990.107 388.34 992.981 386.212 984.481 393.096C973.887 424.223 994.172 462.15 969.617 482.345C955.697 482.47 959.064 484.514 949.538 477.672C945.021 466.322 940.052 441.037 941.161 429.563C945.554 383.541 929.458 229.37 954.424 199.161Z" fill="#301E0F"/>
<path d="M982.43 242.721C1043.57 241.887 1107.88 258.118 1060.82 332.721C1033.14 353.249 1018.89 349.16 983.703 348.242C982.266 314.821 982.759 276.518 982.43 242.721Z" fill="#EBE6DB"/>
<path d="M555.343 198.828C591.929 194.155 639.397 194.78 659.476 233.96C661.612 238.174 659.887 238.633 658.203 243.807C617.921 260.747 561.543 212.347 531.609 261.206C533.949 310.691 654.549 325.169 666.334 383.458C678.242 442.581 637.96 472.748 588.932 486.183C585.072 486.1 581.171 485.975 577.311 485.766C550.826 484.181 512.104 474.835 493.749 454.097C485.742 430.773 495.515 412.498 520.235 425.308C556.575 444.125 601.374 462.609 625.354 413.208C625.436 342.485 469.441 348.785 495.926 255.698C505.041 223.821 527.995 212.18 555.343 198.828Z" fill="#301E0F"/>
<path d="M1214.84 467.906C1228.19 469.45 1229.62 470.076 1239.85 478.963C1242.44 487.642 1244.86 494.944 1238.45 503.539C1195.13 560.785 1152.43 618.907 1109.97 676.737C1090.38 703.44 1043.86 775.916 1015.44 783.927C987.768 774.372 962.35 731.688 944.406 706.737C933.278 692.008 930.609 688.336 922.602 671.187C923.629 655.081 923.67 647.738 940.3 645.068C967.319 655.749 998.773 704.859 1017.17 729.643C1077.53 650.158 1151.36 539.255 1214.84 467.906Z" fill="#CA6C55"/>
<path d="M882.566 195.07C898.498 200.328 901.537 202.08 907.901 216.099C907.203 232.747 821.342 460.312 808.983 476.084C769.809 493.066 719.959 322.079 706.573 288.283C697.95 265.459 670.069 212.553 695.856 196.698C727.104 206.837 782.826 373.943 797.567 411.703C822.615 359.965 853.083 236.378 882.566 195.07Z" fill="#301E0F"/>
<path d="M232.426 729.602C300.713 727.015 770.753 725.388 798.921 735.402C807.38 738.448 808.325 739.199 811.938 747.294L804.3 757.725C790.627 763.107 759.419 761.813 743.2 761.939C567.987 762.565 392.774 762.064 217.607 761.313C200.262 761.229 170.636 764.317 158.021 754.303L156.863 742.495L163.08 735.152C180.786 727.641 212.125 729.644 232.426 729.602Z" fill="#301E0F"/>
<path d="M157.191 603.135C215.615 601.049 792.844 600.756 805.573 606.723C812.02 618.531 809.843 615.611 808.488 631.758C664.523 633.761 520.559 634.345 376.554 633.552C323.255 633.344 212.695 636.389 164.307 630.214C155.224 620.033 158 619.407 157.191 603.135Z" fill="#301E0F"/>
</svg>
