<svg width="1402" height="953" viewBox="0 0 1402 953" fill="none" xmlns="http://www.w3.org/2000/svg">
<path d="M1047.22 1.55072C1125.69 1.59229 1274.26 -7.2952 1352.89 17.0302C1364.39 20.5767 1393.87 61.0495 1395.88 75.9033C1402.95 127.975 1400.32 185.054 1400.07 238.336L1399.99 476.457L1399.41 723.132C1399.21 815.676 1423.15 924.702 1311.71 950.946C1246.17 953.742 1160.47 950.988 1092.72 951.155L567.904 950.362C484.507 950.237 400.411 952.073 317.342 950.863C233.945 949.653 148.478 957.415 66.4191 945.064C50.446 942.644 20.5525 915.315 14.2863 899.668C-0.611225 862.408 1.32342 820.099 0.78142 780.628C0.62532 560.74 2.12372 340.811 0.00895858 120.924C-0.565771 61.2998 26.5224 25.2076 78.5236 2.8017C127.581 -0.786697 210.543 1.67572 262.319 1.67572L616.481 1.55072H1047.22ZM1252.41 31.5546C870.165 42.3611 475.187 17.9521 94.2892 32.0966C48.554 42.9449 31.2912 78.6192 30.2687 123.807C28.0472 222.026 31.3246 320.704 31.2795 419.007L30.4416 698.685C30.4007 755.264 26.7627 815.806 36.8312 871.299C44.329 912.606 76.4682 919.658 111.958 920.075C195.421 921.035 278.909 920.743 362.389 920.659L803.685 920.45L1138.59 920.283C1191.68 920.283 1265.51 922.662 1317.37 919.616C1346.12 906.264 1351.41 899.505 1368.09 871.967C1375.15 624.124 1367.8 373.235 1369.73 125.351C1370.39 40.6086 1324.11 29.5519 1252.41 31.5546Z" fill="#301E0F"/>
<path d="M289.337 201.661C318.081 200.702 370.845 196.403 396.14 205.249C478.716 234.206 475.267 324.957 403.86 363.427C422.379 389.338 465.617 442.202 462.455 472.076C452.436 482.466 457.117 479.378 440.117 481.256C428.209 477.334 427.593 474.205 420.12 462.898C403.039 432.856 385.34 403.148 367.109 373.815L320.667 374.316C321.324 403.857 331.262 468.906 301.327 481.298C287.695 477.876 292.663 480.755 283.26 469.865C277.388 436.528 275.458 228.907 289.337 201.661ZM402.957 325.417C436.916 246.016 383.494 238.214 320.504 239.674L320.094 336.767C348.016 336.85 379.798 340.438 402.957 325.417Z" fill="#301E0F"/>
<path d="M954.424 199.161C999.593 197.117 1053.67 196.616 1089.4 228.118C1107.46 243.723 1118.43 266.212 1119.78 290.287C1123.4 360.968 1061.15 386.004 1003.37 387.923C990.107 388.34 992.982 386.212 984.482 393.097C973.888 424.223 994.172 462.15 969.618 482.345C955.698 482.47 959.064 484.515 949.538 477.672C945.021 466.323 940.053 441.038 941.162 429.564C945.555 383.542 929.458 229.37 954.424 199.161ZM1060.82 332.721C1107.88 258.118 1043.57 241.887 982.431 242.722C982.76 276.518 982.266 314.821 983.704 348.242C1018.89 349.16 1033.14 353.249 1060.82 332.721Z" fill="#301E0F"/>
<path d="M555.342 198.828C591.929 194.155 639.397 194.78 659.476 233.96C661.611 238.174 659.886 238.633 658.203 243.807C617.921 260.747 561.543 212.347 531.608 261.206C533.949 310.691 654.548 325.169 666.333 383.458C678.242 442.581 637.959 472.748 588.931 486.183C585.071 486.1 581.171 485.975 577.311 485.766C550.826 484.181 512.104 474.835 493.749 454.097C485.742 430.773 495.515 412.498 520.234 425.308C556.574 444.125 601.373 462.609 625.353 413.208C625.436 342.485 469.44 348.785 495.925 255.698C505.041 223.821 527.995 212.18 555.342 198.828Z" fill="#301E0F"/>
<path d="M1214.84 467.906C1228.19 469.45 1229.62 470.076 1239.85 478.963C1242.44 487.642 1244.86 494.944 1238.45 503.539C1195.13 560.785 1152.43 618.907 1109.97 676.737C1090.38 703.44 1043.86 775.916 1015.44 783.927C987.767 774.372 962.35 731.688 944.406 706.737C933.278 692.008 930.609 688.336 922.602 671.187C923.628 655.081 923.669 647.738 940.299 645.068C967.318 655.749 998.772 704.859 1017.17 729.643C1077.53 650.158 1151.36 539.255 1214.84 467.906Z" fill="#CA6C55"/>
<path d="M882.565 195.07C898.497 200.328 901.536 202.08 907.901 216.099C907.203 232.747 821.342 460.312 808.982 476.084C769.809 493.066 719.959 322.079 706.573 288.283C697.95 265.459 670.068 212.553 695.855 196.698C727.104 206.837 782.825 373.943 797.567 411.703C822.614 359.965 853.082 236.378 882.565 195.07Z" fill="#301E0F"/>
<path d="M232.426 729.602C300.712 727.015 770.752 725.388 798.921 735.402C807.38 738.448 808.324 739.199 811.938 747.294L804.3 757.725C790.626 763.107 759.419 761.813 743.199 761.939C567.987 762.565 392.774 762.064 217.606 761.313C200.262 761.229 170.635 764.317 158.021 754.303L156.863 742.495L163.08 735.152C180.786 727.641 212.125 729.644 232.426 729.602Z" fill="#301E0F"/>
<path d="M157.191 603.135C215.614 601.049 792.843 600.756 805.572 606.723C812.019 618.531 809.842 615.611 808.487 631.758C664.523 633.761 520.559 634.345 376.554 633.552C323.255 633.344 212.694 636.389 164.307 630.214C155.224 620.033 158 619.407 157.191 603.135Z" fill="#301E0F"/>
</svg>
