<svg width="1203" height="1138" viewBox="0 0 1203 1138" fill="none" xmlns="http://www.w3.org/2000/svg">
<path d="M212.883 0C227.801 0.221035 230.26 -0.834634 241.716 7.51853C253.013 26.4657 248.537 54.7421 247.72 78.141L957.851 78.7378C957.025 51.3249 950.681 23.7617 973.885 5.50327C1006.59 6.57569 999.208 53.357 998.42 77.4404C1052.08 80.2734 1124.85 70.2137 1164.76 110.553C1190.3 136.363 1199.34 166.08 1199.53 201.646C1200.53 383.514 1200.69 564.222 1200.83 746.186C1197.75 844.639 1207.32 948.416 1198.07 1046.29C1191.95 1110.97 1126.4 1135.53 1072.64 1136.6L390.588 1136.15C293.356 1135.99 194.712 1139.95 97.7191 1134.94C56.0944 1133.84 4.65142 1084.21 3.42785 1041.01C-4.09462 775.973 3.518 506.379 0.816114 241.313C-0.89201 73.9187 67.8461 77.2817 206.85 78.8381C206.209 52.46 204.071 24.4756 212.883 0Z" fill="#301E0F"/>
<path d="M30.043 331.871L1171.23 331.917L1171.75 815.206C1172.02 885.487 1174.37 966.369 1169.39 1037.02C1168.11 1055.08 1154.04 1073.73 1142.83 1087.61C1116.73 1103.39 1105.7 1106.1 1075.36 1106.29C862.424 1107.64 649.192 1106.48 436.296 1106.51L228.291 1107.42C157.139 1107.76 39.0843 1127.38 33.3849 1028.81C29.2582 957.403 31.8903 887.297 31.607 815.795L30.043 331.871Z" fill="#EBE6DB"/>
<path d="M257.888 399.324C266.766 400.18 268.823 401.039 277.187 403.526C290.82 421.563 284.554 489.065 284.201 516.007L423.02 515.26C422.33 476.318 418.746 445.906 432.03 409.276L438.152 406.639C455.008 429.324 451.973 485.965 452.117 515.009C496.493 516.349 543.456 515.573 588.054 515.548C587.483 480.407 583.311 437.765 598.755 406.643L604.815 405.041C622.805 429.758 618.177 484.329 617.651 515.398L752.639 515.815C752.011 478.296 748.315 442.923 762.946 408.316L769.031 406.339C786.126 429.85 781.863 485.966 781.457 515.694L919.693 516.291C918.95 480.988 914.339 437.574 930.554 406.702L936.865 405.496C954.432 430.097 949.369 484.793 948.535 515.511C980.1 515.219 1050.79 510.591 1075.89 527.844L1074.22 533.135C1043.95 548.949 981.389 544.513 946.396 544.108C946.388 594.098 946.757 644.084 947.501 694.066C979.779 693.674 1046.13 689.33 1073.3 704.564L1073.1 710.317C1045.09 725.217 980.609 720.264 947.915 719.476C947.353 769.124 947.874 819.589 947.919 869.312C981.878 869.579 1045.93 864.372 1073.22 880.214L1073.11 886.235C1045.3 902.462 981.164 898.519 948.096 898.348C948.404 923.399 956.933 1018.38 932.283 1027.65L922.35 1022.12L919.899 1008.32L920.396 897.614C876.106 896.287 825.759 897.776 781.026 898.081C781.728 932.086 786.274 991.882 770.502 1021.08L764.691 1021.38C748.578 994.835 752.866 929.8 753.223 897.647C708.847 896.433 661.847 897.046 617.249 896.892C617.405 929.683 621.688 995.662 604.816 1021.89L598.862 1020.87C583.328 991.41 588.292 931.786 589.052 897.601L450.771 898.135C451.284 932.871 455.312 989.753 439.881 1020.02L433.939 1020.65C418.327 992.791 422.963 931.147 423.493 898.198C378.308 897.159 329.473 898.198 284 898.285C284.37 929.979 289.1 996.371 272.835 1021.79L266.77 1020.88C250.9 992.186 255.158 932.049 255.54 898.386C225.774 898.711 151.689 903.522 128.711 886.452L130.555 881.291C160.912 866.129 220.67 869.955 255.347 870.238C256.012 820.382 256.382 770.517 256.456 720.652C222.723 721.399 164.764 725.73 135.191 710.985L134.509 704.747C162.099 689.33 224.045 693.878 256.526 694.375L256.505 542.506C224.666 543.32 156.161 548.852 130.387 531.821L131.627 526.213C159.487 510.812 222.867 515.093 255.622 515.527C255.696 476.866 255.231 437.869 257.888 399.324Z" fill="#301E0F"/>
<path d="M780.354 543.242L921.16 543.055C920.811 593.712 920.86 644.37 921.308 695.023L779.926 695.119C779.553 644.491 779.692 593.862 780.354 543.242Z" fill="#CA6C55"/>
<path d="M283.993 542.673C330.479 542.018 376.974 542.486 423.44 544.084L423.214 694.12L283.27 694.421C285.138 645.828 284.013 591.683 283.993 542.673Z" fill="#EBE6DB"/>
<path d="M450.639 543.666C495.943 542.16 542.996 542.932 588.469 543.074C589.401 593.452 589.393 643.842 588.448 694.22L449.785 694.433L450.639 543.666Z" fill="#EBE6DB"/>
<path d="M284.377 720.913L423.221 720.68L423.308 868.985L284.246 870.128L284.377 720.913Z" fill="#EBE6DB"/>
<path d="M616.543 543.415L754.348 543.215C755.067 593.367 754.923 643.529 753.921 693.673C710.596 695.334 660.624 693.765 616.789 693.373L616.543 543.415Z" fill="#EBE6DB"/>
<path d="M780.762 719.152L920.456 721.981L919.708 867.378C878.42 870.244 823.434 868.834 781.082 868.901L780.762 719.152Z" fill="#EBE6DB"/>
<path d="M451.174 720.961L588.055 722.108C588.995 771.109 588.983 820.123 588.01 869.124L451.354 868.694C450.5 820.052 451.161 769.741 451.174 720.961Z" fill="#EBE6DB"/>
<path d="M617.285 720.587C662.901 721.914 708.55 721.643 754.145 719.773C754.901 767.56 753.345 819.916 752.893 868.058C732.272 870.928 642.883 868.834 617.215 868.751L617.285 720.587Z" fill="#EBE6DB"/>
<path d="M247.584 108.405C479.845 107.429 727.968 113.316 958.081 107.258C957.058 135.451 950.616 170.02 974.871 189.188L983.285 187.573C1003.92 163.694 998.934 141.293 998.121 109.503C1150.75 107.629 1171.37 112.265 1170.32 273.967C1170.73 282.241 1170.26 289.76 1169.9 298.005C1167.63 299.72 1165.36 301.435 1163.09 303.15C850.202 304.936 326.215 304.969 32.492 303.767C32.5208 230.22 6.39679 114.197 114.382 108.869C125.761 108.305 137.155 108.218 148.546 108.092L206.53 107.971C205.997 136.277 200.338 171.643 225.485 190.081L233.586 188.045C253.854 163.615 248.586 140.504 247.584 108.405Z" fill="#849D87"/>
</svg>
