<svg width="150" height="150" viewBox="0 0 150 150" fill="none" xmlns="http://www.w3.org/2000/svg">
<rect width="150" height="150" rx="75" fill="#A02C2B"/>
<path d="M66.964 59.136C66.2387 59.136 65.4707 58.88 64.66 58.368C63.8493 57.856 63.444 57.0667 63.444 56C63.444 55.5733 63.7 54.848 64.212 53.824C64.7667 52.8 65.4707 51.584 66.324 50.176C67.22 48.768 68.18 47.296 69.204 45.76C70.228 44.224 71.252 42.7307 72.276 41.28C73.0867 40.128 74.132 38.7413 75.412 37.12C76.692 35.4987 78.0573 33.7707 79.508 31.936C80.9587 30.1013 82.3667 28.2667 83.732 26.432C85.0973 24.5973 86.292 22.912 87.316 21.376C87.9133 20.48 88.4253 19.6693 88.852 18.944C89.2787 18.176 89.492 17.5147 89.492 16.96C89.492 16.448 89.1933 16.0427 88.596 15.744C88.0413 15.4453 87.0813 15.296 85.716 15.296C84.4787 15.296 82.7933 15.488 80.66 15.872C78.5267 16.2133 76.1373 16.7253 73.492 17.408C70.8467 18.048 68.116 18.816 65.3 19.712C62.5267 20.608 59.796 21.5893 57.108 22.656C54.4627 23.68 52.052 24.768 49.876 25.92C47.7 27.0293 45.9507 28.16 44.628 29.312C43.9027 29.952 43.54 30.528 43.54 31.04C43.54 31.7653 44.0947 32.128 45.204 32.128C45.4173 32.256 45.524 32.384 45.524 32.512C45.524 32.8107 45.0973 32.896 44.244 32.768C43.9027 32.6827 43.3267 32.448 42.516 32.064C41.748 31.6373 41.0227 31.1253 40.34 30.528C39.7 29.888 39.38 29.2693 39.38 28.672C39.38 28.2027 39.7427 27.6693 40.468 27.072C41.1933 26.4747 42.1107 25.856 43.22 25.216C44.372 24.576 45.5453 23.9787 46.74 23.424C47.9773 22.8267 49.0867 22.336 50.068 21.952C51.092 21.5253 51.8387 21.2267 52.308 21.056C54.6973 20.2027 57.1293 19.3493 59.604 18.496C62.0787 17.6427 64.5747 16.9387 67.092 16.384C67.9453 16.1707 69.2893 15.872 71.124 15.488C73.0013 15.104 75.092 14.7627 77.396 14.464C79.7427 14.1227 82.0253 13.952 84.244 13.952C86.036 13.952 87.6787 14.1227 89.172 14.464C90.6653 14.7627 91.86 15.296 92.756 16.064C93.652 16.7893 94.1 17.8347 94.1 19.2C94.1 19.968 94.0147 20.608 93.844 21.12C93.716 21.632 93.46 22.1653 93.076 22.72C92.7347 23.232 92.2227 23.9573 91.54 24.896C90.6013 26.2613 89.3427 27.84 87.764 29.632C86.228 31.424 84.5427 33.344 82.708 35.392C80.916 37.44 79.1667 39.5307 77.46 41.664C75.7533 43.7547 74.26 45.8027 72.98 47.808C72.8093 48.0213 72.7027 48.2773 72.66 48.576C72.66 48.832 72.7667 48.832 72.98 48.576C73.8333 47.6373 75.0493 46.3573 76.628 44.736C78.2067 43.1147 79.9987 41.3653 82.004 39.488C84.0093 37.568 86.1 35.712 88.276 33.92C90.452 32.128 92.564 30.592 94.612 29.312C96.1053 28.3307 97.62 27.5627 99.156 27.008C100.692 26.4533 101.993 26.176 103.06 26.176C103.615 26.176 104.127 26.3893 104.596 26.816C105.108 27.2 105.513 27.648 105.812 28.16C106.153 28.672 106.324 29.0987 106.324 29.44C106.324 30.2933 105.94 31.424 105.172 32.832C104.447 34.1973 103.508 35.7547 102.356 37.504C101.247 39.2533 100.116 41.088 98.964 43.008C97.8547 44.928 96.8947 46.848 96.084 48.768C95.2733 50.688 94.8253 52.5227 94.74 54.272C93.8013 54.3573 93.14 54.1227 92.756 53.568C92.4147 52.9707 92.244 52.2027 92.244 51.264C92.244 50.3253 92.372 49.344 92.628 48.32C93.0973 46.144 93.7587 44.1813 94.612 42.432C95.4653 40.64 96.3827 38.8907 97.364 37.184C98.3453 35.4773 99.2413 33.6427 100.052 31.68C100.436 30.6987 100.628 29.9733 100.628 29.504C100.628 28.864 100.329 28.544 99.732 28.544C98.6653 28.544 96.8733 29.504 94.356 31.424C92.9907 32.4907 91.412 33.728 89.62 35.136C87.828 36.5013 86.1853 37.9307 84.692 39.424C81.9613 42.1547 79.1027 45.184 76.116 48.512C73.172 51.84 70.5693 55.2107 68.308 58.624C68.0947 58.9653 67.6467 59.136 66.964 59.136ZM108.116 58.944C107.817 58.944 107.263 58.7307 106.452 58.304C105.641 57.8773 104.873 57.3867 104.148 56.832C103.508 56.3627 103.188 55.5307 103.188 54.336C103.188 53.2267 103.401 51.9467 103.828 50.496C104.297 49.0027 104.831 47.5093 105.428 46.016C106.068 44.5227 106.665 43.2 107.22 42.048C107.817 40.8533 108.265 40 108.564 39.488C109.161 38.3787 109.46 37.696 109.46 37.44C109.46 37.056 109.14 37.0773 108.5 37.504C107.903 37.9307 107.092 38.6347 106.068 39.616C105.087 40.5973 104.041 41.728 102.932 43.008C101.823 44.288 100.756 45.6107 99.732 46.976C98.708 48.2987 97.8547 49.536 97.172 50.688C96.8733 51.1147 96.6387 51.328 96.468 51.328C96.2973 51.328 96.212 51.2213 96.212 51.008C96.212 50.88 96.3187 50.56 96.532 50.048C96.66 49.7493 96.9373 49.28 97.364 48.64C97.7907 47.9573 98.26 47.232 98.772 46.464C99.284 45.6533 99.7533 44.928 100.18 44.288C100.649 43.648 100.948 43.2427 101.076 43.072C102.825 40.6827 104.639 38.4853 106.516 36.48C108.393 34.432 110.356 32.4267 112.404 30.464C112.873 30.7627 113.599 30.912 114.58 30.912C115.604 30.912 116.393 31.1253 116.948 31.552C117.161 31.7227 117.268 32 117.268 32.384C117.268 33.1093 116.927 34.1333 116.244 35.456C115.561 36.7787 114.708 38.272 113.684 39.936C112.703 41.5573 111.679 43.2 110.612 44.864C109.545 46.528 108.628 48.0853 107.86 49.536C107.092 50.944 106.601 52.096 106.388 52.992C106.345 53.2053 106.303 53.4187 106.26 53.632C106.26 53.8453 106.26 54.0587 106.26 54.272C106.26 54.8693 106.367 55.4027 106.58 55.872C106.793 56.2987 107.156 56.512 107.668 56.512C108.095 56.512 108.543 56.3627 109.012 56.064C109.439 55.7227 109.972 55.232 110.612 54.592C111.252 53.9093 111.785 53.4187 112.212 53.12C112.425 52.9493 112.596 52.8427 112.724 52.8C112.852 52.7573 112.831 52.8853 112.66 53.184C112.319 53.6107 111.913 54.2933 111.444 55.232C111.017 56.1707 110.527 57.024 109.972 57.792C109.417 58.56 108.799 58.944 108.116 58.944Z" fill="white"/>
<path d="M88.18 96.44C87.78 96.44 87.4733 96.36 87.26 96.2C85.3133 96.2 83.5267 95.36 81.9 93.68C80.3 92 78.9933 89.4667 77.98 86.08C77.02 86.48 76.02 86.8 74.98 87.04C73.9667 87.28 72.94 87.4 71.9 87.4C70.9133 87.4 69.9667 87.2 69.06 86.8C68.18 86.4 67.46 85.8533 66.9 85.16C66.3667 84.4667 66.1 83.6933 66.1 82.84C66.1 82.52 66.1267 82.2267 66.18 81.96C66.2333 81.6667 66.3 81.4 66.38 81.16C65.7933 81.24 65.1933 81.28 64.58 81.28C63.9133 81.28 63.3933 81.1067 63.02 80.76C62.6467 80.3867 62.46 79.9467 62.46 79.44C62.46 79.04 62.58 78.64 62.82 78.24C63.06 77.8133 63.4333 77.44 63.94 77.12C64.0733 77.04 64.18 77 64.26 77C64.34 77 64.38 77.0267 64.38 77.08C64.38 77.1867 64.2733 77.32 64.06 77.48C63.74 77.6667 63.5 77.8933 63.34 78.16C63.2067 78.4267 63.14 78.6933 63.14 78.96C63.14 79.3333 63.2733 79.68 63.54 80C63.8333 80.2933 64.2067 80.44 64.66 80.44C65.3533 80.44 66.0333 80.4 66.7 80.32C67.2333 79.0667 68.02 77.88 69.06 76.76C70.1267 75.6133 71.3133 74.5467 72.62 73.56C73.9533 72.5467 75.26 71.6133 76.54 70.76C76.7 69.4 76.9667 68.1333 77.34 66.96C77.74 65.76 78.3 64.7867 79.02 64.04C79.74 63.2933 80.6467 62.92 81.74 62.92C81.98 62.92 82.1 62.9867 82.1 63.12C82.1 63.28 81.94 63.36 81.62 63.36C80.98 63.36 80.4467 63.64 80.02 64.2C79.62 64.76 79.3133 65.4933 79.1 66.4C78.9133 67.3067 78.78 68.3067 78.7 69.4L80.78 68.08C81.0733 67.8667 81.4733 67.6 81.98 67.28C82.4867 66.9333 82.94 66.5867 83.34 66.24C83.74 65.8667 83.94 65.56 83.94 65.32C83.94 65 83.5533 64.84 82.78 64.84C82.4333 64.84 82.26 64.7467 82.26 64.56C82.26 64.4533 82.38 64.4 82.62 64.4C82.8333 64.4 83.14 64.4267 83.54 64.48C83.94 64.5067 84.3 64.6 84.62 64.76C84.9667 64.8933 85.1267 65.12 85.1 65.44C85.1 65.92 85.02 66.2933 84.86 66.56C84.7267 66.8267 84.42 67.12 83.94 67.44C83.4867 67.76 82.78 68.24 81.82 68.88C81.2867 69.2267 80.7533 69.5867 80.22 69.96C79.6867 70.3067 79.1533 70.6667 78.62 71.04C78.62 72 78.6467 72.9467 78.7 73.88C78.7533 74.8133 78.82 75.68 78.9 76.48C79.3533 76.32 79.8067 76.16 80.26 76C80.74 75.84 81.1933 75.7067 81.62 75.6C82.02 75.4667 82.4333 75.3733 82.86 75.32C83.3133 75.24 83.7533 75.2 84.18 75.2C84.3933 75.2 84.66 75.24 84.98 75.32C85.3 75.3733 85.58 75.52 85.82 75.76C86.06 75.9733 86.1533 76.32 86.1 76.8C85.9133 78.2933 85.3 79.7467 84.26 81.16C83.2467 82.5467 81.9533 83.7467 80.38 84.76C80.86 86.6533 81.4333 88.4267 82.1 90.08C82.7933 91.76 83.58 93.1067 84.46 94.12C85.34 95.1333 86.3 95.64 87.34 95.64C88.1133 95.64 88.7933 95.48 89.38 95.16C89.9667 94.8667 90.4867 94.5333 90.94 94.16C91.42 93.7867 91.8333 93.48 92.18 93.24C92.2067 93.2133 92.2467 93.2 92.3 93.2C92.3533 93.2 92.38 93.24 92.38 93.32C92.38 93.4533 92.2867 93.6533 92.1 93.92C91.9933 94.1067 91.7933 94.3733 91.5 94.72C91.2333 95.0933 90.86 95.4267 90.38 95.72C89.9533 95.9867 89.5533 96.1733 89.18 96.28C88.8067 96.3867 88.4733 96.44 88.18 96.44ZM70.38 79.52C71.3933 79.2267 72.3933 78.8933 73.38 78.52C74.3933 78.1467 75.3933 77.7733 76.38 77.4C76.3533 77.0533 76.34 76.6933 76.34 76.32C76.34 75.9467 76.34 75.5733 76.34 75.2C76.34 74.8267 76.34 74.44 76.34 74.04C76.34 73.6133 76.3533 73.2 76.38 72.8C75.2067 73.76 74.1 74.8 73.06 75.92C72.0467 77.0133 71.1533 78.2133 70.38 79.52ZM79.98 83.08C81.26 82.1467 82.3667 81.1333 83.3 80.04C84.26 78.92 84.7933 77.8667 84.9 76.88V76.72C84.9 76.4267 84.82 76.24 84.66 76.16C84.5 76.08 84.3133 76.04 84.1 76.04C83.5133 76.04 82.7667 76.16 81.86 76.4C80.9533 76.6133 79.9933 76.88 78.98 77.2C79.0333 77.8133 79.1 78.36 79.18 78.84C79.26 79.32 79.3133 79.68 79.34 79.92C79.42 80.4267 79.5133 80.9467 79.62 81.48C79.7533 82.0133 79.8733 82.5467 79.98 83.08ZM71.74 86.6C72.78 86.6 74.0867 86.2667 75.66 85.6C76.3 85.3067 76.94 84.9867 77.58 84.64C77.3933 83.9467 77.22 83.2267 77.06 82.48C76.9267 81.7067 76.7933 80.9067 76.66 80.08C76.6333 79.8133 76.5933 79.52 76.54 79.2C76.5133 78.8533 76.4867 78.48 76.46 78.08L72.46 79.56C72.0333 79.6933 71.6067 79.8267 71.18 79.96C70.78 80.0933 70.3533 80.2267 69.9 80.36C69.2333 81.64 68.9 82.8 68.9 83.84C68.9 84.6667 69.1267 85.3333 69.58 85.84C70.0333 86.3467 70.7533 86.6 71.74 86.6Z" fill="white"/>
<path d="M73.808 136.352C73.264 136.352 72.688 136.16 72.08 135.776C71.472 135.392 71.168 134.8 71.168 134C71.168 133.68 71.36 133.136 71.744 132.368C72.16 131.6 72.688 130.688 73.328 129.632C74 128.576 74.72 127.472 75.488 126.32C76.256 125.168 77.024 124.048 77.792 122.96C78.4 122.096 79.184 121.056 80.144 119.84C81.104 118.624 82.128 117.328 83.216 115.952C84.304 114.576 85.36 113.2 86.384 111.824C87.408 110.448 88.304 109.184 89.072 108.032C89.52 107.36 89.904 106.752 90.224 106.208C90.544 105.632 90.704 105.136 90.704 104.72C90.704 104.336 90.48 104.032 90.032 103.808C89.616 103.584 88.896 103.472 87.872 103.472C86.944 103.472 85.68 103.616 84.08 103.904C82.48 104.16 80.688 104.544 78.704 105.056C76.72 105.536 74.672 106.112 72.56 106.784C70.48 107.456 68.432 108.192 66.416 108.992C64.432 109.76 62.624 110.576 60.992 111.44C59.36 112.272 58.048 113.12 57.056 113.984C56.512 114.464 56.24 114.896 56.24 115.28C56.24 115.824 56.656 116.096 57.488 116.096C57.648 116.192 57.728 116.288 57.728 116.384C57.728 116.608 57.408 116.672 56.768 116.576C56.512 116.512 56.08 116.336 55.472 116.048C54.896 115.728 54.352 115.344 53.84 114.896C53.36 114.416 53.12 113.952 53.12 113.504C53.12 112.992 53.664 112.368 54.752 111.632C55.84 110.896 57.312 110.112 59.168 109.28C61.056 108.448 63.168 107.632 65.504 106.832C67.84 106.032 70.272 105.312 72.8 104.672C75.328 104 77.792 103.472 80.192 103.088C82.592 102.672 84.784 102.464 86.768 102.464C88.944 102.464 90.72 102.768 92.096 103.376C93.472 103.984 94.16 104.992 94.16 106.4C94.16 106.976 94.096 107.456 93.968 107.84C93.872 108.224 93.68 108.624 93.392 109.04C93.136 109.424 92.752 109.968 92.24 110.672C91.536 111.696 90.592 112.88 89.408 114.224C88.256 115.568 86.992 117.008 85.616 118.544C84.272 120.08 82.96 121.648 81.68 123.248C80.4 124.816 79.28 126.352 78.32 127.856C78.192 128.016 78.112 128.208 78.08 128.432C78.08 128.624 78.16 128.624 78.32 128.432C78.96 127.728 79.872 126.768 81.056 125.552C82.24 124.336 83.584 123.024 85.088 121.616C86.592 120.176 88.16 118.784 89.792 117.44C91.424 116.096 93.008 114.944 94.544 113.984C95.664 113.248 96.72 112.672 97.712 112.256C98.704 111.84 99.6 111.632 100.4 111.632C100.816 111.632 101.2 111.792 101.552 112.112C101.936 112.4 102.24 112.736 102.464 113.12C102.72 113.504 102.848 113.824 102.848 114.08C102.848 114.464 102.608 115.152 102.128 116.144C101.68 117.104 101.104 118.256 100.4 119.6C99.696 120.912 98.96 122.272 98.192 123.68C97.424 125.088 96.72 126.432 96.08 127.712C95.472 128.992 95.04 130.064 94.784 130.928C94.72 131.184 94.656 131.408 94.592 131.6C94.56 131.792 94.544 131.968 94.544 132.128C94.544 132.352 94.624 132.464 94.784 132.464C95.008 132.464 95.392 132.256 95.936 131.84C96.256 131.584 96.656 131.216 97.136 130.736C97.616 130.224 98.016 129.856 98.336 129.632C98.496 129.504 98.624 129.424 98.72 129.392C98.816 129.36 98.8 129.456 98.672 129.68C98.416 130 98.112 130.512 97.76 131.216C97.44 131.92 97.072 132.56 96.656 133.136C96.24 133.712 95.776 134 95.264 134C95.04 134 94.624 133.84 94.016 133.52C93.408 133.2 92.832 132.832 92.288 132.416C91.968 132.192 91.76 131.968 91.664 131.744C91.568 131.488 91.52 131.232 91.52 130.976C91.52 130.592 91.568 130.16 91.664 129.68C91.888 128.336 92.32 126.976 92.96 125.6C93.6 124.192 94.336 122.768 95.168 121.328C96 119.888 96.8 118.464 97.568 117.056C98.528 115.264 99.008 114.112 99.008 113.6C99.008 113.28 98.864 113.12 98.576 113.12C98.256 113.12 97.728 113.344 96.992 113.792C96.256 114.208 95.376 114.8 94.352 115.568C93.328 116.368 92.144 117.296 90.8 118.352C89.456 119.376 88.224 120.448 87.104 121.568C85.056 123.616 82.912 125.888 80.672 128.384C78.464 130.88 76.512 133.408 74.816 135.968C74.656 136.224 74.32 136.352 73.808 136.352Z" fill="white"/>
</svg>
