<svg id="svg" version="1.1" viewBox="0 0 201.36986301369868 300" width="201.36986301369868" height="300" xmlns="http://www.w3.org/2000/svg"><svg xmlns="http://www.w3.org/2000/svg"><defs><clipPath id="clip-1"><rect x="0" y="0" transform="scale(0.14645,0.14648)" width="1375" height="2048" fill="none"/></clipPath><linearGradient x1="155.07237" y1="298.06494" x2="154.08529" y2="296.95459" gradientUnits="userSpaceOnUse" id="color-1"><stop offset="0" stop-color="#822420"/><stop offset="1" stop-color="#8f4c48"/></linearGradient><linearGradient x1="12.79221" y1="1.09103" x2="12.55674" y2="0.9666" gradientUnits="userSpaceOnUse" id="color-2"><stop offset="0" stop-color="#7a3d38"/><stop offset="1" stop-color="#9f746d"/></linearGradient><linearGradient x1="60.08452" y1="193.8457" x2="51.85281" y2="193.70361" gradientUnits="userSpaceOnUse" id="color-3"><stop offset="0" stop-color="#090504"/><stop offset="1" stop-color="#001b3a"/></linearGradient><linearGradient x1="155.58055" y1="190.5791" x2="165.26242" y2="190.46924" gradientUnits="userSpaceOnUse" id="color-4"><stop offset="0" stop-color="#0d0a0b"/><stop offset="1" stop-color="#001d3e"/></linearGradient></defs><g clip-path="url(#clip-1)" fill="none" fill-rule="nonzero" stroke="none" stroke-width="1" stroke-linecap="butt" stroke-linejoin="miter" stroke-miterlimit="10" stroke-dasharray="" stroke-dashoffset="0" font-family="none" font-weight="none" font-size="none" text-anchor="none" style="mix-blend-mode: normal"><path d="M0,0h5.61248h0.59997h6.93762h0.52489h9.77211h0.66415h177.25864v12.74736v0.87278v6.17971v0.85239v12.72642v0.73799v4.9541v0.67251v13.19253v0.81167v4.56431v0.76582v182.58794v0.80859v5.38037v0.77197v5.94727v0.72217v14.08887v4.45898v4.70361v4.99658v8.88281v0.42627v7.14697h-19.19238h-4.35252h-1.88189h-5.45676h-5.23708h-0.70882h-9.91033h-3.01542h-11.31889h-0.55651h-139.73926v-16.73584v-0.83643v-5.39355v-0.76611v-20.34668v-0.97559v-222.44575v-3.40825v-5.59922v-3.71938v-5.76976v-6.67446z" fill="#e5dfd5"/><path d="M5.50473,255.33838c-1.13901,-0.73242 -1.78976,-1.16748 -2.76665,-2.21777c-3.86122,-4.15576 -0.87274,-10.56006 4.28654,-11.63672c2.32308,-0.48486 6.05889,-0.24023 8.59039,-0.23291l13.73093,0.01318l14.70146,-0.0293c2.46037,-0.00879 4.93276,-0.08789 7.38595,0c0.54128,0.01904 1.77118,0.17725 2.25007,0.34277c2.60682,0.90088 3.39209,3.8833 1.78392,6.06885c-0.52239,0.70898 -1.04463,1.00195 -1.74979,1.46777c4.54173,0.53906 8.47555,1.61572 11.48218,5.38477c3.17608,3.98145 2.46901,9.94336 -1.61198,12.99463c-1.46173,1.09277 -2.85638,1.61572 -4.52123,2.29834c2.55527,-0.20801 6.12941,-0.11865 8.73462,-0.10693c5.54272,0.02637 11.82063,-0.72949 16.35094,3.12158c2.09161,1.77832 3.34728,3.85986 3.56549,6.62842c0.21323,2.46826 -0.5858,4.91602 -2.21346,6.78223c-2.03728,2.35254 -5.2756,3.8335 -8.34521,3.93164c-3.24213,0.104 -6.62748,0.03369 -9.87752,0.01025l-18.43552,-0.10547l-33.37467,-0.01318c-1.62562,-0.00146 -10.95988,0.1084 -11.90647,-0.14941l-0.18711,-0.22119l0.03177,-0.33545c0.4481,-0.31201 5.25731,-0.18896 6.11896,-0.1875l11.56201,0.00586l34.03092,0.00586l10.44721,0.03662c2.9608,0 6.46112,0.28711 9.28513,-0.55811c9.95045,-2.97803 9.0757,-16.02539 -1.10878,-17.82275c-1.99173,-0.34717 -4.56663,-0.16406 -6.61225,-0.15967l-14.02281,0.02051c-2.25798,0.00146 -4.52899,0.05273 -6.78375,-0.05566c-1.55472,-0.07324 -1.79812,-1.05029 -1.54096,-2.44189c0.63516,-3.46143 5.02385,-2.76563 7.04194,-4.96436c0.425,-0.46289 1.00041,-1.13379 1.05825,-1.74902c0.58068,-6.17578 -5.81922,-5.26758 -9.72214,-5.24414c-3.50823,0.02344 -6.32902,-0.04395 -9.46438,0c8.56064,3.94043 3.69202,14.95898 -3.22309,14.34229c-3.31784,-0.29736 -25.15562,0.46729 -26.40143,-0.22412l0.0064,-0.2168c0.28577,-0.25781 0.59119,-0.4292 0.97648,-0.48486c1.40269,-0.20654 3.13985,-0.00879 4.5678,-0.00439c3.64178,0.01025 20.46003,0.47461 23.11269,-0.46875c2.56801,-0.91406 4.36189,-3.12891 4.49516,-5.88428c0.08201,-1.69775 -0.57672,-3.31055 -1.71772,-4.55566c-1.67086,-1.8208 -3.76847,-2.41113 -6.17027,-2.49463c-6.41469,-0.22266 -12.90935,-0.00146 -19.33345,0.0249c-3.28086,0.01465 -6.78362,0.28418 -10.01133,-0.33252v-0.97559c2.11326,0.55518 3.33745,0.42773 5.50473,0.39258z" fill="#c7ac99"/><path d="M38.37055,242.20898c3.6992,0.09082 7.41275,-0.01611 11.11298,0.01758c1.81789,0.01758 4.43248,-0.21826 5.42908,1.67725c0.4004,0.77637 0.4641,1.68311 0.17603,2.50635c-1.0461,2.91211 -5.60116,2.29541 -7.9186,2.42725c-1.4998,0.08496 -7.18663,-0.30029 -8.10752,0.15674c-0.13971,0.40869 -0.15787,0.22412 -0.01098,0.57568c0.59342,0.29443 1.10248,0.28125 1.7618,0.31055c5.88864,0.26221 12.34697,-0.58594 18.01579,1.27588c2.74815,0.90234 5.33491,2.92529 6.54533,5.55029c0.95501,2.0376 1.04463,4.37549 0.24853,6.48047c-2.41439,6.23291 -10.70731,6.60352 -16.34464,6.48047c-0.98298,-0.02051 -2.23455,0.14941 -3.16861,-0.12598c-0.70838,-0.20801 -0.39556,-1.48828 -0.10574,-1.90723c0.74529,-1.19092 2.32066,-1.55566 3.57809,-1.89697c5.25319,-1.3623 6.01019,-8.26904 0.75788,-10.06641c-2.05368,-0.70312 -6.38203,-0.40137 -8.74311,-0.39844c-7.17433,-0.04834 -14.34896,-0.04102 -21.52329,0.0249c-2.85301,0.00732 -9.84139,0.17725 -12.21331,-0.28271c-1.42605,-0.27832 -2.74447,-0.95361 -3.80311,-1.94824c-4.05771,-3.81152 -1.55657,-9.89209 3.52803,-10.60254c2.9919,-0.41895 7.06941,-0.19336 10.16626,-0.19043c6.87308,0.03223 13.74631,0.01025 20.6191,-0.06445z" fill="#e5dfd5"/><path d="M77.67282,271.13965c3.64633,0.08496 7.43824,2.80811 8.62888,6.2666c0.72493,2.16064 0.5653,4.52051 -0.44389,6.56396c-1.31571,2.6001 -3.55114,3.97412 -6.23778,4.86035c-1.24058,0.37793 -2.44412,0.47314 -3.72439,0.5332c2.24699,-0.91699 4.02754,-2.12842 5.37548,-4.19678c1.43566,-2.20605 1.9289,-4.89697 1.36946,-7.46924c-0.65127,-2.90625 -2.51544,-4.99951 -4.96776,-6.55811z" fill="#e5dfd5"/><path d="M201.36986,58.31177c-3.05057,-0.04761 -6.12457,0.02036 -9.17954,0.02241c-8.57909,0.00615 -17.15525,0.00308 -25.73434,-0.01216c-3.35958,-0.00601 -6.00888,0.30483 -8.87931,-1.83735c-2.87629,-2.14673 -3.68763,-5.77515 -1.43229,-8.70117c2.78549,-3.67148 7.94203,-3.4084 12.10562,-3.36196c2.29196,0.06533 6.39844,0.3293 5.75552,-3.23511c-0.48182,-2.66382 -4.53412,-2.18804 -6.57564,-2.18057l-9.93376,0.09331c-1.58753,0.0063 -3.05789,0.05757 -4.71865,-0.07412c-2.43987,-0.08027 -3.75939,-2.92793 -1.59192,-4.37505c1.28437,-0.85723 5.04377,-0.5105 6.60933,-0.50918l10.39068,-0.00264l33.18429,-0.02153v4.9541v0.67251v13.19253v0.81167z" fill="#e5dfd5"/><path d="M201.36986,39.74326v13.19253c-0.63413,0.04614 -1.23604,0.05537 -1.87164,0.05845c-10.15783,0.04805 -20.32151,-0.01509 -30.47934,0.02534c-1.25508,0.03677 -3.63784,-0.45894 -3.50164,-2.13896c0.26215,-3.2127 5.56952,-1.82681 7.87027,-2.05034c4.8197,-0.46816 14.30092,2.31387 14.84425,-5.06294c0.12741,-1.71738 -0.72054,-2.84927 -1.75887,-4.03228c4.6586,0.12993 10.25302,0.09097 14.89698,0.0082z" fill="#e5dfd5"/><path d="M201.36986,53.74746l-21.89,0.02959c-3.82237,-0.00015 -7.72382,0.02769 -11.54618,-0.02651c-0.99879,-0.01406 -1.88482,-0.2502 -2.55557,-1.05806c-0.5404,-0.6438 -0.78351,-1.48608 -0.67074,-2.31929c0.4042,-2.81001 4.03179,-2.4646 6.05135,-2.46548c3.64077,-0.00132 8.21003,0.40884 11.30307,-1.84468c0.78058,-0.56792 1.29755,-1.5854 1.35467,-2.51982c0.28851,-2.62104 -1.79256,-2.73809 -3.06814,-4.27412c0.68246,-0.47783 18.61243,-0.20581 21.02155,-0.19834v0.67251c-4.64396,0.08276 -10.23838,0.12173 -14.89698,-0.0082c1.03834,1.18301 1.88629,2.31489 1.75887,4.03228c-0.54333,7.37681 -10.02456,4.59478 -14.84425,5.06294c-2.30074,0.22354 -7.60812,-1.16235 -7.87027,2.05034c-0.1362,1.68003 2.24656,2.17573 3.50164,2.13896c10.15783,-0.04043 20.32151,0.02271 30.47934,-0.02534c0.6356,-0.00308 1.23751,-0.0123 1.87164,-0.05845z" fill="#c7ac99"/><path d="M182.73107,39.76758l2.29049,0.09697c4.09916,2.91313 2.7152,7.35513 -2.07081,8.16563c-1.04566,0.06094 -1.93608,0.03311 -2.97734,0.00454c2.89973,-1.27266 6.07771,-3.4771 3.53093,-7.11328c-0.28119,-0.40107 -0.6561,-0.67441 -0.77326,-1.15386z" fill="#e5dfd5"/><path d="M193.79982,266.98975c0.84502,-0.09229 1.32831,-0.62402 1.87311,-0.54346l0.18599,0.3999l0.12009,-0.00586c1.0149,0.97998 2.65369,3.91406 3.11208,5.30566c0.89335,-0.97998 1.47769,-1.70068 2.27877,-2.76123v4.45898v4.70361v4.99658v8.88281v0.42627v7.14697h-19.19238h-4.35252h-1.88189h-5.45676c2.45744,-2.26611 6.48631,-4.42822 8.38431,-7.2085c0.20357,-0.30029 0.51111,-1.38721 0.62388,-1.77832c2.00491,-1.51318 2.59071,-2.35693 4.26172,-4.15283c0.55651,-0.59912 1.57435,-0.99609 2.34175,-1.34619c0.32366,-0.62988 0.41446,-0.75879 0.97976,-1.21875c1.23604,-1.00635 2.16308,-2.0083 3.10622,-3.29004c-2.67566,-1.31836 -4.26465,-1.70654 -7.20099,-1.95703l-0.44521,0.19775c-0.71907,-0.95068 -1.27852,-1.33447 -2.25974,-1.99951c3.90584,1.00488 7.65059,-0.33398 11.59744,2.07861c0.53894,-0.58594 1.39714,-1.56738 1.99466,-2.0625c4.37156,-3.62988 5.29713,-4.66699 1.25069,-9.32373l-0.35148,-0.08203l-0.15817,-0.29297z" fill="#492412"/><path d="M198.93878,285.32227l0.19624,-0.12891c0.03515,-1.17627 1.23751,-1.30078 2.23484,-1.64941v8.88281v0.42627v7.14697h-19.19238c3.13844,-4.47803 4.74208,-7.5835 9.08288,-10.97168c2.88508,-2.25 2.55996,-2.36279 6.27981,-3.91992c0.32219,-0.1333 0.64585,-0.25928 0.9739,-0.37793c0.36466,0.22852 0.24604,0.12012 0.42471,0.5918z" fill="#e5dfd5"/><path d="M198.93878,285.32227l0.19624,-0.12891c0.03515,-1.17627 1.23751,-1.30078 2.23484,-1.64941v8.88281v0.42627c-2.08985,-0.23145 -3.40791,-0.63135 -4.35252,-2.64258c0.01465,-0.3501 0.11277,-0.44678 0.31926,-0.74414c0.99001,-1.79736 -0.82452,-1.72266 0.20357,-4.35791c0.32219,-0.1333 0.64585,-0.25928 0.9739,-0.37793c0.36466,0.22852 0.24604,0.12012 0.42471,0.5918z" fill="#e4ccc5"/><path d="M197.54017,285.1084c0.32219,-0.1333 0.64585,-0.25928 0.9739,-0.37793c0.36466,0.22852 0.24604,0.12012 0.42471,0.5918c-2.7562,0.56543 -0.63853,3.38672 0.47011,4.58496c-0.5902,0.15234 -1.21115,0.21826 -1.57288,0.65771c-0.13913,1.30518 2.58046,1.72266 3.53386,1.86182v0.42627c-2.08985,-0.23145 -3.40791,-0.63135 -4.35252,-2.64258c0.01465,-0.3501 0.11277,-0.44678 0.31926,-0.74414c0.99001,-1.79736 -0.82452,-1.72266 0.20357,-4.35791z" fill="#702922"/><path d="M197.33661,289.46631c0.46132,-0.43799 0.30022,-0.42041 0.81427,-0.48047l0.33684,0.20508c0.07762,0.4541 0.10984,0.2373 -0.14792,0.66357c-0.46864,0.2666 -0.79669,0.27979 -1.32245,0.35596c0.01465,-0.3501 0.11277,-0.44678 0.31926,-0.74414z" fill="#e4ccc5"/><path d="M201.36986,278.54736c-1.15257,0.61377 -5.25319,2.77002 -6.32082,1.87939c-0.23139,-1.01807 0.96365,-2.0625 1.60657,-2.7583c1.50405,-1.63037 2.62586,-2.94141 4.71425,-3.82471z" fill="#e5dfd5"/><path d="M175.94307,300c1.32977,-1.21436 2.70788,-2.2002 4.18996,-3.21973c-0.8172,1.06348 -1.62267,2.06396 -2.30806,3.21973z" fill="#e5dfd5"/><path d="M187.32669,288.7002l0.19917,0.05566l-0.07323,0.26074c-0.90214,0.9668 -2.20848,1.39014 -3.43574,1.90576l-0.06883,0.03369l-0.05126,-0.09521c0.44814,-0.40283 2.64783,-1.65088 3.42988,-2.16064z" fill="#e5dfd5"/><path d="M172.92765,265.43115c0.15524,-0.20508 0.57995,-0.78955 0.74251,-0.91846c1.87457,-1.50439 3.49139,1.20703 3.88534,2.75098c0.19771,0.77344 0.15084,1.43994 0.1362,2.15479c1.36932,-1.00928 4.15774,-2.23535 5.75698,-0.74268c0.43642,0.40723 0.24164,1.08105 0.2065,1.65967c0.44082,0.28125 0.59166,0.32373 1.08959,0.50684c0.76447,0.81445 0.31487,2.81836 -0.16842,3.73096c-0.85234,1.61426 -2.65076,2.1958 -4.29833,2.67334c0.98122,0.66504 1.54066,1.04883 2.25974,1.99951l0.44521,-0.19775c1.43522,2.52832 1.36053,3.83496 -1.06323,4.45898c-0.26508,0.06885 -0.13327,0.87158 -0.23871,1.08691c-0.61656,1.2627 -2.63611,1.52051 -3.87509,1.15869c-1.89068,-0.56543 -2.6903,-1.29785 -3.63637,-2.84619c-0.84795,2.05811 -3.39473,4.90283 -6.01766,3.43652c-0.24604,-0.1377 -0.59752,-1.20264 -0.87578,-1.3623c-0.14792,-0.0835 -1.03834,0.10986 -1.2668,0.14502c-1.83942,-0.59619 -1.73398,-3.02637 -1.13792,-4.46631c0.38077,-0.91699 0.71175,-1.23047 1.43668,-1.89844c-2.07228,-0.3999 -5.4714,-2.14746 -4.79041,-4.91748c0.0703,-0.28271 0.80255,-0.36621 1.00612,-0.8877c-0.07908,-0.12305 -0.47889,-0.76611 -0.48622,-0.82764c-0.22114,-2.05371 3.34494,-2.71436 4.82116,-2.47852c0.62681,0.09961 1.18186,0.34424 1.63586,0.5376c-0.0205,-0.14795 -0.03954,-0.29443 -0.05858,-0.44238c-0.22261,-1.77686 0.06004,-4.99512 2.38422,-5.36865c0.84649,-0.13477 1.4894,0.54053 2.10743,1.05469z" fill="#e4ccc5"/><path d="M172.93058,265.8457c0.88017,-0.93311 1.70029,-2.16064 2.95391,-0.76758c0.8626,0.95654 1.46304,2.44043 1.44693,3.73242c-0.02343,0.9624 -0.63853,2.23975 -0.74983,3.01758l-0.26215,-0.03223l-0.30901,-0.37939l-0.30608,-0.0293c-0.54333,0.50684 -1.19211,2.50049 -1.60949,3.375c-0.00439,-0.47021 0.00879,-1.58643 -0.05419,-1.99658c-0.0454,0.66211 0.03661,1.54248 -0.3588,1.91309l0.22261,0.23584c0.71614,-0.0293 0.62242,0.17578 1.10863,0.41895l-0.18892,0.11279c-0.25775,0.78076 -0.31487,0.89795 0.10105,1.64795l-0.64438,-0.49512c-1.07495,-0.40576 -0.99879,0.45264 -1.4894,-1.00342c-0.56823,0.10107 -2.02395,-0.18018 -3.01835,-0.15234l0.01465,0.08643c1.18332,0.35449 1.89068,0.38965 3.10915,0.49951c-3.38887,1.20703 -7.43091,4.14404 -10.35261,0.08789c-0.52722,-0.73242 -0.70003,-1.25537 -0.95632,-2.11963l1.30195,-0.6416c0.27093,-0.49951 -0.29876,-0.46582 -0.47157,-1.45166c0.71907,-2.2002 5.0423,-2.4624 6.63129,-0.79102l0.22993,-0.23291c-0.61363,-1.43262 -0.76301,-3.11426 -0.13181,-4.53955c0.99294,-2.23828 2.39594,-1.58643 3.78282,-0.49512z" fill="#e4ccc5"/><path d="M172.79145,275.5957c-0.33391,-0.28564 -1.47915,-1.00928 -1.92436,-1.32129l0.08055,-0.03076l1.6051,0.78076l0.21235,-0.15234l0.17574,-0.16406l0.24604,0.17578l0.10691,-0.13477l0.38809,-0.07031l0.22261,0.23584c0.71614,-0.0293 0.62242,0.17578 1.10863,0.41895l-0.18892,0.11279c-0.25775,0.78076 -0.31487,0.89795 0.10105,1.64795l-0.64438,-0.49512c-1.07495,-0.40576 -0.99879,0.45264 -1.4894,-1.00342z" fill="#740904"/><path d="M173.29378,274.74902c-0.07615,-1.00049 -0.66928,-2.75977 -0.59313,-3.16553l0.23579,-0.12012c0.29144,0.25781 0.66928,2.69678 0.74543,3.21533z" fill="#702922"/><path d="M172.76509,274.87207c-0.681,-0.86865 -1.1101,-1.09131 -1.54945,-2.11084l0.06883,-0.10693c0.69711,0.53174 1.16135,1.32275 1.65636,2.05371z" fill="#702922"/><path d="M169.27956,270.88037c0.27533,0.43652 0.76008,1.06348 0.78498,1.53369c-0.41738,-0.2666 -0.72933,-0.86133 -1.0149,-1.30078z" fill="#935a54"/><path d="M172.92765,265.43115c0.15524,-0.20508 0.57995,-0.78955 0.74251,-0.91846c1.87457,-1.50439 3.49139,1.20703 3.88534,2.75098c0.19771,0.77344 0.15084,1.43994 0.1362,2.15479c1.36932,-1.00928 4.15774,-2.23535 5.75698,-0.74268c0.43642,0.40723 0.24164,1.08105 0.2065,1.65967c0.44082,0.28125 0.59166,0.32373 1.08959,0.50684c0.76447,0.81445 0.31487,2.81836 -0.16842,3.73096c-0.85234,1.61426 -2.65076,2.1958 -4.29833,2.67334c-0.97097,-0.12598 -1.52162,-0.22266 -2.46623,-0.46582l0.02929,-0.06738c2.12207,0.04541 4.50483,0.18896 5.91222,-1.77246c0.68393,-0.95361 1.1306,-2.34521 0.94314,-3.52295c-0.40128,-0.53613 -0.62095,-0.49219 -1.35906,-0.74707c-0.19771,-0.50977 -0.06151,-0.60059 0.08641,-1.22314c-0.31048,-1.03857 -1.67979,-0.98437 -2.58486,-0.94629c-2.88215,0.12451 -3.62905,2.44336 -4.704,4.64209c-0.24311,0.49512 -1.1057,1.46924 -1.51723,1.95557c0.85088,-0.35596 1.8116,-0.74268 2.49113,-1.36377c0.18746,-0.17139 0.11863,-0.10107 0.43496,-0.14795l0.17867,0.25635c-0.03222,0.09521 -0.06444,0.19189 -0.09812,0.28711c-0.78937,0.30029 -1.76913,0.70459 -2.4633,1.11328l-0.14792,0.08936c-0.48622,-0.24316 -0.39249,-0.44824 -1.10863,-0.41895l-0.22261,-0.23584c0.39542,-0.37061 0.3134,-1.25098 0.3588,-1.91309c0.06297,0.41016 0.04979,1.52637 0.05419,1.99658c0.41738,-0.87451 1.06616,-2.86816 1.60949,-3.375l0.30608,0.0293l0.30901,0.37939l0.26215,0.03223c0.1113,-0.77783 0.7264,-2.05518 0.74983,-3.01758c0.01611,-1.29199 -0.58434,-2.77588 -1.44693,-3.73242c-1.25362,-1.39307 -2.07374,-0.16553 -2.95391,0.76758c-1.38689,-1.09131 -2.78989,-1.74316 -3.78282,0.49512c-0.6312,1.42529 -0.48182,3.10693 0.13181,4.53955l-0.22993,0.23291c-1.58899,-1.67139 -5.91222,-1.40918 -6.63129,0.79102c0.17281,0.98584 0.74251,0.95215 0.47157,1.45166l-1.30195,0.6416c0.25629,0.86426 0.4291,1.38721 0.95632,2.11963c2.92169,4.05615 6.96374,1.11914 10.35261,-0.08789c-1.21847,-0.10986 -1.92583,-0.14502 -3.10915,-0.49951l-0.01465,-0.08643c0.9944,-0.02783 2.45012,0.25342 3.01835,0.15234c0.49061,1.45605 0.41446,0.59766 1.4894,1.00342c0.02636,0.71338 0.51551,1.70654 0.63999,2.87256c-0.3383,-0.51562 -0.40274,-0.84375 -0.57262,-1.42529l-0.28704,-0.93311l-0.28411,-0.19775c-0.28119,0.33545 -0.50965,1.19678 -0.66049,1.65967c0.05419,-0.75879 0.1567,-1.43408 0.227,-2.17529c-0.62827,0.85986 -1.14964,1.68018 -2.1499,2.12842c0.37199,-0.50098 1.44693,-1.67285 1.56556,-2.05225c-1.02662,0.05127 -5.88879,2.20166 -6.77042,3.12451c-1.13499,1.18652 -1.42643,3.67383 -0.27386,4.94971c0.31194,0.34424 1.50112,-0.08789 1.9024,-0.20068c0.18013,0.6167 0.3134,1.40186 0.95779,1.69482c1.87457,0.85107 4.21925,-0.99756 4.96175,-2.64844c0.45986,-1.02393 0.28851,-2.39941 0.42617,-3.52734l0.15817,0.00879c0.29876,0.68994 0.13034,1.49121 0.20357,2.17822c0.13473,1.2583 1.75448,2.6499 2.79721,2.99561c1.02808,0.36475 4.14016,0.93457 3.97321,-0.9126c-0.0205,-0.21973 0.1362,-0.93604 0.33098,-0.97266c2.23337,-0.42773 2.72838,-1.45898 1.11156,-3.91992l0.44521,-0.19775c1.43522,2.52832 1.36053,3.83496 -1.06323,4.45898c-0.26508,0.06885 -0.13327,0.87158 -0.23871,1.08691c-0.61656,1.2627 -2.63611,1.52051 -3.87509,1.15869c-1.89068,-0.56543 -2.6903,-1.29785 -3.63637,-2.84619c-0.84795,2.05811 -3.39473,4.90283 -6.01766,3.43652c-0.24604,-0.1377 -0.59752,-1.20264 -0.87578,-1.3623c-0.14792,-0.0835 -1.03834,0.10986 -1.2668,0.14502c-1.83942,-0.59619 -1.73398,-3.02637 -1.13792,-4.46631c0.38077,-0.91699 0.71175,-1.23047 1.43668,-1.89844c-2.07228,-0.3999 -5.4714,-2.14746 -4.79041,-4.91748c0.0703,-0.28271 0.80255,-0.36621 1.00612,-0.8877c-0.07908,-0.12305 -0.47889,-0.76611 -0.48622,-0.82764c-0.22114,-2.05371 3.34494,-2.71436 4.82116,-2.47852c0.62681,0.09961 1.18186,0.34424 1.63586,0.5376c-0.0205,-0.14795 -0.03954,-0.29443 -0.05858,-0.44238c-0.22261,-1.77686 0.06004,-4.99512 2.38422,-5.36865c0.84649,-0.13477 1.4894,0.54053 2.10743,1.05469z" fill="#702922"/><path d="M176.31945,271.7959l0.26215,0.03223c-0.36759,1.06641 -1.41032,2.12695 -2.17187,2.9751c0.50818,-1.13525 0.70003,-2.5166 1.90972,-3.00732z" fill="#c7ac99"/><path d="M174.82419,275.44629c1.42936,0.72217 2.72838,-0.90234 3.12819,0.10693l-0.17281,0.23438c-0.87578,0.12744 -1.89654,0.03809 -3.15748,0.23291c1.22726,0.69434 1.99759,1.38428 3.3215,1.24072l0.2021,0.22266c-0.03808,0.54199 0.04686,0.36035 -0.26361,0.76025c-0.23432,-0.06885 -0.20357,-0.01172 -0.33098,-0.18018c-0.67367,-0.89062 -1.76913,-1.02686 -2.80014,-1.46631c0.454,0.4292 1.01344,0.86572 1.20968,1.44287l-0.04394,0.11426c-0.43935,-0.20801 -0.78937,-0.62695 -0.99147,-1.06055c-0.41592,-0.75 -0.3588,-0.86719 -0.10105,-1.64795z" fill="#702922"/><path d="M174.06118,277.11328l0.28704,0.93311c-0.15231,0.33252 -0.30901,0.66504 -0.46864,0.99463l-0.19478,0.06299c-0.25043,-0.55664 0.08641,-1.48828 0.37638,-1.99072z" fill="#d89997"/><path d="M78.44989,44.28164c0.02182,-1.80439 0.22451,-3.10649 1.56863,-4.41021c1.47989,-1.43555 2.45803,-0.73667 3.42505,0.56323c0.6148,-0.41089 0.88017,-0.58931 1.55135,-0.89326c2.49962,1.61499 2.89709,3.96182 1.54886,6.54814c1.84821,-0.73813 4.65186,-0.99551 6.0058,1.00972c0.40552,0.60088 -0.05887,1.252 -0.39937,1.79194c0.17852,0.4875 0.93714,0.4248 1.01842,0.78691c0.65669,2.92925 -2.67068,4.1978 -4.8049,4.32495c1.11054,1.52666 2.1436,4.07681 0.233,5.64448c-0.52093,0.42729 -1.32831,-0.45161 -1.92876,0.08687l-0.05272,0.18926c-0.91356,3.22207 -4.92441,0.29517 -5.80707,-1.66699c-0.11262,-0.25298 -0.21953,-0.50845 -0.32087,-0.76626c-1.27163,1.49209 -3.91639,3.1084 -5.91969,1.73057c-0.78805,-0.54199 -0.14909,-1.16382 -0.58375,-1.78286c-0.48841,-0.05376 -1.30766,-0.00469 -1.60276,-0.3873c-1.2769,-1.65527 0.07557,-4.17085 1.50991,-5.24399c0.18101,-0.13608 0.36935,-0.26221 0.56398,-0.37793c-1.00992,-0.40459 -1.43112,-0.5543 -2.21873,-1.29272c-1.05591,-0.98979 -2.49025,-3.50127 -1.02911,-4.71768c0.33361,-0.06343 0.66679,-0.12847 0.99967,-0.19512c0.11745,-0.34336 0.04935,-0.28843 -0.12844,-0.73462l0.12082,-0.38525c0.32453,-0.26338 0.74236,-0.54814 1.08681,-0.79761l-0.50438,-0.13286c2.10289,-1.2063 3.98566,-0.41411 5.66823,1.10859z" fill="#702922"/><path d="M73.28604,43.30591c4.54495,-1.24482 6.26604,3.00234 7.61295,6.46113c0.04027,0.10356 0.08187,0.37441 0.10178,0.48984c-0.25658,-0.35771 -1.61535,-2.45391 -1.84718,-2.53418l-0.07659,0.24565c0.23198,0.4021 0.28368,0.44722 0.61216,0.78384l-0.01523,0.1708c-0.29437,0.06709 -0.27489,0.07559 -0.56296,-0.00586c0.71263,0.59663 1.15184,0.82837 1.9702,1.28979c-0.85132,-0.20581 -3.0904,-0.88872 -3.75236,-0.49424c0.10164,0.39023 0.07191,0.27129 0.38487,0.5978l0.06722,-0.06826c0.22832,-0.22793 0.25775,-0.2792 0.56633,-0.4002c0.81632,0.22251 1.41969,0.43901 2.21478,0.73535c-3.89999,0.5959 -8.60047,1.73232 -9.45648,-3.66929c-0.06825,-0.43052 -0.03837,-0.68027 0.13488,-1.07139c0.75671,-0.47021 0.94944,0.01421 1.49863,-0.50024c-0.18087,-0.53862 -0.27064,-0.7314 -0.53982,-1.23296c0.32453,-0.26338 0.74236,-0.54814 1.08681,-0.79761z" fill="#e4ccc5"/><path d="M79.19371,51.01143c0.3692,-0.08174 0.38473,-0.06797 0.74646,-0.04468l-0.0104,0.15381c-0.47245,0.46553 -1.58094,0.71997 -2.3129,1.07769l0.0413,0.24536c0.58141,0.07324 2.47238,-1.14932 3.31565,-1.56211c-0.66562,1.00078 -2.02908,2.18218 -2.25666,2.80195l0.26595,0.11147c0.66152,-0.26587 0.30843,-0.68745 0.53689,-0.90264c0.42529,-0.40034 1.21217,-1.19956 1.6691,-1.50952c0.27606,0.31099 0.12478,0.76729 0.31018,1.38091c0.03778,-0.03149 0.25087,-0.79937 0.29964,-0.94409c0.38092,0.1251 1.17908,1.74331 1.45177,2.22715c-0.11291,-0.83892 -0.66108,-2.11567 -0.97961,-2.94507c1.1883,0.94995 2.55688,1.6248 3.93206,2.21602c2.09059,0.89883 3.44892,2.23799 2.91671,4.66392c-0.38546,1.75752 -1.1596,1.41226 -2.61063,1.06392c-0.70282,3.0564 -2.73834,1.846 -4.44961,0.30322c-0.67865,-0.61187 -0.94534,-1.33037 -1.28584,-2.17617c0.14469,-0.90601 0.65493,-3.17446 0.11365,-3.86191c-0.48783,0.06123 -0.28822,-0.04072 -0.62432,0.30586l0.0536,0.32153c0.25497,0.07676 0.29012,0.0769 0.51565,0.21328c0.69095,3.24463 -3.78268,6.44736 -6.09147,4.66816c-0.2992,-0.50259 -0.22246,-1.09028 -0.22436,-1.70303c-0.61802,-0.05303 -1.00787,-0.09053 -1.6218,-0.21035c-1.58797,-1.21538 0.31297,-4.75693 1.89537,-5.13574c1.44913,-0.34687 2.91188,-0.43755 4.40363,-0.75894z" fill="#e4ccc5"/><path d="M81.31359,39.54023c1.19958,-0.08657 1.34164,0.37061 1.97782,1.28467c2.42449,-1.52915 3.39019,0.17798 3.50442,2.48979c0.15187,3.07192 -2.69382,4.53413 -4.67559,6.56689c0.24853,-0.8332 1.30912,-3.1103 1.22945,-3.38657l-0.6047,-0.23701c0.11394,1.14038 -0.61802,2.5645 -1.05913,3.72114c-0.08113,-1.24526 -0.00718,-2.03687 0.08699,-3.26807c0.02475,-0.32417 -0.31853,-0.54829 -0.54568,-0.70371l-0.22114,0.11851c-0.04921,0.22764 0.35822,2.3584 0.29481,3.56338c-1.34998,-3.51973 -4.90654,-7.26709 0.01274,-10.14902z" fill="#e4ccc5"/><path d="M88.619,45.89282c1.26592,-0.06519 3.42578,0.40093 3.63301,1.87222c0.06488,0.46128 -0.38429,0.946 -0.6501,1.298l1.4052,0.83232c-0.02036,0.08672 -0.04218,0.17314 -0.06546,0.25928c-0.93055,3.40796 -3.48304,3.91729 -6.5569,3.05479c-1.83518,-0.96987 -0.46308,-0.85854 -1.02603,-1.88994c-0.78527,-0.54727 -1.83386,-0.6126 -2.81288,-0.78413c0.68803,-0.29619 1.44708,-0.69873 2.12442,-1.0377l-2.4346,0.61011c1.93271,-1.84585 3.65614,-3.78794 6.38335,-4.21494z" fill="#e4ccc5"/><path d="M82.56941,50.98008c0.71644,-0.03311 2.12295,0.03384 2.69469,0.53335c0.15509,0.13564 0.08523,0.47593 0.0804,0.69287l-0.34548,0.07412c-0.91224,-0.20522 -1.67525,-0.76479 -2.42962,-1.30034z" fill="#e4ccc5"/><path d="M0,277.03418l35.96144,0.01611l11.33705,0.02051c2.00271,-0.00146 4.53324,-0.12891 6.47898,0.06299c3.40996,0.33838 3.854,5.19287 -0.40464,5.23828c-1.97899,0.02051 -4.11937,0.04541 -6.10524,0.04248l-10.94661,-0.01318l-36.32097,0.02637z" fill="#e5dfd5"/><path d="M152.08184,287.17822c0.87431,-1.30664 2.01223,-2.37598 3.61733,-1.11621c2.06642,1.62451 2.59804,3.646 2.43108,6.16699c1.84821,-1.3916 5.39378,-2.69824 7.14826,-0.54053c0.15817,0.88184 -0.21675,1.15576 0.10837,1.604c0.67074,0.15381 1.59046,0.26953 1.86432,0.95654c0.80255,2.02588 -0.60924,4.45605 -2.00198,5.75098h-0.70882h-9.91033h-3.01542h-11.31889h-0.55651c-0.39161,-0.84521 -0.90228,-1.84277 -1.01373,-2.76123c-0.1321,-1.08984 1.01666,-0.85547 1.56614,-1.65527c-0.14103,-0.88184 -0.83257,-1.44873 -0.07835,-2.24414c1.7082,-1.80322 4.78103,-1.42529 6.73542,-0.66504c-0.28851,-2.09473 -0.22261,-3.82178 1.10277,-5.57227c1.41325,-1.86914 2.68884,-1.19971 4.03033,0.07617z" fill="#e4ccc5"/><path d="M152.08184,287.17822c0.87431,-1.30664 2.01223,-2.37598 3.61733,-1.11621c2.06642,1.62451 2.59804,3.646 2.43108,6.16699c1.84821,-1.3916 5.39378,-2.69824 7.14826,-0.54053c0.15817,0.88184 -0.21675,1.15576 0.10837,1.604c0.67074,0.15381 1.59046,0.26953 1.86432,0.95654c0.80255,2.02588 -0.60924,4.45605 -2.00198,5.75098h-0.70882c1.40446,-1.18066 3.40352,-3.83496 2.03567,-5.78027c-0.36173,-0.51416 -1.30048,-0.53027 -1.90093,-0.59033c1.38689,-4.98486 -6.85976,-2.02148 -7.56565,0.6665c-0.02929,0.1084 -0.56969,0.92871 -0.62827,0.95215c-0.04686,-0.44824 1.72812,-2.78467 1.15843,-5.0874c-0.24897,-1.33447 -0.95925,-2.91211 -2.14404,-3.71045c-1.66222,-1.12061 -2.52481,0.06738 -3.32443,1.22607c-2.35786,-1.89404 -3.18091,-1.8999 -4.63517,1.34473c-1.13529,2.53418 0.37931,4.76514 1.47476,6.95654c-1.08959,-1.20264 -1.31073,-1.61279 -2.18358,-2.96045c-2.58676,-0.93457 -4.6832,-0.8335 -6.7694,1.0459c0.23388,0.58008 0.63765,1.25391 0.95003,1.81055c-2.91774,0.75879 -1.88907,1.99365 -0.71204,4.12646h-0.55651c-0.39161,-0.84521 -0.90228,-1.84277 -1.01373,-2.76123c-0.1321,-1.08984 1.01666,-0.85547 1.56614,-1.65527c-0.14103,-0.88184 -0.83257,-1.44873 -0.07835,-2.24414c1.7082,-1.80322 4.78103,-1.42529 6.73542,-0.66504c-0.28851,-2.09473 -0.22261,-3.82178 1.10277,-5.57227c1.41325,-1.86914 2.68884,-1.19971 4.03033,0.07617z" fill="#702922"/><path d="M153.87879,299.10645c0.50379,-1.22461 1.10277,-3.94043 1.87896,-4.38721l0.23432,0.15381c0.20064,0.73096 -0.19917,0.56689 -0.55505,1.18652c-0.45546,0.78955 -0.76447,2.10352 -1.01637,2.99414l0.1362,0.02344l0.58727,-0.49365l0.24897,0.10986l-0.51844,0.54492l0.00879,0.1377l0.24311,-0.15674l0.4042,0.18018l-0.90067,0.60059h-3.01542c-0.47889,-0.2666 -0.94754,-0.50244 -1.48355,-0.63721c-0.91532,-0.23145 -1.35613,0.20508 -2.02834,-0.46436c-0.06444,-0.51709 -0.10984,-0.31641 0.16842,-0.75c0.50233,-0.12891 0.28997,-0.14063 0.79523,0.09229l0.06151,0.41455c0.64438,0.40576 2.68737,0.95508 3.45917,1.11035l0.15084,0.0293l0.32951,0.00146c0.12448,-0.60937 0.26947,-0.52295 0.81134,-0.68994z" fill="url(#color-1)"/><path d="M153.375,299.21631c-0.12009,-1.62744 -0.41299,-3.12305 -0.47743,-4.80176c0.43935,1.46191 0.66782,3.16113 0.98122,4.69189c-0.54187,0.16699 -0.68685,0.08057 -0.81134,0.68994l-0.32951,-0.00146c-1.50991,-1.53809 -1.66075,-1.52197 -3.59537,-2.43457l-0.02636,-0.33105c0.27972,-0.44971 0.15524,-0.40869 0.54919,-0.54053c1.01344,1.22168 2.18065,2.05811 3.42695,3.0249c-0.46425,-0.8291 -1.48208,-2.8374 -2.05324,-3.40576c-0.40128,0.00879 -0.45986,0.02051 -0.84063,-0.08643l-0.16402,-0.30029l0.14645,-0.39844c0.43203,-0.29443 0.24164,-0.25635 0.70589,-0.19629c0.34709,0.36768 1.92729,3.2373 2.4882,4.08984z" fill="#702922"/><path d="M155.14413,298.5835c0.41592,-0.4585 2.2861,-2.66895 2.58925,-2.83594l0.2973,0.10254l0.03954,0.26514c-0.2973,0.34277 -2.084,1.95703 -2.67712,2.57813z" fill="#702922"/><path d="M155.12656,299.21924c1.01051,-0.51562 1.75009,-0.95215 2.86458,-1.19531c-0.82305,0.4541 -1.64318,0.9126 -2.46037,1.37549z" fill="#935a54"/><path d="M201.36986,247.85449c-10.37604,-0.17871 -21.2793,-0.07178 -31.6817,-0.05273l-9.03016,0.01904c-1.93315,0.00439 -3.81211,0.03955 -5.7643,-0.104c-1.25362,0.11426 -2.85286,-1.53223 -2.81332,-2.83594c0.09519,-3.19043 7.07211,-2.42285 8.8676,-2.41553l10.11975,-0.00439l30.30214,0.01318z" fill="#e5dfd5"/><path d="M7.11818,20.77046c0.16288,-1.2958 0.41573,-3.05098 1.87517,-3.5436c0.70805,0.1229 0.84127,0.63047 1.00708,0.63911c0.94641,0.04878 1.56475,-1.48784 2.83787,-0.24287c0.24422,0.23892 0.33467,1.25552 0.65427,1.52812l0.15251,0.00029c0.49827,0.00337 0.60632,-0.02417 1.02987,0.23452c1.06938,1.42251 0.01728,3.39375 -0.94108,4.58555c0.4385,0.33428 3.44949,-0.00952 4.09431,1.96011c-0.07191,0.52339 -0.1567,0.61172 -0.42236,1.08647c-0.02358,1.37241 1.2296,1.26431 -0.35602,2.84985c-0.58302,0.58301 -1.97767,0.95566 -2.80295,1.2208c0.18047,1.66465 0.73931,2.19902 -0.4017,3.65889l-0.21719,-0.21475c-1.18033,0.62373 -2.17266,0.03574 -3.20815,-0.60425c0.00543,-1.48081 -0.20267,-2.34521 -0.51341,-3.77183l-0.33237,-0.05669l-0.15168,0.21548c0.91814,2.53945 0.99959,4.14727 -1.25623,5.91357c-0.37951,-0.50508 -0.76582,-1.00562 -1.11946,-1.52886c-0.32194,0.27671 -0.86315,0.77139 -1.19833,0.98833c-0.21067,0.05786 -0.65329,0.16641 -0.82997,0.24888c-0.31736,-0.08511 -0.59053,-0.36768 -0.84993,-0.58989c-0.91239,-1.03623 -2.91166,-2.09868 -4.16844,-2.84766v-3.40825v-5.59922l0.62947,-0.0564c0.61363,-0.48457 -0.65425,-2.26919 -0.3579,-3.19526c0.55743,-1.74185 1.37282,-0.6186 2.10572,-1.1231c0.05608,-0.77139 0.03343,-0.78984 0.68841,-1.10742l0.14004,-0.30952c2.21053,0.23657 2.97546,1.1439 3.91245,3.06958z" fill="#702922"/><path d="M3.0657,18.0104c2.51693,0.5083 4.50021,2.52305 4.23922,5.20137c-0.17628,0.10503 -0.31468,0.19951 -0.50524,0.27583l-0.19003,-0.18677l-0.17549,0.04731c-0.06217,0.55796 0.97255,1.92056 1.19413,3.09653c-0.42286,-0.3375 -1.10595,-0.95083 -1.57912,-1.08911c0.37559,0.53027 0.69653,0.71792 1.22288,1.09482c-2.74504,-0.22646 -3.58884,-0.62461 -5.90504,-2.23213c1.30179,1.39922 3.1637,2.45581 5.10373,2.52349c0.12199,0.00454 0.24409,0.00498 0.36611,0.00161l0.06627,0.14414l-0.04317,0.05991c0.47197,0.30498 0.55064,0.34937 0.87525,0.80347c-0.17378,0.473 -0.40315,1.03418 -0.50984,1.51787c0.19011,0.52632 0.21656,0.59385 0.67424,0.90894l0.31264,0.16567l0.22924,-0.16772c0.15319,-0.71426 -0.01283,-1.80879 -0.08674,-2.56758c0.34836,0.63428 0.68713,1.33931 1.00654,1.99116l0.302,-0.00762l-0.08925,0.50859l-0.15168,0.21548c0.91814,2.53945 0.99959,4.14727 -1.25623,5.91357c-0.37951,-0.50508 -0.76582,-1.00562 -1.11946,-1.52886c-0.32194,0.27671 -0.86315,0.77139 -1.19833,0.98833c-0.21067,0.05786 -0.65329,0.16641 -0.82997,0.24888c-0.31736,-0.08511 -0.59053,-0.36768 -0.84993,-0.58989c-0.91239,-1.03623 -2.91166,-2.09868 -4.16844,-2.84766v-3.40825v-5.59922l0.62947,-0.0564c0.61363,-0.48457 -0.65425,-2.26919 -0.3579,-3.19526c0.55743,-1.74185 1.37282,-0.6186 2.10572,-1.1231c0.05608,-0.77139 0.03343,-0.78984 0.68841,-1.10742z" fill="#e5dfd5"/><path d="M0,29.0918c1.85519,1.08311 3.08166,1.05146 4.99608,0.11235c-1.83993,2.13442 -1.99453,3.31553 -0.68658,5.84502l-0.14106,0.29854c-0.91239,-1.03623 -2.91166,-2.09868 -4.16844,-2.84766z" fill="#492412"/><path d="M7.60925,26.97056c-0.52671,0.34248 -1.64138,1.14756 -2.19754,1.29185c0.26417,-0.46699 0.99135,-0.96006 1.44824,-1.31499c0.47197,0.30498 0.55064,0.34937 0.87525,0.80347c-0.17378,0.473 -0.40315,1.03418 -0.50984,1.51787c-0.00494,0.07397 -0.07857,0.31201 -0.10156,0.39448l-0.19947,-0.08086c-0.00674,-0.8168 0.20496,-1.28555 0.47219,-2.06191c-0.52599,0.6561 -0.9561,1.36509 -1.40192,2.07759l-0.26534,0.0561l-0.23328,-0.18867c0.08365,-0.25518 1.75624,-2.07041 2.11327,-2.49492z" fill="#935a54"/><path d="M4.30951,35.04917c0.61117,0.49995 0.73728,0.54712 1.53883,0.63955c-0.21067,0.05786 -0.65329,0.16641 -0.82997,0.24888c-0.31736,-0.08511 -0.59053,-0.36768 -0.84993,-0.58989z" fill="#702922"/><path d="M9.80201,26.11772c1.88462,-0.89312 4.00155,-2.14307 6.14004,-1.4376c0.72933,0.24053 1.38718,0.92256 1.42057,1.71357c-0.19903,0.29824 -0.30872,0.44473 -0.53689,0.72173c0.23652,0.73726 1.15813,0.86938 0.53367,1.72544c-2.36298,3.23862 -4.61502,0.94687 -6.93732,0.2001c-0.10357,-0.06563 -0.27774,-0.24185 -0.37559,-0.3334c-0.20594,-0.35977 -0.86098,-1.13672 -1.15459,-1.50117c0.69405,0.24141 2.09719,0.98232 2.44003,1.03799l0.27158,-0.26821c-0.15764,-0.54829 -1.31737,-0.37002 -2.37625,-0.99053l-0.14417,-0.08599l-0.07352,-0.09785c0.14556,-0.32593 0.45447,-0.45234 0.79243,-0.68408z" fill="#e4ccc5"/><path d="M9.80201,26.11772c0.59232,-0.09536 1.13518,-0.25181 1.66885,0.01421l0.05817,0.22031c-0.87027,0.64453 -1.38105,0.50435 -2.44593,0.54741l-0.07352,-0.09785c0.14556,-0.32593 0.45447,-0.45234 0.79243,-0.68408z" fill="#c7ac99"/><path d="M10.80765,29.88047c0.13922,0.00366 0.59138,-0.1311 0.44871,-0.18018c2.06487,0.7084 3.5734,2.05488 2.555,4.39995l-0.18339,0.43271c-1.18033,0.62373 -2.17266,0.03574 -3.20815,-0.60425c0.00543,-1.48081 -0.20267,-2.34521 -0.51341,-3.77183c0.25033,-0.13799 0.61564,-0.20552 0.90124,-0.27642z" fill="#e5dfd5"/><path d="M7.73519,27.75088l0.23623,0.03896c0.22385,0.64541 0.31402,1.79575 -0.07182,2.38784c-0.45769,-0.31509 -0.48414,-0.38262 -0.67424,-0.90894c0.10669,-0.48369 0.33606,-1.04487 0.50984,-1.51787z" fill="#e4ccc5"/><path d="M9.66328,29.5916c-0.02399,-0.33721 -0.37995,-1.09175 -0.53011,-1.43423c0.3132,0.00923 0.64432,0.33809 0.91333,0.5502c0.09784,0.09155 0.27202,0.26777 0.37559,0.3334c0.23221,0.37148 0.28362,0.42246 0.38556,0.8395c-0.28561,0.0709 -0.65092,0.13843 -0.90124,0.27642l-0.33237,-0.05669z" fill="#e4ccc5"/><path d="M6.79968,23.4876c0.19056,-0.07632 0.32896,-0.1708 0.50524,-0.27583c0.19903,0.54785 0.36216,0.87495 0.31983,1.46543l-0.16354,0.16743c-0.3586,-0.29751 -0.52897,-0.8981 -0.66153,-1.35703z" fill="#c7ac99"/><path d="M9.3299,25.20908c-0.34738,0.26836 -0.44036,0.44385 -0.80626,0.44077c0.08443,-0.76582 0.27921,-0.94541 0.22105,-1.79604l-0.15118,0.07119c-0.06776,0.70166 -0.09417,0.8814 -0.30405,1.55771l-0.19021,0.09243c-0.64598,-1.56753 -1.17395,-7.08193 0.8504,-7.93608c0.50917,0.07485 0.54453,0.27642 0.97779,0.72188c0.58378,0.07734 1.05084,-0.70137 1.56701,-0.78208c1.59538,-0.24961 1.00243,1.44492 1.81786,2.05371c1.44597,-0.12744 1.7232,0.80522 1.29342,2.09692c-0.53884,1.61938 -1.74742,2.54165 -3.23962,3.26455c-0.8488,0.29209 -1.728,1.02305 -2.83381,1.44595c0.21193,-0.30996 0.65393,-0.91758 0.79759,-1.23091z" fill="#e5dfd5"/><path d="M9.3299,25.20908c0.24255,-0.60542 0.32027,-0.72627 0.79028,-0.98936c0.74527,0.17783 0.59491,0.21914 1.24594,0.77432c-0.8488,0.29209 -1.728,1.02305 -2.83381,1.44595c0.21193,-0.30996 0.65393,-0.91758 0.79759,-1.23091z" fill="#e4ccc5"/><path d="M30.70209,29.09077c0.02416,-1.77041 0.85381,-4.89097 3.30188,-4.60005c0.4745,0.0564 0.76316,0.67881 1.01827,1.08325c0.43262,0.10063 0.54641,-0.13257 0.97961,-0.33574c0.9077,-0.4522 1.84323,0.36021 2.10875,1.23794c0.4991,1.64971 0.23051,2.77427 -0.46791,4.26929c1.4815,-0.18398 2.84129,-0.17124 4.14485,0.67046c1.1552,0.74604 0.63399,1.27764 0.8973,2.08198c0.42515,1.29858 0.59942,1.54702 -0.31546,2.76899l-0.5262,0.13652c-2.0878,1.72764 -3.60196,1.22329 -5.91896,0.28521c2.10962,1.33066 1.45953,0.89385 2.59115,2.66191c0.01245,0.64951 0.15612,1.64238 -0.33625,2.08975c-1.30165,-0.15688 -1.39612,-0.13608 -1.97987,1.01323c-0.3074,0.24917 -0.89833,0.39902 -1.2586,0.29663c-2.34936,-0.6687 -2.88698,-3.00938 -2.70802,-4.96611c-0.61553,1.75752 -0.5489,2.63994 -2.4718,3.56733c-0.13898,0.06665 -0.27914,0.13081 -0.42031,0.19248c-0.6457,0.07222 -1.06177,0.16201 -1.68828,-0.01362c-0.55109,-0.52456 -0.16944,-0.69771 -0.49574,-1.21216c-0.4146,-0.65361 -1.26167,-0.35229 -1.82697,-0.79658c-0.19873,-0.60879 -0.13298,-1.20366 -0.1198,-1.85317l-0.31926,-0.08467c0.20855,-1.1543 0.85542,-1.72559 1.78333,-2.33804c-0.06356,-0.02563 -0.12668,-0.052 -0.18951,-0.07925c-1.78172,-0.77783 -4.07851,-2.82656 -3.09202,-4.94634c0.32571,-0.34849 0.72112,-0.33706 1.21906,-0.41689c0.29173,-0.54302 -0.22934,-0.94849 -0.11394,-1.20879c1.35394,-3.05376 5.05475,-0.62051 6.20468,0.49644z" fill="#702922"/><path d="M33.7181,33.71411c1.36199,-1.10347 2.74214,-2.42271 4.54452,-2.69736c1.35657,-0.20669 3.83584,0.44121 4.04849,2.02383c-0.17603,0.26045 -0.19976,0.25093 -0.23901,0.55649l0.57013,0.17446l0.0268,0.20684l-0.57233,0.04146c-0.01611,0.35347 0.22802,0.60776 0.42646,1.02598c-0.07191,0.57803 -0.34504,0.87305 -0.67997,1.35762c-2.0878,1.72764 -3.60196,1.22329 -5.91896,0.28521c2.10962,1.33066 1.45953,0.89385 2.59115,2.66191c0.01245,0.64951 0.15612,1.64238 -0.33625,2.08975c-1.30165,-0.15688 -1.39612,-0.13608 -1.97987,1.01323c-0.3074,0.24917 -0.89833,0.39902 -1.2586,0.29663c-2.34936,-0.6687 -2.88698,-3.00938 -2.70802,-4.96611c0.35617,0.33237 0.39879,0.42129 0.85337,0.51182c0.41724,-0.2751 0.27855,-0.14897 0.5158,-0.63149c-0.11145,-1.00327 -0.24677,-0.7333 -0.2415,-2.09502l0.15128,-0.06606c0.72244,0.76978 0.48197,1.55757 1.16707,2.09897l0.26347,-0.13945c0.01845,-0.12085 0.03691,-0.24185 0.05536,-0.3627c-0.77136,-1.00063 -1.2214,-1.49619 -1.77586,-2.60889c0.74631,0.42993 1.44195,1.13145 2.1499,1.41138l0.13268,-0.11895c-0.2188,-0.53452 -0.5448,-0.60571 -1.06426,-1.03286l0.04203,-0.1708c0.98078,0.14795 1.43185,-0.05317 2.27438,0.38599l0.26434,-0.17139l-0.0744,-0.20273c-1.02501,-0.42876 -2.58266,-0.43052 -3.71575,-0.46655c1.03248,-0.31699 2.08663,-0.47783 3.12204,-0.75366c0.21499,-0.05728 0.20606,-0.24331 0.24999,-0.43301l-0.18175,-0.0936c-0.82305,0.62168 -1.67335,0.66621 -2.70275,0.86909z" fill="#e5dfd5"/><path d="M25.20975,37.66831c1.06851,-2.77031 2.55776,-2.09121 5.02517,-2.45581c0.59459,-0.08789 1.37605,-0.39902 1.94428,-0.61978c-0.49149,0.45557 -1.39275,1.19326 -1.62194,1.77539l0.17838,0.26821l0.24618,0.02476c0.42295,-0.87085 0.5984,-1.29829 1.30605,-1.97109l0.14133,-0.13198c-0.12683,0.91069 -0.28148,1.35234 -0.36788,2.39634c0.40333,-0.63149 0.51844,-1.31426 0.74207,-2.04521c0.22217,1.04619 0.19126,2.04316 0.79845,2.75522c-0.23725,0.48252 -0.09856,0.3564 -0.5158,0.63149c-0.45458,-0.09053 -0.4972,-0.17944 -0.85337,-0.51182c-0.61553,1.75752 -0.5489,2.63994 -2.4718,3.56733c-0.13898,0.06665 -0.27914,0.13081 -0.42031,0.19248c-0.6457,0.07222 -1.06177,0.16201 -1.68828,-0.01362c-0.55109,-0.52456 -0.16944,-0.69771 -0.49574,-1.21216c-0.4146,-0.65361 -1.26167,-0.35229 -1.82697,-0.79658c-0.19873,-0.60879 -0.13298,-1.20366 -0.1198,-1.85317z" fill="#e4ccc5"/><path d="M25.3994,30.0731c-0.12199,-0.29883 -0.4641,-1.12544 -0.40933,-1.34531c0.63574,-2.5563 5.20706,-0.48398 5.81263,1.22212c0.18482,0.52046 0.44594,0.98467 0.68436,1.40317l0.05756,0.09976l-0.03163,0.18252l-0.35016,0.48691c0.19097,0.43945 0.46703,1.28115 0.41109,1.75576c-0.48021,0.13843 -0.78527,-0.03604 -1.33592,-0.17139l-0.1775,0.16597c0.45766,0.5896 0.63735,-0.10151 1.57669,0.39126c-1.35291,1.51421 -4.75028,0.93604 -6.22797,-0.17124c-0.98649,-0.73931 -2.64593,-2.49551 -1.49233,-3.73521c0.22715,-0.24404 1.1347,-0.25942 1.48252,-0.28433z" fill="#e5dfd5"/><path d="M31.4156,30.3668c-0.56603,-1.66128 -0.17105,-4.90884 1.71157,-5.45684c0.37037,-0.10796 0.76857,-0.06079 1.10365,0.13037c0.3033,0.173 0.59313,0.75396 0.76857,1.06802c0.33215,-0.17944 1.00846,-0.5877 1.35906,-0.53525c1.72929,0.2584 1.92964,2.82803 1.34222,4.09116c-0.6952,1.49502 -3.04896,3.0769 -4.36628,3.97178c0.44829,-0.93809 1.72065,-2.45493 1.69458,-2.76035l-0.26742,-0.07778c-0.28924,0.16567 -1.28877,2.01387 -1.69253,2.61299c0.11848,-0.94658 0.68583,-3.07939 0.39952,-3.57583l-0.27562,0.02725c-0.26493,0.53394 0.02504,1.19707 -0.09373,1.74844c-0.08626,0.40093 -0.39659,1.17026 -0.55241,1.57046c-0.02431,-1.12002 0.02944,-1.97329 -0.37125,-3.03428z" fill="#e5dfd5"/><path d="M31.4156,30.3668l0.75993,-0.21987c-0.12844,1.01631 0.09812,1.84131 0.28119,2.8415c-0.49574,-0.09434 -0.68378,-0.96753 -0.94373,-1.35308l0.03163,-0.18252c0.03749,-0.32622 -0.06678,-0.74985 -0.12902,-1.08604z" fill="#c7ac99"/><path d="M52.46732,53.26934l0.20459,-0.1834c-0.87358,-2.33877 -0.99543,-5.64463 1.76268,-6.89253c0.24955,-0.11279 0.53923,-0.07031 0.80255,-0.02256c1.1801,0.66211 1.1514,2.47749 1.15784,3.66372c0.70633,-1.02876 2.44983,-3.26499 4.11644,-2.57036c0.652,0.27173 0.69872,1.10757 0.70619,1.73862c4.45562,-0.7248 3.51702,3.37881 1.37371,5.5103c1.3636,0.2231 3.60752,0.72144 3.32853,2.74644c-0.15553,1.12896 -1.21086,1.61382 -2.18783,1.95029c0.49442,0.24097 0.85322,0.15205 1.16223,0.31304c2.27599,0.50933 4.96966,1.59683 1.7949,3.62051c1.85758,2.04814 2.54971,4.4606 -1.1366,4.552c-2.10743,0.05215 0.44199,3.2231 -2.65222,2.90405c-0.62564,0.31099 -0.07982,1.19575 -2.08194,0.76392c-1.58313,-0.34146 -2.96929,-3.14399 -3.51877,-3.44312c-0.47406,0.47915 -0.45781,0.62827 -1.02545,0.73462c-1.97709,-1.05967 -1.01652,-6.30396 0.47435,-6.83057l0.65478,-0.0936c0.64365,-0.32007 0.43057,-0.31362 1.03409,-0.28813c0.33113,0.26968 0.65478,0.54829 0.97068,0.83555c0.25175,-0.03501 0.40362,-0.09272 0.64116,-0.17036c0.07118,-0.06533 0.21792,-0.27583 0.28397,-0.3646l-0.0826,-0.37324l0.51272,-0.06328c1.01241,-1.05615 -1.83723,-3.62124 -2.65559,-4.3519l0.09563,-0.71338l-0.43642,-0.38584c-0.19624,-0.05654 -0.34738,-0.19688 -0.52254,-0.32344c-0.15187,-0.27656 -0.12888,-0.35054 -0.14777,-0.66445l-0.40845,-0.03442l-0.59518,-0.03706c-0.72566,-0.37544 -1.42746,-0.7916 -2.22927,-0.93779c-0.4745,-0.21592 -0.77194,-0.26514 -1.27295,-0.38057z" fill="#702922"/><path d="M53.86373,53.85835l-0.46645,-0.63853c-1.51533,-2.09106 -0.92835,-7.05923 1.75067,-6.52119c1.07817,0.63267 0.99382,3.79233 1.2709,5.14116c0.11599,-0.96797 0.12492,-1.5498 0.68554,-2.36982c0.81163,-1.1874 1.9437,-2.68389 3.51965,-1.6478c0.48519,0.84141 -0.05053,1.0563 0.495,1.55493c0.62286,-0.00688 1.93667,-0.35391 2.26647,0.14048c2.14609,3.21636 -2.00228,6.24785 -4.91401,5.76914l-1.22711,0.24536c-0.15187,-0.27656 -0.12888,-0.35054 -0.14777,-0.66445l-0.40845,-0.03442l-0.59518,-0.03706c-0.72566,-0.37544 -1.42746,-0.7916 -2.22927,-0.93779z" fill="#e5dfd5"/><path d="M56.093,54.79614c0.04188,-0.57407 0.13649,-2.82144 0.44389,-3.1415l0.73811,0.30352c-0.02739,0.36606 -0.45663,0.53145 -0.51448,0.68569c-0.17764,0.47314 -0.09153,1.70186 -0.07235,2.18936z" fill="#702922"/><path d="M57.09663,54.86763c0.53777,-0.20024 0.86933,-0.49819 1.21188,-0.37163c0.10295,0.34819 0.11657,0.42876 0.163,0.79072l-1.22711,0.24536c-0.15187,-0.27656 -0.12888,-0.35054 -0.14777,-0.66445z" fill="#e4ccc5"/><path d="M57.4033,61.73071c0.64365,-0.32007 0.43057,-0.31362 1.03409,-0.28813c0.33113,0.26968 0.65478,0.54829 0.97068,0.83555c0.25175,-0.03501 0.40362,-0.09272 0.64116,-0.17036c2.19764,2.90098 0.19566,7.02217 -2.03449,5.94551c-0.76682,-1.10933 0.28294,-1.36333 0.05477,-2.54619c-0.34636,0.81885 -0.83711,2.00229 -1.5307,2.56992c-0.48563,0.05566 -0.28953,0.08672 -0.73987,-0.17212c-0.30359,-0.47007 -0.32659,-1.01279 -0.27972,-1.56328c0.18292,-2.14395 0.32805,-3.17988 1.88409,-4.61089z" fill="#e4ccc5"/><path d="M57.76694,55.85552c1.6174,-0.11777 6.3772,-1.64663 7.43384,-0.06577c1.7968,2.68828 -2.76236,3.1541 -4.38562,3.25166c-0.80914,-0.83379 -1.50698,-1.57471 -2.40179,-2.32207l-0.13078,-0.09565l0.05345,-0.35757l-0.13268,-0.02476z" fill="#e5dfd5"/><path d="M58.33604,56.26611c0.47597,0.14854 2.89797,0.48589 2.96797,0.5439l-0.06795,0.24902c-0.46073,0.19937 -1.90284,-0.28506 -2.82269,-0.3397l-0.13078,-0.09565z" fill="#935a54"/><path d="M64.89426,59.5229c-0.84795,0.21138 -2.86209,0.43315 -3.71531,0.11851l0.12287,-0.15732l0.1567,0.24668l-0.04555,-0.01494c0.69447,-0.59048 1.29873,-0.44561 2.31905,-0.50596c0.49442,0.24097 0.85322,0.15205 1.16223,0.31304z" fill="#c7ac99"/><path d="M61.01975,62.91592c2.22986,1.04751 2.99638,1.12881 5.34575,0.44619c0.8645,0.96533 1.65651,1.89697 1.37737,3.27275c-2.27834,1.41357 -4.3531,0.7377 -6.1937,-1.00474c-0.1239,-1.13101 -0.20078,-1.63315 -0.52942,-2.71421z" fill="#e4ccc5"/><path d="M62.80514,60.11221c1.2154,-0.10708 5.29478,-0.2688 4.83171,1.8375c-0.46381,0.66914 -1.40666,0.99404 -2.15136,1.28687c-1.21086,0.20581 -4.66973,0.08438 -4.94696,-1.36187c0.40084,-0.11821 0.518,-0.1645 0.89452,-0.34658c0.16666,-0.40166 0.13151,-0.48369 0.10017,-0.93882l-0.01069,-0.13843c0.29773,-0.323 0.7387,-0.26719 1.28262,-0.33867z" fill="#e4ccc5"/><path d="M61.39482,66.1125c0.70296,0.56909 1.26197,0.84653 2.06452,1.27061c1.98382,1.04854 0.94519,2.6937 -0.84605,2.99912l-0.15026,0.02461c-0.18497,0.32959 -0.19126,0.35244 -0.44477,0.62593l-0.55388,0.01611c-0.48505,-0.15688 -0.95047,-0.36899 -1.38718,-0.63208c-0.49149,-0.30117 -1.55897,-1.13555 -1.68667,-1.71665c1.67774,-1.22402 1.66939,0.56924 3.00429,-2.58765z" fill="#e4ccc5"/><path d="M201.36986,59.07759l-31.50743,0.02842c-3.90438,-0.01187 -7.92445,0.18164 -11.81272,0.00952c-4.10062,-0.18149 -8.12656,-3.09155 -8.21735,-7.52139c-0.03222,-1.95747 0.71614,-3.84712 2.08107,-5.25073c3.87509,-3.95845 10.83004,-2.44233 15.82401,-2.68843c1.47622,-0.07266 3.8458,0.39785 5.0218,-0.78354c0.91239,-0.9167 0.32512,-2.59365 -0.96072,-2.95298c-4.13138,-0.37764 -8.52344,-0.05654 -12.67385,-0.13872c-2.25534,-0.04468 -4.23829,0.18545 -6.45702,-0.00894c-3.0286,-0.12129 -4.47261,-3.18267 -2.42523,-5.41655c1.31806,-1.43745 5.88879,-0.97485 7.76482,-0.96885l10.04506,0.01846l33.31756,-0.0252v0.73799l-33.18429,0.02153l-10.39068,0.00264c-1.56556,-0.00132 -5.32495,-0.34805 -6.60933,0.50918c-2.16747,1.44712 -0.84795,4.29478 1.59192,4.37505c1.66075,0.13169 3.13112,0.08042 4.71865,0.07412l9.93376,-0.09331c2.04152,-0.00747 6.09382,-0.48325 6.57564,2.18057c0.64292,3.5644 -3.46356,3.30044 -5.75552,3.23511c-4.1636,-0.04644 -9.32013,-0.30952 -12.10562,3.36196c-2.25534,2.92603 -1.444,6.55444 1.43229,8.70117c2.87044,2.14219 5.51973,1.83135 8.87931,1.83735c8.57909,0.01523 17.15525,0.01831 25.73434,0.01216c3.05496,-0.00205 6.12897,-0.07002 9.17954,-0.02241z" fill="#c7ac99"/><path d="M158.038,44.58589c0.37199,-0.03135 0.51258,-0.11514 0.76594,0.04028c-1.57581,0.93311 -2.86897,1.83735 -3.81651,3.45015c-0.90946,1.52329 -1.16575,3.34966 -0.71029,5.0647c0.72054,2.69927 2.48234,3.88096 4.70546,5.19404c-0.949,-0.01816 -1.43668,-0.06255 -2.37543,-0.20845c-8.73286,-2.53682 -7.68134,-12.48984 1.43082,-13.54072z" fill="#e5dfd5"/><path d="M9.57403,30.1002l0.33237,0.05669c0.31074,1.42661 0.51885,2.29102 0.51341,3.77183c1.0355,0.63999 2.02782,1.22798 3.20815,0.60425l0.21719,0.21475c2.33942,1.32803 8.45799,3.21167 11.04533,2.83594l0.31926,0.08467c-0.01318,0.64951 -0.07894,1.24438 0.1198,1.85317c0.5653,0.44429 1.41237,0.14297 1.82697,0.79658c0.32629,0.51445 -0.05536,0.6876 0.49574,1.21216c0.62652,0.17563 1.04258,0.08584 1.68828,0.01362l0.26332,0.41411c4.94374,1.81479 11.06465,5.9606 15.86326,8.42168c2.19486,1.12573 5.37167,2.01768 7.0002,2.8897l0.12346,0.20845c0.50101,0.11543 0.79845,0.16465 1.27295,0.38057l0.10281,0.12466c0.18995,0.22822 0.39996,0.44443 0.60426,0.66035c-0.31531,0.03647 -0.62329,-0.14868 -0.95881,-0.28066c-1.40959,-0.43682 -1.96859,-0.53262 -3.25502,0.2855l-0.28162,-0.17051c-0.85088,-0.63252 -4.25249,-1.87339 -5.39378,-2.29146c0.44316,1.1937 2.78418,4.39878 2.33033,5.19565c-1.78011,-0.3104 -4.46338,-6.07075 -5.28146,-6.57231c-2.60199,-1.59536 -8.82718,-4.98882 -11.57328,-5.775c-0.13093,0.07368 -0.26288,0.14575 -0.39556,0.21606c-0.17164,0.09023 -0.63281,0.30557 -0.78029,0.19761c-3.26805,-2.39136 -6.35919,-3.53979 -10.23603,-4.76104l-0.10369,0.47256c-0.60221,-0.32124 -0.92572,-0.48706 -1.56409,-0.72759l-0.24267,0.21548l-0.43232,-0.09038c-0.26625,-0.07646 -0.85044,-0.16963 -1.14744,-0.22676c-0.19317,-0.44546 -0.09768,-0.41982 -0.43554,-0.62417c-0.69163,0.17988 -1.69297,0.40679 -2.32756,0.6772l0.22468,0.33706l-0.26327,0.52954c-0.5579,0.22632 -1.13811,0.45176 -1.7269,0.18486c-0.36544,0.02622 -0.46135,0.06226 -0.78887,-0.11089c-0.11797,-0.57935 0.11183,-0.88081 0.33594,-1.51831c-0.51674,-0.75059 -0.80155,-1.15518 -1.51085,-1.71709c-0.57227,-0.76963 -0.64408,-0.80874 -1.53034,-0.99126c-0.88187,-0.57891 -1.23752,-0.74912 -2.21397,-1.15986c0.17668,-0.08247 0.6193,-0.19102 0.82997,-0.24888c0.33518,-0.21694 0.87639,-0.71162 1.19833,-0.98833c0.35363,0.52324 0.73994,1.02378 1.11946,1.52886c2.25581,-1.76631 2.17437,-3.37412 1.25623,-5.91357z" fill="#492412"/><path d="M10.2545,37.94531c1.67796,0.90381 2.77041,1.23076 4.565,1.76104c-0.69163,0.17988 -1.69297,0.40679 -2.32756,0.6772c-0.76422,-0.59561 -1.65362,-1.67314 -2.23745,-2.43823z" fill="#e5dfd5"/><path d="M16.40249,40.55728c0.55329,-0.70415 1.5348,-0.1251 2.34277,0.12993l-0.10369,0.47256c-0.60221,-0.32124 -0.92572,-0.48706 -1.56409,-0.72759l-0.24267,0.21548z" fill="#c7ac99"/><path d="M55.31388,28.38486c-1.13822,-3.71602 1.48252,-7.82168 3.47425,-5.96602c0.20913,0.19482 1.90005,-2.49346 2.89021,-1.31777c0.81558,0.67148 0.04115,1.1291 1.74862,1.35923c0.80343,0.70049 0.44799,1.96377 1.22111,1.74067c2.51061,-0.72451 3.435,1.16953 2.41336,3.35566c-1.05606,2.25996 2.63831,1.9853 0.16769,4.39043c-2.67478,2.60493 -5.23606,2.06338 -8.35707,0.74385c-1.00451,0.51782 -2.9668,1.39702 -4.11937,1.05718l-0.04555,-0.51973c0.03793,-0.24888 0.05712,-0.27129 0.01508,-0.51606c-0.65097,-0.16377 -0.62403,-0.08745 -0.8768,-0.65977l-0.41431,-0.2748c0.43013,-1.52373 0.78776,-2.21455 1.88277,-3.39287z" fill="#702922"/><path d="M55.173,28.66011c1.12196,1.48755 1.58533,2.58062 3.05189,3.72539l0.13459,0.10737c-1.11683,0.50347 -2.39857,1.04487 -3.65234,0.7355c0.03793,-0.24888 0.05712,-0.27129 0.01508,-0.51606c-0.65097,-0.16377 -0.62403,-0.08745 -0.8768,-0.65977c0.35514,-1.42925 0.54509,-2.11392 1.32758,-3.39243z" fill="#e5dfd5"/><path d="M57.6467,22.20293l0.36598,0.14956c0.22817,0.50347 0.45341,2.39443 0.58829,3.11001c0.55505,-0.51929 0.95325,-0.95435 1.77308,-0.94351c0.38678,0.00161 0.75451,0.16816 1.01095,0.45791c1.52148,1.73159 0.18819,4.29478 -1.34749,5.53945c-0.66533,0.37808 -1.79915,1.00649 -2.5273,0.70781c-0.21323,-0.66328 -0.31267,-0.67559 -0.75642,-1.1729c-1.35862,-1.52271 -1.76195,-3.73608 -0.93231,-5.61519c0.43511,-0.9854 1.00407,-1.55684 1.82522,-2.23315z" fill="#e4ccc5"/><path d="M63.32328,28.58628c1.21935,-0.08247 3.88446,-0.09375 4.0955,1.47349l-0.45063,0.04277l-0.08392,0.29707c0.15612,0.19321 0.27987,0.22588 0.50774,0.31274c-0.18658,2.38066 -4.24707,2.84443 -6.10641,2.48555l-0.61202,-0.27949l-0.04027,-0.17886c0.49281,-0.18281 1.44152,-0.49321 1.51518,-1.08823c-1.10658,0.0022 -2.45495,1.69395 -3.57355,0.12261c0.24648,-0.44883 1.04449,-0.53716 1.38821,-0.82515c1.30488,-1.09292 1.69678,-1.80454 3.36017,-2.3625z" fill="#e4ccc5"/><path d="M62.40913,25.22813c0.96438,0.07734 2.975,-1.46221 4.13899,-0.5811c0.652,0.49336 0.63853,2.72373 -0.07762,3.30498c-1.54872,0.62329 -2.47678,-0.08218 -4.33465,0.67412c0.35192,-1.2186 0.52854,-2.04331 0.10837,-3.30146z" fill="#e4ccc5"/><path d="M62.24423,25.32466c-1.20412,-1.28599 -1.35789,-1.20425 -3.00019,-0.99932c-0.46952,-0.20874 -0.31194,-0.04219 -0.50364,-0.50142c0.09973,-1.03228 1.2381,-2.36309 2.27189,-2.57842c0.7384,0.30791 0.60382,0.78428 1.09999,1.11357c1.70249,1.12969 2.64212,1.35674 0.29686,2.86904z" fill="#e4ccc5"/><path d="M48.86448,36.75923c7.35769,-0.04409 12.2323,-1.43481 19.22255,-3.7481c1.81936,-0.60205 3.63872,-1.08237 5.35864,-2.02119c1.42467,-0.77769 2.50841,-3.40356 3.69993,-3.67529c0.00264,0.66548 -0.78117,1.42266 -0.91107,2.3228c0.76447,0.27437 3.24799,-1.32993 3.97526,-1.76777l0.58844,-0.4856c0.23828,0.31509 0.33757,0.51357 0.47933,0.88242c0.19668,0.08174 0.25819,0.12305 0.46586,0.16406l0.20737,0.19351c-0.26771,0.28125 -0.32966,0.30938 -0.79508,0.36372c-0.12888,-0.03252 -0.25761,-0.06489 -0.38648,-0.09727c-2.63699,1.1291 -6.58194,3.21577 -9.12432,4.16265c-4.54949,1.69409 -9.20107,3.22515 -13.7428,4.72046c5.95352,0.83657 10.9718,1.0248 16.96223,0.47021c0.39366,-0.03647 0.97038,0.0583 1.24469,0.35229c-0.67382,0.7415 -5.78554,0.93647 -7.04575,1.06011c1.20573,1.13862 2.55396,2.35825 3.71839,3.5168l0.50438,0.13286c-0.34445,0.24946 -0.76228,0.53423 -1.08681,0.79761l-0.12082,0.38525c-1.40842,-1.54658 -3.32575,-3.11353 -4.94682,-4.47876c-5.4386,-0.01758 -9.02093,-0.87158 -14.0067,-1.28232c-3.37467,-0.27788 -10.80661,0.3605 -14.22433,0.73872l-0.38517,-0.11587c-1.13163,-1.76807 -0.48153,-1.33125 -2.59115,-2.66191c2.317,0.93809 3.83115,1.44243 5.91896,-0.28521l0.5262,-0.13652c3.08704,0.48032 8.33642,-1.49912 10.90356,-3.13813c0.13679,0.21973 0.29378,0.5061 0.46322,0.68892l-0.02636,0.1396c-0.48695,0.65229 -3.77008,2.15479 -4.84533,2.80195z" fill="#492412"/><path d="M188.79267,261.62256c-0.23139,-0.92432 -0.67074,-1.99072 -0.21675,-2.77295c0.67074,-0.56836 1.50112,-0.52295 2.28756,-0.69141c0.1113,-0.0249 0.43057,-1.07227 1.21554,-0.91553c3.92928,0.78369 5.77895,6.33545 3.89999,9.59766l-0.12009,0.00586l-0.18599,-0.3999c-0.5448,-0.08057 -1.02808,0.45117 -1.87311,0.54346l0.81134,0.57422l0.15817,0.29297l0.35148,0.08203c-1.34442,1.41064 -2.69469,2.24121 -4.67617,2.28809c-1.40007,0.03369 -4.44478,-0.34277 -4.52679,-2.10938c0.24457,-0.44678 0.8626,-0.8042 1.30341,-1.11768c-2.33589,-1.59082 -1.70908,-1.08838 -1.58899,-3.31787c0.01904,-0.35156 -0.52429,-0.48633 -0.33977,-1.49561c0.66928,-1.01367 2.36225,-0.90967 3.37423,-0.52441z" fill="#702922"/><path d="M194.61116,267.56396c-1.28291,3.22412 -8.45168,2.68799 -7.99914,0.35156c1.52162,-1.93213 5.11846,-1.52197 7.18781,-0.92578z" fill="#e4ccc5"/><path d="M188.66672,261.66211l0.12595,-0.03955c0.02783,0.15674 0.00439,0.15527 -0.02929,0.32373c-1.12328,0.39551 -2.1001,1.29199 -2.95977,1.18213c-0.30755,-0.32959 -0.22553,-0.16406 -0.25922,-0.65918c0.8128,-1.1001 2.51163,-0.38379 3.12233,-0.80713z" fill="#c7ac99"/><path d="M191.47858,259.13232c3.5075,0.2959 6.34718,4.1001 3.91609,7.19971c-0.5199,-0.08643 -1.08959,-0.19482 -1.53188,-0.50684c-1.58606,-1.125 -4.87095,-5.00977 -2.38422,-6.69287z" fill="#e4ccc5"/><path d="M188.98452,262.39014c0.24164,-0.01465 1.06909,-0.04102 1.21115,0.10986c1.4733,1.56152 2.31392,2.79346 4.04497,4.125c-1.14817,-0.28125 -2.07667,-0.53467 -3.26,-0.64453c-1.45865,0.00732 -2.01077,0.26074 -3.34494,0.79541c-0.65171,-0.41309 -1.62267,-0.94775 -1.72666,-1.76221c-0.22553,-1.76807 1.7662,-2.41846 3.07547,-2.62354z" fill="#e4ccc5"/><path d="M189.19248,258.72656c0.55798,-0.03955 0.98415,-0.09961 1.53773,0.02344c0.20942,0.44092 -0.495,1.15869 -0.54187,1.71094c-0.03368,0.37061 0.11716,1.05322 0.19185,1.42529l-0.10398,0.12012c-0.51551,0.0498 -0.31633,0.06738 -0.81134,-0.16406c-0.45693,-0.54053 -0.71322,-1.22168 -0.72933,-1.9292c-0.01757,-0.72363 0.05565,-0.77344 0.45693,-1.18652z" fill="#e5dfd5"/><path d="M191.41121,257.64258c1.74716,0.05273 3.31272,1.29053 3.96589,2.88428c-2.11768,-1.50146 -1.20675,-1.27295 -3.79308,-1.80762c-0.28558,-0.36475 -0.1816,-0.52002 -0.17281,-1.07666z" fill="#e4ccc5"/><path d="M14.8195,39.70635c0.33786,0.20435 0.24238,0.17871 0.43554,0.62417c0.297,0.05713 0.88119,0.15029 1.14744,0.22676l0.43232,0.09038l0.24267,-0.21548c0.63838,0.24053 0.96189,0.40635 1.56409,0.72759c1.02032,0.73652 2.87468,3.48003 3.14855,4.83413c0.35324,1.74697 -1.38176,1.73452 -2.56157,2.01475c-0.02973,0.052 -0.05096,0.40591 -0.0435,0.44868c0.22392,1.26108 0.22422,1.39028 -0.52327,2.36748c-1.70454,2.22861 -4.07649,0.11411 -5.3297,-1.40508c-0.36635,-0.44414 -0.87491,-1.57266 -1.29625,-1.82358l-0.18951,0.27686c-1.88649,3.81885 -5.94144,-3.20742 -1.11988,-6.43799c0.58879,0.26689 1.169,0.04146 1.7269,-0.18486l0.26327,-0.52954l-0.22468,-0.33706c0.63459,-0.27041 1.63593,-0.49731 2.32756,-0.6772z" fill="#702922"/><path d="M14.8195,39.70635c0.33786,0.20435 0.24238,0.17871 0.43554,0.62417c0.297,0.05713 0.88119,0.15029 1.14744,0.22676l0.43232,0.09038c6.69251,3.02241 -0.72713,6.70503 -4.38146,0.60249l0.26327,-0.52954l-0.22468,-0.33706c0.63459,-0.27041 1.63593,-0.49731 2.32756,-0.6772z" fill="#e4ccc5"/><path d="M14.8195,39.70635c0.33786,0.20435 0.24238,0.17871 0.43554,0.62417c-1.05571,-0.06782 -1.54346,-0.01875 -2.53842,0.39009l-0.22468,-0.33706c0.63459,-0.27041 1.63593,-0.49731 2.32756,-0.6772z" fill="#702922"/><path d="M11.84633,47.873c-2.3304,-0.38496 -1.41228,-5.05298 -0.29213,-5.79404c1.61793,0.30483 0.64397,4.52344 0.48163,5.51719z" fill="#e4ccc5"/><path d="M14.30581,45.00908c0.6083,0.31538 1.28563,1.7647 1.94129,2.15947c0.6747,0.4062 1.52529,0.47637 2.36035,0.8688c0.81383,0.84829 0.15802,2.00098 -0.44096,2.78423l-0.2601,-0.42539c-0.03017,0.0687 -0.06019,0.1374 -0.09036,0.20625l0.02651,0.15088c-1.26285,2.0001 -4.09734,-1.31514 -4.80288,-2.42007c1.20996,-1.34443 1.34101,-1.41973 1.26616,-3.32417z" fill="#e5dfd5"/><path d="M19.88333,43.58496c1.09516,0.92505 1.22155,1.19473 1.7599,2.54429c-1.24439,0.47446 -0.74763,0.52603 -1.62648,1.17275c-0.64512,0.47476 -0.87168,-0.3104 -1.32245,-0.47432c-0.09212,0.34263 -0.07,0.37427 -0.34182,0.6126c-0.50452,0.06519 -0.88032,-0.14121 -1.36844,-0.32827c-1.32889,-0.90103 -1.82434,-1.57192 -2.44968,-3.02227c1.15843,0.49644 3.26102,1.28291 4.471,0.74399c0.6252,-0.27847 0.63984,-0.64761 0.87797,-1.24878z" fill="#e5dfd5"/><path d="M10.91256,41.73018l0.11798,0.12231c-0.41667,1.02026 -0.88945,2.45112 -1.08193,3.53159c-0.16171,0.90762 0.96395,2.41362 -0.18265,3.0936c-1.52884,-2.23081 -1.04734,-5.15244 1.14661,-6.74751z" fill="#e4ccc5"/><path d="M12.32124,42.24375c0.93214,0.60454 1.53009,1.70273 2.07284,2.64712c-0.26543,0.98906 -0.44269,1.75503 -0.88404,2.69077c-0.33854,0.22236 -0.16091,0.17461 -0.54108,0.17959c-0.57158,-0.79995 -0.03938,-2.5979 -0.17772,-3.66387c-0.09051,-0.69727 -0.25645,-1.18682 -0.47,-1.85361z" fill="#e4ccc5"/><path d="M0,276.26807l36.11462,-0.03369l11.45333,0.00439c2.2098,-0.00879 7.13113,-0.54199 8.73213,0.99902c0.69052,0.65918 1.08798,1.56592 1.10351,2.51953c0.0145,0.89941 -0.33376,1.7666 -0.96614,2.40674c-1.61257,1.59814 -6.6455,1.125 -8.95386,1.12646l-12.08907,0.01465l-23.13893,-0.01611c-4.00635,-0.00586 -8.27047,0.06738 -12.25559,-0.0249v-0.83643l36.32097,-0.02637l10.94661,0.01318c1.98587,0.00293 4.12625,-0.02197 6.10524,-0.04248c4.25864,-0.04541 3.8146,-4.8999 0.40464,-5.23828c-1.94575,-0.19189 -4.47627,-0.06445 -6.47898,-0.06299l-11.33705,-0.02051l-35.96144,-0.01611z" fill="#c7ac99"/><path d="M201.36986,19.79985c-2.67273,-0.02695 -5.28687,0.06899 -8.02843,0.03867c-2.42083,-0.02637 -7.3694,0.60483 -7.66231,-2.94697c-0.32805,-3.97794 5.83314,-3.30233 8.16756,-3.28863l7.52318,0.01723z" fill="#e5dfd5"/><path d="M80.20979,27.86968c-1.25567,-3.64497 1.29594,-8.02939 5.12402,-8.05239c0.37945,0.20493 0.94519,0.93032 0.84326,0.91567c1.7249,0.24917 3.18384,0.07222 2.27262,2.59482c0.64424,0.1522 1.32435,0.24258 1.8261,0.65332c0.36466,0.72305 -0.36979,2.05488 -0.23183,2.27446c3.0103,4.78696 -6.36124,5.84751 -8.88825,2.73223c0.46542,-0.05435 0.52737,-0.08247 0.79508,-0.36372l-0.20737,-0.19351c-0.20767,-0.04102 -0.26918,-0.08232 -0.46586,-0.16406c-0.14176,-0.36885 -0.24106,-0.56733 -0.47933,-0.88242z" fill="#702922"/><path d="M80.79823,27.38408c-0.93143,-0.47578 -0.18028,-1.81099 0.06224,-2.6124c0.5117,-1.6916 4.57366,-3.51826 5.07027,-1.17305c0.40245,1.8999 -2.05353,4.59097 -4.18732,4.83193c-0.20767,-0.04102 -0.26918,-0.08232 -0.46586,-0.16406c-0.14176,-0.36885 -0.24106,-0.56733 -0.47933,-0.88242z" fill="#e4ccc5"/><path d="M86.73652,26.27622c1.13001,-0.03384 1.52045,0.02065 2.64241,0.21929c0.3982,0.32798 0.53015,0.41221 0.79699,0.84814c-0.11643,0.16641 -0.15787,0.19482 -0.31121,0.31992l-0.15641,0.12656c-0.05375,0.71133 0.12551,0.09961 0.44785,0.78428c-0.59767,1.29448 -2.81435,1.71343 -4.07997,1.83896c-1.83459,-0.01011 -2.84876,-0.41045 -4.32528,-1.4272c2.58237,-0.87949 3.1153,-2.41479 4.98562,-2.70996z" fill="#e4ccc5"/><path d="M80.09468,25.59697c0.31956,-2.08066 1.05928,-3.22427 2.7502,-4.546c0.70121,-0.54829 1.97928,-1.11812 2.80043,-0.5729c0.35119,0.70342 -0.00103,1.0519 0.17296,1.76279c0.44916,-0.86587 0.04584,-0.77725 0.72186,-1.22373c0.85791,-0.08027 1.65109,0.34248 1.73061,1.27368c0.0949,1.11387 -1.09091,1.65747 -1.6174,2.4252l-0.22568,-0.00396c-0.13576,-0.69155 -0.28734,-1.82578 -0.70047,-2.34097c-0.40669,-0.26836 -0.48461,-0.2647 -0.97566,-0.29062l-0.07615,-0.15762l0.30828,-0.54053l-0.15158,-0.24888l-0.22641,0.02856c-0.2519,0.59194 -0.652,0.83159 -1.21642,1.09028c-1.90254,0.87217 -2.37748,1.48184 -3.29456,3.34468z" fill="#e4ccc5"/><path d="M86.65333,24.71602c1.12152,-0.50552 1.14539,-1.0708 2.8845,-0.80303c0.99674,0.69331 0.53191,1.38867 0.12697,2.34009c-2.2054,-0.67441 -2.3233,-0.08599 -3.5775,-0.30454l-0.10662,-0.24478c0.14396,-0.36431 0.27372,-0.64028 0.44697,-0.9917z" fill="#e4ccc5"/><path d="M201.36986,248.62646l-31.38294,-0.0249l-9.93083,0.02344c-1.7208,0.00146 -3.41377,0.03955 -5.15507,-0.06152c-4.36423,-0.25342 -4.80944,-6.07764 -0.59752,-6.81445c1.64904,-0.28711 4.1636,-0.11279 5.91222,-0.1084l9.90886,0.00732l31.24528,0.01758v0.80859l-30.30214,-0.01318l-10.11975,0.00439c-1.79549,-0.00732 -8.7724,-0.7749 -8.8676,2.41553c-0.03954,1.30371 1.5597,2.9502 2.81332,2.83594c1.95219,0.14355 3.83115,0.1084 5.7643,0.104l9.03016,-0.01904c10.4024,-0.01904 21.30566,-0.12598 31.6817,0.05273z" fill="#c7ac99"/><path d="M13.15007,0h0.52489h9.77211c0.52927,0.47168 0.56969,0.36499 0.75056,0.95851c-0.26464,1.27993 -2.52891,2.09073 -3.68573,1.82718c-1.32523,-0.30195 -2.67551,-1.65798 -3.66727,-2.54719l-0.10237,0.20933c0.51038,1.22774 3.97233,1.91203 2.56201,5.43209c-0.11804,0.29471 -0.20283,0.37597 -0.4581,0.58104c-1.07788,0.33863 -1.90928,-0.68174 -2.44441,-0.05306c-0.3014,0.35418 -0.37931,0.58597 -0.90551,0.69863c-2.11803,-0.13685 -3.11643,-2.69505 -2.95547,-4.54241c0.0237,-0.26071 0.05616,-0.52056 0.09733,-0.77909l-0.25083,-0.21188c0.25948,-0.52184 0.51375,-1.04626 0.76277,-1.57317z" fill="#e4ccc5"/><path d="M13.15007,0h0.52489c-0.5582,0.70742 -0.70812,0.93393 -1.03684,1.78504l-0.25083,-0.21188c0.25948,-0.52184 0.51375,-1.04626 0.76277,-1.57317z" fill="url(#color-2)"/><path d="M201.36986,20.65225l-8.11777,0.04849c-2.87336,0.01025 -8.46486,0.56982 -8.43996,-4.04458c0.0249,-4.45906 5.51827,-3.93614 8.65231,-3.93113l7.90541,0.02234v0.87278l-7.52318,-0.01723c-2.33443,-0.0137 -8.49561,-0.68931 -8.16756,3.28863c0.2929,3.55181 5.24147,2.92061 7.66231,2.94697c2.74156,0.03032 5.35571,-0.06563 8.02843,-0.03867z" fill="#c7ac99"/><path d="M53.86373,53.85835c0.80182,0.14619 1.50361,0.56235 2.22927,0.93779l0.59518,0.03706l0.40845,0.03442c0.01889,0.31392 -0.0041,0.38789 0.14777,0.66445c0.17516,0.12656 0.32629,0.26689 0.52254,0.32344l0.43642,0.38584l-0.09563,0.71338c0.81837,0.73066 3.66801,3.29575 2.65559,4.3519l-0.51272,0.06328l0.0826,0.37324c-0.06605,0.08877 -0.21279,0.29927 -0.28397,0.3646c-0.23754,0.07764 -0.38941,0.13535 -0.64116,0.17036c-0.31589,-0.28726 -0.63955,-0.56587 -0.97068,-0.83555c-0.60352,-0.02549 -0.39044,-0.03193 -1.03409,0.28813l-0.65478,0.0936c0.74338,-1.03125 -0.67587,-2.38447 -1.02237,-3.8354c-0.04262,-0.02783 -0.31092,-0.34746 -0.36452,-0.40942c0.28704,-0.6145 -0.61949,-0.97705 -1.11303,-1.33638l0.0186,-0.20918c0.37067,0.02842 0.69183,0.03721 1.06353,0.04395l0.15626,-0.18281c-0.52312,-1.32422 -1.13177,-0.05757 -1.87501,-1.53237c0.33552,0.13198 0.6435,0.31714 0.95881,0.28066c-0.2043,-0.21592 -0.41431,-0.43213 -0.60426,-0.66035z" fill="#e4ccc5"/><path d="M53.86373,53.85835c0.80182,0.14619 1.50361,0.56235 2.22927,0.93779l0.59518,0.03706l0.40845,0.03442c0.01889,0.31392 -0.0041,0.38789 0.14777,0.66445c0.17516,0.12656 0.32629,0.26689 0.52254,0.32344l0.43642,0.38584l-0.09563,0.71338c-0.60089,-0.42539 -1.11317,-0.78823 -1.74569,-1.16411l-0.21719,0.12056c-0.5013,1.92861 1.30502,4.75283 3.34435,5.28721c0.25204,0.0646 0.50599,0.12173 0.7614,0.17153l0.0826,0.37324c-0.06605,0.08877 -0.21279,0.29927 -0.28397,0.3646c-0.23754,0.07764 -0.38941,0.13535 -0.64116,0.17036c-0.31589,-0.28726 -0.63955,-0.56587 -0.97068,-0.83555c-0.60352,-0.02549 -0.39044,-0.03193 -1.03409,0.28813l-0.65478,0.0936c0.74338,-1.03125 -0.67587,-2.38447 -1.02237,-3.8354c-0.04262,-0.02783 -0.31092,-0.34746 -0.36452,-0.40942c0.28704,-0.6145 -0.61949,-0.97705 -1.11303,-1.33638l0.0186,-0.20918c0.37067,0.02842 0.69183,0.03721 1.06353,0.04395l0.15626,-0.18281c-0.52312,-1.32422 -1.13177,-0.05757 -1.87501,-1.53237c0.33552,0.13198 0.6435,0.31714 0.95881,0.28066c-0.2043,-0.21592 -0.41431,-0.43213 -0.60426,-0.66035z" fill="#740904"/><path d="M0,7.32898c0.66206,1.04953 0.09514,1.02482 0.42347,1.89417c0.54675,1.44766 1.07535,3.0356 1.59916,4.46276c0.30737,0.83745 0.90425,3.43195 1.1831,4.01496l-0.14004,0.30952c-0.65497,0.31758 -0.63233,0.33604 -0.68841,1.10742c-0.7329,0.50449 -1.54829,-0.61875 -2.10572,1.1231c-0.29635,0.92607 0.97152,2.71069 0.3579,3.19526l-0.62947,0.0564v-3.71938v-5.76976z" fill="#492412"/><path d="M0,14.00344c0.56049,1.34505 0.90203,3.29856 1.16347,4.73748c-0.42944,0.3438 -0.80225,0.61392 -1.16347,1.03228z" fill="#e5dfd5"/><path d="M50.35696,54.64819c1.28642,-0.81812 1.84543,-0.72231 3.25502,-0.2855c0.74324,1.4748 1.35189,0.20815 1.87501,1.53237l-0.15626,0.18281c-0.37169,-0.00674 -0.69286,-0.01553 -1.06353,-0.04395l-0.0186,0.20918c0.49354,0.35933 1.40007,0.72188 1.11303,1.33638c0.0536,0.06196 0.3219,0.38159 0.36452,0.40942c-2.36035,0.78354 -4.3906,1.32261 -5.78964,-1.75605c-0.35383,-0.77856 -0.2024,-1.04678 0.13884,-1.75518z" fill="#e5dfd5"/><path d="M50.07534,54.47769l0.28162,0.17051l-0.19991,0.52954l0.15934,0.25591c0.63252,0.11602 0.87329,0.05405 1.41838,0.11118c0.14147,0.51182 0.3695,1.12603 0.30755,1.62979l-0.36305,0.09126l-0.35573,0.20991c1.25435,0.94438 2.73907,1.03667 4.03809,0.10371c0.0536,0.06196 0.3219,0.38159 0.36452,0.40942c-2.36035,0.78354 -4.3906,1.32261 -5.78964,-1.75605c-0.35383,-0.77856 -0.2024,-1.04678 0.13884,-1.75518z" fill="#702922"/><path d="M51.32354,57.47578c-0.49456,-0.49424 -0.93611,-0.84229 -0.88793,-1.59712l0.40406,-0.23628c0.43701,0.29795 0.48651,0.34175 0.76447,0.79072c-0.00044,0.26792 -0.00439,0.38379 0.04203,0.64966l0.0331,0.18311z" fill="#e4ccc5"/><path d="M6.21244,0h6.93762c-0.24902,0.52691 -0.50329,1.05133 -0.76277,1.57317c-1.13205,1.89694 -5.05702,1.83104 -5.62809,0.02802c0.12451,-1.01998 0.20405,-0.98064 -0.54676,-1.60119z" fill="#e4ccc5"/><path d="M5.61248,0h0.59997c0.75081,0.62055 0.67127,0.58121 0.54676,1.60119c0.57107,1.80302 4.49604,1.86892 5.62809,-0.02802l0.25083,0.21188c-0.04117,0.25853 -0.07364,0.51838 -0.09733,0.77909c-0.16096,1.84736 0.83744,4.40556 2.95547,4.54241c0.5262,-0.11266 0.60411,-0.34444 0.90551,-0.69863c0.53513,-0.62868 1.36653,0.39168 2.44441,0.05306c0.25526,-0.20508 0.34006,-0.28633 0.4581,-0.58104c1.41032,-3.52006 -2.05163,-4.20435 -2.56201,-5.43209l0.10237,-0.20933c0.99176,0.88922 2.34204,2.24525 3.66727,2.54719c1.15681,0.26355 3.42109,-0.54725 3.68573,-1.82718c-0.18087,-0.59353 -0.22129,-0.48683 -0.75056,-0.95851h0.66415c0.19126,0.22711 0.28734,0.42721 0.4291,0.68455c0.14938,2.23101 -2.847,2.39197 -4.36526,2.52658c-0.63545,0.82907 0.19053,3.22749 -1.75726,3.90683c-0.66489,0.02432 -0.77692,-0.32631 -1.31791,-0.55582c-0.5095,-0.21617 -0.43086,0.41266 -1.18947,0.87204c-3.11776,0.35294 -3.30561,-2.547 -3.87906,-4.66695c-0.58945,0.10896 -1.00837,0.49055 -1.61717,0.57825c-1.9118,0.27538 -3.97219,-0.16925 -4.04821,-2.49756c-0.01369,-0.41946 -0.43844,-0.6198 -0.7535,-0.84791z" fill="#702922"/><path d="M201.36986,255.2959c-2.11182,0.00146 -16.63242,0.14355 -17.32952,-0.12158l-0.11423,-0.27246l0.18306,-0.2417c1.01051,-0.18604 3.84726,-0.06152 5.10088,-0.06445l12.15981,-0.02197z" fill="#c7ac99"/><path d="M29.34054,41.54385c0.14118,-0.06167 0.28133,-0.12583 0.42031,-0.19248c1.9229,-0.92739 1.85626,-1.80981 2.4718,-3.56733c-0.17896,1.95674 0.35866,4.29741 2.70802,4.96611c0.36027,0.10239 0.9512,-0.04746 1.2586,-0.29663c0.58375,-1.14932 0.67821,-1.17012 1.97987,-1.01323c0.49237,-0.44736 0.3487,-1.44023 0.33625,-2.08975l0.38517,0.11587c-0.01743,0.77183 0.05902,1.62612 -0.44345,2.20767c-0.45737,0.16465 -1.2709,-0.02783 -1.34398,0.11953c-1.26328,2.54619 -3.82852,1.28408 -5.28058,-1.67065c-0.75993,1.04165 -1.08769,1.21655 -2.22869,1.83501z" fill="#702922"/><path d="M53.43111,31.77773l0.41431,0.2748c0.25277,0.57231 0.22583,0.496 0.8768,0.65977c0.04203,0.24478 0.02285,0.26719 -0.01508,0.51606l0.04555,0.51973l-1.01652,0.06958c-0.16944,-0.18281 -0.32644,-0.46919 -0.46322,-0.68892c0.02973,-0.41309 0.10764,-0.93032 0.15817,-1.35103z" fill="#740904"/><path d="M7.23234,37.09746c0.88626,0.18252 0.95807,0.22163 1.53034,0.99126c-0.48327,0.03633 -0.60043,0.04014 -1.0777,-0.03457c-0.42614,-0.39829 -0.2872,-0.24272 -0.45264,-0.95669z" fill="#492412"/><path d="M70.46159,121.77349l9.48298,-14.20708c2.27892,-3.46289 11.42316,-15.22046 3.47601,-17.25425c-0.26332,-0.06738 -0.2888,-0.25576 -0.34167,-0.4522l0.2043,-0.26016c0.51961,-0.08672 6.01327,0.04219 7.56155,0.05859c8.72832,0.09302 17.68994,-0.01377 26.42851,-0.05244c0.1567,-0.00059 0.27884,0.28564 0.34445,0.40767c-0.23022,0.46406 -2.15971,0.62183 -2.88464,0.97632c-2.66262,1.30239 -2.56816,4.49678 -1.81204,7.03901c0.9966,3.34995 2.35537,6.74985 3.61763,10.06978l6.58033,17.22466l4.57849,12.15308c0.55066,1.46162 1.62516,4.60444 2.29152,5.9001l0.06942,0.13257c1.11698,-0.51621 1.30004,-0.69053 1.97826,-1.71445l0.37242,0.33398c0.04335,0.69492 0.19434,0.88799 0.72508,1.38428l-0.13371,0.0501c-0.66108,0.11821 -2.11768,0.10649 -2.84671,0.1207c1.02062,3.22104 2.78052,7.53208 3.99679,10.78257c1.45543,-3.50391 2.66248,-7.11182 4.19992,-10.5958c0.42207,-0.2395 0.28807,-0.16597 0.83785,-0.15791l0.16798,0.20332c0.12727,1.13804 -1.37605,4.16074 -1.81189,5.40293c-1.79227,5.1123 -3.95183,10.08691 -5.76738,15.19482l-3.36119,-0.01318c-0.72025,-2.36572 -2.16322,-5.79932 -3.10095,-8.24268l-6.23309,-16.23149l-10.36769,-27.36152c-1.69165,-4.46353 -3.33293,-8.98345 -5.10337,-13.41533c-1.49116,-3.73301 -2.97442,-6.48457 -6.8167,-8.11875c-6.3608,1.68677 -11.27598,10.50425 -14.74862,15.70605l-10.83604,16.21348c1.82053,2.62852 4.02608,6.58213 5.73413,9.42231l9.2056,15.21299c2.90529,4.86328 6.12223,11.12256 10.78888,14.44775c0.88017,0.62842 3.61192,1.11914 3.99972,1.95117l-0.11789,0.25928c-1.42116,0.14941 -7.11663,0.07471 -8.89806,0.02783c-3.73127,-0.09521 -9.09796,0.19922 -12.62655,-0.09229l-0.10559,-0.20361c0.75188,-1.09131 2.61737,-0.31201 3.46459,-3.34277c-0.56955,-3.25635 -5.01638,-9.88477 -6.85126,-12.90381l-10.25082,-16.85522l-10.01504,15.26836c-1.53393,2.33247 -4.40143,6.45015 -5.58227,8.81733c-0.59796,1.22754 -1.00333,2.53857 -1.20178,3.8877c-0.71981,4.99951 2.59013,3.99463 3.36398,5.02734l-0.13898,0.31055c-0.11819,0.02783 -0.2374,0.04834 -0.35719,0.06592c-0.33054,0.04688 -2.56845,0.06152 -2.87395,0.03076c-1.75111,-0.18164 -10.35085,0.32813 -11.18386,-0.30469c0.14601,-0.64893 3.00517,-1.76514 3.81431,-2.34668c5.30269,-3.81445 8.7787,-9.79248 12.32779,-15.17139l11.05586,-16.86724c-1.7681,-2.60054 -3.99137,-6.60586 -5.63777,-9.3895l-9.70617,-16.29463c-2.87966,-4.80718 -6.20615,-12.02212 -11.80657,-13.64824c-0.10457,-0.03032 -0.0927,-0.49336 -0.09856,-0.59429c0.22026,-0.1478 0.81163,-0.22471 1.04229,-0.18955c2.12676,0.32402 19.37691,-0.2606 19.81069,0.2521c-0.36452,0.56777 -2.96885,1.25083 -3.34669,2.8645c-0.22436,1.21948 0.31941,3.14268 0.885,4.20088c4.51215,8.44263 9.82861,16.57983 14.55838,24.88037z" fill="#740904"/><path d="M132.03668,141.79468l0.37242,0.33398c0.04335,0.69492 0.19434,0.88799 0.72508,1.38428l-0.13371,0.0501c-0.86274,-0.1188 -2.04724,-0.06562 -2.94205,-0.05391c1.11698,-0.51621 1.30004,-0.69053 1.97826,-1.71445z" fill="#740904"/><path d="M127.69734,183.05273c4.21852,-0.38525 7.94188,2.74365 8.28985,6.9668c0.34797,4.22168 -2.81273,7.91895 -7.0374,8.22949c-4.17268,0.30762 -7.81286,-2.80664 -8.15658,-6.97705c-0.34372,-4.17041 2.7376,-7.83984 6.90413,-8.21924z" fill="#001731"/><path d="M127.26253,183.57129c7.08675,-0.96387 8.79671,11.57666 2.20613,14.15479c-7.21519,0.76758 -8.7355,-11.38477 -2.20613,-14.15479z" fill="#e5dfd5"/><path d="M167.29369,130.91792c3.51921,-0.54492 6.81143,1.87441 7.34304,5.39648c0.53162,3.52207 -1.89947,6.80537 -5.42307,7.32349c-3.50457,0.51519 -6.76603,-1.90078 -7.29325,-5.40381c-0.52869,-3.50303 1.87311,-6.77402 5.37328,-7.31616z" fill="#740904"/><path d="M167.46797,131.26143c6.13482,-0.32812 7.06772,9.76113 1.72812,12.04204c-6.22562,0.71704 -7.30204,-10.29346 -1.72812,-12.04204z" fill="#e5dfd5"/><path d="M88.91761,181.21436c4.2954,0.13623 5.93038,4.59375 1.54388,6.1875c1.16502,-1.99219 1.95029,-5.0376 -1.07451,-5.85059c-7.83937,0.62695 4.26655,11.00244 5.65461,12.58447l0.16168,0.30762c1.28921,1.03857 1.94077,2.41992 3.69071,2.09473l0.15143,-0.02783l0.0804,0.13184c-0.20327,0.38232 -0.35822,0.52295 -0.6788,0.78809c-1.95029,1.61279 -2.79721,0.15234 -3.93587,-1.19971c-0.5675,0.49805 -1.18845,0.98584 -1.86373,1.32861c-1.65226,0.854 -3.57823,1.00635 -5.34458,0.4248c-1.42511,-0.47314 -2.69748,-1.45459 -3.36383,-2.81836c-0.53791,-1.08838 -0.61583,-2.34668 -0.21616,-3.49365c0.59503,-1.70654 1.79988,-2.50342 3.33835,-3.23437c-2.23938,-3.05127 -2.51207,-6.28711 1.85641,-7.22314z" fill="#001731"/><path d="M87.14702,188.64844c0.24238,0.12451 6.28801,6.49219 7.07094,7.29639c-0.71439,0.6167 -1.09604,0.84521 -1.9415,1.23633c-0.7387,0.19336 -1.70893,0.25195 -2.46418,0.14063c-1.48794,-0.21387 -2.82445,-1.02539 -3.70052,-2.24707c-1.55633,-2.18701 -1.18142,-4.87061 1.03526,-6.42627z" fill="#e5dfd5"/><path d="M149.81478,89.49932c3.00517,0.10459 6.01181,0.14839 9.01844,0.1314c1.13353,-0.00469 7.24932,-0.15952 7.90834,0.03237l0.08055,0.27817c-0.38663,0.83599 -2.16308,1.00459 -2.95245,1.43701c-5.80677,3.17651 -7.72674,9.91875 -9.96158,15.64629c-1.98441,5.08813 -3.79308,10.27705 -5.84925,15.32227c-0.46278,1.15986 -2.36137,6.76318 -2.84071,7.38354c-0.44506,0.1311 -0.50057,0.127 -0.95296,0.01948c-0.32087,-0.69155 2.11123,-6.66138 2.55908,-7.85098l6.12897,-16.10918c1.92729,-5.21807 5.97812,-13.66816 -1.91997,-15.17476c-1.00172,-0.19087 -1.13206,-0.12173 -1.21847,-1.11562z" fill="#740904"/><path d="M150.70081,193.17627c-0.89042,3.80127 -3.92781,5.95898 -7.81213,4.98047c-1.77118,-0.43359 -3.28811,-1.57178 -4.1986,-3.15234c-1.17937,-2.05811 -1.48911,-4.50146 -0.86084,-6.78955c1.8529,-6.73975 11.10244,-7.55273 12.56401,0.05859c-1.20968,0.08643 -2.08107,0.09668 -3.29368,0.0791c-1.7019,0.04541 -3.40513,0.04541 -5.10747,0l-1.98895,0.01172c-0.07864,2.6543 -0.12565,4.97461 1.8154,7.12061c2.36752,2.61768 6.35304,1.77246 8.14706,-1.05176c0.25482,-0.40137 0.49647,-0.84082 0.73518,-1.25684z" fill="#001731"/><path d="M140.80762,187.8999l-0.48329,-0.13623c-0.76784,-2.63525 6.27146,-8.27344 7.94979,-0.3501c0.02636,0.12451 0.05126,0.25049 0.07615,0.37646c-1.16575,0.02344 -3.33102,0.00293 -4.41373,0.12158c-0.70296,-0.07764 -2.35654,-0.01758 -3.12892,-0.01172z" fill="#e5dfd5"/><path d="M140.80762,187.8999c0.77238,-0.00586 2.42596,-0.06592 3.12892,0.01172l0.15509,0.01465c1.05972,0.10254 3.28767,-0.04834 3.99796,0.14502c-0.25336,0.22266 -0.60631,0.21533 -0.99001,0.28125c-1.7019,0.04541 -3.40513,0.04541 -5.10747,0c-0.50774,-0.12451 -1.40651,-0.06592 -1.71172,-0.28857z" fill="#04050a"/><path d="M137.40879,127.04121c0.2497,-0.68496 0.44492,-1.58979 0.9736,-1.98516c0.49456,-0.05479 0.32527,-0.10825 0.68656,0.13506c0.5281,0.99082 0.81353,1.95322 1.23941,3.04702c1.85158,4.75649 3.28738,9.76157 5.52105,14.35166c0.12741,0.26191 1.06953,0.7481 1.38293,1.01191c-1.40725,0.0835 -3.3836,0.05361 -4.80798,-0.01699c0.41929,-0.28169 0.81148,-0.48838 0.87622,-1.01367c0.21997,-1.78667 -1.94047,-4.8832 -1.99861,-6.52178c-2.10215,0.14473 -4.64132,0.08701 -6.7776,0.09111c-0.54392,1.57236 -1.68785,4.48931 -2.09527,5.98828l-0.37242,-0.33398c1.30297,-3.94351 2.78813,-7.86768 4.21017,-11.77075c0.35822,-0.9832 0.72684,-2.03599 1.16194,-2.98271z" fill="#740904"/><path d="M137.40879,127.04121l0.35529,0.28359c0.53952,0.40474 2.7975,7.13994 3.2906,8.35752l0.22729,0.36694c-2.10215,0.14473 -4.64132,0.08701 -6.7776,0.09111c-0.54392,1.57236 -1.68785,4.48931 -2.09527,5.98828l-0.37242,-0.33398c1.30297,-3.94351 2.78813,-7.86768 4.21017,-11.77075c0.35822,-0.9832 0.72684,-2.03599 1.16194,-2.98271z" fill="#e5dfd5"/><path d="M137.40879,127.04121l0.35529,0.28359c-1.10204,2.79126 -2.10274,5.59248 -3.16597,8.39004l6.45658,-0.03252l0.22729,0.36694c-2.10215,0.14473 -4.64132,0.08701 -6.7776,0.09111c-0.54392,1.57236 -1.68785,4.48931 -2.09527,5.98828l-0.37242,-0.33398c1.30297,-3.94351 2.78813,-7.86768 4.21017,-11.77075c0.35822,-0.9832 0.72684,-2.03599 1.16194,-2.98271z" fill="#740904"/><path d="M115.52098,176.49756c1.74481,0.0542 3.49036,0.08057 5.23606,0.07764c-0.73255,0.25195 -1.63966,0.45117 -1.98909,1.22754c-0.64995,1.4458 -0.18907,13.31543 -0.3055,16.07959c0.02534,1.58643 0.01508,3.17432 -0.03061,4.76221c-1.32611,-1.67578 -3.30393,-4.88379 -4.50541,-6.75439l-8.61233,-13.57178c-0.11438,3.38818 0.05477,7.05762 -0.13166,10.37256c-0.17384,-1.37109 0.10896,-9.35449 -0.23037,-9.91846c-0.27328,-0.95508 -0.41753,-1.44873 -1.36858,-1.96729c-0.19771,-0.10693 -0.39893,-0.20654 -0.60323,-0.30029c1.34515,0.04834 2.55586,0.08203 3.90086,0.05566c1.97855,2.93262 3.86147,6.02051 5.75156,9.02051c1.76034,2.79346 3.66112,5.49609 5.43259,8.26172l0.02182,-14.48291c-0.04511,-2.17822 -0.53718,-2.2793 -2.56611,-2.8623z" fill="#001731"/><path d="M115.52098,176.49756c1.74481,0.0542 3.49036,0.08057 5.23606,0.07764c-0.73255,0.25195 -1.63966,0.45117 -1.98909,1.22754c-0.64995,1.4458 -0.18907,13.31543 -0.3055,16.07959l-0.25263,-0.03662c-0.09124,-3.21533 0.08348,-6.62695 0.02827,-9.85547c-0.02124,-1.25098 0.10047,-3.5083 -0.15099,-4.63037c-0.04511,-2.17822 -0.53718,-2.2793 -2.56611,-2.8623z" fill="#04050a"/><path d="M60.26861,196.17041c-2.38202,2.69531 -7.65938,3.48047 -8.5911,-0.87012c-0.79889,-3.73242 5.64758,-5.36572 8.42517,-5.59131l0.18233,0.29443c0.25907,0.78369 0.35075,4.44434 0.04042,5.4375c-0.03617,0.11572 -0.33903,0.47461 -0.44213,0.5918z" fill="#e5dfd5"/><path d="M60.26861,196.17041c-2.38202,2.69531 -7.65938,3.48047 -8.5911,-0.87012c-0.79889,-3.73242 5.64758,-5.36572 8.42517,-5.59131l0.18233,0.29443c-2.48879,0.59326 -7.50941,1.69336 -6.4453,5.43018c0.24062,0.82764 0.82291,1.51318 1.60041,1.88379c1.57361,0.74707 3.38067,-0.04834 4.44317,-1.28467z" fill="url(#color-3)"/><path d="M28.96328,178.52051l-0.04364,-0.15234c-0.28763,-0.98145 -0.57379,-1.06201 -1.41999,-1.70654c0.27782,-0.14795 3.1131,-0.03223 3.70535,-0.03369c0.86552,2.35693 6.30881,16.78564 7.38918,18.14795l0.5631,-0.04834c-0.49295,1.26123 -1.00509,2.51514 -1.53598,3.76025c-0.908,-1.48975 -1.99144,-4.43555 -2.67419,-6.15088l-3.67284,-9.22852c-0.34753,-0.87598 -1.345,-3.55518 -1.75887,-4.26562z" fill="#001731"/><path d="M45.78697,176.59717c0.30667,0.00146 4.25513,-0.00293 4.24488,-0.01172c-0.82686,0.42627 -1.60408,0.74268 -1.90591,1.70508c-0.35309,1.12646 -0.24135,18.09229 0.18614,18.75439c0.41724,0.646 1.31103,0.83057 2.00257,1.05029l-6.72444,-0.04395c1.37576,-0.39844 2.11665,-0.62549 2.16557,-2.25732c0.10544,-3.52441 0.01816,-7.05908 0.03925,-10.5835c-0.00395,-1.27588 0.06458,-5.83008 -0.13312,-6.76611l-0.47479,-0.31201z" fill="#001731"/><path d="M62.66733,183.07617c1.30751,0.05713 5.33623,-0.0835 6.19135,0.09229c-0.50613,0.31787 -1.3617,0.86865 -1.15403,1.36816c0.71248,1.71387 4.05376,10.18359 4.87095,10.96582l0.44858,0.20361c-0.84941,1.9585 -3.72717,10.29053 -7.14109,8.85645c-0.85147,-0.35742 -1.07173,-2.23096 -1.20734,-3.16846c3.28269,2.76416 5.41546,-0.31641 6.6518,-3.16846c-0.73284,-1.18359 -1.473,-3.17432 -2.05558,-4.5c-1.16809,-2.68506 -2.35303,-5.36865 -3.59405,-8.02148c-0.89247,-1.90723 -1.15037,-1.98633 -3.01059,-2.62793z" fill="#001731"/><path d="M47.5063,2.66181c1.86666,-0.26984 4.01275,2.68781 3.71546,4.43281c-0.09739,0.57196 -0.29363,0.97286 -0.34372,1.61357c0.18716,0.1835 0.37169,0.36954 0.55388,0.55803c0.75012,0.77771 0.54494,1.43836 -0.18775,2.18109c-0.4414,0.44747 -1.45118,0.20323 -2.0279,0.11751c-1.0956,-0.37305 -1.12489,-0.47662 -1.68272,-1.51184l-0.16124,-0.05817c-1.66588,-0.61592 -3.9965,-1.98646 -2.72047,-4.23385c0.23388,-0.4119 -0.12976,-1.38025 0.34753,-1.98658c0.58229,-0.7397 1.7473,-0.76255 2.50694,-1.11258z" fill="#702922"/><path d="M48.07848,9.75413c-1.53231,-0.2602 -3.94421,-1.60135 -3.31169,-3.45564l0.49427,-0.13017c0.24809,-0.36992 -0.95515,-2.04334 1.05796,-2.80452c0.80753,-0.31102 1.70864,-0.26854 2.48351,0.11708c1.57742,0.7927 2.61473,3.41924 1.79285,4.95403c-0.40289,0.19923 -0.33859,0.10313 -0.93333,-0.09166l-0.13005,0.15031l0.18175,0.7784l0.14909,0.45552c-0.07923,0.64458 -0.08685,0.84438 -0.05594,1.49297c-0.54919,-0.07966 -0.91839,-0.09185 -1.39363,-0.39368c-0.37975,-0.57261 -0.27313,-0.31487 -0.33479,-1.07266z" fill="#e5dfd5"/><path d="M49.71375,9.27198l0.14909,0.45552c-0.07923,0.64458 -0.08685,0.84438 -0.05594,1.49297c-0.54919,-0.07966 -0.91839,-0.09185 -1.39363,-0.39368c-0.37975,-0.57261 -0.27313,-0.31487 -0.33479,-1.07266c0.73811,-0.01642 1.06763,-0.02041 1.63527,-0.48215z" fill="#c7ac99"/><path d="M49.86284,9.7275l0.34357,-0.4437c0.59562,-0.06731 0.37067,-0.11631 0.86494,0.14977c0.49881,0.7398 0.45429,1.237 -0.28016,1.75002c-0.45473,0.09388 -0.52268,0.09289 -0.9843,0.03688c-0.0309,-0.64859 -0.02329,-0.84839 0.05594,-1.49297z" fill="#d89997"/><path d="M155.4136,186.28418c0.52283,-0.66064 1.05884,-1.41064 1.72519,-1.91748c3.05057,-2.31885 6.06892,-1.67725 7.27421,1.97607l0.22993,0.38965c-0.28411,0.87158 0.29876,7.2041 0.09226,8.67334c-0.24457,1.75195 0.5448,2.18848 2.09571,2.6543l-6.4907,0.01465c1.18479,-0.34277 2.32564,-0.80273 2.18065,-2.29687c-0.31048,-3.18604 1.03541,-9.30469 -1.41325,-11.67187c-1.81013,-1.75049 -4.4565,1.22754 -5.50655,2.63818z" fill="url(#color-4)"/><path d="M52.5609,185.63818c1.39216,-1.396 2.62162,-2.61475 4.7122,-2.57227c8.19963,0.16406 3.95813,9.42041 5.67482,14.12842c0.15597,0.42773 1.66178,0.75439 2.06408,0.85547l-4.49619,0.01758c-0.04701,-0.55664 -0.0848,-1.39014 -0.24721,-1.89697l-0.38531,-0.1377c0.1031,-0.11719 0.40596,-0.47607 0.44213,-0.5918c0.31033,-0.99316 0.21865,-4.65381 -0.04042,-5.4375l-0.18233,-0.29443c1.72343,-2.08301 -2.42156,-10.82666 -6.44296,-3.20801c-0.36788,-0.28418 -0.74265,-0.56543 -1.09882,-0.86279z" fill="#001731"/><path d="M168.52973,183.28125c1.00612,-0.27832 2.35493,-0.28564 3.28343,0.25195c1.06177,0.6167 1.64025,1.88232 1.90386,3.03369c0.47157,2.05664 -0.33977,10.10156 0.89335,10.94531c0.41299,0.28125 0.97683,0.40283 1.45719,0.53467l-6.29153,0.03516c0.44521,-0.1582 1.56556,-0.50098 1.66222,-1.02832c0.55798,-3.05859 0.58287,-8.79785 -0.16988,-11.80371c-0.15231,-0.61084 -1.28584,-1.38281 -1.75595,-1.58643l-0.0205,-0.10547c-0.48329,-0.02197 -0.55944,-0.01904 -0.96218,-0.27686z" fill="#001731"/><path d="M180.77009,183.47021l0.21235,-0.0293c0.81134,0.69727 -0.45253,12.44238 0.80548,13.94531c0.17281,0.20801 1.14232,0.54785 1.44108,0.65771l-5.03498,0.01611l-0.63413,-0.07471c0.82745,-0.41162 1.59631,-0.92432 1.58606,-1.98779c-0.03368,-3.0249 -0.03075,-5.99414 -0.03075,-9.0249c0,-1.01221 0.22114,-2.49902 -1.14378,-2.88867c-0.23871,-0.06738 -0.35148,-0.104 -0.48036,-0.30908c0.56676,-0.15234 2.57607,-0.25488 3.27903,-0.30469z" fill="#001731"/><path d="M151.35398,183.83789c1.30048,-0.03516 2.73717,-0.11572 4.01568,-0.32959c-0.01318,0.97412 -0.02783,1.79883 0.04394,2.77588l0.18746,0.45996c-0.45253,0.56396 -0.32366,9.32227 0.09959,10.40479c0.19185,0.48779 1.2214,0.77051 1.68418,0.92285c-2.05763,0.01758 -4.11673,0.01611 -6.17437,-0.00439c0.36759,-0.11572 0.77033,-0.22266 1.11449,-0.40137c0.42178,-0.21826 0.64585,-0.57275 0.75569,-1.02539c0.29583,-1.2085 0.47743,-11.06689 -0.04833,-11.8623c-0.02197,-0.03223 -0.04686,-0.06152 -0.0703,-0.09375c-0.3632,-0.49365 -1.05005,-0.65186 -1.60803,-0.84668z" fill="#001731"/><path d="M176.25794,139.59492c0.55505,1.69175 1.25508,2.94302 3.02274,3.58638c1.70469,0.62036 3.66566,0.14238 4.25586,-1.76499c1.24923,-4.00503 -5.53145,-3.3646 -6.69427,-6.38818c-0.79962,-2.08081 0.21675,-3.4752 2.14843,-4.18594l0.4291,0.33384c-0.53015,0.23584 -1.45719,0.96035 -1.53334,1.44551c-0.48768,3.10913 6.1773,3.20024 7.16584,6.31406c0.27679,0.73813 0.20357,1.78433 -0.22846,2.51602c-2.125,3.59004 -6.31935,2.22744 -8.9335,0.92974c0.15084,-0.77813 0.26361,-1.97183 0.36759,-2.78643z" fill="#740904"/><path d="M155.25543,130.89785c7.03696,-0.75469 3.66273,7.62246 4.80505,11.50356c0.22846,0.77827 0.70443,0.96797 1.41179,1.26665c-0.70882,0.00044 -4.14163,0.07251 -4.64396,-0.0665c0.18599,-0.22998 0.38224,-0.26602 0.66196,-0.36943c0.96804,-1.38486 0.55505,-5.11743 0.62681,-6.82222c0.08201,-1.95117 -0.08933,-5.13149 -2.77817,-4.99263z" fill="#740904"/><path d="M152.02473,133.87969c-0.06444,0.07456 -0.32805,0.40854 -0.33244,0.52808c-0.10398,2.50752 -0.15231,5.56084 0.08494,8.0313c0.03368,0.35801 0.87138,0.37266 1.30634,1.24688c-0.46425,0.08511 -4.26904,0.04146 -4.5883,-0.16362c0.41592,-0.19966 0.8626,-0.31216 1.11303,-0.71558c0.43642,-0.69917 0.47597,-9.0854 0.17135,-10.02935c-0.17281,-0.53672 -0.50818,-0.77197 -0.98561,-1.01997c-0.16695,-0.08701 -0.14938,-0.10063 -0.23725,-0.25723c0.25336,-0.08408 2.57021,-0.20186 3.01835,-0.25459c0.00439,0.62021 -0.05565,1.87529 0.16695,2.38491z" fill="#740904"/><path d="M146.76421,271.74609c3.2805,-0.22998 3.85459,2.52686 0.95193,4.17773c-3.50779,0.51709 -3.76701,-2.72314 -0.95193,-4.17773z" fill="#702922"/><path d="M146.73492,272.16943c2.81625,-0.30176 3.3464,1.91602 0.88896,3.32373c-0.75129,0.10107 -1.49966,0.27539 -1.96405,-0.44971c-0.83506,-1.30225 -0.01626,-2.2002 1.0751,-2.87402z" fill="#e4ccc5"/><path d="M28.96328,178.52051l0.55212,0.32227c-0.05814,0.42041 -0.05668,1.03418 -0.05712,1.47217c-0.00557,5.18115 -0.05053,10.36523 0.00557,15.54639c0.01757,1.61719 0.64394,1.74609 2.02541,2.22656c-1.50376,-0.04102 -3.06624,-0.02783 -4.57512,-0.03516c1.13104,-0.36475 1.90386,-0.56689 1.99671,-1.93213c0.13752,-2.02002 0.08128,-4.08545 0.07982,-6.10986z" fill="#04050a"/><path d="M104.95207,178.77246c0.33933,0.56396 0.05653,8.54736 0.23037,9.91846c0.10632,2.28516 -0.37389,6.27246 0.28192,8.41846c0.15817,0.51855 1.41471,0.80859 1.97489,0.97705c-1.55912,0.00879 -3.11823,-0.01025 -4.67661,-0.05713c0.56442,-0.19775 1.65284,-0.54199 1.7432,-1.21289c0.57116,-4.23633 0.04379,-8.83447 0.21089,-13.10889c0.06078,-1.55273 -0.13473,-3.55078 0.23535,-4.93506z" fill="#04050a"/><path d="M153.18901,126.69683c1.71787,0.10532 2.40912,1.31338 4.03179,1.3374c0.44228,0.00659 0.65903,-0.42627 0.99733,-0.77021l0.14645,0.22427c-0.00439,0.93149 -0.99879,1.71841 -1.79402,2.05928c-1.45279,-0.14019 -2.44133,-1.25962 -3.79893,-1.50732c-0.33977,-0.0624 -0.61802,0.61509 -1.2463,0.65537c-0.37931,-0.7396 1.05152,-1.71797 1.66368,-1.99878z" fill="#740904"/><path d="M45.1871,178.13232l0.47479,0.31201c-0.61861,1.14404 -1.29858,3.14209 -1.84601,4.41357c-1.64962,3.8291 -3.02304,8.06836 -4.6586,11.86963l-0.5631,0.04834c2.1682,-5.4375 4.52884,-11.19287 6.59292,-16.64355z" fill="#04050a"/><path d="M72.5756,195.50244c1.59851,-3.27393 2.99917,-6.85693 4.40202,-10.23486c0.34943,-0.84229 -0.06898,-1.41943 -0.80401,-1.81201l-0.34885,-0.18896c0.28089,-0.28418 3.06053,-0.08496 3.65995,-0.08643l-0.06488,0.15967l-0.16066,0.04834c-0.73343,0.22559 -1.17146,0.53906 -1.50068,1.28467c-0.63706,1.44434 -1.23692,2.95459 -1.84411,4.41211c-0.94256,2.21631 -1.90606,4.42383 -2.89021,6.62109z" fill="#04050a"/><path d="M179.64681,177.91699c0.84502,-0.17139 1.67247,0.36328 1.86432,1.20557c0.19039,0.84082 -0.32366,1.68018 -1.15989,1.89111c-0.55944,0.14209 -1.1511,-0.03223 -1.54506,-0.45117c-0.39542,-0.42041 -0.53162,-1.021 -0.35734,-1.57031c0.17428,-0.54932 0.63267,-0.96094 1.19797,-1.0752z" fill="#001731"/><path d="M23.95613,65.05327c2.259,0.22588 2.71783,1.8665 0.8377,3.17109c-1.55077,0.06021 -2.76938,-2.11538 -0.8377,-3.17109z" fill="#702922"/><path d="M23.64536,65.39106c1.61828,0.03662 2.43636,0.73125 1.39436,2.26377c-1.59119,0.35361 -1.87237,-1.04839 -1.39436,-2.26377z" fill="#e5dfd5"/><path d="M95.32615,191.1958l-0.09724,-0.15967c-0.52151,-0.84082 -0.72859,-0.8833 -1.47696,-1.52783l0.06766,-0.1333c1.11361,-0.00439 2.43123,0.02197 3.52727,-0.06592c-2.03274,1.69189 -0.9531,3.53027 -2.1436,5.13428l-0.16168,-0.30762c0.36056,-1.17187 0.3755,-1.71094 0.28455,-2.93994z" fill="#001731"/><path d="M33.8792,3.89234c0.64526,-0.27365 1.39055,0.02279 1.67174,0.66494c0.28119,0.64216 -0.0063,1.39107 -0.64497,1.6799c-0.41987,0.1899 -0.90946,0.13934 -1.28159,-0.13236c-0.37228,-0.27171 -0.56969,-0.72261 -0.51697,-1.1805c0.05272,-0.45788 0.34753,-0.85206 0.7718,-1.03197z" fill="#740904"/><path d="M33.95579,4.34615c0.24838,-0.14899 0.55827,-0.15069 0.80841,-0.00445c0.25014,0.14624 0.40069,0.41717 0.39293,0.70685c-0.00791,0.28967 -0.17296,0.55204 -0.43057,0.68451c-0.38092,0.19578 -0.84839,0.05402 -1.0565,-0.32036c-0.20811,-0.37437 -0.08157,-0.84634 0.28573,-1.06654z" fill="#d89997"/><path d="M108.11643,42.72524c0.3919,-0.21577 0.86933,-0.20435 1.2504,0.03003c0.38107,0.23423 0.60689,0.65522 0.59122,1.10244c-0.01552,0.44707 -0.2702,0.85137 -0.66664,1.0585c-0.60367,0.31553 -1.34881,0.08613 -1.67086,-0.51431c-0.32205,-0.60029 -0.1009,-1.3481 0.49588,-1.67666z" fill="#740904"/><path d="M108.36247,43.13687c0.35954,-0.20713 0.81881,-0.08203 1.02369,0.27876c0.20488,0.36079 0.07703,0.81943 -0.28499,1.02217c-0.3588,0.20083 -0.81251,0.07441 -1.01564,-0.2833c-0.20298,-0.35771 -0.07938,-0.81226 0.27694,-1.01763z" fill="#d89997"/><path d="M178.99071,130.84219c1.92583,-0.28843 2.85726,-0.03545 4.71279,0.58696c-0.13766,1.06714 -0.24604,1.91763 -0.29144,2.9981c-0.55212,-2.55688 -1.16721,-3.58403 -3.99225,-3.25122z" fill="#740904"/><path d="M27.91235,2.12027c0.28895,-0.14776 0.63545,-0.12589 0.9036,0.05701c0.268,0.1829 0.4149,0.49765 0.38282,0.82066c-0.03207,0.32301 -0.23784,0.60272 -0.53674,0.72932c-0.43965,0.18625 -0.94783,-0.00901 -1.14979,-0.4418c-0.20196,-0.43279 -0.02504,-0.9478 0.4001,-1.1652z" fill="#740904"/><path d="M167.77405,253.94678c0.32366,-0.09229 0.67074,0.00586 0.89774,0.25342c0.227,0.24756 0.29437,0.60205 0.17428,0.91699c-0.12009,0.31348 -0.40713,0.53174 -0.74251,0.56396c-0.45546,0.04541 -0.86992,-0.26514 -0.95632,-0.71631c-0.08494,-0.44971 0.18599,-0.89209 0.62681,-1.01807z" fill="#740904"/><path d="M164.413,186.34277c1.08081,-1.36377 2.34614,-2.72314 4.11673,-3.06152c0.40274,0.25781 0.47889,0.25488 0.96218,0.27686l0.0205,0.10547c-1.69004,0.08643 -2.64637,0.49951 -3.82237,1.78711c-0.37638,0.40576 -0.72493,0.8335 -1.04712,1.28174z" fill="#04050a"/><path d="M151.74208,133.63052c1.14964,-1.45166 1.79402,-2.08022 3.51335,-2.73267l0.08348,0.51943c-1.76034,0.53262 -2.1909,0.98057 -3.31418,2.4624z" fill="#702922"/></g></svg></svg>