<svg id="svg" version="1.1" viewBox="0 0 300 186" width="300" height="186" xmlns="http://www.w3.org/2000/svg"><svg xmlns="http://www.w3.org/2000/svg"><defs><clipPath id="clip-1"><rect x="0" y="0" transform="scale(0.15,0.15)" width="2000" height="1240" fill="none"/></clipPath><linearGradient x1="23.80875" y1="104.45775" x2="25.7079" y2="104.75625" gradientUnits="userSpaceOnUse" id="color-1"><stop offset="0" stop-color="#3e150f"/><stop offset="1" stop-color="#6a1d16"/></linearGradient><linearGradient x1="178.44" y1="118.89315" x2="178.2615" y2="120.64185" gradientUnits="userSpaceOnUse" id="color-2"><stop offset="0" stop-color="#551d11"/><stop offset="1" stop-color="#6e2229"/></linearGradient><linearGradient x1="30.42735" y1="3.07108" x2="28.7082" y2="2.63788" gradientUnits="userSpaceOnUse" id="color-3"><stop offset="0" stop-color="#34150f"/><stop offset="1" stop-color="#542417"/></linearGradient><linearGradient x1="151.413" y1="148.51755" x2="149.52915" y2="139.08585" gradientUnits="userSpaceOnUse" id="color-4"><stop offset="0" stop-color="#450906"/><stop offset="1" stop-color="#6b2921"/></linearGradient><linearGradient x1="90.81795" y1="61.9248" x2="83.7195" y2="73.5021" gradientUnits="userSpaceOnUse" id="color-5"><stop offset="0" stop-color="#3b100a"/><stop offset="1" stop-color="#773b2e"/></linearGradient><linearGradient x1="195.4995" y1="99.4287" x2="203.3325" y2="98.6358" gradientUnits="userSpaceOnUse" id="color-6"><stop offset="0" stop-color="#270000"/><stop offset="1" stop-color="#6e241d"/></linearGradient><linearGradient x1="48.04335" y1="104.95245" x2="49.37835" y2="103.80735" gradientUnits="userSpaceOnUse" id="color-7"><stop offset="0" stop-color="#230600"/><stop offset="1" stop-color="#6c2d1e"/></linearGradient></defs><g clip-path="url(#clip-1)" fill="none" fill-rule="nonzero" stroke="none" stroke-width="1" stroke-linecap="butt" stroke-linejoin="miter" stroke-miterlimit="10" stroke-dasharray="" stroke-dashoffset="0" font-family="none" font-weight="none" font-size="none" text-anchor="none" style="mix-blend-mode: normal"><path d="M0,0h13.27823h1.13994h16.51573h1.0218h4.4376h2.46705h16.07865h1.24515h243.81585v186h-300v-110.0709v-7.99425v-13.1553v-6.7077v-1.68675v-13.71645v-15.4458z" fill="#e5ddd2"/><path d="M0,67.93485c2.8494,1.7961 6.38241,2.5905 9.60464,1.24815c0.13728,0.47235 0.19369,0.68295 0.25396,1.16955c-1.44803,2.1987 -2.16231,4.51785 -1.57459,7.17435c0.52245,2.36145 2.04073,6.3009 5.12368,5.63355c1.25314,-0.27645 2.10696,-1.2012 2.99046,-2.05275c0.573,0.7668 1.9821,2.76495 2.5884,3.32445c4.98225,-2.8836 5.17815,-7.17525 3.6003,-12.2676c-0.19005,-0.61335 -0.9294,-1.19865 -0.5253,-1.8177c2.3934,-0.20895 1.86495,7.33455 2.50905,8.9358c0.27705,0.68865 2.13795,1.29915 2.80035,1.50435c1.5756,0.48825 2.886,1.12305 4.23255,-0.186c0.3561,0.252 0.3957,0.26175 0.61485,0.6264c6.7047,3.34125 13.9371,5.4969 21.37695,6.37155c1.07715,0.1335 3.5748,0.43635 4.5897,0.23835l0.5289,0.16395l0.14865,0.29775c-0.09165,1.7817 -0.11295,3.4353 0.9489,4.9632c1.2906,0.0816 2.0415,0.0621 3.3354,-0.0114c0.2595,2.65095 0.8463,4.43925 4.05015,4.01775c3.1005,-0.40785 5.3244,-2.07105 6.9135,-4.7262c0.27525,0.5361 0.3099,0.3945 0.2157,0.86235c-0.8727,2.0964 -2.6043,3.31095 -4.64805,4.15155c-0.2715,0.1113 -0.54435,0.21975 -0.8184,0.3252c5.1099,1.78305 9.85515,4.7334 14.7231,7.0812c0.76095,0.36705 1.5168,0.7929 2.26215,1.19085c6.61875,3.9036 13.2783,7.7397 20.061,11.35335c5.70465,3.04695 11.68155,4.81095 17.68965,7.16955c-1.2465,-2.48895 -2.0379,-4.1547 -1.9938,-7.05645c0.0495,-3.26265 1.03965,-6.3066 3.60795,-8.47425c3.5199,-2.97105 6.2817,-0.20925 6.37725,3.77565l-0.0321,0.1503c-0.1641,0.7884 -0.11865,2.28345 -0.5529,2.5782c0.1599,1.79595 0.51585,3.4668 0.8505,5.23485l0.2556,-0.0315c0.7482,0.3969 1.1751,0.00555 1.7682,0.4152l0.0813,0.3177c-0.2673,0.3741 -1.19415,0.876 -1.22265,0.93825c-0.54105,1.1772 -0.657,4.5087 -0.0252,5.68485c0.27585,0.10965 0.35175,0.1032 0.5109,0.3498c0.0675,0.4989 0.13965,0.5757 0.4269,0.996l0.1536,0.5691c0.255,0.0984 0.5109,0.195 0.76755,0.2895l0.8667,0.70305c0.07935,0.4341 0.0729,0.72405 0.3894,1.00815l0.10275,0.0357c0.28275,0.2391 1.9641,1.6311 2.0943,1.82145c0.8445,1.5525 3.4188,2.9223 3.42765,4.5822c-1.0305,-0.82875 -2.073,-2.89425 -3.42345,-3.54495c1.7847,2.10345 4.98735,5.2023 4.57005,8.15835l0.0726,0.0615c-0.33525,0.4821 -3.78375,1.68105 -4.32885,1.6977l-0.3567,-0.7893c-0.31875,-0.70185 -1.746,-1.6155 -2.46675,-1.17945c-1.5036,0.90975 -3.0273,2.02965 -3.9894,3.52275l-0.0213,0.37905c-1.12935,2.32335 -1.84305,4.4367 -1.7604,7.0752c0.0591,1.89 0.2112,4.35 1.73565,5.6655l-0.08175,0.114l0.3102,0.1905c-0.3753,0.174 -0.38025,0.0945 -0.8655,0.048c-0.48165,-0.372 -0.8325,-0.8295 -1.06965,-1.395c-1.16535,-2.775 -1.25865,-6.012 -0.44415,-8.8875c0.80115,-2.8275 2.5863,-4.7991 4.4205,-6.96c-1.8096,-2.5884 -2.9307,-4.1985 -3.52365,-7.3701c-1.7595,0.6657 -2.70855,1.26375 -4.65705,1.4805c-4.40265,0.4896 -7.2453,-1.6962 -8.8659,-5.5656l-0.7413,-1.92075c0.26145,-0.5796 0.4617,-1.14735 0.915,-1.5873l0.0228,-0.45945c-0.7257,-0.97485 -10.68345,-4.8456 -12.41535,-5.2299c0.54285,1.5198 1.0671,2.86575 1.9368,4.2369c1.37265,2.16405 2.84055,3.82605 3.8874,6.1944c-0.1356,0.5922 -0.2592,1.5642 -0.7278,1.86c-0.5199,-0.16935 -1.29495,-1.4694 -1.77105,-1.839c-4.34145,-3.37035 -6.2724,-7.9905 -8.95515,-12.6075c-0.2433,-0.4185 -0.86475,-1.01775 -1.30485,-1.2804c-7.50345,-4.4802 -15.4569,-8.3796 -23.3535,-12.12615c-1.19865,-0.56865 -2.61855,-0.96165 -3.90375,-1.22415c-0.84315,0.43785 -1.5216,0.75975 -2.3865,1.1424c-1.94295,-1.0728 -4.0773,-3.00405 -6.32505,-4.2585c-6.3015,-3.51675 -12.22185,-5.3241 -18.99645,-7.4658c-0.47835,0.3261 -0.4389,0.1962 -0.63855,0.64875c3.168,1.6383 3.5751,2.39835 5.2224,5.58885c-0.42135,0.10785 -0.55695,0.1197 -0.92175,0.34215c0.48795,0.56025 -0.1797,0.3402 0.26775,0.58935c-0.6057,0.62055 -0.57105,1.7256 -0.87795,2.1018c-1.98615,2.4348 -9.34155,0.1572 -11.25855,-0.90585l-0.0327,-0.28305c-0.44715,-0.1911 -0.2577,-0.1854 -0.6957,-0.0504l-0.10575,0.1725c0.2451,0.4554 0.38145,0.7026 0.55875,1.20165l-0.12315,0.28785l-0.2268,0.06555l-0.11115,-0.22635c-0.1818,-0.03885 -0.1368,-0.05085 -0.31155,-0.0246c-0.62325,-0.85485 -1.51905,-2.40255 -2.2149,-3.4152l0.0195,-0.2841c-0.4758,-0.8466 -2.3928,-3.1887 -3.3315,-3.53835c-0.4941,-0.18405 -1.78965,0.26265 -2.46195,-0.20925c-0.65505,-0.72285 -1.4574,0.35415 -2.24775,0.0495c-0.27435,-0.92565 0.4782,-2.61525 0.8172,-3.56895c-0.62565,-1.59315 -1.9815,-3.1878 -3.3513,-4.209c-2.4633,-0.0627 -3.1332,0.6378 -3.6966,-2.28825c-2.36565,-1.87065 -3.60042,-1.9359 -6.112,-3.34485c-0.76906,-0.4314 -2.38544,-2.34675 -3.24147,-2.8902c-2.44869,-1.5546 -5.03637,-3.06945 -7.50983,-4.58055z" fill="#4b2212"/><path d="M34.83105,92.8884c0.53925,0.2574 0.8448,0.3114 1.21515,0.8037c1.6671,0.5097 1.5243,0.02265 2.3079,0.02835c0.41235,0.2778 3.11745,1.5138 3.59265,1.6284c3.168,1.6383 3.5751,2.39835 5.2224,5.58885c-0.42135,0.10785 -0.55695,0.1197 -0.92175,0.34215c-0.5613,0.04605 -1.67115,0.3768 -2.25855,0.53295c0.4416,0.62595 0.87,1.04625 0.7542,1.7679c-1.5123,1.4946 -8.5278,-0.0393 -10.2006,-1.3302c-1.8438,-1.42275 -4.4877,-3.54915 -5.32545,-5.87505c-0.15495,-0.4302 0.1284,-0.7158 0.34005,-1.03455c-0.0393,-0.26955 -0.08565,-0.4305 -0.15675,-0.6879l-0.33525,-0.1836c1.6749,-0.93945 3.8883,-1.19355 5.766,-1.581z" fill="#e5ddd2"/><path d="M34.83105,92.8884c0.53925,0.2574 0.8448,0.3114 1.21515,0.8037c1.6671,0.5097 1.5243,0.02265 2.3079,0.02835c0.41235,0.2778 3.11745,1.5138 3.59265,1.6284c3.168,1.6383 3.5751,2.39835 5.2224,5.58885c-0.42135,0.10785 -0.55695,0.1197 -0.92175,0.34215c-0.06645,-0.43665 -0.3081,-0.90375 -0.51165,-1.29405c-2.70165,-5.1774 -11.19075,-7.3311 -16.1787,-4.6449c-0.0393,-0.26955 -0.08565,-0.4305 -0.15675,-0.6879l-0.33525,-0.1836c1.6749,-0.93945 3.8883,-1.19355 5.766,-1.581z" fill="#5b1d16"/><path d="M131.10765,128.15235c-1.16355,-0.6063 -2.26905,-1.35855 -3.53805,-1.81965c-5.5929,-2.0325 -6.20145,-10.19895 -3.33675,-14.62575c0.88395,-1.3659 3.3336,-3.98355 5.11785,-2.5479c1.5459,1.2438 1.4406,4.593 1.65135,6.4908c0.1599,1.79595 0.51585,3.4668 0.8505,5.23485c-0.5031,2.8638 -0.6276,4.4046 -0.7449,7.26765z" fill="#e5ddd2"/><path d="M127.359,122.1873c0.25275,0.09975 0.2181,0.10935 0.42795,0.3057c0.25725,0.74955 0.5265,1.5987 -0.3753,1.91265c-0.15855,-0.1416 -0.31395,-0.2865 -0.46605,-0.4347c-0.4257,-0.4215 -0.4917,-0.57495 -0.4989,-1.09335c0.3222,-0.4914 0.3282,-0.38775 0.9123,-0.6903z" fill="#4b2212"/><path d="M117.59145,127.9005c2.09475,-2.07915 5.2602,-2.2107 7.7058,-0.52995c0.40125,0.2757 0.7491,1.06785 0.9765,1.51725l0.16605,-0.0285c1.4667,-0.2436 3.8184,0.59265 2.9526,2.178c-0.87315,0.39225 -2.29335,-0.3921 -2.76345,-0.1848c0.4659,1.6275 2.12955,1.497 2.9064,2.50995c0.40965,1.65915 -2.0901,2.23995 -3.2532,2.46975c-2.5059,0.49485 -4.5849,0.12855 -6.47295,-1.617c-1.2294,-1.22325 -1.70085,-1.82595 -2.526,-3.3687c-0.46065,0.12945 -0.3057,0.0189 -0.57915,0.4188l-0.7413,-1.92075c0.26145,-0.5796 0.4617,-1.14735 0.915,-1.5873z" fill="#e5ddd2"/><path d="M115.96275,129.34455c0.26145,-0.5796 0.4617,-1.14735 0.915,-1.5873l0.7137,0.14325c-0.30765,0.4983 -0.6051,0.84255 -0.59145,1.40715c0.7602,0.84195 2.91525,-0.2577 3.72375,0.7053c0.7668,0.9135 0.5076,2.66085 1.16385,3.6807c0.0225,0.03435 0.111,0.3192 0.12345,0.35835c-0.4272,0.0507 -0.72585,-0.1617 -1.12905,-0.35895l-1.0728,0.52215c-1.2294,-1.22325 -1.70085,-1.82595 -2.526,-3.3687c-0.46065,0.12945 -0.3057,0.0189 -0.57915,0.4188z" fill="#5b1d16"/><path d="M117.2832,130.8465c2.69865,-1.56315 3.9393,-0.14025 2.9703,2.60625c0.2844,0.21765 0.288,0.19785 0.6285,0.2403l-1.0728,0.52215c-1.2294,-1.22325 -1.70085,-1.82595 -2.526,-3.3687z" fill="#efcec8"/><path d="M142.59615,143.17755c-2.9796,0.50175 -5.59755,-0.528 -7.8552,-2.5884c-1.61025,-1.46955 -5.2113,-8.7138 -3.3828,-10.3197c1.21275,0.15855 5.60865,3.7872 6.66795,4.74975c1.7847,2.10345 4.98735,5.2023 4.57005,8.15835z" fill="#e5ddd2"/><path d="M23.67315,88.3494c4.2597,2.51445 6.37395,3.0204 11.1579,4.539c-1.8777,0.38745 -4.0911,0.64155 -5.766,1.581c-0.45465,-0.6132 -1.81545,-1.91985 -2.4321,-2.57805c-1.13865,-1.21575 -1.94505,-2.2341 -2.9598,-3.54195z" fill="#e5ddd2"/><path d="M38.3541,93.72045c1.3263,0.05505 3.00315,0.4344 4.2312,0.97965c-0.47835,0.3261 -0.4389,0.1962 -0.63855,0.64875c-0.4752,-0.1146 -3.1803,-1.3506 -3.59265,-1.6284z" fill="#e3b4ae"/><path d="M187.4265,65.08035c-1.5165,-3.80535 -1.2795,-8.30475 0.942,-11.83425c2.19,-3.28875 5.8335,-5.907 9.66,-6.897c2.2455,-0.58125 2.748,0.7476 3.141,2.55555l-0.3225,0.06255l-0.3495,-0.35115l0.0135,0.18075c0.0465,0.7146 -0.2265,2.9736 0.069,3.25095c0.216,-0.84285 0.414,-1.6902 0.594,-2.54145c4.353,-0.90705 6.7605,0.86055 4.107,5.2107c-0.438,0.71865 -2.958,3.14925 -3.669,3.45585l0.1365,0.20445c-0.4155,0.5811 -1.539,1.94805 -1.4865,2.5758l0.3975,-0.03705c0.9435,0.0921 -0.003,0.2565 0.804,0.2565l-0.3915,0.20115l-0.03,0.23835c-1.974,0.6789 -3.1935,2.32605 -4.899,3.55065c-1.8,1.2915 -2.9865,1.7787 -5.076,2.38185c-0.51,0.4773 0.711,0.825 0.84,1.49355c-1.101,-0.63405 -2.7645,-2.30925 -3.7245,-2.17485l-0.1515,0.2073l0.0615,0.3927c-0.339,1.18335 -5.5785,2.63535 -6.9195,3.39975c-1.8825,1.0737 -4.338,1.97925 -6.3165,3.00615c-6.912,3.58725 -14.4435,5.83485 -21.786,8.36535c-5.92635,2.043 -11.84655,4.07355 -17.81685,6.00225c9.5703,1.45185 18.73035,2.32215 28.39935,1.72335c2.628,-0.1629 5.85,-0.0054 8.3205,-0.9192l0.3165,0.08595c0.1815,0.4473 0.1695,0.5535 0.2115,1.04445l0.2025,0.06825c0.9435,-0.80295 -0.3075,-1.33905 1.8405,-1.06725c0.816,0.10335 2.9145,0.2625 3.441,0.85005c-0.4665,0.6762 -4.2705,1.5597 -5.4345,2.0022c-1.9905,-0.7182 -8.592,0.4275 -11.124,0.58995c1.263,1.40865 7.0875,6.9165 8.6625,8.17785c4.9155,-2.64225 9.48,-0.8568 13.1865,2.84805c-0.195,0.44145 -0.075,0.33945 -0.435,0.55155c-3.7575,-3.5631 -9.894,-5.6778 -13.899,-1.28385c-0.045,0.05055 -0.09,0.1023 -0.1335,0.1551c0.393,1.05645 0.771,1.9716 1.2225,3.00465c-0.4455,-0.05535 -0.5355,-0.0882 -0.954,-0.25395c0.4875,-1.98615 -10.2,-10.7487 -12.2115,-12.28185c-7.4784,-0.47925 -14.68965,-0.567 -22.1541,-1.77585c-3.69255,-0.5979 -8.0214,-1.329 -11.71065,-1.34775c-6.87345,-0.0186 -13.7451,0.22605 -20.5998,0.7335c-2.87505,0.21525 -9.2391,1.01295 -11.6193,0.89175c-0.41325,0.0249 -0.49515,0.0009 -0.8316,0.2127c-1.5504,-4.90725 -3.5667,-4.4379 -6.954,-7.1622c1.44015,0.51675 2.7792,1.3719 4.221,1.923c4.90845,1.87605 11.48535,-0.09045 12.3621,-5.8596l0.0954,0.61935l0.20145,-0.5574l0.18855,0.0141c0.15105,0.29865 0.1944,0.4383 0.2976,0.7584c-0.2418,1.137 -0.82905,1.99695 -1.4652,2.94c7.82685,-0.09465 13.4523,-1.4964 20.4384,-4.8564c1.52595,-0.7338 3.23595,-1.4013 4.63155,-2.39775c0.52755,-0.37665 0.4698,-0.675 0.54975,-1.26435c0.3426,-2.99535 1.5399,-7.0974 3.9006,-9.09345l0.56205,0.1215c1.26165,0.5256 1.6893,2.83545 3.5103,3.6972l0.10875,0.13965c0.5334,-0.3765 0.3885,-0.3909 0.9597,-0.4131c0.8142,0.8106 0.3714,2.0961 1.2546,2.4477c1.4592,0.15645 0.8631,0.59475 1.55265,0.71265l1.20645,1.02045c-0.1788,0.7215 -0.2997,0.69555 -0.0744,1.26345c-2.40315,1.45395 -5.61585,2.59305 -8.45475,2.64255c-1.25715,0.02205 -2.1318,-0.3303 -3.38655,-0.01635l-0.0426,0.32145c-0.86535,1.41825 -9.13425,5.05695 -11.52465,6.7155c1.77405,-0.2379 4.94685,-0.1698 6.88635,-0.2274c3.4215,-0.1026 6.82965,-0.47355 10.1931,-1.1094c9.63435,-1.78965 18.3012,-4.3494 27.56625,-7.46595c3.834,-1.28925 9.5775,-2.79825 12.9795,-4.8801c1.833,-1.12065 5.0715,-4.94715 6.1875,-6.83055c0.4005,-0.67425 1.266,-1.836 2.031,-1.97625l0.291,0.246c0.6705,1.86495 -2.775,4.4616 -2.3055,5.5602c2.3115,0.34905 7.413,-2.93505 9.5085,-4.19895z" fill="#4b2212"/><path d="M198.6465,51.76425c0.81,-0.0459 1.0545,0.14955 1.7595,0.57165c0.4965,1.30905 0.9825,2.53485 1.1385,3.9417l-0.1755,0.25635c-0.0945,-0.39945 -0.1845,-0.7995 -0.27,-1.2006l-0.192,0.009c-0.1575,0.9441 0.27,1.19145 -0.0915,2.1792l-0.204,0.06945c-0.042,0.1536 -0.087,0.30615 -0.138,0.45735c-1.0755,3.2625 -3.5175,5.9457 -6.5535,7.5765c-0.93,0.49905 -2.922,0.97095 -3.933,0.6324c-0.453,-0.51945 -0.4395,-1.37775 -0.597,-1.4793c-2.223,-1.42065 -2.0565,-3.01815 -1.0305,-5.67855c1.0995,-2.85315 3.165,-5.06895 6.3525,-6.38805l-0.051,-0.14535c1.5915,-0.7698 2.6145,-0.1149 3.9855,-0.80175z" fill="#e5ddd2"/><path d="M198.6465,51.76425c0.81,-0.0459 1.0545,0.14955 1.7595,0.57165c0.4965,1.30905 0.9825,2.53485 1.1385,3.9417l-0.1755,0.25635c-0.0945,-0.39945 -0.1845,-0.7995 -0.27,-1.2006l-0.192,0.009c-0.1575,0.9441 0.27,1.19145 -0.0915,2.1792l-0.204,0.06945c0.663,-4.81545 -1.83,-5.61525 -5.8995,-4.87965l-0.051,-0.14535c1.5915,-0.7698 2.6145,-0.1149 3.9855,-0.80175z" fill="#5f170f"/><path d="M187.8885,55.97835c1.3995,-3.5256 6.8175,-9.171 11.3565,-8.6748c0.642,0.0702 0.9735,0.75675 1.2525,1.3125l0.0135,0.18075c0.0465,0.7146 -0.2265,2.9736 0.069,3.25095c0.216,-0.84285 0.414,-1.6902 0.594,-2.54145c4.353,-0.90705 6.7605,0.86055 4.107,5.2107c-0.438,0.71865 -2.958,3.14925 -3.669,3.45585c0.0315,-0.7554 0.0705,-1.15575 -0.0675,-1.89525c-0.156,-1.40685 -0.642,-2.63265 -1.1385,-3.9417c-0.705,-0.4221 -0.9495,-0.61755 -1.7595,-0.57165l-1.107,0.02205c-0.45,0.051 -0.6225,-0.07455 -0.966,-0.0384c-0.6345,0.06645 -1.2285,0.34845 -1.8945,0.2412c-3.3015,1.15335 -3.3585,1.88415 -5.436,3.9813c-0.456,0.2622 -0.6765,0.62925 -0.984,1.04985l-0.1515,-0.009c-0.0795,-0.34275 -0.153,-0.68715 -0.219,-1.0329z" fill="#efcec8"/><path d="M196.8105,51.16695c0.324,-0.57915 0.72,-1.59135 1.1745,-1.87815c0.4815,0.29085 0.345,0.12675 0.558,0.6012c-0.1485,0.64425 -0.6555,0.92175 -1.077,1.5639l0.0735,0.3324c-0.45,0.051 -0.6225,-0.07455 -0.966,-0.0384c-0.6345,0.06645 -1.2285,0.34845 -1.8945,0.2412z" fill="#4f1c16"/><path d="M128.9793,67.4316c1.26165,0.5256 1.6893,2.83545 3.5103,3.6972l0.10875,0.13965c0.18165,3.459 1.8198,2.54625 3.63915,4.69035c-2.38575,1.1628 -6.26265,2.7633 -8.7744,1.40505c0.3021,-0.40125 0.47955,-0.417 0.86385,-1.01205c-0.5097,-0.42135 -1.4178,0.11625 -2.1462,-0.4671c-1.0371,-1.65825 1.3332,-7.22055 2.79855,-8.4531z" fill="#e5ddd2"/><path d="M132.59835,71.26845c0.5334,-0.3765 0.3885,-0.3909 0.9597,-0.4131c0.8142,0.8106 0.3714,2.0961 1.2546,2.4477c1.4592,0.15645 0.8631,0.59475 1.55265,0.71265l1.20645,1.02045c-0.1788,0.7215 -0.2997,0.69555 -0.0744,1.26345c-2.40315,1.45395 -5.61585,2.59305 -8.45475,2.64255c-1.25715,0.02205 -2.1318,-0.3303 -3.38655,-0.01635l-0.1962,-0.12315l-0.00645,-0.2451c0.5853,-0.4362 8.50485,0.6636 11.3643,-2.37705l-0.5802,-0.2217c-1.81935,-2.1441 -3.4575,-1.23135 -3.63915,-4.69035z" fill="#5f170f"/><path d="M128.41725,67.3101l0.56205,0.1215c-1.46535,1.23255 -3.83565,6.79485 -2.79855,8.4531c0.7284,0.58335 1.6365,0.04575 2.1462,0.4671c-0.3843,0.59505 -0.56175,0.6108 -0.86385,1.01205l-0.26145,-0.02985c-2.3919,-1.79385 -1.5348,-3.51795 -0.85935,-5.92695l-0.315,0.2088l0.28845,-0.123l-0.09135,-0.10875c-1.2039,1.1598 -0.89145,4.24485 -1.70775,5.01945c0.3426,-2.99535 1.5399,-7.0974 3.9006,-9.09345z" fill="#5f170f"/><path d="M187.8885,55.97835c0.066,0.34575 0.1395,0.69015 0.219,1.0329l0.1515,0.009c0.3075,-0.4206 0.528,-0.78765 0.984,-1.04985c-1.065,1.8255 -1.4175,2.79105 -2.121,4.8063c-0.066,-1.63455 0.195,-3.2658 0.7665,-4.79835z" fill="#e3b4ae"/><path d="M7.89449,41.5095c0.62686,-0.1464 1.94741,0.1671 2.56299,0.39045c2.48792,0.903 4.41016,2.9634 5.47552,5.343l0.89745,0.2133c-0.01875,0.453 0.0267,1.17135 -0.1806,1.4952l-0.40725,0.2487c0.85635,2.244 0.9525,3.35385 1.0911,5.72205l-1.0338,-0.06525l-0.4338,0.5955c-0.1758,0.2442 -0.2358,0.3666 -0.4974,0.5241c0.98715,1.0509 1.99575,4.18095 2.48025,4.7376c1.1478,-0.1659 0.798,0.77385 1.48815,0.0378l0.19665,-0.0405c0.22995,0.2127 0.4323,0.3696 0.5916,0.6393l0.21135,0.1107c0.5895,-0.14565 0.9906,-0.2982 1.55655,-0.51015c-0.2823,0.25905 -0.4878,0.44025 -0.79365,0.67065c0.26085,0.1539 0.18015,0.13635 0.46485,0.2019l0.01995,0.1458c-0.5271,0.2742 -0.6453,0.20925 -0.78765,0.65385c0.1932,0.2586 0.201,0.28785 0.4632,0.4965c0.444,-0.0579 1.55295,0.5841 1.965,0.8346l-0.40485,0.3978c-0.723,-0.2961 -1.4577,-0.60825 -2.19255,-0.86895c1.59375,1.87995 3.4956,4.37205 5.79435,5.28705l-0.63435,0.27675c1.69245,0.63315 4.80705,2.33505 6.1359,3.56655c1.48995,2.77545 1.86135,5.5017 -0.31995,7.9872c-1.34655,1.30905 -2.65695,0.67425 -4.23255,0.186c-0.6624,-0.2052 -2.5233,-0.8157 -2.80035,-1.50435c-0.6441,-1.60125 -0.11565,-9.14475 -2.50905,-8.9358c-0.4041,0.61905 0.33525,1.20435 0.5253,1.8177c1.57785,5.09235 1.38195,9.384 -3.6003,12.2676c-0.6063,-0.5595 -2.0154,-2.55765 -2.5884,-3.32445c-0.8835,0.85155 -1.73732,1.7763 -2.99046,2.05275c-3.08295,0.66735 -4.60124,-3.2721 -5.12368,-5.63355c-0.58772,-2.6565 0.12657,-4.97565 1.57459,-7.17435c-0.06027,-0.4866 -0.11668,-0.6972 -0.25396,-1.16955c-3.22223,1.34235 -6.75523,0.54795 -9.60464,-1.24815v-13.1553v-6.7077v-1.68675c0.41705,-0.6783 0.79373,-1.0353 1.34532,-1.61235c0.50461,-0.3975 0.73515,-0.62865 1.35826,-0.78915c0.46182,0.6186 0.82501,0.27645 1.40411,0.84825c0.21553,0.141 1.15123,0.35115 1.46094,0.4305c0.01329,-0.91815 0.10663,-1.78605 0.19371,-2.69775l1.44273,-0.4029c0.34497,-0.25425 0.40359,-0.32685 0.68941,-0.6522z" fill="#e5ddd2"/><path d="M3.52499,56.5068c4.55179,4.2066 7.96595,4.7715 13.80002,5.3997c-1.9095,-1.28895 -2.56005,-1.50705 -3.91043,-3.38835c-0.70932,-0.3018 -1.38648,-0.4773 -1.71531,-1.1307l0.15276,-0.23715c0.12141,-0.05325 0.61648,-0.291 0.72663,-0.17295c1.62837,1.7451 2.73515,3.44055 5.1155,4.2162l0.1548,-0.4794c1.1478,-0.1659 0.798,0.77385 1.48815,0.0378l0.19665,-0.0405c0.22995,0.2127 0.4323,0.3696 0.5916,0.6393l0.21135,0.1107c0.5895,-0.14565 0.9906,-0.2982 1.55655,-0.51015c-0.2823,0.25905 -0.4878,0.44025 -0.79365,0.67065c0.26085,0.1539 0.18015,0.13635 0.46485,0.2019l0.01995,0.1458c-0.5271,0.2742 -0.6453,0.20925 -0.78765,0.65385c0.1932,0.2586 0.201,0.28785 0.4632,0.4965c0.444,-0.0579 1.55295,0.5841 1.965,0.8346l-0.40485,0.3978c-0.723,-0.2961 -1.4577,-0.60825 -2.19255,-0.86895c1.59375,1.87995 3.4956,4.37205 5.79435,5.28705l-0.63435,0.27675c-0.14835,0.6528 -0.0321,0.8916 -0.44235,1.29135l-0.30195,-0.0567c-0.3084,-0.5955 0.02235,-0.849 -0.0513,-1.34655c-0.09945,-0.6717 -2.4603,-2.58975 -3.03975,-3.1176l-0.33795,0.0246l-0.26325,0.46485c0.8892,1.6404 1.86,1.9797 0.5067,3.42615c-0.27435,-1.2114 -0.9717,-3.51345 -1.93245,-4.308c-0.73335,0.636 0.3909,3.99645 -0.4077,5.33535c-0.4155,0.25425 -0.2268,0.21285 -0.70935,0.1569c-0.2955,-0.3564 -0.3156,-0.42255 -0.4596,-0.8649c-0.74985,-0.6786 -1.1556,-0.4143 -1.64325,-1.01565l-0.0708,0.3294l-0.2793,0.1428l-0.2799,-0.1368c-0.29115,-0.8382 1.05405,-3.9204 1.4418,-4.947c-1.0056,0.72975 -1.3692,1.2759 -2.1132,2.24025l-0.1137,-0.59505c0.75825,-1.04985 1.7682,-1.9587 2.70285,-2.8605c-3.34409,1.17075 -3.74165,2.5113 -5.80066,3.36135l-0.13935,-0.07725c0.35341,-0.7914 1.19324,-1.32555 1.88703,-1.78335c-0.25476,-0.37575 -0.15471,-0.3567 -0.49946,-0.47475c-0.42739,0.25185 -0.61782,0.31365 -1.10502,0.40785c0.35796,-0.32295 1.44728,-0.9615 1.9046,-1.24575l-0.02919,-0.18555c0.29289,-0.20805 0.55943,-0.25005 0.90986,-0.34545c-0.25698,-0.17055 -0.51387,-0.30135 -0.78495,-0.4467c-3.16855,-0.08895 -9.24516,-3.10185 -10.81096,-5.91375z" fill="#4f1c16"/><path d="M17.84895,60.71415c1.1478,-0.1659 0.798,0.77385 1.48815,0.0378l0.19665,-0.0405c0.22995,0.2127 0.4323,0.3696 0.5916,0.6393l0.21135,0.1107c0.5895,-0.14565 0.9906,-0.2982 1.55655,-0.51015c-0.2823,0.25905 -0.4878,0.44025 -0.79365,0.67065c0.26085,0.1539 0.18015,0.13635 0.46485,0.2019l0.01995,0.1458c-0.5271,0.2742 -0.6453,0.20925 -0.78765,0.65385c0.1932,0.2586 0.201,0.28785 0.4632,0.4965c-0.17865,0.13875 -1.0581,0.6342 -1.3647,0.83535c0.14475,0.25065 0.21585,0.66345 0.0396,0.915c-1.14675,0.07155 -3.45465,-2.2815 -2.56875,-3.47745l-0.07035,-0.0063l-0.06255,-0.11535l0.46095,-0.0777z" fill="#5f170f"/><path d="M16.70535,69.03705c0.19275,-1.04115 0.79035,-3.5757 1.42995,-4.3428l0.26895,-0.0384c0.7605,0.8175 0.72615,3.15165 0.73815,4.2651c0.0078,0.71805 -0.1911,0.8445 -0.7938,1.13175c-0.74985,-0.6786 -1.1556,-0.4143 -1.64325,-1.01565z" fill="#efcec8"/><path d="M14.33595,62.42055c0.9036,-0.0012 1.82985,-0.0228 2.72715,0.0654l-3.12298,2.22495c-0.25476,-0.37575 -0.15471,-0.3567 -0.49946,-0.47475c-0.42739,0.25185 -0.61782,0.31365 -1.10502,0.40785c0.35796,-0.32295 1.44728,-0.9615 1.9046,-1.24575l-0.02919,-0.18555c0.29289,-0.20805 0.55943,-0.25005 0.90986,-0.34545c-0.25698,-0.17055 -0.51387,-0.30135 -0.78495,-0.4467z" fill="#efcec8"/><path d="M19.95255,64.39245c0.954,0.4335 1.2858,0.6729 1.99965,1.4253l-0.33795,0.0246l-0.26325,0.46485c-0.47385,-0.6327 -0.94005,-1.27095 -1.39845,-1.91475z" fill="#dd9292"/><path d="M7.89449,41.5095c0.62686,-0.1464 1.94741,0.1671 2.56299,0.39045c2.48792,0.903 4.41016,2.9634 5.47552,5.343l0.89745,0.2133c-0.01875,0.453 0.0267,1.17135 -0.1806,1.4952l-0.40725,0.2487c-0.62115,-0.699 -1.60389,-2.81475 -2.47335,-3.81855c-2.03469,-2.349 -3.60273,-2.86275 -6.56418,-3.2199c0.34497,-0.25425 0.40359,-0.32685 0.68941,-0.6522z" fill="#5f170f"/><path d="M15.933,47.24295l0.89745,0.2133c-0.01875,0.453 0.0267,1.17135 -0.1806,1.4952c-0.35715,-0.50715 -0.5184,-1.11645 -0.71685,-1.7085z" fill="#e3b4ae"/><path d="M0,48.07185c0.47112,0.47205 0.52258,0.53805 0.75044,1.16205c0.30129,2.37375 0.4829,3.39405 1.79799,5.4741l-2.54842,0.07155z" fill="#5b1d16"/><path d="M1.34532,44.77275c0.50461,-0.3975 0.73515,-0.62865 1.35826,-0.78915c0.46182,0.6186 0.82501,0.27645 1.40411,0.84825c-0.86247,-0.0333 -1.41287,-0.0612 -2.19446,0.3858c-1.16256,1.19265 -1.12915,2.3775 -1.1628,4.01625c-0.22785,-0.624 -0.27932,-0.69 -0.75044,-1.16205v-1.68675c0.41705,-0.6783 0.79373,-1.0353 1.34532,-1.61235z" fill="#5f170f"/><path d="M15.29025,66.07065l0.1137,0.59505c-0.53599,0.7713 -1.1371,2.41755 -1.95609,2.65845c-0.34557,-0.1482 -0.37905,-0.2973 -0.57821,-0.645c0.10758,-0.37245 1.78496,-1.794 2.4206,-2.6085z" fill="#2f0e09"/><path d="M9.60464,69.183c1.01,-0.53685 1.63122,-0.8394 2.69508,-1.2636c-0.9876,0.84675 -1.62676,1.38615 -2.44111,2.43315c-0.06027,-0.4866 -0.11668,-0.6972 -0.25396,-1.16955z" fill="#4f1c16"/><path d="M15.3687,55.97655c-0.48315,-0.5079 -0.81678,-1.04385 -0.2169,-1.57365c0.5079,-0.02955 0.7107,0.1731 1.1481,0.45405l-0.4338,0.5955c-0.1758,0.2442 -0.2358,0.3666 -0.4974,0.5241z" fill="#170c09"/><path d="M14.21104,63.2127l0.02919,0.18555c-0.45732,0.28425 -1.54663,0.9228 -1.9046,1.24575l-0.35643,-0.09165l-0.03016,-0.19905c0.46313,-0.6366 1.52987,-0.96045 2.262,-1.1406z" fill="#4b2212"/><path d="M8.96116,63.90555c0.58845,0.0117 1.16477,-0.0444 1.65482,0.2571c0.35581,0.54255 0.24838,0.4392 0.28621,1.1628c-1.06026,-0.02145 -1.69703,-0.3306 -1.94103,-1.4199z" fill="#2f0e09"/><path d="M83.8539,74.75895c3.04425,-3.28995 10.968,-2.9148 13.953,0.11355c0.88125,0.89415 1.51155,2.1039 0.5328,3.14385c-0.1338,0.14085 -0.2706,0.2787 -0.41055,0.4134c0.0447,0.31545 0.0432,0.29265 0.24285,0.54375l-0.04755,0.2442l-0.0939,0.33735c0.38535,0.40755 1.3131,1.2429 1.5486,1.59255c-0.87675,5.76915 -7.45365,7.73565 -12.3621,5.8596c-1.4418,-0.5511 -2.78085,-1.40625 -4.221,-1.923c3.3873,2.7243 5.4036,2.25495 6.954,7.1622c0.33645,-0.2118 0.41835,-0.1878 0.8316,-0.2127c0.1092,1.9407 0.27075,5.685 -2.47755,5.8734c-0.51765,0.0354 -1.59345,-0.30405 -2.12325,-0.46785c-0.57765,2.59785 -1.86,3.7089 -4.65915,3.0963c-2.2827,-0.4995 -4.40895,-2.2944 -5.7312,-4.1496c-0.42855,-0.61035 -1.25835,-2.72895 -1.4643,-2.98125c0.0942,-0.46785 0.05955,-0.32625 -0.2157,-0.86235c-1.5891,2.65515 -3.813,4.31835 -6.9135,4.7262c-3.20385,0.4215 -3.79065,-1.3668 -4.05015,-4.01775c-1.2939,0.0735 -2.0448,0.093 -3.3354,0.0114c-1.06185,-1.5279 -1.04055,-3.1815 -0.9489,-4.9632l-0.14865,-0.29775l-0.5289,-0.16395c0.1518,-3.4083 3.8928,-4.93875 4.1586,-5.69685c0.4632,-0.12795 0.4884,-0.17655 0.8652,-0.498l0.79995,0.19215c1.317,0.0987 2.51985,0.2004 3.84135,0.18645c1.2204,0.00105 5.5452,-0.79485 6.2304,-1.7448c-0.61485,-0.74355 -3.13365,-0.32085 -3.93075,-1.02975l0.06,-0.2595c0.8382,-0.4695 2.86725,0.4227 4.18365,0.5766l0.28545,-0.24255l-0.84585,-0.9969c0.2667,-0.3345 0.22185,-0.22815 0.7881,-0.3213c0.63525,0.26685 0.52395,0.25695 1.2978,-0.05625l0.1449,0.07185c0.40755,0.40305 1.0386,0.6438 1.5942,0.7512l0.2313,-0.1773l0.52425,-0.2307c0.11235,-0.15705 5.19315,-4.1781 5.40405,-4.2786z" fill="#e5ddd2"/><path d="M74.1105,92.54235c0.3243,-1.12455 0.55155,-3.78795 1.20315,-4.35465c0.1932,0.12555 0.1704,0.4509 0.09615,0.66645c-1.6197,4.70805 1.6452,9.19515 6.02625,10.8582c2.37825,0.90285 3.61965,-0.6405 4.25445,-2.9412c4.6014,0.8292 4.5846,-0.1248 4.25955,-4.52475c0.33645,-0.2118 0.41835,-0.1878 0.8316,-0.2127c0.1092,1.9407 0.27075,5.685 -2.47755,5.8734c-0.51765,0.0354 -1.59345,-0.30405 -2.12325,-0.46785c-0.57765,2.59785 -1.86,3.7089 -4.65915,3.0963c-2.2827,-0.4995 -4.40895,-2.2944 -5.7312,-4.1496c-0.42855,-0.61035 -1.25835,-2.72895 -1.4643,-2.98125c0.0942,-0.46785 0.05955,-0.32625 -0.2157,-0.86235z" fill="#4f1c16"/><path d="M67.8501,82.02105c1.2204,0.00105 5.5452,-0.79485 6.2304,-1.7448c-0.61485,-0.74355 -3.13365,-0.32085 -3.93075,-1.02975l0.06,-0.2595c0.8382,-0.4695 2.86725,0.4227 4.18365,0.5766l0.28545,-0.24255c0.60585,0.35505 1.2834,1.9425 2.22795,2.2542c-0.64875,0.3606 -0.7257,0.93945 -0.94215,1.70415c-0.1767,0.6084 -0.2907,1.23315 -0.3402,1.86465c-0.03705,0.5265 0.1602,1.38825 -0.189,1.6743c-0.47505,-0.1941 -0.56235,-0.3432 -0.88395,-0.7344c0.45015,-1.53525 1.0617,-3.44295 1.19115,-5.0244c-0.8928,0.77595 -2.3403,1.9443 -2.8626,3.01725c-0.29205,0.6003 -0.05925,1.3167 -0.4719,1.80405c-2.823,-0.9051 1.51275,-3.225 1.63875,-4.42005c-0.495,-0.1968 -3.38835,1.01535 -5.11755,1.0272c-0.39075,-0.357 -0.5667,-0.3624 -1.07925,-0.46695z" fill="#4f1c16"/><path d="M75.9189,77.9466l0.1449,0.07185c0.40755,0.40305 1.0386,0.6438 1.5942,0.7512l0.2313,-0.1773l0.52425,-0.2307c0.08565,0.267 0.22515,0.75615 0.3384,0.9897l-0.14265,0.37725c0.15255,0.3129 0.3108,0.65535 0.4803,0.957c-0.36465,-0.09405 -0.3831,-0.171 -0.64635,-0.048c0.2694,0.24585 0.63645,0.54195 0.8142,0.84615l-1.28235,-0.39435l-0.0789,0.7275c-0.37395,0.13545 -0.34815,0.05745 -0.82185,-0.0654l-0.16755,-0.17625c-0.94455,-0.3117 -1.6221,-1.89915 -2.22795,-2.2542l-0.84585,-0.9969c0.2667,-0.3345 0.22185,-0.22815 0.7881,-0.3213c0.63525,0.26685 0.52395,0.25695 1.2978,-0.05625z" fill="#5f170f"/><path d="M63.2088,81.64245l0.79995,0.19215l-0.53715,0.3105l-0.03195,0.22875c0.4152,0.2664 0.6612,0.2631 1.14735,0.336c-3.3417,0.07665 -4.8789,2.6505 -5.72445,5.58915l-0.14865,-0.29775l-0.5289,-0.16395c0.1518,-3.4083 3.8928,-4.93875 4.1586,-5.69685c0.4632,-0.12795 0.4884,-0.17655 0.8652,-0.498z" fill="#5f170f"/><path d="M79.0896,80.6856c-0.1695,-0.30165 -0.32775,-0.6441 -0.4803,-0.957l0.14265,-0.37725l0.11655,0.3129c2.08095,0.3741 3.4833,0.0213 5.83815,0.6684c-0.32745,0.2778 -0.2571,0.1128 -0.2988,0.4686l-0.0696,0.0432c-0.2961,0.18615 -0.3651,0.2472 -0.6099,0.4935c-0.43125,0.07455 -0.66465,-0.0405 -1.08465,-0.1695c-0.61515,-0.2535 -2.8086,-0.67515 -3.38085,-0.43275z" fill="#986b68"/><path d="M78.41355,78.36165c0.11235,-0.15705 5.19315,-4.1781 5.40405,-4.2786l0.0363,0.6759c-0.25095,0.46995 -4.43685,3.2517 -5.24025,4.08105c1.3527,-0.33225 2.4204,-0.59055 3.79335,-0.79725c0.0762,0.14175 0.1038,0.2274 0.21015,0.33945c-1.32885,0.3951 -2.5104,0.66585 -3.8652,0.96915c-0.11325,-0.23355 -0.25275,-0.7227 -0.3384,-0.9897z" fill="#4f1c16"/><path d="M77.07435,81.7515c0.4737,0.12285 0.4479,0.20085 0.82185,0.0654l0.0789,-0.7275c0.21105,0.8883 1.03005,2.0811 1.5291,2.89785l-0.36645,0.3714c-0.4596,-0.82125 -0.9435,-1.62855 -1.4511,-2.421c0.05655,0.9972 0.10815,1.9995 0.1503,2.9964c0.02985,0.70335 0.7317,1.7379 0.45945,2.5395l-0.24285,0.05115c-0.42885,-0.3411 -0.4518,-0.41955 -0.64245,-0.9381c0.3129,-1.7556 -0.6474,-2.7387 -0.33675,-4.8351z" fill="#4b2212"/><path d="M64.00875,81.8346c1.317,0.0987 2.51985,0.2004 3.84135,0.18645c0.51255,0.10455 0.6885,0.10995 1.07925,0.46695c-1.03905,0.17475 -3.29415,0.34305 -4.34235,0.22185c-0.48615,-0.0729 -0.73215,-0.0696 -1.14735,-0.336l0.03195,-0.22875z" fill="#5b1d16"/><path d="M79.5042,83.98725c0.7275,0.984 2.22075,2.2629 2.23485,3.102c-0.21945,0.42495 -0.2595,0.46275 -0.6873,0.67725l-0.36945,-0.0078c-0.48405,-0.5559 -0.13305,-1.42395 -0.4353,-2.02815c-0.17475,-0.34905 -0.83445,-1.06425 -1.10925,-1.3719z" fill="#2f0e09"/><path d="M79.26285,80.7357c0.57225,-0.2424 2.7657,0.17925 3.38085,0.43275c-0.4413,0.5064 -0.5259,0.4398 -0.60135,1.00635l0.1749,0.34965l-0.4869,-0.24285c-0.3105,-0.25755 -2.04255,-1.28505 -2.4675,-1.5459z" fill="#e3b4ae"/><path d="M79.25745,81.48375c-0.17775,-0.3042 -0.5448,-0.6003 -0.8142,-0.84615c0.26325,-0.123 0.2817,-0.04605 0.64635,0.048l0.17325,0.0501c0.42495,0.26085 2.157,1.28835 2.4675,1.5459c-0.04485,0.25905 -0.1107,0.735 -0.1899,0.96795c-0.6309,-0.47025 -1.74465,-1.2504 -2.283,-1.7658z" fill="#4f1c16"/><path d="M82.407,78.04275c1.14705,-0.28215 1.81305,-0.2478 2.38785,-1.1913c0.04815,-0.0792 0.0951,-0.15915 0.141,-0.23985l0.31095,0.01845c0.315,0.37245 0.24915,0.18675 0.2424,0.66255c-0.57525,0.96315 -1.85145,0.94725 -2.87205,1.0896c-0.10635,-0.11205 -0.13395,-0.1977 -0.21015,-0.33945z" fill="#170c09"/><path d="M84.70665,80.33265c0.60465,0.0222 1.16025,-0.0456 1.60245,0.31035c0.2181,0.4224 0.2058,0.2463 0.0891,0.6528c-0.52665,0.28575 -0.28965,0.22215 -0.91665,0.21135c-0.4944,-0.2685 -0.63105,-0.34965 -1.0737,-0.7059c0.0417,-0.3558 -0.02865,-0.1908 0.2988,-0.4686z" fill="#4f1c16"/><path d="M81.73035,82.2816l0.4869,0.24285c0.44925,0.3348 0.5049,0.3801 0.6996,0.9021l-0.06405,0.34755c-0.60255,0.25155 -0.8634,-0.1287 -1.31235,-0.52455c0.0792,-0.23295 0.14505,-0.7089 0.1899,-0.96795z" fill="#170c09"/><path d="M25.34175,96.7614c0.6723,0.4719 1.96785,0.0252 2.46195,0.20925c0.9387,0.34965 2.8557,2.69175 3.3315,3.53835l-0.0195,0.2841c0.69585,1.01265 1.59165,2.56035 2.2149,3.4152c0.17475,-0.02625 0.12975,-0.01425 0.31155,0.0246l0.11115,0.22635l0.2268,-0.06555l0.12315,-0.28785c-0.1773,-0.49905 -0.31365,-0.74625 -0.55875,-1.20165l0.10575,-0.1725c0.438,-0.135 0.24855,-0.1407 0.6957,0.0504l0.0327,0.28305c1.917,1.06305 9.2724,3.34065 11.25855,0.90585c0.3069,-0.3762 0.27225,-1.48125 0.87795,-2.1018c2.1873,1.7451 3.39915,3.2208 3.9375,6.0702c-0.99315,0.717 -2.8722,0.59115 -3.1623,1.7853c0.1542,0.3855 0.27015,0.65205 0.3696,1.06035c-0.38055,0.4134 -1.02825,0.24075 -1.56405,0.16845l-0.864,0.27945c-0.10545,0.20925 -0.24,0.38055 -0.39,0.5586c-0.38085,0.56835 0.606,3.52335 0.2973,4.383c-0.64815,1.8048 -1.58085,1.9071 -2.4951,3.8718c-7.4322,2.2116 -11.47635,-3.4137 -14.2311,-9.32625c-1.01865,1.64865 -1.5285,2.7525 -3.37725,3.4974l-0.16095,-0.64845l-0.14655,-0.8784l-0.93045,0.10065c-0.52935,0.39525 -0.2745,0.2964 -1.01265,0.3108c-0.55455,0.1986 -0.3534,0.0666 -0.7548,0.525c-3.5643,-3.8481 -2.50095,-11.77155 1.05615,-15.2466c0.7854,-0.7674 1.32015,-1.1016 2.25525,-1.6191z" fill="#5b1d16"/><path d="M33.3501,104.43585l0.4449,0.44685c3.49065,4.6806 3.24795,5.93565 10.05135,7.22925c1.3158,4.374 0.64665,4.7097 -2.45955,5.67825c-0.3522,0.1098 0.33375,1.86465 -0.76485,1.9017c-1.9659,0.39285 -3.96765,-0.51645 -5.62065,-1.49145c-1.23705,-0.72975 -4.53045,-4.0788 -4.3887,-5.5683c0.033,-0.24975 -0.01065,-0.5079 -0.03705,-0.7611c2.0934,-1.14345 2.526,-5.2626 2.77455,-7.4352z" fill="#e5ddd2"/><path d="M33.3501,104.43585l0.4449,0.44685l-0.0339,0.1464c-0.68505,3.04215 0.1707,5.2026 -3.1485,7.60305c0.033,-0.24975 -0.01065,-0.5079 -0.03705,-0.7611c2.0934,-1.14345 2.526,-5.2626 2.77455,-7.4352z" fill="#4b2212"/><path d="M46.51515,101.8692c2.1873,1.7451 3.39915,3.2208 3.9375,6.0702c-0.99315,0.717 -2.8722,0.59115 -3.1623,1.7853c0.1542,0.3855 0.27015,0.65205 0.3696,1.06035c-0.38055,0.4134 -1.02825,0.24075 -1.56405,0.16845c-2.18595,-0.4593 -1.065,-1.29225 -2.5332,-1.69515l-0.2022,0.14385c-0.0135,0.51135 0.2586,0.9255 0.49245,1.401l-0.0792,0.1752c-3.18555,0.93135 -10.44045,-5.33865 -9.3951,-7.91325c1.917,1.06305 9.2724,3.34065 11.25855,0.90585c0.3069,-0.3762 0.27225,-1.48125 0.87795,-2.1018z" fill="#e5ddd2"/><path d="M27.01245,97.2831c2.92245,2.7891 2.8971,14.24835 -0.213,14.3793c-0.6924,-0.25695 -0.98385,-0.4845 -1.5969,-0.9039c-1.96125,-5.46 -0.4629,-8.62035 1.8099,-13.4754z" fill="#e5ddd2"/><path d="M22.78515,113.1021c-3.5943,-3.54795 -2.0889,-12.0645 1.6245,-14.9433c0.5142,-0.39855 1.1586,-0.8709 1.815,-0.828c0.52305,0.10485 0.33405,0.13995 0.7878,-0.0477c-2.2728,4.85505 -3.77115,8.0154 -1.8099,13.4754l-0.2103,0.37815c-0.05925,0.43575 -0.12975,1.1598 -0.264,1.554l-0.93045,0.10065c-0.52935,0.39525 -0.2745,0.2964 -1.01265,0.3108z" fill="#efcec8"/><path d="M26.22465,97.3308c0.52305,0.10485 0.33405,0.13995 0.7878,-0.0477c-2.2728,4.85505 -3.77115,8.0154 -1.8099,13.4754l-0.2103,0.37815c-0.05925,0.43575 -0.12975,1.1598 -0.264,1.554l-0.93045,0.10065c0.69195,-2.37675 -0.11115,-2.6898 -0.3474,-4.80795c-0.3714,-3.3309 1.1547,-7.7937 2.77425,-10.65255z" fill="url(#color-1)"/><path d="M28.4853,97.88625c0.91545,0.85845 1.71765,1.98825 2.6304,2.90685c0.69585,1.01265 1.59165,2.56035 2.2149,3.4152l0.0195,0.22755c-0.24855,2.1726 -0.68115,6.29175 -2.77455,7.4352l-0.3147,-0.05265c-0.46965,-0.3579 -0.68055,-0.9273 -0.94605,-1.4673c0.2151,-1.24095 0.5625,-2.4675 0.7122,-3.7455c0.351,-2.997 -0.6198,-5.916 -1.5417,-8.71935z" fill="#efcec8"/><path d="M24.99225,111.13665c0.47505,0.34605 0.92145,0.60825 1.20015,1.12275c0.09735,0.8802 -0.51255,1.1223 -1.3176,1.30965l-0.14655,-0.8784c0.13425,-0.3942 0.20475,-1.11825 0.264,-1.554z" fill="#e3b4ae"/><path d="M183.276,103.6404c0.1395,-0.3711 0.0675,-3.4293 0.1875,-4.2702c0.543,-3.7767 4.0725,-8.16405 8.1825,-7.86855c1.6935,0.1218 2.3235,1.8612 3.1875,3.0366l0.0675,0.0903l0.399,0.3009c2.481,-1.61115 4.119,-1.9299 6.021,0.86445c1.557,2.29005 1.776,6.05145 1.1115,8.71935c0.309,0.42825 0.351,0.48555 0.8325,0.69285c-0.1845,0.47385 -1.476,2.75955 -1.4865,2.8236c-0.177,0.5331 -0.1785,0.3096 0.009,0.84c-1.428,1.08 -2.52,1.80465 -4.035,2.7597c-1.185,1.14255 -4.5795,4.23165 -5.3415,5.3835c1.479,-0.33465 4.587,-1.0056 5.7195,-1.97685c0.291,-0.5532 0.3015,-1.1253 0.3645,-1.7499c0.5355,-0.07815 1.323,0.57915 1.377,1.11045c-0.4335,0.85935 -5.8575,2.8605 -6.834,3.61035l0.138,0.9141l-0.1455,0.04545l-0.7665,0.5439c-0.0945,0.2871 -0.231,0.40845 -0.4275,0.636c-0.8955,0.2754 -1.9575,-0.79455 -2.853,-1.23825l-0.846,0.24195l-0.243,-0.61695l0.2415,-0.2031c0.174,-0.0546 0.255,-0.1239 0.4155,-0.22275c0.2145,-0.53895 -0.135,-0.70545 -0.126,-1.5333l0.285,-0.20955l0.5085,-0.1074c-0.3015,-0.48075 -0.9345,-2.1951 -1.299,-2.8677c-1.5585,-2.87355 -3.1875,-6.60525 -5.079,-9.1974c0.36,-0.2121 0.24,-0.1101 0.435,-0.55155z" fill="#e5ddd2"/><path d="M183.276,103.6404c0.1395,-0.3711 0.0675,-3.4293 0.1875,-4.2702c0.543,-3.7767 4.0725,-8.16405 8.1825,-7.86855c1.6935,0.1218 2.3235,1.8612 3.1875,3.0366l0.0675,0.0903l0.399,0.3009c-0.2115,0.1041 -0.492,0.30135 -0.6165,0.19725c-1.5675,-1.3839 -2.4585,-3.79155 -5.0625,-2.568c-2.1885,1.0293 -4.059,3.0168 -4.9005,5.2812c-1.995,5.3685 1.038,10.1583 3.531,14.7009c0.6255,1.1421 1.0365,2.46735 1.8615,3.5109c-0.213,-1.9605 -0.192,-3.61485 -0.1965,-5.5794l-0.087,-0.1209c-0.5805,-0.8148 -1.191,-1.9878 -0.4215,-2.86845c0.402,-0.12915 0.456,-0.17835 0.8355,-0.0549c1.5225,1.42875 0.3615,2.0328 0.372,3.26295c0.015,1.8387 0.0405,3.987 0.2235,5.8128c0.7275,-1.6458 2.1855,-5.0052 2.7105,-6.64485l0.6885,0.05535c-1.188,2.10015 -1.6725,4.45515 -2.5545,6.71745c1.929,-1.5633 4.164,-4.75155 5.9715,-5.4486l0.0975,0.44625c-1.185,1.14255 -4.5795,4.23165 -5.3415,5.3835c1.479,-0.33465 4.587,-1.0056 5.7195,-1.97685c0.291,-0.5532 0.3015,-1.1253 0.3645,-1.7499c0.5355,-0.07815 1.323,0.57915 1.377,1.11045c-0.4335,0.85935 -5.8575,2.8605 -6.834,3.61035l0.138,0.9141l-0.1455,0.04545l-0.7665,0.5439c-0.0945,0.2871 -0.231,0.40845 -0.4275,0.636c-0.8955,0.2754 -1.9575,-0.79455 -2.853,-1.23825l-0.846,0.24195l-0.243,-0.61695l0.2415,-0.2031c0.174,-0.0546 0.255,-0.1239 0.4155,-0.22275c0.2145,-0.53895 -0.135,-0.70545 -0.126,-1.5333l0.285,-0.20955l0.5085,-0.1074c-0.3015,-0.48075 -0.9345,-2.1951 -1.299,-2.8677c-1.5585,-2.87355 -3.1875,-6.60525 -5.079,-9.1974c0.36,-0.2121 0.24,-0.1101 0.435,-0.55155z" fill="#4f1c16"/><path d="M189.219,116.25705c0.1995,-0.2274 0.288,-0.32745 0.528,-0.52905c0.969,0.66675 1.5255,0.97575 2.6415,1.35795c0.3165,0.10845 0.1575,0.537 0.6495,0.921l0.138,0.9141l-0.1455,0.04545l-0.7665,0.5439c-0.0945,0.2871 -0.231,0.40845 -0.4275,0.636c-0.8955,0.2754 -1.9575,-0.79455 -2.853,-1.23825l-0.846,0.24195l-0.243,-0.61695l0.2415,-0.2031c0.174,-0.0546 0.255,-0.1239 0.4155,-0.22275c0.2145,-0.53895 -0.135,-0.70545 -0.126,-1.5333l0.285,-0.20955z" fill="#5f170f"/><path d="M202.4325,104.51325c0.309,0.42825 0.351,0.48555 0.8325,0.69285c-0.1845,0.47385 -1.476,2.75955 -1.4865,2.8236c-0.177,0.5331 -0.1785,0.3096 0.009,0.84c-1.428,1.08 -2.52,1.80465 -4.035,2.7597l-0.0975,-0.44625c2.214,-1.2918 4.1025,-4.1823 4.7775,-6.6699z" fill="#5b1d16"/><path d="M193.5495,109.85895c-0.2715,-0.44895 -0.486,-0.6807 -0.444,-1.1916c0.5385,-0.69405 1.299,-0.25815 1.8615,0.2076l0.165,0.3843c-0.2055,0.44355 -0.39,0.5397 -0.894,0.65505z" fill="#4f1c16"/><path d="M168.8085,103.0632c0.0435,-0.0528 0.0885,-0.10455 0.1335,-0.1551c4.005,-4.39395 10.1415,-2.27925 13.899,1.28385c1.8915,2.59215 3.5205,6.32385 5.079,9.1974c0.3645,0.6726 0.9975,2.38695 1.299,2.8677l-0.5085,0.1074l-0.285,0.20955c-0.009,0.82785 0.3405,0.99435 0.126,1.5333c-0.1605,0.09885 -0.2415,0.16815 -0.4155,0.22275c-0.0675,-0.10425 -0.291,-0.3213 -0.3885,-0.4224l-0.2595,0.30735c-0.882,0.0912 -4.746,0.68835 -5.5005,0.94035l0.366,0.63735c-2.217,0.27345 -4.4355,0.52155 -6.657,0.74415c-0.684,-0.2208 -0.9885,-0.3579 -1.707,-0.312l-0.018,-0.11655l-1.4565,-0.5832c0.0975,-0.09045 0.459,-0.54915 0.561,-0.6735c-4.695,-1.6824 -7.323,-6.18 -7.0155,-11.07375c0.123,-1.94955 3.03,-0.74655 3.9705,-1.71c-0.4515,-1.03305 -0.8295,-1.9482 -1.2225,-3.00465z" fill="#e5ddd2"/><path d="M187.308,115.17885c-0.648,-0.71055 -2.9625,-2.8728 -2.4945,-3.7485c1.0635,0.21015 2.358,3.69525 3.897,4.9341l-0.285,0.20955c-0.009,0.82785 0.3405,0.99435 0.126,1.5333c-0.1605,0.09885 -0.2415,0.16815 -0.4155,0.22275c-0.0675,-0.10425 -0.291,-0.3213 -0.3885,-0.4224c-0.7005,-0.41265 -4.2315,-1.45455 -5.1075,-1.52475c-0.5955,0.35115 -0.402,0.43605 -0.843,1.1592l-0.2685,-0.00045c-1.0035,-0.6027 -1.0035,-2.13525 0.225,-2.03655c1.0245,0.0822 5.757,1.78605 6.4785,1.4244c-0.3735,-1.02075 -3.003,-1.72335 -4.5555,-3.6783c1.14,0.7581 2.328,1.49685 3.6315,1.92765z" fill="#4f1c16"/><path d="M175.875,119.5404c2.289,0.00405 3.867,-0.0066 6.1125,-0.38505l0.366,0.63735c-2.217,0.27345 -4.4355,0.52155 -6.657,0.74415c-0.684,-0.2208 -0.9885,-0.3579 -1.707,-0.312l-0.018,-0.11655c0.48,-0.63375 1.161,-0.53805 1.9035,-0.5679z" fill="url(#color-2)"/><path d="M173.076,118.8516c1.1175,0.3615 1.6395,0.48855 2.799,0.6888c-0.7425,0.02985 -1.4235,-0.06585 -1.9035,0.5679l-1.4565,-0.5832c0.0975,-0.09045 0.459,-0.54915 0.561,-0.6735z" fill="#5f170f"/><path d="M182.2665,111.6441c0.9255,0.2415 1.7745,1.1328 0.8175,1.98075c-0.729,-0.177 -1.0905,-0.13905 -1.3815,-0.876c0.048,-0.50295 0.261,-0.7092 0.564,-1.10475z" fill="#2f0e09"/><path d="M201.7875,108.8697c4.086,-2.16045 9.5445,-2.70165 13.149,1.16715c0.1755,0.1875 0.723,0.939 0.8685,1.0536c0.117,1.4019 -0.963,2.4459 -1.851,3.5232c1.152,0.62175 2.3325,1.17495 3.3225,2.03295c-1.314,4.9917 -3.579,7.8009 -8.9175,8.6136l-2.4615,0.0126c-0.489,-0.02055 -1.137,-0.16635 -1.6305,-0.25875l0.0825,0.30795l-0.309,0.435c-2.7615,-1.07895 -5.79,-2.595 -8.4495,-3.94425c-0.915,-0.46485 -2.2365,-1.79295 -3.327,-2.30235l0.7665,-0.5439l0.1455,-0.04545l-0.138,-0.9141c0.9765,-0.74985 6.4005,-2.751 6.834,-3.61035c-0.054,-0.5313 -0.8415,-1.1886 -1.377,-1.11045c-0.063,0.6246 -0.0735,1.1967 -0.3645,1.7499c-1.1325,0.97125 -4.2405,1.6422 -5.7195,1.97685c0.762,-1.15185 4.1565,-4.24095 5.3415,-5.3835c1.515,-0.95505 2.607,-1.6797 4.035,-2.7597z" fill="#e5ddd2"/><path d="M193.038,118.00695c1.6575,0.61395 4.371,0.95055 6.1995,1.2171l1.131,0.966c-0.522,1.03515 -0.7185,1.38 -1.4205,2.32755c1.7325,1.40085 3.1275,2.01615 5.319,2.49645l0.0825,0.30795l-0.309,0.435c-2.7615,-1.07895 -5.79,-2.595 -8.4495,-3.94425c-0.915,-0.46485 -2.2365,-1.79295 -3.327,-2.30235l0.7665,-0.5439l0.1455,-0.04545z" fill="#5b1d16"/><path d="M193.176,118.92105c1.53,0.03495 5.2395,0.8145 6.738,1.23855c-0.6165,0.9606 -0.846,1.15995 -1.2045,2.25585c-1.0845,-0.4155 -5.349,-2.3922 -5.679,-3.44895z" fill="#efcec8"/><path d="M200.883,115.977c0.5055,-0.21255 1.089,0.0198 1.3095,0.52215c0.222,0.5022 0,1.08915 -0.4995,1.31895c-0.33,0.15225 -0.7155,0.1146 -1.011,-0.09855c-0.294,-0.2133 -0.4515,-0.5688 -0.4095,-0.93c0.042,-0.3612 0.2745,-0.67185 0.6105,-0.81255z" fill="#5f170f"/><path d="M188.9835,118.90815c0.8955,0.4437 1.9575,1.51365 2.853,1.23825c0.1965,-0.22755 0.333,-0.3489 0.4275,-0.636c1.0905,0.5094 2.412,1.8375 3.327,2.30235c2.6595,1.34925 5.688,2.8653 8.4495,3.94425l0.309,-0.435l-0.0825,-0.30795c0.4935,0.0924 1.1415,0.2382 1.6305,0.25875c-0.072,0.5916 -0.0975,0.88095 -0.276,1.4541c2.247,2.55105 2.994,4.3239 2.7705,7.7799l-0.0105,0.1665c-0.8295,4.4727 -2.0835,4.6455 -6.1875,3.26895c-0.3285,1.18305 -0.693,2.8827 -1.389,3.8616c-4.5225,1.482 -9.5625,-2.1969 -11.3625,-6.29415c-1.2765,-2.9067 -0.3165,-5.3388 0.2205,-8.41875c-0.3105,-1.4169 0.2115,-1.68225 -0.8685,-2.7576l0.219,-0.13755c-0.0195,-0.6141 0.2205,-2.15475 0.378,-2.74395c-0.126,-0.49785 -0.1425,-0.57165 -0.447,-0.98085c-1.044,1.2888 -2.2305,2.0856 -3.3045,3.29955c-0.144,0.16245 -0.189,0.83595 -0.2295,1.06695l-0.054,-1.37715c0.918,-0.8787 3.3585,-3.38325 3.627,-4.5522z" fill="#e5ddd2"/><path d="M188.9835,118.90815c0.8955,0.4437 1.9575,1.51365 2.853,1.23825c0.1965,-0.22755 0.333,-0.3489 0.4275,-0.636c0.135,0.66195 0.228,0.8247 0.5175,1.42575c0.123,1.10115 0.2865,1.5339 0.903,2.4639c0.2595,0.51 0.42,0.72 0.3195,1.29465l-0.2265,-0.01005c-0.7575,-0.882 -2.0925,-3.3609 -2.6985,-4.42515c-0.3405,1.3734 -0.429,3.95385 -0.762,4.81755c0.048,0.9072 -0.3915,0.97965 -0.654,2.0139c-0.3105,-1.4169 0.2115,-1.68225 -0.8685,-2.7576l0.219,-0.13755c-0.0195,-0.6141 0.2205,-2.15475 0.378,-2.74395c-0.126,-0.49785 -0.1425,-0.57165 -0.447,-0.98085c-1.044,1.2888 -2.2305,2.0856 -3.3045,3.29955c-0.144,0.16245 -0.189,0.83595 -0.2295,1.06695l-0.054,-1.37715c0.918,-0.8787 3.3585,-3.38325 3.627,-4.5522z" fill="#5b1d16"/><path d="M188.9445,120.471c0.363,-0.52215 0.2715,-0.55065 0.783,-0.80505c0.9315,0.95625 0.0915,4.506 0.5895,5.4111c0.048,0.9072 -0.3915,0.97965 -0.654,2.0139c-0.3105,-1.4169 0.2115,-1.68225 -0.8685,-2.7576l0.219,-0.13755c-0.0195,-0.6141 0.2205,-2.15475 0.378,-2.74395c-0.126,-0.49785 -0.1425,-0.57165 -0.447,-0.98085z" fill="#e3b4ae"/><path d="M189.3915,121.45185c0.3795,0.63675 0.195,1.80705 0.0285,2.511c-0.2415,0.2385 -0.1035,0.17535 -0.4065,0.23295c-0.0195,-0.6141 0.2205,-2.15475 0.378,-2.74395z" fill="#6e4c4b"/><path d="M192.7815,120.93615c1.2675,1.09125 1.9335,1.5816 2.772,3.1239l-0.042,0.15315c-0.99,-0.3918 -0.8025,-1.2189 -1.473,-1.41825c-0.213,0.24975 -0.2295,0.31455 -0.354,0.6051c-0.6165,-0.93 -0.78,-1.36275 -0.903,-2.4639z" fill="#986b68"/><path d="M204.267,125.01405c0.4935,0.0924 1.1415,0.2382 1.6305,0.25875c-0.072,0.5916 -0.0975,0.88095 -0.276,1.4541c-0.51,-0.44985 -0.9795,-0.6588 -1.581,-0.9699l0.309,-0.435z" fill="#5f170f"/><path d="M196.368,124.73325c0.8085,0.2253 1.1115,0.2232 1.4505,1.02405c-0.024,0.5796 -0.171,0.75435 -0.4635,1.23825c-0.282,0.03195 -0.5025,0.0201 -0.7845,0.0174c-1.0575,-0.58665 -0.6,-1.33725 -0.2025,-2.2797z" fill="#2f0e09"/><path d="M192.4425,126.2082c0.495,-0.09015 0.6375,-0.1446 1.134,-0.05805c0.3885,0.31035 0.2835,0.1425 0.3915,0.6342c-0.1335,0.58215 -0.2085,0.672 -0.54,1.1478c-0.6675,-0.14085 -1.221,-0.3171 -1.4445,-1.02945c0.1095,-0.48495 0.0375,-0.3126 0.459,-0.6945z" fill="#2f0e09"/><path d="M23.61975,42.24075c1.40805,-1.25505 2.94525,-2.4504 4.9203,-1.85055c1.86735,0.67665 2.39025,2.3013 2.58675,4.1268l0.1281,0.46965c0.369,0.12285 0.18645,0.1176 0.5661,0.00825c0.90525,-0.5733 2.31495,-0.43725 2.7672,0.6327c1.56495,3.70155 -0.2481,8.36685 -3.21195,10.7535c-0.4086,0.19875 -0.81405,0.51495 -0.98595,0.94755c-0.3852,0.4101 -2.3178,1.34025 -2.89815,1.5471c-0.3351,0.153 -1.9605,0.9639 -2.17125,1.032c-1.5669,0.5553 -2.3571,0.9876 -3.75645,1.9161c-0.2847,-0.06555 -0.204,-0.048 -0.46485,-0.2019c0.30585,-0.2304 0.51135,-0.4116 0.79365,-0.67065c-0.56595,0.21195 -0.96705,0.3645 -1.55655,0.51015l-0.21135,-0.1107c-0.1593,-0.2697 -0.36165,-0.4266 -0.5916,-0.6393l-0.19665,0.0405c-0.69015,0.73605 -0.34035,-0.2037 -1.48815,-0.0378c-0.4845,-0.55665 -1.4931,-3.6867 -2.48025,-4.7376c0.2616,-0.1575 0.3216,-0.2799 0.4974,-0.5241l0.4338,-0.5955l1.0338,0.06525c-0.1386,-2.3682 -0.23475,-3.47805 -1.0911,-5.72205l0.40725,-0.2487c0.2073,-0.32385 0.16185,-1.0422 0.1806,-1.4952c0.00795,-0.09165 0.0165,-0.18315 0.0258,-0.2745c0.339,-3.3603 3.35625,-10.0731 6.7635,-4.941z" fill="#e5ddd2"/><path d="M23.61975,42.24075c1.40805,-1.25505 2.94525,-2.4504 4.9203,-1.85055c-1.4046,0.16455 -1.33335,-0.11775 -2.31525,0.88485c-1.1211,0.6924 -1.79055,1.1052 -2.80215,1.93935c-0.588,-0.8403 -1.36605,-1.72875 -2.1744,-2.36505c-5.6517,3.39945 -3.34245,10.9941 -2.90055,16.3284c0.04725,0.5709 0.3579,2.08845 0.2868,2.5215c-0.5619,-0.58125 -0.47505,-0.7875 -0.7026,-1.64655c-0.0951,-0.8742 -0.20295,-2.40705 -0.5982,-3.1305c-0.1386,-2.3682 -0.23475,-3.47805 -1.0911,-5.72205l0.40725,-0.2487c0.2073,-0.32385 0.16185,-1.0422 0.1806,-1.4952c0.00795,-0.09165 0.0165,-0.18315 0.0258,-0.2745c0.339,-3.3603 3.35625,-10.0731 6.7635,-4.941z" fill="#4f1c16"/><path d="M31.821,44.9949c0.90525,-0.5733 2.31495,-0.43725 2.7672,0.6327c1.56495,3.70155 -0.2481,8.36685 -3.21195,10.7535c-0.4086,0.19875 -0.81405,0.51495 -0.98595,0.94755c-0.3852,0.4101 -2.3178,1.34025 -2.89815,1.5471c-0.57645,-0.10065 -0.5499,-0.1104 -1.0917,0.1914l-0.19935,-0.21495l0.9177,-0.3276l-0.02985,-0.1635c0.9549,-1.2444 4.58535,-2.19945 5.58195,-4.5687c0.8931,-2.1234 3.15285,-6.5199 0.38955,-8.17245c0.04605,-0.0702 0.07845,-0.2301 0.1038,-0.32205c-0.39585,-0.13365 -0.79005,0.04005 -1.2624,0.1428c0.0447,-0.32715 0.0807,-0.18525 -0.08085,-0.4458z" fill="#4f1c16"/><path d="M24.05415,56.7531c0.42135,-0.16425 0.50835,-0.15 0.9693,-0.1761c0.9837,0.53685 0.5544,1.22145 1.34085,1.93605l0.72465,-0.15195l0.02985,0.1635l-0.9177,0.3276l0.19935,0.21495c0.5418,-0.3018 0.51525,-0.29205 1.0917,-0.1914c-0.3351,0.153 -1.9605,0.9639 -2.17125,1.032c-1.5669,0.5553 -2.3571,0.9876 -3.75645,1.9161c-0.2847,-0.06555 -0.204,-0.048 -0.46485,-0.2019c0.30585,-0.2304 0.51135,-0.4116 0.79365,-0.67065c-0.56595,0.21195 -0.96705,0.3645 -1.55655,0.51015l-0.21135,-0.1107c0.1005,-0.3807 1.90875,-2.298 2.41965,-3.03735c0.2976,-0.3702 1.1406,-1.18095 1.50915,-1.5603z" fill="#efcec8"/><path d="M26.3643,58.51305l0.72465,-0.15195l0.02985,0.1635l-0.9177,0.3276l0.19935,0.21495c0.5418,-0.3018 0.51525,-0.29205 1.0917,-0.1914c-0.3351,0.153 -1.9605,0.9639 -2.17125,1.032c-1.5669,0.5553 -2.3571,0.9876 -3.75645,1.9161c-0.2847,-0.06555 -0.204,-0.048 -0.46485,-0.2019c0.30585,-0.2304 0.51135,-0.4116 0.79365,-0.67065c0.3771,-0.30945 4.07295,-2.3199 4.47105,-2.43825z" fill="#2f0e09"/><path d="M16.2999,54.85695l1.0338,0.06525c0.39525,0.72345 0.5031,2.2563 0.5982,3.1305c0.22755,0.85905 0.1407,1.0653 0.7026,1.64655l0.19515,0.4434c1.17195,-1.2162 0.8703,-2.9181 1.52115,-4.3734c0.63135,0.7656 -0.53145,3.87105 -1.05855,4.7145l0.04485,0.2682c-0.69015,0.73605 -0.34035,-0.2037 -1.48815,-0.0378c-0.4845,-0.55665 -1.4931,-3.6867 -2.48025,-4.7376c0.2616,-0.1575 0.3216,-0.2799 0.4974,-0.5241z" fill="#4f1c16"/><path d="M16.2999,54.85695l1.0338,0.06525c0.39525,0.72345 0.5031,2.2563 0.5982,3.1305l-0.65055,0.16065l-1.41525,-2.7609z" fill="#efcec8"/><path d="M17.9319,58.0527c0.22755,0.85905 0.1407,1.0653 0.7026,1.64655l0.19515,0.4434c-0.20865,0.16005 -0.0852,0.1089 -0.4089,0.0702c-0.59175,-0.68325 -0.7758,-1.18605 -1.1394,-1.9995z" fill="#e3b4ae"/><path d="M28.54005,40.3902c1.86735,0.67665 2.39025,2.3013 2.58675,4.1268c-0.12435,0.55125 -0.03465,0.7782 -0.6888,0.8514c-0.49845,-2.75775 -0.7461,-4.95705 -4.2132,-4.09335c0.9819,-1.0026 0.91065,-0.7203 2.31525,-0.88485z" fill="#4f1c16"/><path d="M22.28295,57.93315l0.26205,0.38025c-0.5109,0.73935 -2.31915,2.65665 -2.41965,3.03735c-0.1593,-0.2697 -0.36165,-0.4266 -0.5916,-0.6393c1.1205,-0.64365 1.8579,-1.83885 2.7492,-2.7783z" fill="#4f1c16"/><path d="M31.1268,44.517l0.1281,0.46965c0.369,0.12285 0.18645,0.1176 0.5661,0.00825c0.16155,0.26055 0.12555,0.11865 0.08085,0.4458c0.47235,-0.10275 0.86655,-0.27645 1.2624,-0.1428c-0.02535,0.09195 -0.05775,0.25185 -0.1038,0.32205c-0.86835,0.10125 -2.19555,0.54195 -2.62245,-0.25155c0.65415,-0.0732 0.56445,-0.30015 0.6888,-0.8514z" fill="#4f1c16"/><path d="M22.28295,57.93315c0.1107,-0.31365 0.20115,-0.5985 0.2973,-0.91695c0.5451,-0.38565 0.6672,-0.24915 1.4739,-0.2631c-0.36855,0.37935 -1.21155,1.1901 -1.50915,1.5603z" fill="#170c09"/><path d="M20.7558,53.50635c0.5205,0.12135 0.86745,0.1503 1.24755,0.5355c0.18195,0.54765 0.15735,0.3141 -0.01185,0.9591c-0.66795,-0.0993 -1.2324,-0.0876 -1.61775,-0.5958c0.0255,-0.45795 0.102,-0.5061 0.38205,-0.8988z" fill="#2f0e09"/><path d="M187.7475,117.90765c0.0975,0.1011 0.321,0.31815 0.3885,0.4224l-0.2415,0.2031l0.243,0.61695l0.846,-0.24195c-0.2685,1.16895 -2.709,3.6735 -3.627,4.5522l0.054,1.37715c0.0405,-0.231 0.0855,-0.9045 0.2295,-1.06695c1.074,-1.21395 2.2605,-2.01075 3.3045,-3.29955c0.3045,0.4092 0.321,0.483 0.447,0.98085c-0.1575,0.5892 -0.3975,2.12985 -0.378,2.74395l-0.219,0.13755c-0.5955,0.27165 -1.2495,0.4626 -1.1775,1.1634c0.1035,1.00815 0.972,0.51555 1.449,0.909c-0.075,1.94385 -1.0965,5.8719 -2.082,7.52295c-2.385,3.999 -8.733,5.97555 -12.852,3.37845c-0.108,-1.10175 -0.0975,-2.76855 -0.1245,-3.9138c-1.341,-0.0693 -4.404,0.1794 -4.737,-1.44405c-1.026,-4.9953 1.3875,-9.89805 6.426,-11.41245c2.2215,-0.2226 4.44,-0.4707 6.657,-0.74415l-0.366,-0.63735c0.7545,-0.252 4.6185,-0.84915 5.5005,-0.94035z" fill="#e5ddd2"/><path d="M187.7475,117.90765c0.0975,0.1011 0.321,0.31815 0.3885,0.4224l-0.2415,0.2031c-0.6045,0.58305 -1.1115,1.04265 -1.9065,1.36095l-0.054,-0.23055c-0.3285,-0.36 -0.7845,-0.3576 -1.2975,-0.4422c-0.8685,0.1665 -1.443,0.264 -2.283,0.57135l-0.366,-0.63735c0.7545,-0.252 4.6185,-0.84915 5.5005,-0.94035z" fill="#4f1c16"/><path d="M187.7475,117.90765c0.0975,0.1011 0.321,0.31815 0.3885,0.4224l-0.2415,0.2031c-0.6045,0.58305 -1.1115,1.04265 -1.9065,1.36095l-0.054,-0.23055c-0.3285,-0.36 -0.7845,-0.3576 -1.2975,-0.4422c0.6705,-0.1128 2.2245,-0.28635 2.7525,-0.5979l0.099,-0.40845z" fill="#efcec8"/><path d="M185.988,119.8941c0.795,-0.3183 1.302,-0.7779 1.9065,-1.36095l0.243,0.61695c-1.4595,1.1295 -2.8635,1.5822 -4.413,2.48955c-0.7425,0.43425 -0.7875,1.53375 -1.908,1.46895l-0.366,-0.3519c0.726,-0.77055 1.182,-0.63795 1.6005,-1.2477c0.7275,-0.33405 2.1795,-1.19715 2.937,-1.6149z" fill="#4f1c16"/><path d="M185.4105,124.8375c0.0135,1.03515 -0.921,1.0221 -1.5915,0.48705c-0.456,-1.19505 0.603,-1.44675 1.5375,-1.8642z" fill="#2f0e09"/><path d="M181.4505,122.7567c-0.1455,-0.68505 -0.2625,-0.9597 0.2535,-1.41735c0.516,-0.1119 0.8355,0.0282 1.347,0.16965c-0.4185,0.60975 -0.8745,0.47715 -1.6005,1.2477z" fill="#2f0e09"/><path d="M58.33485,65.86215c4.671,-3.0912 9.91875,-0.9024 13.13685,3.14325c0.3027,0.51345 0.66645,1.09095 0.897,1.6308l0.63825,-0.75345c0.21045,0.5448 0.7509,2.50455 0.8727,2.71665c0.24825,0.8979 0.26775,1.065 0.2343,1.99995c0.38745,1.7328 0.6681,1.9416 1.80495,3.34725c-0.77385,0.3132 -0.66255,0.3231 -1.2978,0.05625c-0.56625,0.09315 -0.5214,-0.0132 -0.7881,0.3213l0.84585,0.9969l-0.28545,0.24255c-1.3164,-0.1539 -3.34545,-1.0461 -4.18365,-0.5766l-0.06,0.2595c0.7971,0.7089 3.3159,0.2862 3.93075,1.02975c-0.6852,0.94995 -5.01,1.74585 -6.2304,1.7448c-1.3215,0.01395 -2.52435,-0.08775 -3.84135,-0.18645l-0.79995,-0.19215c-1.19835,-0.38775 -2.2299,-0.7587 -3.32115,-1.42335c-2.2671,-1.35855 -3.89025,-3.57435 -4.50195,-6.1455c-0.19905,-0.83145 -0.5475,-2.5821 -0.1098,-3.3072c0.4854,-0.2781 1.2948,-0.29115 1.88235,-0.34545c0.60345,-0.0378 1.09515,0.0033 1.5789,-0.32565c0.8322,-1.5405 -1.5234,-2.2614 -0.4023,-4.23315z" fill="#e5ddd2"/><path d="M72.45135,75.41205c0.4599,-0.50235 0.7584,-0.85245 1.30185,-1.26825l0.36075,0.45555c0.38745,1.7328 0.6681,1.9416 1.80495,3.34725c-0.77385,0.3132 -0.66255,0.3231 -1.2978,0.05625l0.04725,-0.2013c-0.96195,-0.98265 -0.9054,-1.34385 -2.217,-2.3895z" fill="#5b1d16"/><path d="M73.00695,69.88275c0.21045,0.5448 0.7509,2.50455 0.8727,2.71665c0.24825,0.8979 0.26775,1.065 0.2343,1.99995l-0.36075,-0.45555c0.0924,-0.4644 -1.07115,-2.71155 -1.3845,-3.5076z" fill="#4b2212"/><path d="M73.833,78.32415c-0.82395,-0.3693 -2.69655,-0.69675 -3.01245,-1.4577c0.4659,-0.2874 2.61945,1.09635 3.8478,0.9351l-0.04725,0.2013c-0.56625,0.09315 -0.5214,-0.0132 -0.7881,0.3213z" fill="#4f1c16"/><path d="M68.29275,75.9747c0.46215,-0.132 0.94425,0.13305 1.08045,0.594c0.1362,0.4608 -0.12435,0.9453 -0.58395,1.08585c-0.46575,0.14235 -0.95805,-0.1224 -1.09605,-0.58935c-0.138,-0.46695 0.13125,-0.95685 0.59955,-1.0905z" fill="#2f0e09"/><path d="M68.2779,78.5889c0.67965,0.03195 1.1421,-0.05115 1.4115,0.654c-0.0885,0.48615 -0.1692,0.5478 -0.5088,0.9162c-0.56835,-0.348 -1.19385,-0.5652 -1.25295,-1.24905z" fill="#2f0e09"/><path d="M70.0515,73.34205c0.4464,-0.0408 0.52335,-0.054 0.9516,0.06825c0.4353,0.357 0.5478,0.94335 0.73755,1.50675c-0.93225,-0.48405 -1.46865,-0.5184 -1.68915,-1.575z" fill="#170c09"/><path d="M72.84225,64.3434c0.5922,-2.48655 1.7694,-4.5195 4.02405,-5.80515c3.13515,-1.7877 3.60315,0.36165 4.8408,2.3298c1.2192,-0.40635 2.2029,-1.12605 3.3552,-1.59c3.99075,1.65225 4.31475,6.86085 2.9124,10.3914c-0.8784,2.21145 -2.3532,3.04785 -4.1571,4.4136c-0.2109,0.1005 -5.2917,4.12155 -5.40405,4.2786l-0.52425,0.2307l-0.2313,0.1773c-0.5556,-0.1074 -1.18665,-0.34815 -1.5942,-0.7512l-0.1449,-0.07185c-1.13685,-1.40565 -1.4175,-1.61445 -1.80495,-3.34725c0.03345,-0.93495 0.01395,-1.10205 -0.2343,-1.99995c-0.1218,-0.2121 -0.66225,-2.17185 -0.8727,-2.71665l-0.63825,0.75345c-0.23055,-0.53985 -0.5943,-1.11735 -0.897,-1.6308l0.35865,-0.6462c-0.08955,-2.25555 -0.0561,-2.98935 0.43275,-5.1825c0.18525,0.32475 0.5055,0.82245 0.57915,1.1667z" fill="#e5ddd2"/><path d="M77.8155,71.27775l0.5631,0.12435c-0.5784,1.89855 -0.98715,4.6152 -1.07985,6.6063c1.22235,-1.7316 2.1933,-3.4815 3.2547,-5.30745c0.2721,-0.468 0.50085,-0.65775 1.00815,-0.78525c0.38265,0.2751 0.26445,0.12375 0.3978,0.6402c-0.22995,0.80505 -0.1203,0.3903 -0.615,0.73455c-1.59135,1.10745 -2.47755,3.4785 -3.6216,5.02755c0.06435,0.2163 -0.0018,0.13245 0.1665,0.27435l-0.2313,0.1773c-0.5556,-0.1074 -1.18665,-0.34815 -1.5942,-0.7512c0.30975,-0.3552 0.19905,-0.6111 0.21015,-1.1973c0.6789,-0.56595 1.3488,-4.46355 1.54155,-5.5434z" fill="#4f1c16"/><path d="M72.2631,63.1767c0.18525,0.32475 0.5055,0.82245 0.57915,1.1667c-0.18045,1.6305 -0.4017,3.9633 0.1647,5.53935l-0.63825,0.75345c-0.23055,-0.53985 -0.5943,-1.11735 -0.897,-1.6308l0.35865,-0.6462c-0.08955,-2.25555 -0.0561,-2.98935 0.43275,-5.1825z" fill="#5f170f"/><path d="M75.0573,72.2499c0.10575,0.86805 0.3672,3.8505 0.85005,4.3455l0.2268,-0.0756l0.1398,0.30135c-0.0111,0.5862 0.0996,0.8421 -0.21015,1.1973l-0.1449,-0.07185c-1.13685,-1.40565 -1.4175,-1.61445 -1.80495,-3.34725c0.03345,-0.93495 0.01395,-1.10205 -0.2343,-1.99995c1.39605,1.4376 -0.04095,1.3545 1.2423,3.64245l0.13035,0.02655c0.04575,-1.78005 -0.74265,-2.0826 -0.195,-4.0185z" fill="#e3b4ae"/><path d="M75.01965,69.7428c0.9117,2.7114 0.9231,3.9336 1.1145,6.777l-0.2268,0.0756c-0.48285,-0.495 -0.7443,-3.47745 -0.85005,-4.3455c-0.10665,-1.044 -0.09345,-1.4712 -0.03765,-2.5071z" fill="#4b2212"/><path d="M77.8155,71.27775c-0.52365,-0.5457 -0.59415,-0.45165 -0.7365,-1.0878c0.4878,-0.82845 1.43505,-0.6459 1.7802,0.2055c-0.0891,0.49485 -0.18555,0.59175 -0.4806,1.00665z" fill="#4f1c16"/><path d="M132.10815,120.8532c-0.00915,-3.21315 0.0939,-4.75905 2.51625,-7.17165c1.3386,-1.3332 5.0298,-3.97785 6.8979,-2.15175c0.81405,0.79575 0.6942,2.89185 0.6969,3.993c3.5652,-0.8112 7.24665,-1.4847 7.1274,3.5568c-0.1224,5.16945 -3.7455,9.0777 -8.7339,10.02465c-1.19535,0.2337 -2.4183,0.29205 -3.6303,0.17295l-0.47865,-0.0999c-1.04625,0.3558 -1.7472,0.44655 -2.85615,0.3777c-0.28725,-0.4203 -0.3594,-0.4971 -0.4269,-0.996c-0.15915,-0.2466 -0.23505,-0.24015 -0.5109,-0.3498c-0.6318,-1.17615 -0.51585,-4.50765 0.0252,-5.68485c0.0285,-0.06225 0.95535,-0.56415 1.22265,-0.93825l-0.0813,-0.3177c-0.5931,-0.40965 -1.02,-0.0183 -1.7682,-0.4152z" fill="#e5ddd2"/><path d="M133.2207,128.559c1.0347,-0.73005 2.09535,-1.59375 3.2424,-2.0805c0.1443,0.6156 0.1596,0.87435 0.20055,1.49805c-0.04305,0.41865 -0.0732,0.78675 -0.1599,1.20075c-1.04625,0.3558 -1.7472,0.44655 -2.85615,0.3777c-0.28725,-0.4203 -0.3594,-0.4971 -0.4269,-0.996z" fill="#e5ddd2"/><path d="M132.7098,128.2092c1.4526,-0.41595 2.5152,-2.06715 3.57165,-2.58285l0.2688,0.12585c0.11265,0.50025 0.14355,0.30225 -0.08715,0.7263c-1.14705,0.48675 -2.2077,1.35045 -3.2424,2.0805c-0.15915,-0.2466 -0.23505,-0.24015 -0.5109,-0.3498z" fill="#4f1c16"/><path d="M136.66365,127.97655c0.06015,-0.43185 0.04605,-0.6993 0.3336,-1.01685c0.4494,0.4398 0.10935,1.7604 -0.01485,2.3175l-0.47865,-0.0999c0.0867,-0.414 0.11685,-0.7821 0.1599,-1.20075z" fill="#986b68"/><path d="M138.3519,122.6385c0.71025,0.20355 1.3587,0.68085 1.3863,1.4691c-0.2835,0.55275 -0.12105,0.35745 -0.72375,0.7161c-0.76515,-0.19095 -1.5582,-0.1698 -1.64445,-1.0143c0.27765,-0.55665 0.52935,-0.7476 0.9819,-1.1709z" fill="#5f170f"/><path d="M133.48575,123.85125c0.2265,0.0876 0.3402,0.2136 0.52125,0.3735c0.19005,0.52575 -0.07005,1.15395 -0.2283,1.7124l-0.21795,0.00315c-0.333,-0.5271 -0.1827,-1.48245 -0.075,-2.08905z" fill="#efcec8"/><path d="M30.3903,57.32865c0.1719,-0.4326 0.57735,-0.7488 0.98595,-0.94755c1.3902,-0.08985 2.11395,-0.25455 3.51285,-0.0606c2.571,0.54375 5.0187,1.434 6.43635,3.8226c0.72945,2.04975 0.36405,2.16375 -1.3356,3.35835c0.7704,0.74505 1.8447,1.5348 1.7433,2.66925c-0.32445,3.6255 -5.46285,6.13875 -8.5608,6.13215c-0.2097,-0.0009 -0.41925,-0.0075 -0.62865,-0.0198l-0.2301,-0.13065c-0.2169,0.1947 -0.24285,0.19815 -0.39015,0.4614c-1.32885,-1.2315 -4.44345,-2.9334 -6.1359,-3.56655l0.63435,-0.27675c-2.29875,-0.915 -4.2006,-3.4071 -5.79435,-5.28705c0.73485,0.2607 1.46955,0.57285 2.19255,0.86895l0.40485,-0.3978c-0.41205,-0.2505 -1.521,-0.8925 -1.965,-0.8346c-0.2622,-0.20865 -0.27,-0.2379 -0.4632,-0.4965c0.14235,-0.4446 0.26055,-0.37965 0.78765,-0.65385l-0.01995,-0.1458c1.39935,-0.9285 2.18955,-1.3608 3.75645,-1.9161c0.21075,-0.0681 1.83615,-0.879 2.17125,-1.032c0.58035,-0.20685 2.51295,-1.137 2.89815,-1.5471z" fill="#e5ddd2"/><path d="M40.6287,60.64995c0.1023,-0.05655 0.5751,-0.417 0.69675,-0.50685c0.72945,2.04975 0.36405,2.16375 -1.3356,3.35835c0.7704,0.74505 1.8447,1.5348 1.7433,2.66925c-0.32445,3.6255 -5.46285,6.13875 -8.5608,6.13215c-0.2097,-0.0009 -0.41925,-0.0075 -0.62865,-0.0198l-0.2301,-0.13065c-0.2169,0.1947 -0.24285,0.19815 -0.39015,0.4614c-1.32885,-1.2315 -4.44345,-2.9334 -6.1359,-3.56655l0.63435,-0.27675c2.01345,0.82995 4.8111,2.67225 6.71715,2.63055c2.62455,-0.07965 5.1078,-1.20765 6.8943,-3.132c2.0502,-2.21085 0.78045,-3.16035 -0.94095,-4.71435c1.0455,-1.0005 1.8942,-1.39215 1.5363,-2.90475z" fill="#4f1c16"/><path d="M21.56445,61.82385c1.39935,-0.9285 2.18955,-1.3608 3.75645,-1.9161c0.28095,0.1311 0.46335,0.18645 0.6681,0.42165c0.3312,0.61785 0.35745,0.4497 0.29295,1.05675c-0.64695,0.76305 -2.979,0.9081 -3.9492,0.8964c-0.3993,-0.0837 -0.4221,-0.08115 -0.74835,-0.3129z" fill="#efcec8"/><path d="M34.8891,56.3205c2.571,0.54375 5.0187,1.434 6.43635,3.8226c-0.12165,0.08985 -0.59445,0.4503 -0.69675,0.50685c-1.62645,-2.12415 -3.00705,-2.92095 -5.68035,-3.48885c-0.3051,-0.25605 -0.67395,-0.3456 -1.0569,-0.47985c0.279,-0.2217 0.64515,-0.27315 0.99765,-0.36075z" fill="#4f1c16"/><path d="M23.22495,63.9546c1.1706,0.4302 3.48615,0.57345 3.9162,1.1016c-0.18825,0.4782 -0.24585,0.52755 -0.62235,0.8823c-0.4407,0.08865 -0.50715,0.07095 -0.98625,-0.3042c-0.86835,-0.67995 -1.63725,-1.00095 -2.71245,-1.2819z" fill="#2f0e09"/><path d="M30.3903,57.32865c0.1719,-0.4326 0.57735,-0.7488 0.98595,-0.94755c1.3902,-0.08985 2.11395,-0.25455 3.51285,-0.0606c-0.3525,0.0876 -0.71865,0.13905 -0.99765,0.36075c0.38295,0.13425 0.7518,0.2238 1.0569,0.47985c-1.8603,-0.07305 -2.7093,0.00525 -4.55805,0.16755z" fill="#5f170f"/><path d="M25.989,60.3294c0.33795,0.10065 1.25625,0.49215 1.4559,0.7644c0.03375,0.40845 0.06735,0.24525 -0.22125,0.6318c-1.038,0.55275 -3.51165,1.07355 -4.6479,0.9246c-0.2475,-0.20085 -0.1767,-0.07725 -0.243,-0.36765c0.9702,0.0117 3.30225,-0.13335 3.9492,-0.8964c0.0645,-0.60705 0.03825,-0.4389 -0.29295,-1.05675z" fill="#6e4c4b"/><path d="M30.9339,0h1.0218h4.4376h2.46705l0.0723,0.20633l0.2844,0.81722c2.0031,2.55677 3.7692,3.75965 6.18555,5.78765c0.5274,1.4667 0.49035,2.15403 0.5025,3.68203c-0.45525,2.68367 -0.98175,4.2125 -3.6,5.29636c-1.1397,-0.3216 -2.19405,-0.89173 -3.0873,-1.6693c-0.69465,-0.08464 -1.07865,1.72406 -1.6965,2.13761c-1.7658,1.182 -4.61655,-0.6138 -5.7483,-2.03745c-2.2374,-2.81419 -2.7411,-5.42065 -2.47065,-8.8732l-0.7959,0.44517l-0.4635,-0.14409l-0.2175,-0.4874c1.12065,-1.14163 2.32005,-3.6576 3.10845,-5.16093z" fill="#e5ddd2"/><path d="M30.9339,0h1.0218c-1.55715,1.68514 -2.23815,3.06255 -2.65335,5.34725l-0.7959,0.44517l-0.4635,-0.14409l-0.2175,-0.4874c1.12065,-1.14163 2.32005,-3.6576 3.10845,-5.16093z" fill="url(#color-3)"/><path d="M36.3933,0h2.46705l0.0723,0.20633l0.2844,0.81722c-0.3213,0.38736 -0.19965,0.36177 -0.5988,0.46353c-0.1797,-0.27783 -0.2016,-0.36321 -0.5127,-0.48202c-0.20745,0.22909 -0.4107,0.46202 -0.6096,0.69867l-0.2625,-0.04497c-0.42375,-0.44948 -0.61065,-1.07531 -0.84015,-1.65876z" fill="#efcec8"/><path d="M34.57755,0.24218c0.6912,0.64413 0.0378,1.58866 -0.52755,2.06596c-0.58515,-0.89196 -0.11565,-1.38339 0.52755,-2.06596z" fill="#2f0e09"/><path d="M132.4896,71.1288c0.12945,-0.59505 -1.03395,-2.1222 -1.467,-2.8632c-1.71195,-2.88585 -1.98675,-6.51165 -1.16865,-9.7215c0.4398,-1.7259 3.47325,-7.13235 5.58315,-6.47655c0.9543,0.89985 0.6462,4.191 1.04805,5.51595c0.17175,0.56595 0.40695,1.01235 0.6756,1.5327c0.4116,-0.1023 0.46815,-0.35145 0.7809,-0.7731l0.0771,-0.0405c1.35615,-0.7251 2.0133,-1.56015 3.69825,-0.9321c4.3965,1.63875 3.4674,6.999 2.0202,10.1955c-1.8636,2.90475 -5.37825,5.56875 -8.92455,5.73705c-0.8832,-0.3516 -0.4404,-1.6371 -1.2546,-2.4477c-0.5712,0.0222 -0.4263,0.0366 -0.9597,0.4131z" fill="#e5ddd2"/><path d="M144.9858,67.1451c0.6126,-0.3201 1.24455,-0.60195 1.8921,-0.8439c2.3886,-0.88485 5.6826,-0.87105 8.0121,0.1896c0.189,0.1641 0.3615,0.3198 0.5595,0.4734l0.108,0.0771c0.813,0.57525 2.2035,1.05795 2.655,1.92675c2.736,5.2485 -5.388,9.15315 -9.25665,9.7497c-3.1749,0.45735 -6.41385,-0.0648 -9.28425,-1.49655c-0.7026,-0.32325 -1.45755,-0.62325 -2.17425,-0.9216c-0.2253,-0.5679 -0.1044,-0.54195 0.0744,-1.26345l-1.20645,-1.02045c-0.68955,-0.1179 -0.09345,-0.5562 -1.55265,-0.71265c3.5463,-0.1683 7.06095,-2.8323 8.92455,-5.73705c0.5724,0.11775 0.8475,-0.01185 1.2486,-0.4209z" fill="#e5ddd2"/><path d="M144.9858,67.1451c0.6126,-0.3201 1.24455,-0.60195 1.8921,-0.8439c2.3886,-0.88485 5.6826,-0.87105 8.0121,0.1896c0.189,0.1641 0.3615,0.3198 0.5595,0.4734l0.108,0.0771c0.813,0.57525 2.2035,1.05795 2.655,1.92675c2.736,5.2485 -5.388,9.15315 -9.25665,9.7497c-3.1749,0.45735 -6.41385,-0.0648 -9.28425,-1.49655c0.23985,-0.2505 0.48375,-0.4971 0.7314,-0.7398l0.36765,0.0075c3.84105,2.81445 11.66235,1.59045 14.78235,-1.67745c0.894,-0.93555 2.097,-1.85295 2.2215,-3.264l-0.192,-0.1725l-0.093,-0.7131l0.3375,-0.2529c0.063,-1.0311 -2.562,-2.9238 -3.477,-3.2415l-0.1035,-0.0366c-2.2575,-0.7797 -6.15585,-0.80715 -8.26875,0.3459c-2.1702,1.18425 -3.62655,3.03165 -5.6262,4.52265c-1.4328,1.06845 -2.64,1.2711 -3.98625,2.0163c-0.68955,-0.1179 -0.09345,-0.5562 -1.55265,-0.71265c3.5463,-0.1683 7.06095,-2.8323 8.92455,-5.73705c0.5724,0.11775 0.8475,-0.01185 1.2486,-0.4209z" fill="#4f1c16"/><path d="M137.57175,75.03615c1.08645,0.64395 2.38725,0.82065 3.60615,0.4896c1.53015,-0.39975 2.8419,-1.55985 3.83685,-1.7043l0.201,0.14805c-0.03045,1.50075 -3.2502,2.29365 -4.4451,2.5194l-0.36765,-0.0075c-0.24765,0.2427 -0.49155,0.4893 -0.7314,0.7398c-0.7026,-0.32325 -1.45755,-0.62325 -2.17425,-0.9216c-0.2253,-0.5679 -0.1044,-0.54195 0.0744,-1.26345z" fill="#5f170f"/><path d="M157.5825,71.37495l-0.618,0.1179c-0.492,-0.2262 -0.3405,-0.0786 -0.582,-0.5469c0.0345,-0.564 -0.051,-0.37125 0.2835,-0.75795c0.5175,0.048 0.3525,0.02955 0.8235,0.47385z" fill="#2f0e09"/><path d="M137.262,54.43755c0.258,-1.20975 2.8458,-3.74145 3.9708,-4.28205c2.2539,-1.08315 3.0357,0.0117 3.62865,2.0547c0.11625,0.40065 0.75225,0.50775 1.0938,0.6072c2.8599,0.52275 2.8497,1.4706 2.85165,4.07505c0.21675,-0.27465 0.0825,-0.1713 0.4338,-0.29535l0.32925,0.23355c2.18655,-0.82455 4.47255,-1.06755 6.51705,0.2343l-0.5625,0.56685c1.878,1.9755 0.8925,6.94185 -0.6345,8.859c-2.3295,-1.06065 -5.6235,-1.07445 -8.0121,-0.1896c-0.64755,0.24195 -1.2795,0.5238 -1.8921,0.8439c-0.4011,0.40905 -0.6762,0.53865 -1.2486,0.4209c1.4472,-3.1965 2.3763,-8.55675 -2.0202,-10.1955c-1.68495,-0.62805 -2.3421,0.207 -3.69825,0.9321l-0.0771,0.0405l-0.1347,-0.1902c0.3567,-0.2742 0.4068,-0.3339 0.6723,-0.69825c-0.28095,0.0321 -0.4491,0.05775 -0.7248,-0.0444c-0.24765,-0.49845 -0.38205,-2.2746 -0.49245,-2.9727z" fill="#e5ddd2"/><path d="M139.64535,56.29875c5.3673,-0.24225 7.4799,5.0232 5.7708,9.4287c-0.1104,0.2844 -0.37395,1.1151 -0.43035,1.41765c-0.4011,0.40905 -0.6762,0.53865 -1.2486,0.4209c1.4472,-3.1965 2.3763,-8.55675 -2.0202,-10.1955c-1.68495,-0.62805 -2.3421,0.207 -3.69825,0.9321l-0.0771,0.0405l-0.1347,-0.1902c0.3567,-0.2742 0.4068,-0.3339 0.6723,-0.69825c-0.28095,0.0321 -0.4491,0.05775 -0.7248,-0.0444c0.57915,-0.57885 1.15035,-0.78075 1.8909,-1.1115z" fill="#5f170f"/><path d="M149.56995,56.83065c2.18655,-0.82455 4.47255,-1.06755 6.51705,0.2343l-0.5625,0.56685c-2.1825,-1.20135 -5.187,-0.4623 -7.278,0.56355c-0.5613,0.2754 -1.74225,0.79305 -2.2962,0.88305c0.0684,-0.48525 2.3232,-1.6899 2.8566,-2.18595c0.21675,-0.27465 0.0825,-0.1713 0.4338,-0.29535z" fill="#5b1d16"/><path d="M137.262,54.43755c0.61515,0.02715 1.4481,-0.1083 1.8306,0.111c0.3465,0.912 -0.1959,0.78345 0.55275,1.7502c-0.74055,0.33075 -1.31175,0.53265 -1.8909,1.1115c-0.24765,-0.49845 -0.38205,-2.2746 -0.49245,-2.9727z" fill="#e3b4ae"/><path d="M131.50575,146.8698c0.15525,-0.096 0.7821,-0.9228 1.05375,-1.1937c1.2804,-1.2771 3.27435,-3.5682 5.03325,-1.5513c0.45345,0.5199 0.44175,1.6311 1.3437,1.6242c0.3135,-0.35895 0.44895,-0.59415 0.90015,-0.7218c0.486,0.1011 0.68265,0.44625 1.0188,0.84585c0.3474,-0.0933 0.8487,-0.1413 1.2123,-0.1734l0.0639,0.06525c0.00255,0.4374 0.0303,0.50145 0.189,0.9114c0.5277,1.4283 0.8415,2.493 1.0728,4.0047c0.1362,0.891 0.1965,1.893 0.4332,2.745c-0.2211,0.2295 -0.35835,0.3435 -0.5004,0.6345l0.0036,0.117c-0.89775,3.141 -2.0559,4.875 -5.27295,5.922c-0.70845,-0.045 -1.4148,0.0525 -1.9653,-0.306l-0.08415,-0.4035c-2.832,-1.3905 0.528,-5.184 -0.28965,-6.5805l-0.1947,0.0315c-0.4572,2.2755 -1.10055,3.1905 -2.3853,5.0595c-0.5289,0.549 -1.11345,1.188 -1.65675,1.71c-1.52445,-1.3155 -1.67655,-3.7755 -1.73565,-5.6655c-0.08265,-2.6385 0.63105,-4.75185 1.7604,-7.0752z" fill="#e5ddd2"/><path d="M140.8554,145.87305c0.3474,-0.0933 0.8487,-0.1413 1.2123,-0.1734l0.0639,0.06525c0.00255,0.4374 0.0303,0.50145 0.189,0.9114c0.5277,1.4283 0.8415,2.493 1.0728,4.0047c0.1362,0.891 0.1965,1.893 0.4332,2.745c-0.2211,0.2295 -0.35835,0.3435 -0.5004,0.6345l0.0036,0.117c-0.89775,3.141 -2.0559,4.875 -5.27295,5.922c-0.70845,-0.045 -1.4148,0.0525 -1.9653,-0.306l-0.08415,-0.4035c7.0359,0.561 7.9053,-8.715 4.848,-13.51695z" fill="#5f170f"/><path d="M142.3206,146.6763c4.24215,2.3487 7.5582,3.15945 12.3114,1.37325c0.3315,-0.3762 0.4995,-0.44085 0.9285,-0.68595c1.695,1.67955 3.672,4.1484 3.669,6.6489c0.0075,1.008 -0.4005,1.9755 -1.1265,2.6745c-1.2975,1.26 -3.7365,1.6395 -5.4945,1.605c-0.435,-0.009 -0.8685,-0.0495 -1.2975,-0.1215c-0.3405,-0.2475 -0.8205,-0.147 -1.209,-0.0885c-2.9574,-0.7815 -4.53975,-1.9545 -6.7722,-3.9045l-0.0036,-0.117c0.14205,-0.291 0.2793,-0.405 0.5004,-0.6345c-0.2367,-0.852 -0.297,-1.854 -0.4332,-2.745c-0.2313,-1.5117 -0.5451,-2.5764 -1.0728,-4.0047z" fill="#e5ddd2"/><path d="M154.632,148.04955c0.3315,-0.3762 0.4995,-0.44085 0.9285,-0.68595c1.695,1.67955 3.672,4.1484 3.669,6.6489c0.0075,1.008 -0.4005,1.9755 -1.1265,2.6745c-1.2975,1.26 -3.7365,1.6395 -5.4945,1.605c-0.435,-0.009 -0.8685,-0.0495 -1.2975,-0.1215c-0.3405,-0.2475 -0.8205,-0.147 -1.209,-0.0885c-2.9574,-0.7815 -4.53975,-1.9545 -6.7722,-3.9045l-0.0036,-0.117c0.14205,-0.291 0.2793,-0.405 0.5004,-0.6345c1.14495,0.744 1.92945,1.941 3.5472,2.742c2.7537,1.365 9.2997,2.1945 10.9947,-1.0365c0.8955,-1.7085 -1.8885,-6.3063 -3.7365,-7.08195z" fill="#5b1d16"/><path d="M143.06595,140.1687c4.88505,-0.8742 10.19055,-1.9803 14.53755,1.15605c3.564,2.571 0.798,4.82355 -2.043,6.03885c-0.429,0.2451 -0.597,0.30975 -0.9285,0.68595c-4.7532,1.7862 -8.06925,0.97545 -12.3114,-1.37325c-0.1587,-0.40995 -0.18645,-0.474 -0.189,-0.9114l-0.0639,-0.06525c-0.34305,-0.3567 -0.79755,-0.9267 -1.12995,-1.31805c3.18165,0.12855 3.0294,-1.0422 2.24295,-3.47865c0.2544,-0.08655 0.32805,-0.1923 0.51675,-0.37995l-0.0975,-0.1878z" fill="#e5ddd2"/><path d="M143.06595,140.1687c4.88505,-0.8742 10.19055,-1.9803 14.53755,1.15605c3.564,2.571 0.798,4.82355 -2.043,6.03885c-0.429,0.2451 -0.597,0.30975 -0.9285,0.68595c-4.7532,1.7862 -8.06925,0.97545 -12.3114,-1.37325c-0.1587,-0.40995 -0.18645,-0.474 -0.189,-0.9114c4.7691,2.9655 10.3149,3.37965 14.9649,-0.07005c1.3785,-1.02375 2.4315,-2.00535 0.6405,-3.3534c-4.3305,-3.2592 -9.6126,-2.1405 -14.5563,-1.4385c0.2544,-0.08655 0.32805,-0.1923 0.51675,-0.37995l-0.0975,-0.1878z" fill="url(#color-4)"/><path d="M201.042,61.61205c2.334,-0.33225 6.246,-0.69165 8.241,0.7668c0.582,0.4257 0.8715,0.91425 1.68,1.4604l0.06,0.3426c-0.705,0.8892 -1.4175,-0.02385 -1.6305,1.3824c0.2835,0.5718 0.561,0.5031 1.215,0.6507c0.561,1.9137 -4.251,3.84495 -5.769,4.2702c-0.6375,0.18105 -1.2855,0.3261 -1.941,0.43425c-3.672,0.3513 -9.3945,-0.2907 -11.8305,-3.37485c2.0895,-0.60315 3.276,-1.09035 5.076,-2.38185c1.7055,-1.2246 2.925,-2.87175 4.899,-3.55065z" fill="#e5ddd2"/><path d="M134.56875,130.4136c1.91535,-0.12 3.86625,-0.2808 5.7588,-0.5949c1.83675,-0.30495 3.645,-1.18005 5.47905,-1.36545c3.23265,-0.32655 6.0354,1.0041 7.8924,3.63525c-0.9555,1.4934 -1.6065,1.78605 -1.6515,3.37785c-1.4655,2.09385 -7.65615,2.4915 -10.08045,2.37495c-0.9588,-0.98505 -2.9328,-3.1647 -3.94515,-3.85935c-0.1302,-0.19035 -1.81155,-1.58235 -2.0943,-1.82145l-0.10275,-0.0357c-0.3165,-0.2841 -0.31005,-0.57405 -0.3894,-1.00815z" fill="#e5ddd2"/><path d="M135.43545,131.11665c1.62825,0.56655 4.75335,1.75725 6.51045,1.368c0.6012,-0.1332 0.7359,-0.20505 1.2117,0.01905l0.1686,0.29475c-0.1464,0.53685 -0.2394,0.69615 -0.88515,0.6561c-1.10895,-0.0687 -5.68275,-1.5261 -6.51345,-1.29405l-0.10275,-0.0357c-0.3165,-0.2841 -0.31005,-0.57405 -0.3894,-1.00815z" fill="#5b1d16"/><path d="M0,17.22285c0.60463,0.90915 0.69714,1.2561 1.0534,2.29575l-0.43902,1.30545c2.36799,6.61755 5.14964,12.67185 6.51573,19.6545c0.11861,0.6063 0.17494,0.738 0.76437,1.03095c-0.28583,0.32535 -0.34445,0.39795 -0.68941,0.6522l-1.44273,0.4029c-0.08707,0.9117 -0.18042,1.7796 -0.19371,2.69775c-0.3097,-0.07935 -1.24541,-0.2895 -1.46094,-0.4305c-0.57909,-0.5718 -0.94229,-0.22965 -1.40411,-0.84825c-0.62311,0.1605 -0.85365,0.39165 -1.35826,0.78915c-0.55159,0.57705 -0.92828,0.93405 -1.34532,1.61235v-13.71645z" fill="#4b2212"/><path d="M0,32.66865c0.62434,0.98325 2.9355,10.5477 2.70359,11.31495c-0.62311,0.1605 -0.85365,0.39165 -1.35826,0.78915c-0.55159,0.57705 -0.92828,0.93405 -1.34532,1.61235z" fill="#e5ddd2"/><path d="M38.86035,0h16.07865h1.24515c0.61155,0.68912 0.9066,1.01331 1.38285,1.79026c-1.34745,4.74761 -6.80145,6.60995 -11.16885,5.17318c-0.2604,-0.1878 -0.6564,-0.14506 -0.99555,-0.15225c-2.41635,-2.028 -4.18245,-3.23088 -6.18555,-5.78765l-0.2844,-0.81722z" fill="#e5ddd2"/><path d="M54.939,0h1.24515c0.61155,0.68912 0.9066,1.01331 1.38285,1.79026c-1.34745,4.74761 -6.80145,6.60995 -11.16885,5.17318c-0.2604,-0.1878 -0.6564,-0.14506 -0.99555,-0.15225c-2.41635,-2.028 -4.18245,-3.23088 -6.18555,-5.78765l-0.2844,-0.81722c1.1844,0.30897 5.2941,6.41416 9.51255,6.30473c2.14875,0.084 4.74945,-0.23246 6.40875,-1.8441c2.81835,-2.73756 1.99575,-2.67305 0.08505,-4.66697z" fill="#4f1c16"/><path d="M143.3298,154.1775c2.23245,1.95 3.8148,3.123 6.7722,3.9045c0.129,1.557 0.1065,2.133 0.0885,3.681c-0.4881,3.0075 -1.89585,2.4825 -4.4613,2.3295c-0.31125,2.6835 -0.9003,2.4855 -3.2964,1.539c-2.8854,-1.1385 -4.7022,-3.153 -6.6777,-5.427c0.96315,0.027 1.35615,0.0285 2.30175,-0.105c3.21705,-1.047 4.3752,-2.781 5.27295,-5.922z" fill="#e5ddd2"/><path d="M14.41817,0h16.51573c-0.7884,1.50333 -1.9878,4.01929 -3.10845,5.16093c-2.9208,2.33895 -8.18325,2.42738 -11.20725,0.06218c-1.65199,-1.29212 -0.489,-2.25858 -0.57255,-3.86919c-0.29685,-0.47777 -1.1347,-1.00425 -1.62748,-1.35391z" fill="#e5ddd2"/><path d="M200.4975,48.61605l0.3495,0.35115l0.3225,-0.06255c4.611,-1.3143 7.7835,1.30335 5.205,5.77305c5.4465,0.6972 6.3885,2.1816 3.4785,7.0923c0.705,0.46875 1.9425,1.13295 2.1495,1.9005l-0.0735,0.07275c-0.558,0.5586 -0.6675,0.65295 -0.75,1.4268c0.1425,0.45675 0.249,0.5553 0.5535,0.9303c0.5955,2.73255 -5.835,5.01045 -7.905,5.52165c-0.432,-0.13185 -0.5655,-0.14115 -0.909,-0.41595l-0.021,-0.28665c0.6555,-0.10815 1.3035,-0.2532 1.941,-0.43425c1.518,-0.42525 6.33,-2.3565 5.769,-4.2702c-0.654,-0.1476 -0.9315,-0.0789 -1.215,-0.6507c0.213,-1.40625 0.9255,-0.4932 1.6305,-1.3824l-0.06,-0.3426c-0.8085,-0.54615 -1.098,-1.0347 -1.68,-1.4604c-1.995,-1.45845 -5.907,-1.09905 -8.241,-0.7668l0.03,-0.23835l0.3915,-0.20115c-0.807,0 0.1395,-0.1644 -0.804,-0.2565l-0.3975,0.03705c-0.0525,-0.62775 1.071,-1.9947 1.4865,-2.5758l-0.1365,-0.20445c0.711,-0.3066 3.231,-2.7372 3.669,-3.45585c2.6535,-4.35015 0.246,-6.11775 -4.107,-5.2107c-0.18,0.85125 -0.378,1.6986 -0.594,2.54145c-0.2955,-0.27735 -0.0225,-2.53635 -0.069,-3.25095z" fill="#4f1c16"/><path d="M206.154,55.45365c5.1015,0.42735 5.334,1.5396 3.2055,5.9493c-3.177,-1.1025 -5.415,-1.2045 -8.7,-0.4869l-0.3975,0.03705c-0.0525,-0.62775 1.071,-1.9947 1.4865,-2.5758c1.26,-0.53085 2.769,-2.22255 4.4055,-2.92365z" fill="#e5ddd2"/><path d="M131.745,116.51505c1.8387,-2.805 3.86505,-5.53965 7.37085,-6.20535c3.3525,-0.6366 4.00095,1.7322 3.6579,4.40805c2.72625,-0.7221 6.36435,-1.2528 7.1937,2.2665c1.00605,4.2675 -0.9228,7.7736 -4.0374,10.425c2.41635,0.1743 8.03595,1.374 8.22645,4.7655c0.0315,0.567 -0.828,1.7415 -0.987,2.28975c-0.36,0.9171 0.1395,1.60365 -0.5715,2.13405c-2.79855,2.0874 -7.2855,2.03745 -10.5996,2.23335c0.3183,0.42915 0.68955,0.97515 1.06755,1.3368l0.534,0.1665l0.0975,0.1878c-0.1887,0.18765 -0.26235,0.2934 -0.51675,0.37995c0.78645,2.43645 0.9387,3.6072 -2.24295,3.47865c0.3324,0.39135 0.7869,0.96135 1.12995,1.31805c-0.3636,0.0321 -0.8649,0.0801 -1.2123,0.1734c-0.33615,-0.3996 -0.5328,-0.74475 -1.0188,-0.84585c-0.4512,0.12765 -0.58665,0.36285 -0.90015,0.7218c-0.90195,0.0069 -0.89025,-1.1043 -1.3437,-1.6242c-1.7589,-2.0169 -3.75285,0.2742 -5.03325,1.5513c-0.27165,0.2709 -0.8985,1.0977 -1.05375,1.1937l0.0213,-0.37905c0.9621,-1.4931 2.4858,-2.613 3.9894,-3.52275c0.72075,-0.43605 2.148,0.4776 2.46675,1.17945l0.3567,0.7893c0.5451,-0.01665 3.9936,-1.2156 4.32885,-1.6977l-0.0726,-0.0615c0.4173,-2.95605 -2.78535,-6.0549 -4.57005,-8.15835c1.35045,0.6507 2.39295,2.7162 3.42345,3.54495c-0.00885,-1.6599 -2.58315,-3.0297 -3.42765,-4.5822c1.01235,0.69465 2.98635,2.8743 3.94515,3.85935c2.4243,0.11655 8.61495,-0.2811 10.08045,-2.37495c0.045,-1.5918 0.696,-1.88445 1.6515,-3.37785c-1.857,-2.63115 -4.65975,-3.9618 -7.8924,-3.63525c-1.83405,0.1854 -3.6423,1.0605 -5.47905,1.36545c-1.89255,0.3141 -3.84345,0.4749 -5.7588,0.5949c-0.25665,-0.0945 -0.51255,-0.1911 -0.76755,-0.2895l-0.1536,-0.5691c1.10895,0.06885 1.8099,-0.0219 2.85615,-0.3777l0.47865,0.0999c1.212,0.1191 2.43495,0.06075 3.6303,-0.17295c4.9884,-0.94695 8.6115,-4.8552 8.7339,-10.02465c0.11925,-5.0415 -3.5622,-4.368 -7.1274,-3.5568c-0.0027,-1.10115 0.11715,-3.19725 -0.6969,-3.993c-1.8681,-1.8261 -5.5593,0.81855 -6.8979,2.15175c-2.42235,2.4126 -2.5254,3.9585 -2.51625,7.17165l-0.2556,0.0315c-0.33465,-1.76805 -0.6906,-3.4389 -0.8505,-5.23485c0.43425,-0.29475 0.3888,-1.7898 0.5529,-2.5782l0.0321,-0.1503c0.0789,1.19655 0.13155,2.39475 0.15795,3.5937z" fill="#5b1d16"/><path d="M173.9895,120.22485c0.7185,-0.0459 1.023,0.0912 1.707,0.312c-5.0385,1.5144 -7.452,6.41715 -6.426,11.41245c0.333,1.62345 3.396,1.37475 4.737,1.44405c0.027,1.14525 0.0165,2.81205 0.1245,3.9138c4.119,2.5971 10.467,0.62055 12.852,-3.37845c0.9855,-1.65105 2.007,-5.5791 2.082,-7.52295c-0.477,-0.39345 -1.3455,0.09915 -1.449,-0.909c-0.072,-0.7008 0.582,-0.89175 1.1775,-1.1634c1.08,1.07535 0.558,1.3407 0.8685,2.7576c-0.537,3.07995 -1.497,5.51205 -0.2205,8.41875c1.8,4.09725 6.84,7.77615 11.3625,6.29415l0.4515,0.57225c-2.4885,1.43205 -5.2965,0.39915 -7.6125,-0.90495c-2.907,-1.6377 -4.74,-4.2597 -5.568,-7.4598c-0.243,0.35415 -0.495,0.702 -0.756,1.0431c-3.156,4.0554 -9.7515,5.91585 -14.058,2.52975c-0.0675,-0.92835 -0.006,-2.41755 0.009,-3.39285c-1.239,-0.1389 -4.056,0.1224 -4.503,-1.2168c-1.827,-5.47785 0.5295,-10.13115 5.2215,-12.7497z" fill="#5b1d16"/><path d="M72.2631,63.1767c1.0332,-2.70015 4.08195,-6.7746 7.59585,-5.84205c0.9855,0.26145 1.64235,2.00655 2.04045,2.91255c2.4375,-1.57695 4.41315,-2.6673 6.3378,0.44565c1.3593,2.2215 1.76385,4.8978 1.12215,7.42185c-0.34695,1.40085 -0.8955,2.66085 -1.7583,3.81975c3.8241,-0.6858 6.9915,-0.50505 10.3047,1.78875c1.0398,0.71985 1.88625,1.8615 1.57635,3.17205l-0.1635,0.0552c-0.05205,0.5154 -0.09765,1.02555 -0.1761,1.5378c-0.51885,0.09495 -0.7269,0.1755 -1.21335,-0.0585c0.13995,-0.1347 0.27675,-0.27255 0.41055,-0.4134c0.97875,-1.03995 0.34845,-2.2497 -0.5328,-3.14385c-2.985,-3.02835 -10.90875,-3.4035 -13.953,-0.11355l-0.0363,-0.6759c1.8039,-1.36575 3.2787,-2.20215 4.1571,-4.4136c1.40235,-3.53055 1.07835,-8.73915 -2.9124,-10.3914c-1.1523,0.46395 -2.136,1.18365 -3.3552,1.59c-1.23765,-1.96815 -1.70565,-4.1175 -4.8408,-2.3298c-2.25465,1.28565 -3.43185,3.3186 -4.02405,5.80515c-0.07365,-0.34425 -0.3939,-0.84195 -0.57915,-1.1667z" fill="url(#color-5)"/><path d="M128.41725,67.3101c1.37265,-1.25715 0.5385,-1.5156 0.20265,-3.348c-0.8508,-4.6422 1.4862,-10.95375 6.00795,-12.85095c1.4343,-0.60165 2.08635,1.23345 2.50275,1.5159c1.7652,-0.8883 4.7742,-6.3795 7.64115,-2.5512c0.44325,0.59205 0.5004,1.50945 1.1271,2.0781l0.81525,0.25935l0.0033,0.12075l-0.76215,0.28335c-0.34155,-0.09945 -0.97755,-0.20655 -1.0938,-0.6072c-0.59295,-2.043 -1.37475,-3.13785 -3.62865,-2.0547c-1.125,0.5406 -3.7128,3.0723 -3.9708,4.28205c0.1104,0.6981 0.2448,2.47425 0.49245,2.9727c0.2757,0.10215 0.44385,0.0765 0.7248,0.0444c-0.2655,0.36435 -0.3156,0.42405 -0.6723,0.69825l0.1347,0.1902c-0.31275,0.42165 -0.3693,0.6708 -0.7809,0.7731c-0.26865,-0.52035 -0.50385,-0.96675 -0.6756,-1.5327c-0.40185,-1.32495 -0.09375,-4.6161 -1.04805,-5.51595c-2.1099,-0.6558 -5.14335,4.75065 -5.58315,6.47655c-0.8181,3.20985 -0.5433,6.83565 1.16865,9.7215c0.43305,0.741 1.59645,2.26815 1.467,2.8632c-1.821,-0.86175 -2.24865,-3.1716 -3.5103,-3.6972z" fill="#5f170f"/><path d="M133.13775,157.9005c1.28475,-1.869 1.9281,-2.784 2.3853,-5.0595l0.1947,-0.0315c0.81765,1.3965 -2.54235,5.19 0.28965,6.5805l0.08415,0.4035c0.5505,0.3585 1.25685,0.261 1.9653,0.306c-0.9456,0.1335 -1.3386,0.132 -2.30175,0.105c1.9755,2.274 3.7923,4.2885 6.6777,5.427c2.3961,0.9465 2.98515,1.1445 3.2964,-1.539c2.56545,0.153 3.9732,0.678 4.4613,-2.3295c0.5985,0.231 0.5385,0.5445 0.627,1.1445c-1.08315,2.4465 -2.1588,2.22 -4.48185,1.86c-0.31935,3.1215 -2.84445,2.235 -4.908,1.3155c-3.8322,-1.7085 -5.8974,-4.4385 -7.3659,-8.205l-0.8886,1.4325c0.19035,-0.9015 0.21765,-0.5625 -0.0354,-1.41z" fill="#4f1c16"/><path d="M215.805,111.09045c0.093,-0.2976 0.3285,-0.55755 0.5235,-0.822c0.8655,1.8939 -0.3525,2.8872 -1.5105,4.2474c0.6705,0.24975 2.556,0.8397 2.769,1.4286c1.239,3.43185 -2.5485,7.95975 -5.5935,9.1308c-1.2345,0.4746 -2.6145,0.9342 -3.84,0.91365c-0.63,-0.276 -0.9675,-0.1302 -1.6485,-0.31245c0.3735,-0.07305 1.233,-0.1005 1.671,-0.1434l0.183,-0.27285c5.3385,-0.8127 7.6035,-3.6219 8.9175,-8.6136c-0.99,-0.858 -2.1705,-1.4112 -3.3225,-2.03295c0.888,-1.0773 1.968,-2.1213 1.851,-3.5232z" fill="#4f1c16"/><path d="M13.27823,0h1.13994c0.49278,0.34967 1.33064,0.87615 1.62748,1.35391c0.08355,1.61061 -1.07944,2.57708 0.57255,3.86919c3.024,2.3652 8.28645,2.27678 11.20725,-0.06218l0.2175,0.4874l0.4635,0.14409l0.0087,0.08899c-0.1743,0.07805 -0.53775,0.30435 -0.71295,0.41898c-2.6172,1.71215 -5.0688,1.99989 -8.1108,1.29612c-1.4664,-0.33922 -3.64785,-1.31092 -4.47045,-2.67454c-0.64208,-1.06464 -0.2088,-2.33622 0.0729,-3.47902c-0.68559,-0.46151 -1.35775,-0.94269 -2.01562,-1.44294z" fill="#5f170f"/><path d="M28.50645,5.79242l0.7959,-0.44517c-0.27045,3.45255 0.23325,6.05901 2.47065,8.8732c1.13175,1.42365 3.9825,3.21945 5.7483,2.03745c0.61785,-0.41355 1.00185,-2.22225 1.6965,-2.13761l-0.06285,0.64992c-2.5476,7.08763 -12.1842,-1.03616 -10.6398,-8.88881z" fill="#5b1d16"/><path d="M172.515,119.5251c-4.539,-1.75095 -7.149,-5.535 -7.236,-10.41675c-0.06,-3.34065 0.9135,-3.2757 3.798,-3.29445c0.4185,0.16575 0.5085,0.1986 0.954,0.25395c-0.9405,0.96345 -3.8475,-0.23955 -3.9705,1.71c-0.3075,4.89375 2.3205,9.39135 7.0155,11.07375c-0.102,0.12435 -0.4635,0.58305 -0.561,0.6735z" fill="#4f1c16"/><path d="M194.901,94.62855c2.3325,-2.02185 4.2645,-2.6934 6.459,-0.0888c2.769,3.2856 2.934,6.714 1.905,10.66635c-0.4815,-0.2073 -0.5235,-0.2646 -0.8325,-0.69285c0.6645,-2.6679 0.4455,-6.4293 -1.1115,-8.71935c-1.902,-2.79435 -3.54,-2.4756 -6.021,-0.86445z" fill="url(#color-6)"/><path d="M62.3436,82.14045c-3.4788,-1.04895 -6.1179,-2.9373 -7.3485,-6.47925c-0.61815,-1.7787 -1.70355,-4.98225 0.7233,-5.75955c0.4578,0.1974 0.95625,0.45135 1.43985,0.5193c-0.58755,0.0543 -1.39695,0.06735 -1.88235,0.34545c-0.4377,0.7251 -0.08925,2.47575 0.1098,3.3072c0.6117,2.57115 2.23485,4.78695 4.50195,6.1455c1.09125,0.66465 2.1228,1.0356 3.32115,1.42335c-0.3768,0.32145 -0.402,0.37005 -0.8652,0.498z" fill="#5b1d16"/><path d="M201.7785,108.0297c5.1915,-2.57295 10.656,-2.61015 14.55,2.23875c-0.195,0.26445 -0.4305,0.5244 -0.5235,0.822c-0.1455,-0.1146 -0.693,-0.8661 -0.8685,-1.0536c-3.6045,-3.8688 -9.063,-3.3276 -13.149,-1.16715c-0.1875,-0.5304 -0.186,-0.3069 -0.009,-0.84z" fill="#4f1c16"/><path d="M188.0925,67.46325l-0.0615,-0.3927l0.1515,-0.2073c0.96,-0.1344 2.6235,1.5408 3.7245,2.17485c-0.129,-0.66855 -1.35,-1.01625 -0.84,-1.49355c2.436,3.08415 8.1585,3.72615 11.8305,3.37485l0.021,0.28665c0.3435,0.2748 0.477,0.2841 0.909,0.41595c-0.081,0.0159 -0.162,0.03105 -0.243,0.04515c-5.5995,0.97395 -10.185,-0.59295 -14.397,-4.1046c-0.351,-0.29205 -0.6885,-0.16995 -1.095,-0.0993z" fill="#5f170f"/><path d="M57.846,65.3394c5.11965,-3.56895 10.2996,-1.44075 13.98435,3.0198l-0.35865,0.6462c-3.2181,-4.04565 -8.46585,-6.23445 -13.13685,-3.14325z" fill="#4f1c16"/><path d="M50.45265,107.9394l0.44745,-0.4881c-0.0675,1.0032 -0.12345,1.76205 -0.4671,2.72985c-1.4886,1.5183 -2.82675,1.58505 -4.88355,1.60635l-0.70755,0.00405c0.15,-0.17805 0.28455,-0.34935 0.39,-0.5586l0.864,-0.27945c0.5358,0.0723 1.1835,0.24495 1.56405,-0.16845c-0.09945,-0.4083 -0.2154,-0.67485 -0.3696,-1.06035c0.2901,-1.19415 2.16915,-1.0683 3.1623,-1.7853z" fill="#2f0e09"/><path d="M208.3815,134.6733c0.429,0.2886 0.4725,0.33165 0.6975,0.79545c-1.296,4.51455 -2.2815,4.5432 -6.495,3.2958c-0.255,1.4262 -0.3285,2.5152 -1.3275,3.61155l-0.4515,-0.57225c0.696,-0.9789 1.0605,-2.67855 1.389,-3.8616c4.104,1.37655 5.358,1.20375 6.1875,-3.26895z" fill="#2f0e09"/><path d="M205.8975,125.2728l2.4615,-0.0126l-0.183,0.27285c-0.438,0.0429 -1.2975,0.07035 -1.671,0.1434c0.681,0.18225 1.0185,0.03645 1.6485,0.31245c-0.7755,0.0678 -1.239,0.1032 -2.013,0.07035c2.724,3.09915 3.5865,5.25225 2.9385,9.4095c-0.225,-0.4638 -0.2685,-0.50685 -0.6975,-0.79545l0.0105,-0.1665c0.2235,-3.456 -0.5235,-5.22885 -2.7705,-7.7799c0.1785,-0.57315 0.204,-0.8625 0.276,-1.4541z" fill="#5b1d16"/><path d="M156.087,57.06495c2.574,2.80785 1.257,7.08645 -0.6375,9.89925c-0.198,-0.1536 -0.3705,-0.3093 -0.5595,-0.4734c1.527,-1.91715 2.5125,-6.8835 0.6345,-8.859z" fill="#5b1d16"/><path d="M31.92345,72.6138c0.1473,-0.26325 0.17325,-0.2667 0.39015,-0.4614l0.2301,0.13065c0.1593,0.6822 0.6672,0.9768 0.91785,1.5873c1.18785,2.892 0.66105,5.0433 -1.2432,7.35705c-0.21915,-0.36465 -0.25875,-0.3744 -0.61485,-0.6264c2.1813,-2.4855 1.8099,-5.21175 0.31995,-7.9872z" fill="#5f170f"/><path d="M45.9051,10.49323c0.1848,0.43647 0.36105,0.86547 0.56895,1.29186c-1.2111,4.22066 -3.54225,6.41545 -7.3191,2.98512l0.06285,-0.64992c0.89325,0.77757 1.9476,1.34771 3.0873,1.6693c2.61825,-1.08387 3.14475,-2.6127 3.6,-5.29636z" fill="#4f1c16"/><path d="M47.16915,100.9377c1.69995,1.90455 3.5562,3.8349 3.73095,6.5136l-0.44745,0.4881c-0.53835,-2.8494 -1.7502,-4.3251 -3.9375,-6.0702c-0.44745,-0.24915 0.2202,-0.0291 -0.26775,-0.58935c0.3648,-0.22245 0.5004,-0.2343 0.92175,-0.34215z" fill="url(#color-7)"/><path d="M99.1425,78.48825c0.07845,-0.51225 0.12405,-1.0224 0.1761,-1.5378l0.1635,-0.0552c-0.0447,1.7952 1.54965,2.58945 0.88005,5.0868c-0.1032,-0.3201 -0.14655,-0.45975 -0.2976,-0.7584l-0.18855,-0.0141l-0.20145,0.5574l-0.0954,-0.61935c-0.2355,-0.34965 -1.16325,-1.185 -1.5486,-1.59255l0.0939,-0.33735l0.04755,-0.2442c-0.19965,-0.2511 -0.19815,-0.2283 -0.24285,-0.54375c0.48645,0.234 0.6945,0.15345 1.21335,0.0585z" fill="#4f1c16"/><path d="M98.12445,79.2177l0.04755,-0.2442c-0.19965,-0.2511 -0.19815,-0.2283 -0.24285,-0.54375c0.48645,0.234 0.6945,0.15345 1.21335,0.0585c0.3648,0.28125 0.59085,0.3858 0.70545,0.82125c-0.4917,0.4764 -1.1445,0.11895 -1.7235,-0.0918z" fill="#efcec8"/><path d="M57.846,65.3394l0.48885,0.52275c-1.1211,1.97175 1.2345,2.69265 0.4023,4.23315c-0.48375,0.32895 -0.97545,0.28785 -1.5789,0.32565c-0.4836,-0.06795 -0.98205,-0.3219 -1.43985,-0.5193c0.66555,-0.12915 1.6437,-0.1878 2.34135,-0.25065c-0.42795,-1.638 -1.3719,-2.83935 -0.21375,-4.3116z" fill="#2f0e09"/><path d="M145.89885,52.15395c2.9781,0.01815 4.21965,1.72215 3.6711,4.6767l-0.32925,-0.23355c-0.3513,0.12405 -0.21705,0.0207 -0.4338,0.29535c-0.00195,-2.60445 0.00825,-3.5523 -2.85165,-4.07505l0.76215,-0.28335l-0.0033,-0.12075z" fill="#5b1d16"/><path d="M150.102,158.082c0.3885,-0.0585 0.8685,-0.159 1.209,0.0885l-0.2535,0.234c-0.0465,1.6335 0.069,2.8815 -0.24,4.503c-0.0885,-0.6 -0.0285,-0.9135 -0.627,-1.1445c0.018,-1.548 0.0405,-2.124 -0.0885,-3.681z" fill="#4b2212"/><path d="M23.7978,112.7913l0.93045,-0.10065l0.14655,0.8784l0.16095,0.64845c-1.2789,0.21675 -1.99995,0.3552 -3.0054,-0.5904c0.4014,-0.4584 0.20025,-0.3264 0.7548,-0.525c0.73815,-0.0144 0.4833,0.08445 1.01265,-0.3108z" fill="#4f1c16"/><path d="M45.4026,6.8112c0.33915,0.00719 0.73515,-0.03555 0.99555,0.15225c0.2556,1.95759 0.29985,2.85435 0.0759,4.82165c-0.2079,-0.42639 -0.38415,-0.85539 -0.56895,-1.29186c-0.01215,-1.528 0.0249,-2.21533 -0.5025,-3.68203z" fill="#4f1c16"/><path d="M131.481,159.6105c0.5433,-0.522 1.12785,-1.161 1.65675,-1.71c0.25305,0.8475 0.22575,0.5085 0.0354,1.41c-0.57885,1.0905 -1.2135,1.422 -2.3292,0.6525c0.48525,0.0465 0.4902,0.126 0.8655,-0.048l-0.3102,-0.1905z" fill="#5f170f"/><path d="M104.4198,13.5695c0.2985,-1.38567 -0.3591,-3.92006 1.02825,-5.24986c1.13955,-1.09226 2.6109,-1.04303 3.98505,-1.43553c1.1034,-0.31512 0.97665,-0.75374 2.36745,-0.7022c6.15495,1.49362 9.8661,8.72022 6.5925,14.3024c0.78855,0.12705 1.1412,0.16995 1.7568,0.74145c0.85305,0.96855 1.12335,2.1351 0.83745,3.39555c-0.78675,3.46905 -5.02935,3.0192 -7.44165,1.82505c-1.36875,-0.4848 -1.86195,-1.79505 -2.48115,-3.01275c-2.6109,-0.8463 -5.28255,-1.9242 -6.6819,-4.4448c-0.68535,-1.2345 -1.6425,-4.71057 0.0372,-5.4193z" fill="#e5ddd2"/><path d="M118.20255,20.47725l0.1905,0.00705c0.78855,0.12705 1.1412,0.16995 1.7568,0.74145c0.85305,0.96855 1.12335,2.1351 0.83745,3.39555c-0.78675,3.46905 -5.02935,3.0192 -7.44165,1.82505c0.83805,-0.29715 0.9186,0.34305 1.8471,0.15135l0.1725,-0.28275l0.54015,-0.0978l0.0252,-0.08805c0.4101,-0.6393 0.14445,-2.01975 0.2883,-2.997c0.5709,-0.5259 0.54825,-1.15635 0.5952,-1.89735l0.5037,-0.6876z" fill="#dd9292"/><path d="M118.20255,20.47725l0.1905,0.00705c0.78855,0.12705 1.1412,0.16995 1.7568,0.74145c0.85305,0.96855 1.12335,2.1351 0.83745,3.39555c-0.78675,3.46905 -5.02935,3.0192 -7.44165,1.82505c0.83805,-0.29715 0.9186,0.34305 1.8471,0.15135l0.1725,-0.28275l0.54015,-0.0978c0.99855,0.0879 2.6223,0.4137 3.25905,-0.4395c0.9453,-1.26615 1.14795,-2.86725 -0.0966,-3.9387c-0.75315,-0.2592 -1.4814,-0.42045 -2.25375,-0.6042l0.5037,-0.6876z" fill="#5f170f"/><path d="M105.4761,13.09497c0.2748,0.57622 0.4371,0.85803 0.78465,1.39452l-2.00595,0.09664c0.3105,2.96881 0.6135,4.05482 2.89005,6.12391c1.8291,1.6626 4.6779,1.8288 5.37885,2.40375c-0.3414,2.2596 0.63225,2.66565 2.6988,2.9418c0.3009,0.04335 0.6042,0.0678 0.9081,0.0735l-0.0252,0.08805l-0.54015,0.0978l-0.1725,0.28275c-0.9285,0.1917 -1.00905,-0.4485 -1.8471,-0.15135c-1.36875,-0.4848 -1.86195,-1.79505 -2.48115,-3.01275c-2.6109,-0.8463 -5.28255,-1.9242 -6.6819,-4.4448c-0.68535,-1.2345 -1.6425,-4.71057 0.0372,-5.4193c0.7092,-0.15129 0.64395,-0.02233 1.0563,-0.47452z" fill="#5b1d16"/><path d="M111.80055,6.18191c6.15495,1.49362 9.8661,8.72022 6.5925,14.3024l-0.1905,-0.00705c-0.0057,-0.5946 0.2028,-1.33905 0.2874,-1.95375c0.8058,-5.85451 -1.4793,-9.56659 -6.95385,-11.63274c-0.0459,-0.04011 -0.35715,-0.18152 -0.4341,-0.21837l-0.03735,-0.16821z" fill="#5b1d16"/><path d="M104.4198,13.5695c0.2985,-1.38567 -0.3591,-3.92006 1.02825,-5.24986c1.13955,-1.09226 2.6109,-1.04303 3.98505,-1.43553c1.1034,-0.31512 0.97665,-0.75374 2.36745,-0.7022l-0.7359,0.32228l0.03735,0.16821c0.07695,0.03686 0.3882,0.17826 0.4341,0.21837c-0.79665,0.38361 -1.06245,0.61194 -1.76325,1.16925c-3.5748,-0.1803 -4.866,1.45152 -4.29675,5.03496c-0.41235,0.45219 -0.3471,0.32323 -1.0563,0.47452z" fill="#5f170f"/><path d="M116.4189,23.1321c-0.0747,-0.82695 -0.88215,-3.6684 -0.61575,-4.00125c0.63705,0.16665 1.227,0.9132 1.71465,1.4163l-0.5037,0.6876c-0.04695,0.741 -0.0243,1.37145 -0.5952,1.89735z" fill="#5b1d16"/><path d="M55.9521,152.13c1.6239,-0.057 3.2244,0.33 4.14405,1.797c0.45885,0.732 0.60045,1.62 0.39225,2.4585c-0.3201,1.311 -1.1976,2.031 -2.2914,2.6925c-3.9,1.0755 -6.65775,-5.3865 -2.2449,-6.948z" fill="#2f0e09"/><path d="M56.0673,152.715c0.2055,0.009 0.41055,0.024 0.61515,0.045c0.96405,0.1005 1.95255,0.5145 2.5614,1.2945c0.40275,0.5145 0.57705,1.173 0.48255,1.8195c-0.1674,1.1445 -0.89475,1.755 -1.77345,2.3685c-0.3729,0.153 -0.8928,0.3975 -1.28865,0.186c-1.47645,-0.786 -2.48625,-2.967 -1.8636,-4.575c0.2508,-0.6465 0.67695,-0.8805 1.2666,-1.1385z" fill="#e5ddd2"/><path d="M79.7058,8.92996c1.59,-0.3336 3.1548,0.66539 3.5214,2.24807c0.3666,1.58268 -0.59955,3.168 -2.17425,3.56749c-1.0482,0.26587 -2.1582,-0.05579 -2.90175,-0.84099c-0.7437,-0.7852 -1.0044,-1.91112 -0.6819,-2.94328c0.32265,-1.03218 1.1781,-1.80921 2.2365,-2.03129z" fill="#5f170f"/><path d="M79.4511,9.90497c1.5627,-0.08652 2.96505,0.1972 2.5035,2.45656c-0.11775,0.57591 -0.47445,1.04348 -1.0134,1.3263c-2.59005,0.03879 -3.43125,-2.41527 -1.4901,-3.78287z" fill="#dd9292"/><path d="M253.0365,99.46425c3.603,-0.19485 5.643,3.45525 1.8525,5.65935c-0.5085,0.123 -1.0455,0.17475 -1.557,0.0468c-0.7965,-0.1956 -1.4775,-0.7095 -1.8855,-1.4217c-0.9975,-1.74345 0.009,-3.39225 1.59,-4.28445z" fill="#5f170f"/><path d="M253.368,100.59675c0.903,-0.3483 1.9185,0.08145 2.298,0.97185c0.378,0.89025 -0.0165,1.92075 -0.8925,2.3301c-0.5955,0.2775 -1.293,0.2085 -1.8225,-0.1797c-0.528,-0.38835 -0.804,-1.03425 -0.717,-1.6845c0.087,-0.65025 0.522,-1.2015 1.134,-1.43775z" fill="#dd9292"/><path d="M66.0453,4.66957c0.4485,0.10673 0.76005,0.18188 1.1529,0.43398c0.53715,0.34134 0.90765,0.89105 1.0227,1.51699c0.231,1.30094 -0.7467,2.00579 -1.8918,2.20661c-2.77155,-0.37709 -3.24315,-3.20329 -0.2838,-4.15758z" fill="#5f170f"/><path d="M65.5443,5.85761c0.525,-0.35025 1.2345,-0.2091 1.5855,0.31546c0.35115,0.52455 0.2109,1.23429 -0.31305,1.58608c-0.52515,0.35252 -1.23675,0.21204 -1.5885,-0.3136c-0.35175,-0.52564 -0.21015,-1.23696 0.31605,-1.58794z" fill="#dd9292"/></g></svg></svg>