<svg width="1299" height="1338" viewBox="0 0 1299 1338" fill="none" xmlns="http://www.w3.org/2000/svg">
<path d="M756.992 127C740.326 88.3333 724.659 62 709.992 48C695.326 33.3333 674.326 24.6666 646.992 22V1.99997C650.326 1.99997 655.326 1.66664 661.992 0.999985C667.992 0.333327 674.326 0 680.992 0C714.326 0 746.326 8.66665 776.992 26C807.659 42.6666 833.659 76.3333 854.992 127L1025.99 530L1084.99 393C1112.99 328.333 1166.66 200.667 1245.99 9.99998H1293.99L1006.99 680H988.992L756.992 127Z" fill="black"/>
<path d="M160 140C144 116.667 130 98.3334 118 85C106 71 90.3333 58.6667 71 48C51.6667 37.3334 28 31.3333 0 30V10H120C149.333 10 174 19.6667 194 39C214 57.6666 236 84.6667 260 120L360 270L560 10H610L385 305L545 540C565.667 570.667 587.667 596.333 611 617C635 637 661.333 648 690 650V670H585C556.333 670 531 660 509 640C487 619.333 465.667 592.667 445 560L325 380L100 670H50L300 345L160 140Z" fill="black"/>
<path d="M564.567 1138.81C559.767 1138.81 557.367 1136.41 557.367 1131.61C557.367 1129.21 558.267 1127.11 560.067 1125.31C562.067 1123.31 564.367 1122.31 566.967 1122.31C571.767 1122.31 574.167 1124.71 574.167 1129.51C574.167 1131.91 573.267 1134.01 571.467 1135.81C569.467 1137.81 567.167 1138.81 564.567 1138.81ZM547.167 1220.41C536.167 1220.41 530.667 1214.51 530.667 1202.71C530.667 1197.11 532.667 1188.91 536.667 1178.11C538.467 1173.11 540.267 1168.91 542.067 1165.51C544.067 1161.91 546.067 1158.61 548.067 1155.61C549.267 1153.81 550.667 1152.91 552.267 1152.91C553.867 1152.91 555.467 1153.71 557.067 1155.31C558.067 1156.31 558.567 1157.61 558.567 1159.21C558.567 1160.61 558.167 1162.01 557.367 1163.41C552.967 1170.21 549.367 1177.11 546.567 1184.11C543.767 1190.91 542.367 1197.01 542.367 1202.41C542.367 1209.61 544.967 1213.21 550.167 1213.21C552.967 1213.21 556.167 1212.51 559.767 1211.11C563.367 1209.51 566.967 1207.11 570.567 1203.91C572.967 1201.71 575.467 1199.21 578.067 1196.41C580.867 1193.61 583.667 1190.31 586.467 1186.51C591.667 1180.11 594.267 1176.91 594.267 1176.91C595.267 1176.91 595.767 1177.71 595.767 1179.31C595.767 1180.91 595.067 1182.51 593.667 1184.11C575.467 1208.31 559.967 1220.41 547.167 1220.41Z" fill="black"/>
<path d="M410.25 1216.51C408.65 1216.51 407.85 1214.71 407.85 1211.11C407.85 1209.91 407.95 1209.11 408.15 1208.71C410.35 1203.31 412.65 1196.81 415.05 1189.21C417.45 1181.61 419.85 1172.91 422.25 1163.11C422.45 1161.71 422.65 1160.31 422.85 1158.91C423.25 1157.51 423.85 1154.91 424.65 1151.11C424.85 1150.71 425.25 1150.11 425.85 1149.31C426.45 1148.51 427.35 1147.71 428.55 1146.91C430.75 1145.51 432.75 1144.81 434.55 1144.81C435.95 1144.81 436.65 1145.41 436.65 1146.61C436.65 1147.61 435.45 1151.91 433.05 1159.51C430.65 1167.11 427.15 1178.01 422.55 1192.21L455.55 1148.11C458.35 1144.51 461.45 1142.71 464.85 1142.71C468.05 1142.71 469.65 1144.51 469.65 1148.11C469.65 1149.51 469.45 1151.51 469.05 1154.11C468.85 1156.51 468.35 1159.61 467.55 1163.41C466.75 1167.21 465.95 1172.01 465.15 1177.81C464.55 1183.41 463.75 1189.91 462.75 1197.31C465.55 1193.31 469.05 1188.41 473.25 1182.61C477.65 1176.61 482.85 1169.81 488.85 1162.21C491.85 1158.41 495.05 1156.51 498.45 1156.51C501.45 1156.51 502.95 1158.41 502.95 1162.21C502.95 1163.81 502.75 1165.81 502.35 1168.21C502.15 1170.41 501.85 1173.11 501.45 1176.31C501.05 1179.51 500.65 1182.31 500.25 1184.71C500.05 1187.11 499.95 1189.11 499.95 1190.71C499.95 1201.11 502.65 1206.31 508.05 1206.31C515.85 1206.31 525.55 1197.91 537.15 1181.11C538.55 1179.11 539.55 1178.11 540.15 1178.11C541.15 1178.11 541.65 1179.01 541.65 1180.81C541.65 1181.21 541.45 1181.71 541.05 1182.31C540.85 1182.71 540.85 1182.81 541.05 1182.61C538.65 1185.81 536.15 1189.01 533.55 1192.21C530.95 1195.41 527.85 1198.71 524.25 1202.11C516.05 1210.11 508.85 1214.11 502.65 1214.11C493.25 1214.11 488.55 1203.71 488.55 1182.91C488.55 1181.31 488.55 1179.61 488.55 1177.81C488.55 1176.01 488.65 1174.11 488.85 1172.11C485.25 1175.31 481.25 1180.01 476.85 1186.21C472.65 1192.21 468.55 1199.01 464.55 1206.61C461.55 1212.21 458.25 1215.01 454.65 1215.01C453.45 1215.01 452.55 1214.61 451.95 1213.81C451.35 1211.61 451.05 1208.81 451.05 1205.41C451.05 1202.81 451.35 1198.81 451.95 1193.41C452.55 1187.81 453.55 1181.11 454.95 1173.31C455.55 1169.71 456.05 1166.61 456.45 1164.01C456.85 1161.41 457.05 1159.61 457.05 1158.61C457.05 1157.01 456.75 1156.21 456.15 1156.21C454.55 1157.61 452.15 1160.21 448.95 1164.01C445.95 1167.61 442.85 1171.51 439.65 1175.71C435.65 1181.11 431.35 1187.01 426.75 1193.41C422.35 1199.61 417.85 1206.41 413.25 1213.81C412.05 1215.61 411.05 1216.51 410.25 1216.51Z" fill="black"/>
<path d="M376.291 1217.11C369.691 1217.11 363.891 1215.21 358.891 1211.41C353.891 1207.61 351.391 1201.21 351.391 1192.21C351.391 1186.81 352.591 1181.01 354.991 1174.81C357.391 1168.41 360.591 1162.41 364.591 1156.81C368.791 1151.21 373.391 1146.61 378.391 1143.01C383.391 1139.41 388.491 1137.61 393.691 1137.61C395.691 1137.61 397.391 1138.31 398.791 1139.71C400.391 1141.11 401.191 1143.21 401.191 1146.01C401.191 1152.21 396.491 1159.71 387.091 1168.51C383.291 1172.11 379.291 1175.31 375.091 1178.11C371.091 1180.91 367.391 1182.91 363.991 1184.11C363.191 1186.71 362.791 1189.71 362.791 1193.11C362.791 1197.71 363.891 1201.91 366.091 1205.71C368.291 1209.51 371.791 1211.41 376.591 1211.41C382.591 1211.41 388.091 1209.71 393.091 1206.31C398.091 1202.91 402.691 1198.81 406.891 1194.01C411.091 1189.01 414.791 1184.41 417.991 1180.21C419.391 1178.21 420.791 1177.21 422.191 1177.21C422.991 1177.21 423.391 1177.61 423.391 1178.41C423.391 1178.81 423.291 1179.31 423.091 1179.91C422.891 1180.31 422.691 1180.71 422.491 1181.11C419.091 1185.91 415.191 1191.11 410.791 1196.71C406.391 1202.31 401.391 1207.11 395.791 1211.11C390.191 1215.11 383.691 1217.11 376.291 1217.11ZM366.091 1178.11C371.291 1175.91 376.691 1172.01 382.291 1166.41C388.891 1160.01 392.191 1154.41 392.191 1149.61C392.191 1147.21 390.991 1146.01 388.591 1146.01C385.391 1146.01 380.991 1150.61 375.391 1159.81C370.391 1167.41 367.291 1173.51 366.091 1178.11Z" fill="black"/>
<path d="M291.837 1218.91C284.837 1218.91 281.337 1214.81 281.337 1206.61C281.337 1195.21 286.337 1181.81 296.337 1166.41C296.137 1165.41 295.937 1164.31 295.737 1163.11C295.737 1161.91 295.737 1160.81 295.737 1159.81C295.737 1152.61 298.137 1145.61 302.937 1138.81C307.737 1132.01 313.637 1128.61 320.637 1128.61C326.637 1128.61 330.637 1130.71 332.637 1134.91C334.837 1139.11 335.937 1143.81 335.937 1149.01C335.937 1153.41 335.437 1157.61 334.437 1161.61C333.437 1165.81 331.937 1170.51 329.937 1175.71C327.937 1180.91 325.437 1186.41 322.437 1192.21C325.437 1194.01 328.837 1194.91 332.637 1194.91C336.037 1194.91 339.237 1194.51 342.237 1193.71C345.237 1192.71 348.037 1190.91 350.637 1188.31C353.237 1185.71 355.237 1183.41 356.637 1181.41C358.237 1179.41 358.937 1178.51 358.737 1178.71C359.137 1178.31 359.537 1178.11 359.937 1178.11C360.737 1178.11 361.337 1178.61 361.737 1179.61C362.337 1180.61 362.237 1181.61 361.437 1182.61C358.237 1187.21 354.037 1191.31 348.837 1194.91C343.837 1198.31 338.337 1200.01 332.337 1200.01C327.737 1200.01 323.737 1199.01 320.337 1197.01C311.137 1211.61 301.637 1218.91 291.837 1218.91ZM318.537 1189.51C321.137 1183.11 323.137 1177.61 324.537 1173.01C325.937 1168.41 326.637 1164.11 326.637 1160.11V1157.71C326.637 1152.31 325.737 1147.31 323.937 1142.71C322.137 1137.91 319.537 1135.51 316.137 1135.51C311.537 1135.51 307.937 1138.31 305.337 1143.91C303.537 1147.71 302.637 1151.91 302.637 1156.51V1158.31C305.837 1154.51 309.037 1152.61 312.237 1152.61C315.237 1152.61 317.437 1153.61 318.837 1155.61C319.437 1156.41 319.737 1157.11 319.737 1157.71C319.737 1158.91 318.537 1159.51 316.137 1159.51C312.537 1159.51 308.737 1163.31 304.737 1170.91C307.537 1178.71 312.137 1184.91 318.537 1189.51ZM296.637 1211.71C299.237 1211.71 302.937 1209.31 307.737 1204.51C309.737 1202.51 311.437 1200.61 312.837 1198.81C314.237 1197.01 315.337 1195.31 316.137 1193.71C309.337 1189.11 304.337 1184.01 301.137 1178.41C295.137 1191.01 292.137 1200.11 292.137 1205.71C292.137 1209.71 293.637 1211.71 296.637 1211.71Z" fill="black"/>
<path d="M132 1226.41C127.6 1226.41 125.4 1224.21 125.4 1219.81C125.4 1218.21 125.7 1217.01 126.3 1216.21C131.5 1209.81 137.1 1201.41 143.1 1191.01C149.1 1180.41 155.7 1167.11 162.9 1151.11C177.3 1118.91 184.5 1095.51 184.5 1080.91C184.5 1059.31 171.7 1048.51 146.1 1048.51C133.9 1048.51 120 1051.21 104.4 1056.61C95.4 1059.61 86.6 1063.21 78 1067.41C69.6 1071.61 61 1076.81 52.2 1083.01C30 1098.21 18.9 1112.81 18.9 1126.81C18.9 1138.21 26.6 1143.91 42 1143.91C49.8 1143.91 60.9 1141.91 75.3 1137.91C76.1 1137.71 76.7 1137.61 77.1 1137.61C77.7 1137.41 78.1 1137.31 78.3 1137.31C79.9 1137.31 80.7 1137.91 80.7 1139.11C80.7 1142.51 75.5 1145.41 65.1 1147.81C61.1 1148.61 57.4 1149.31 54 1149.91C50.6 1150.51 47.5 1150.81 44.7 1150.81C22.3 1150.81 11.1 1142.01 11.1 1124.41C11.1 1108.01 22.5 1091.91 45.3 1076.11C62.9 1064.11 81.7 1055.01 101.7 1048.81C118.1 1043.81 133.5 1041.31 147.9 1041.31C180.9 1041.31 197.4 1054.31 197.4 1080.31C197.4 1098.71 190.1 1121.61 175.5 1149.01C181.3 1142.21 187.1 1135.21 192.9 1128.01C198.9 1120.61 204.5 1113.91 209.7 1107.91C218.1 1098.51 225.7 1091.51 232.5 1086.91C239.3 1082.31 245.2 1080.01 250.2 1080.01C264.8 1080.01 272.1 1087.01 272.1 1101.01C272.1 1113.01 266.3 1131.61 254.7 1156.81C243.1 1182.01 237.3 1198.41 237.3 1206.01C237.3 1212.01 240.1 1215.01 245.7 1215.01C248.7 1215.01 252.6 1213.31 257.4 1209.91C262.4 1206.51 265.2 1204.81 265.8 1204.81C266.6 1204.81 267 1205.31 267 1206.31C267 1210.31 264.3 1213.81 258.9 1216.81C253.3 1219.81 248.3 1221.31 243.9 1221.31C233.3 1221.31 228 1215.71 228 1204.51C228 1196.31 231 1185.31 237 1171.51L248.4 1145.41C250.6 1140.41 252.5 1135.71 254.1 1131.31C255.7 1126.71 257 1122.41 258 1118.41C260.4 1110.21 261.6 1103.81 261.6 1099.21C261.6 1092.21 259.1 1088.71 254.1 1088.71C251.3 1088.71 248.2 1089.51 244.8 1091.11C237.6 1094.31 229.4 1100.31 220.2 1109.11C211 1117.71 201.1 1128.71 190.5 1142.11C182.5 1152.11 174.8 1162.41 167.4 1173.01C160 1183.41 153.1 1194.21 146.7 1205.41C145.3 1207.81 143.3 1210.91 140.7 1214.71C138.3 1218.31 135.4 1222.21 132 1226.41Z" fill="black"/>
<path d="M1182.56 1337.11C1172.76 1337.11 1164.76 1334.31 1158.56 1328.71C1151.96 1322.91 1148.66 1315.41 1148.66 1306.21C1148.66 1285.01 1163.96 1264.51 1194.56 1244.71C1220.56 1228.11 1245.46 1217.91 1269.26 1214.11C1270.66 1207.91 1272.16 1200.21 1273.76 1191.01C1275.36 1181.81 1277.06 1171.11 1278.86 1158.91C1277.66 1161.71 1275.96 1165.11 1273.76 1169.11C1271.56 1173.11 1268.96 1177.31 1265.96 1181.71C1262.56 1186.91 1259.66 1191.21 1257.26 1194.61C1254.86 1197.81 1252.46 1200.61 1250.06 1203.01C1245.06 1208.41 1240.16 1211.11 1235.36 1211.11C1228.96 1211.11 1225.76 1205.51 1225.76 1194.31C1225.76 1188.11 1227.76 1180.41 1231.76 1171.21C1236.16 1160.81 1241.26 1155.61 1247.06 1155.61C1249.86 1155.61 1251.26 1156.41 1251.26 1158.01C1251.26 1158.21 1250.76 1159.21 1249.76 1161.01C1248.76 1162.81 1246.76 1166.31 1243.76 1171.51C1238.76 1180.31 1236.26 1187.21 1236.26 1192.21C1236.26 1198.61 1238.06 1201.81 1241.66 1201.81C1248.06 1201.81 1261.56 1181.71 1282.16 1141.51C1282.56 1138.51 1285.06 1137.01 1289.66 1137.01C1293.26 1137.01 1295.06 1137.81 1295.06 1139.41C1295.06 1140.81 1294.76 1143.61 1294.16 1147.81C1293.56 1152.01 1292.56 1157.71 1291.16 1164.91C1289.36 1174.91 1287.76 1183.51 1286.36 1190.71C1284.96 1197.71 1283.26 1205.41 1281.26 1213.81H1282.46C1293.06 1213.81 1298.36 1216.51 1298.36 1221.91C1298.36 1223.11 1298.06 1223.71 1297.46 1223.71C1297.26 1223.71 1296.36 1223.21 1294.76 1222.21C1293.96 1221.81 1292.86 1221.21 1291.46 1220.41C1290.06 1219.81 1288.26 1219.51 1286.06 1219.51C1285.06 1219.51 1284.06 1219.51 1283.06 1219.51C1282.26 1219.51 1281.36 1219.61 1280.36 1219.81C1272.96 1249.41 1263.46 1272.71 1251.86 1289.71C1230.26 1321.31 1207.16 1337.11 1182.56 1337.11ZM1184.06 1332.91C1196.46 1332.91 1208.56 1327.71 1220.36 1317.31C1229.76 1309.31 1238.26 1298.81 1245.86 1285.81C1256.46 1267.61 1264.16 1245.51 1268.96 1219.51C1255.96 1221.51 1240.26 1227.21 1221.86 1236.61C1203.26 1246.01 1189.36 1255.21 1180.16 1264.21C1164.96 1278.61 1157.36 1292.91 1157.36 1307.11C1157.36 1314.91 1159.76 1321.11 1164.56 1325.71C1169.76 1330.51 1176.26 1332.91 1184.06 1332.91Z" fill="black"/>
<path d="M1139.95 1216.21C1133.75 1216.21 1130.65 1212.81 1130.65 1206.01C1130.65 1195.81 1135.65 1183.31 1145.65 1168.51C1155.45 1153.91 1165.15 1144.91 1174.75 1141.51C1176.55 1140.91 1178.25 1140.41 1179.85 1140.01C1181.45 1139.61 1183.05 1139.41 1184.65 1139.41C1191.85 1139.41 1197.05 1141.91 1200.25 1146.91C1200.85 1147.71 1201.15 1148.41 1201.15 1149.01C1201.15 1149.41 1200.45 1149.71 1199.05 1149.91C1197.85 1150.11 1196.85 1150.81 1196.05 1152.01C1191.25 1159.81 1188.85 1171.51 1188.85 1187.11C1188.85 1201.51 1191.95 1208.71 1198.15 1208.71C1202.35 1208.71 1208.45 1204.31 1216.45 1195.51C1217.65 1194.31 1219.35 1192.21 1221.55 1189.21C1223.75 1186.21 1225.95 1183.21 1228.15 1180.21C1230.35 1177.01 1231.85 1174.91 1232.65 1173.91C1233.25 1173.31 1233.75 1173.01 1234.15 1173.01C1234.95 1173.01 1235.35 1173.71 1235.35 1175.11C1235.35 1176.11 1234.75 1177.51 1233.55 1179.31C1229.15 1186.31 1224.15 1193.11 1218.55 1199.71C1212.95 1206.31 1208.15 1210.61 1204.15 1212.61C1200.55 1214.41 1196.95 1215.31 1193.35 1215.31C1181.15 1215.31 1175.05 1206.71 1175.05 1189.51C1175.05 1188.11 1175.05 1186.71 1175.05 1185.31C1175.25 1183.71 1175.45 1182.11 1175.65 1180.51C1162.05 1204.31 1150.15 1216.21 1139.95 1216.21ZM1145.05 1207.21C1147.25 1207.21 1149.85 1206.01 1152.85 1203.61C1155.85 1201.01 1158.95 1197.61 1162.15 1193.41C1166.95 1187.01 1171.45 1180.21 1175.65 1173.01C1179.85 1165.81 1183.55 1158.01 1186.75 1149.61C1186.15 1149.41 1185.25 1149.31 1184.05 1149.31C1175.85 1149.31 1167.55 1154.41 1159.15 1164.61C1146.95 1179.21 1140.85 1191.31 1140.85 1200.91C1140.85 1205.11 1142.25 1207.21 1145.05 1207.21Z" fill="black"/>
<path d="M1090.67 1236.91C1079.27 1236.91 1073.57 1230.21 1073.57 1216.81C1073.57 1208.01 1075.97 1196.31 1080.77 1181.71C1082.57 1176.31 1084.77 1170.21 1087.37 1163.41C1090.17 1156.41 1093.47 1148.91 1097.27 1140.91C1099.27 1136.71 1100.77 1133.51 1101.77 1131.31C1102.97 1128.91 1103.97 1126.71 1104.77 1124.71C1105.77 1122.51 1106.87 1119.71 1108.07 1116.31C1109.07 1113.51 1109.77 1111.21 1110.17 1109.41C1110.57 1107.41 1110.77 1105.71 1110.77 1104.31C1110.77 1102.11 1110.07 1101.01 1108.67 1101.01C1098.47 1101.01 1080.27 1115.31 1054.07 1143.91C1044.87 1154.11 1036.27 1164.01 1028.27 1173.61C1020.27 1183.21 1013.07 1192.71 1006.67 1202.11L996.774 1217.11C996.374 1218.11 995.674 1219.21 994.674 1220.41C993.874 1221.61 992.974 1222.91 991.974 1224.31C991.374 1224.51 990.574 1224.61 989.574 1224.61C983.574 1224.61 980.574 1222.21 980.574 1217.41C980.574 1216.21 980.874 1215.21 981.474 1214.41C981.674 1214.01 982.674 1212.21 984.474 1209.01C986.274 1205.61 989.074 1199.81 992.874 1191.61C1013.07 1149.41 1023.17 1119.21 1023.17 1101.01C1023.17 1092.61 1020.57 1088.41 1015.37 1088.41C1006.97 1088.41 992.974 1099.11 973.374 1120.51C961.974 1133.11 951.074 1146.41 940.674 1160.41C930.474 1174.41 920.574 1189.41 910.974 1205.41L904.374 1216.51C901.174 1221.71 898.574 1225.01 896.574 1226.41C891.974 1226.41 889.674 1224.21 889.674 1219.81C889.674 1218.21 890.074 1217.01 890.874 1216.21C901.674 1203.01 913.574 1181.81 926.574 1152.61C933.574 1137.01 938.774 1123.51 942.174 1112.11C945.774 1100.51 947.574 1091.01 947.574 1083.61C947.574 1063.61 936.574 1053.61 914.574 1053.61C908.774 1053.61 902.374 1054.31 895.374 1055.71C888.374 1057.11 880.774 1059.31 872.574 1062.31C866.574 1064.31 860.974 1066.51 855.774 1068.91C850.574 1071.31 844.974 1074.21 838.974 1077.61C827.174 1084.01 816.274 1091.01 806.274 1098.61C791.074 1110.21 783.474 1119.91 783.474 1127.71C783.474 1138.91 794.374 1144.51 816.174 1144.51C818.374 1144.51 821.174 1144.41 824.574 1144.21C827.974 1143.81 831.574 1143.31 835.374 1142.71C844.374 1141.31 850.874 1140.61 854.874 1140.61C856.474 1140.61 857.274 1141.01 857.274 1141.81C857.274 1142.61 856.774 1143.31 855.774 1143.91C848.974 1148.71 837.674 1151.11 821.874 1151.11C810.074 1151.11 800.274 1149.51 792.474 1146.31C781.274 1141.71 775.674 1134.61 775.674 1125.01C775.674 1114.61 783.174 1103.41 798.174 1091.41C803.374 1087.21 808.874 1083.31 814.674 1079.71C820.474 1076.11 827.074 1072.51 834.474 1068.91C840.474 1066.11 846.174 1063.61 851.574 1061.41C856.974 1059.21 863.374 1057.01 870.774 1054.81C879.574 1052.01 887.874 1050.01 895.674 1048.81C903.674 1047.61 911.074 1047.01 917.874 1047.01C947.074 1047.01 961.674 1058.11 961.674 1080.31C961.674 1098.11 954.474 1121.01 940.074 1149.01C945.874 1142.21 951.674 1135.21 957.474 1128.01C963.474 1120.61 969.074 1113.91 974.274 1107.91C982.674 1098.51 990.274 1091.51 997.074 1086.91C1003.87 1082.31 1009.77 1080.01 1014.77 1080.01C1026.77 1080.01 1032.77 1089.01 1032.77 1107.01C1032.77 1122.81 1026.67 1145.41 1014.47 1174.81C1021.47 1167.01 1028.47 1159.41 1035.47 1152.01C1042.67 1144.61 1050.17 1137.21 1057.97 1129.81C1079.97 1108.61 1095.77 1096.51 1105.37 1093.51C1107.77 1092.71 1109.97 1092.31 1111.97 1092.31C1118.17 1092.31 1121.27 1096.31 1121.27 1104.31C1121.27 1110.71 1119.27 1118.81 1115.27 1128.61C1111.87 1137.21 1108.67 1144.91 1105.67 1151.71C1102.87 1158.31 1099.77 1165.81 1096.37 1174.21C1092.17 1184.61 1089.07 1193.71 1087.07 1201.51C1085.27 1209.11 1084.37 1215.21 1084.37 1219.81C1084.37 1227.01 1087.07 1230.61 1092.47 1230.61C1095.27 1230.61 1099.07 1228.91 1103.87 1225.51C1108.87 1222.11 1111.67 1220.41 1112.27 1220.41C1113.07 1220.41 1113.47 1220.91 1113.47 1221.91C1113.47 1225.91 1110.77 1229.41 1105.37 1232.41C1099.77 1235.41 1094.87 1236.91 1090.67 1236.91Z" fill="black"/>
</svg>
