<svg width="1722" height="1297" viewBox="0 0 1722 1297" fill="none" xmlns="http://www.w3.org/2000/svg">
<path d="M950.498 127C933.831 88.3333 918.165 62 903.498 48C888.831 33.3333 867.831 24.6666 840.498 22V1.99997C843.831 1.99997 848.831 1.66664 855.498 0.999985C861.498 0.333327 867.831 0 874.498 0C907.831 0 939.831 8.66665 970.498 26C1001.16 42.6666 1027.16 76.3333 1048.5 127L1219.5 530L1278.5 393C1306.5 328.333 1360.16 200.667 1439.5 9.99998H1487.5L1200.5 680H1182.5L950.498 127Z" fill="#C01E25"/>
<path d="M353.506 140C337.506 116.667 323.506 98.3334 311.506 85C299.506 71 283.839 58.6667 264.506 48C245.173 37.3334 221.506 31.3333 193.506 30V10H313.506C342.839 10 367.506 19.6667 387.506 39C407.506 57.6666 429.506 84.6667 453.506 120L553.506 270L753.506 10H803.506L578.506 305L738.506 540C759.173 570.667 781.173 596.333 804.506 617C828.506 637 854.839 648 883.506 650V670H778.506C749.839 670 724.506 660 702.506 640C680.506 619.333 659.173 592.667 638.506 560L518.506 380L293.506 670H243.506L493.506 345L353.506 140Z" fill="#C01E25"/>
<path d="M967.031 943.958C969.878 943.958 971.911 945.605 973.157 947.041C974.43 948.352 975.938 950.407 975.938 953.108C975.938 954.37 975.702 955.793 974.961 957.15C974.193 958.559 973.042 959.599 971.709 960.266L971.65 960.295C966.215 962.925 960.3 964.918 953.928 966.296L953.877 966.308L953.825 966.317C947.773 967.494 941.564 968.332 935.198 968.835C928.883 969.334 922.567 969.583 916.25 969.583H916.183L916.115 969.581C911.775 969.464 907.566 969.39 903.487 969.357C902.309 981.034 900.034 993.371 896.677 1006.36C892.889 1021.02 888.281 1035.67 882.853 1050.31C877.439 1064.91 871.531 1079.18 865.131 1093.13C860.148 1104.15 855.208 1114.39 850.314 1123.86C852.511 1123.97 854.69 1124.06 856.852 1124.14H856.851C861.678 1124.3 866.423 1124.38 871.084 1124.38C875.052 1124.38 878.937 1124.3 882.74 1124.14C886.558 1123.83 890.294 1123.38 893.951 1122.77C895.126 1122.45 896.265 1122.19 897.361 1122C898.12 1121.88 898.992 1121.68 899.983 1121.4L900.179 1121.34L900.377 1121.3C900.517 1121.27 900.608 1121.25 900.659 1121.23L900.796 1121.14L901.074 1121C902.498 1120.29 904.01 1119.98 905.508 1119.98C908.572 1119.98 910.612 1121.94 911.76 1123.44C913.004 1124.76 914.414 1126.76 914.414 1129.38C914.414 1130.64 914.178 1132.06 913.438 1133.42C912.669 1134.83 911.519 1135.87 910.186 1136.54L910.129 1136.56L910.071 1136.59C904.482 1139.21 898.415 1141.2 891.89 1142.57L891.839 1142.58L891.789 1142.59C885.563 1143.77 879.181 1144.53 872.646 1144.86C866.171 1145.36 859.696 1145.53 853.221 1145.36H836.932C835.966 1145.83 834.887 1146.1 833.73 1146.1C832.517 1146.1 831.416 1145.81 830.447 1145.36H827.928C819.719 1145.52 811.762 1146.6 804.045 1148.6C796.278 1150.83 788.585 1153.52 780.966 1156.7C779.158 1157.45 777.346 1158.28 775.529 1159.19C773.397 1160.42 771.179 1161.48 768.875 1162.37L768.009 1162.7H766.348C763.656 1162.7 761.569 1161.37 760.119 1159.78C758.521 1158.33 757.197 1156.24 757.197 1153.55C757.197 1152.03 757.583 1150.62 758.214 1149.36L758.46 1148.86L758.81 1148.44C762.737 1143.62 767.377 1139.52 772.706 1136.14L772.757 1136.11L772.809 1136.08C777.998 1132.96 783.524 1130.46 789.379 1128.56C795.205 1126.5 801.128 1125.04 807.145 1124.18L807.164 1124.18C813.229 1123.34 819.074 1122.91 824.697 1122.91C826.251 1122.91 827.803 1123 829.354 1123.16H830.191C835.889 1109.88 841.379 1096.53 846.655 1083.11L846.664 1083.09L846.674 1083.07C852.496 1068.68 857.913 1054.04 862.928 1039.16C867.115 1026.6 870.736 1014.04 873.794 1001.49C876.365 990.796 879.327 980.163 882.676 969.588C876.855 970.019 871.163 971.013 865.597 972.571L865.564 972.581L865.53 972.59C857.81 974.638 850.157 977.32 842.57 980.639L842.53 980.656L842.489 980.673C840.604 981.458 838.633 982.325 836.574 983.275C834.563 984.278 832.547 985.202 830.526 986.044L830.358 986.114L830.185 986.172L829.452 986.416L828.683 986.673H827.871C825.101 986.673 822.928 985.265 821.406 983.743C819.885 982.222 818.477 980.049 818.477 977.278C818.477 975.308 819.238 973.563 820.492 972.223C824.541 967.491 829.206 963.451 834.474 960.115L834.504 960.095L834.535 960.076C839.912 956.781 845.562 954.172 851.479 952.258L851.498 952.251L851.519 952.245C857.478 950.372 863.527 949.009 869.664 948.156C875.736 947.313 881.662 946.888 887.441 946.888C895.037 946.888 902.554 947.135 909.991 947.631C917.202 948.112 924.497 948.353 931.875 948.353C935.841 948.353 939.807 948.274 943.773 948.117C947.597 947.809 951.422 947.351 955.249 946.745C956.418 946.422 957.549 946.161 958.641 945.979L958.698 945.97L958.756 945.961C959.6 945.84 960.338 945.667 960.982 945.458C961.706 945.175 962.423 944.929 963.126 944.731C964.393 944.193 965.718 943.958 967.031 943.958Z" fill="#C4AA84" stroke="#C4AA84" stroke-width="10"/>
<mask id="path-4-outside-1_166_3744" maskUnits="userSpaceOnUse" x="546.143" y="943.353" width="267" height="223" fill="black">
<rect fill="white" x="546.143" y="943.353" width="267" height="223"/>
<path d="M802.236 1134.75C802.236 1135.56 801.829 1136.38 801.016 1137.19C799.063 1138.98 796.54 1140.93 793.447 1143.05C790.355 1145.17 787.1 1147.12 783.682 1148.91C780.264 1150.86 776.846 1152.49 773.428 1153.79C770.01 1155.09 766.999 1155.75 764.395 1155.75C761.139 1155.75 758.21 1155.09 755.605 1153.79C753.164 1152.49 750.967 1150.7 749.014 1148.42C747.061 1146.31 745.514 1143.86 744.375 1141.1C743.236 1138.33 742.503 1135.48 742.178 1132.55C741.852 1129.46 741.527 1126.45 741.201 1123.52C740.876 1120.43 740.713 1117.33 740.713 1114.24C740.713 1106.43 741.527 1097.4 743.154 1087.14C744.782 1076.72 746.816 1066.15 749.258 1055.4C751.699 1044.5 754.385 1034 757.314 1023.91C760.244 1013.66 763.092 1004.78 765.859 997.298C762.116 1003.32 758.291 1009.26 754.385 1015.12C750.641 1020.98 746.816 1026.76 742.91 1032.45C739.492 1037.66 735.993 1042.87 732.412 1048.08C728.831 1053.29 725.007 1058.41 720.938 1063.46C717.031 1068.51 712.8 1073.23 708.242 1077.62C703.848 1082.01 699.046 1085.92 693.838 1089.34C693.512 1089.5 693.024 1089.58 692.373 1089.58C691.559 1089.58 690.745 1089.26 689.932 1088.61C689.118 1087.96 688.548 1087.22 688.223 1086.41L687.979 1086.65C687.816 1086.65 687.734 1086.57 687.734 1086.41C687.734 1086.25 687.653 1086.08 687.49 1085.92C685.863 1081.2 684.642 1076.32 683.828 1071.27C683.177 1066.23 682.689 1061.18 682.363 1056.14C682.038 1051.25 681.712 1046.37 681.387 1041.49C681.224 1036.6 680.98 1031.72 680.654 1026.84C680.003 1018.05 679.352 1009.26 678.701 1000.47C678.213 991.52 677.562 982.568 676.748 973.616C671.214 987.451 666.087 1001.37 661.367 1015.36C656.647 1029.36 651.602 1043.36 646.23 1057.36C642.324 1067.45 638.011 1077.29 633.291 1086.9C628.571 1096.5 622.956 1105.61 616.445 1114.24C613.027 1118.64 609.203 1122.7 604.971 1126.45C600.739 1130.19 596.182 1133.45 591.299 1136.21C586.416 1138.98 581.208 1141.1 575.674 1142.56C570.303 1144.19 564.85 1145 559.316 1145C558.503 1145 557.77 1144.6 557.119 1143.78C556.468 1142.97 556.143 1142.15 556.143 1141.34C556.143 1139.39 557.038 1138.25 558.828 1137.92C562.246 1137.11 565.42 1136.46 568.35 1135.97C571.442 1135.32 574.616 1134.34 577.871 1133.04C585.521 1129.62 592.194 1124.9 597.891 1118.88C603.75 1112.86 608.958 1106.18 613.516 1098.86C618.073 1091.54 621.979 1083.89 625.234 1075.91C628.652 1067.94 631.745 1060.29 634.512 1052.96C636.953 1046.45 639.232 1039.86 641.348 1033.19C643.464 1026.51 645.579 1019.92 647.695 1013.41C649.974 1006.74 652.334 1000.15 654.775 993.636C657.38 987.125 660.391 980.778 663.809 974.593C659.251 977.36 654.613 979.882 649.893 982.161C645.173 984.277 640.534 986.718 635.977 989.485C632.559 991.438 629.141 993.636 625.723 996.077C622.305 998.356 619.05 1000.96 615.957 1003.89C612.865 1006.66 610.016 1009.67 607.412 1012.92C604.971 1016.18 603.018 1019.68 601.553 1023.42C600.902 1025.05 600.413 1026.68 600.088 1028.3C599.762 1029.77 599.355 1031.31 598.867 1032.94C598.704 1033.76 598.298 1034.41 597.647 1034.9C596.995 1035.22 596.344 1035.38 595.693 1035.38C595.042 1035.38 594.229 1035.06 593.252 1034.41C592.275 1033.76 591.787 1033.11 591.787 1032.45C591.787 1026.43 592.845 1020.82 594.961 1015.61C597.077 1010.4 599.925 1005.6 603.506 1001.2C607.087 996.647 611.074 992.496 615.469 988.753C620.026 985.009 624.665 981.673 629.385 978.743C636.872 974.023 644.766 969.466 653.066 965.071C661.367 960.514 669.668 956.852 677.969 954.085H678.457C680.085 954.085 681.305 954.736 682.119 956.038C682.607 956.364 682.933 956.852 683.096 957.503C683.258 958.154 683.177 958.724 682.852 959.212C685.619 970.117 687.734 981.185 689.199 992.415C690.664 1003.48 691.966 1014.63 693.105 1025.86C693.919 1034 694.652 1042.06 695.303 1050.03C696.117 1057.84 696.279 1065.82 695.791 1073.96C701.976 1065.82 708.242 1057.84 714.59 1050.03C720.938 1042.06 726.96 1033.92 732.656 1025.62C739.004 1016.5 745.27 1007.55 751.455 998.763C757.64 989.811 763.988 980.94 770.498 972.151C772.777 969.222 775.055 966.211 777.334 963.118C779.775 960.026 782.217 957.096 784.658 954.329C785.309 953.678 786.042 953.353 786.855 953.353C787.832 953.353 788.89 953.922 790.029 955.062C791.169 956.038 791.738 957.015 791.738 957.991V958.479C786.693 976.709 781.159 994.612 775.137 1012.19C769.115 1029.77 763.988 1047.83 759.756 1066.39C757.803 1075.18 756.012 1083.97 754.385 1092.76C752.92 1101.38 752.188 1110.09 752.188 1118.88C752.188 1121.16 752.269 1123.84 752.432 1126.94C752.594 1130.03 753.083 1133.04 753.897 1135.97C754.71 1138.74 755.931 1141.1 757.559 1143.05C759.349 1145 761.872 1145.98 765.127 1145.98C768.057 1145.98 771.312 1145.17 774.893 1143.54C778.473 1142.07 781.891 1140.36 785.147 1138.41C788.564 1136.46 791.494 1134.75 793.936 1133.28C796.377 1131.66 797.842 1130.84 798.33 1130.84C799.307 1130.84 800.202 1131.25 801.016 1132.06C801.829 1132.88 802.236 1133.77 802.236 1134.75Z"/>
</mask>
<path d="M802.236 1134.75C802.236 1135.56 801.829 1136.38 801.016 1137.19C799.063 1138.98 796.54 1140.93 793.447 1143.05C790.355 1145.17 787.1 1147.12 783.682 1148.91C780.264 1150.86 776.846 1152.49 773.428 1153.79C770.01 1155.09 766.999 1155.75 764.395 1155.75C761.139 1155.75 758.21 1155.09 755.605 1153.79C753.164 1152.49 750.967 1150.7 749.014 1148.42C747.061 1146.31 745.514 1143.86 744.375 1141.1C743.236 1138.33 742.503 1135.48 742.178 1132.55C741.852 1129.46 741.527 1126.45 741.201 1123.52C740.876 1120.43 740.713 1117.33 740.713 1114.24C740.713 1106.43 741.527 1097.4 743.154 1087.14C744.782 1076.72 746.816 1066.15 749.258 1055.4C751.699 1044.5 754.385 1034 757.314 1023.91C760.244 1013.66 763.092 1004.78 765.859 997.298C762.116 1003.32 758.291 1009.26 754.385 1015.12C750.641 1020.98 746.816 1026.76 742.91 1032.45C739.492 1037.66 735.993 1042.87 732.412 1048.08C728.831 1053.29 725.007 1058.41 720.938 1063.46C717.031 1068.51 712.8 1073.23 708.242 1077.62C703.848 1082.01 699.046 1085.92 693.838 1089.34C693.512 1089.5 693.024 1089.58 692.373 1089.58C691.559 1089.58 690.745 1089.26 689.932 1088.61C689.118 1087.96 688.548 1087.22 688.223 1086.41L687.979 1086.65C687.816 1086.65 687.734 1086.57 687.734 1086.41C687.734 1086.25 687.653 1086.08 687.49 1085.92C685.863 1081.2 684.642 1076.32 683.828 1071.27C683.177 1066.23 682.689 1061.18 682.363 1056.14C682.038 1051.25 681.712 1046.37 681.387 1041.49C681.224 1036.6 680.98 1031.72 680.654 1026.84C680.003 1018.05 679.352 1009.26 678.701 1000.47C678.213 991.52 677.562 982.568 676.748 973.616C671.214 987.451 666.087 1001.37 661.367 1015.36C656.647 1029.36 651.602 1043.36 646.23 1057.36C642.324 1067.45 638.011 1077.29 633.291 1086.9C628.571 1096.5 622.956 1105.61 616.445 1114.24C613.027 1118.64 609.203 1122.7 604.971 1126.45C600.739 1130.19 596.182 1133.45 591.299 1136.21C586.416 1138.98 581.208 1141.1 575.674 1142.56C570.303 1144.19 564.85 1145 559.316 1145C558.503 1145 557.77 1144.6 557.119 1143.78C556.468 1142.97 556.143 1142.15 556.143 1141.34C556.143 1139.39 557.038 1138.25 558.828 1137.92C562.246 1137.11 565.42 1136.46 568.35 1135.97C571.442 1135.32 574.616 1134.34 577.871 1133.04C585.521 1129.62 592.194 1124.9 597.891 1118.88C603.75 1112.86 608.958 1106.18 613.516 1098.86C618.073 1091.54 621.979 1083.89 625.234 1075.91C628.652 1067.94 631.745 1060.29 634.512 1052.96C636.953 1046.45 639.232 1039.86 641.348 1033.19C643.464 1026.51 645.579 1019.92 647.695 1013.41C649.974 1006.74 652.334 1000.15 654.775 993.636C657.38 987.125 660.391 980.778 663.809 974.593C659.251 977.36 654.613 979.882 649.893 982.161C645.173 984.277 640.534 986.718 635.977 989.485C632.559 991.438 629.141 993.636 625.723 996.077C622.305 998.356 619.05 1000.96 615.957 1003.89C612.865 1006.66 610.016 1009.67 607.412 1012.92C604.971 1016.18 603.018 1019.68 601.553 1023.42C600.902 1025.05 600.413 1026.68 600.088 1028.3C599.762 1029.77 599.355 1031.31 598.867 1032.94C598.704 1033.76 598.298 1034.41 597.647 1034.9C596.995 1035.22 596.344 1035.38 595.693 1035.38C595.042 1035.38 594.229 1035.06 593.252 1034.41C592.275 1033.76 591.787 1033.11 591.787 1032.45C591.787 1026.43 592.845 1020.82 594.961 1015.61C597.077 1010.4 599.925 1005.6 603.506 1001.2C607.087 996.647 611.074 992.496 615.469 988.753C620.026 985.009 624.665 981.673 629.385 978.743C636.872 974.023 644.766 969.466 653.066 965.071C661.367 960.514 669.668 956.852 677.969 954.085H678.457C680.085 954.085 681.305 954.736 682.119 956.038C682.607 956.364 682.933 956.852 683.096 957.503C683.258 958.154 683.177 958.724 682.852 959.212C685.619 970.117 687.734 981.185 689.199 992.415C690.664 1003.48 691.966 1014.63 693.105 1025.86C693.919 1034 694.652 1042.06 695.303 1050.03C696.117 1057.84 696.279 1065.82 695.791 1073.96C701.976 1065.82 708.242 1057.84 714.59 1050.03C720.938 1042.06 726.96 1033.92 732.656 1025.62C739.004 1016.5 745.27 1007.55 751.455 998.763C757.64 989.811 763.988 980.94 770.498 972.151C772.777 969.222 775.055 966.211 777.334 963.118C779.775 960.026 782.217 957.096 784.658 954.329C785.309 953.678 786.042 953.353 786.855 953.353C787.832 953.353 788.89 953.922 790.029 955.062C791.169 956.038 791.738 957.015 791.738 957.991V958.479C786.693 976.709 781.159 994.612 775.137 1012.19C769.115 1029.77 763.988 1047.83 759.756 1066.39C757.803 1075.18 756.012 1083.97 754.385 1092.76C752.92 1101.38 752.188 1110.09 752.188 1118.88C752.188 1121.16 752.269 1123.84 752.432 1126.94C752.594 1130.03 753.083 1133.04 753.897 1135.97C754.71 1138.74 755.931 1141.1 757.559 1143.05C759.349 1145 761.872 1145.98 765.127 1145.98C768.057 1145.98 771.312 1145.17 774.893 1143.54C778.473 1142.07 781.891 1140.36 785.147 1138.41C788.564 1136.46 791.494 1134.75 793.936 1133.28C796.377 1131.66 797.842 1130.84 798.33 1130.84C799.307 1130.84 800.202 1131.25 801.016 1132.06C801.829 1132.88 802.236 1133.77 802.236 1134.75Z" fill="#C4AA84"/>
<path d="M802.236 1134.75C802.236 1135.56 801.829 1136.38 801.016 1137.19C799.063 1138.98 796.54 1140.93 793.447 1143.05C790.355 1145.17 787.1 1147.12 783.682 1148.91C780.264 1150.86 776.846 1152.49 773.428 1153.79C770.01 1155.09 766.999 1155.75 764.395 1155.75C761.139 1155.75 758.21 1155.09 755.605 1153.79C753.164 1152.49 750.967 1150.7 749.014 1148.42C747.061 1146.31 745.514 1143.86 744.375 1141.1C743.236 1138.33 742.503 1135.48 742.178 1132.55C741.852 1129.46 741.527 1126.45 741.201 1123.52C740.876 1120.43 740.713 1117.33 740.713 1114.24C740.713 1106.43 741.527 1097.4 743.154 1087.14C744.782 1076.72 746.816 1066.15 749.258 1055.4C751.699 1044.5 754.385 1034 757.314 1023.91C760.244 1013.66 763.092 1004.78 765.859 997.298C762.116 1003.32 758.291 1009.26 754.385 1015.12C750.641 1020.98 746.816 1026.76 742.91 1032.45C739.492 1037.66 735.993 1042.87 732.412 1048.08C728.831 1053.29 725.007 1058.41 720.938 1063.46C717.031 1068.51 712.8 1073.23 708.242 1077.62C703.848 1082.01 699.046 1085.92 693.838 1089.34C693.512 1089.5 693.024 1089.58 692.373 1089.58C691.559 1089.58 690.745 1089.26 689.932 1088.61C689.118 1087.96 688.548 1087.22 688.223 1086.41L687.979 1086.65C687.816 1086.65 687.734 1086.57 687.734 1086.41C687.734 1086.25 687.653 1086.08 687.49 1085.92C685.863 1081.2 684.642 1076.32 683.828 1071.27C683.177 1066.23 682.689 1061.18 682.363 1056.14C682.038 1051.25 681.712 1046.37 681.387 1041.49C681.224 1036.6 680.98 1031.72 680.654 1026.84C680.003 1018.05 679.352 1009.26 678.701 1000.47C678.213 991.52 677.562 982.568 676.748 973.616C671.214 987.451 666.087 1001.37 661.367 1015.36C656.647 1029.36 651.602 1043.36 646.23 1057.36C642.324 1067.45 638.011 1077.29 633.291 1086.9C628.571 1096.5 622.956 1105.61 616.445 1114.24C613.027 1118.64 609.203 1122.7 604.971 1126.45C600.739 1130.19 596.182 1133.45 591.299 1136.21C586.416 1138.98 581.208 1141.1 575.674 1142.56C570.303 1144.19 564.85 1145 559.316 1145C558.503 1145 557.77 1144.6 557.119 1143.78C556.468 1142.97 556.143 1142.15 556.143 1141.34C556.143 1139.39 557.038 1138.25 558.828 1137.92C562.246 1137.11 565.42 1136.46 568.35 1135.97C571.442 1135.32 574.616 1134.34 577.871 1133.04C585.521 1129.62 592.194 1124.9 597.891 1118.88C603.75 1112.86 608.958 1106.18 613.516 1098.86C618.073 1091.54 621.979 1083.89 625.234 1075.91C628.652 1067.94 631.745 1060.29 634.512 1052.96C636.953 1046.45 639.232 1039.86 641.348 1033.19C643.464 1026.51 645.579 1019.92 647.695 1013.41C649.974 1006.74 652.334 1000.15 654.775 993.636C657.38 987.125 660.391 980.778 663.809 974.593C659.251 977.36 654.613 979.882 649.893 982.161C645.173 984.277 640.534 986.718 635.977 989.485C632.559 991.438 629.141 993.636 625.723 996.077C622.305 998.356 619.05 1000.96 615.957 1003.89C612.865 1006.66 610.016 1009.67 607.412 1012.92C604.971 1016.18 603.018 1019.68 601.553 1023.42C600.902 1025.05 600.413 1026.68 600.088 1028.3C599.762 1029.77 599.355 1031.31 598.867 1032.94C598.704 1033.76 598.298 1034.41 597.647 1034.9C596.995 1035.22 596.344 1035.38 595.693 1035.38C595.042 1035.38 594.229 1035.06 593.252 1034.41C592.275 1033.76 591.787 1033.11 591.787 1032.45C591.787 1026.43 592.845 1020.82 594.961 1015.61C597.077 1010.4 599.925 1005.6 603.506 1001.2C607.087 996.647 611.074 992.496 615.469 988.753C620.026 985.009 624.665 981.673 629.385 978.743C636.872 974.023 644.766 969.466 653.066 965.071C661.367 960.514 669.668 956.852 677.969 954.085H678.457C680.085 954.085 681.305 954.736 682.119 956.038C682.607 956.364 682.933 956.852 683.096 957.503C683.258 958.154 683.177 958.724 682.852 959.212C685.619 970.117 687.734 981.185 689.199 992.415C690.664 1003.48 691.966 1014.63 693.105 1025.86C693.919 1034 694.652 1042.06 695.303 1050.03C696.117 1057.84 696.279 1065.82 695.791 1073.96C701.976 1065.82 708.242 1057.84 714.59 1050.03C720.938 1042.06 726.96 1033.92 732.656 1025.62C739.004 1016.5 745.27 1007.55 751.455 998.763C757.64 989.811 763.988 980.94 770.498 972.151C772.777 969.222 775.055 966.211 777.334 963.118C779.775 960.026 782.217 957.096 784.658 954.329C785.309 953.678 786.042 953.353 786.855 953.353C787.832 953.353 788.89 953.922 790.029 955.062C791.169 956.038 791.738 957.015 791.738 957.991V958.479C786.693 976.709 781.159 994.612 775.137 1012.19C769.115 1029.77 763.988 1047.83 759.756 1066.39C757.803 1075.18 756.012 1083.97 754.385 1092.76C752.92 1101.38 752.188 1110.09 752.188 1118.88C752.188 1121.16 752.269 1123.84 752.432 1126.94C752.594 1130.03 753.083 1133.04 753.897 1135.97C754.71 1138.74 755.931 1141.1 757.559 1143.05C759.349 1145 761.872 1145.98 765.127 1145.98C768.057 1145.98 771.312 1145.17 774.893 1143.54C778.473 1142.07 781.891 1140.36 785.147 1138.41C788.564 1136.46 791.494 1134.75 793.936 1133.28C796.377 1131.66 797.842 1130.84 798.33 1130.84C799.307 1130.84 800.202 1131.25 801.016 1132.06C801.829 1132.88 802.236 1133.77 802.236 1134.75Z" stroke="#C4AA84" stroke-width="20" mask="url(#path-4-outside-1_166_3744)"/>
<path d="M604.727 927.601C607.426 927.601 609.735 928.816 611.285 930.888C612.675 932.417 613.633 934.4 613.633 936.751C613.633 938.498 613.192 940.727 611.436 942.483C605.72 948.199 598.735 952.77 590.571 956.244L590.547 956.255L590.522 956.265C582.751 959.474 575.093 961.778 567.554 963.15L567.555 963.151C560.372 964.488 553.184 965.407 545.992 965.909C538.955 966.4 531.918 966.808 524.881 967.136L524.822 967.139L524.765 967.141C517.843 967.302 510.922 967.624 504 968.106L503.942 968.11L503.885 968.112C498.409 968.367 492.987 968.985 487.616 969.965C486.633 982.133 484.559 994.1 481.396 1005.86C478.666 1016.51 475.596 1027.04 472.187 1037.46C474.63 1037.63 477.054 1037.89 479.456 1038.25H479.457C483.783 1038.86 488.104 1039.17 492.422 1039.17C496.319 1039.17 500.131 1039.02 503.858 1038.71C507.64 1038.25 511.342 1037.58 514.966 1036.68C515.171 1036.61 515.409 1036.53 515.682 1036.44C516.048 1036.32 516.476 1036.17 516.964 1036.01L517.066 1035.98L517.171 1035.95C518.251 1035.64 519.239 1035.33 520.138 1035.04L520.24 1035L520.345 1034.97C521.373 1034.68 522.179 1034.4 522.791 1034.16L522.928 1034.1L523.067 1034.06C523.582 1033.89 524.048 1033.74 524.435 1033.63C524.625 1033.57 524.847 1033.51 525.074 1033.46C525.182 1033.44 525.719 1033.31 526.357 1033.31C529.477 1033.31 531.654 1035.39 532.839 1036.77C533.459 1037.49 534.062 1038.29 534.531 1039.15C534.971 1039.96 535.508 1041.2 535.508 1042.71C535.508 1045.34 534.266 1047.7 531.956 1049.13L531.957 1049.13C525.251 1053.37 517.719 1056.42 509.408 1058.32C501.272 1060.19 493.409 1061.14 485.83 1061.14C482.867 1061.14 479.974 1060.96 477.153 1060.61C474.766 1060.31 472.288 1060.16 469.717 1060.16C467.706 1060.16 465.865 1060.28 464.187 1060.52C460.159 1071.75 455.711 1082.78 450.838 1093.59C446.658 1102.86 442.269 1112.08 437.674 1121.25C440.577 1121.46 443.459 1121.79 446.318 1122.24H446.317C451.704 1123.06 457.011 1123.95 462.239 1124.93C464.826 1125.34 467.413 1125.74 470 1126.15L477.813 1127.37H477.812C482.93 1128.14 488.044 1128.53 493.154 1128.53C495.484 1128.53 497.815 1128.45 500.146 1128.29C502.362 1128.15 504.583 1127.85 506.811 1127.41C514.203 1125.9 520.254 1123.3 525.105 1119.73L525.132 1119.71L525.16 1119.69C530.653 1115.77 536.176 1111.2 541.727 1105.96C542.925 1104.8 544.735 1103.63 547.109 1103.63C549.8 1103.63 551.886 1104.95 553.336 1106.55C554.732 1107.8 556.26 1109.79 556.26 1112.53C556.26 1114.08 555.76 1115.44 555.243 1116.48L555.068 1116.83L554.84 1117.15C547.082 1128.01 537.601 1136.3 526.397 1141.91C515.234 1147.49 502.985 1150.25 489.736 1150.25C484.508 1150.25 479.355 1149.91 474.278 1149.24C469.341 1148.74 464.406 1148.08 459.472 1147.26C457.051 1146.94 454.63 1146.62 452.21 1146.3L444.886 1145.32C440.227 1144.7 435.484 1144.39 430.654 1144.39H426.504C426.16 1144.39 425.823 1144.39 425.494 1144.4C425.288 1144.78 425.071 1145.18 424.843 1145.59C424.275 1146.78 423.437 1148 422.18 1148.94C420.766 1150 419.127 1150.49 417.471 1150.49C415.313 1150.49 413.295 1149.86 411.523 1148.67L411.343 1148.55L411.174 1148.42C410.455 1147.84 409.871 1147.19 409.408 1146.47C408.648 1146.63 407.914 1146.78 407.206 1146.93C405.09 1147.53 403.049 1148.14 401.082 1148.74C399.204 1149.52 397.257 1150.3 395.241 1151.08C393.036 1152.09 390.613 1153.09 387.977 1154.08L387.127 1154.4H385.488C382.764 1154.4 380.497 1153.17 378.866 1151.3C377.228 1149.58 376.338 1147.41 376.338 1145C376.338 1143.19 376.901 1141.26 378.366 1139.69H378.365C383.621 1133.89 389.981 1129.62 397.38 1126.9C403.622 1124.52 409.895 1122.85 416.192 1121.88C420.499 1111.87 424.671 1101.87 428.702 1091.86C431.625 1084.5 434.474 1077.1 437.253 1069.67C437.116 1069.7 436.969 1069.74 436.82 1069.78C436.712 1069.8 436.176 1069.92 435.537 1069.92C432.799 1069.92 430.53 1068.7 428.828 1067L428.692 1066.86L428.567 1066.71C427.213 1065.13 425.898 1062.95 425.898 1060.29V1059.8C425.898 1058.99 426.094 1057.55 427.232 1056.28C429.579 1052.17 432.852 1048.76 436.956 1046.09C440.392 1043.8 443.879 1041.95 447.418 1040.55C451.287 1028.74 454.658 1016.86 457.531 1004.92C459.853 995.263 462.538 985.7 465.584 976.228C463.107 977.317 460.672 978.544 458.281 979.91L458.261 979.923L458.24 979.934C453.223 982.738 448.79 986.354 444.931 990.807L444.814 990.941L444.688 991.067C443.682 992.073 442.917 993.09 442.35 994.11C441.418 995.787 440.315 997.363 439.054 998.841C437.447 1001.16 434.949 1002.05 432.607 1002.05C430.46 1002.05 428.6 1001.21 427.148 1000.24C424.831 998.693 423.457 996.262 423.457 993.392C423.457 992.906 423.493 992.263 423.667 991.568C423.779 991.121 423.99 990.488 424.405 989.831C429.062 980.626 435.063 973.053 442.458 967.243C449.869 961.386 457.986 956.892 466.793 953.778C475.434 950.563 484.482 948.367 493.924 947.181L495.686 946.938C504.477 945.748 513.063 944.92 521.441 944.454L521.469 944.452L521.497 944.451C535.958 943.808 549.67 942.445 562.636 940.365C575.354 938.165 588.287 934.152 601.439 928.292C602.599 927.751 603.762 927.601 604.727 927.601Z" fill="#C4AA84" stroke="#C4AA84" stroke-width="10"/>
<path d="M346.182 942.981C354.268 942.981 361.612 944.475 368.091 947.611L368.092 947.61C374.575 950.672 380.056 954.857 384.457 960.175C388.816 965.442 392.044 971.571 394.174 978.493C396.447 985.191 397.568 992.284 397.568 999.739C397.568 1009.93 396.295 1019.8 393.736 1029.35C391.215 1038.77 387.851 1047.85 383.647 1056.59C379.459 1065.3 374.524 1073.75 368.845 1081.94C363.411 1090 357.728 1097.74 351.795 1105.16C347.718 1110.25 342.912 1115.39 337.398 1120.57L337.397 1120.57C332.014 1125.78 326.216 1130.57 320.004 1134.93C313.683 1139.38 307.003 1142.98 299.971 1145.73C292.919 1148.71 285.769 1150.25 278.555 1150.25C272.664 1150.25 266.936 1149.27 261.395 1147.32L260.357 1146.97C255.201 1145.2 250.484 1142.69 246.232 1139.46C241.678 1136 237.854 1131.81 234.772 1126.92L234.716 1126.82L234.663 1126.73C231.687 1121.52 229.953 1115.73 229.397 1109.42L229.396 1109.42L228.907 1105.03L228.877 1104.75V1099.84C228.877 1091.17 229.811 1082.74 231.689 1074.55C233.534 1066.5 235.967 1058.61 238.986 1050.9L239.003 1050.85L239.022 1050.81C242.188 1043.14 245.772 1035.72 249.774 1028.55L249.796 1028.51L249.818 1028.48C253.925 1021.41 258.195 1014.43 262.63 1007.53L262.677 1007.46L262.725 1007.39C265.613 1003.22 268.421 998.967 271.149 994.634L271.185 994.578L271.221 994.524C274.214 990.035 277.372 985.63 280.695 981.31L280.893 981.053L281.123 980.823C282.645 979.302 284.818 977.894 287.588 977.894C289.999 977.894 292.067 978.91 293.572 980.57C295.233 982.075 296.25 984.144 296.25 986.556C296.25 987.902 295.855 989.284 295.505 990.334L295.309 990.924L294.973 991.448C289.763 999.588 284.391 1007.97 278.856 1016.6C273.589 1024.9 268.718 1033.52 264.244 1042.47C259.968 1051.18 256.404 1060.21 253.552 1069.56C250.935 1078.51 249.619 1087.86 249.619 1097.64V1102.52C249.619 1103.63 249.742 1104.95 250.026 1106.51L250.056 1106.67L250.074 1106.83C250.488 1110.42 251.498 1113.45 253.024 1116.01C254.659 1118.59 256.697 1120.83 259.163 1122.75C261.585 1124.63 264.369 1126.06 267.56 1127.04C270.832 1128.03 274.166 1128.53 277.578 1128.53C282.531 1128.53 287.551 1127.47 292.671 1125.28C298.205 1122.82 303.431 1119.82 308.352 1116.28C313.509 1112.53 318.266 1108.47 322.627 1104.11C327.249 1099.49 331.194 1095.15 334.48 1091.08C339.578 1084.71 344.524 1077.93 349.317 1070.74C354.075 1063.44 358.275 1055.91 361.919 1048.15L361.937 1048.11L361.955 1048.08C365.722 1040.39 368.7 1032.47 370.895 1024.32C373.061 1016.27 374.141 1008.16 374.141 999.983C374.141 994.895 373.468 990.174 372.154 985.795L372.147 985.773L372.142 985.753C370.855 981.321 368.896 977.666 366.323 974.688L366.244 974.596L366.17 974.5C363.755 971.415 360.654 968.967 356.772 967.165L356.739 967.15L356.708 967.135C353.13 965.412 348.696 964.456 343.252 964.456C336.671 964.456 330.528 965.576 324.783 967.785C318.874 970.12 313.024 973.006 307.233 976.449L307.076 976.542L306.914 976.623C305.652 977.254 304.24 977.64 302.725 977.64C300.563 977.64 298.456 976.995 296.672 975.567L296.237 975.221L295.891 974.786C294.582 973.15 293.818 971.169 293.818 968.978C293.818 966.207 295.227 964.034 296.748 962.513L296.898 962.361L297.063 962.224C303.667 956.662 311.27 952.094 319.831 948.498L319.848 948.491L319.864 948.485C328.693 944.85 337.476 942.981 346.182 942.981Z" fill="#C4AA84" stroke="#C4AA84" stroke-width="10"/>
<path d="M284.658 933.948C287.401 933.948 289.449 935.408 290.76 937.046C291.918 938.494 292.832 940.375 292.832 942.61C292.832 944.433 292.363 946.415 291.004 948.114C289.657 949.798 287.846 950.69 286.115 951.123L286.062 951.136L286.011 951.148C282.408 951.967 279.045 952.705 275.923 953.362L275.798 953.389L275.673 953.408C273.051 953.822 270.106 954.668 266.82 956.009C259.328 959.317 252.738 963.963 247.024 969.977L247.025 969.978C241.249 976.066 236.003 982.874 231.291 990.411C226.716 997.989 222.69 1005.88 219.214 1014.09C215.815 1022.51 212.66 1030.6 209.75 1038.36C206.86 1046.07 203.961 1054.6 201.055 1063.97L201.047 1063.99C198.096 1073.33 194.9 1082.76 191.459 1092.26C188.144 1101.7 184.33 1110.82 180.017 1119.62C175.783 1128.58 170.75 1136.44 164.892 1143.16L164.779 1143.29L164.658 1143.41C163.362 1144.71 161.784 1145.42 160.225 1145.74C159.154 1145.99 158.059 1146.1 156.973 1146.1C155.499 1146.1 153.861 1145.76 152.368 1144.77C150.855 1143.76 149.904 1142.35 149.361 1140.9V1140.9C146.8 1134.39 144.853 1127.34 143.505 1119.75L143.494 1119.69L143.484 1119.63C142.339 1112.1 141.356 1104.97 140.535 1098.25L140.533 1098.23L140.531 1098.21C138.083 1076.99 136.042 1055.85 134.409 1034.79L134.408 1034.77L134.406 1034.75C133.372 1019.81 131.719 1004.94 129.455 990.161C126.222 998.775 123.137 1007.39 120.201 1016C115.296 1030.39 110.065 1044.77 104.508 1059.16L104.507 1059.16C100.549 1069.39 96.1767 1079.37 91.3916 1089.1C86.6816 1099.02 80.8865 1108.42 74.0137 1117.3L74.0049 1117.31C70.3942 1121.95 66.3565 1126.25 61.8965 1130.19C57.4058 1134.17 52.5646 1137.62 47.377 1140.56C42.1468 1143.53 36.6465 1145.8 30.8848 1147.37C25.0665 1149.13 19.0763 1150 12.9297 1150C10.1913 1150 8.13144 1148.54 6.88965 1146.67C5.82009 1145.25 5 1143.46 5 1141.34C5 1139.63 5.39391 1137.65 6.74023 1135.93C8.06818 1134.24 9.86821 1133.39 11.5859 1133.04C14.8664 1132.23 18.0815 1131.57 21.2305 1131.06C23.8008 1130.48 26.5677 1129.61 29.5371 1128.43C36.5542 1125.28 42.6541 1120.96 47.8711 1115.44L47.8955 1115.42L47.9199 1115.39C53.5225 1109.64 58.511 1103.25 62.8838 1096.22C67.2923 1089.13 71.0703 1081.74 74.2188 1074.02L74.2344 1073.98L74.252 1073.94C77.6442 1066.03 80.7087 1058.44 83.4473 1051.2C85.8566 1044.77 88.1056 1038.26 90.1943 1031.68L90.2109 1031.62L90.2295 1031.57C92.5004 1024.92 94.6898 1018.35 96.7979 1011.87L96.8086 1011.83L96.8213 1011.8C99.1157 1005.08 101.492 998.437 103.951 991.88L103.99 991.778C104.713 989.97 105.462 988.175 106.234 986.392C106.049 986.482 105.865 986.575 105.68 986.664L105.616 986.694L105.551 986.724C101.026 988.752 96.5701 991.097 92.1846 993.76L92.1738 993.766L92.1621 993.772C85.9031 997.528 79.6103 1002 73.2871 1007.22L73.2881 1007.22C67.4939 1012.12 63.1611 1017.87 60.2236 1024.47L60.2061 1024.51C59.5491 1025.96 59.1104 1027.36 58.8643 1028.71L58.8486 1028.8C58.4982 1030.55 58.0638 1032.37 57.5488 1034.26L57.5322 1034.32L57.5137 1034.38C57.021 1036.02 56.0618 1037.66 54.4102 1038.84C52.783 1040 50.953 1040.38 49.3066 1040.38C48.1078 1040.38 47.0764 1040.02 46.4727 1039.78C45.774 1039.5 45.0668 1039.14 44.3848 1038.75L44.2354 1038.66L44.0918 1038.57C42.8132 1037.72 40.4004 1035.76 40.4004 1032.45C40.4004 1025.83 41.5659 1019.57 43.9414 1013.73C46.246 1008.05 49.351 1002.82 53.2432 998.046C57.0382 993.226 61.3433 988.84 66.1523 984.89C70.8696 981.015 75.6871 977.548 80.6055 974.495L80.6162 974.488C88.3366 969.725 96.2205 965.126 104.267 960.692L104.285 960.682L104.304 960.672C112.671 956.153 121.22 952.381 129.946 949.36L130.741 949.085H132.07C134.725 949.085 137.064 950.118 138.897 951.894C139.909 952.796 140.825 953.968 141.356 955.455C141.728 956.496 141.859 957.548 141.803 958.569C146.436 974.233 149.97 989.983 152.394 1005.82C154.537 1019.82 156.493 1033.95 158.261 1048.2L159.008 1054.32L159.009 1054.33L160.962 1070.93C161.613 1076.46 162.263 1081.99 162.914 1087.53L163.156 1089.59C163.52 1092.74 163.855 1095.9 164.165 1099.07C167.103 1091.15 169.878 1083.24 172.487 1075.32L172.493 1075.31L172.498 1075.29C177.566 1060.25 182.961 1045.29 188.683 1030.42L188.69 1030.4L188.697 1030.38C192.974 1019.52 197.581 1008.99 202.521 998.782C207.544 988.238 213.571 978.278 220.6 968.907L220.634 968.862L220.668 968.818C224.435 964.024 228.627 959.575 233.24 955.475C238.036 951.194 243.108 947.495 248.456 944.39C254.013 941.095 259.847 938.57 265.95 936.826C272.082 934.912 278.324 933.948 284.658 933.948Z" fill="#C4AA84" stroke="#C4AA84" stroke-width="10"/>
<mask id="path-8-outside-2_166_3744" maskUnits="userSpaceOnUse" x="1482.63" y="940.911" width="239" height="356" fill="black">
<rect fill="white" x="1482.63" y="940.911" width="239" height="356"/>
<path d="M1711.38 1001.45C1711.38 1002.42 1711.13 1003.16 1710.64 1003.65C1704.78 1012.11 1699.25 1020.49 1694.04 1028.79C1689 1036.93 1684.19 1045.23 1679.64 1053.69C1675.08 1062.16 1670.85 1070.87 1666.94 1079.82C1663.2 1088.61 1659.7 1097.88 1656.44 1107.65C1653.19 1117.09 1650.42 1126.69 1648.14 1136.46C1646.03 1146.06 1643.83 1155.75 1641.55 1165.51C1639.43 1175.28 1637.16 1184.96 1634.71 1194.56C1632.27 1204.33 1629.26 1213.93 1625.68 1223.37C1622.43 1231.84 1618.68 1239.81 1614.45 1247.3C1610.22 1254.95 1605.17 1261.62 1599.31 1267.32C1593.62 1273.18 1586.94 1277.73 1579.29 1280.99C1571.65 1284.41 1562.86 1286.12 1552.93 1286.12C1544.46 1286.12 1536.57 1284.73 1529.25 1281.97C1521.92 1279.36 1515.57 1275.54 1510.2 1270.49C1504.67 1265.61 1500.36 1259.67 1497.26 1252.67C1494.17 1245.67 1492.63 1237.86 1492.63 1229.23C1492.63 1220.44 1494.01 1211.57 1496.78 1202.62C1499.38 1193.67 1503.04 1185.04 1507.76 1176.74C1512.48 1168.6 1518.1 1161.12 1524.61 1154.28C1531.12 1147.61 1538.2 1142.15 1545.85 1137.92C1546.5 1137.6 1547.07 1137.43 1547.56 1137.43C1548.53 1137.43 1549.35 1137.76 1550 1138.41C1550.81 1139.22 1551.22 1140.12 1551.22 1141.1C1551.22 1142.4 1550.57 1143.46 1549.27 1144.27C1547.64 1145.57 1546.01 1146.71 1544.38 1147.69C1542.76 1148.83 1541.13 1150.05 1539.5 1151.35C1532.18 1157.37 1525.91 1164.37 1520.7 1172.35C1515.66 1180.32 1511.51 1188.7 1508.25 1197.49C1506.62 1202.21 1505.32 1207.01 1504.34 1211.9C1503.37 1216.94 1502.88 1222.07 1502.88 1227.28C1502.88 1234.77 1504.1 1241.44 1506.54 1247.3C1508.98 1253.16 1512.4 1258.04 1516.79 1261.95C1521.19 1266.02 1526.4 1269.11 1532.42 1271.22C1538.6 1273.34 1545.36 1274.4 1552.68 1274.4C1556.43 1274.4 1560.09 1274.07 1563.67 1273.42C1567.41 1272.77 1571.08 1271.63 1574.66 1270C1580.35 1267.56 1585.48 1263.98 1590.04 1259.26C1594.76 1254.54 1598.91 1249.09 1602.49 1242.9C1606.23 1236.72 1609.49 1230.05 1612.25 1222.88C1615.18 1215.89 1617.71 1208.81 1619.82 1201.64C1621.94 1194.48 1623.73 1187.48 1625.19 1180.65C1626.82 1173.81 1628.2 1167.63 1629.34 1162.09C1631.3 1153.3 1633.25 1144.51 1635.2 1135.73C1637.16 1126.77 1639.35 1117.9 1641.79 1109.11C1639.03 1112.69 1635.69 1116.6 1631.79 1120.83C1628.04 1124.9 1623.89 1128.73 1619.33 1132.31C1614.94 1135.73 1610.3 1138.57 1605.42 1140.85C1600.54 1143.29 1595.65 1144.51 1590.77 1144.51C1585.89 1144.51 1581.9 1143.46 1578.81 1141.34C1575.88 1139.39 1573.6 1136.86 1571.97 1133.77C1570.51 1130.52 1569.45 1126.94 1568.8 1123.03C1568.31 1119.12 1568.06 1115.22 1568.06 1111.31C1568.06 1106.1 1568.39 1101.06 1569.04 1096.17C1569.69 1091.13 1570.59 1086.17 1571.73 1081.28C1575.96 1062.08 1581.17 1043.28 1587.35 1024.89C1593.54 1006.49 1601.27 988.59 1610.54 971.175C1605.82 973.942 1601.02 976.465 1596.14 978.743C1591.42 981.022 1586.7 983.545 1581.98 986.312C1575.63 990.218 1569.29 994.775 1562.94 999.983C1556.75 1005.19 1552.2 1011.38 1549.27 1018.54C1548.61 1020.17 1548.13 1021.71 1547.8 1023.18C1547.48 1024.64 1547.15 1026.19 1546.82 1027.82C1546.34 1029.28 1545.2 1030.01 1543.41 1030.01C1542.59 1030.01 1541.7 1029.69 1540.72 1029.04C1539.91 1028.39 1539.5 1027.57 1539.5 1026.59C1539.5 1020.9 1540.48 1015.61 1542.43 1010.73C1544.55 1005.68 1547.31 1001.04 1550.73 996.81C1554.15 992.578 1557.97 988.753 1562.21 985.335C1566.6 981.754 1570.99 978.58 1575.39 975.813C1582.71 971.256 1590.12 967.024 1597.61 963.118C1605.26 959.049 1613.15 955.55 1621.29 952.62C1621.45 952.132 1621.78 951.725 1622.26 951.399C1622.91 951.074 1623.48 950.911 1623.97 950.911C1624.95 950.911 1625.84 951.318 1626.66 952.132C1627.63 952.783 1628.12 953.678 1628.12 954.817C1628.12 955.306 1628.04 955.631 1627.88 955.794C1625.44 962.467 1622.51 970.035 1619.09 978.499C1615.83 986.963 1612.42 995.914 1608.84 1005.35C1605.26 1014.63 1601.76 1024.23 1598.34 1034.16C1594.92 1043.93 1591.83 1053.53 1589.06 1062.97C1586.46 1072.25 1584.26 1081.2 1582.47 1089.83C1580.84 1098.29 1580.03 1105.94 1580.03 1112.78C1580.03 1115.06 1580.03 1117.42 1580.03 1119.86C1580.19 1122.14 1580.6 1124.25 1581.25 1126.2C1582.06 1128.16 1583.2 1129.78 1584.67 1131.09C1586.29 1132.39 1588.57 1133.04 1591.5 1133.04C1593.62 1133.04 1595.65 1132.71 1597.61 1132.06C1599.56 1131.41 1601.43 1130.68 1603.22 1129.87C1609.08 1126.94 1614.45 1123.36 1619.33 1119.12C1624.22 1114.73 1628.77 1110.01 1633.01 1104.96C1637.4 1099.92 1641.47 1094.71 1645.21 1089.34C1649.12 1083.81 1652.78 1078.43 1656.2 1073.23C1656.52 1072.9 1656.69 1072.66 1656.69 1072.49C1659.62 1066.31 1662.87 1059.96 1666.45 1053.45C1670.03 1046.78 1673.86 1040.27 1677.93 1033.92C1682 1027.41 1686.31 1021.22 1690.87 1015.36C1695.42 1009.34 1700.06 1003.89 1704.78 999.007C1705.6 998.193 1706.57 997.786 1707.71 997.786C1708.69 997.786 1709.5 998.112 1710.15 998.763C1710.97 999.414 1711.38 1000.31 1711.38 1001.45Z"/>
</mask>
<path d="M1711.38 1001.45C1711.38 1002.42 1711.13 1003.16 1710.64 1003.65C1704.78 1012.11 1699.25 1020.49 1694.04 1028.79C1689 1036.93 1684.19 1045.23 1679.64 1053.69C1675.08 1062.16 1670.85 1070.87 1666.94 1079.82C1663.2 1088.61 1659.7 1097.88 1656.44 1107.65C1653.19 1117.09 1650.42 1126.69 1648.14 1136.46C1646.03 1146.06 1643.83 1155.75 1641.55 1165.51C1639.43 1175.28 1637.16 1184.96 1634.71 1194.56C1632.27 1204.33 1629.26 1213.93 1625.68 1223.37C1622.43 1231.84 1618.68 1239.81 1614.45 1247.3C1610.22 1254.95 1605.17 1261.62 1599.31 1267.32C1593.62 1273.18 1586.94 1277.73 1579.29 1280.99C1571.65 1284.41 1562.86 1286.12 1552.93 1286.12C1544.46 1286.12 1536.57 1284.73 1529.25 1281.97C1521.92 1279.36 1515.57 1275.54 1510.2 1270.49C1504.67 1265.61 1500.36 1259.67 1497.26 1252.67C1494.17 1245.67 1492.63 1237.86 1492.63 1229.23C1492.63 1220.44 1494.01 1211.57 1496.78 1202.62C1499.38 1193.67 1503.04 1185.04 1507.76 1176.74C1512.48 1168.6 1518.1 1161.12 1524.61 1154.28C1531.12 1147.61 1538.2 1142.15 1545.85 1137.92C1546.5 1137.6 1547.07 1137.43 1547.56 1137.43C1548.53 1137.43 1549.35 1137.76 1550 1138.41C1550.81 1139.22 1551.22 1140.12 1551.22 1141.1C1551.22 1142.4 1550.57 1143.46 1549.27 1144.27C1547.64 1145.57 1546.01 1146.71 1544.38 1147.69C1542.76 1148.83 1541.13 1150.05 1539.5 1151.35C1532.18 1157.37 1525.91 1164.37 1520.7 1172.35C1515.66 1180.32 1511.51 1188.7 1508.25 1197.49C1506.62 1202.21 1505.32 1207.01 1504.34 1211.9C1503.37 1216.94 1502.88 1222.07 1502.88 1227.28C1502.88 1234.77 1504.1 1241.44 1506.54 1247.3C1508.98 1253.16 1512.4 1258.04 1516.79 1261.95C1521.19 1266.02 1526.4 1269.11 1532.42 1271.22C1538.6 1273.34 1545.36 1274.4 1552.68 1274.4C1556.43 1274.4 1560.09 1274.07 1563.67 1273.42C1567.41 1272.77 1571.08 1271.63 1574.66 1270C1580.35 1267.56 1585.48 1263.98 1590.04 1259.26C1594.76 1254.54 1598.91 1249.09 1602.49 1242.9C1606.23 1236.72 1609.49 1230.05 1612.25 1222.88C1615.18 1215.89 1617.71 1208.81 1619.82 1201.64C1621.94 1194.48 1623.73 1187.48 1625.19 1180.65C1626.82 1173.81 1628.2 1167.63 1629.34 1162.09C1631.3 1153.3 1633.25 1144.51 1635.2 1135.73C1637.16 1126.77 1639.35 1117.9 1641.79 1109.11C1639.03 1112.69 1635.69 1116.6 1631.79 1120.83C1628.04 1124.9 1623.89 1128.73 1619.33 1132.31C1614.94 1135.73 1610.3 1138.57 1605.42 1140.85C1600.54 1143.29 1595.65 1144.51 1590.77 1144.51C1585.89 1144.51 1581.9 1143.46 1578.81 1141.34C1575.88 1139.39 1573.6 1136.86 1571.97 1133.77C1570.51 1130.52 1569.45 1126.94 1568.8 1123.03C1568.31 1119.12 1568.06 1115.22 1568.06 1111.31C1568.06 1106.1 1568.39 1101.06 1569.04 1096.17C1569.69 1091.13 1570.59 1086.17 1571.73 1081.28C1575.96 1062.08 1581.17 1043.28 1587.35 1024.89C1593.54 1006.49 1601.27 988.59 1610.54 971.175C1605.82 973.942 1601.02 976.465 1596.14 978.743C1591.42 981.022 1586.7 983.545 1581.98 986.312C1575.63 990.218 1569.29 994.775 1562.94 999.983C1556.75 1005.19 1552.2 1011.38 1549.27 1018.54C1548.61 1020.17 1548.13 1021.71 1547.8 1023.18C1547.48 1024.64 1547.15 1026.19 1546.82 1027.82C1546.34 1029.28 1545.2 1030.01 1543.41 1030.01C1542.59 1030.01 1541.7 1029.69 1540.72 1029.04C1539.91 1028.39 1539.5 1027.57 1539.5 1026.59C1539.5 1020.9 1540.48 1015.61 1542.43 1010.73C1544.55 1005.68 1547.31 1001.04 1550.73 996.81C1554.15 992.578 1557.97 988.753 1562.21 985.335C1566.6 981.754 1570.99 978.58 1575.39 975.813C1582.71 971.256 1590.12 967.024 1597.61 963.118C1605.26 959.049 1613.15 955.55 1621.29 952.62C1621.45 952.132 1621.78 951.725 1622.26 951.399C1622.91 951.074 1623.48 950.911 1623.97 950.911C1624.95 950.911 1625.84 951.318 1626.66 952.132C1627.63 952.783 1628.12 953.678 1628.12 954.817C1628.12 955.306 1628.04 955.631 1627.88 955.794C1625.44 962.467 1622.51 970.035 1619.09 978.499C1615.83 986.963 1612.42 995.914 1608.84 1005.35C1605.26 1014.63 1601.76 1024.23 1598.34 1034.16C1594.92 1043.93 1591.83 1053.53 1589.06 1062.97C1586.46 1072.25 1584.26 1081.2 1582.47 1089.83C1580.84 1098.29 1580.03 1105.94 1580.03 1112.78C1580.03 1115.06 1580.03 1117.42 1580.03 1119.86C1580.19 1122.14 1580.6 1124.25 1581.25 1126.2C1582.06 1128.16 1583.2 1129.78 1584.67 1131.09C1586.29 1132.39 1588.57 1133.04 1591.5 1133.04C1593.62 1133.04 1595.65 1132.71 1597.61 1132.06C1599.56 1131.41 1601.43 1130.68 1603.22 1129.87C1609.08 1126.94 1614.45 1123.36 1619.33 1119.12C1624.22 1114.73 1628.77 1110.01 1633.01 1104.96C1637.4 1099.92 1641.47 1094.71 1645.21 1089.34C1649.12 1083.81 1652.78 1078.43 1656.2 1073.23C1656.52 1072.9 1656.69 1072.66 1656.69 1072.49C1659.62 1066.31 1662.87 1059.96 1666.45 1053.45C1670.03 1046.78 1673.86 1040.27 1677.93 1033.92C1682 1027.41 1686.31 1021.22 1690.87 1015.36C1695.42 1009.34 1700.06 1003.89 1704.78 999.007C1705.6 998.193 1706.57 997.786 1707.71 997.786C1708.69 997.786 1709.5 998.112 1710.15 998.763C1710.97 999.414 1711.38 1000.31 1711.38 1001.45Z" fill="#C4AA84"/>
<path d="M1711.38 1001.45C1711.38 1002.42 1711.13 1003.16 1710.64 1003.65C1704.78 1012.11 1699.25 1020.49 1694.04 1028.79C1689 1036.93 1684.19 1045.23 1679.64 1053.69C1675.08 1062.16 1670.85 1070.87 1666.94 1079.82C1663.2 1088.61 1659.7 1097.88 1656.44 1107.65C1653.19 1117.09 1650.42 1126.69 1648.14 1136.46C1646.03 1146.06 1643.83 1155.75 1641.55 1165.51C1639.43 1175.28 1637.16 1184.96 1634.71 1194.56C1632.27 1204.33 1629.26 1213.93 1625.68 1223.37C1622.43 1231.84 1618.68 1239.81 1614.45 1247.3C1610.22 1254.95 1605.17 1261.62 1599.31 1267.32C1593.62 1273.18 1586.94 1277.73 1579.29 1280.99C1571.65 1284.41 1562.86 1286.12 1552.93 1286.12C1544.46 1286.12 1536.57 1284.73 1529.25 1281.97C1521.92 1279.36 1515.57 1275.54 1510.2 1270.49C1504.67 1265.61 1500.36 1259.67 1497.26 1252.67C1494.17 1245.67 1492.63 1237.86 1492.63 1229.23C1492.63 1220.44 1494.01 1211.57 1496.78 1202.62C1499.38 1193.67 1503.04 1185.04 1507.76 1176.74C1512.48 1168.6 1518.1 1161.12 1524.61 1154.28C1531.12 1147.61 1538.2 1142.15 1545.85 1137.92C1546.5 1137.6 1547.07 1137.43 1547.56 1137.43C1548.53 1137.43 1549.35 1137.76 1550 1138.41C1550.81 1139.22 1551.22 1140.12 1551.22 1141.1C1551.22 1142.4 1550.57 1143.46 1549.27 1144.27C1547.64 1145.57 1546.01 1146.71 1544.38 1147.69C1542.76 1148.83 1541.13 1150.05 1539.5 1151.35C1532.18 1157.37 1525.91 1164.37 1520.7 1172.35C1515.66 1180.32 1511.51 1188.7 1508.25 1197.49C1506.62 1202.21 1505.32 1207.01 1504.34 1211.9C1503.37 1216.94 1502.88 1222.07 1502.88 1227.28C1502.88 1234.77 1504.1 1241.44 1506.54 1247.3C1508.98 1253.16 1512.4 1258.04 1516.79 1261.95C1521.19 1266.02 1526.4 1269.11 1532.42 1271.22C1538.6 1273.34 1545.36 1274.4 1552.68 1274.4C1556.43 1274.4 1560.09 1274.07 1563.67 1273.42C1567.41 1272.77 1571.08 1271.63 1574.66 1270C1580.35 1267.56 1585.48 1263.98 1590.04 1259.26C1594.76 1254.54 1598.91 1249.09 1602.49 1242.9C1606.23 1236.72 1609.49 1230.05 1612.25 1222.88C1615.18 1215.89 1617.71 1208.81 1619.82 1201.64C1621.94 1194.48 1623.73 1187.48 1625.19 1180.65C1626.82 1173.81 1628.2 1167.63 1629.34 1162.09C1631.3 1153.3 1633.25 1144.51 1635.2 1135.73C1637.16 1126.77 1639.35 1117.9 1641.79 1109.11C1639.03 1112.69 1635.69 1116.6 1631.79 1120.83C1628.04 1124.9 1623.89 1128.73 1619.33 1132.31C1614.94 1135.73 1610.3 1138.57 1605.42 1140.85C1600.54 1143.29 1595.65 1144.51 1590.77 1144.51C1585.89 1144.51 1581.9 1143.46 1578.81 1141.34C1575.88 1139.39 1573.6 1136.86 1571.97 1133.77C1570.51 1130.52 1569.45 1126.94 1568.8 1123.03C1568.31 1119.12 1568.06 1115.22 1568.06 1111.31C1568.06 1106.1 1568.39 1101.06 1569.04 1096.17C1569.69 1091.13 1570.59 1086.17 1571.73 1081.28C1575.96 1062.08 1581.17 1043.28 1587.35 1024.89C1593.54 1006.49 1601.27 988.59 1610.54 971.175C1605.82 973.942 1601.02 976.465 1596.14 978.743C1591.42 981.022 1586.7 983.545 1581.98 986.312C1575.63 990.218 1569.29 994.775 1562.94 999.983C1556.75 1005.19 1552.2 1011.38 1549.27 1018.54C1548.61 1020.17 1548.13 1021.71 1547.8 1023.18C1547.48 1024.64 1547.15 1026.19 1546.82 1027.82C1546.34 1029.28 1545.2 1030.01 1543.41 1030.01C1542.59 1030.01 1541.7 1029.69 1540.72 1029.04C1539.91 1028.39 1539.5 1027.57 1539.5 1026.59C1539.5 1020.9 1540.48 1015.61 1542.43 1010.73C1544.55 1005.68 1547.31 1001.04 1550.73 996.81C1554.15 992.578 1557.97 988.753 1562.21 985.335C1566.6 981.754 1570.99 978.58 1575.39 975.813C1582.71 971.256 1590.12 967.024 1597.61 963.118C1605.26 959.049 1613.15 955.55 1621.29 952.62C1621.45 952.132 1621.78 951.725 1622.26 951.399C1622.91 951.074 1623.48 950.911 1623.97 950.911C1624.95 950.911 1625.84 951.318 1626.66 952.132C1627.63 952.783 1628.12 953.678 1628.12 954.817C1628.12 955.306 1628.04 955.631 1627.88 955.794C1625.44 962.467 1622.51 970.035 1619.09 978.499C1615.83 986.963 1612.42 995.914 1608.84 1005.35C1605.26 1014.63 1601.76 1024.23 1598.34 1034.16C1594.92 1043.93 1591.83 1053.53 1589.06 1062.97C1586.46 1072.25 1584.26 1081.2 1582.47 1089.83C1580.84 1098.29 1580.03 1105.94 1580.03 1112.78C1580.03 1115.06 1580.03 1117.42 1580.03 1119.86C1580.19 1122.14 1580.6 1124.25 1581.25 1126.2C1582.06 1128.16 1583.2 1129.78 1584.67 1131.09C1586.29 1132.39 1588.57 1133.04 1591.5 1133.04C1593.62 1133.04 1595.65 1132.71 1597.61 1132.06C1599.56 1131.41 1601.43 1130.68 1603.22 1129.87C1609.08 1126.94 1614.45 1123.36 1619.33 1119.12C1624.22 1114.73 1628.77 1110.01 1633.01 1104.96C1637.4 1099.92 1641.47 1094.71 1645.21 1089.34C1649.12 1083.81 1652.78 1078.43 1656.2 1073.23C1656.52 1072.9 1656.69 1072.66 1656.69 1072.49C1659.62 1066.31 1662.87 1059.96 1666.45 1053.45C1670.03 1046.78 1673.86 1040.27 1677.93 1033.92C1682 1027.41 1686.31 1021.22 1690.87 1015.36C1695.42 1009.34 1700.06 1003.89 1704.78 999.007C1705.6 998.193 1706.57 997.786 1707.71 997.786C1708.69 997.786 1709.5 998.112 1710.15 998.763C1710.97 999.414 1711.38 1000.31 1711.38 1001.45Z" stroke="#C4AA84" stroke-width="20" mask="url(#path-8-outside-2_166_3744)"/>
<mask id="path-9-outside-3_166_3744" maskUnits="userSpaceOnUse" x="1304.16" y="922.845" width="250" height="270" fill="black">
<rect fill="white" x="1304.16" y="922.845" width="250" height="270"/>
<path d="M1543.89 1014.63C1543.89 1015.28 1543.65 1015.85 1543.16 1016.34C1539.74 1020.08 1535.84 1023.34 1531.44 1026.11C1527.05 1028.71 1522.33 1030.91 1517.28 1032.7C1512.24 1034.33 1507.11 1035.63 1501.9 1036.6C1496.69 1037.42 1491.65 1037.91 1486.77 1038.07C1484 1054.02 1481.15 1070.13 1478.22 1086.41C1475.29 1102.69 1473.83 1118.96 1473.83 1135.24C1473.83 1139.96 1474.07 1144.6 1474.56 1149.15C1475.21 1153.87 1476.43 1158.02 1478.22 1161.6C1480.17 1165.35 1482.86 1168.28 1486.28 1170.39C1489.86 1172.67 1494.58 1173.81 1500.44 1173.81C1501.41 1173.81 1502.31 1173.73 1503.12 1173.57C1504.1 1173.4 1505.08 1173.32 1506.05 1173.32C1507.19 1173.32 1508.09 1173.73 1508.74 1174.54C1509.39 1175.36 1509.71 1176.33 1509.71 1177.47C1509.71 1178.61 1509.06 1179.51 1507.76 1180.16C1506.62 1180.97 1505.24 1181.54 1503.61 1181.87C1502.15 1182.19 1500.6 1182.44 1498.97 1182.6C1497.35 1182.76 1496.12 1182.84 1495.31 1182.84C1488.31 1182.84 1482.53 1181.38 1477.98 1178.45C1473.58 1175.68 1470.08 1171.94 1467.48 1167.22C1464.87 1162.66 1463 1157.45 1461.86 1151.59C1460.89 1145.9 1460.4 1140.2 1460.4 1134.5C1460.4 1126.69 1460.81 1118.72 1461.62 1110.58C1462.6 1102.44 1463.74 1094.3 1465.04 1086.17C1466.5 1077.86 1468.05 1069.64 1469.68 1061.51C1471.3 1053.37 1472.85 1045.47 1474.31 1037.83C1470.9 1037.66 1467.48 1037.5 1464.06 1037.34C1460.64 1037.17 1457.22 1037.09 1453.81 1037.09C1452.02 1037.09 1450.31 1037.09 1448.68 1037.09C1447.05 1037.09 1445.34 1037.17 1443.55 1037.34C1440.79 1041.73 1437.86 1046.04 1434.76 1050.28C1431.83 1054.51 1428.82 1058.74 1425.73 1062.97C1420.03 1070.78 1413.93 1078.6 1407.42 1086.41C1400.91 1094.06 1393.91 1101.22 1386.42 1107.89C1379.1 1114.57 1371.21 1120.51 1362.74 1125.72C1354.28 1130.92 1345.16 1134.83 1335.4 1137.43C1332.63 1138.25 1329.7 1138.9 1326.61 1139.39C1323.35 1140.04 1320.26 1140.36 1317.33 1140.36C1316.36 1140.36 1315.62 1139.96 1315.13 1139.14C1314.48 1138.33 1314.16 1137.52 1314.16 1136.7C1314.16 1134.75 1314.97 1133.61 1316.6 1133.28C1320.18 1132.47 1323.6 1131.74 1326.85 1131.09C1330.11 1130.27 1333.45 1129.22 1336.86 1127.91C1345.33 1124.66 1353.22 1120.43 1360.54 1115.22C1367.87 1109.85 1374.71 1103.99 1381.05 1097.64C1387.56 1091.13 1393.67 1084.29 1399.36 1077.13C1405.06 1069.97 1410.51 1062.81 1415.72 1055.65C1417.67 1052.88 1419.55 1050.19 1421.34 1047.59C1423.13 1044.99 1424.92 1042.3 1426.71 1039.53C1420.36 1040.84 1414.83 1042.71 1410.11 1045.15C1405.39 1047.43 1400.42 1050.44 1395.21 1054.18C1394.89 1054.51 1394.32 1054.67 1393.5 1054.67C1392.69 1054.67 1391.79 1054.26 1390.82 1053.45C1390 1052.47 1389.6 1051.58 1389.6 1050.76C1389.6 1049.95 1389.84 1049.3 1390.33 1048.81C1395.86 1042.63 1402.62 1037.83 1410.59 1034.41C1418.73 1030.83 1426.79 1028.39 1434.76 1027.08C1438.02 1022.04 1441.44 1016.75 1445.02 1011.21C1448.6 1005.52 1452.26 999.902 1456 994.368C1459.91 988.672 1463.9 983.3 1467.97 978.255C1472.04 973.047 1476.27 968.408 1480.66 964.339C1481.64 963.688 1482.37 963.362 1482.86 963.362H1483.35C1483.18 960.921 1482.78 958.479 1482.13 956.038C1481.64 953.434 1480.74 951.155 1479.44 949.202C1478.3 947.086 1476.76 945.377 1474.8 944.075C1472.85 942.773 1470.41 942.122 1467.48 942.122C1463.57 942.122 1459.5 942.854 1455.27 944.319C1451.2 945.784 1447.3 947.412 1443.55 949.202C1439.97 950.83 1436.88 952.376 1434.28 953.841C1431.67 955.143 1430.04 955.794 1429.39 955.794C1428.42 955.794 1427.52 955.387 1426.71 954.573C1426.06 953.597 1425.73 952.701 1425.73 951.888C1425.73 950.748 1426.3 949.772 1427.44 948.958C1428.25 948.307 1429.23 947.737 1430.37 947.249C1431.51 946.598 1432.57 945.947 1433.54 945.296C1438.91 942.203 1444.61 939.355 1450.63 936.751C1456.82 934.147 1463.17 932.845 1469.68 932.845C1470.98 932.845 1472.36 933.089 1473.83 933.577C1475.29 933.903 1476.59 934.31 1477.73 934.798C1480.99 936.263 1483.67 938.379 1485.79 941.146C1488.07 943.912 1489.78 947.005 1490.92 950.423C1492.22 953.678 1493.11 957.177 1493.6 960.921C1494.09 964.502 1494.33 967.92 1494.33 971.175C1494.33 980.289 1493.85 989.323 1492.87 998.274C1491.89 1007.06 1490.67 1015.93 1489.21 1024.89C1496.04 1024.07 1502.72 1022.85 1509.23 1021.22C1515.9 1019.43 1522.41 1017.24 1528.76 1014.63C1530.55 1013.98 1532.26 1013.33 1533.88 1012.68C1535.51 1011.86 1537.22 1011.05 1539.01 1010.24H1539.74C1540.72 1010.24 1541.62 1010.73 1542.43 1011.7C1543.41 1012.52 1543.89 1013.49 1543.89 1014.63ZM1483.35 974.593C1481.23 978.174 1478.55 982.649 1475.29 988.021C1472.04 993.229 1468.78 998.437 1465.53 1003.65C1462.43 1008.69 1459.58 1013.25 1456.98 1017.32C1454.38 1021.39 1452.67 1023.99 1451.85 1025.13C1453.16 1025.13 1454.46 1025.13 1455.76 1025.13C1457.22 1024.97 1458.69 1024.89 1460.15 1024.89C1462.6 1024.89 1465.04 1024.97 1467.48 1025.13C1470.08 1025.29 1472.61 1025.37 1475.05 1025.37H1476.76C1478.38 1016.91 1479.77 1008.53 1480.91 1000.23C1482.21 991.764 1483.02 983.219 1483.35 974.593Z"/>
</mask>
<path d="M1543.89 1014.63C1543.89 1015.28 1543.65 1015.85 1543.16 1016.34C1539.74 1020.08 1535.84 1023.34 1531.44 1026.11C1527.05 1028.71 1522.33 1030.91 1517.28 1032.7C1512.24 1034.33 1507.11 1035.63 1501.9 1036.6C1496.69 1037.42 1491.65 1037.91 1486.77 1038.07C1484 1054.02 1481.15 1070.13 1478.22 1086.41C1475.29 1102.69 1473.83 1118.96 1473.83 1135.24C1473.83 1139.96 1474.07 1144.6 1474.56 1149.15C1475.21 1153.87 1476.43 1158.02 1478.22 1161.6C1480.17 1165.35 1482.86 1168.28 1486.28 1170.39C1489.86 1172.67 1494.58 1173.81 1500.44 1173.81C1501.41 1173.81 1502.31 1173.73 1503.12 1173.57C1504.1 1173.4 1505.08 1173.32 1506.05 1173.32C1507.19 1173.32 1508.09 1173.73 1508.74 1174.54C1509.39 1175.36 1509.71 1176.33 1509.71 1177.47C1509.71 1178.61 1509.06 1179.51 1507.76 1180.16C1506.62 1180.97 1505.24 1181.54 1503.61 1181.87C1502.15 1182.19 1500.6 1182.44 1498.97 1182.6C1497.35 1182.76 1496.12 1182.84 1495.31 1182.84C1488.31 1182.84 1482.53 1181.38 1477.98 1178.45C1473.58 1175.68 1470.08 1171.94 1467.48 1167.22C1464.87 1162.66 1463 1157.45 1461.86 1151.59C1460.89 1145.9 1460.4 1140.2 1460.4 1134.5C1460.4 1126.69 1460.81 1118.72 1461.62 1110.58C1462.6 1102.44 1463.74 1094.3 1465.04 1086.17C1466.5 1077.86 1468.05 1069.64 1469.68 1061.51C1471.3 1053.37 1472.85 1045.47 1474.31 1037.83C1470.9 1037.66 1467.48 1037.5 1464.06 1037.34C1460.64 1037.17 1457.22 1037.09 1453.81 1037.09C1452.02 1037.09 1450.31 1037.09 1448.68 1037.09C1447.05 1037.09 1445.34 1037.17 1443.55 1037.34C1440.79 1041.73 1437.86 1046.04 1434.76 1050.28C1431.83 1054.51 1428.82 1058.74 1425.73 1062.97C1420.03 1070.78 1413.93 1078.6 1407.42 1086.41C1400.91 1094.06 1393.91 1101.22 1386.42 1107.89C1379.1 1114.57 1371.21 1120.51 1362.74 1125.72C1354.28 1130.92 1345.16 1134.83 1335.4 1137.43C1332.63 1138.25 1329.7 1138.9 1326.61 1139.39C1323.35 1140.04 1320.26 1140.36 1317.33 1140.36C1316.36 1140.36 1315.62 1139.96 1315.13 1139.14C1314.48 1138.33 1314.16 1137.52 1314.16 1136.7C1314.16 1134.75 1314.97 1133.61 1316.6 1133.28C1320.18 1132.47 1323.6 1131.74 1326.85 1131.09C1330.11 1130.27 1333.45 1129.22 1336.86 1127.91C1345.33 1124.66 1353.22 1120.43 1360.54 1115.22C1367.87 1109.85 1374.71 1103.99 1381.05 1097.64C1387.56 1091.13 1393.67 1084.29 1399.36 1077.13C1405.06 1069.97 1410.51 1062.81 1415.72 1055.65C1417.67 1052.88 1419.55 1050.19 1421.34 1047.59C1423.13 1044.99 1424.92 1042.3 1426.71 1039.53C1420.36 1040.84 1414.83 1042.71 1410.11 1045.15C1405.39 1047.43 1400.42 1050.44 1395.21 1054.18C1394.89 1054.51 1394.32 1054.67 1393.5 1054.67C1392.69 1054.67 1391.79 1054.26 1390.82 1053.45C1390 1052.47 1389.6 1051.58 1389.6 1050.76C1389.6 1049.95 1389.84 1049.3 1390.33 1048.81C1395.86 1042.63 1402.62 1037.83 1410.59 1034.41C1418.73 1030.83 1426.79 1028.39 1434.76 1027.08C1438.02 1022.04 1441.44 1016.75 1445.02 1011.21C1448.6 1005.52 1452.26 999.902 1456 994.368C1459.91 988.672 1463.9 983.3 1467.97 978.255C1472.04 973.047 1476.27 968.408 1480.66 964.339C1481.64 963.688 1482.37 963.362 1482.86 963.362H1483.35C1483.18 960.921 1482.78 958.479 1482.13 956.038C1481.64 953.434 1480.74 951.155 1479.44 949.202C1478.3 947.086 1476.76 945.377 1474.8 944.075C1472.85 942.773 1470.41 942.122 1467.48 942.122C1463.57 942.122 1459.5 942.854 1455.27 944.319C1451.2 945.784 1447.3 947.412 1443.55 949.202C1439.97 950.83 1436.88 952.376 1434.28 953.841C1431.67 955.143 1430.04 955.794 1429.39 955.794C1428.42 955.794 1427.52 955.387 1426.71 954.573C1426.06 953.597 1425.73 952.701 1425.73 951.888C1425.73 950.748 1426.3 949.772 1427.44 948.958C1428.25 948.307 1429.23 947.737 1430.37 947.249C1431.51 946.598 1432.57 945.947 1433.54 945.296C1438.91 942.203 1444.61 939.355 1450.63 936.751C1456.82 934.147 1463.17 932.845 1469.68 932.845C1470.98 932.845 1472.36 933.089 1473.83 933.577C1475.29 933.903 1476.59 934.31 1477.73 934.798C1480.99 936.263 1483.67 938.379 1485.79 941.146C1488.07 943.912 1489.78 947.005 1490.92 950.423C1492.22 953.678 1493.11 957.177 1493.6 960.921C1494.09 964.502 1494.33 967.92 1494.33 971.175C1494.33 980.289 1493.85 989.323 1492.87 998.274C1491.89 1007.06 1490.67 1015.93 1489.21 1024.89C1496.04 1024.07 1502.72 1022.85 1509.23 1021.22C1515.9 1019.43 1522.41 1017.24 1528.76 1014.63C1530.55 1013.98 1532.26 1013.33 1533.88 1012.68C1535.51 1011.86 1537.22 1011.05 1539.01 1010.24H1539.74C1540.72 1010.24 1541.62 1010.73 1542.43 1011.7C1543.41 1012.52 1543.89 1013.49 1543.89 1014.63ZM1483.35 974.593C1481.23 978.174 1478.55 982.649 1475.29 988.021C1472.04 993.229 1468.78 998.437 1465.53 1003.65C1462.43 1008.69 1459.58 1013.25 1456.98 1017.32C1454.38 1021.39 1452.67 1023.99 1451.85 1025.13C1453.16 1025.13 1454.46 1025.13 1455.76 1025.13C1457.22 1024.97 1458.69 1024.89 1460.15 1024.89C1462.6 1024.89 1465.04 1024.97 1467.48 1025.13C1470.08 1025.29 1472.61 1025.37 1475.05 1025.37H1476.76C1478.38 1016.91 1479.77 1008.53 1480.91 1000.23C1482.21 991.764 1483.02 983.219 1483.35 974.593Z" fill="#C4AA84"/>
<path d="M1543.89 1014.63C1543.89 1015.28 1543.65 1015.85 1543.16 1016.34C1539.74 1020.08 1535.84 1023.34 1531.44 1026.11C1527.05 1028.71 1522.33 1030.91 1517.28 1032.7C1512.24 1034.33 1507.11 1035.63 1501.9 1036.6C1496.69 1037.42 1491.65 1037.91 1486.77 1038.07C1484 1054.02 1481.15 1070.13 1478.22 1086.41C1475.29 1102.69 1473.83 1118.96 1473.83 1135.24C1473.83 1139.96 1474.07 1144.6 1474.56 1149.15C1475.21 1153.87 1476.43 1158.02 1478.22 1161.6C1480.17 1165.35 1482.86 1168.28 1486.28 1170.39C1489.86 1172.67 1494.58 1173.81 1500.44 1173.81C1501.41 1173.81 1502.31 1173.73 1503.12 1173.57C1504.1 1173.4 1505.08 1173.32 1506.05 1173.32C1507.19 1173.32 1508.09 1173.73 1508.74 1174.54C1509.39 1175.36 1509.71 1176.33 1509.71 1177.47C1509.71 1178.61 1509.06 1179.51 1507.76 1180.16C1506.62 1180.97 1505.24 1181.54 1503.61 1181.87C1502.15 1182.19 1500.6 1182.44 1498.97 1182.6C1497.35 1182.76 1496.12 1182.84 1495.31 1182.84C1488.31 1182.84 1482.53 1181.38 1477.98 1178.45C1473.58 1175.68 1470.08 1171.94 1467.48 1167.22C1464.87 1162.66 1463 1157.45 1461.86 1151.59C1460.89 1145.9 1460.4 1140.2 1460.4 1134.5C1460.4 1126.69 1460.81 1118.72 1461.62 1110.58C1462.6 1102.44 1463.74 1094.3 1465.04 1086.17C1466.5 1077.86 1468.05 1069.64 1469.68 1061.51C1471.3 1053.37 1472.85 1045.47 1474.31 1037.83C1470.9 1037.66 1467.48 1037.5 1464.06 1037.34C1460.64 1037.17 1457.22 1037.09 1453.81 1037.09C1452.02 1037.09 1450.31 1037.09 1448.68 1037.09C1447.05 1037.09 1445.34 1037.17 1443.55 1037.34C1440.79 1041.73 1437.86 1046.04 1434.76 1050.28C1431.83 1054.51 1428.82 1058.74 1425.73 1062.97C1420.03 1070.78 1413.93 1078.6 1407.42 1086.41C1400.91 1094.06 1393.91 1101.22 1386.42 1107.89C1379.1 1114.57 1371.21 1120.51 1362.74 1125.72C1354.28 1130.92 1345.16 1134.83 1335.4 1137.43C1332.63 1138.25 1329.7 1138.9 1326.61 1139.39C1323.35 1140.04 1320.26 1140.36 1317.33 1140.36C1316.36 1140.36 1315.62 1139.96 1315.13 1139.14C1314.48 1138.33 1314.16 1137.52 1314.16 1136.7C1314.16 1134.75 1314.97 1133.61 1316.6 1133.28C1320.18 1132.47 1323.6 1131.74 1326.85 1131.09C1330.11 1130.27 1333.45 1129.22 1336.86 1127.91C1345.33 1124.66 1353.22 1120.43 1360.54 1115.22C1367.87 1109.85 1374.71 1103.99 1381.05 1097.64C1387.56 1091.13 1393.67 1084.29 1399.36 1077.13C1405.06 1069.97 1410.51 1062.81 1415.72 1055.65C1417.67 1052.88 1419.55 1050.19 1421.34 1047.59C1423.13 1044.99 1424.92 1042.3 1426.71 1039.53C1420.36 1040.84 1414.83 1042.71 1410.11 1045.15C1405.39 1047.43 1400.42 1050.44 1395.21 1054.18C1394.89 1054.51 1394.32 1054.67 1393.5 1054.67C1392.69 1054.67 1391.79 1054.26 1390.82 1053.45C1390 1052.47 1389.6 1051.58 1389.6 1050.76C1389.6 1049.95 1389.84 1049.3 1390.33 1048.81C1395.86 1042.63 1402.62 1037.83 1410.59 1034.41C1418.73 1030.83 1426.79 1028.39 1434.76 1027.08C1438.02 1022.04 1441.44 1016.75 1445.02 1011.21C1448.6 1005.52 1452.26 999.902 1456 994.368C1459.91 988.672 1463.9 983.3 1467.97 978.255C1472.04 973.047 1476.27 968.408 1480.66 964.339C1481.64 963.688 1482.37 963.362 1482.86 963.362H1483.35C1483.18 960.921 1482.78 958.479 1482.13 956.038C1481.64 953.434 1480.74 951.155 1479.44 949.202C1478.3 947.086 1476.76 945.377 1474.8 944.075C1472.85 942.773 1470.41 942.122 1467.48 942.122C1463.57 942.122 1459.5 942.854 1455.27 944.319C1451.2 945.784 1447.3 947.412 1443.55 949.202C1439.97 950.83 1436.88 952.376 1434.28 953.841C1431.67 955.143 1430.04 955.794 1429.39 955.794C1428.42 955.794 1427.52 955.387 1426.71 954.573C1426.06 953.597 1425.73 952.701 1425.73 951.888C1425.73 950.748 1426.3 949.772 1427.44 948.958C1428.25 948.307 1429.23 947.737 1430.37 947.249C1431.51 946.598 1432.57 945.947 1433.54 945.296C1438.91 942.203 1444.61 939.355 1450.63 936.751C1456.82 934.147 1463.17 932.845 1469.68 932.845C1470.98 932.845 1472.36 933.089 1473.83 933.577C1475.29 933.903 1476.59 934.31 1477.73 934.798C1480.99 936.263 1483.67 938.379 1485.79 941.146C1488.07 943.912 1489.78 947.005 1490.92 950.423C1492.22 953.678 1493.11 957.177 1493.6 960.921C1494.09 964.502 1494.33 967.92 1494.33 971.175C1494.33 980.289 1493.85 989.323 1492.87 998.274C1491.89 1007.06 1490.67 1015.93 1489.21 1024.89C1496.04 1024.07 1502.72 1022.85 1509.23 1021.22C1515.9 1019.43 1522.41 1017.24 1528.76 1014.63C1530.55 1013.98 1532.26 1013.33 1533.88 1012.68C1535.51 1011.86 1537.22 1011.05 1539.01 1010.24H1539.74C1540.72 1010.24 1541.62 1010.73 1542.43 1011.7C1543.41 1012.52 1543.89 1013.49 1543.89 1014.63ZM1483.35 974.593C1481.23 978.174 1478.55 982.649 1475.29 988.021C1472.04 993.229 1468.78 998.437 1465.53 1003.65C1462.43 1008.69 1459.58 1013.25 1456.98 1017.32C1454.38 1021.39 1452.67 1023.99 1451.85 1025.13C1453.16 1025.13 1454.46 1025.13 1455.76 1025.13C1457.22 1024.97 1458.69 1024.89 1460.15 1024.89C1462.6 1024.89 1465.04 1024.97 1467.48 1025.13C1470.08 1025.29 1472.61 1025.37 1475.05 1025.37H1476.76C1478.38 1016.91 1479.77 1008.53 1480.91 1000.23C1482.21 991.764 1483.02 983.219 1483.35 974.593Z" stroke="#C4AA84" stroke-width="20" mask="url(#path-9-outside-3_166_3744)"/>
<mask id="path-10-outside-4_166_3744" maskUnits="userSpaceOnUse" x="1109.33" y="943.353" width="267" height="223" fill="black">
<rect fill="white" x="1109.33" y="943.353" width="267" height="223"/>
<path d="M1365.43 1134.75C1365.43 1135.56 1365.02 1136.38 1364.21 1137.19C1362.25 1138.98 1359.73 1140.93 1356.64 1143.05C1353.55 1145.17 1350.29 1147.12 1346.87 1148.91C1343.46 1150.86 1340.04 1152.49 1336.62 1153.79C1333.2 1155.09 1330.19 1155.75 1327.59 1155.75C1324.33 1155.75 1321.4 1155.09 1318.8 1153.79C1316.36 1152.49 1314.16 1150.7 1312.21 1148.42C1310.25 1146.31 1308.71 1143.86 1307.57 1141.1C1306.43 1138.33 1305.69 1135.48 1305.37 1132.55C1305.04 1129.46 1304.72 1126.45 1304.39 1123.52C1304.07 1120.43 1303.9 1117.33 1303.9 1114.24C1303.9 1106.43 1304.72 1097.4 1306.35 1087.14C1307.97 1076.72 1310.01 1066.15 1312.45 1055.4C1314.89 1044.5 1317.58 1034 1320.51 1023.91C1323.44 1013.66 1326.28 1004.78 1329.05 997.298C1325.31 1003.32 1321.48 1009.26 1317.58 1015.12C1313.83 1020.98 1310.01 1026.76 1306.1 1032.45C1302.68 1037.66 1299.18 1042.87 1295.6 1048.08C1292.02 1053.29 1288.2 1058.41 1284.13 1063.46C1280.22 1068.51 1275.99 1073.23 1271.43 1077.62C1267.04 1082.01 1262.24 1085.92 1257.03 1089.34C1256.7 1089.5 1256.22 1089.58 1255.56 1089.58C1254.75 1089.58 1253.94 1089.26 1253.12 1088.61C1252.31 1087.96 1251.74 1087.22 1251.41 1086.41L1251.17 1086.65C1251.01 1086.65 1250.93 1086.57 1250.93 1086.41C1250.93 1086.25 1250.84 1086.08 1250.68 1085.92C1249.05 1081.2 1247.83 1076.32 1247.02 1071.27C1246.37 1066.23 1245.88 1061.18 1245.55 1056.14C1245.23 1051.25 1244.9 1046.37 1244.58 1041.49C1244.42 1036.6 1244.17 1031.72 1243.85 1026.84C1243.19 1018.05 1242.54 1009.26 1241.89 1000.47C1241.4 991.52 1240.75 982.568 1239.94 973.616C1234.41 987.451 1229.28 1001.37 1224.56 1015.36C1219.84 1029.36 1214.79 1043.36 1209.42 1057.36C1205.52 1067.45 1201.2 1077.29 1196.48 1086.9C1191.76 1096.5 1186.15 1105.61 1179.64 1114.24C1176.22 1118.64 1172.39 1122.7 1168.16 1126.45C1163.93 1130.19 1159.37 1133.45 1154.49 1136.21C1149.61 1138.98 1144.4 1141.1 1138.87 1142.56C1133.49 1144.19 1128.04 1145 1122.51 1145C1121.69 1145 1120.96 1144.6 1120.31 1143.78C1119.66 1142.97 1119.33 1142.15 1119.33 1141.34C1119.33 1139.39 1120.23 1138.25 1122.02 1137.92C1125.44 1137.11 1128.61 1136.46 1131.54 1135.97C1134.63 1135.32 1137.81 1134.34 1141.06 1133.04C1148.71 1129.62 1155.39 1124.9 1161.08 1118.88C1166.94 1112.86 1172.15 1106.18 1176.71 1098.86C1181.26 1091.54 1185.17 1083.89 1188.43 1075.91C1191.84 1067.94 1194.94 1060.29 1197.7 1052.96C1200.14 1046.45 1202.42 1039.86 1204.54 1033.19C1206.65 1026.51 1208.77 1019.92 1210.89 1013.41C1213.17 1006.74 1215.53 1000.15 1217.97 993.636C1220.57 987.125 1223.58 980.778 1227 974.593C1222.44 977.36 1217.8 979.882 1213.08 982.161C1208.36 984.277 1203.73 986.718 1199.17 989.485C1195.75 991.438 1192.33 993.636 1188.91 996.077C1185.5 998.356 1182.24 1000.96 1179.15 1003.89C1176.06 1006.66 1173.21 1009.67 1170.6 1012.92C1168.16 1016.18 1166.21 1019.68 1164.74 1023.42C1164.09 1025.05 1163.6 1026.68 1163.28 1028.3C1162.95 1029.77 1162.55 1031.31 1162.06 1032.94C1161.9 1033.76 1161.49 1034.41 1160.84 1034.9C1160.19 1035.22 1159.54 1035.38 1158.88 1035.38C1158.23 1035.38 1157.42 1035.06 1156.44 1034.41C1155.47 1033.76 1154.98 1033.11 1154.98 1032.45C1154.98 1026.43 1156.04 1020.82 1158.15 1015.61C1160.27 1010.4 1163.12 1005.6 1166.7 1001.2C1170.28 996.647 1174.27 992.496 1178.66 988.753C1183.22 985.009 1187.86 981.673 1192.58 978.743C1200.06 974.023 1207.96 969.466 1216.26 965.071C1224.56 960.514 1232.86 956.852 1241.16 954.085H1241.65C1243.28 954.085 1244.5 954.736 1245.31 956.038C1245.8 956.364 1246.12 956.852 1246.29 957.503C1246.45 958.154 1246.37 958.724 1246.04 959.212C1248.81 970.117 1250.93 981.185 1252.39 992.415C1253.86 1003.48 1255.16 1014.63 1256.3 1025.86C1257.11 1034 1257.84 1042.06 1258.49 1050.03C1259.31 1057.84 1259.47 1065.82 1258.98 1073.96C1265.17 1065.82 1271.43 1057.84 1277.78 1050.03C1284.13 1042.06 1290.15 1033.92 1295.85 1025.62C1302.2 1016.5 1308.46 1007.55 1314.65 998.763C1320.83 989.811 1327.18 980.94 1333.69 972.151C1335.97 969.222 1338.25 966.211 1340.53 963.118C1342.97 960.026 1345.41 957.096 1347.85 954.329C1348.5 953.678 1349.23 953.353 1350.05 953.353C1351.02 953.353 1352.08 953.922 1353.22 955.062C1354.36 956.038 1354.93 957.015 1354.93 957.991V958.479C1349.88 976.709 1344.35 994.612 1338.33 1012.19C1332.31 1029.77 1327.18 1047.83 1322.95 1066.39C1320.99 1075.18 1319.2 1083.97 1317.58 1092.76C1316.11 1101.38 1315.38 1110.09 1315.38 1118.88C1315.38 1121.16 1315.46 1123.84 1315.62 1126.94C1315.79 1130.03 1316.27 1133.04 1317.09 1135.97C1317.9 1138.74 1319.12 1141.1 1320.75 1143.05C1322.54 1145 1325.06 1145.98 1328.32 1145.98C1331.25 1145.98 1334.5 1145.17 1338.08 1143.54C1341.66 1142.07 1345.08 1140.36 1348.34 1138.41C1351.76 1136.46 1354.69 1134.75 1357.13 1133.28C1359.57 1131.66 1361.03 1130.84 1361.52 1130.84C1362.5 1130.84 1363.39 1131.25 1364.21 1132.06C1365.02 1132.88 1365.43 1133.77 1365.43 1134.75Z"/>
</mask>
<path d="M1365.43 1134.75C1365.43 1135.56 1365.02 1136.38 1364.21 1137.19C1362.25 1138.98 1359.73 1140.93 1356.64 1143.05C1353.55 1145.17 1350.29 1147.12 1346.87 1148.91C1343.46 1150.86 1340.04 1152.49 1336.62 1153.79C1333.2 1155.09 1330.19 1155.75 1327.59 1155.75C1324.33 1155.75 1321.4 1155.09 1318.8 1153.79C1316.36 1152.49 1314.16 1150.7 1312.21 1148.42C1310.25 1146.31 1308.71 1143.86 1307.57 1141.1C1306.43 1138.33 1305.69 1135.48 1305.37 1132.55C1305.04 1129.46 1304.72 1126.45 1304.39 1123.52C1304.07 1120.43 1303.9 1117.33 1303.9 1114.24C1303.9 1106.43 1304.72 1097.4 1306.35 1087.14C1307.97 1076.72 1310.01 1066.15 1312.45 1055.4C1314.89 1044.5 1317.58 1034 1320.51 1023.91C1323.44 1013.66 1326.28 1004.78 1329.05 997.298C1325.31 1003.32 1321.48 1009.26 1317.58 1015.12C1313.83 1020.98 1310.01 1026.76 1306.1 1032.45C1302.68 1037.66 1299.18 1042.87 1295.6 1048.08C1292.02 1053.29 1288.2 1058.41 1284.13 1063.46C1280.22 1068.51 1275.99 1073.23 1271.43 1077.62C1267.04 1082.01 1262.24 1085.92 1257.03 1089.34C1256.7 1089.5 1256.22 1089.58 1255.56 1089.58C1254.75 1089.58 1253.94 1089.26 1253.12 1088.61C1252.31 1087.96 1251.74 1087.22 1251.41 1086.41L1251.17 1086.65C1251.01 1086.65 1250.93 1086.57 1250.93 1086.41C1250.93 1086.25 1250.84 1086.08 1250.68 1085.92C1249.05 1081.2 1247.83 1076.32 1247.02 1071.27C1246.37 1066.23 1245.88 1061.18 1245.55 1056.14C1245.23 1051.25 1244.9 1046.37 1244.58 1041.49C1244.42 1036.6 1244.17 1031.72 1243.85 1026.84C1243.19 1018.05 1242.54 1009.26 1241.89 1000.47C1241.4 991.52 1240.75 982.568 1239.94 973.616C1234.41 987.451 1229.28 1001.37 1224.56 1015.36C1219.84 1029.36 1214.79 1043.36 1209.42 1057.36C1205.52 1067.45 1201.2 1077.29 1196.48 1086.9C1191.76 1096.5 1186.15 1105.61 1179.64 1114.24C1176.22 1118.64 1172.39 1122.7 1168.16 1126.45C1163.93 1130.19 1159.37 1133.45 1154.49 1136.21C1149.61 1138.98 1144.4 1141.1 1138.87 1142.56C1133.49 1144.19 1128.04 1145 1122.51 1145C1121.69 1145 1120.96 1144.6 1120.31 1143.78C1119.66 1142.97 1119.33 1142.15 1119.33 1141.34C1119.33 1139.39 1120.23 1138.25 1122.02 1137.92C1125.44 1137.11 1128.61 1136.46 1131.54 1135.97C1134.63 1135.32 1137.81 1134.34 1141.06 1133.04C1148.71 1129.62 1155.39 1124.9 1161.08 1118.88C1166.94 1112.86 1172.15 1106.18 1176.71 1098.86C1181.26 1091.54 1185.17 1083.89 1188.43 1075.91C1191.84 1067.94 1194.94 1060.29 1197.7 1052.96C1200.14 1046.45 1202.42 1039.86 1204.54 1033.19C1206.65 1026.51 1208.77 1019.92 1210.89 1013.41C1213.17 1006.74 1215.53 1000.15 1217.97 993.636C1220.57 987.125 1223.58 980.778 1227 974.593C1222.44 977.36 1217.8 979.882 1213.08 982.161C1208.36 984.277 1203.73 986.718 1199.17 989.485C1195.75 991.438 1192.33 993.636 1188.91 996.077C1185.5 998.356 1182.24 1000.96 1179.15 1003.89C1176.06 1006.66 1173.21 1009.67 1170.6 1012.92C1168.16 1016.18 1166.21 1019.68 1164.74 1023.42C1164.09 1025.05 1163.6 1026.68 1163.28 1028.3C1162.95 1029.77 1162.55 1031.31 1162.06 1032.94C1161.9 1033.76 1161.49 1034.41 1160.84 1034.9C1160.19 1035.22 1159.54 1035.38 1158.88 1035.38C1158.23 1035.38 1157.42 1035.06 1156.44 1034.41C1155.47 1033.76 1154.98 1033.11 1154.98 1032.45C1154.98 1026.43 1156.04 1020.82 1158.15 1015.61C1160.27 1010.4 1163.12 1005.6 1166.7 1001.2C1170.28 996.647 1174.27 992.496 1178.66 988.753C1183.22 985.009 1187.86 981.673 1192.58 978.743C1200.06 974.023 1207.96 969.466 1216.26 965.071C1224.56 960.514 1232.86 956.852 1241.16 954.085H1241.65C1243.28 954.085 1244.5 954.736 1245.31 956.038C1245.8 956.364 1246.12 956.852 1246.29 957.503C1246.45 958.154 1246.37 958.724 1246.04 959.212C1248.81 970.117 1250.93 981.185 1252.39 992.415C1253.86 1003.48 1255.16 1014.63 1256.3 1025.86C1257.11 1034 1257.84 1042.06 1258.49 1050.03C1259.31 1057.84 1259.47 1065.82 1258.98 1073.96C1265.17 1065.82 1271.43 1057.84 1277.78 1050.03C1284.13 1042.06 1290.15 1033.92 1295.85 1025.62C1302.2 1016.5 1308.46 1007.55 1314.65 998.763C1320.83 989.811 1327.18 980.94 1333.69 972.151C1335.97 969.222 1338.25 966.211 1340.53 963.118C1342.97 960.026 1345.41 957.096 1347.85 954.329C1348.5 953.678 1349.23 953.353 1350.05 953.353C1351.02 953.353 1352.08 953.922 1353.22 955.062C1354.36 956.038 1354.93 957.015 1354.93 957.991V958.479C1349.88 976.709 1344.35 994.612 1338.33 1012.19C1332.31 1029.77 1327.18 1047.83 1322.95 1066.39C1320.99 1075.18 1319.2 1083.97 1317.58 1092.76C1316.11 1101.38 1315.38 1110.09 1315.38 1118.88C1315.38 1121.16 1315.46 1123.84 1315.62 1126.94C1315.79 1130.03 1316.27 1133.04 1317.09 1135.97C1317.9 1138.74 1319.12 1141.1 1320.75 1143.05C1322.54 1145 1325.06 1145.98 1328.32 1145.98C1331.25 1145.98 1334.5 1145.17 1338.08 1143.54C1341.66 1142.07 1345.08 1140.36 1348.34 1138.41C1351.76 1136.46 1354.69 1134.75 1357.13 1133.28C1359.57 1131.66 1361.03 1130.84 1361.52 1130.84C1362.5 1130.84 1363.39 1131.25 1364.21 1132.06C1365.02 1132.88 1365.43 1133.77 1365.43 1134.75Z" fill="#C4AA84"/>
<path d="M1365.43 1134.75C1365.43 1135.56 1365.02 1136.38 1364.21 1137.19C1362.25 1138.98 1359.73 1140.93 1356.64 1143.05C1353.55 1145.17 1350.29 1147.12 1346.87 1148.91C1343.46 1150.86 1340.04 1152.49 1336.62 1153.79C1333.2 1155.09 1330.19 1155.75 1327.59 1155.75C1324.33 1155.75 1321.4 1155.09 1318.8 1153.79C1316.36 1152.49 1314.16 1150.7 1312.21 1148.42C1310.25 1146.31 1308.71 1143.86 1307.57 1141.1C1306.43 1138.33 1305.69 1135.48 1305.37 1132.55C1305.04 1129.46 1304.72 1126.45 1304.39 1123.52C1304.07 1120.43 1303.9 1117.33 1303.9 1114.24C1303.9 1106.43 1304.72 1097.4 1306.35 1087.14C1307.97 1076.72 1310.01 1066.15 1312.45 1055.4C1314.89 1044.5 1317.58 1034 1320.51 1023.91C1323.44 1013.66 1326.28 1004.78 1329.05 997.298C1325.31 1003.32 1321.48 1009.26 1317.58 1015.12C1313.83 1020.98 1310.01 1026.76 1306.1 1032.45C1302.68 1037.66 1299.18 1042.87 1295.6 1048.08C1292.02 1053.29 1288.2 1058.41 1284.13 1063.46C1280.22 1068.51 1275.99 1073.23 1271.43 1077.62C1267.04 1082.01 1262.24 1085.92 1257.03 1089.34C1256.7 1089.5 1256.22 1089.58 1255.56 1089.58C1254.75 1089.58 1253.94 1089.26 1253.12 1088.61C1252.31 1087.96 1251.74 1087.22 1251.41 1086.41L1251.17 1086.65C1251.01 1086.65 1250.93 1086.57 1250.93 1086.41C1250.93 1086.25 1250.84 1086.08 1250.68 1085.92C1249.05 1081.2 1247.83 1076.32 1247.02 1071.27C1246.37 1066.23 1245.88 1061.18 1245.55 1056.14C1245.23 1051.25 1244.9 1046.37 1244.58 1041.49C1244.42 1036.6 1244.17 1031.72 1243.85 1026.84C1243.19 1018.05 1242.54 1009.26 1241.89 1000.47C1241.4 991.52 1240.75 982.568 1239.94 973.616C1234.41 987.451 1229.28 1001.37 1224.56 1015.36C1219.84 1029.36 1214.79 1043.36 1209.42 1057.36C1205.52 1067.45 1201.2 1077.29 1196.48 1086.9C1191.76 1096.5 1186.15 1105.61 1179.64 1114.24C1176.22 1118.64 1172.39 1122.7 1168.16 1126.45C1163.93 1130.19 1159.37 1133.45 1154.49 1136.21C1149.61 1138.98 1144.4 1141.1 1138.87 1142.56C1133.49 1144.19 1128.04 1145 1122.51 1145C1121.69 1145 1120.96 1144.6 1120.31 1143.78C1119.66 1142.97 1119.33 1142.15 1119.33 1141.34C1119.33 1139.39 1120.23 1138.25 1122.02 1137.92C1125.44 1137.11 1128.61 1136.46 1131.54 1135.97C1134.63 1135.32 1137.81 1134.34 1141.06 1133.04C1148.71 1129.62 1155.39 1124.9 1161.08 1118.88C1166.94 1112.86 1172.15 1106.18 1176.71 1098.86C1181.26 1091.54 1185.17 1083.89 1188.43 1075.91C1191.84 1067.94 1194.94 1060.29 1197.7 1052.96C1200.14 1046.45 1202.42 1039.86 1204.54 1033.19C1206.65 1026.51 1208.77 1019.92 1210.89 1013.41C1213.17 1006.74 1215.53 1000.15 1217.97 993.636C1220.57 987.125 1223.58 980.778 1227 974.593C1222.44 977.36 1217.8 979.882 1213.08 982.161C1208.36 984.277 1203.73 986.718 1199.17 989.485C1195.75 991.438 1192.33 993.636 1188.91 996.077C1185.5 998.356 1182.24 1000.96 1179.15 1003.89C1176.06 1006.66 1173.21 1009.67 1170.6 1012.92C1168.16 1016.18 1166.21 1019.68 1164.74 1023.42C1164.09 1025.05 1163.6 1026.68 1163.28 1028.3C1162.95 1029.77 1162.55 1031.31 1162.06 1032.94C1161.9 1033.76 1161.49 1034.41 1160.84 1034.9C1160.19 1035.22 1159.54 1035.38 1158.88 1035.38C1158.23 1035.38 1157.42 1035.06 1156.44 1034.41C1155.47 1033.76 1154.98 1033.11 1154.98 1032.45C1154.98 1026.43 1156.04 1020.82 1158.15 1015.61C1160.27 1010.4 1163.12 1005.6 1166.7 1001.2C1170.28 996.647 1174.27 992.496 1178.66 988.753C1183.22 985.009 1187.86 981.673 1192.58 978.743C1200.06 974.023 1207.96 969.466 1216.26 965.071C1224.56 960.514 1232.86 956.852 1241.16 954.085H1241.65C1243.28 954.085 1244.5 954.736 1245.31 956.038C1245.8 956.364 1246.12 956.852 1246.29 957.503C1246.45 958.154 1246.37 958.724 1246.04 959.212C1248.81 970.117 1250.93 981.185 1252.39 992.415C1253.86 1003.48 1255.16 1014.63 1256.3 1025.86C1257.11 1034 1257.84 1042.06 1258.49 1050.03C1259.31 1057.84 1259.47 1065.82 1258.98 1073.96C1265.17 1065.82 1271.43 1057.84 1277.78 1050.03C1284.13 1042.06 1290.15 1033.92 1295.85 1025.62C1302.2 1016.5 1308.46 1007.55 1314.65 998.763C1320.83 989.811 1327.18 980.94 1333.69 972.151C1335.97 969.222 1338.25 966.211 1340.53 963.118C1342.97 960.026 1345.41 957.096 1347.85 954.329C1348.5 953.678 1349.23 953.353 1350.05 953.353C1351.02 953.353 1352.08 953.922 1353.22 955.062C1354.36 956.038 1354.93 957.015 1354.93 957.991V958.479C1349.88 976.709 1344.35 994.612 1338.33 1012.19C1332.31 1029.77 1327.18 1047.83 1322.95 1066.39C1320.99 1075.18 1319.2 1083.97 1317.58 1092.76C1316.11 1101.38 1315.38 1110.09 1315.38 1118.88C1315.38 1121.16 1315.46 1123.84 1315.62 1126.94C1315.79 1130.03 1316.27 1133.04 1317.09 1135.97C1317.9 1138.74 1319.12 1141.1 1320.75 1143.05C1322.54 1145 1325.06 1145.98 1328.32 1145.98C1331.25 1145.98 1334.5 1145.17 1338.08 1143.54C1341.66 1142.07 1345.08 1140.36 1348.34 1138.41C1351.76 1136.46 1354.69 1134.75 1357.13 1133.28C1359.57 1131.66 1361.03 1130.84 1361.52 1130.84C1362.5 1130.84 1363.39 1131.25 1364.21 1132.06C1365.02 1132.88 1365.43 1133.77 1365.43 1134.75Z" stroke="#C4AA84" stroke-width="20" mask="url(#path-10-outside-4_166_3744)"/>
</svg>
