<svg id="XV" width="1756" height="1319" viewBox="0 0 1756 1319" fill="none" xmlns="http://www.w3.org/2000/svg">
<path d="M967.498 127C950.831 88.3333 935.165 62 920.498 48C905.831 33.3333 884.831 24.6666 857.498 22V1.99997C860.831 1.99997 865.831 1.66664 872.498 0.999985C878.498 0.333327 884.831 0 891.498 0C924.831 0 956.831 8.66665 987.498 26C1018.16 42.6666 1044.16 76.3333 1065.5 127L1236.5 530L1295.5 393C1323.5 328.333 1377.16 200.667 1456.5 9.99998H1504.5L1217.5 680H1199.5L967.498 127Z" fill="#C01E25"/>
<path d="M370.506 140C354.506 116.667 340.506 98.3334 328.506 85C316.506 71 300.839 58.6667 281.506 48C262.173 37.3334 238.506 31.3333 210.506 30V10H330.506C359.839 10 384.506 19.6667 404.506 39C424.506 57.6666 446.506 84.6667 470.506 120L570.506 270L770.506 10H820.506L595.506 305L755.506 540C776.173 570.667 798.173 596.333 821.506 617C845.506 637 871.839 648 900.506 650V670H795.506C766.839 670 741.506 660 719.506 640C697.506 619.333 676.173 592.667 655.506 560L535.506 380L310.506 670H260.506L510.506 345L370.506 140Z" fill="#C01E25"/>
<path d="M964.031 945.458C966.277 945.458 967.943 946.768 969.05 948.054C970.223 949.253 971.438 950.961 971.438 953.108C971.438 954.187 971.235 955.348 970.644 956.433C970.033 957.553 969.118 958.385 968.038 958.925L967.997 958.944C962.678 961.518 956.877 963.475 950.61 964.83L950.575 964.838L950.539 964.845C944.545 966.01 938.392 966.842 932.08 967.34C925.804 967.835 919.527 968.083 913.25 968.083H913.203L913.155 968.082C908.318 967.951 903.642 967.874 899.127 967.849C898.001 979.838 895.696 992.552 892.225 1005.99C888.45 1020.59 883.856 1035.19 878.445 1049.78C873.044 1064.35 867.151 1078.59 860.767 1092.51C855.427 1104.31 850.14 1115.22 844.909 1125.23C847.905 1125.4 850.869 1125.53 853.801 1125.64H853.8C858.644 1125.8 863.405 1125.88 868.084 1125.88C872.079 1125.88 875.992 1125.8 879.823 1125.64C883.719 1125.33 887.534 1124.86 891.269 1124.24C892.432 1123.92 893.546 1123.66 894.608 1123.48C895.432 1123.35 896.36 1123.13 897.396 1122.84L897.532 1122.8L897.671 1122.77C897.927 1122.72 898.108 1122.67 898.228 1122.62C898.347 1122.58 898.384 1122.55 898.369 1122.56L898.551 1122.44L898.745 1122.34C899.937 1121.74 901.215 1121.48 902.508 1121.48C904.925 1121.48 906.598 1123.06 907.623 1124.42C908.765 1125.61 909.914 1127.29 909.914 1129.38C909.914 1130.46 909.712 1131.62 909.12 1132.7C908.509 1133.82 907.594 1134.65 906.515 1135.19L906.475 1135.21L906.435 1135.23C900.959 1137.8 895.003 1139.75 888.58 1141.1L888.545 1141.11L888.51 1141.12C882.339 1142.29 876.009 1143.03 869.522 1143.37C863.087 1143.86 856.651 1144.03 850.215 1143.86H833.564C832.723 1144.33 831.766 1144.6 830.73 1144.6C829.645 1144.6 828.659 1144.31 827.79 1143.86H824.9C816.565 1144.02 808.478 1145.12 800.633 1147.16C792.809 1149.4 785.061 1152.12 777.389 1155.31C775.535 1156.09 773.677 1156.94 771.816 1157.87C769.74 1159.07 767.581 1160.1 765.337 1160.96L764.729 1161.2H763.348C761.161 1161.2 759.432 1160.12 758.182 1158.71C756.78 1157.46 755.697 1155.73 755.697 1153.55C755.697 1152.29 756.015 1151.11 756.555 1150.03L756.728 1149.68L756.973 1149.38C760.796 1144.69 765.313 1140.7 770.508 1137.41L770.544 1137.38L770.58 1137.36C775.674 1134.31 781.101 1131.85 786.854 1129.98C792.597 1127.95 798.432 1126.52 804.356 1125.67L804.37 1125.67C810.373 1124.83 816.15 1124.41 821.697 1124.41C823.224 1124.41 824.749 1124.5 826.273 1124.66H828.181C834.024 1111.07 839.649 1097.4 845.052 1083.66L845.058 1083.65L845.064 1083.63C850.897 1069.21 856.326 1054.55 861.35 1039.64C865.549 1027.04 869.181 1014.44 872.249 1001.85L872.841 999.422C875.437 988.877 878.414 978.387 881.771 967.953C875.083 968.286 868.557 969.344 862.191 971.127L862.169 971.134L862.146 971.14C854.349 973.208 846.624 975.916 838.97 979.265L838.941 979.276L838.912 979.288C837.016 980.078 835.036 980.949 832.971 981.901C830.967 982.902 828.96 983.821 826.949 984.659L826.832 984.709L826.71 984.749L825.978 984.993L825.439 985.173H824.871C822.639 985.173 820.825 984.041 819.467 982.683C818.109 981.325 816.977 979.511 816.977 977.278C816.977 975.698 817.588 974.302 818.616 973.218C822.571 968.591 827.127 964.643 832.275 961.382L832.298 961.368L832.319 961.354C837.597 958.12 843.139 955.562 848.94 953.685L848.954 953.68L848.968 953.676C854.848 951.828 860.816 950.482 866.87 949.642C872.878 948.807 878.736 948.388 884.441 948.388C892.004 948.388 899.488 948.634 906.891 949.128C914.136 949.611 921.464 949.853 928.875 949.853C932.869 949.853 936.863 949.773 940.857 949.614C944.757 949.301 948.658 948.835 952.561 948.215C953.719 947.891 954.829 947.635 955.888 947.459L955.928 947.452L955.968 947.446C956.902 947.313 957.736 947.119 958.479 946.875C959.218 946.584 959.937 946.34 960.627 946.149C961.715 945.672 962.867 945.458 964.031 945.458Z" fill="#C01E25" stroke="#C01E25" stroke-width="7"/>
<mask id="path-4-outside-1_167_3761" maskUnits="userSpaceOnUse" x="546.143" y="946.353" width="261" height="217" fill="black">
<rect fill="white" x="546.143" y="946.353" width="261" height="217"/>
<path d="M799.236 1134.75C799.236 1135.56 798.829 1136.38 798.016 1137.19C796.062 1138.98 793.54 1140.93 790.447 1143.05C787.355 1145.17 784.1 1147.12 780.682 1148.91C777.264 1150.86 773.846 1152.49 770.428 1153.79C767.01 1155.09 763.999 1155.75 761.395 1155.75C758.139 1155.75 755.21 1155.09 752.605 1153.79C750.164 1152.49 747.967 1150.7 746.014 1148.42C744.061 1146.31 742.514 1143.86 741.375 1141.1C740.236 1138.33 739.503 1135.48 739.178 1132.55C738.852 1129.46 738.527 1126.45 738.201 1123.52C737.876 1120.43 737.713 1117.33 737.713 1114.24C737.713 1106.43 738.527 1097.4 740.154 1087.14C741.782 1076.72 743.816 1066.15 746.258 1055.4C748.699 1044.5 751.385 1034 754.314 1023.91C757.244 1013.66 760.092 1004.78 762.859 997.298C759.116 1003.32 755.291 1009.26 751.385 1015.12C747.641 1020.98 743.816 1026.76 739.91 1032.45C736.492 1037.66 732.993 1042.87 729.412 1048.08C725.831 1053.29 722.007 1058.41 717.938 1063.46C714.031 1068.51 709.799 1073.23 705.242 1077.62C700.848 1082.01 696.046 1085.92 690.838 1089.34C690.512 1089.5 690.024 1089.58 689.373 1089.58C688.559 1089.58 687.745 1089.26 686.932 1088.61C686.118 1087.96 685.548 1087.22 685.223 1086.41L684.979 1086.65C684.816 1086.65 684.734 1086.57 684.734 1086.41C684.734 1086.25 684.653 1086.08 684.49 1085.92C682.863 1081.2 681.642 1076.32 680.828 1071.27C680.177 1066.23 679.689 1061.18 679.363 1056.14C679.038 1051.25 678.712 1046.37 678.387 1041.49C678.224 1036.6 677.98 1031.72 677.654 1026.84C677.003 1018.05 676.352 1009.26 675.701 1000.47C675.213 991.52 674.562 982.568 673.748 973.616C668.214 987.451 663.087 1001.37 658.367 1015.36C653.647 1029.36 648.602 1043.36 643.23 1057.36C639.324 1067.45 635.011 1077.29 630.291 1086.9C625.571 1096.5 619.956 1105.61 613.445 1114.24C610.027 1118.64 606.202 1122.7 601.971 1126.45C597.739 1130.19 593.182 1133.45 588.299 1136.21C583.416 1138.98 578.208 1141.1 572.674 1142.56C567.303 1144.19 561.85 1145 556.316 1145C555.503 1145 554.77 1144.6 554.119 1143.78C553.468 1142.97 553.143 1142.15 553.143 1141.34C553.143 1139.39 554.038 1138.25 555.828 1137.92C559.246 1137.11 562.42 1136.46 565.35 1135.97C568.442 1135.32 571.616 1134.34 574.871 1133.04C582.521 1129.62 589.194 1124.9 594.891 1118.88C600.75 1112.86 605.958 1106.18 610.516 1098.86C615.073 1091.54 618.979 1083.89 622.234 1075.91C625.652 1067.94 628.745 1060.29 631.512 1052.96C633.953 1046.45 636.232 1039.86 638.348 1033.19C640.464 1026.51 642.579 1019.92 644.695 1013.41C646.974 1006.74 649.334 1000.15 651.775 993.636C654.38 987.125 657.391 980.778 660.809 974.593C656.251 977.36 651.613 979.882 646.893 982.161C642.173 984.277 637.534 986.718 632.977 989.485C629.559 991.438 626.141 993.636 622.723 996.077C619.305 998.356 616.049 1000.96 612.957 1003.89C609.865 1006.66 607.016 1009.67 604.412 1012.92C601.971 1016.18 600.018 1019.68 598.553 1023.42C597.902 1025.05 597.413 1026.68 597.088 1028.3C596.762 1029.77 596.355 1031.31 595.867 1032.94C595.704 1033.76 595.298 1034.41 594.646 1034.9C593.995 1035.22 593.344 1035.38 592.693 1035.38C592.042 1035.38 591.229 1035.06 590.252 1034.41C589.275 1033.76 588.787 1033.11 588.787 1032.45C588.787 1026.43 589.845 1020.82 591.961 1015.61C594.077 1010.4 596.925 1005.6 600.506 1001.2C604.087 996.647 608.074 992.496 612.469 988.753C617.026 985.009 621.665 981.673 626.385 978.743C633.872 974.023 641.766 969.466 650.066 965.071C658.367 960.514 666.668 956.852 674.969 954.085H675.457C677.085 954.085 678.305 954.736 679.119 956.038C679.607 956.364 679.933 956.852 680.096 957.503C680.258 958.154 680.177 958.724 679.852 959.212C682.618 970.117 684.734 981.185 686.199 992.415C687.664 1003.48 688.966 1014.63 690.105 1025.86C690.919 1034 691.652 1042.06 692.303 1050.03C693.117 1057.84 693.279 1065.82 692.791 1073.96C698.976 1065.82 705.242 1057.84 711.59 1050.03C717.938 1042.06 723.96 1033.92 729.656 1025.62C736.004 1016.5 742.27 1007.55 748.455 998.763C754.64 989.811 760.988 980.94 767.498 972.151C769.777 969.222 772.055 966.211 774.334 963.118C776.775 960.026 779.217 957.096 781.658 954.329C782.309 953.678 783.042 953.353 783.855 953.353C784.832 953.353 785.89 953.922 787.029 955.062C788.169 956.038 788.738 957.015 788.738 957.991V958.479C783.693 976.709 778.159 994.612 772.137 1012.19C766.115 1029.77 760.988 1047.83 756.756 1066.39C754.803 1075.18 753.012 1083.97 751.385 1092.76C749.92 1101.38 749.188 1110.09 749.188 1118.88C749.188 1121.16 749.269 1123.84 749.432 1126.94C749.594 1130.03 750.083 1133.04 750.896 1135.97C751.71 1138.74 752.931 1141.1 754.559 1143.05C756.349 1145 758.872 1145.98 762.127 1145.98C765.057 1145.98 768.312 1145.17 771.893 1143.54C775.473 1142.07 778.891 1140.36 782.146 1138.41C785.564 1136.46 788.494 1134.75 790.936 1133.28C793.377 1131.66 794.842 1130.84 795.33 1130.84C796.307 1130.84 797.202 1131.25 798.016 1132.06C798.829 1132.88 799.236 1133.77 799.236 1134.75Z"/>
</mask>
<path d="M799.236 1134.75C799.236 1135.56 798.829 1136.38 798.016 1137.19C796.062 1138.98 793.54 1140.93 790.447 1143.05C787.355 1145.17 784.1 1147.12 780.682 1148.91C777.264 1150.86 773.846 1152.49 770.428 1153.79C767.01 1155.09 763.999 1155.75 761.395 1155.75C758.139 1155.75 755.21 1155.09 752.605 1153.79C750.164 1152.49 747.967 1150.7 746.014 1148.42C744.061 1146.31 742.514 1143.86 741.375 1141.1C740.236 1138.33 739.503 1135.48 739.178 1132.55C738.852 1129.46 738.527 1126.45 738.201 1123.52C737.876 1120.43 737.713 1117.33 737.713 1114.24C737.713 1106.43 738.527 1097.4 740.154 1087.14C741.782 1076.72 743.816 1066.15 746.258 1055.4C748.699 1044.5 751.385 1034 754.314 1023.91C757.244 1013.66 760.092 1004.78 762.859 997.298C759.116 1003.32 755.291 1009.26 751.385 1015.12C747.641 1020.98 743.816 1026.76 739.91 1032.45C736.492 1037.66 732.993 1042.87 729.412 1048.08C725.831 1053.29 722.007 1058.41 717.938 1063.46C714.031 1068.51 709.799 1073.23 705.242 1077.62C700.848 1082.01 696.046 1085.92 690.838 1089.34C690.512 1089.5 690.024 1089.58 689.373 1089.58C688.559 1089.58 687.745 1089.26 686.932 1088.61C686.118 1087.96 685.548 1087.22 685.223 1086.41L684.979 1086.65C684.816 1086.65 684.734 1086.57 684.734 1086.41C684.734 1086.25 684.653 1086.08 684.49 1085.92C682.863 1081.2 681.642 1076.32 680.828 1071.27C680.177 1066.23 679.689 1061.18 679.363 1056.14C679.038 1051.25 678.712 1046.37 678.387 1041.49C678.224 1036.6 677.98 1031.72 677.654 1026.84C677.003 1018.05 676.352 1009.26 675.701 1000.47C675.213 991.52 674.562 982.568 673.748 973.616C668.214 987.451 663.087 1001.37 658.367 1015.36C653.647 1029.36 648.602 1043.36 643.23 1057.36C639.324 1067.45 635.011 1077.29 630.291 1086.9C625.571 1096.5 619.956 1105.61 613.445 1114.24C610.027 1118.64 606.202 1122.7 601.971 1126.45C597.739 1130.19 593.182 1133.45 588.299 1136.21C583.416 1138.98 578.208 1141.1 572.674 1142.56C567.303 1144.19 561.85 1145 556.316 1145C555.503 1145 554.77 1144.6 554.119 1143.78C553.468 1142.97 553.143 1142.15 553.143 1141.34C553.143 1139.39 554.038 1138.25 555.828 1137.92C559.246 1137.11 562.42 1136.46 565.35 1135.97C568.442 1135.32 571.616 1134.34 574.871 1133.04C582.521 1129.62 589.194 1124.9 594.891 1118.88C600.75 1112.86 605.958 1106.18 610.516 1098.86C615.073 1091.54 618.979 1083.89 622.234 1075.91C625.652 1067.94 628.745 1060.29 631.512 1052.96C633.953 1046.45 636.232 1039.86 638.348 1033.19C640.464 1026.51 642.579 1019.92 644.695 1013.41C646.974 1006.74 649.334 1000.15 651.775 993.636C654.38 987.125 657.391 980.778 660.809 974.593C656.251 977.36 651.613 979.882 646.893 982.161C642.173 984.277 637.534 986.718 632.977 989.485C629.559 991.438 626.141 993.636 622.723 996.077C619.305 998.356 616.049 1000.96 612.957 1003.89C609.865 1006.66 607.016 1009.67 604.412 1012.92C601.971 1016.18 600.018 1019.68 598.553 1023.42C597.902 1025.05 597.413 1026.68 597.088 1028.3C596.762 1029.77 596.355 1031.31 595.867 1032.94C595.704 1033.76 595.298 1034.41 594.646 1034.9C593.995 1035.22 593.344 1035.38 592.693 1035.38C592.042 1035.38 591.229 1035.06 590.252 1034.41C589.275 1033.76 588.787 1033.11 588.787 1032.45C588.787 1026.43 589.845 1020.82 591.961 1015.61C594.077 1010.4 596.925 1005.6 600.506 1001.2C604.087 996.647 608.074 992.496 612.469 988.753C617.026 985.009 621.665 981.673 626.385 978.743C633.872 974.023 641.766 969.466 650.066 965.071C658.367 960.514 666.668 956.852 674.969 954.085H675.457C677.085 954.085 678.305 954.736 679.119 956.038C679.607 956.364 679.933 956.852 680.096 957.503C680.258 958.154 680.177 958.724 679.852 959.212C682.618 970.117 684.734 981.185 686.199 992.415C687.664 1003.48 688.966 1014.63 690.105 1025.86C690.919 1034 691.652 1042.06 692.303 1050.03C693.117 1057.84 693.279 1065.82 692.791 1073.96C698.976 1065.82 705.242 1057.84 711.59 1050.03C717.938 1042.06 723.96 1033.92 729.656 1025.62C736.004 1016.5 742.27 1007.55 748.455 998.763C754.64 989.811 760.988 980.94 767.498 972.151C769.777 969.222 772.055 966.211 774.334 963.118C776.775 960.026 779.217 957.096 781.658 954.329C782.309 953.678 783.042 953.353 783.855 953.353C784.832 953.353 785.89 953.922 787.029 955.062C788.169 956.038 788.738 957.015 788.738 957.991V958.479C783.693 976.709 778.159 994.612 772.137 1012.19C766.115 1029.77 760.988 1047.83 756.756 1066.39C754.803 1075.18 753.012 1083.97 751.385 1092.76C749.92 1101.38 749.188 1110.09 749.188 1118.88C749.188 1121.16 749.269 1123.84 749.432 1126.94C749.594 1130.03 750.083 1133.04 750.896 1135.97C751.71 1138.74 752.931 1141.1 754.559 1143.05C756.349 1145 758.872 1145.98 762.127 1145.98C765.057 1145.98 768.312 1145.17 771.893 1143.54C775.473 1142.07 778.891 1140.36 782.146 1138.41C785.564 1136.46 788.494 1134.75 790.936 1133.28C793.377 1131.66 794.842 1130.84 795.33 1130.84C796.307 1130.84 797.202 1131.25 798.016 1132.06C798.829 1132.88 799.236 1133.77 799.236 1134.75Z" fill="#C01E25"/>
<path d="M799.236 1134.75C799.236 1135.56 798.829 1136.38 798.016 1137.19C796.062 1138.98 793.54 1140.93 790.447 1143.05C787.355 1145.17 784.1 1147.12 780.682 1148.91C777.264 1150.86 773.846 1152.49 770.428 1153.79C767.01 1155.09 763.999 1155.75 761.395 1155.75C758.139 1155.75 755.21 1155.09 752.605 1153.79C750.164 1152.49 747.967 1150.7 746.014 1148.42C744.061 1146.31 742.514 1143.86 741.375 1141.1C740.236 1138.33 739.503 1135.48 739.178 1132.55C738.852 1129.46 738.527 1126.45 738.201 1123.52C737.876 1120.43 737.713 1117.33 737.713 1114.24C737.713 1106.43 738.527 1097.4 740.154 1087.14C741.782 1076.72 743.816 1066.15 746.258 1055.4C748.699 1044.5 751.385 1034 754.314 1023.91C757.244 1013.66 760.092 1004.78 762.859 997.298C759.116 1003.32 755.291 1009.26 751.385 1015.12C747.641 1020.98 743.816 1026.76 739.91 1032.45C736.492 1037.66 732.993 1042.87 729.412 1048.08C725.831 1053.29 722.007 1058.41 717.938 1063.46C714.031 1068.51 709.799 1073.23 705.242 1077.62C700.848 1082.01 696.046 1085.92 690.838 1089.34C690.512 1089.5 690.024 1089.58 689.373 1089.58C688.559 1089.58 687.745 1089.26 686.932 1088.61C686.118 1087.96 685.548 1087.22 685.223 1086.41L684.979 1086.65C684.816 1086.65 684.734 1086.57 684.734 1086.41C684.734 1086.25 684.653 1086.08 684.49 1085.92C682.863 1081.2 681.642 1076.32 680.828 1071.27C680.177 1066.23 679.689 1061.18 679.363 1056.14C679.038 1051.25 678.712 1046.37 678.387 1041.49C678.224 1036.6 677.98 1031.72 677.654 1026.84C677.003 1018.05 676.352 1009.26 675.701 1000.47C675.213 991.52 674.562 982.568 673.748 973.616C668.214 987.451 663.087 1001.37 658.367 1015.36C653.647 1029.36 648.602 1043.36 643.23 1057.36C639.324 1067.45 635.011 1077.29 630.291 1086.9C625.571 1096.5 619.956 1105.61 613.445 1114.24C610.027 1118.64 606.202 1122.7 601.971 1126.45C597.739 1130.19 593.182 1133.45 588.299 1136.21C583.416 1138.98 578.208 1141.1 572.674 1142.56C567.303 1144.19 561.85 1145 556.316 1145C555.503 1145 554.77 1144.6 554.119 1143.78C553.468 1142.97 553.143 1142.15 553.143 1141.34C553.143 1139.39 554.038 1138.25 555.828 1137.92C559.246 1137.11 562.42 1136.46 565.35 1135.97C568.442 1135.32 571.616 1134.34 574.871 1133.04C582.521 1129.62 589.194 1124.9 594.891 1118.88C600.75 1112.86 605.958 1106.18 610.516 1098.86C615.073 1091.54 618.979 1083.89 622.234 1075.91C625.652 1067.94 628.745 1060.29 631.512 1052.96C633.953 1046.45 636.232 1039.86 638.348 1033.19C640.464 1026.51 642.579 1019.92 644.695 1013.41C646.974 1006.74 649.334 1000.15 651.775 993.636C654.38 987.125 657.391 980.778 660.809 974.593C656.251 977.36 651.613 979.882 646.893 982.161C642.173 984.277 637.534 986.718 632.977 989.485C629.559 991.438 626.141 993.636 622.723 996.077C619.305 998.356 616.049 1000.96 612.957 1003.89C609.865 1006.66 607.016 1009.67 604.412 1012.92C601.971 1016.18 600.018 1019.68 598.553 1023.42C597.902 1025.05 597.413 1026.68 597.088 1028.3C596.762 1029.77 596.355 1031.31 595.867 1032.94C595.704 1033.76 595.298 1034.41 594.646 1034.9C593.995 1035.22 593.344 1035.38 592.693 1035.38C592.042 1035.38 591.229 1035.06 590.252 1034.41C589.275 1033.76 588.787 1033.11 588.787 1032.45C588.787 1026.43 589.845 1020.82 591.961 1015.61C594.077 1010.4 596.925 1005.6 600.506 1001.2C604.087 996.647 608.074 992.496 612.469 988.753C617.026 985.009 621.665 981.673 626.385 978.743C633.872 974.023 641.766 969.466 650.066 965.071C658.367 960.514 666.668 956.852 674.969 954.085H675.457C677.085 954.085 678.305 954.736 679.119 956.038C679.607 956.364 679.933 956.852 680.096 957.503C680.258 958.154 680.177 958.724 679.852 959.212C682.618 970.117 684.734 981.185 686.199 992.415C687.664 1003.48 688.966 1014.63 690.105 1025.86C690.919 1034 691.652 1042.06 692.303 1050.03C693.117 1057.84 693.279 1065.82 692.791 1073.96C698.976 1065.82 705.242 1057.84 711.59 1050.03C717.938 1042.06 723.96 1033.92 729.656 1025.62C736.004 1016.5 742.27 1007.55 748.455 998.763C754.64 989.811 760.988 980.94 767.498 972.151C769.777 969.222 772.055 966.211 774.334 963.118C776.775 960.026 779.217 957.096 781.658 954.329C782.309 953.678 783.042 953.353 783.855 953.353C784.832 953.353 785.89 953.922 787.029 955.062C788.169 956.038 788.738 957.015 788.738 957.991V958.479C783.693 976.709 778.159 994.612 772.137 1012.19C766.115 1029.77 760.988 1047.83 756.756 1066.39C754.803 1075.18 753.012 1083.97 751.385 1092.76C749.92 1101.38 749.188 1110.09 749.188 1118.88C749.188 1121.16 749.269 1123.84 749.432 1126.94C749.594 1130.03 750.083 1133.04 750.896 1135.97C751.71 1138.74 752.931 1141.1 754.559 1143.05C756.349 1145 758.872 1145.98 762.127 1145.98C765.057 1145.98 768.312 1145.17 771.893 1143.54C775.473 1142.07 778.891 1140.36 782.146 1138.41C785.564 1136.46 788.494 1134.75 790.936 1133.28C793.377 1131.66 794.842 1130.84 795.33 1130.84C796.307 1130.84 797.202 1131.25 798.016 1132.06C798.829 1132.88 799.236 1133.77 799.236 1134.75Z" stroke="#C01E25" stroke-width="14" mask="url(#path-4-outside-1_167_3761)"/>
<path d="M601.727 929.101C603.954 929.101 605.837 930.096 607.115 931.829C608.332 933.139 609.133 934.802 609.133 936.751C609.133 938.267 608.751 940.047 607.375 941.423C601.811 946.986 594.993 951.456 586.983 954.864L586.967 954.871L586.949 954.879C579.264 958.053 571.706 960.325 564.28 961.676C557.153 963.002 550.021 963.914 542.888 964.412C535.862 964.902 528.837 965.311 521.812 965.638L521.771 965.64L521.729 965.641C514.785 965.802 507.84 966.125 500.896 966.609L500.855 966.612L500.815 966.614C494.886 966.89 489.017 967.586 483.209 968.702C482.271 981.193 480.18 993.471 476.933 1005.53C474.053 1016.76 470.792 1027.86 467.153 1038.84C470.217 1038.99 473.248 1039.29 476.244 1039.73C480.639 1040.36 485.032 1040.67 489.422 1040.67C493.38 1040.67 497.253 1040.51 501.043 1040.2C504.902 1039.73 508.681 1039.04 512.381 1038.12C512.599 1038.05 512.857 1037.96 513.156 1037.86C513.522 1037.74 513.95 1037.6 514.438 1037.43L514.511 1037.41L514.583 1037.39C515.681 1037.08 516.69 1036.77 517.612 1036.46L517.685 1036.43L517.757 1036.41C518.818 1036.11 519.676 1035.82 520.349 1035.55L520.444 1035.51L520.542 1035.48C521.049 1035.31 521.49 1035.17 521.847 1035.07C522.022 1035.02 522.213 1034.97 522.399 1034.93C522.503 1034.9 522.898 1034.81 523.357 1034.81C525.785 1034.81 527.578 1036.44 528.7 1037.75C529.28 1038.42 529.812 1039.14 530.214 1039.87C530.595 1040.57 531.008 1041.56 531.008 1042.71C531.008 1044.84 530.016 1046.72 528.155 1047.86L528.156 1047.86C521.607 1052 514.234 1054.99 506.073 1056.86C498.034 1058.7 490.284 1059.64 482.83 1059.64C479.926 1059.64 477.095 1059.46 474.339 1059.12C471.886 1058.81 469.346 1058.66 466.717 1058.66C464.286 1058.66 462.076 1058.84 460.076 1059.17C455.984 1070.66 451.448 1081.93 446.47 1092.97C441.991 1102.91 437.271 1112.79 432.313 1122.61C435.933 1122.79 439.519 1123.17 443.07 1123.72C448.465 1124.54 453.782 1125.44 459.017 1126.42C461.601 1126.82 464.185 1127.23 466.769 1127.63C469.367 1128.03 471.966 1128.44 474.564 1128.85C479.764 1129.63 484.961 1130.03 490.154 1130.03C492.518 1130.03 494.882 1129.95 497.246 1129.79C499.528 1129.64 501.813 1129.34 504.103 1128.88C511.672 1127.33 517.936 1124.66 522.993 1120.94L523.013 1120.93L523.032 1120.92C528.586 1116.95 534.16 1112.33 539.755 1107.06C540.784 1106.05 542.247 1105.13 544.109 1105.13C546.293 1105.13 548.021 1106.21 549.271 1107.6C550.521 1108.71 551.76 1110.35 551.76 1112.53C551.76 1113.76 551.361 1114.89 550.902 1115.81L550.779 1116.05L550.619 1116.28C542.991 1126.95 533.694 1135.08 522.726 1140.57C511.786 1146.03 499.77 1148.75 486.736 1148.75C481.551 1148.75 476.443 1148.41 471.413 1147.74C466.51 1147.25 461.609 1146.6 456.708 1145.78C454.275 1145.46 451.841 1145.13 449.408 1144.81L442.084 1143.83C437.358 1143.2 432.549 1142.89 427.654 1142.89H423.504C422.838 1142.89 422.196 1142.91 421.578 1142.94C421.256 1143.54 420.9 1144.2 420.51 1144.9C420.018 1145.95 419.31 1146.97 418.279 1147.74C417.144 1148.59 415.825 1148.99 414.471 1148.99C412.619 1148.99 410.889 1148.45 409.355 1147.43L409.229 1147.34L409.11 1147.25C408.242 1146.55 407.607 1145.72 407.189 1144.79C406.018 1145.02 404.903 1145.24 403.845 1145.47C401.678 1146.09 399.589 1146.71 397.575 1147.33C395.675 1148.12 393.703 1148.91 391.657 1149.7C389.479 1150.7 387.075 1151.69 384.449 1152.67L383.855 1152.9H382.488C380.238 1152.9 378.359 1151.89 376.976 1150.29C375.584 1148.85 374.838 1147.03 374.838 1145C374.838 1143.49 375.305 1141.94 376.478 1140.7C381.423 1135.24 387.373 1131.18 394.285 1128.54L394.958 1128.29C401.364 1125.85 407.792 1124.17 414.239 1123.24C418.668 1112.97 422.955 1102.7 427.094 1092.42C430.429 1084.02 433.669 1075.58 436.816 1067.08C436.47 1067.24 436.135 1067.41 435.812 1067.57L435.589 1067.68L435.353 1067.76C434.846 1067.93 434.404 1068.07 434.048 1068.17C433.872 1068.22 433.682 1068.27 433.495 1068.31C433.392 1068.33 432.996 1068.42 432.537 1068.42C430.279 1068.42 428.373 1067.42 426.889 1065.93L426.793 1065.84L426.706 1065.74C425.465 1064.29 424.398 1062.45 424.398 1060.29V1059.8C424.398 1059.18 424.553 1058.1 425.451 1057.17C427.679 1053.21 430.81 1049.93 434.775 1047.34C438.349 1044.97 441.964 1043.07 445.619 1041.69C449.594 1029.62 453.052 1017.48 455.989 1005.27C458.556 994.598 461.567 984.039 465.021 973.592C461.439 974.99 457.944 976.662 454.537 978.608L454.522 978.616L454.508 978.625C449.335 981.516 444.768 985.242 440.797 989.824L440.716 989.919L440.627 990.007C439.532 991.101 438.679 992.229 438.038 993.383C437.144 994.993 436.08 996.508 434.858 997.931C433.586 999.806 431.586 1000.55 429.607 1000.55C427.86 1000.55 426.29 999.862 424.98 998.989C423.065 997.713 421.957 995.743 421.957 993.392C421.957 992.979 421.989 992.467 422.123 991.933C422.212 991.578 422.377 991.093 422.696 990.6C427.274 981.523 433.159 974.1 440.385 968.423C447.679 962.656 455.665 958.237 464.331 955.179C472.862 952.006 481.798 949.837 491.132 948.666C500.5 947.351 509.632 946.446 518.524 945.952L518.544 945.95H518.563C533.083 945.305 546.858 943.934 559.891 941.843C572.754 939.618 585.816 935.562 599.081 929.648V929.65C599.986 929.23 600.914 929.101 601.727 929.101Z" fill="#C01E25" stroke="#C01E25" stroke-width="7"/>
<path d="M343.182 944.481C351.103 944.481 358.234 945.947 364.486 948.983H364.485C370.767 951.955 376.057 956.002 380.302 961.131C384.525 966.234 387.663 972.185 389.74 978.935C391.966 985.479 393.068 992.421 393.068 999.739C393.068 1009.8 391.81 1019.54 389.287 1028.96C386.79 1038.29 383.459 1047.28 379.295 1055.94C375.143 1064.58 370.248 1072.96 364.612 1081.08C359.197 1089.12 353.535 1096.83 347.624 1104.22C343.598 1109.25 338.842 1114.34 333.371 1119.48C328.04 1124.64 322.296 1129.38 316.142 1133.71C309.903 1138.09 303.315 1141.64 296.382 1144.35C289.5 1147.26 282.55 1148.75 275.555 1148.75C269.786 1148.75 264.181 1147.78 258.759 1145.86V1145.86C253.39 1144.12 248.509 1141.59 244.14 1138.27C239.731 1134.92 236.029 1130.86 233.042 1126.12L233.002 1126.05L232.965 1125.99C230.101 1120.97 228.423 1115.38 227.887 1109.26L227.398 1104.86L227.377 1104.67V1099.84C227.377 1091.28 228.3 1082.96 230.151 1074.88C231.98 1066.9 234.391 1059.09 237.383 1051.44L237.396 1051.41L237.407 1051.38C240.551 1043.77 244.11 1036.4 248.084 1029.28L248.115 1029.23C252.211 1022.19 256.469 1015.22 260.892 1008.34L260.924 1008.29L260.958 1008.25C263.858 1004.06 266.679 999.784 269.419 995.433L269.443 995.395L269.469 995.356C272.443 990.896 275.581 986.518 278.884 982.225L279.022 982.044L279.184 981.884C280.542 980.526 282.356 979.394 284.588 979.394C286.571 979.394 288.266 980.229 289.512 981.631C290.914 982.876 291.75 984.572 291.75 986.556C291.75 987.644 291.425 988.831 291.082 989.859L290.944 990.272L290.71 990.64C285.501 998.779 280.129 1007.16 274.595 1015.79C269.292 1024.15 264.389 1032.83 259.887 1041.83L259.886 1041.83C255.579 1050.61 251.99 1059.7 249.117 1069.12C246.455 1078.22 245.119 1087.72 245.119 1097.64V1102.52C245.119 1103.58 245.223 1104.8 245.447 1106.18L245.551 1106.78L245.571 1106.89L245.584 1107C246.02 1110.78 247.095 1114.03 248.749 1116.8C250.479 1119.53 252.638 1121.9 255.242 1123.93C257.816 1125.93 260.766 1127.45 264.123 1128.47C267.537 1129.51 271.018 1130.03 274.578 1130.03C279.752 1130.03 284.973 1128.92 290.265 1126.66C295.893 1124.16 301.207 1121.11 306.211 1117.51C311.439 1113.71 316.263 1109.6 320.688 1105.17C325.334 1100.53 329.313 1096.15 332.636 1092.04C337.775 1085.61 342.76 1078.78 347.588 1071.54C352.378 1064.19 356.607 1056.61 360.277 1048.79L360.289 1048.76L360.302 1048.74C364.111 1040.96 367.123 1032.95 369.343 1024.71C371.543 1016.54 372.641 1008.3 372.641 999.983C372.641 994.761 371.95 989.894 370.591 985.364L370.587 985.35L370.582 985.334C369.242 980.718 367.187 976.866 364.459 973.707L364.403 973.643L364.352 973.576C361.782 970.293 358.488 967.701 354.403 965.805L354.358 965.783C350.536 963.943 345.869 962.956 340.252 962.956C333.505 962.956 327.185 964.103 321.265 966.377C315.266 968.745 309.334 971.672 303.467 975.16L303.357 975.225L303.243 975.282C302.164 975.822 300.98 976.14 299.725 976.14C297.87 976.14 296.102 975.591 294.608 974.396L294.305 974.153L294.062 973.85C292.95 972.46 292.318 970.804 292.318 968.978C292.318 966.745 293.451 964.931 294.809 963.573L294.914 963.467L295.028 963.371C301.507 957.915 308.978 953.424 317.412 949.882L317.424 949.877L317.435 949.872C326.105 946.302 334.695 944.481 343.182 944.481Z" fill="#C01E25" stroke="#C01E25" stroke-width="7"/>
<path d="M281.658 935.448C283.822 935.448 285.476 936.592 286.589 937.982C287.595 939.24 288.332 940.802 288.332 942.61C288.332 944.179 287.931 945.804 286.833 947.177C285.744 948.538 284.256 949.292 282.751 949.668L282.715 949.677L282.678 949.686C279.082 950.503 275.727 951.239 272.613 951.895L272.526 951.913L272.438 951.927C269.676 952.363 266.614 953.247 263.24 954.625C255.553 958.015 248.792 962.782 242.937 968.944L242.938 968.945C237.092 975.107 231.787 981.99 227.026 989.604C222.398 997.267 218.327 1005.25 214.813 1013.55C211.414 1021.97 208.258 1030.07 205.346 1037.83C202.444 1045.57 199.535 1054.13 196.622 1063.52L196.619 1063.53L196.617 1063.54C193.676 1072.85 190.489 1082.24 187.06 1091.72C183.76 1101.12 179.964 1110.2 175.67 1118.96L175.669 1118.96C171.485 1127.82 166.523 1135.57 160.762 1142.18L160.683 1142.27L160.598 1142.35C159.547 1143.4 158.251 1143.99 156.922 1144.27C155.971 1144.5 154.98 1144.6 153.973 1144.6C152.721 1144.6 151.391 1144.31 150.2 1143.52C149.013 1142.73 148.243 1141.61 147.787 1140.43C145.251 1134 143.32 1127.02 141.981 1119.49L141.968 1119.41C140.824 1111.89 139.842 1104.77 139.023 1098.06L139.022 1098.05L139.021 1098.04C136.575 1076.84 134.536 1055.72 132.905 1034.68L132.904 1034.66L132.903 1034.65C131.735 1017.78 129.783 1001.01 127.053 984.347C123.08 994.738 119.323 1005.13 115.781 1015.52C110.883 1029.88 105.659 1044.25 100.108 1058.62L100.107 1058.62C96.1706 1068.79 91.8227 1078.72 87.0654 1088.4C82.3976 1098.23 76.6501 1107.56 69.8271 1116.38L69.8213 1116.39C66.2685 1120.96 62.2947 1125.18 57.9033 1129.07C53.4903 1132.97 48.7339 1136.37 43.6377 1139.26C38.5081 1142.17 33.1158 1144.39 27.4668 1145.93C21.7864 1147.65 15.9371 1148.5 9.92969 1148.5C7.76345 1148.5 6.12521 1147.35 5.11426 1145.8C4.17555 1144.57 3.5 1143.07 3.5 1141.34C3.5 1139.85 3.84244 1138.23 4.91895 1136.86C5.98417 1135.5 7.44737 1134.8 8.91211 1134.51C12.185 1133.69 15.3881 1133.03 18.5205 1132.54C21.2017 1131.93 24.0705 1131.03 27.1309 1129.81C34.3339 1126.58 40.6024 1122.14 45.9609 1116.47L45.9785 1116.46L45.9951 1116.44C51.6746 1110.6 56.7291 1104.13 61.1572 1097.01C65.6103 1089.85 69.4269 1082.38 72.6074 1074.59L72.6309 1074.53C76.0308 1066.6 79.1035 1059 81.8506 1051.72C84.2695 1045.27 86.5281 1038.74 88.625 1032.13L88.6367 1032.09L88.6484 1032.06C90.9217 1025.4 93.1132 1018.82 95.2236 1012.33L95.2324 1012.3L95.2402 1012.28C97.5299 1005.57 99.9018 998.95 102.355 992.407L102.369 992.371L102.383 992.336C103.62 989.242 104.931 986.185 106.313 983.163C104.892 983.901 103.464 984.62 102.027 985.313L101.982 985.335L101.938 985.354C97.3537 987.409 92.8434 989.784 88.4062 992.478L88.3984 992.481L88.3906 992.486C82.0452 996.294 75.6767 1000.83 69.2861 1006.1C63.3424 1011.14 58.8797 1017.06 55.8525 1023.87L55.8467 1023.88L55.8408 1023.89C55.1368 1025.44 54.6587 1026.96 54.3887 1028.44L54.3838 1028.47L54.377 1028.5C54.034 1030.22 53.6085 1032 53.1016 1033.86L53.0898 1033.91L53.0771 1033.95C52.6591 1035.34 51.8651 1036.67 50.5381 1037.62C49.2282 1038.56 47.7276 1038.88 46.3066 1038.88C45.3943 1038.88 44.5749 1038.61 44.0303 1038.39C43.4191 1038.15 42.7773 1037.82 42.1289 1037.45L42.0244 1037.39L41.9238 1037.32C40.7359 1036.53 38.9004 1034.96 38.9004 1032.45C38.9004 1026.01 40.0344 1019.95 42.332 1014.29C44.58 1008.76 47.6075 1003.66 51.4062 998.993C55.137 994.252 59.3711 989.937 64.1045 986.049C68.7737 982.213 73.5376 978.785 78.3965 975.77L78.4043 975.765C86.1035 971.014 93.9654 966.428 101.99 962.006L102.004 961.999L102.017 961.991C110.315 957.51 118.79 953.771 127.438 950.777L127.993 950.585H129.07C131.322 950.585 133.304 951.457 134.88 952.995C135.753 953.77 136.511 954.747 136.944 955.96C137.273 956.881 137.371 957.818 137.288 958.731C141.941 974.419 145.484 990.19 147.911 1006.05C150.052 1020.04 152.006 1034.15 153.772 1048.39L154.518 1054.5L154.519 1054.51L156.472 1071.11C157.122 1076.64 157.773 1082.17 158.424 1087.7C159.135 1093.66 159.749 1099.66 160.268 1105.71C164.076 1095.74 167.624 1085.77 170.912 1075.79L170.92 1075.77C175.981 1060.75 181.369 1045.81 187.083 1030.95L187.088 1030.94L187.093 1030.93C191.356 1020.11 195.949 1009.61 200.871 999.436C205.852 988.978 211.829 979.102 218.8 969.808L218.823 969.775L218.848 969.745C222.327 965.317 226.175 961.188 230.39 957.358L231.237 956.596C235.952 952.387 240.933 948.753 246.18 945.704C251.628 942.469 257.344 939.993 263.321 938.281C269.336 936.396 275.452 935.448 281.658 935.448Z" fill="#C01E25" stroke="#C01E25" stroke-width="7"/>
<mask id="path-8-outside-2_167_3761" maskUnits="userSpaceOnUse" x="1522.62" y="943.911" width="233" height="350" fill="black">
<rect fill="white" x="1522.62" y="943.911" width="233" height="350"/>
<path d="M1748.38 1001.45C1748.38 1002.42 1748.13 1003.16 1747.64 1003.65C1741.78 1012.11 1736.25 1020.49 1731.04 1028.79C1726 1036.93 1721.19 1045.23 1716.64 1053.69C1712.08 1062.16 1707.85 1070.87 1703.94 1079.82C1700.2 1088.61 1696.7 1097.88 1693.44 1107.65C1690.19 1117.09 1687.42 1126.69 1685.14 1136.46C1683.03 1146.06 1680.83 1155.75 1678.55 1165.51C1676.43 1175.28 1674.16 1184.96 1671.71 1194.56C1669.27 1204.33 1666.26 1213.93 1662.68 1223.37C1659.43 1231.84 1655.68 1239.81 1651.45 1247.3C1647.22 1254.95 1642.17 1261.62 1636.31 1267.32C1630.62 1273.18 1623.94 1277.73 1616.29 1280.99C1608.65 1284.41 1599.86 1286.12 1589.93 1286.12C1581.46 1286.12 1573.57 1284.73 1566.25 1281.97C1558.92 1279.36 1552.57 1275.54 1547.2 1270.49C1541.67 1265.61 1537.36 1259.67 1534.26 1252.67C1531.17 1245.67 1529.62 1237.86 1529.62 1229.23C1529.62 1220.44 1531.01 1211.57 1533.78 1202.62C1536.38 1193.67 1540.04 1185.04 1544.76 1176.74C1549.48 1168.6 1555.1 1161.12 1561.61 1154.28C1568.12 1147.61 1575.2 1142.15 1582.85 1137.92C1583.5 1137.6 1584.07 1137.43 1584.56 1137.43C1585.53 1137.43 1586.35 1137.76 1587 1138.41C1587.81 1139.22 1588.22 1140.12 1588.22 1141.1C1588.22 1142.4 1587.57 1143.46 1586.27 1144.27C1584.64 1145.57 1583.01 1146.71 1581.38 1147.69C1579.76 1148.83 1578.13 1150.05 1576.5 1151.35C1569.18 1157.37 1562.91 1164.37 1557.7 1172.35C1552.66 1180.32 1548.51 1188.7 1545.25 1197.49C1543.62 1202.21 1542.32 1207.01 1541.34 1211.9C1540.37 1216.94 1539.88 1222.07 1539.88 1227.28C1539.88 1234.77 1541.1 1241.44 1543.54 1247.3C1545.98 1253.16 1549.4 1258.04 1553.79 1261.95C1558.19 1266.02 1563.4 1269.11 1569.42 1271.22C1575.6 1273.34 1582.36 1274.4 1589.68 1274.4C1593.43 1274.4 1597.09 1274.07 1600.67 1273.42C1604.41 1272.77 1608.08 1271.63 1611.66 1270C1617.35 1267.56 1622.48 1263.98 1627.04 1259.26C1631.76 1254.54 1635.91 1249.09 1639.49 1242.9C1643.23 1236.72 1646.49 1230.05 1649.25 1222.88C1652.18 1215.89 1654.71 1208.81 1656.82 1201.64C1658.94 1194.48 1660.73 1187.48 1662.19 1180.65C1663.82 1173.81 1665.2 1167.63 1666.34 1162.09C1668.3 1153.3 1670.25 1144.51 1672.2 1135.73C1674.16 1126.77 1676.35 1117.9 1678.79 1109.11C1676.03 1112.69 1672.69 1116.6 1668.79 1120.83C1665.04 1124.9 1660.89 1128.73 1656.33 1132.31C1651.94 1135.73 1647.3 1138.57 1642.42 1140.85C1637.54 1143.29 1632.65 1144.51 1627.77 1144.51C1622.89 1144.51 1618.9 1143.46 1615.81 1141.34C1612.88 1139.39 1610.6 1136.86 1608.97 1133.77C1607.51 1130.52 1606.45 1126.94 1605.8 1123.03C1605.31 1119.12 1605.06 1115.22 1605.06 1111.31C1605.06 1106.1 1605.39 1101.06 1606.04 1096.17C1606.69 1091.13 1607.59 1086.17 1608.73 1081.28C1612.96 1062.08 1618.17 1043.28 1624.35 1024.89C1630.54 1006.49 1638.27 988.59 1647.54 971.175C1642.82 973.942 1638.02 976.465 1633.14 978.743C1628.42 981.022 1623.7 983.545 1618.98 986.312C1612.63 990.218 1606.29 994.775 1599.94 999.983C1593.75 1005.19 1589.2 1011.38 1586.27 1018.54C1585.61 1020.17 1585.13 1021.71 1584.8 1023.18C1584.48 1024.64 1584.15 1026.19 1583.82 1027.82C1583.34 1029.28 1582.2 1030.01 1580.41 1030.01C1579.59 1030.01 1578.7 1029.69 1577.72 1029.04C1576.91 1028.39 1576.5 1027.57 1576.5 1026.59C1576.5 1020.9 1577.48 1015.61 1579.43 1010.73C1581.55 1005.68 1584.31 1001.04 1587.73 996.81C1591.15 992.578 1594.97 988.753 1599.21 985.335C1603.6 981.754 1607.99 978.58 1612.39 975.813C1619.71 971.256 1627.12 967.024 1634.61 963.118C1642.26 959.049 1650.15 955.55 1658.29 952.62C1658.45 952.132 1658.78 951.725 1659.26 951.399C1659.91 951.074 1660.48 950.911 1660.97 950.911C1661.95 950.911 1662.84 951.318 1663.66 952.132C1664.63 952.783 1665.12 953.678 1665.12 954.817C1665.12 955.306 1665.04 955.631 1664.88 955.794C1662.44 962.467 1659.51 970.035 1656.09 978.499C1652.83 986.963 1649.42 995.914 1645.84 1005.35C1642.26 1014.63 1638.76 1024.23 1635.34 1034.16C1631.92 1043.93 1628.83 1053.53 1626.06 1062.97C1623.46 1072.25 1621.26 1081.2 1619.47 1089.83C1617.84 1098.29 1617.03 1105.94 1617.03 1112.78C1617.03 1115.06 1617.03 1117.42 1617.03 1119.86C1617.19 1122.14 1617.6 1124.25 1618.25 1126.2C1619.06 1128.16 1620.2 1129.78 1621.67 1131.09C1623.29 1132.39 1625.57 1133.04 1628.5 1133.04C1630.62 1133.04 1632.65 1132.71 1634.61 1132.06C1636.56 1131.41 1638.43 1130.68 1640.22 1129.87C1646.08 1126.94 1651.45 1123.36 1656.33 1119.12C1661.22 1114.73 1665.77 1110.01 1670.01 1104.96C1674.4 1099.92 1678.47 1094.71 1682.21 1089.34C1686.12 1083.81 1689.78 1078.43 1693.2 1073.23C1693.52 1072.9 1693.69 1072.66 1693.69 1072.49C1696.62 1066.31 1699.87 1059.96 1703.45 1053.45C1707.03 1046.78 1710.86 1040.27 1714.93 1033.92C1719 1027.41 1723.31 1021.22 1727.87 1015.36C1732.42 1009.34 1737.06 1003.89 1741.78 999.007C1742.6 998.193 1743.57 997.786 1744.71 997.786C1745.69 997.786 1746.5 998.112 1747.15 998.763C1747.97 999.414 1748.38 1000.31 1748.38 1001.45Z"/>
</mask>
<path d="M1748.38 1001.45C1748.38 1002.42 1748.13 1003.16 1747.64 1003.65C1741.78 1012.11 1736.25 1020.49 1731.04 1028.79C1726 1036.93 1721.19 1045.23 1716.64 1053.69C1712.08 1062.16 1707.85 1070.87 1703.94 1079.82C1700.2 1088.61 1696.7 1097.88 1693.44 1107.65C1690.19 1117.09 1687.42 1126.69 1685.14 1136.46C1683.03 1146.06 1680.83 1155.75 1678.55 1165.51C1676.43 1175.28 1674.16 1184.96 1671.71 1194.56C1669.27 1204.33 1666.26 1213.93 1662.68 1223.37C1659.43 1231.84 1655.68 1239.81 1651.45 1247.3C1647.22 1254.95 1642.17 1261.62 1636.31 1267.32C1630.62 1273.18 1623.94 1277.73 1616.29 1280.99C1608.65 1284.41 1599.86 1286.12 1589.93 1286.12C1581.46 1286.12 1573.57 1284.73 1566.25 1281.97C1558.92 1279.36 1552.57 1275.54 1547.2 1270.49C1541.67 1265.61 1537.36 1259.67 1534.26 1252.67C1531.17 1245.67 1529.62 1237.86 1529.62 1229.23C1529.62 1220.44 1531.01 1211.57 1533.78 1202.62C1536.38 1193.67 1540.04 1185.04 1544.76 1176.74C1549.48 1168.6 1555.1 1161.12 1561.61 1154.28C1568.12 1147.61 1575.2 1142.15 1582.85 1137.92C1583.5 1137.6 1584.07 1137.43 1584.56 1137.43C1585.53 1137.43 1586.35 1137.76 1587 1138.41C1587.81 1139.22 1588.22 1140.12 1588.22 1141.1C1588.22 1142.4 1587.57 1143.46 1586.27 1144.27C1584.64 1145.57 1583.01 1146.71 1581.38 1147.69C1579.76 1148.83 1578.13 1150.05 1576.5 1151.35C1569.18 1157.37 1562.91 1164.37 1557.7 1172.35C1552.66 1180.32 1548.51 1188.7 1545.25 1197.49C1543.62 1202.21 1542.32 1207.01 1541.34 1211.9C1540.37 1216.94 1539.88 1222.07 1539.88 1227.28C1539.88 1234.77 1541.1 1241.44 1543.54 1247.3C1545.98 1253.16 1549.4 1258.04 1553.79 1261.95C1558.19 1266.02 1563.4 1269.11 1569.42 1271.22C1575.6 1273.34 1582.36 1274.4 1589.68 1274.4C1593.43 1274.4 1597.09 1274.07 1600.67 1273.42C1604.41 1272.77 1608.08 1271.63 1611.66 1270C1617.35 1267.56 1622.48 1263.98 1627.04 1259.26C1631.76 1254.54 1635.91 1249.09 1639.49 1242.9C1643.23 1236.72 1646.49 1230.05 1649.25 1222.88C1652.18 1215.89 1654.71 1208.81 1656.82 1201.64C1658.94 1194.48 1660.73 1187.48 1662.19 1180.65C1663.82 1173.81 1665.2 1167.63 1666.34 1162.09C1668.3 1153.3 1670.25 1144.51 1672.2 1135.73C1674.16 1126.77 1676.35 1117.9 1678.79 1109.11C1676.03 1112.69 1672.69 1116.6 1668.79 1120.83C1665.04 1124.9 1660.89 1128.73 1656.33 1132.31C1651.94 1135.73 1647.3 1138.57 1642.42 1140.85C1637.54 1143.29 1632.65 1144.51 1627.77 1144.51C1622.89 1144.51 1618.9 1143.46 1615.81 1141.34C1612.88 1139.39 1610.6 1136.86 1608.97 1133.77C1607.51 1130.52 1606.45 1126.94 1605.8 1123.03C1605.31 1119.12 1605.06 1115.22 1605.06 1111.31C1605.06 1106.1 1605.39 1101.06 1606.04 1096.17C1606.69 1091.13 1607.59 1086.17 1608.73 1081.28C1612.96 1062.08 1618.17 1043.28 1624.35 1024.89C1630.54 1006.49 1638.27 988.59 1647.54 971.175C1642.82 973.942 1638.02 976.465 1633.14 978.743C1628.42 981.022 1623.7 983.545 1618.98 986.312C1612.63 990.218 1606.29 994.775 1599.94 999.983C1593.75 1005.19 1589.2 1011.38 1586.27 1018.54C1585.61 1020.17 1585.13 1021.71 1584.8 1023.18C1584.48 1024.64 1584.15 1026.19 1583.82 1027.82C1583.34 1029.28 1582.2 1030.01 1580.41 1030.01C1579.59 1030.01 1578.7 1029.69 1577.72 1029.04C1576.91 1028.39 1576.5 1027.57 1576.5 1026.59C1576.5 1020.9 1577.48 1015.61 1579.43 1010.73C1581.55 1005.68 1584.31 1001.04 1587.73 996.81C1591.15 992.578 1594.97 988.753 1599.21 985.335C1603.6 981.754 1607.99 978.58 1612.39 975.813C1619.71 971.256 1627.12 967.024 1634.61 963.118C1642.26 959.049 1650.15 955.55 1658.29 952.62C1658.45 952.132 1658.78 951.725 1659.26 951.399C1659.91 951.074 1660.48 950.911 1660.97 950.911C1661.95 950.911 1662.84 951.318 1663.66 952.132C1664.63 952.783 1665.12 953.678 1665.12 954.817C1665.12 955.306 1665.04 955.631 1664.88 955.794C1662.44 962.467 1659.51 970.035 1656.09 978.499C1652.83 986.963 1649.42 995.914 1645.84 1005.35C1642.26 1014.63 1638.76 1024.23 1635.34 1034.16C1631.92 1043.93 1628.83 1053.53 1626.06 1062.97C1623.46 1072.25 1621.26 1081.2 1619.47 1089.83C1617.84 1098.29 1617.03 1105.94 1617.03 1112.78C1617.03 1115.06 1617.03 1117.42 1617.03 1119.86C1617.19 1122.14 1617.6 1124.25 1618.25 1126.2C1619.06 1128.16 1620.2 1129.78 1621.67 1131.09C1623.29 1132.39 1625.57 1133.04 1628.5 1133.04C1630.62 1133.04 1632.65 1132.71 1634.61 1132.06C1636.56 1131.41 1638.43 1130.68 1640.22 1129.87C1646.08 1126.94 1651.45 1123.36 1656.33 1119.12C1661.22 1114.73 1665.77 1110.01 1670.01 1104.96C1674.4 1099.92 1678.47 1094.71 1682.21 1089.34C1686.12 1083.81 1689.78 1078.43 1693.2 1073.23C1693.52 1072.9 1693.69 1072.66 1693.69 1072.49C1696.62 1066.31 1699.87 1059.96 1703.45 1053.45C1707.03 1046.78 1710.86 1040.27 1714.93 1033.92C1719 1027.41 1723.31 1021.22 1727.87 1015.36C1732.42 1009.34 1737.06 1003.89 1741.78 999.007C1742.6 998.193 1743.57 997.786 1744.71 997.786C1745.69 997.786 1746.5 998.112 1747.15 998.763C1747.97 999.414 1748.38 1000.31 1748.38 1001.45Z" fill="#C01E25"/>
<path d="M1748.38 1001.45C1748.38 1002.42 1748.13 1003.16 1747.64 1003.65C1741.78 1012.11 1736.25 1020.49 1731.04 1028.79C1726 1036.93 1721.19 1045.23 1716.64 1053.69C1712.08 1062.16 1707.85 1070.87 1703.94 1079.82C1700.2 1088.61 1696.7 1097.88 1693.44 1107.65C1690.19 1117.09 1687.42 1126.69 1685.14 1136.46C1683.03 1146.06 1680.83 1155.75 1678.55 1165.51C1676.43 1175.28 1674.16 1184.96 1671.71 1194.56C1669.27 1204.33 1666.26 1213.93 1662.68 1223.37C1659.43 1231.84 1655.68 1239.81 1651.45 1247.3C1647.22 1254.95 1642.17 1261.62 1636.31 1267.32C1630.62 1273.18 1623.94 1277.73 1616.29 1280.99C1608.65 1284.41 1599.86 1286.12 1589.93 1286.12C1581.46 1286.12 1573.57 1284.73 1566.25 1281.97C1558.92 1279.36 1552.57 1275.54 1547.2 1270.49C1541.67 1265.61 1537.36 1259.67 1534.26 1252.67C1531.17 1245.67 1529.62 1237.86 1529.62 1229.23C1529.62 1220.44 1531.01 1211.57 1533.78 1202.62C1536.38 1193.67 1540.04 1185.04 1544.76 1176.74C1549.48 1168.6 1555.1 1161.12 1561.61 1154.28C1568.12 1147.61 1575.2 1142.15 1582.85 1137.92C1583.5 1137.6 1584.07 1137.43 1584.56 1137.43C1585.53 1137.43 1586.35 1137.76 1587 1138.41C1587.81 1139.22 1588.22 1140.12 1588.22 1141.1C1588.22 1142.4 1587.57 1143.46 1586.27 1144.27C1584.64 1145.57 1583.01 1146.71 1581.38 1147.69C1579.76 1148.83 1578.13 1150.05 1576.5 1151.35C1569.18 1157.37 1562.91 1164.37 1557.7 1172.35C1552.66 1180.32 1548.51 1188.7 1545.25 1197.49C1543.62 1202.21 1542.32 1207.01 1541.34 1211.9C1540.37 1216.94 1539.88 1222.07 1539.88 1227.28C1539.88 1234.77 1541.1 1241.44 1543.54 1247.3C1545.98 1253.16 1549.4 1258.04 1553.79 1261.95C1558.19 1266.02 1563.4 1269.11 1569.42 1271.22C1575.6 1273.34 1582.36 1274.4 1589.68 1274.4C1593.43 1274.4 1597.09 1274.07 1600.67 1273.42C1604.41 1272.77 1608.08 1271.63 1611.66 1270C1617.35 1267.56 1622.48 1263.98 1627.04 1259.26C1631.76 1254.54 1635.91 1249.09 1639.49 1242.9C1643.23 1236.72 1646.49 1230.05 1649.25 1222.88C1652.18 1215.89 1654.71 1208.81 1656.82 1201.64C1658.94 1194.48 1660.73 1187.48 1662.19 1180.65C1663.82 1173.81 1665.2 1167.63 1666.34 1162.09C1668.3 1153.3 1670.25 1144.51 1672.2 1135.73C1674.16 1126.77 1676.35 1117.9 1678.79 1109.11C1676.03 1112.69 1672.69 1116.6 1668.79 1120.83C1665.04 1124.9 1660.89 1128.73 1656.33 1132.31C1651.94 1135.73 1647.3 1138.57 1642.42 1140.85C1637.54 1143.29 1632.65 1144.51 1627.77 1144.51C1622.89 1144.51 1618.9 1143.46 1615.81 1141.34C1612.88 1139.39 1610.6 1136.86 1608.97 1133.77C1607.51 1130.52 1606.45 1126.94 1605.8 1123.03C1605.31 1119.12 1605.06 1115.22 1605.06 1111.31C1605.06 1106.1 1605.39 1101.06 1606.04 1096.17C1606.69 1091.13 1607.59 1086.17 1608.73 1081.28C1612.96 1062.08 1618.17 1043.28 1624.35 1024.89C1630.54 1006.49 1638.27 988.59 1647.54 971.175C1642.82 973.942 1638.02 976.465 1633.14 978.743C1628.42 981.022 1623.7 983.545 1618.98 986.312C1612.63 990.218 1606.29 994.775 1599.94 999.983C1593.75 1005.19 1589.2 1011.38 1586.27 1018.54C1585.61 1020.17 1585.13 1021.71 1584.8 1023.18C1584.48 1024.64 1584.15 1026.19 1583.82 1027.82C1583.34 1029.28 1582.2 1030.01 1580.41 1030.01C1579.59 1030.01 1578.7 1029.69 1577.72 1029.04C1576.91 1028.39 1576.5 1027.57 1576.5 1026.59C1576.5 1020.9 1577.48 1015.61 1579.43 1010.73C1581.55 1005.68 1584.31 1001.04 1587.73 996.81C1591.15 992.578 1594.97 988.753 1599.21 985.335C1603.6 981.754 1607.99 978.58 1612.39 975.813C1619.71 971.256 1627.12 967.024 1634.61 963.118C1642.26 959.049 1650.15 955.55 1658.29 952.62C1658.45 952.132 1658.78 951.725 1659.26 951.399C1659.91 951.074 1660.48 950.911 1660.97 950.911C1661.95 950.911 1662.84 951.318 1663.66 952.132C1664.63 952.783 1665.12 953.678 1665.12 954.817C1665.12 955.306 1665.04 955.631 1664.88 955.794C1662.44 962.467 1659.51 970.035 1656.09 978.499C1652.83 986.963 1649.42 995.914 1645.84 1005.35C1642.26 1014.63 1638.76 1024.23 1635.34 1034.16C1631.92 1043.93 1628.83 1053.53 1626.06 1062.97C1623.46 1072.25 1621.26 1081.2 1619.47 1089.83C1617.84 1098.29 1617.03 1105.94 1617.03 1112.78C1617.03 1115.06 1617.03 1117.42 1617.03 1119.86C1617.19 1122.14 1617.6 1124.25 1618.25 1126.2C1619.06 1128.16 1620.2 1129.78 1621.67 1131.09C1623.29 1132.39 1625.57 1133.04 1628.5 1133.04C1630.62 1133.04 1632.65 1132.71 1634.61 1132.06C1636.56 1131.41 1638.43 1130.68 1640.22 1129.87C1646.08 1126.94 1651.45 1123.36 1656.33 1119.12C1661.22 1114.73 1665.77 1110.01 1670.01 1104.96C1674.4 1099.92 1678.47 1094.71 1682.21 1089.34C1686.12 1083.81 1689.78 1078.43 1693.2 1073.23C1693.52 1072.9 1693.69 1072.66 1693.69 1072.49C1696.62 1066.31 1699.87 1059.96 1703.45 1053.45C1707.03 1046.78 1710.86 1040.27 1714.93 1033.92C1719 1027.41 1723.31 1021.22 1727.87 1015.36C1732.42 1009.34 1737.06 1003.89 1741.78 999.007C1742.6 998.193 1743.57 997.786 1744.71 997.786C1745.69 997.786 1746.5 998.112 1747.15 998.763C1747.97 999.414 1748.38 1000.31 1748.38 1001.45Z" stroke="#C01E25" stroke-width="14" mask="url(#path-8-outside-2_167_3761)"/>
<mask id="path-9-outside-3_167_3761" maskUnits="userSpaceOnUse" x="1344.16" y="925.845" width="244" height="264" fill="black">
<rect fill="white" x="1344.16" y="925.845" width="244" height="264"/>
<path d="M1580.89 1014.63C1580.89 1015.28 1580.65 1015.85 1580.16 1016.34C1576.74 1020.08 1572.84 1023.34 1568.44 1026.11C1564.05 1028.71 1559.33 1030.91 1554.28 1032.7C1549.24 1034.33 1544.11 1035.63 1538.9 1036.6C1533.69 1037.42 1528.65 1037.91 1523.77 1038.07C1521 1054.02 1518.15 1070.13 1515.22 1086.41C1512.29 1102.69 1510.83 1118.96 1510.83 1135.24C1510.83 1139.96 1511.07 1144.6 1511.56 1149.15C1512.21 1153.87 1513.43 1158.02 1515.22 1161.6C1517.17 1165.35 1519.86 1168.28 1523.28 1170.39C1526.86 1172.67 1531.58 1173.81 1537.44 1173.81C1538.41 1173.81 1539.31 1173.73 1540.12 1173.57C1541.1 1173.4 1542.08 1173.32 1543.05 1173.32C1544.19 1173.32 1545.09 1173.73 1545.74 1174.54C1546.39 1175.36 1546.71 1176.33 1546.71 1177.47C1546.71 1178.61 1546.06 1179.51 1544.76 1180.16C1543.62 1180.97 1542.24 1181.54 1540.61 1181.87C1539.15 1182.19 1537.6 1182.44 1535.97 1182.6C1534.35 1182.76 1533.12 1182.84 1532.31 1182.84C1525.31 1182.84 1519.53 1181.38 1514.98 1178.45C1510.58 1175.68 1507.08 1171.94 1504.48 1167.22C1501.87 1162.66 1500 1157.45 1498.86 1151.59C1497.89 1145.9 1497.4 1140.2 1497.4 1134.5C1497.4 1126.69 1497.81 1118.72 1498.62 1110.58C1499.6 1102.44 1500.74 1094.3 1502.04 1086.17C1503.5 1077.86 1505.05 1069.64 1506.68 1061.51C1508.3 1053.37 1509.85 1045.47 1511.31 1037.83C1507.9 1037.66 1504.48 1037.5 1501.06 1037.34C1497.64 1037.17 1494.22 1037.09 1490.81 1037.09C1489.02 1037.09 1487.31 1037.09 1485.68 1037.09C1484.05 1037.09 1482.34 1037.17 1480.55 1037.34C1477.79 1041.73 1474.86 1046.04 1471.76 1050.28C1468.83 1054.51 1465.82 1058.74 1462.73 1062.97C1457.03 1070.78 1450.93 1078.6 1444.42 1086.41C1437.91 1094.06 1430.91 1101.22 1423.42 1107.89C1416.1 1114.57 1408.21 1120.51 1399.74 1125.72C1391.28 1130.92 1382.16 1134.83 1372.4 1137.43C1369.63 1138.25 1366.7 1138.9 1363.61 1139.39C1360.35 1140.04 1357.26 1140.36 1354.33 1140.36C1353.36 1140.36 1352.62 1139.96 1352.13 1139.14C1351.48 1138.33 1351.16 1137.52 1351.16 1136.7C1351.16 1134.75 1351.97 1133.61 1353.6 1133.28C1357.18 1132.47 1360.6 1131.74 1363.85 1131.09C1367.11 1130.27 1370.45 1129.22 1373.86 1127.91C1382.33 1124.66 1390.22 1120.43 1397.54 1115.22C1404.87 1109.85 1411.71 1103.99 1418.05 1097.64C1424.56 1091.13 1430.67 1084.29 1436.36 1077.13C1442.06 1069.97 1447.51 1062.81 1452.72 1055.65C1454.67 1052.88 1456.55 1050.19 1458.34 1047.59C1460.13 1044.99 1461.92 1042.3 1463.71 1039.53C1457.36 1040.84 1451.83 1042.71 1447.11 1045.15C1442.39 1047.43 1437.42 1050.44 1432.21 1054.18C1431.89 1054.51 1431.32 1054.67 1430.5 1054.67C1429.69 1054.67 1428.79 1054.26 1427.82 1053.45C1427 1052.47 1426.6 1051.58 1426.6 1050.76C1426.6 1049.95 1426.84 1049.3 1427.33 1048.81C1432.86 1042.63 1439.62 1037.83 1447.59 1034.41C1455.73 1030.83 1463.79 1028.39 1471.76 1027.08C1475.02 1022.04 1478.44 1016.75 1482.02 1011.21C1485.6 1005.52 1489.26 999.902 1493 994.368C1496.91 988.672 1500.9 983.3 1504.97 978.255C1509.04 973.047 1513.27 968.408 1517.66 964.339C1518.64 963.688 1519.37 963.362 1519.86 963.362H1520.35C1520.18 960.921 1519.78 958.479 1519.13 956.038C1518.64 953.434 1517.74 951.155 1516.44 949.202C1515.3 947.086 1513.76 945.377 1511.8 944.075C1509.85 942.773 1507.41 942.122 1504.48 942.122C1500.57 942.122 1496.5 942.854 1492.27 944.319C1488.2 945.784 1484.3 947.412 1480.55 949.202C1476.97 950.83 1473.88 952.376 1471.28 953.841C1468.67 955.143 1467.04 955.794 1466.39 955.794C1465.42 955.794 1464.52 955.387 1463.71 954.573C1463.06 953.597 1462.73 952.701 1462.73 951.888C1462.73 950.748 1463.3 949.772 1464.44 948.958C1465.25 948.307 1466.23 947.737 1467.37 947.249C1468.51 946.598 1469.57 945.947 1470.54 945.296C1475.91 942.203 1481.61 939.355 1487.63 936.751C1493.82 934.147 1500.17 932.845 1506.68 932.845C1507.98 932.845 1509.36 933.089 1510.83 933.577C1512.29 933.903 1513.59 934.31 1514.73 934.798C1517.99 936.263 1520.67 938.379 1522.79 941.146C1525.07 943.912 1526.78 947.005 1527.92 950.423C1529.22 953.678 1530.11 957.177 1530.6 960.921C1531.09 964.502 1531.33 967.92 1531.33 971.175C1531.33 980.289 1530.85 989.323 1529.87 998.274C1528.89 1007.06 1527.67 1015.93 1526.21 1024.89C1533.04 1024.07 1539.72 1022.85 1546.23 1021.22C1552.9 1019.43 1559.41 1017.24 1565.76 1014.63C1567.55 1013.98 1569.26 1013.33 1570.88 1012.68C1572.51 1011.86 1574.22 1011.05 1576.01 1010.24H1576.74C1577.72 1010.24 1578.62 1010.73 1579.43 1011.7C1580.41 1012.52 1580.89 1013.49 1580.89 1014.63ZM1520.35 974.593C1518.23 978.174 1515.55 982.649 1512.29 988.021C1509.04 993.229 1505.78 998.437 1502.53 1003.65C1499.43 1008.69 1496.58 1013.25 1493.98 1017.32C1491.38 1021.39 1489.67 1023.99 1488.85 1025.13C1490.16 1025.13 1491.46 1025.13 1492.76 1025.13C1494.22 1024.97 1495.69 1024.89 1497.15 1024.89C1499.6 1024.89 1502.04 1024.97 1504.48 1025.13C1507.08 1025.29 1509.61 1025.37 1512.05 1025.37H1513.76C1515.38 1016.91 1516.77 1008.53 1517.91 1000.23C1519.21 991.764 1520.02 983.219 1520.35 974.593Z"/>
</mask>
<path d="M1580.89 1014.63C1580.89 1015.28 1580.65 1015.85 1580.16 1016.34C1576.74 1020.08 1572.84 1023.34 1568.44 1026.11C1564.05 1028.71 1559.33 1030.91 1554.28 1032.7C1549.24 1034.33 1544.11 1035.63 1538.9 1036.6C1533.69 1037.42 1528.65 1037.91 1523.77 1038.07C1521 1054.02 1518.15 1070.13 1515.22 1086.41C1512.29 1102.69 1510.83 1118.96 1510.83 1135.24C1510.83 1139.96 1511.07 1144.6 1511.56 1149.15C1512.21 1153.87 1513.43 1158.02 1515.22 1161.6C1517.17 1165.35 1519.86 1168.28 1523.28 1170.39C1526.86 1172.67 1531.58 1173.81 1537.44 1173.81C1538.41 1173.81 1539.31 1173.73 1540.12 1173.57C1541.1 1173.4 1542.08 1173.32 1543.05 1173.32C1544.19 1173.32 1545.09 1173.73 1545.74 1174.54C1546.39 1175.36 1546.71 1176.33 1546.71 1177.47C1546.71 1178.61 1546.06 1179.51 1544.76 1180.16C1543.62 1180.97 1542.24 1181.54 1540.61 1181.87C1539.15 1182.19 1537.6 1182.44 1535.97 1182.6C1534.35 1182.76 1533.12 1182.84 1532.31 1182.84C1525.31 1182.84 1519.53 1181.38 1514.98 1178.45C1510.58 1175.68 1507.08 1171.94 1504.48 1167.22C1501.87 1162.66 1500 1157.45 1498.86 1151.59C1497.89 1145.9 1497.4 1140.2 1497.4 1134.5C1497.4 1126.69 1497.81 1118.72 1498.62 1110.58C1499.6 1102.44 1500.74 1094.3 1502.04 1086.17C1503.5 1077.86 1505.05 1069.64 1506.68 1061.51C1508.3 1053.37 1509.85 1045.47 1511.31 1037.83C1507.9 1037.66 1504.48 1037.5 1501.06 1037.34C1497.64 1037.17 1494.22 1037.09 1490.81 1037.09C1489.02 1037.09 1487.31 1037.09 1485.68 1037.09C1484.05 1037.09 1482.34 1037.17 1480.55 1037.34C1477.79 1041.73 1474.86 1046.04 1471.76 1050.28C1468.83 1054.51 1465.82 1058.74 1462.73 1062.97C1457.03 1070.78 1450.93 1078.6 1444.42 1086.41C1437.91 1094.06 1430.91 1101.22 1423.42 1107.89C1416.1 1114.57 1408.21 1120.51 1399.74 1125.72C1391.28 1130.92 1382.16 1134.83 1372.4 1137.43C1369.63 1138.25 1366.7 1138.9 1363.61 1139.39C1360.35 1140.04 1357.26 1140.36 1354.33 1140.36C1353.36 1140.36 1352.62 1139.96 1352.13 1139.14C1351.48 1138.33 1351.16 1137.52 1351.16 1136.7C1351.16 1134.75 1351.97 1133.61 1353.6 1133.28C1357.18 1132.47 1360.6 1131.74 1363.85 1131.09C1367.11 1130.27 1370.45 1129.22 1373.86 1127.91C1382.33 1124.66 1390.22 1120.43 1397.54 1115.22C1404.87 1109.85 1411.71 1103.99 1418.05 1097.64C1424.56 1091.13 1430.67 1084.29 1436.36 1077.13C1442.06 1069.97 1447.51 1062.81 1452.72 1055.65C1454.67 1052.88 1456.55 1050.19 1458.34 1047.59C1460.13 1044.99 1461.92 1042.3 1463.71 1039.53C1457.36 1040.84 1451.83 1042.71 1447.11 1045.15C1442.39 1047.43 1437.42 1050.44 1432.21 1054.18C1431.89 1054.51 1431.32 1054.67 1430.5 1054.67C1429.69 1054.67 1428.79 1054.26 1427.82 1053.45C1427 1052.47 1426.6 1051.58 1426.6 1050.76C1426.6 1049.95 1426.84 1049.3 1427.33 1048.81C1432.86 1042.63 1439.62 1037.83 1447.59 1034.41C1455.73 1030.83 1463.79 1028.39 1471.76 1027.08C1475.02 1022.04 1478.44 1016.75 1482.02 1011.21C1485.6 1005.52 1489.26 999.902 1493 994.368C1496.91 988.672 1500.9 983.3 1504.97 978.255C1509.04 973.047 1513.27 968.408 1517.66 964.339C1518.64 963.688 1519.37 963.362 1519.86 963.362H1520.35C1520.18 960.921 1519.78 958.479 1519.13 956.038C1518.64 953.434 1517.74 951.155 1516.44 949.202C1515.3 947.086 1513.76 945.377 1511.8 944.075C1509.85 942.773 1507.41 942.122 1504.48 942.122C1500.57 942.122 1496.5 942.854 1492.27 944.319C1488.2 945.784 1484.3 947.412 1480.55 949.202C1476.97 950.83 1473.88 952.376 1471.28 953.841C1468.67 955.143 1467.04 955.794 1466.39 955.794C1465.42 955.794 1464.52 955.387 1463.71 954.573C1463.06 953.597 1462.73 952.701 1462.73 951.888C1462.73 950.748 1463.3 949.772 1464.44 948.958C1465.25 948.307 1466.23 947.737 1467.37 947.249C1468.51 946.598 1469.57 945.947 1470.54 945.296C1475.91 942.203 1481.61 939.355 1487.63 936.751C1493.82 934.147 1500.17 932.845 1506.68 932.845C1507.98 932.845 1509.36 933.089 1510.83 933.577C1512.29 933.903 1513.59 934.31 1514.73 934.798C1517.99 936.263 1520.67 938.379 1522.79 941.146C1525.07 943.912 1526.78 947.005 1527.92 950.423C1529.22 953.678 1530.11 957.177 1530.6 960.921C1531.09 964.502 1531.33 967.92 1531.33 971.175C1531.33 980.289 1530.85 989.323 1529.87 998.274C1528.89 1007.06 1527.67 1015.93 1526.21 1024.89C1533.04 1024.07 1539.72 1022.85 1546.23 1021.22C1552.9 1019.43 1559.41 1017.24 1565.76 1014.63C1567.55 1013.98 1569.26 1013.33 1570.88 1012.68C1572.51 1011.86 1574.22 1011.05 1576.01 1010.24H1576.74C1577.72 1010.24 1578.62 1010.73 1579.43 1011.7C1580.41 1012.52 1580.89 1013.49 1580.89 1014.63ZM1520.35 974.593C1518.23 978.174 1515.55 982.649 1512.29 988.021C1509.04 993.229 1505.78 998.437 1502.53 1003.65C1499.43 1008.69 1496.58 1013.25 1493.98 1017.32C1491.38 1021.39 1489.67 1023.99 1488.85 1025.13C1490.16 1025.13 1491.46 1025.13 1492.76 1025.13C1494.22 1024.97 1495.69 1024.89 1497.15 1024.89C1499.6 1024.89 1502.04 1024.97 1504.48 1025.13C1507.08 1025.29 1509.61 1025.37 1512.05 1025.37H1513.76C1515.38 1016.91 1516.77 1008.53 1517.91 1000.23C1519.21 991.764 1520.02 983.219 1520.35 974.593Z" fill="#C01E25"/>
<path d="M1580.89 1014.63C1580.89 1015.28 1580.65 1015.85 1580.16 1016.34C1576.74 1020.08 1572.84 1023.34 1568.44 1026.11C1564.05 1028.71 1559.33 1030.91 1554.28 1032.7C1549.24 1034.33 1544.11 1035.63 1538.9 1036.6C1533.69 1037.42 1528.65 1037.91 1523.77 1038.07C1521 1054.02 1518.15 1070.13 1515.22 1086.41C1512.29 1102.69 1510.83 1118.96 1510.83 1135.24C1510.83 1139.96 1511.07 1144.6 1511.56 1149.15C1512.21 1153.87 1513.43 1158.02 1515.22 1161.6C1517.17 1165.35 1519.86 1168.28 1523.28 1170.39C1526.86 1172.67 1531.58 1173.81 1537.44 1173.81C1538.41 1173.81 1539.31 1173.73 1540.12 1173.57C1541.1 1173.4 1542.08 1173.32 1543.05 1173.32C1544.19 1173.32 1545.09 1173.73 1545.74 1174.54C1546.39 1175.36 1546.71 1176.33 1546.71 1177.47C1546.71 1178.61 1546.06 1179.51 1544.76 1180.16C1543.62 1180.97 1542.24 1181.54 1540.61 1181.87C1539.15 1182.19 1537.6 1182.44 1535.97 1182.6C1534.35 1182.76 1533.12 1182.84 1532.31 1182.84C1525.31 1182.84 1519.53 1181.38 1514.98 1178.45C1510.58 1175.68 1507.08 1171.94 1504.48 1167.22C1501.87 1162.66 1500 1157.45 1498.86 1151.59C1497.89 1145.9 1497.4 1140.2 1497.4 1134.5C1497.4 1126.69 1497.81 1118.72 1498.62 1110.58C1499.6 1102.44 1500.74 1094.3 1502.04 1086.17C1503.5 1077.86 1505.05 1069.64 1506.68 1061.51C1508.3 1053.37 1509.85 1045.47 1511.31 1037.83C1507.9 1037.66 1504.48 1037.5 1501.06 1037.34C1497.64 1037.17 1494.22 1037.09 1490.81 1037.09C1489.02 1037.09 1487.31 1037.09 1485.68 1037.09C1484.05 1037.09 1482.34 1037.17 1480.55 1037.34C1477.79 1041.73 1474.86 1046.04 1471.76 1050.28C1468.83 1054.51 1465.82 1058.74 1462.73 1062.97C1457.03 1070.78 1450.93 1078.6 1444.42 1086.41C1437.91 1094.06 1430.91 1101.22 1423.42 1107.89C1416.1 1114.57 1408.21 1120.51 1399.74 1125.72C1391.28 1130.92 1382.16 1134.83 1372.4 1137.43C1369.63 1138.25 1366.7 1138.9 1363.61 1139.39C1360.35 1140.04 1357.26 1140.36 1354.33 1140.36C1353.36 1140.36 1352.62 1139.96 1352.13 1139.14C1351.48 1138.33 1351.16 1137.52 1351.16 1136.7C1351.16 1134.75 1351.97 1133.61 1353.6 1133.28C1357.18 1132.47 1360.6 1131.74 1363.85 1131.09C1367.11 1130.27 1370.45 1129.22 1373.86 1127.91C1382.33 1124.66 1390.22 1120.43 1397.54 1115.22C1404.87 1109.85 1411.71 1103.99 1418.05 1097.64C1424.56 1091.13 1430.67 1084.29 1436.36 1077.13C1442.06 1069.97 1447.51 1062.81 1452.72 1055.65C1454.67 1052.88 1456.55 1050.19 1458.34 1047.59C1460.13 1044.99 1461.92 1042.3 1463.71 1039.53C1457.36 1040.84 1451.83 1042.71 1447.11 1045.15C1442.39 1047.43 1437.42 1050.44 1432.21 1054.18C1431.89 1054.51 1431.32 1054.67 1430.5 1054.67C1429.69 1054.67 1428.79 1054.26 1427.82 1053.45C1427 1052.47 1426.6 1051.58 1426.6 1050.76C1426.6 1049.95 1426.84 1049.3 1427.33 1048.81C1432.86 1042.63 1439.62 1037.83 1447.59 1034.41C1455.73 1030.83 1463.79 1028.39 1471.76 1027.08C1475.02 1022.04 1478.44 1016.75 1482.02 1011.21C1485.6 1005.52 1489.26 999.902 1493 994.368C1496.91 988.672 1500.9 983.3 1504.97 978.255C1509.04 973.047 1513.27 968.408 1517.66 964.339C1518.64 963.688 1519.37 963.362 1519.86 963.362H1520.35C1520.18 960.921 1519.78 958.479 1519.13 956.038C1518.64 953.434 1517.74 951.155 1516.44 949.202C1515.3 947.086 1513.76 945.377 1511.8 944.075C1509.85 942.773 1507.41 942.122 1504.48 942.122C1500.57 942.122 1496.5 942.854 1492.27 944.319C1488.2 945.784 1484.3 947.412 1480.55 949.202C1476.97 950.83 1473.88 952.376 1471.28 953.841C1468.67 955.143 1467.04 955.794 1466.39 955.794C1465.42 955.794 1464.52 955.387 1463.71 954.573C1463.06 953.597 1462.73 952.701 1462.73 951.888C1462.73 950.748 1463.3 949.772 1464.44 948.958C1465.25 948.307 1466.23 947.737 1467.37 947.249C1468.51 946.598 1469.57 945.947 1470.54 945.296C1475.91 942.203 1481.61 939.355 1487.63 936.751C1493.82 934.147 1500.17 932.845 1506.68 932.845C1507.98 932.845 1509.36 933.089 1510.83 933.577C1512.29 933.903 1513.59 934.31 1514.73 934.798C1517.99 936.263 1520.67 938.379 1522.79 941.146C1525.07 943.912 1526.78 947.005 1527.92 950.423C1529.22 953.678 1530.11 957.177 1530.6 960.921C1531.09 964.502 1531.33 967.92 1531.33 971.175C1531.33 980.289 1530.85 989.323 1529.87 998.274C1528.89 1007.06 1527.67 1015.93 1526.21 1024.89C1533.04 1024.07 1539.72 1022.85 1546.23 1021.22C1552.9 1019.43 1559.41 1017.24 1565.76 1014.63C1567.55 1013.98 1569.26 1013.33 1570.88 1012.68C1572.51 1011.86 1574.22 1011.05 1576.01 1010.24H1576.74C1577.72 1010.24 1578.62 1010.73 1579.43 1011.7C1580.41 1012.52 1580.89 1013.49 1580.89 1014.63ZM1520.35 974.593C1518.23 978.174 1515.55 982.649 1512.29 988.021C1509.04 993.229 1505.78 998.437 1502.53 1003.65C1499.43 1008.69 1496.58 1013.25 1493.98 1017.32C1491.38 1021.39 1489.67 1023.99 1488.85 1025.13C1490.16 1025.13 1491.46 1025.13 1492.76 1025.13C1494.22 1024.97 1495.69 1024.89 1497.15 1024.89C1499.6 1024.89 1502.04 1024.97 1504.48 1025.13C1507.08 1025.29 1509.61 1025.37 1512.05 1025.37H1513.76C1515.38 1016.91 1516.77 1008.53 1517.91 1000.23C1519.21 991.764 1520.02 983.219 1520.35 974.593Z" stroke="#C01E25" stroke-width="14" mask="url(#path-9-outside-3_167_3761)"/>
<mask id="path-10-outside-4_167_3761" maskUnits="userSpaceOnUse" x="1149.33" y="946.353" width="261" height="217" fill="black">
<rect fill="white" x="1149.33" y="946.353" width="261" height="217"/>
<path d="M1402.43 1134.75C1402.43 1135.56 1402.02 1136.38 1401.21 1137.19C1399.25 1138.98 1396.73 1140.93 1393.64 1143.05C1390.55 1145.17 1387.29 1147.12 1383.87 1148.91C1380.46 1150.86 1377.04 1152.49 1373.62 1153.79C1370.2 1155.09 1367.19 1155.75 1364.59 1155.75C1361.33 1155.75 1358.4 1155.09 1355.8 1153.79C1353.36 1152.49 1351.16 1150.7 1349.21 1148.42C1347.25 1146.31 1345.71 1143.86 1344.57 1141.1C1343.43 1138.33 1342.69 1135.48 1342.37 1132.55C1342.04 1129.46 1341.72 1126.45 1341.39 1123.52C1341.07 1120.43 1340.9 1117.33 1340.9 1114.24C1340.9 1106.43 1341.72 1097.4 1343.35 1087.14C1344.97 1076.72 1347.01 1066.15 1349.45 1055.4C1351.89 1044.5 1354.58 1034 1357.51 1023.91C1360.44 1013.66 1363.28 1004.78 1366.05 997.298C1362.31 1003.32 1358.48 1009.26 1354.58 1015.12C1350.83 1020.98 1347.01 1026.76 1343.1 1032.45C1339.68 1037.66 1336.18 1042.87 1332.6 1048.08C1329.02 1053.29 1325.2 1058.41 1321.13 1063.46C1317.22 1068.51 1312.99 1073.23 1308.43 1077.62C1304.04 1082.01 1299.24 1085.92 1294.03 1089.34C1293.7 1089.5 1293.22 1089.58 1292.56 1089.58C1291.75 1089.58 1290.94 1089.26 1290.12 1088.61C1289.31 1087.96 1288.74 1087.22 1288.41 1086.41L1288.17 1086.65C1288.01 1086.65 1287.93 1086.57 1287.93 1086.41C1287.93 1086.25 1287.84 1086.08 1287.68 1085.92C1286.05 1081.2 1284.83 1076.32 1284.02 1071.27C1283.37 1066.23 1282.88 1061.18 1282.55 1056.14C1282.23 1051.25 1281.9 1046.37 1281.58 1041.49C1281.42 1036.6 1281.17 1031.72 1280.85 1026.84C1280.19 1018.05 1279.54 1009.26 1278.89 1000.47C1278.4 991.52 1277.75 982.568 1276.94 973.616C1271.41 987.451 1266.28 1001.37 1261.56 1015.36C1256.84 1029.36 1251.79 1043.36 1246.42 1057.36C1242.52 1067.45 1238.2 1077.29 1233.48 1086.9C1228.76 1096.5 1223.15 1105.61 1216.64 1114.24C1213.22 1118.64 1209.39 1122.7 1205.16 1126.45C1200.93 1130.19 1196.37 1133.45 1191.49 1136.21C1186.61 1138.98 1181.4 1141.1 1175.87 1142.56C1170.49 1144.19 1165.04 1145 1159.51 1145C1158.69 1145 1157.96 1144.6 1157.31 1143.78C1156.66 1142.97 1156.33 1142.15 1156.33 1141.34C1156.33 1139.39 1157.23 1138.25 1159.02 1137.92C1162.44 1137.11 1165.61 1136.46 1168.54 1135.97C1171.63 1135.32 1174.81 1134.34 1178.06 1133.04C1185.71 1129.62 1192.39 1124.9 1198.08 1118.88C1203.94 1112.86 1209.15 1106.18 1213.71 1098.86C1218.26 1091.54 1222.17 1083.89 1225.43 1075.91C1228.84 1067.94 1231.94 1060.29 1234.7 1052.96C1237.14 1046.45 1239.42 1039.86 1241.54 1033.19C1243.65 1026.51 1245.77 1019.92 1247.89 1013.41C1250.17 1006.74 1252.53 1000.15 1254.97 993.636C1257.57 987.125 1260.58 980.778 1264 974.593C1259.44 977.36 1254.8 979.882 1250.08 982.161C1245.36 984.277 1240.73 986.718 1236.17 989.485C1232.75 991.438 1229.33 993.636 1225.91 996.077C1222.5 998.356 1219.24 1000.96 1216.15 1003.89C1213.06 1006.66 1210.21 1009.67 1207.6 1012.92C1205.16 1016.18 1203.21 1019.68 1201.74 1023.42C1201.09 1025.05 1200.6 1026.68 1200.28 1028.3C1199.95 1029.77 1199.55 1031.31 1199.06 1032.94C1198.9 1033.76 1198.49 1034.41 1197.84 1034.9C1197.19 1035.22 1196.54 1035.38 1195.88 1035.38C1195.23 1035.38 1194.42 1035.06 1193.44 1034.41C1192.47 1033.76 1191.98 1033.11 1191.98 1032.45C1191.98 1026.43 1193.04 1020.82 1195.15 1015.61C1197.27 1010.4 1200.12 1005.6 1203.7 1001.2C1207.28 996.647 1211.27 992.496 1215.66 988.753C1220.22 985.009 1224.86 981.673 1229.58 978.743C1237.06 974.023 1244.96 969.466 1253.26 965.071C1261.56 960.514 1269.86 956.852 1278.16 954.085H1278.65C1280.28 954.085 1281.5 954.736 1282.31 956.038C1282.8 956.364 1283.12 956.852 1283.29 957.503C1283.45 958.154 1283.37 958.724 1283.04 959.212C1285.81 970.117 1287.93 981.185 1289.39 992.415C1290.86 1003.48 1292.16 1014.63 1293.3 1025.86C1294.11 1034 1294.84 1042.06 1295.49 1050.03C1296.31 1057.84 1296.47 1065.82 1295.98 1073.96C1302.17 1065.82 1308.43 1057.84 1314.78 1050.03C1321.13 1042.06 1327.15 1033.92 1332.85 1025.62C1339.2 1016.5 1345.46 1007.55 1351.65 998.763C1357.83 989.811 1364.18 980.94 1370.69 972.151C1372.97 969.222 1375.25 966.211 1377.53 963.118C1379.97 960.026 1382.41 957.096 1384.85 954.329C1385.5 953.678 1386.23 953.353 1387.05 953.353C1388.02 953.353 1389.08 953.922 1390.22 955.062C1391.36 956.038 1391.93 957.015 1391.93 957.991V958.479C1386.88 976.709 1381.35 994.612 1375.33 1012.19C1369.31 1029.77 1364.18 1047.83 1359.95 1066.39C1357.99 1075.18 1356.2 1083.97 1354.58 1092.76C1353.11 1101.38 1352.38 1110.09 1352.38 1118.88C1352.38 1121.16 1352.46 1123.84 1352.62 1126.94C1352.79 1130.03 1353.27 1133.04 1354.09 1135.97C1354.9 1138.74 1356.12 1141.1 1357.75 1143.05C1359.54 1145 1362.06 1145.98 1365.32 1145.98C1368.25 1145.98 1371.5 1145.17 1375.08 1143.54C1378.66 1142.07 1382.08 1140.36 1385.34 1138.41C1388.76 1136.46 1391.69 1134.75 1394.13 1133.28C1396.57 1131.66 1398.03 1130.84 1398.52 1130.84C1399.5 1130.84 1400.39 1131.25 1401.21 1132.06C1402.02 1132.88 1402.43 1133.77 1402.43 1134.75Z"/>
</mask>
<path d="M1402.43 1134.75C1402.43 1135.56 1402.02 1136.38 1401.21 1137.19C1399.25 1138.98 1396.73 1140.93 1393.64 1143.05C1390.55 1145.17 1387.29 1147.12 1383.87 1148.91C1380.46 1150.86 1377.04 1152.49 1373.62 1153.79C1370.2 1155.09 1367.19 1155.75 1364.59 1155.75C1361.33 1155.75 1358.4 1155.09 1355.8 1153.79C1353.36 1152.49 1351.16 1150.7 1349.21 1148.42C1347.25 1146.31 1345.71 1143.86 1344.57 1141.1C1343.43 1138.33 1342.69 1135.48 1342.37 1132.55C1342.04 1129.46 1341.72 1126.45 1341.39 1123.52C1341.07 1120.43 1340.9 1117.33 1340.9 1114.24C1340.9 1106.43 1341.72 1097.4 1343.35 1087.14C1344.97 1076.72 1347.01 1066.15 1349.45 1055.4C1351.89 1044.5 1354.58 1034 1357.51 1023.91C1360.44 1013.66 1363.28 1004.78 1366.05 997.298C1362.31 1003.32 1358.48 1009.26 1354.58 1015.12C1350.83 1020.98 1347.01 1026.76 1343.1 1032.45C1339.68 1037.66 1336.18 1042.87 1332.6 1048.08C1329.02 1053.29 1325.2 1058.41 1321.13 1063.46C1317.22 1068.51 1312.99 1073.23 1308.43 1077.62C1304.04 1082.01 1299.24 1085.92 1294.03 1089.34C1293.7 1089.5 1293.22 1089.58 1292.56 1089.58C1291.75 1089.58 1290.94 1089.26 1290.12 1088.61C1289.31 1087.96 1288.74 1087.22 1288.41 1086.41L1288.17 1086.65C1288.01 1086.65 1287.93 1086.57 1287.93 1086.41C1287.93 1086.25 1287.84 1086.08 1287.68 1085.92C1286.05 1081.2 1284.83 1076.32 1284.02 1071.27C1283.37 1066.23 1282.88 1061.18 1282.55 1056.14C1282.23 1051.25 1281.9 1046.37 1281.58 1041.49C1281.42 1036.6 1281.17 1031.72 1280.85 1026.84C1280.19 1018.05 1279.54 1009.26 1278.89 1000.47C1278.4 991.52 1277.75 982.568 1276.94 973.616C1271.41 987.451 1266.28 1001.37 1261.56 1015.36C1256.84 1029.36 1251.79 1043.36 1246.42 1057.36C1242.52 1067.45 1238.2 1077.29 1233.48 1086.9C1228.76 1096.5 1223.15 1105.61 1216.64 1114.24C1213.22 1118.64 1209.39 1122.7 1205.16 1126.45C1200.93 1130.19 1196.37 1133.45 1191.49 1136.21C1186.61 1138.98 1181.4 1141.1 1175.87 1142.56C1170.49 1144.19 1165.04 1145 1159.51 1145C1158.69 1145 1157.96 1144.6 1157.31 1143.78C1156.66 1142.97 1156.33 1142.15 1156.33 1141.34C1156.33 1139.39 1157.23 1138.25 1159.02 1137.92C1162.44 1137.11 1165.61 1136.46 1168.54 1135.97C1171.63 1135.32 1174.81 1134.34 1178.06 1133.04C1185.71 1129.62 1192.39 1124.9 1198.08 1118.88C1203.94 1112.86 1209.15 1106.18 1213.71 1098.86C1218.26 1091.54 1222.17 1083.89 1225.43 1075.91C1228.84 1067.94 1231.94 1060.29 1234.7 1052.96C1237.14 1046.45 1239.42 1039.86 1241.54 1033.19C1243.65 1026.51 1245.77 1019.92 1247.89 1013.41C1250.17 1006.74 1252.53 1000.15 1254.97 993.636C1257.57 987.125 1260.58 980.778 1264 974.593C1259.44 977.36 1254.8 979.882 1250.08 982.161C1245.36 984.277 1240.73 986.718 1236.17 989.485C1232.75 991.438 1229.33 993.636 1225.91 996.077C1222.5 998.356 1219.24 1000.96 1216.15 1003.89C1213.06 1006.66 1210.21 1009.67 1207.6 1012.92C1205.16 1016.18 1203.21 1019.68 1201.74 1023.42C1201.09 1025.05 1200.6 1026.68 1200.28 1028.3C1199.95 1029.77 1199.55 1031.31 1199.06 1032.94C1198.9 1033.76 1198.49 1034.41 1197.84 1034.9C1197.19 1035.22 1196.54 1035.38 1195.88 1035.38C1195.23 1035.38 1194.42 1035.06 1193.44 1034.41C1192.47 1033.76 1191.98 1033.11 1191.98 1032.45C1191.98 1026.43 1193.04 1020.82 1195.15 1015.61C1197.27 1010.4 1200.12 1005.6 1203.7 1001.2C1207.28 996.647 1211.27 992.496 1215.66 988.753C1220.22 985.009 1224.86 981.673 1229.58 978.743C1237.06 974.023 1244.96 969.466 1253.26 965.071C1261.56 960.514 1269.86 956.852 1278.16 954.085H1278.65C1280.28 954.085 1281.5 954.736 1282.31 956.038C1282.8 956.364 1283.12 956.852 1283.29 957.503C1283.45 958.154 1283.37 958.724 1283.04 959.212C1285.81 970.117 1287.93 981.185 1289.39 992.415C1290.86 1003.48 1292.16 1014.63 1293.3 1025.86C1294.11 1034 1294.84 1042.06 1295.49 1050.03C1296.31 1057.84 1296.47 1065.82 1295.98 1073.96C1302.17 1065.82 1308.43 1057.84 1314.78 1050.03C1321.13 1042.06 1327.15 1033.92 1332.85 1025.62C1339.2 1016.5 1345.46 1007.55 1351.65 998.763C1357.83 989.811 1364.18 980.94 1370.69 972.151C1372.97 969.222 1375.25 966.211 1377.53 963.118C1379.97 960.026 1382.41 957.096 1384.85 954.329C1385.5 953.678 1386.23 953.353 1387.05 953.353C1388.02 953.353 1389.08 953.922 1390.22 955.062C1391.36 956.038 1391.93 957.015 1391.93 957.991V958.479C1386.88 976.709 1381.35 994.612 1375.33 1012.19C1369.31 1029.77 1364.18 1047.83 1359.95 1066.39C1357.99 1075.18 1356.2 1083.97 1354.58 1092.76C1353.11 1101.38 1352.38 1110.09 1352.38 1118.88C1352.38 1121.16 1352.46 1123.84 1352.62 1126.94C1352.79 1130.03 1353.27 1133.04 1354.09 1135.97C1354.9 1138.74 1356.12 1141.1 1357.75 1143.05C1359.54 1145 1362.06 1145.98 1365.32 1145.98C1368.25 1145.98 1371.5 1145.17 1375.08 1143.54C1378.66 1142.07 1382.08 1140.36 1385.34 1138.41C1388.76 1136.46 1391.69 1134.75 1394.13 1133.28C1396.57 1131.66 1398.03 1130.84 1398.52 1130.84C1399.5 1130.84 1400.39 1131.25 1401.21 1132.06C1402.02 1132.88 1402.43 1133.77 1402.43 1134.75Z" fill="#C01E25"/>
<path d="M1402.43 1134.75C1402.43 1135.56 1402.02 1136.38 1401.21 1137.19C1399.25 1138.98 1396.73 1140.93 1393.64 1143.05C1390.55 1145.17 1387.29 1147.12 1383.87 1148.91C1380.46 1150.86 1377.04 1152.49 1373.62 1153.79C1370.2 1155.09 1367.19 1155.75 1364.59 1155.75C1361.33 1155.75 1358.4 1155.09 1355.8 1153.79C1353.36 1152.49 1351.16 1150.7 1349.21 1148.42C1347.25 1146.31 1345.71 1143.86 1344.57 1141.1C1343.43 1138.33 1342.69 1135.48 1342.37 1132.55C1342.04 1129.46 1341.72 1126.45 1341.39 1123.52C1341.07 1120.43 1340.9 1117.33 1340.9 1114.24C1340.9 1106.43 1341.72 1097.4 1343.35 1087.14C1344.97 1076.72 1347.01 1066.15 1349.45 1055.4C1351.89 1044.5 1354.58 1034 1357.51 1023.91C1360.44 1013.66 1363.28 1004.78 1366.05 997.298C1362.31 1003.32 1358.48 1009.26 1354.58 1015.12C1350.83 1020.98 1347.01 1026.76 1343.1 1032.45C1339.68 1037.66 1336.18 1042.87 1332.6 1048.08C1329.02 1053.29 1325.2 1058.41 1321.13 1063.46C1317.22 1068.51 1312.99 1073.23 1308.43 1077.62C1304.04 1082.01 1299.24 1085.92 1294.03 1089.34C1293.7 1089.5 1293.22 1089.58 1292.56 1089.58C1291.75 1089.58 1290.94 1089.26 1290.12 1088.61C1289.31 1087.96 1288.74 1087.22 1288.41 1086.41L1288.17 1086.65C1288.01 1086.65 1287.93 1086.57 1287.93 1086.41C1287.93 1086.25 1287.84 1086.08 1287.68 1085.92C1286.05 1081.2 1284.83 1076.32 1284.02 1071.27C1283.37 1066.23 1282.88 1061.18 1282.55 1056.14C1282.23 1051.25 1281.9 1046.37 1281.58 1041.49C1281.42 1036.6 1281.17 1031.72 1280.85 1026.84C1280.19 1018.05 1279.54 1009.26 1278.89 1000.47C1278.4 991.52 1277.75 982.568 1276.94 973.616C1271.41 987.451 1266.28 1001.37 1261.56 1015.36C1256.84 1029.36 1251.79 1043.36 1246.42 1057.36C1242.52 1067.45 1238.2 1077.29 1233.48 1086.9C1228.76 1096.5 1223.15 1105.61 1216.64 1114.24C1213.22 1118.64 1209.39 1122.7 1205.16 1126.45C1200.93 1130.19 1196.37 1133.45 1191.49 1136.21C1186.61 1138.98 1181.4 1141.1 1175.87 1142.56C1170.49 1144.19 1165.04 1145 1159.51 1145C1158.69 1145 1157.96 1144.6 1157.31 1143.78C1156.66 1142.97 1156.33 1142.15 1156.33 1141.34C1156.33 1139.39 1157.23 1138.25 1159.02 1137.92C1162.44 1137.11 1165.61 1136.46 1168.54 1135.97C1171.63 1135.32 1174.81 1134.34 1178.06 1133.04C1185.71 1129.62 1192.39 1124.9 1198.08 1118.88C1203.94 1112.86 1209.15 1106.18 1213.71 1098.86C1218.26 1091.54 1222.17 1083.89 1225.43 1075.91C1228.84 1067.94 1231.94 1060.29 1234.7 1052.96C1237.14 1046.45 1239.42 1039.86 1241.54 1033.19C1243.65 1026.51 1245.77 1019.92 1247.89 1013.41C1250.17 1006.74 1252.53 1000.15 1254.97 993.636C1257.57 987.125 1260.58 980.778 1264 974.593C1259.44 977.36 1254.8 979.882 1250.08 982.161C1245.36 984.277 1240.73 986.718 1236.17 989.485C1232.75 991.438 1229.33 993.636 1225.91 996.077C1222.5 998.356 1219.24 1000.96 1216.15 1003.89C1213.06 1006.66 1210.21 1009.67 1207.6 1012.92C1205.16 1016.18 1203.21 1019.68 1201.74 1023.42C1201.09 1025.05 1200.6 1026.68 1200.28 1028.3C1199.95 1029.77 1199.55 1031.31 1199.06 1032.94C1198.9 1033.76 1198.49 1034.41 1197.84 1034.9C1197.19 1035.22 1196.54 1035.38 1195.88 1035.38C1195.23 1035.38 1194.42 1035.06 1193.44 1034.41C1192.47 1033.76 1191.98 1033.11 1191.98 1032.45C1191.98 1026.43 1193.04 1020.82 1195.15 1015.61C1197.27 1010.4 1200.12 1005.6 1203.7 1001.2C1207.28 996.647 1211.27 992.496 1215.66 988.753C1220.22 985.009 1224.86 981.673 1229.58 978.743C1237.06 974.023 1244.96 969.466 1253.26 965.071C1261.56 960.514 1269.86 956.852 1278.16 954.085H1278.65C1280.28 954.085 1281.5 954.736 1282.31 956.038C1282.8 956.364 1283.12 956.852 1283.29 957.503C1283.45 958.154 1283.37 958.724 1283.04 959.212C1285.81 970.117 1287.93 981.185 1289.39 992.415C1290.86 1003.48 1292.16 1014.63 1293.3 1025.86C1294.11 1034 1294.84 1042.06 1295.49 1050.03C1296.31 1057.84 1296.47 1065.82 1295.98 1073.96C1302.17 1065.82 1308.43 1057.84 1314.78 1050.03C1321.13 1042.06 1327.15 1033.92 1332.85 1025.62C1339.2 1016.5 1345.46 1007.55 1351.65 998.763C1357.83 989.811 1364.18 980.94 1370.69 972.151C1372.97 969.222 1375.25 966.211 1377.53 963.118C1379.97 960.026 1382.41 957.096 1384.85 954.329C1385.5 953.678 1386.23 953.353 1387.05 953.353C1388.02 953.353 1389.08 953.922 1390.22 955.062C1391.36 956.038 1391.93 957.015 1391.93 957.991V958.479C1386.88 976.709 1381.35 994.612 1375.33 1012.19C1369.31 1029.77 1364.18 1047.83 1359.95 1066.39C1357.99 1075.18 1356.2 1083.97 1354.58 1092.76C1353.11 1101.38 1352.38 1110.09 1352.38 1118.88C1352.38 1121.16 1352.46 1123.84 1352.62 1126.94C1352.79 1130.03 1353.27 1133.04 1354.09 1135.97C1354.9 1138.74 1356.12 1141.1 1357.75 1143.05C1359.54 1145 1362.06 1145.98 1365.32 1145.98C1368.25 1145.98 1371.5 1145.17 1375.08 1143.54C1378.66 1142.07 1382.08 1140.36 1385.34 1138.41C1388.76 1136.46 1391.69 1134.75 1394.13 1133.28C1396.57 1131.66 1398.03 1130.84 1398.52 1130.84C1399.5 1130.84 1400.39 1131.25 1401.21 1132.06C1402.02 1132.88 1402.43 1133.77 1402.43 1134.75Z" stroke="#C01E25" stroke-width="14" mask="url(#path-10-outside-4_167_3761)"/>
<rect x="1037.39" y="870.566" width="41.2309" height="447.985" fill="#C4AA84"/>
</svg>
