<svg width="586" height="366" viewBox="0 0 586 366" fill="none" xmlns="http://www.w3.org/2000/svg">
<ellipse cx="292.782" cy="182.525" rx="292.782" ry="182.525" fill="#D9D9D9"/>
<rect x="217.782" y="93.0508" width="150" height="150" rx="75" fill="#2F2F49"/>
<path d="M284.746 152.187C284.02 152.187 283.252 151.931 282.442 151.419C281.631 150.907 281.226 150.117 281.226 149.051C281.226 148.624 281.482 147.899 281.994 146.875C282.548 145.851 283.252 144.635 284.106 143.227C285.002 141.819 285.962 140.347 286.986 138.811C288.01 137.275 289.034 135.781 290.058 134.331C290.868 133.179 291.914 131.792 293.194 130.171C294.474 128.549 295.839 126.821 297.29 124.987C298.74 123.152 300.148 121.317 301.514 119.483C302.879 117.648 304.074 115.963 305.098 114.427C305.695 113.531 306.207 112.72 306.634 111.995C307.06 111.227 307.274 110.565 307.274 110.011C307.274 109.499 306.975 109.093 306.378 108.795C305.823 108.496 304.863 108.347 303.498 108.347C302.26 108.347 300.575 108.539 298.442 108.923C296.308 109.264 293.919 109.776 291.274 110.459C288.628 111.099 285.898 111.867 283.082 112.763C280.308 113.659 277.578 114.64 274.89 115.707C272.244 116.731 269.834 117.819 267.658 118.971C265.482 120.08 263.732 121.211 262.41 122.363C261.684 123.003 261.322 123.579 261.322 124.091C261.322 124.816 261.876 125.179 262.986 125.179C263.199 125.307 263.306 125.435 263.306 125.563C263.306 125.861 262.879 125.947 262.026 125.819C261.684 125.733 261.108 125.499 260.298 125.115C259.53 124.688 258.804 124.176 258.122 123.579C257.482 122.939 257.162 122.32 257.162 121.723C257.162 121.253 257.524 120.72 258.25 120.123C258.975 119.525 259.892 118.907 261.002 118.267C262.154 117.627 263.327 117.029 264.522 116.475C265.759 115.877 266.868 115.387 267.85 115.003C268.874 114.576 269.62 114.277 270.09 114.107C272.479 113.253 274.911 112.4 277.386 111.547C279.86 110.693 282.356 109.989 284.874 109.435C285.727 109.221 287.071 108.923 288.906 108.539C290.783 108.155 292.874 107.813 295.178 107.515C297.524 107.173 299.807 107.003 302.026 107.003C303.818 107.003 305.46 107.173 306.954 107.515C308.447 107.813 309.642 108.347 310.538 109.115C311.434 109.84 311.882 110.885 311.882 112.251C311.882 113.019 311.796 113.659 311.626 114.171C311.498 114.683 311.242 115.216 310.858 115.771C310.516 116.283 310.004 117.008 309.322 117.947C308.383 119.312 307.124 120.891 305.546 122.683C304.01 124.475 302.324 126.395 300.49 128.443C298.698 130.491 296.948 132.581 295.242 134.715C293.535 136.805 292.042 138.853 290.762 140.859C290.591 141.072 290.484 141.328 290.442 141.627C290.442 141.883 290.548 141.883 290.762 141.627C291.615 140.688 292.831 139.408 294.41 137.787C295.988 136.165 297.78 134.416 299.786 132.539C301.791 130.619 303.882 128.763 306.058 126.971C308.234 125.179 310.346 123.643 312.394 122.363C313.887 121.381 315.402 120.613 316.938 120.059C318.474 119.504 319.775 119.227 320.842 119.227C321.396 119.227 321.908 119.44 322.378 119.867C322.89 120.251 323.295 120.699 323.594 121.211C323.935 121.723 324.106 122.149 324.106 122.491C324.106 123.344 323.722 124.475 322.954 125.883C322.228 127.248 321.29 128.805 320.138 130.555C319.028 132.304 317.898 134.139 316.746 136.059C315.636 137.979 314.676 139.899 313.866 141.819C313.055 143.739 312.607 145.573 312.522 147.323C311.583 147.408 310.922 147.173 310.538 146.619C310.196 146.021 310.026 145.253 310.026 144.315C310.026 143.376 310.154 142.395 310.41 141.371C310.879 139.195 311.54 137.232 312.394 135.483C313.247 133.691 314.164 131.941 315.146 130.235C316.127 128.528 317.023 126.693 317.834 124.731C318.218 123.749 318.41 123.024 318.41 122.555C318.41 121.915 318.111 121.595 317.514 121.595C316.447 121.595 314.655 122.555 312.138 124.475C310.772 125.541 309.194 126.779 307.402 128.187C305.61 129.552 303.967 130.981 302.474 132.475C299.743 135.205 296.884 138.235 293.898 141.563C290.954 144.891 288.351 148.261 286.09 151.675C285.876 152.016 285.428 152.187 284.746 152.187ZM325.898 151.995C325.599 151.995 325.044 151.781 324.234 151.355C323.423 150.928 322.655 150.437 321.93 149.883C321.29 149.413 320.97 148.581 320.97 147.387C320.97 146.277 321.183 144.997 321.61 143.547C322.079 142.053 322.612 140.56 323.21 139.067C323.85 137.573 324.447 136.251 325.002 135.099C325.599 133.904 326.047 133.051 326.346 132.539C326.943 131.429 327.242 130.747 327.242 130.491C327.242 130.107 326.922 130.128 326.282 130.555C325.684 130.981 324.874 131.685 323.85 132.667C322.868 133.648 321.823 134.779 320.714 136.059C319.604 137.339 318.538 138.661 317.514 140.027C316.49 141.349 315.636 142.587 314.954 143.739C314.655 144.165 314.42 144.379 314.25 144.379C314.079 144.379 313.994 144.272 313.994 144.059C313.994 143.931 314.1 143.611 314.314 143.099C314.442 142.8 314.719 142.331 315.146 141.691C315.572 141.008 316.042 140.283 316.554 139.515C317.066 138.704 317.535 137.979 317.962 137.339C318.431 136.699 318.73 136.293 318.858 136.123C320.607 133.733 322.42 131.536 324.298 129.531C326.175 127.483 328.138 125.477 330.186 123.515C330.655 123.813 331.38 123.963 332.362 123.963C333.386 123.963 334.175 124.176 334.73 124.603C334.943 124.773 335.05 125.051 335.05 125.435C335.05 126.16 334.708 127.184 334.026 128.507C333.343 129.829 332.49 131.323 331.466 132.987C330.484 134.608 329.46 136.251 328.394 137.915C327.327 139.579 326.41 141.136 325.642 142.587C324.874 143.995 324.383 145.147 324.17 146.043C324.127 146.256 324.084 146.469 324.042 146.683C324.042 146.896 324.042 147.109 324.042 147.323C324.042 147.92 324.148 148.453 324.362 148.923C324.575 149.349 324.938 149.563 325.45 149.563C325.876 149.563 326.324 149.413 326.794 149.115C327.22 148.773 327.754 148.283 328.394 147.643C329.034 146.96 329.567 146.469 329.994 146.171C330.207 146 330.378 145.893 330.506 145.851C330.634 145.808 330.612 145.936 330.442 146.235C330.1 146.661 329.695 147.344 329.226 148.283C328.799 149.221 328.308 150.075 327.754 150.843C327.199 151.611 326.58 151.995 325.898 151.995Z" fill="white"/>
<path d="M305.962 189.491C305.562 189.491 305.255 189.411 305.042 189.251C303.095 189.251 301.308 188.411 299.682 186.731C298.082 185.051 296.775 182.517 295.762 179.131C294.802 179.531 293.802 179.851 292.762 180.091C291.748 180.331 290.722 180.451 289.682 180.451C288.695 180.451 287.748 180.251 286.842 179.851C285.962 179.451 285.242 178.904 284.682 178.211C284.148 177.517 283.882 176.744 283.882 175.891C283.882 175.571 283.908 175.277 283.962 175.011C284.015 174.717 284.082 174.451 284.162 174.211C283.575 174.291 282.975 174.331 282.362 174.331C281.695 174.331 281.175 174.157 280.802 173.811C280.428 173.437 280.242 172.997 280.242 172.491C280.242 172.091 280.362 171.691 280.602 171.291C280.842 170.864 281.215 170.491 281.722 170.171C281.855 170.091 281.962 170.051 282.042 170.051C282.122 170.051 282.162 170.077 282.162 170.131C282.162 170.237 282.055 170.371 281.842 170.531C281.522 170.717 281.282 170.944 281.122 171.211C280.988 171.477 280.922 171.744 280.922 172.011C280.922 172.384 281.055 172.731 281.322 173.051C281.615 173.344 281.988 173.491 282.442 173.491C283.135 173.491 283.815 173.451 284.482 173.371C285.015 172.117 285.802 170.931 286.842 169.811C287.908 168.664 289.095 167.597 290.402 166.611C291.735 165.597 293.042 164.664 294.322 163.811C294.482 162.451 294.748 161.184 295.122 160.011C295.522 158.811 296.082 157.837 296.802 157.091C297.522 156.344 298.428 155.971 299.522 155.971C299.762 155.971 299.882 156.037 299.882 156.171C299.882 156.331 299.722 156.411 299.402 156.411C298.762 156.411 298.228 156.691 297.802 157.251C297.402 157.811 297.095 158.544 296.882 159.451C296.695 160.357 296.562 161.357 296.482 162.451L298.562 161.131C298.855 160.917 299.255 160.651 299.762 160.331C300.268 159.984 300.722 159.637 301.122 159.291C301.522 158.917 301.722 158.611 301.722 158.371C301.722 158.051 301.335 157.891 300.562 157.891C300.215 157.891 300.042 157.797 300.042 157.611C300.042 157.504 300.162 157.451 300.402 157.451C300.615 157.451 300.922 157.477 301.322 157.531C301.722 157.557 302.082 157.651 302.402 157.811C302.748 157.944 302.908 158.171 302.882 158.491C302.882 158.971 302.802 159.344 302.642 159.611C302.508 159.877 302.202 160.171 301.722 160.491C301.268 160.811 300.562 161.291 299.602 161.931C299.068 162.277 298.535 162.637 298.002 163.011C297.468 163.357 296.935 163.717 296.402 164.091C296.402 165.051 296.428 165.997 296.482 166.931C296.535 167.864 296.602 168.731 296.682 169.531C297.135 169.371 297.588 169.211 298.042 169.051C298.522 168.891 298.975 168.757 299.402 168.651C299.802 168.517 300.215 168.424 300.642 168.371C301.095 168.291 301.535 168.251 301.962 168.251C302.175 168.251 302.442 168.291 302.762 168.371C303.082 168.424 303.362 168.571 303.602 168.811C303.842 169.024 303.935 169.371 303.882 169.851C303.695 171.344 303.082 172.797 302.042 174.211C301.028 175.597 299.735 176.797 298.162 177.811C298.642 179.704 299.215 181.477 299.882 183.131C300.575 184.811 301.362 186.157 302.242 187.171C303.122 188.184 304.082 188.691 305.122 188.691C305.895 188.691 306.575 188.531 307.162 188.211C307.748 187.917 308.268 187.584 308.722 187.211C309.202 186.837 309.615 186.531 309.962 186.291C309.988 186.264 310.028 186.251 310.082 186.251C310.135 186.251 310.162 186.291 310.162 186.371C310.162 186.504 310.068 186.704 309.882 186.971C309.775 187.157 309.575 187.424 309.282 187.771C309.015 188.144 308.642 188.477 308.162 188.771C307.735 189.037 307.335 189.224 306.962 189.331C306.588 189.437 306.255 189.491 305.962 189.491ZM288.162 172.571C289.175 172.277 290.175 171.944 291.162 171.571C292.175 171.197 293.175 170.824 294.162 170.451C294.135 170.104 294.122 169.744 294.122 169.371C294.122 168.997 294.122 168.624 294.122 168.251C294.122 167.877 294.122 167.491 294.122 167.091C294.122 166.664 294.135 166.251 294.162 165.851C292.988 166.811 291.882 167.851 290.842 168.971C289.828 170.064 288.935 171.264 288.162 172.571ZM297.762 176.131C299.042 175.197 300.148 174.184 301.082 173.091C302.042 171.971 302.575 170.917 302.682 169.931V169.771C302.682 169.477 302.602 169.291 302.442 169.211C302.282 169.131 302.095 169.091 301.882 169.091C301.295 169.091 300.548 169.211 299.642 169.451C298.735 169.664 297.775 169.931 296.762 170.251C296.815 170.864 296.882 171.411 296.962 171.891C297.042 172.371 297.095 172.731 297.122 172.971C297.202 173.477 297.295 173.997 297.402 174.531C297.535 175.064 297.655 175.597 297.762 176.131ZM289.522 179.651C290.562 179.651 291.868 179.317 293.442 178.651C294.082 178.357 294.722 178.037 295.362 177.691C295.175 176.997 295.002 176.277 294.842 175.531C294.708 174.757 294.575 173.957 294.442 173.131C294.415 172.864 294.375 172.571 294.322 172.251C294.295 171.904 294.268 171.531 294.242 171.131L290.242 172.611C289.815 172.744 289.388 172.877 288.962 173.011C288.562 173.144 288.135 173.277 287.682 173.411C287.015 174.691 286.682 175.851 286.682 176.891C286.682 177.717 286.908 178.384 287.362 178.891C287.815 179.397 288.535 179.651 289.522 179.651Z" fill="white"/>
<path d="M291.59 229.403C291.046 229.403 290.47 229.211 289.862 228.827C289.254 228.443 288.95 227.851 288.95 227.051C288.95 226.731 289.142 226.187 289.526 225.419C289.942 224.651 290.47 223.739 291.11 222.683C291.782 221.627 292.502 220.523 293.27 219.371C294.038 218.219 294.806 217.099 295.574 216.011C296.182 215.147 296.966 214.107 297.926 212.891C298.886 211.675 299.91 210.379 300.998 209.003C302.086 207.627 303.142 206.251 304.166 204.875C305.19 203.499 306.086 202.235 306.854 201.083C307.302 200.411 307.686 199.803 308.006 199.259C308.326 198.683 308.486 198.187 308.486 197.771C308.486 197.387 308.262 197.083 307.814 196.859C307.398 196.635 306.678 196.523 305.654 196.523C304.726 196.523 303.462 196.667 301.862 196.955C300.262 197.211 298.47 197.595 296.486 198.107C294.502 198.587 292.454 199.163 290.342 199.835C288.262 200.507 286.214 201.243 284.198 202.043C282.214 202.811 280.406 203.627 278.774 204.491C277.142 205.323 275.83 206.171 274.838 207.035C274.294 207.515 274.022 207.947 274.022 208.331C274.022 208.875 274.438 209.147 275.27 209.147C275.43 209.243 275.51 209.339 275.51 209.435C275.51 209.659 275.19 209.723 274.55 209.627C274.294 209.563 273.862 209.387 273.254 209.099C272.678 208.779 272.134 208.395 271.622 207.947C271.142 207.467 270.902 207.003 270.902 206.555C270.902 206.043 271.446 205.419 272.534 204.683C273.622 203.947 275.094 203.163 276.95 202.331C278.838 201.499 280.95 200.683 283.286 199.883C285.622 199.083 288.054 198.363 290.582 197.723C293.11 197.051 295.574 196.523 297.974 196.139C300.374 195.723 302.566 195.515 304.55 195.515C306.726 195.515 308.502 195.819 309.878 196.427C311.254 197.035 311.942 198.043 311.942 199.451C311.942 200.027 311.878 200.507 311.75 200.891C311.654 201.275 311.462 201.675 311.174 202.091C310.918 202.475 310.534 203.019 310.022 203.723C309.318 204.747 308.374 205.931 307.19 207.275C306.038 208.619 304.774 210.059 303.398 211.595C302.054 213.131 300.742 214.699 299.462 216.299C298.182 217.867 297.062 219.403 296.102 220.907C295.974 221.067 295.894 221.259 295.862 221.483C295.862 221.675 295.942 221.675 296.102 221.483C296.742 220.779 297.654 219.819 298.838 218.603C300.022 217.387 301.366 216.075 302.87 214.667C304.374 213.227 305.942 211.835 307.574 210.491C309.206 209.147 310.79 207.995 312.326 207.035C313.446 206.299 314.502 205.723 315.494 205.307C316.486 204.891 317.382 204.683 318.182 204.683C318.598 204.683 318.982 204.843 319.334 205.163C319.718 205.451 320.022 205.787 320.246 206.171C320.502 206.555 320.63 206.875 320.63 207.131C320.63 207.515 320.39 208.203 319.91 209.195C319.462 210.155 318.886 211.307 318.182 212.651C317.478 213.963 316.742 215.323 315.974 216.731C315.206 218.139 314.502 219.483 313.862 220.763C313.254 222.043 312.822 223.115 312.566 223.979C312.502 224.235 312.438 224.459 312.374 224.651C312.342 224.843 312.326 225.019 312.326 225.179C312.326 225.403 312.406 225.515 312.566 225.515C312.79 225.515 313.174 225.307 313.718 224.891C314.038 224.635 314.438 224.267 314.918 223.787C315.398 223.275 315.798 222.907 316.118 222.683C316.278 222.555 316.406 222.475 316.502 222.443C316.598 222.411 316.582 222.507 316.454 222.731C316.198 223.051 315.894 223.563 315.542 224.267C315.222 224.971 314.854 225.611 314.438 226.187C314.022 226.763 313.558 227.051 313.046 227.051C312.822 227.051 312.406 226.891 311.798 226.571C311.19 226.251 310.614 225.883 310.07 225.467C309.75 225.243 309.542 225.019 309.446 224.795C309.35 224.539 309.302 224.283 309.302 224.027C309.302 223.643 309.35 223.211 309.446 222.731C309.67 221.387 310.102 220.027 310.742 218.651C311.382 217.243 312.118 215.819 312.95 214.379C313.782 212.939 314.582 211.515 315.35 210.107C316.31 208.315 316.79 207.163 316.79 206.651C316.79 206.331 316.646 206.171 316.358 206.171C316.038 206.171 315.51 206.395 314.774 206.843C314.038 207.259 313.158 207.851 312.134 208.619C311.11 209.419 309.926 210.347 308.582 211.403C307.238 212.427 306.006 213.499 304.886 214.619C302.838 216.667 300.694 218.939 298.454 221.435C296.246 223.931 294.294 226.459 292.598 229.019C292.438 229.275 292.102 229.403 291.59 229.403Z" fill="white"/>
<path d="M236.474 324.459C235.108 324.459 233.956 323.989 233.018 323.051C232.164 322.197 231.524 321.173 231.098 319.979C230.671 318.784 230.458 317.76 230.458 316.907C230.458 314.005 231.354 310.933 233.146 307.691C234.938 304.448 237.242 301.419 240.058 298.603C242.959 295.787 245.988 293.483 249.146 291.691C252.303 289.899 255.247 289.003 257.978 289.003C259.94 289.003 261.903 290.325 263.866 292.971C264.036 293.227 264.207 293.568 264.378 293.995C264.634 294.421 264.762 294.848 264.762 295.275C264.762 296.043 264.463 296.555 263.866 296.811C263.78 296.896 263.567 296.64 263.226 296.043C262.97 295.36 262.074 295.019 260.538 295.019C259.087 295.019 257.167 295.701 254.778 297.067C252.388 298.432 249.871 300.224 247.226 302.443C244.666 304.661 242.319 307.051 240.186 309.611C238.138 312.171 236.644 314.645 235.706 317.035C235.535 317.632 235.364 318.229 235.194 318.827C235.023 319.424 234.938 319.936 234.938 320.363C234.938 321.131 235.194 321.515 235.706 321.515C236.218 321.515 236.9 321.216 237.754 320.619C239.546 319.339 241.423 317.76 243.386 315.883C245.348 313.92 247.226 311.915 249.018 309.867C250.895 307.733 252.474 305.728 253.754 303.851C255.034 301.973 255.844 300.437 256.186 299.243C256.356 298.56 257.338 298.219 259.13 298.219C260.58 298.219 261.818 298.56 262.842 299.243C263.866 299.84 264.122 300.523 263.61 301.291C262.074 303.595 260.58 306.027 259.13 308.587C257.679 311.061 256.612 313.579 255.93 316.139C255.844 316.48 255.759 316.779 255.674 317.035C255.674 317.291 255.674 317.504 255.674 317.675C255.674 318.528 256.015 318.955 256.698 318.955C257.466 318.955 258.319 318.571 259.258 317.803C261.05 316.096 262.927 313.92 264.89 311.275C266.938 308.544 269.028 305.856 271.162 303.211C271.93 302.357 272.442 301.931 272.698 301.931C272.954 301.931 273.082 302.144 273.082 302.571C273.082 302.912 272.996 303.253 272.826 303.595C272.484 304.448 272.015 305.344 271.418 306.283C270.82 307.136 270.266 307.904 269.754 308.587C269.327 309.184 268.602 310.251 267.578 311.787C266.554 313.323 265.359 314.944 263.994 316.651C262.628 318.357 261.22 319.851 259.77 321.131C258.319 322.325 256.954 322.923 255.674 322.923C253.882 322.923 252.431 322.368 251.322 321.259C250.298 320.064 249.786 318.997 249.786 318.059C249.786 316.864 249.828 316.053 249.914 315.627C250.084 314.773 250.34 313.749 250.682 312.555C251.108 311.36 251.492 310.208 251.834 309.099C251.151 310.037 250.127 311.36 248.762 313.067C247.396 314.773 245.903 316.523 244.282 318.315C242.746 320.021 241.252 321.472 239.802 322.667C238.351 323.861 237.242 324.459 236.474 324.459ZM288.638 324.587C286.76 324.587 285.182 324.032 283.902 322.923C282.707 321.813 282.11 320.064 282.11 317.675C282.11 315.627 282.451 313.579 283.134 311.531C283.816 309.397 284.542 307.477 285.31 305.771C286.163 304.064 286.846 302.784 287.358 301.931C289.235 298.432 289.832 296.683 289.15 296.683C288.552 296.683 287.187 297.792 285.054 300.011C283.006 302.144 280.488 305.173 277.502 309.099C274.856 312.512 273.107 315.2 272.254 317.163C271.4 319.04 270.846 320.576 270.59 321.771C270.504 322.539 269.864 322.923 268.67 322.923C267.731 322.923 266.792 322.539 265.854 321.771C264.915 320.917 264.446 319.765 264.446 318.315C264.446 317.888 264.83 316.779 265.598 314.987C266.366 313.195 267.262 311.104 268.286 308.715C269.395 306.325 270.462 304.064 271.486 301.931C272.51 299.797 273.278 298.176 273.79 297.067C272.766 296.469 272.552 295.701 273.15 294.763L276.862 287.979C277.118 287.808 277.886 287.509 279.166 287.083C280.531 286.571 281.768 286.315 282.878 286.315C284.414 286.315 285.182 286.827 285.182 287.851C285.182 288.363 284.84 289.216 284.158 290.411C283.902 290.837 283.304 291.904 282.366 293.611C281.427 295.232 280.36 297.152 279.166 299.371C278.056 301.504 276.99 303.552 275.966 305.515C275.027 307.392 274.344 308.8 273.918 309.739C273.918 309.824 273.875 309.909 273.79 309.995C273.79 309.995 273.79 310.037 273.79 310.123C273.79 310.464 274.088 310.165 274.686 309.227C275.368 308.288 275.88 307.605 276.222 307.179C278.782 303.68 281.427 300.437 284.158 297.451C286.974 294.464 289.918 291.52 292.99 288.619C293.587 288.96 294.44 289.173 295.55 289.259C296.744 289.344 297.854 289.557 298.878 289.899C299.902 290.155 300.414 290.837 300.414 291.947C300.414 293.653 299.688 295.573 298.238 297.707C296.872 299.84 295.336 302.016 293.63 304.235C292.008 306.368 290.472 308.928 289.022 311.915C287.571 314.901 286.846 317.419 286.846 319.467C286.846 321.173 287.4 322.027 288.51 322.027C289.022 322.027 289.704 321.771 290.558 321.259C291.24 320.832 292.563 319.765 294.526 318.059C296.488 316.267 298.579 313.792 300.798 310.635C301.48 309.611 302.163 309.099 302.846 309.099C303.187 309.099 303.4 309.269 303.486 309.611C303.571 309.867 303.528 310.208 303.358 310.635C297.384 319.936 292.478 324.587 288.638 324.587ZM287.742 281.835C287.656 281.835 287.571 281.707 287.486 281.451C287.4 281.195 287.358 280.981 287.358 280.811C287.358 279.701 287.998 278.507 289.278 277.227C290.558 275.947 291.496 275.136 292.094 274.795C293.118 273.856 294.526 273.387 296.318 273.387C298.28 273.387 300.158 273.899 301.95 274.923C303.827 275.861 305.747 276.331 307.71 276.331C308.734 276.331 309.544 275.947 310.142 275.179C310.824 274.411 311.379 273.472 311.806 272.363C312.147 272.192 312.403 272.32 312.574 272.747C312.83 274.112 312.36 275.563 311.166 277.099C310.056 278.549 309.203 279.488 308.606 279.915C307.752 280.683 306.686 281.067 305.406 281.067C304.04 281.067 302.718 280.768 301.438 280.171C300.158 279.488 298.878 278.848 297.598 278.251C296.318 277.568 294.952 277.227 293.502 277.227C292.392 277.227 291.496 277.611 290.814 278.379C290.216 279.147 289.704 279.915 289.278 280.683C288.851 281.451 288.339 281.835 287.742 281.835ZM311.981 324.971C309.165 324.971 306.818 323.989 304.941 322.027C303.149 320.064 302.253 317.461 302.253 314.219C302.253 311.488 302.893 308.757 304.173 306.027C305.453 303.211 306.861 300.779 308.397 298.731C310.701 295.744 313.346 293.227 316.333 291.179C319.405 289.131 322.263 288.107 324.909 288.107C325.847 288.107 326.701 288.661 327.469 289.771C328.322 290.795 329.431 291.392 330.797 291.563C331.138 291.648 331.479 291.776 331.821 291.947C332.247 292.032 332.674 292.416 333.101 293.099C334.21 294.976 334.765 296.981 334.765 299.115C334.765 302.272 333.741 305.685 331.693 309.355C329.73 313.024 327.127 316.309 323.885 319.211C322.263 320.661 320.429 321.984 318.381 323.179C316.333 324.373 314.199 324.971 311.981 324.971ZM312.237 322.411C314.285 322.411 316.461 321.6 318.765 319.979C321.069 318.272 323.202 316.181 325.165 313.707C327.213 311.147 328.834 308.544 330.029 305.899C331.309 303.168 331.949 300.779 331.949 298.731C331.949 297.109 331.565 295.915 330.797 295.147C330.029 294.293 329.047 293.867 327.853 293.867C325.719 293.867 323.543 294.933 321.325 297.067C319.106 299.2 316.93 301.632 314.797 304.363C312.919 306.752 311.255 309.227 309.805 311.787C308.439 314.347 307.757 316.565 307.757 318.443C307.757 319.808 308.226 320.832 309.165 321.515C310.103 322.112 311.127 322.411 312.237 322.411ZM344.32 323.051C342.186 323.051 340.266 322.581 338.56 321.643C336.853 320.619 336 319.04 336 316.907C336 316.139 336.128 315.328 336.384 314.475C336.725 313.28 337.194 312.512 337.792 312.171C338.474 311.744 338.773 311.829 338.688 312.427C338.517 313.28 338.688 314.048 339.2 314.731C339.712 315.413 340.394 315.968 341.248 316.395C342.272 316.821 343.125 317.035 343.808 317.035C345.514 317.035 347.05 316.395 348.416 315.115C349.866 313.749 350.592 312.299 350.592 310.763C350.592 309.739 350.293 308.885 349.696 308.203C348.672 306.752 347.52 305.643 346.24 304.875C345.045 304.021 344.106 302.827 343.424 301.291L343.296 301.547C342.613 302.912 341.845 304.192 340.992 305.387C340.224 306.496 339.498 307.563 338.816 308.587C337.536 310.379 336.298 312.085 335.104 313.707C333.994 315.243 332.544 317.035 330.752 319.083C330.154 319.765 329.6 320.107 329.088 320.107C328.576 320.107 328.32 319.808 328.32 319.211C328.32 318.869 328.448 318.528 328.704 318.187C330.666 315.797 332.288 313.749 333.568 312.043C334.933 310.251 336.426 308.16 338.048 305.771C338.901 304.576 339.754 303.253 340.608 301.803C341.546 300.267 342.229 298.816 342.656 297.451C342.57 294.72 343.466 292.373 345.344 290.411C347.221 288.363 349.525 286.827 352.256 285.803C354.986 284.779 357.546 284.352 359.936 284.523C360.533 284.523 361.13 284.992 361.728 285.931C362.41 286.869 362.965 287.851 363.392 288.875C363.904 289.813 364.202 290.368 364.288 290.539V290.795C364.288 291.051 364.16 291.264 363.904 291.435C363.733 291.605 363.434 291.52 363.008 291.179C362.752 291.093 362.325 291.051 361.728 291.051C360.448 291.051 358.912 291.307 357.12 291.819C355.328 292.245 353.536 292.885 351.744 293.739C350.037 294.592 348.629 295.531 347.52 296.555C346.41 297.579 345.941 298.688 346.112 299.883C346.282 300.992 346.752 301.845 347.52 302.443C348.288 303.04 349.226 303.723 350.336 304.491C351.445 305.173 352.64 306.24 353.92 307.691C355.541 309.568 356.352 311.488 356.352 313.451C356.352 315.157 355.797 316.736 354.688 318.187C353.578 319.552 352.256 320.661 350.72 321.515C348.928 322.539 346.794 323.051 344.32 323.051Z" fill="black"/>
<path d="M384.989 240.151C382.989 239.084 380.856 238.551 378.589 238.551C376.322 238.551 374.322 238.084 372.589 237.151C370.856 236.351 369.656 234.351 368.989 231.151C368.856 230.884 368.789 230.551 368.789 230.151C368.789 229.751 368.789 229.417 368.789 229.151C368.789 228.084 368.922 227.084 369.189 226.151C369.456 225.217 369.789 224.284 370.189 223.351C371.522 220.417 372.922 217.551 374.389 214.751C375.856 211.951 377.256 209.151 378.589 206.351C382.456 198.884 386.456 190.617 390.589 181.551C394.856 172.351 398.589 163.017 401.789 153.551C405.122 143.951 407.256 134.817 408.189 126.151C408.322 125.617 408.389 125.084 408.389 124.551C408.389 123.884 408.389 123.151 408.389 122.351C408.389 120.351 408.056 118.351 407.389 116.351C406.856 114.217 405.589 113.151 403.589 113.151C400.922 113.151 398.389 114.484 395.989 117.151C393.722 119.684 391.989 121.951 390.789 123.951C390.389 124.484 389.989 124.951 389.589 125.351C389.189 125.617 388.989 125.484 388.989 124.951C388.989 123.884 389.122 123.084 389.389 122.551C389.789 121.884 390.056 121.084 390.189 120.151C390.722 118.817 391.256 117.084 391.789 114.951C392.322 112.684 393.056 110.684 393.989 108.951C395.056 107.217 396.456 106.351 398.189 106.351C399.122 106.351 400.522 106.817 402.389 107.751C404.256 108.551 406.122 109.484 407.989 110.551C409.989 111.617 411.322 112.417 411.989 112.951C413.456 113.884 414.456 115.017 414.989 116.351C415.656 117.551 416.056 118.884 416.189 120.351C416.589 122.351 416.789 124.617 416.789 127.151C416.789 133.151 415.789 140.084 413.789 147.951C411.922 155.817 409.589 163.817 406.789 171.951C403.989 180.084 401.189 187.751 398.389 194.951C395.589 202.017 393.256 207.884 391.389 212.551C391.256 213.084 390.989 213.884 390.589 214.951C390.189 216.017 390.056 216.951 390.189 217.751C390.189 218.284 390.389 218.551 390.789 218.551C391.722 218.551 393.589 217.151 396.389 214.351C399.322 211.417 402.589 207.817 406.189 203.551C409.922 199.151 413.589 194.684 417.189 190.151C420.922 185.617 424.122 181.617 426.789 178.151C429.589 174.551 431.389 172.217 432.189 171.151C436.189 165.684 440.456 159.684 444.989 153.151C449.656 146.484 454.589 139.884 459.789 133.351C464.989 126.684 470.522 120.617 476.389 115.151C482.389 109.551 488.789 105.084 495.589 101.751C502.522 98.4174 509.922 96.7508 517.789 96.7508C521.922 96.7508 526.322 97.5508 530.989 99.1508C535.789 100.617 539.989 102.951 543.589 106.151C547.189 109.217 549.256 113.217 549.789 118.151C549.789 119.084 549.456 119.551 548.789 119.551C548.389 119.551 548.056 119.351 547.789 118.951C547.522 118.551 547.322 118.217 547.189 117.951C546.922 114.617 545.789 112.151 543.789 110.551C541.922 108.951 539.656 107.884 536.989 107.351C534.322 106.684 531.722 106.351 529.189 106.351C526.389 106.351 523.589 106.551 520.789 106.951C513.722 107.884 506.722 110.217 499.789 113.951C492.989 117.684 486.322 122.351 479.789 127.951C473.256 133.417 466.989 139.417 460.989 145.951C454.989 152.351 449.322 158.884 443.989 165.551C438.656 172.084 433.722 178.217 429.189 183.951C423.456 191.284 417.656 198.551 411.789 205.751C405.922 212.951 399.989 220.151 393.989 227.351C392.256 229.484 390.722 231.617 389.389 233.751C388.189 235.884 386.722 238.017 384.989 240.151Z" fill="black"/>
<path d="M93.5817 241.051C91.1817 239.984 88.2484 238.584 84.7817 236.851C81.4484 235.251 78.5151 233.251 75.9817 230.851C73.5817 228.584 72.5817 226.051 72.9817 223.251C73.7817 217.117 76.5151 210.251 81.1817 202.651C85.8484 195.051 91.9817 187.117 99.5817 178.851C107.182 170.451 115.648 162.184 124.982 154.051C124.315 148.984 123.182 143.717 121.582 138.251C119.982 132.784 117.848 128.051 115.182 124.051C112.648 120.051 109.448 117.717 105.582 117.051C104.248 116.784 102.915 117.051 101.582 117.851C100.382 118.651 99.4484 120.184 98.7817 122.451C98.2484 124.051 97.3817 124.851 96.1817 124.851C94.8484 124.851 94.3817 124.184 94.7817 122.851C95.1817 121.384 96.0484 119.784 97.3817 118.051C98.7151 116.317 100.115 114.717 101.582 113.251C103.048 111.784 104.115 110.784 104.782 110.251C107.048 108.651 109.115 107.517 110.982 106.851C112.982 106.184 114.782 105.851 116.382 105.851C119.715 105.851 122.382 107.184 124.382 109.851C126.515 112.517 128.182 115.917 129.382 120.051C130.582 124.184 131.448 128.651 131.982 133.451C132.648 138.117 133.248 142.451 133.782 146.451C144.982 137.117 156.315 128.051 167.782 119.251C179.382 110.317 190.648 102.917 201.582 97.0508C201.848 96.9174 201.848 96.7174 201.582 96.4508C201.315 96.1841 200.982 95.9841 200.582 95.8508C199.115 95.8508 198.382 95.6508 198.382 95.2508C198.382 94.9841 198.982 94.7174 200.182 94.4508C203.915 94.3174 207.048 93.7174 209.582 92.6508C212.248 91.4508 214.515 90.4508 216.382 89.6508C217.582 89.1174 219.182 89.3174 221.182 90.2508C223.182 91.1841 224.915 92.3841 226.382 93.8508C227.982 95.1841 228.782 96.4508 228.782 97.6508C228.782 98.3174 228.382 98.8508 227.582 99.2508C219.048 102.317 209.515 106.717 198.982 112.451C188.448 118.051 177.648 124.451 166.582 131.651C155.515 138.851 144.848 146.451 134.582 154.451L134.782 156.051C135.048 157.917 135.515 161.251 136.182 166.051C136.848 170.717 137.782 175.984 138.982 181.851C140.315 187.717 141.915 193.451 143.782 199.051C145.648 204.517 147.848 209.051 150.382 212.651C152.915 216.251 155.848 218.051 159.182 218.051C160.915 218.051 162.648 217.451 164.382 216.251C167.048 214.384 169.182 211.984 170.782 209.051C172.515 205.984 173.648 203.184 174.182 200.651C174.448 199.584 174.848 198.984 175.382 198.851C176.048 198.584 176.382 198.584 176.382 198.851C176.648 200.051 176.515 201.251 175.982 202.451C175.448 203.651 175.182 204.784 175.182 205.851C175.048 208.117 174.915 210.251 174.782 212.251C174.782 214.117 173.648 216.051 171.382 218.051C170.448 218.984 169.848 219.451 169.582 219.451C169.448 219.451 169.248 219.451 168.982 219.451C168.848 219.317 168.515 219.251 167.982 219.251C167.048 219.251 165.448 219.517 163.182 220.051C160.248 222.451 157.515 224.184 154.982 225.251C152.582 226.317 150.315 226.851 148.182 226.851C144.182 226.851 140.915 225.184 138.382 221.851C135.982 218.517 134.048 214.251 132.582 209.051C131.115 203.851 129.982 198.317 129.182 192.451C128.515 186.584 127.982 181.117 127.582 176.051C127.315 170.851 126.982 166.784 126.582 163.851L126.182 161.451C117.915 168.384 110.648 175.451 104.382 182.651C98.1151 189.717 93.1151 196.584 89.3817 203.251C85.6484 209.917 83.4484 215.917 82.7817 221.251C82.3817 224.584 83.4484 227.851 85.9817 231.051C88.6484 234.384 91.6484 236.784 94.9817 238.251C95.5151 238.384 95.7817 238.784 95.7817 239.451C95.7817 239.984 95.5151 240.451 94.9817 240.851C94.5817 241.251 94.1151 241.317 93.5817 241.051Z" fill="black"/>
<rect x="217.782" y="93.0508" width="150" height="150" rx="75" fill="#A02C2B"/>
<rect x="217.782" y="93.0508" width="150" height="150" rx="75" fill="#2F2F49"/>
<path d="M284.746 152.187C284.02 152.187 283.252 151.931 282.442 151.419C281.631 150.907 281.226 150.117 281.226 149.051C281.226 148.624 281.482 147.899 281.994 146.875C282.548 145.851 283.252 144.635 284.106 143.227C285.002 141.819 285.962 140.347 286.986 138.811C288.01 137.275 289.034 135.781 290.058 134.331C290.868 133.179 291.914 131.792 293.194 130.171C294.474 128.549 295.839 126.821 297.29 124.987C298.74 123.152 300.148 121.317 301.514 119.483C302.879 117.648 304.074 115.963 305.098 114.427C305.695 113.531 306.207 112.72 306.634 111.995C307.06 111.227 307.274 110.565 307.274 110.011C307.274 109.499 306.975 109.093 306.378 108.795C305.823 108.496 304.863 108.347 303.498 108.347C302.26 108.347 300.575 108.539 298.442 108.923C296.308 109.264 293.919 109.776 291.274 110.459C288.628 111.099 285.898 111.867 283.082 112.763C280.308 113.659 277.578 114.64 274.89 115.707C272.244 116.731 269.834 117.819 267.658 118.971C265.482 120.08 263.732 121.211 262.41 122.363C261.684 123.003 261.322 123.579 261.322 124.091C261.322 124.816 261.876 125.179 262.986 125.179C263.199 125.307 263.306 125.435 263.306 125.563C263.306 125.861 262.879 125.947 262.026 125.819C261.684 125.733 261.108 125.499 260.298 125.115C259.53 124.688 258.804 124.176 258.122 123.579C257.482 122.939 257.162 122.32 257.162 121.723C257.162 121.253 257.524 120.72 258.25 120.123C258.975 119.525 259.892 118.907 261.002 118.267C262.154 117.627 263.327 117.029 264.522 116.475C265.759 115.877 266.868 115.387 267.85 115.003C268.874 114.576 269.62 114.277 270.09 114.107C272.479 113.253 274.911 112.4 277.386 111.547C279.86 110.693 282.356 109.989 284.874 109.435C285.727 109.221 287.071 108.923 288.906 108.539C290.783 108.155 292.874 107.813 295.178 107.515C297.524 107.173 299.807 107.003 302.026 107.003C303.818 107.003 305.46 107.173 306.954 107.515C308.447 107.813 309.642 108.347 310.538 109.115C311.434 109.84 311.882 110.885 311.882 112.251C311.882 113.019 311.796 113.659 311.626 114.171C311.498 114.683 311.242 115.216 310.858 115.771C310.516 116.283 310.004 117.008 309.322 117.947C308.383 119.312 307.124 120.891 305.546 122.683C304.01 124.475 302.324 126.395 300.49 128.443C298.698 130.491 296.948 132.581 295.242 134.715C293.535 136.805 292.042 138.853 290.762 140.859C290.591 141.072 290.484 141.328 290.442 141.627C290.442 141.883 290.548 141.883 290.762 141.627C291.615 140.688 292.831 139.408 294.41 137.787C295.988 136.165 297.78 134.416 299.786 132.539C301.791 130.619 303.882 128.763 306.058 126.971C308.234 125.179 310.346 123.643 312.394 122.363C313.887 121.381 315.402 120.613 316.938 120.059C318.474 119.504 319.775 119.227 320.842 119.227C321.396 119.227 321.908 119.44 322.378 119.867C322.89 120.251 323.295 120.699 323.594 121.211C323.935 121.723 324.106 122.149 324.106 122.491C324.106 123.344 323.722 124.475 322.954 125.883C322.228 127.248 321.29 128.805 320.138 130.555C319.028 132.304 317.898 134.139 316.746 136.059C315.636 137.979 314.676 139.899 313.866 141.819C313.055 143.739 312.607 145.573 312.522 147.323C311.583 147.408 310.922 147.173 310.538 146.619C310.196 146.021 310.026 145.253 310.026 144.315C310.026 143.376 310.154 142.395 310.41 141.371C310.879 139.195 311.54 137.232 312.394 135.483C313.247 133.691 314.164 131.941 315.146 130.235C316.127 128.528 317.023 126.693 317.834 124.731C318.218 123.749 318.41 123.024 318.41 122.555C318.41 121.915 318.111 121.595 317.514 121.595C316.447 121.595 314.655 122.555 312.138 124.475C310.772 125.541 309.194 126.779 307.402 128.187C305.61 129.552 303.967 130.981 302.474 132.475C299.743 135.205 296.884 138.235 293.898 141.563C290.954 144.891 288.351 148.261 286.09 151.675C285.876 152.016 285.428 152.187 284.746 152.187ZM325.898 151.995C325.599 151.995 325.044 151.781 324.234 151.355C323.423 150.928 322.655 150.437 321.93 149.883C321.29 149.413 320.97 148.581 320.97 147.387C320.97 146.277 321.183 144.997 321.61 143.547C322.079 142.053 322.612 140.56 323.21 139.067C323.85 137.573 324.447 136.251 325.002 135.099C325.599 133.904 326.047 133.051 326.346 132.539C326.943 131.429 327.242 130.747 327.242 130.491C327.242 130.107 326.922 130.128 326.282 130.555C325.684 130.981 324.874 131.685 323.85 132.667C322.868 133.648 321.823 134.779 320.714 136.059C319.604 137.339 318.538 138.661 317.514 140.027C316.49 141.349 315.636 142.587 314.954 143.739C314.655 144.165 314.42 144.379 314.25 144.379C314.079 144.379 313.994 144.272 313.994 144.059C313.994 143.931 314.1 143.611 314.314 143.099C314.442 142.8 314.719 142.331 315.146 141.691C315.572 141.008 316.042 140.283 316.554 139.515C317.066 138.704 317.535 137.979 317.962 137.339C318.431 136.699 318.73 136.293 318.858 136.123C320.607 133.733 322.42 131.536 324.298 129.531C326.175 127.483 328.138 125.477 330.186 123.515C330.655 123.813 331.38 123.963 332.362 123.963C333.386 123.963 334.175 124.176 334.73 124.603C334.943 124.773 335.05 125.051 335.05 125.435C335.05 126.16 334.708 127.184 334.026 128.507C333.343 129.829 332.49 131.323 331.466 132.987C330.484 134.608 329.46 136.251 328.394 137.915C327.327 139.579 326.41 141.136 325.642 142.587C324.874 143.995 324.383 145.147 324.17 146.043C324.127 146.256 324.084 146.469 324.042 146.683C324.042 146.896 324.042 147.109 324.042 147.323C324.042 147.92 324.148 148.453 324.362 148.923C324.575 149.349 324.938 149.563 325.45 149.563C325.876 149.563 326.324 149.413 326.794 149.115C327.22 148.773 327.754 148.283 328.394 147.643C329.034 146.96 329.567 146.469 329.994 146.171C330.207 146 330.378 145.893 330.506 145.851C330.634 145.808 330.612 145.936 330.442 146.235C330.1 146.661 329.695 147.344 329.226 148.283C328.799 149.221 328.308 150.075 327.754 150.843C327.199 151.611 326.58 151.995 325.898 151.995Z" fill="white"/>
<path d="M305.962 189.491C305.562 189.491 305.255 189.411 305.042 189.251C303.095 189.251 301.308 188.411 299.682 186.731C298.082 185.051 296.775 182.517 295.762 179.131C294.802 179.531 293.802 179.851 292.762 180.091C291.748 180.331 290.722 180.451 289.682 180.451C288.695 180.451 287.748 180.251 286.842 179.851C285.962 179.451 285.242 178.904 284.682 178.211C284.148 177.517 283.882 176.744 283.882 175.891C283.882 175.571 283.908 175.277 283.962 175.011C284.015 174.717 284.082 174.451 284.162 174.211C283.575 174.291 282.975 174.331 282.362 174.331C281.695 174.331 281.175 174.157 280.802 173.811C280.428 173.437 280.242 172.997 280.242 172.491C280.242 172.091 280.362 171.691 280.602 171.291C280.842 170.864 281.215 170.491 281.722 170.171C281.855 170.091 281.962 170.051 282.042 170.051C282.122 170.051 282.162 170.077 282.162 170.131C282.162 170.237 282.055 170.371 281.842 170.531C281.522 170.717 281.282 170.944 281.122 171.211C280.988 171.477 280.922 171.744 280.922 172.011C280.922 172.384 281.055 172.731 281.322 173.051C281.615 173.344 281.988 173.491 282.442 173.491C283.135 173.491 283.815 173.451 284.482 173.371C285.015 172.117 285.802 170.931 286.842 169.811C287.908 168.664 289.095 167.597 290.402 166.611C291.735 165.597 293.042 164.664 294.322 163.811C294.482 162.451 294.748 161.184 295.122 160.011C295.522 158.811 296.082 157.837 296.802 157.091C297.522 156.344 298.428 155.971 299.522 155.971C299.762 155.971 299.882 156.037 299.882 156.171C299.882 156.331 299.722 156.411 299.402 156.411C298.762 156.411 298.228 156.691 297.802 157.251C297.402 157.811 297.095 158.544 296.882 159.451C296.695 160.357 296.562 161.357 296.482 162.451L298.562 161.131C298.855 160.917 299.255 160.651 299.762 160.331C300.268 159.984 300.722 159.637 301.122 159.291C301.522 158.917 301.722 158.611 301.722 158.371C301.722 158.051 301.335 157.891 300.562 157.891C300.215 157.891 300.042 157.797 300.042 157.611C300.042 157.504 300.162 157.451 300.402 157.451C300.615 157.451 300.922 157.477 301.322 157.531C301.722 157.557 302.082 157.651 302.402 157.811C302.748 157.944 302.908 158.171 302.882 158.491C302.882 158.971 302.802 159.344 302.642 159.611C302.508 159.877 302.202 160.171 301.722 160.491C301.268 160.811 300.562 161.291 299.602 161.931C299.068 162.277 298.535 162.637 298.002 163.011C297.468 163.357 296.935 163.717 296.402 164.091C296.402 165.051 296.428 165.997 296.482 166.931C296.535 167.864 296.602 168.731 296.682 169.531C297.135 169.371 297.588 169.211 298.042 169.051C298.522 168.891 298.975 168.757 299.402 168.651C299.802 168.517 300.215 168.424 300.642 168.371C301.095 168.291 301.535 168.251 301.962 168.251C302.175 168.251 302.442 168.291 302.762 168.371C303.082 168.424 303.362 168.571 303.602 168.811C303.842 169.024 303.935 169.371 303.882 169.851C303.695 171.344 303.082 172.797 302.042 174.211C301.028 175.597 299.735 176.797 298.162 177.811C298.642 179.704 299.215 181.477 299.882 183.131C300.575 184.811 301.362 186.157 302.242 187.171C303.122 188.184 304.082 188.691 305.122 188.691C305.895 188.691 306.575 188.531 307.162 188.211C307.748 187.917 308.268 187.584 308.722 187.211C309.202 186.837 309.615 186.531 309.962 186.291C309.988 186.264 310.028 186.251 310.082 186.251C310.135 186.251 310.162 186.291 310.162 186.371C310.162 186.504 310.068 186.704 309.882 186.971C309.775 187.157 309.575 187.424 309.282 187.771C309.015 188.144 308.642 188.477 308.162 188.771C307.735 189.037 307.335 189.224 306.962 189.331C306.588 189.437 306.255 189.491 305.962 189.491ZM288.162 172.571C289.175 172.277 290.175 171.944 291.162 171.571C292.175 171.197 293.175 170.824 294.162 170.451C294.135 170.104 294.122 169.744 294.122 169.371C294.122 168.997 294.122 168.624 294.122 168.251C294.122 167.877 294.122 167.491 294.122 167.091C294.122 166.664 294.135 166.251 294.162 165.851C292.988 166.811 291.882 167.851 290.842 168.971C289.828 170.064 288.935 171.264 288.162 172.571ZM297.762 176.131C299.042 175.197 300.148 174.184 301.082 173.091C302.042 171.971 302.575 170.917 302.682 169.931V169.771C302.682 169.477 302.602 169.291 302.442 169.211C302.282 169.131 302.095 169.091 301.882 169.091C301.295 169.091 300.548 169.211 299.642 169.451C298.735 169.664 297.775 169.931 296.762 170.251C296.815 170.864 296.882 171.411 296.962 171.891C297.042 172.371 297.095 172.731 297.122 172.971C297.202 173.477 297.295 173.997 297.402 174.531C297.535 175.064 297.655 175.597 297.762 176.131ZM289.522 179.651C290.562 179.651 291.868 179.317 293.442 178.651C294.082 178.357 294.722 178.037 295.362 177.691C295.175 176.997 295.002 176.277 294.842 175.531C294.708 174.757 294.575 173.957 294.442 173.131C294.415 172.864 294.375 172.571 294.322 172.251C294.295 171.904 294.268 171.531 294.242 171.131L290.242 172.611C289.815 172.744 289.388 172.877 288.962 173.011C288.562 173.144 288.135 173.277 287.682 173.411C287.015 174.691 286.682 175.851 286.682 176.891C286.682 177.717 286.908 178.384 287.362 178.891C287.815 179.397 288.535 179.651 289.522 179.651Z" fill="white"/>
<path d="M291.59 229.403C291.046 229.403 290.47 229.211 289.862 228.827C289.254 228.443 288.95 227.851 288.95 227.051C288.95 226.731 289.142 226.187 289.526 225.419C289.942 224.651 290.47 223.739 291.11 222.683C291.782 221.627 292.502 220.523 293.27 219.371C294.038 218.219 294.806 217.099 295.574 216.011C296.182 215.147 296.966 214.107 297.926 212.891C298.886 211.675 299.91 210.379 300.998 209.003C302.086 207.627 303.142 206.251 304.166 204.875C305.19 203.499 306.086 202.235 306.854 201.083C307.302 200.411 307.686 199.803 308.006 199.259C308.326 198.683 308.486 198.187 308.486 197.771C308.486 197.387 308.262 197.083 307.814 196.859C307.398 196.635 306.678 196.523 305.654 196.523C304.726 196.523 303.462 196.667 301.862 196.955C300.262 197.211 298.47 197.595 296.486 198.107C294.502 198.587 292.454 199.163 290.342 199.835C288.262 200.507 286.214 201.243 284.198 202.043C282.214 202.811 280.406 203.627 278.774 204.491C277.142 205.323 275.83 206.171 274.838 207.035C274.294 207.515 274.022 207.947 274.022 208.331C274.022 208.875 274.438 209.147 275.27 209.147C275.43 209.243 275.51 209.339 275.51 209.435C275.51 209.659 275.19 209.723 274.55 209.627C274.294 209.563 273.862 209.387 273.254 209.099C272.678 208.779 272.134 208.395 271.622 207.947C271.142 207.467 270.902 207.003 270.902 206.555C270.902 206.043 271.446 205.419 272.534 204.683C273.622 203.947 275.094 203.163 276.95 202.331C278.838 201.499 280.95 200.683 283.286 199.883C285.622 199.083 288.054 198.363 290.582 197.723C293.11 197.051 295.574 196.523 297.974 196.139C300.374 195.723 302.566 195.515 304.55 195.515C306.726 195.515 308.502 195.819 309.878 196.427C311.254 197.035 311.942 198.043 311.942 199.451C311.942 200.027 311.878 200.507 311.75 200.891C311.654 201.275 311.462 201.675 311.174 202.091C310.918 202.475 310.534 203.019 310.022 203.723C309.318 204.747 308.374 205.931 307.19 207.275C306.038 208.619 304.774 210.059 303.398 211.595C302.054 213.131 300.742 214.699 299.462 216.299C298.182 217.867 297.062 219.403 296.102 220.907C295.974 221.067 295.894 221.259 295.862 221.483C295.862 221.675 295.942 221.675 296.102 221.483C296.742 220.779 297.654 219.819 298.838 218.603C300.022 217.387 301.366 216.075 302.87 214.667C304.374 213.227 305.942 211.835 307.574 210.491C309.206 209.147 310.79 207.995 312.326 207.035C313.446 206.299 314.502 205.723 315.494 205.307C316.486 204.891 317.382 204.683 318.182 204.683C318.598 204.683 318.982 204.843 319.334 205.163C319.718 205.451 320.022 205.787 320.246 206.171C320.502 206.555 320.63 206.875 320.63 207.131C320.63 207.515 320.39 208.203 319.91 209.195C319.462 210.155 318.886 211.307 318.182 212.651C317.478 213.963 316.742 215.323 315.974 216.731C315.206 218.139 314.502 219.483 313.862 220.763C313.254 222.043 312.822 223.115 312.566 223.979C312.502 224.235 312.438 224.459 312.374 224.651C312.342 224.843 312.326 225.019 312.326 225.179C312.326 225.403 312.406 225.515 312.566 225.515C312.79 225.515 313.174 225.307 313.718 224.891C314.038 224.635 314.438 224.267 314.918 223.787C315.398 223.275 315.798 222.907 316.118 222.683C316.278 222.555 316.406 222.475 316.502 222.443C316.598 222.411 316.582 222.507 316.454 222.731C316.198 223.051 315.894 223.563 315.542 224.267C315.222 224.971 314.854 225.611 314.438 226.187C314.022 226.763 313.558 227.051 313.046 227.051C312.822 227.051 312.406 226.891 311.798 226.571C311.19 226.251 310.614 225.883 310.07 225.467C309.75 225.243 309.542 225.019 309.446 224.795C309.35 224.539 309.302 224.283 309.302 224.027C309.302 223.643 309.35 223.211 309.446 222.731C309.67 221.387 310.102 220.027 310.742 218.651C311.382 217.243 312.118 215.819 312.95 214.379C313.782 212.939 314.582 211.515 315.35 210.107C316.31 208.315 316.79 207.163 316.79 206.651C316.79 206.331 316.646 206.171 316.358 206.171C316.038 206.171 315.51 206.395 314.774 206.843C314.038 207.259 313.158 207.851 312.134 208.619C311.11 209.419 309.926 210.347 308.582 211.403C307.238 212.427 306.006 213.499 304.886 214.619C302.838 216.667 300.694 218.939 298.454 221.435C296.246 223.931 294.294 226.459 292.598 229.019C292.438 229.275 292.102 229.403 291.59 229.403Z" fill="white"/>
<path d="M236.474 324.459C235.108 324.459 233.956 323.989 233.018 323.051C232.164 322.197 231.524 321.173 231.098 319.979C230.671 318.784 230.458 317.76 230.458 316.907C230.458 314.005 231.354 310.933 233.146 307.691C234.938 304.448 237.242 301.419 240.058 298.603C242.959 295.787 245.988 293.483 249.146 291.691C252.303 289.899 255.247 289.003 257.978 289.003C259.94 289.003 261.903 290.325 263.866 292.971C264.036 293.227 264.207 293.568 264.378 293.995C264.634 294.421 264.762 294.848 264.762 295.275C264.762 296.043 264.463 296.555 263.866 296.811C263.78 296.896 263.567 296.64 263.226 296.043C262.97 295.36 262.074 295.019 260.538 295.019C259.087 295.019 257.167 295.701 254.778 297.067C252.388 298.432 249.871 300.224 247.226 302.443C244.666 304.661 242.319 307.051 240.186 309.611C238.138 312.171 236.644 314.645 235.706 317.035C235.535 317.632 235.364 318.229 235.194 318.827C235.023 319.424 234.938 319.936 234.938 320.363C234.938 321.131 235.194 321.515 235.706 321.515C236.218 321.515 236.9 321.216 237.754 320.619C239.546 319.339 241.423 317.76 243.386 315.883C245.348 313.92 247.226 311.915 249.018 309.867C250.895 307.733 252.474 305.728 253.754 303.851C255.034 301.973 255.844 300.437 256.186 299.243C256.356 298.56 257.338 298.219 259.13 298.219C260.58 298.219 261.818 298.56 262.842 299.243C263.866 299.84 264.122 300.523 263.61 301.291C262.074 303.595 260.58 306.027 259.13 308.587C257.679 311.061 256.612 313.579 255.93 316.139C255.844 316.48 255.759 316.779 255.674 317.035C255.674 317.291 255.674 317.504 255.674 317.675C255.674 318.528 256.015 318.955 256.698 318.955C257.466 318.955 258.319 318.571 259.258 317.803C261.05 316.096 262.927 313.92 264.89 311.275C266.938 308.544 269.028 305.856 271.162 303.211C271.93 302.357 272.442 301.931 272.698 301.931C272.954 301.931 273.082 302.144 273.082 302.571C273.082 302.912 272.996 303.253 272.826 303.595C272.484 304.448 272.015 305.344 271.418 306.283C270.82 307.136 270.266 307.904 269.754 308.587C269.327 309.184 268.602 310.251 267.578 311.787C266.554 313.323 265.359 314.944 263.994 316.651C262.628 318.357 261.22 319.851 259.77 321.131C258.319 322.325 256.954 322.923 255.674 322.923C253.882 322.923 252.431 322.368 251.322 321.259C250.298 320.064 249.786 318.997 249.786 318.059C249.786 316.864 249.828 316.053 249.914 315.627C250.084 314.773 250.34 313.749 250.682 312.555C251.108 311.36 251.492 310.208 251.834 309.099C251.151 310.037 250.127 311.36 248.762 313.067C247.396 314.773 245.903 316.523 244.282 318.315C242.746 320.021 241.252 321.472 239.802 322.667C238.351 323.861 237.242 324.459 236.474 324.459ZM288.638 324.587C286.76 324.587 285.182 324.032 283.902 322.923C282.707 321.813 282.11 320.064 282.11 317.675C282.11 315.627 282.451 313.579 283.134 311.531C283.816 309.397 284.542 307.477 285.31 305.771C286.163 304.064 286.846 302.784 287.358 301.931C289.235 298.432 289.832 296.683 289.15 296.683C288.552 296.683 287.187 297.792 285.054 300.011C283.006 302.144 280.488 305.173 277.502 309.099C274.856 312.512 273.107 315.2 272.254 317.163C271.4 319.04 270.846 320.576 270.59 321.771C270.504 322.539 269.864 322.923 268.67 322.923C267.731 322.923 266.792 322.539 265.854 321.771C264.915 320.917 264.446 319.765 264.446 318.315C264.446 317.888 264.83 316.779 265.598 314.987C266.366 313.195 267.262 311.104 268.286 308.715C269.395 306.325 270.462 304.064 271.486 301.931C272.51 299.797 273.278 298.176 273.79 297.067C272.766 296.469 272.552 295.701 273.15 294.763L276.862 287.979C277.118 287.808 277.886 287.509 279.166 287.083C280.531 286.571 281.768 286.315 282.878 286.315C284.414 286.315 285.182 286.827 285.182 287.851C285.182 288.363 284.84 289.216 284.158 290.411C283.902 290.837 283.304 291.904 282.366 293.611C281.427 295.232 280.36 297.152 279.166 299.371C278.056 301.504 276.99 303.552 275.966 305.515C275.027 307.392 274.344 308.8 273.918 309.739C273.918 309.824 273.875 309.909 273.79 309.995C273.79 309.995 273.79 310.037 273.79 310.123C273.79 310.464 274.088 310.165 274.686 309.227C275.368 308.288 275.88 307.605 276.222 307.179C278.782 303.68 281.427 300.437 284.158 297.451C286.974 294.464 289.918 291.52 292.99 288.619C293.587 288.96 294.44 289.173 295.55 289.259C296.744 289.344 297.854 289.557 298.878 289.899C299.902 290.155 300.414 290.837 300.414 291.947C300.414 293.653 299.688 295.573 298.238 297.707C296.872 299.84 295.336 302.016 293.63 304.235C292.008 306.368 290.472 308.928 289.022 311.915C287.571 314.901 286.846 317.419 286.846 319.467C286.846 321.173 287.4 322.027 288.51 322.027C289.022 322.027 289.704 321.771 290.558 321.259C291.24 320.832 292.563 319.765 294.526 318.059C296.488 316.267 298.579 313.792 300.798 310.635C301.48 309.611 302.163 309.099 302.846 309.099C303.187 309.099 303.4 309.269 303.486 309.611C303.571 309.867 303.528 310.208 303.358 310.635C297.384 319.936 292.478 324.587 288.638 324.587ZM287.742 281.835C287.656 281.835 287.571 281.707 287.486 281.451C287.4 281.195 287.358 280.981 287.358 280.811C287.358 279.701 287.998 278.507 289.278 277.227C290.558 275.947 291.496 275.136 292.094 274.795C293.118 273.856 294.526 273.387 296.318 273.387C298.28 273.387 300.158 273.899 301.95 274.923C303.827 275.861 305.747 276.331 307.71 276.331C308.734 276.331 309.544 275.947 310.142 275.179C310.824 274.411 311.379 273.472 311.806 272.363C312.147 272.192 312.403 272.32 312.574 272.747C312.83 274.112 312.36 275.563 311.166 277.099C310.056 278.549 309.203 279.488 308.606 279.915C307.752 280.683 306.686 281.067 305.406 281.067C304.04 281.067 302.718 280.768 301.438 280.171C300.158 279.488 298.878 278.848 297.598 278.251C296.318 277.568 294.952 277.227 293.502 277.227C292.392 277.227 291.496 277.611 290.814 278.379C290.216 279.147 289.704 279.915 289.278 280.683C288.851 281.451 288.339 281.835 287.742 281.835ZM311.981 324.971C309.165 324.971 306.818 323.989 304.941 322.027C303.149 320.064 302.253 317.461 302.253 314.219C302.253 311.488 302.893 308.757 304.173 306.027C305.453 303.211 306.861 300.779 308.397 298.731C310.701 295.744 313.346 293.227 316.333 291.179C319.405 289.131 322.263 288.107 324.909 288.107C325.847 288.107 326.701 288.661 327.469 289.771C328.322 290.795 329.431 291.392 330.797 291.563C331.138 291.648 331.479 291.776 331.821 291.947C332.247 292.032 332.674 292.416 333.101 293.099C334.21 294.976 334.765 296.981 334.765 299.115C334.765 302.272 333.741 305.685 331.693 309.355C329.73 313.024 327.127 316.309 323.885 319.211C322.263 320.661 320.429 321.984 318.381 323.179C316.333 324.373 314.199 324.971 311.981 324.971ZM312.237 322.411C314.285 322.411 316.461 321.6 318.765 319.979C321.069 318.272 323.202 316.181 325.165 313.707C327.213 311.147 328.834 308.544 330.029 305.899C331.309 303.168 331.949 300.779 331.949 298.731C331.949 297.109 331.565 295.915 330.797 295.147C330.029 294.293 329.047 293.867 327.853 293.867C325.719 293.867 323.543 294.933 321.325 297.067C319.106 299.2 316.93 301.632 314.797 304.363C312.919 306.752 311.255 309.227 309.805 311.787C308.439 314.347 307.757 316.565 307.757 318.443C307.757 319.808 308.226 320.832 309.165 321.515C310.103 322.112 311.127 322.411 312.237 322.411ZM344.32 323.051C342.186 323.051 340.266 322.581 338.56 321.643C336.853 320.619 336 319.04 336 316.907C336 316.139 336.128 315.328 336.384 314.475C336.725 313.28 337.194 312.512 337.792 312.171C338.474 311.744 338.773 311.829 338.688 312.427C338.517 313.28 338.688 314.048 339.2 314.731C339.712 315.413 340.394 315.968 341.248 316.395C342.272 316.821 343.125 317.035 343.808 317.035C345.514 317.035 347.05 316.395 348.416 315.115C349.866 313.749 350.592 312.299 350.592 310.763C350.592 309.739 350.293 308.885 349.696 308.203C348.672 306.752 347.52 305.643 346.24 304.875C345.045 304.021 344.106 302.827 343.424 301.291L343.296 301.547C342.613 302.912 341.845 304.192 340.992 305.387C340.224 306.496 339.498 307.563 338.816 308.587C337.536 310.379 336.298 312.085 335.104 313.707C333.994 315.243 332.544 317.035 330.752 319.083C330.154 319.765 329.6 320.107 329.088 320.107C328.576 320.107 328.32 319.808 328.32 319.211C328.32 318.869 328.448 318.528 328.704 318.187C330.666 315.797 332.288 313.749 333.568 312.043C334.933 310.251 336.426 308.16 338.048 305.771C338.901 304.576 339.754 303.253 340.608 301.803C341.546 300.267 342.229 298.816 342.656 297.451C342.57 294.72 343.466 292.373 345.344 290.411C347.221 288.363 349.525 286.827 352.256 285.803C354.986 284.779 357.546 284.352 359.936 284.523C360.533 284.523 361.13 284.992 361.728 285.931C362.41 286.869 362.965 287.851 363.392 288.875C363.904 289.813 364.202 290.368 364.288 290.539V290.795C364.288 291.051 364.16 291.264 363.904 291.435C363.733 291.605 363.434 291.52 363.008 291.179C362.752 291.093 362.325 291.051 361.728 291.051C360.448 291.051 358.912 291.307 357.12 291.819C355.328 292.245 353.536 292.885 351.744 293.739C350.037 294.592 348.629 295.531 347.52 296.555C346.41 297.579 345.941 298.688 346.112 299.883C346.282 300.992 346.752 301.845 347.52 302.443C348.288 303.04 349.226 303.723 350.336 304.491C351.445 305.173 352.64 306.24 353.92 307.691C355.541 309.568 356.352 311.488 356.352 313.451C356.352 315.157 355.797 316.736 354.688 318.187C353.578 319.552 352.256 320.661 350.72 321.515C348.928 322.539 346.794 323.051 344.32 323.051Z" fill="black"/>
<path d="M384.989 240.151C382.989 239.084 380.856 238.551 378.589 238.551C376.322 238.551 374.322 238.084 372.589 237.151C370.856 236.351 369.656 234.351 368.989 231.151C368.856 230.884 368.789 230.551 368.789 230.151C368.789 229.751 368.789 229.417 368.789 229.151C368.789 228.084 368.922 227.084 369.189 226.151C369.456 225.217 369.789 224.284 370.189 223.351C371.522 220.417 372.922 217.551 374.389 214.751C375.856 211.951 377.256 209.151 378.589 206.351C382.456 198.884 386.456 190.617 390.589 181.551C394.856 172.351 398.589 163.017 401.789 153.551C405.122 143.951 407.256 134.817 408.189 126.151C408.322 125.617 408.389 125.084 408.389 124.551C408.389 123.884 408.389 123.151 408.389 122.351C408.389 120.351 408.056 118.351 407.389 116.351C406.856 114.217 405.589 113.151 403.589 113.151C400.922 113.151 398.389 114.484 395.989 117.151C393.722 119.684 391.989 121.951 390.789 123.951C390.389 124.484 389.989 124.951 389.589 125.351C389.189 125.617 388.989 125.484 388.989 124.951C388.989 123.884 389.122 123.084 389.389 122.551C389.789 121.884 390.056 121.084 390.189 120.151C390.722 118.817 391.256 117.084 391.789 114.951C392.322 112.684 393.056 110.684 393.989 108.951C395.056 107.217 396.456 106.351 398.189 106.351C399.122 106.351 400.522 106.817 402.389 107.751C404.256 108.551 406.122 109.484 407.989 110.551C409.989 111.617 411.322 112.417 411.989 112.951C413.456 113.884 414.456 115.017 414.989 116.351C415.656 117.551 416.056 118.884 416.189 120.351C416.589 122.351 416.789 124.617 416.789 127.151C416.789 133.151 415.789 140.084 413.789 147.951C411.922 155.817 409.589 163.817 406.789 171.951C403.989 180.084 401.189 187.751 398.389 194.951C395.589 202.017 393.256 207.884 391.389 212.551C391.256 213.084 390.989 213.884 390.589 214.951C390.189 216.017 390.056 216.951 390.189 217.751C390.189 218.284 390.389 218.551 390.789 218.551C391.722 218.551 393.589 217.151 396.389 214.351C399.322 211.417 402.589 207.817 406.189 203.551C409.922 199.151 413.589 194.684 417.189 190.151C420.922 185.617 424.122 181.617 426.789 178.151C429.589 174.551 431.389 172.217 432.189 171.151C436.189 165.684 440.456 159.684 444.989 153.151C449.656 146.484 454.589 139.884 459.789 133.351C464.989 126.684 470.522 120.617 476.389 115.151C482.389 109.551 488.789 105.084 495.589 101.751C502.522 98.4174 509.922 96.7508 517.789 96.7508C521.922 96.7508 526.322 97.5508 530.989 99.1508C535.789 100.617 539.989 102.951 543.589 106.151C547.189 109.217 549.256 113.217 549.789 118.151C549.789 119.084 549.456 119.551 548.789 119.551C548.389 119.551 548.056 119.351 547.789 118.951C547.522 118.551 547.322 118.217 547.189 117.951C546.922 114.617 545.789 112.151 543.789 110.551C541.922 108.951 539.656 107.884 536.989 107.351C534.322 106.684 531.722 106.351 529.189 106.351C526.389 106.351 523.589 106.551 520.789 106.951C513.722 107.884 506.722 110.217 499.789 113.951C492.989 117.684 486.322 122.351 479.789 127.951C473.256 133.417 466.989 139.417 460.989 145.951C454.989 152.351 449.322 158.884 443.989 165.551C438.656 172.084 433.722 178.217 429.189 183.951C423.456 191.284 417.656 198.551 411.789 205.751C405.922 212.951 399.989 220.151 393.989 227.351C392.256 229.484 390.722 231.617 389.389 233.751C388.189 235.884 386.722 238.017 384.989 240.151Z" fill="black"/>
<path d="M93.5817 241.051C91.1817 239.984 88.2484 238.584 84.7817 236.851C81.4484 235.251 78.5151 233.251 75.9817 230.851C73.5817 228.584 72.5817 226.051 72.9817 223.251C73.7817 217.117 76.5151 210.251 81.1817 202.651C85.8484 195.051 91.9817 187.117 99.5817 178.851C107.182 170.451 115.648 162.184 124.982 154.051C124.315 148.984 123.182 143.717 121.582 138.251C119.982 132.784 117.848 128.051 115.182 124.051C112.648 120.051 109.448 117.717 105.582 117.051C104.248 116.784 102.915 117.051 101.582 117.851C100.382 118.651 99.4484 120.184 98.7817 122.451C98.2484 124.051 97.3817 124.851 96.1817 124.851C94.8484 124.851 94.3817 124.184 94.7817 122.851C95.1817 121.384 96.0484 119.784 97.3817 118.051C98.7151 116.317 100.115 114.717 101.582 113.251C103.048 111.784 104.115 110.784 104.782 110.251C107.048 108.651 109.115 107.517 110.982 106.851C112.982 106.184 114.782 105.851 116.382 105.851C119.715 105.851 122.382 107.184 124.382 109.851C126.515 112.517 128.182 115.917 129.382 120.051C130.582 124.184 131.448 128.651 131.982 133.451C132.648 138.117 133.248 142.451 133.782 146.451C144.982 137.117 156.315 128.051 167.782 119.251C179.382 110.317 190.648 102.917 201.582 97.0508C201.848 96.9174 201.848 96.7174 201.582 96.4508C201.315 96.1841 200.982 95.9841 200.582 95.8508C199.115 95.8508 198.382 95.6508 198.382 95.2508C198.382 94.9841 198.982 94.7174 200.182 94.4508C203.915 94.3174 207.048 93.7174 209.582 92.6508C212.248 91.4508 214.515 90.4508 216.382 89.6508C217.582 89.1174 219.182 89.3174 221.182 90.2508C223.182 91.1841 224.915 92.3841 226.382 93.8508C227.982 95.1841 228.782 96.4508 228.782 97.6508C228.782 98.3174 228.382 98.8508 227.582 99.2508C219.048 102.317 209.515 106.717 198.982 112.451C188.448 118.051 177.648 124.451 166.582 131.651C155.515 138.851 144.848 146.451 134.582 154.451L134.782 156.051C135.048 157.917 135.515 161.251 136.182 166.051C136.848 170.717 137.782 175.984 138.982 181.851C140.315 187.717 141.915 193.451 143.782 199.051C145.648 204.517 147.848 209.051 150.382 212.651C152.915 216.251 155.848 218.051 159.182 218.051C160.915 218.051 162.648 217.451 164.382 216.251C167.048 214.384 169.182 211.984 170.782 209.051C172.515 205.984 173.648 203.184 174.182 200.651C174.448 199.584 174.848 198.984 175.382 198.851C176.048 198.584 176.382 198.584 176.382 198.851C176.648 200.051 176.515 201.251 175.982 202.451C175.448 203.651 175.182 204.784 175.182 205.851C175.048 208.117 174.915 210.251 174.782 212.251C174.782 214.117 173.648 216.051 171.382 218.051C170.448 218.984 169.848 219.451 169.582 219.451C169.448 219.451 169.248 219.451 168.982 219.451C168.848 219.317 168.515 219.251 167.982 219.251C167.048 219.251 165.448 219.517 163.182 220.051C160.248 222.451 157.515 224.184 154.982 225.251C152.582 226.317 150.315 226.851 148.182 226.851C144.182 226.851 140.915 225.184 138.382 221.851C135.982 218.517 134.048 214.251 132.582 209.051C131.115 203.851 129.982 198.317 129.182 192.451C128.515 186.584 127.982 181.117 127.582 176.051C127.315 170.851 126.982 166.784 126.582 163.851L126.182 161.451C117.915 168.384 110.648 175.451 104.382 182.651C98.1151 189.717 93.1151 196.584 89.3817 203.251C85.6484 209.917 83.4484 215.917 82.7817 221.251C82.3817 224.584 83.4484 227.851 85.9817 231.051C88.6484 234.384 91.6484 236.784 94.9817 238.251C95.5151 238.384 95.7817 238.784 95.7817 239.451C95.7817 239.984 95.5151 240.451 94.9817 240.851C94.5817 241.251 94.1151 241.317 93.5817 241.051Z" fill="black"/>
</svg>
