<svg width="79" height="217" viewBox="0 0 79 217" fill="none" xmlns="http://www.w3.org/2000/svg">
<path d="M23.4771 19.3916C23.0569 19.0107 23.0279 19.1059 22.9355 18.6138C23.1991 18.0425 23.5682 17.6689 23.8979 17.1518C24.8928 15.5962 24.6616 13.897 23.9706 12.2505C22.5932 8.96776 22.5734 7.27879 24.7196 4.41356C24.8436 2.26024 24.8281 1.62744 26.3329 0C27.7176 1.28174 27.6452 2.08886 28.282 3.77489C28.462 4.2495 28.987 4.20556 29.1295 4.41211C31.5542 7.92041 29.0614 13.6816 26.5896 16.6128C25.9148 17.4126 24.4143 18.4468 24.1164 18.9404C23.8675 18.6841 23.9678 18.709 23.6762 18.7002L23.4771 19.3916Z" fill="#FCD5D3"/>
<path d="M15.1526 17.0771C11.4953 15.9668 7.75938 12.7617 7.0448 8.67186C6.9607 8.18993 7.10871 7.54393 6.94893 7.05174C6.44297 5.49901 5.79745 4.14111 5.33728 2.55907C11.2265 3.16405 18.5863 5.67626 17.5539 12.7881C17.3291 14.3379 16.8683 15.9389 15.7391 17.0683L15.1526 17.0771Z" fill="#EC2861"/>
<path d="M6.08786 37.8413C7.09693 36.6826 12.4145 37.0737 13.7648 35.521C14.3312 34.8691 15.5243 32.7041 16.2698 32.5356L16.4764 32.7641C16.8037 34.8369 15.1312 38.4023 13.8855 40.2744C12.1978 42.8115 9.60919 44.9956 6.63371 45.9404C5.78316 46.2099 4.80308 45.3354 4.555 45.3369C3.33622 45.3471 1.27168 46.103 0.153336 45.3369C-0.677994 43.8134 2.08911 42.1875 3.22321 41.5678C3.51358 40.8808 3.72495 40.3564 4.11789 39.7119C4.73984 38.7304 5.05066 38.3657 6.08786 37.8413Z" fill="#EC2861"/>
<path d="M10.1077 115.486C10.8809 115.465 11.6538 115.437 12.4264 115.403L12.7759 115.697L12.1275 116.455L11.9786 116.25L12.0306 116.013L11.5936 116.174L11.4466 115.996C11.0935 115.781 10.4238 115.871 9.97998 115.889L10.1077 115.486Z" fill="#DFCFBB"/>
<path d="M5.39782 61.787C-0.264269 58.7475 1.93393 54.0492 6.57165 51.4608C13.3003 47.7035 16.5844 43.3236 16.6566 35.4296C16.6643 33.2705 17.7707 30.8435 16.9232 28.6786C13.7524 20.5782 4.75281 16.6123 2.54528 7.67274C2.28815 6.63125 1.71807 5.19665 2.85485 4.60634C5.09695 4.47754 5.10855 8.66394 6.08239 10.413C8.52902 14.8089 13.4642 20.179 18.765 20.6171C19.8912 20.6376 22.3125 19.6582 23.4769 19.3915L23.6761 18.7001C23.9676 18.7089 23.8677 18.684 24.1166 18.9403C26.219 18.6298 27.6389 17.0238 28.9154 15.5429C31.3727 12.6922 30.8113 7.91247 35.3109 7.2577C37.0198 7.01323 38.4663 7.36789 39.6439 8.6786C46.3399 3.15622 54.1531 0.659185 62.0707 5.43446C64.0547 4.18352 65.2406 3.71473 67.641 3.53017C71.4087 3.24016 74.5821 3.31289 78.3324 3.89735V4.4706C75.3054 3.83049 72.1962 3.67037 69.1195 3.99696C73.6785 6.896 73.5201 14.1686 66.9847 12.8651C67.019 13.2621 67.0522 13.6772 67.0619 14.0741C67.1042 16.0749 66.3547 18.0117 64.9769 19.4618C62.2032 22.3694 57.7756 23.2039 54.4779 20.3505C50.9931 17.3343 52.3528 10.4657 57.2299 10.4979C58.2717 10.4981 59.2685 10.9234 59.9906 11.6747C63.3184 15.1375 58.8621 18.0946 57.0629 15.9882C57.0351 15.5974 57.0141 15.7346 57.2826 15.3778C58.1219 15.2695 58.6639 16.6884 59.725 15.8671C60.8834 14.9691 60.8917 13.6693 60.0238 12.5604C59.3847 11.7535 58.455 11.2275 57.434 11.0985C54.7843 10.7851 53.4001 13.0077 53.223 15.3544C52.7642 21.4388 60.0013 23.1685 63.9867 19.6474C67.4462 16.5903 66.6042 11.0502 63.7533 7.92274C61.4394 5.38567 57.7805 3.96181 54.3812 3.77431C42.0341 3.14029 35.4354 15.1826 27.2865 22.4042C28.7957 21.7655 30.2418 20.6512 31.7718 19.8192C32.7568 19.9379 36.3544 20.4037 37.0013 21.0204L36.7884 21.1854C35.5444 21.0419 33.3714 20.4037 32.0951 20.0595C30.4807 20.9661 29.2392 22.0835 27.4164 22.7821C24.4554 23.9172 21.2825 23.7038 18.3617 22.3388C14.2612 20.4228 9.1265 15.9549 6.55798 12.2636C5.59634 10.8809 4.79164 8.29533 4.24548 6.75282C4.0625 6.23727 3.70684 5.33651 3.21813 5.12099L2.94079 5.3202C2.60689 6.16975 3.08326 7.36386 3.3197 8.20009C5.68996 16.5713 14.2149 20.4713 17.2103 28.2831C18.3268 31.195 17.152 32.9791 17.0638 35.6288C16.8774 41.2333 15.2569 46.1903 10.4457 49.4862C8.01366 51.1854 4.43186 52.7368 3.02673 55.4569C1.60091 58.218 3.05312 60.1122 5.61462 61.3427C7.20233 58.5492 9.22654 55.911 11.2074 53.3798C14.301 49.4278 17.758 46.0388 19.2103 41.0907C21.1516 34.4757 18.1888 27.7712 15.0511 22.0468C18.2941 24.9896 20.5706 33.5785 20.474 37.869C20.4272 39.9432 19.8657 42.7159 19.6859 44.8895C19.6131 45.7684 18.5665 47.6483 18.4134 48.7411L18.4095 48.7772L18.1429 49.204L18.014 49.1757L18.0511 48.9696L17.7474 48.6796C18.7225 46.4736 19.2726 45.2645 19.4095 42.827C16.0128 49.7586 10.512 54.9312 6.17809 61.8583C7.22207 62.8572 7.92933 63.4374 9.4027 63.4755C11.0786 63.5176 12.451 61.2347 11.0609 60.0497C10.7862 59.8154 10.0002 59.2706 9.86852 59.0243L9.98473 58.8339C10.4254 58.8676 10.6586 59.1089 10.9877 59.3563C13.5559 61.287 11.7189 64.1835 8.89196 63.911C7.72572 63.7996 6.7736 63.181 5.95348 62.3681C4.45422 65.3504 3.39691 68.0624 3.1654 71.4198C2.72579 77.7976 5.62511 85.1835 12.2474 87.1347C15.7176 88.1585 20.1279 87.0303 21.7865 83.5809C23.3697 80.2881 22.9043 75.5303 19.3295 73.7489C16.7232 72.4701 12.9805 73.6274 11.6996 76.289C11.2087 77.2878 11.1374 78.4425 11.5004 79.494C12.7845 83.1084 18.0786 81.4112 17.0277 79.0224C16.5267 78.608 15.6538 78.2532 15.5258 77.9618C15.6727 77.5752 15.5889 77.6981 16.0277 77.4725C16.3744 77.4858 16.8185 77.5357 17.014 77.8505C19.3953 81.6909 14.1242 83.7242 11.6302 80.7128C9.92941 78.6576 10.6113 75.8739 12.5414 74.2245C13.9194 73.063 15.6989 72.4932 17.4945 72.6337C19.1289 72.7758 20.6381 73.5702 21.681 74.8358C24.3201 77.9823 23.5655 83.7402 20.3959 86.3065C18.1664 88.1097 15.929 88.451 13.1576 88.1845C12.9898 88.1684 12.8212 88.1508 12.6537 88.1317C13.1595 88.7806 13.7881 89.4169 14.3519 90.0204C19.8173 95.8709 23.8654 105.121 18.4144 112.305C19.1557 115.941 19.0596 119.439 16.8754 122.579C14.8601 125.476 12.6095 127.029 11.7963 130.85C11.0026 134.579 11.2497 138.93 11.2523 142.783L11.2543 157.941L11.2357 178.678C11.2284 182.721 11.1277 187.431 11.309 191.445C11.4229 194.403 11.7701 197.348 12.348 200.251C12.6085 201.559 13.4112 203.212 14.5502 203.978C15.3027 204.476 16.2244 204.648 17.1058 204.456C19.8984 203.869 20.3246 200.242 18.4398 199.91C18.4168 199.663 18.388 199.213 18.3412 198.989C23.1284 201.984 17.8079 207.891 13.3314 203.646C13.77 205.017 14.3362 206.345 15.0228 207.61C17.2572 211.697 22.2801 217.276 27.7777 214.966C29.2899 214.178 29.4228 212.317 28.7191 210.984C27.4247 208.533 23.2207 209.6 24.7611 212.467C25.0645 213.031 25.6103 213.206 26.223 213.296L26.1937 213.372C22.7792 213.572 23.5621 209.453 25.9535 209.004C27.5911 208.697 29.5418 210.348 29.8158 211.997C29.9623 212.888 29.7433 213.8 29.2084 214.527C26.9598 217.641 21.8779 216.048 19.4115 214.084C9.65914 206.318 10.3623 191.322 10.4056 180.163L10.4711 160.2L10.4545 143.144C10.4553 139.49 10.2377 135.139 10.9095 131.621C11.7125 127.417 13.4478 125.937 15.9437 122.752C18.1665 119.915 18.4641 116.208 17.9291 112.72C16.0788 114.47 14.9197 114.992 12.4261 115.403L12.7758 115.696L12.1273 116.455L11.9789 116.249L12.0306 116.013L11.5941 116.174L11.4466 115.996C11.0936 115.781 10.4237 115.871 9.97985 115.889L10.1078 115.485C6.70428 115.163 4.56435 112.859 3.56091 109.579C1.92077 104.229 6.81494 99.5932 11.9525 102.228C15.132 103.86 15.3692 108.766 11.641 109.581C10.9624 109.732 10.2511 109.602 9.67028 109.22C7.44187 107.739 8.94906 105.148 10.2396 106.045L10.2162 106.28C9.90503 106.528 9.65476 106.712 9.32458 106.934C9.03085 107.513 9.17711 108.149 9.63415 108.6C10.005 108.964 10.506 109.165 11.0258 109.159C11.7216 109.152 12.6999 108.564 13.1742 108.062C14.4878 106.673 13.9048 104.576 12.6049 103.384C11.5829 102.458 10.2332 101.978 8.85583 102.05C7.43187 102.132 6.09639 102.766 5.13317 103.819C4.24168 104.804 3.61288 106.569 3.81677 107.845C5.78227 120.141 21.5022 114.991 20.1781 103.735C19.3907 97.0424 16.0631 92.5516 11.2465 87.9169C10.3915 87.0937 9.03463 86.6141 8.10095 85.8729C7.30656 85.2885 6.82634 84.6893 6.11169 84.0683C5.96264 84.2806 6.06647 84.4931 6.12048 84.8153C5.95413 84.868 5.80127 84.9242 5.63805 84.9843L5.45153 85.5087C5.3811 87.2092 5.22215 89.2335 5.68102 90.8915C5.894 91.662 6.59319 92.5048 7.13415 93.1054C7.91107 93.9681 8.88736 94.7309 9.82555 95.412C9.82672 95.4135 9.94778 95.7373 9.92321 95.7694C9.91795 95.8148 9.91286 95.8593 9.90759 95.9032C5.30207 92.7773 4.56711 91.0938 5.17223 85.5673L5.58727 83.453C1.23248 75.9869 1.19065 69.442 5.39782 61.787ZM62.6166 5.80165C64.8299 7.71616 66.111 9.26906 66.809 12.2294C69.6584 13.18 72.1493 11.9762 71.517 8.68349L71.3763 8.6786L70.8744 9.37001C70.3002 9.70546 69.5617 9.9662 68.9203 9.63661C68.7445 8.25415 71.355 9.05503 71.1879 7.30653C71.0981 6.3691 70.1891 5.43693 69.5472 4.91981C69.1084 4.56095 68.6316 4.25183 68.1254 3.99696C66.9029 4.05263 63.0065 4.5039 62.6166 5.80165ZM16.7953 20.8602C19.2027 22.3192 21.8433 23.1614 24.6722 22.4657C25.9 22.1625 27.0494 21.6003 28.0433 20.8183C29.323 19.8076 30.8784 17.9427 31.9945 16.6757C34.415 13.9263 36.5301 11.3772 39.3383 9.00282C38.4463 8.0595 37.6888 7.57607 36.3685 7.58778C32.0174 7.62599 32.0671 10.6802 30.7611 13.5145C28.6001 18.2034 21.8044 21.5384 16.7953 20.8602Z" fill="#C4AA84"/>
<path d="M24.6209 5.63963L24.6531 5.25584C25.169 5.68064 25.6445 9.5786 26.1798 10.289C26.5637 9.47313 27.1341 4.97753 27.1209 3.9287C27.614 4.66991 27.061 7.24364 26.9021 8.19872C26.7407 9.10985 26.6096 9.86717 26.5246 10.7871C26.4122 12.0029 26.7595 14.5254 26.2694 15.5156C26.1283 15.2842 26.1961 14.146 26.1844 13.7856C26.0947 10.9995 25.1021 8.39647 24.6209 5.63963Z" fill="#C4AA84"/>
<path d="M31.7718 19.8193C36.025 17.0977 41.5139 14.3086 46.6368 16.0327C43.5575 18.4175 41.4214 21.895 36.8881 21.2153C36.855 21.2051 36.8217 21.1963 36.7885 21.186L37.0013 21.0205C36.3545 20.4038 32.7567 19.938 31.7718 19.8193Z" fill="#FCD5D3"/>
<path d="M35.5325 19.2949C36.231 19.081 37.1827 19.0576 38.0587 18.8042C39.6732 18.3384 40.997 17.6264 42.5154 16.9248C41.2434 18.6211 37.586 19.4487 35.5325 19.2949Z" fill="#C4AA84"/>
<path d="M9.90699 95.9033C9.91226 95.8594 9.91753 95.8154 9.92281 95.77C9.94814 95.7392 9.8266 95.414 9.82543 95.4126C8.8872 94.7314 7.91133 93.9682 7.13438 93.1055C6.59342 92.5049 5.89387 91.6626 5.68089 90.8921C5.22194 89.2339 5.38094 87.2095 5.45136 85.5088L5.63785 84.9844C5.80109 84.9243 5.95363 84.8686 6.12 84.8159C6.90528 85.6509 10.423 89.647 10.6055 90.4951C10.4184 91.5586 12.9198 95.5854 11.18 97.1675C10.9704 96.8789 10.2034 96.1846 9.90699 95.9033Z" fill="#FCD5D3"/>
<path d="M6.57446 87.8203L6.63365 87.583C6.96936 87.7822 7.10083 88.9805 7.39192 89.458C8.33162 90.9961 9.1508 92.2793 10.2876 93.6767L10.3223 93.895L10.1505 93.8935C8.53884 92.2529 7.12938 90.0674 6.57446 87.8203Z" fill="#C4AA84"/>
<path d="M15.9679 59.1548C16.0674 58.7432 16.1197 58.6333 15.8714 58.2422C14.3165 55.8018 16.2597 51.0996 18.0143 49.1763L18.1433 49.2041C21.615 55.7417 18.1931 56.8462 18.5881 58.5923C17.5511 58.9219 16.8478 60.3413 16.3659 61.2334C16.0884 60.3164 16.002 60.1201 15.9679 59.1548Z" fill="#FCD5D3"/>
<path d="M17.9251 50.9722L18.0103 50.8828C18.8989 52.1807 18.6782 55.5439 18.3164 57.1011L18.1922 57.3472C18.0199 57.1714 18.1606 56.4961 18.2038 56.1797C18.4555 54.3354 18.2243 52.7915 17.9251 50.9722Z" fill="#C4AA84"/>
<path d="M9.10101 122.542C9.24598 121.503 9.40077 120.466 9.56507 119.43C10.4346 118.453 11.3166 117.481 12.1275 116.455L12.7759 115.697L13.2184 115.59L13.4552 115.853C13.2234 116.3 13.0492 119.898 12.9923 120.642C12.278 121.495 11.6706 122.24 11.0132 123.137C10.6345 123.409 10.2101 123.562 9.74871 123.462C9.33092 123.225 9.27703 122.983 9.10101 122.542Z" fill="#C01E25"/>
<path d="M11.0132 123.137C11.6706 122.24 12.278 121.495 12.9923 120.642C13.0491 119.898 13.2234 116.3 13.4552 115.853L13.8545 115.607L14.0423 115.463C14.3958 115.581 14.4879 115.819 14.6728 116.118C15.778 117.906 16.4658 120.608 15.1942 122.469L15.0239 122.694C14.6684 122.771 14.4917 122.787 14.1276 122.81C13.6289 122.667 13.4697 122.319 13.1814 121.883L13.1417 121.81C12.5517 121.753 12.0624 122.973 11.0132 123.137Z" fill="#F4E3E6"/>
<path d="M13.8546 115.607L14.0423 115.463C14.3958 115.581 14.4879 115.819 14.6729 116.118C15.778 117.906 16.4659 120.608 15.1942 122.469C14.8259 121.593 14.406 120.056 14.4853 119.12L14.6567 119.112L15.1625 119.618C14.2085 117.517 14.2378 117.785 13.8546 115.607Z" fill="#C01E25"/>
<path d="M13.1814 121.883C13.7262 121.518 13.7751 121.361 14.3575 121.322C14.7105 121.599 14.8675 122.245 15.0239 122.694C14.6685 122.771 14.4917 122.787 14.1277 122.81C13.6289 122.667 13.4697 122.319 13.1814 121.883Z" fill="#C01E25"/>
<path d="M13.1644 121.676C13.2334 120.657 13.4227 117.554 13.6733 116.717L13.7935 116.868C14.0546 118.122 14.2078 119.471 14.3744 120.748L13.1644 121.676Z" fill="#C01E25"/>
<path d="M6.81699 119.057C6.55535 118.277 7.26981 117.465 7.98985 117.308L8.01694 117.161L8.04271 116.941C8.59098 116.527 9.32727 116.101 9.97995 115.889C10.4238 115.871 11.0935 115.781 11.4465 115.996L11.5935 116.174L12.0305 116.013L11.9785 116.25L12.1275 116.455C11.3166 117.481 10.4346 118.453 9.56507 119.43C9.40077 120.466 9.24597 121.503 9.101 122.542C8.59432 121.695 8.70153 120.885 8.82907 119.938L8.6447 120.02C8.48186 119.305 8.43236 119.015 8.0875 118.372C7.66429 118.58 7.23142 118.828 6.81699 119.057Z" fill="#F4E3E6"/>
<path d="M8.87008 119.71L8.44189 118.422C9.40663 117.757 10.3583 117.115 11.281 116.392C11.3598 116.34 11.5334 116.232 11.5935 116.174L12.0305 116.013L11.9785 116.25C10.8571 117.562 10.11 118.481 8.87008 119.71Z" fill="#C01E25"/>
<path d="M6.81699 119.057C6.55535 118.278 7.26981 117.466 7.98985 117.308C8.67138 117.226 9.56597 117.007 10.2539 116.859L8.08753 118.372C7.66432 118.58 7.23142 118.828 6.81699 119.057Z" fill="#C01E25"/>
<path d="M8.01692 117.161L8.04269 116.941C8.59096 116.527 9.32725 116.101 9.97993 115.889C10.4238 115.871 11.0934 115.781 11.4465 115.996L11.5935 116.174C11.5333 116.232 11.3598 116.34 11.281 116.392C10.3475 116.687 9.00362 116.946 8.01692 117.161Z" fill="#C01E25"/>
<path d="M15.9678 59.1548L15.9378 59.1064C15.7751 58.8516 15.3132 58.3945 15.2277 58.188C13.775 54.6841 15.9489 51.4614 17.7478 48.6797L18.0509 48.9697L18.0143 49.1763C16.2596 51.0996 14.3164 55.8017 15.8713 58.2422C16.1197 58.6333 16.0674 58.7431 15.9678 59.1548Z" fill="#C4AA84"/>
<path d="M18.1433 49.2041L18.409 48.7778C19.7178 51.1743 20.7108 53.4126 19.9275 56.2646C19.729 56.9868 19.2305 58.1616 18.588 58.5923C18.1931 56.8462 21.6149 55.7417 18.1433 49.2041Z" fill="#C4AA84"/>
<path d="M11.18 97.1675C12.9199 95.5854 10.4184 91.5586 10.6055 90.4951C11.3837 91.8398 13.0353 96.353 11.7385 97.478C11.3956 97.4121 11.4786 97.4136 11.18 97.1675Z" fill="#C4AA84"/>
<path d="M18.44 199.911C17.6081 200.339 16.9769 200.577 16.2588 199.825C16.2237 199.35 16.1802 199.525 16.4849 199.118C17.0824 198.762 17.6765 198.878 18.3407 198.99C18.3876 199.214 18.417 199.664 18.44 199.911Z" fill="#C4AA84"/>
<path d="M8.64472 120.02C8.09982 120.153 7.59666 120.232 7.08572 119.979C6.73097 119.482 6.80775 119.706 6.81699 119.057C7.23143 118.828 7.66431 118.58 8.08752 118.372C8.43238 119.015 8.48188 119.305 8.64472 120.02Z" fill="#C01E25"/>
<path d="M12.6 11.4302C11.4405 8.8418 9.24439 6.57275 7.30297 4.55859C7.06879 4.31543 6.96519 4.33594 6.92242 3.99756C7.80606 4.01807 11.1302 8.37305 11.7243 9.26367C11.8588 7.82959 11.6552 6.34277 11.7981 5.27344C12.225 6.58155 12.1989 8.12256 11.9235 9.45996C13.0569 11.1958 13.8007 12.4878 14.7405 14.3423C15.8256 11.6543 15.3655 10.9937 15.9542 9.01611C16.6034 9.60644 15.284 14.0259 14.9599 14.8901L15.7391 17.0683L15.1526 17.0771C15.0627 16.2129 14.4826 14.8359 14.1356 14.0186C12.8472 10.9819 9.50796 10.6157 7.3559 8.62646C9.01095 9.44677 11.1162 10.4165 12.6 11.4302Z" fill="#C4AA84"/>
<path d="M21.0612 35.1797C20.3209 33.7851 21.6574 33.29 22.6951 32.8799L23.0452 32.8066C22.3562 31.9028 21.9835 30.9814 21.6122 29.9297C21.5627 29.7158 21.5054 29.5356 21.5192 29.3174C21.4569 27.7559 21.3635 27.2124 23.0629 26.9224L23.6617 26.8242C24.8294 26.8066 26.0759 26.8814 27.039 27.6431C26.9925 27.3677 26.8822 26.9443 26.9813 26.7085C27.2398 25.4312 27.2487 24.917 28.6493 24.7119L29.0012 24.7881C29.9609 25.2202 30.6725 25.9746 31.0277 26.9751C31.098 27.1055 31.3584 27.5698 31.3871 27.6797C32.0401 29.7173 32.2556 31.8706 32.0199 33.9976C32.0115 34.4077 31.8939 34.5278 31.656 34.8736L31.8074 35.1753C31.3694 35.3423 31.4268 35.543 30.9084 35.8374C28.3356 36.9317 26.6917 37.4195 23.8552 37.1646L23.4544 36.98C22.4868 36.895 21.657 36.1817 21.1398 35.4038L21.0612 35.1797Z" fill="#C01E25"/>
<path d="M21.0612 35.1797C20.3209 33.7852 21.6574 33.29 22.6951 32.8799L23.0452 32.8067C22.3562 31.9029 21.9835 30.9815 21.6122 29.9297C21.5627 29.7158 21.5054 29.5357 21.5192 29.3174C22.3587 30.0205 23.473 32.0376 24.3456 33.0161C25.7067 33.482 30.5872 35.1548 31.8074 35.1753C31.3694 35.3423 31.4268 35.543 30.9084 35.8374C28.3356 36.9317 26.6917 37.4195 23.8552 37.1646L23.4544 36.98C22.4868 36.895 21.657 36.1817 21.1397 35.4038L21.0612 35.1797Z" fill="#F4E3E6"/>
<path d="M23.4544 36.98C22.4869 36.895 21.657 36.1816 21.1398 35.4038C23.2544 35.4375 24.9954 35.4814 27.1007 35.6689L23.4544 36.98Z" fill="#C01E25"/>
<path d="M23.8552 37.1646C25.6703 36.1758 28.836 35.4068 30.9084 35.8374C28.3356 36.9317 26.6917 37.4195 23.8552 37.1646Z" fill="#C01E25"/>
<path d="M21.0612 35.1797C20.3209 33.7851 21.6574 33.29 22.6951 32.8799C22.8914 33.2871 23.3149 34.6553 23.4809 35.1474L21.0612 35.1797Z" fill="#C01E25"/>
<path d="M21.6122 29.9297C22.0803 30.1113 23.4349 32.1591 23.7168 32.6806C23.4727 32.8418 23.3847 32.789 23.0452 32.8066C22.3562 31.9028 21.9836 30.9814 21.6122 29.9297Z" fill="#C01E25"/>
<path d="M23.1347 33.2109L23.2116 33.019C24.1005 33.1655 29.1119 34.8603 30.4831 35.2675L30.5105 35.3217L30.3849 35.4404C28.5595 35.5092 25.6045 35.2895 23.7533 35.143L23.1347 33.2109Z" fill="#C01E25"/>
<path d="M27.5319 28.6259C26.0531 28.0927 24.4929 27.5595 23.0629 26.9223L23.6617 26.8242C24.8294 26.8066 26.0759 26.8813 27.039 27.6431C26.9925 27.3677 26.8822 26.9443 26.9813 26.7085C27.2398 25.4311 27.2487 24.917 28.6493 24.7119L29.0012 24.7881C29.9609 25.2202 30.6725 25.9746 31.0277 26.9751C31.098 27.1055 31.3584 27.5698 31.3871 27.6797C32.0401 29.7173 32.2556 31.8706 32.0199 33.9975C32.0115 34.4077 31.8939 34.5278 31.656 34.8735C30.2497 32.915 29.0545 30.6811 27.5319 28.6259Z" fill="#F4E3E6"/>
<path d="M30.8357 30.6299C30.1459 28.9277 29.1729 26.6089 29.0012 24.7881C29.9609 25.2202 30.6725 25.9746 31.0277 26.9751C31.0824 27.8789 30.9066 29.6601 30.8357 30.6299Z" fill="#C01E25"/>
<path d="M26.9813 26.7085C27.2398 25.4311 27.2487 24.917 28.6493 24.7119C28.8222 25.2539 29.1001 26.6382 29.239 27.2475C28.534 27.1846 27.8238 27.2402 27.1421 27.0278L26.9813 26.7085Z" fill="#C01E25"/>
<path d="M32.0198 33.9975C30.8618 32.5239 31.1062 29.4331 31.3871 27.6797C32.04 29.7173 32.2556 31.8706 32.0198 33.9975Z" fill="#C01E25"/>
<path d="M27.0391 27.6431L27.0319 27.9726L26.7734 28.0415C25.9642 27.8686 24.3648 27.2578 23.6617 26.8242C24.8294 26.8066 26.0759 26.8813 27.0391 27.6431Z" fill="#C01E25"/>
<path d="M27.2057 27.646L27.237 27.4848C27.7048 27.3222 28.7244 27.3984 29.2649 27.4131C30.1321 29.5474 30.9069 31.7182 31.587 33.9199L31.5757 33.9931L31.4354 33.9814C30.0948 32.1255 28.5906 29.647 27.2057 27.646Z" fill="#C01E25"/>
<path d="M4.11786 39.7119C4.73981 38.7304 5.05063 38.3657 6.08783 37.8413C6.04712 38.4448 4.98654 39.3223 4.47148 39.7939L4.11786 39.7119Z" fill="#C4AA84"/>
<path d="M4.05603 41.1548C4.55925 40.2597 10.3889 39.4072 11.5606 38.8301C12.4564 38.3877 14.0698 37.0884 14.8405 36.9023L14.6269 37.311C13.06 38.4272 11.4534 39.435 9.59772 39.9829L9.69935 39.9023C7.75171 40.2685 5.97805 40.7388 4.05603 41.1548Z" fill="#C4AA84"/>
<path d="M3.23315 27.6973C3.92755 27.1831 4.78681 26.7978 5.51625 26.2866C7.66093 24.7822 10.0126 24.3018 12.5993 25.0078L12.8758 25.1294L12.8499 25.3755L13.1673 25.6172C13.7332 26.7129 12.343 28.3667 11.4402 28.8691C8.78896 30.3428 5.87747 28.3901 3.23315 27.6973Z" fill="#C4AA84"/>
<path d="M12.8499 25.3755C11.2629 26.4609 11.8154 26.1225 10.081 25.8105C9.8937 25.7768 9.86002 25.834 9.7644 25.9292C10.2706 26.0918 10.5927 26.2002 11.0813 26.4228L10.9667 26.6572C9.77406 27.2373 7.8131 26.9443 6.51889 26.7656C6.84205 26.8594 7.48361 26.9795 7.66344 27.186C7.44935 27.2549 7.23271 27.3149 7.01384 27.3662C6.54734 27.4717 4.86599 27.7383 4.50433 27.5112C4.50433 27.5112 7.38286 25.6743 7.61892 25.519C8.57268 24.8906 11.8686 25.4092 12.5993 25.0078L12.8758 25.1294L12.8499 25.3755Z" fill="#FCD5D3"/>
<path d="M5.07728 27.7354C5.13524 27.7251 7.76124 27.731 7.80473 27.7412L7.64658 28.1016C8.28476 28.1558 9.80025 26.8667 11.1327 26.874L11.2058 27.0498L10.8187 27.7676L10.8914 27.9287C11.677 27.3501 11.1355 27.0776 11.933 26.5034L12.7404 25.9043L12.9093 25.9351C12.9592 26.1958 12.9226 26.3628 12.8037 26.603C11.1005 30.0498 7.93389 29.0816 5.07728 27.7354Z" fill="#FCD5D3"/>
<path d="M27.0695 41.6235C27.0807 40.4385 27.3738 40.0415 28.0058 39.0205C28.4769 39.5523 28.9181 40.1191 29.3605 40.6758C29.6207 41.5107 29.7099 42.2241 28.8986 42.7925C27.8589 43.0942 27.4966 42.416 27.0695 41.6235Z" fill="#C01E25"/>
<path d="M34.2238 31.5176C34.3065 31.4224 34.39 31.3272 34.474 31.2319C35.6723 29.8814 36.676 29.3643 38.1572 30.7588C37.9247 33.2989 35.6427 32.0933 34.2238 31.5176Z" fill="#C01E25"/>
</svg>
