<svg width="79" height="217" viewBox="0 0 79 217" fill="none" xmlns="http://www.w3.org/2000/svg">
<path d="M54.8553 196.891C55.2754 197.271 55.3045 197.176 55.3969 197.668C55.1333 198.24 54.7642 198.613 54.4345 199.13C53.4396 200.686 53.6708 202.385 54.3618 204.032C55.7392 207.314 55.759 209.003 53.6128 211.869C53.4888 214.022 53.5043 214.655 51.9995 216.282C50.6148 215 50.6872 214.193 50.0504 212.507C49.8704 212.033 49.3454 212.077 49.2029 211.87C46.7782 208.362 49.271 202.6 51.7428 199.669C52.4176 198.87 53.9181 197.835 54.216 197.342C54.4649 197.598 54.3646 197.573 54.6562 197.582L54.8553 196.891Z" fill="#FCD5D3"/>
<path d="M63.1798 199.205C66.8371 200.315 70.573 203.52 71.2876 207.61C71.3717 208.092 71.2237 208.738 71.3835 209.23C71.8894 210.783 72.5349 212.141 72.9951 213.723C67.1059 213.118 59.7461 210.606 60.7785 203.494C61.0032 201.944 61.4641 200.343 62.5933 199.214L63.1798 199.205Z" fill="#EC2861"/>
<path d="M72.2445 178.441C71.2355 179.6 65.9179 179.208 64.5676 180.761C64.0012 181.413 62.8081 183.578 62.0626 183.747L61.856 183.518C61.5287 181.445 63.2012 177.88 64.4469 176.008C66.1346 173.471 68.7232 171.287 71.6987 170.342C72.5492 170.072 73.5293 170.947 73.7774 170.945C74.9962 170.935 77.0607 170.179 78.1791 170.945C79.0104 172.469 76.2433 174.095 75.1092 174.714C74.8188 175.401 74.6075 175.926 74.2145 176.57C73.5926 177.552 73.2817 177.916 72.2445 178.441Z" fill="#EC2861"/>
<path d="M68.2247 100.797C67.4515 100.817 66.6786 100.845 65.906 100.879L65.5565 100.585L66.2049 99.8266L66.3538 100.032L66.3018 100.269L66.7388 100.108L66.8858 100.286C67.2389 100.501 67.9086 100.411 68.3524 100.393L68.2247 100.797Z" fill="#DFCFBB"/>
<path d="M72.9336 154.496C78.5956 157.536 76.3982 162.233 71.7607 164.821C65.0322 168.579 61.7481 172.959 61.6758 180.853C61.6681 183.012 60.5615 185.44 61.4092 187.604C64.5801 195.705 73.5798 199.671 75.7871 208.61C76.0442 209.652 76.6139 211.085 75.4775 211.676C73.2354 211.805 73.2238 207.618 72.25 205.869C69.8034 201.473 64.868 196.103 59.5674 195.665C58.4411 195.645 56.0188 196.625 54.8545 196.892L54.6562 197.583C54.3648 197.574 54.4645 197.599 54.2158 197.343C52.1135 197.653 50.6934 199.258 49.417 200.739C46.9595 203.59 47.5212 208.37 43.0215 209.024C41.3124 209.269 39.8652 208.914 38.6875 207.604C31.9915 213.126 24.1783 215.624 16.2607 210.849C14.2768 212.099 13.0917 212.568 10.6914 212.753C6.92362 213.043 3.75038 212.969 -4.2755e-06 212.385V211.813C3.0271 212.453 6.13614 212.612 9.21289 212.285C4.65385 209.386 4.81213 202.113 11.3477 203.417C11.3134 203.02 11.2802 202.606 11.2705 202.209C11.228 200.208 11.9775 198.271 13.3555 196.821C16.1292 193.914 20.5567 193.078 23.8545 195.932C27.3393 198.948 25.9796 205.816 21.1025 205.784C20.0607 205.784 19.0639 205.36 18.3418 204.608C15.0137 201.146 19.4702 198.188 21.2695 200.294C21.2973 200.685 21.3177 200.548 21.0488 200.905C20.2097 201.013 19.6684 199.595 18.6074 200.416C17.4491 201.314 17.4408 202.613 18.3086 203.722C18.9477 204.529 19.8773 205.055 20.8984 205.184C23.548 205.497 24.9313 203.275 25.1084 200.929C25.5676 194.844 18.3302 193.113 14.3447 196.635C10.8853 199.692 11.7283 205.232 14.5791 208.359C16.8929 210.896 20.551 212.32 23.9502 212.508C36.2976 213.142 42.8959 201.1 51.0449 193.878C49.5357 194.517 48.0905 195.632 46.5605 196.464C45.5757 196.345 41.9785 195.879 41.3311 195.263L41.5439 195.097C42.7879 195.24 44.96 195.879 46.2363 196.224C47.8509 195.317 49.0921 194.199 50.915 193.5C53.8762 192.365 57.0497 192.579 59.9707 193.944C64.0712 195.86 69.206 200.328 71.7744 204.02C72.7361 205.402 73.5408 207.988 74.0869 209.53C74.2699 210.046 74.6255 210.947 75.1143 211.162L75.3906 210.963C75.7249 210.113 75.2492 208.919 75.0127 208.083C72.6426 199.711 64.1165 195.812 61.1211 188C60.0044 185.088 61.1804 183.303 61.2686 180.653C61.455 175.049 63.0756 170.092 67.8867 166.796C70.3187 165.097 73.8996 163.545 75.3047 160.825C76.7305 158.064 75.2785 156.17 72.7168 154.939C71.1291 157.733 69.1058 160.371 67.125 162.902C64.0314 166.854 60.5744 170.243 59.1221 175.191C57.1805 181.807 60.1436 188.511 63.2812 194.235C60.0383 191.292 57.7609 182.705 57.8574 178.414C57.9041 176.34 58.4666 173.566 58.6465 171.393C58.7195 170.514 59.7648 168.635 59.918 167.542L59.9228 167.505L60.1885 167.079L60.3174 167.106L60.2812 167.313L60.584 167.604C59.609 169.809 59.0598 171.018 58.9228 173.455C62.3196 166.524 67.8204 161.351 72.1543 154.424C71.1104 153.425 70.403 152.845 68.9297 152.807C67.2537 152.764 65.8806 155.048 67.2705 156.233C67.5454 156.468 68.3329 157.013 68.4639 157.259L68.3477 157.449C67.9069 157.416 67.6729 157.173 67.3437 156.926C64.7763 154.995 66.6128 152.1 69.4394 152.372C70.6058 152.483 71.5587 153.101 72.3789 153.914C73.878 150.932 74.9355 148.22 75.167 144.863C75.6068 138.485 72.7072 131.1 66.085 129.148C62.6147 128.125 58.2043 129.253 56.5459 132.702C54.9627 135.995 55.4278 140.753 59.0029 142.534C61.6091 143.813 65.3508 142.655 66.6318 139.994C67.123 138.995 67.195 137.841 66.832 136.789C65.5482 133.174 60.253 134.872 61.3047 137.261C61.806 137.675 62.6793 138.03 62.8066 138.321C62.6597 138.708 62.7435 138.585 62.3047 138.811C61.958 138.797 61.514 138.747 61.3184 138.433C58.9363 134.592 64.2071 132.559 66.7012 135.57C68.4019 137.625 67.7208 140.408 65.791 142.058C64.4129 143.219 62.6327 143.789 60.8369 143.648C59.2027 143.506 57.6942 142.713 56.6514 141.447C54.0118 138.301 54.7666 132.542 57.9365 129.976C60.1659 128.173 62.4033 127.831 65.1748 128.098C65.3425 128.114 65.5104 128.131 65.6777 128.15C65.1721 127.502 64.5441 126.866 63.9805 126.263C58.515 120.412 54.4666 111.162 59.918 103.978C59.1767 100.341 59.2729 96.8444 61.457 93.7041C63.4723 90.8068 65.7229 89.2537 66.5361 85.4326C67.3298 81.7031 67.0827 77.3516 67.0801 73.499L67.0771 58.3418L67.0957 37.6055C67.103 33.562 67.2047 28.8525 67.0234 24.8379C66.9095 21.8797 66.5614 18.9347 65.9834 16.0313C65.7229 14.7232 64.9212 13.0696 63.7822 12.3037C63.0295 11.8059 62.1071 11.6345 61.2256 11.8271C58.4337 12.4144 58.0075 16.0396 59.8916 16.3721C59.9146 16.6185 59.9444 17.0693 59.9912 17.293C55.204 14.2976 60.5245 8.39125 65.001 12.6357C64.5624 11.2648 63.9952 9.9381 63.3086 8.67285C61.0742 4.58624 56.0523 -0.993737 50.5547 1.31641C49.0422 2.10452 48.9095 3.96487 49.6133 5.29785C50.9075 7.74931 55.1112 6.68263 53.5713 3.81641C53.2679 3.25192 52.7221 3.07584 52.1094 2.98633L52.1387 2.91113C55.5532 2.71147 54.7703 6.8292 52.3789 7.27832C50.7412 7.58575 48.7906 5.93388 48.5166 4.28516C48.3702 3.39488 48.5885 2.48281 49.123 1.75586C51.3716 -1.35898 56.4546 0.235311 58.9209 2.19922C68.6732 9.96462 67.9701 24.96 67.9268 36.1191L67.8613 56.082L67.8779 73.1377C67.8771 76.7922 68.0936 81.1434 67.4219 84.6611C66.6189 88.865 64.8837 90.3449 62.3877 93.5303C60.1648 96.3669 59.8682 100.075 60.4033 103.563C62.2534 101.814 63.4121 101.291 65.9053 100.88L65.5557 100.586L66.2041 99.8271L66.3535 100.033L66.3018 100.271L66.7383 100.108L66.8857 100.287C67.2389 100.502 67.9088 100.412 68.3525 100.395L68.2246 100.798C71.6281 101.12 73.7681 103.424 74.7715 106.704C76.4115 112.054 71.5173 116.69 66.3799 114.055C63.2001 112.423 62.963 107.517 66.6914 106.701C67.3698 106.55 68.0805 106.681 68.6611 107.063C70.8902 108.543 69.3825 111.135 68.0918 110.237L68.1162 110.002C68.4272 109.754 68.6777 109.571 69.0078 109.349C69.3018 108.77 69.1554 108.133 68.6982 107.683C68.3274 107.318 67.8263 107.117 67.3066 107.123C66.6106 107.13 65.6314 107.719 65.1572 108.221C63.844 109.61 64.4278 111.706 65.7275 112.898C66.7494 113.824 68.0983 114.305 69.4756 114.233C70.8997 114.151 72.2359 113.517 73.1992 112.464C74.0907 111.48 74.7194 109.715 74.5156 108.438C72.5504 96.1418 56.8306 101.291 58.1543 112.547C58.9417 119.24 62.2684 123.731 67.085 128.366C67.9399 129.189 69.2978 129.668 70.2314 130.409C71.0258 130.994 71.5061 131.593 72.2207 132.214C72.3694 132.002 72.2659 131.789 72.2119 131.467C72.3782 131.414 72.5311 131.359 72.6943 131.299L72.8809 130.774C72.9513 129.074 73.1103 127.049 72.6514 125.391C72.4383 124.62 71.7382 123.778 71.1973 123.178C70.4203 122.315 69.445 121.551 68.5068 120.87C68.5028 120.861 68.3845 120.544 68.4092 120.513C68.4144 120.468 68.4195 120.424 68.4248 120.38C73.0304 123.506 73.7654 125.189 73.1602 130.716L72.7451 132.829C77.1 140.295 77.141 146.841 72.9336 154.496ZM15.7158 210.48C13.5024 208.566 12.2204 207.013 11.5225 204.053C8.6731 203.102 6.18284 204.307 6.81543 207.6L6.95605 207.604L7.458 206.912C8.0321 206.577 8.7698 206.316 9.41113 206.646C9.58715 208.028 6.977 207.228 7.14453 208.977C7.23442 209.914 8.14338 210.845 8.78515 211.362C9.224 211.721 9.70082 212.03 10.207 212.285C11.4295 212.229 15.3261 211.778 15.7158 210.48ZM61.5371 195.422C59.1298 193.963 56.489 193.121 53.6602 193.816C52.4324 194.12 51.283 194.683 50.2891 195.465C49.0093 196.476 47.454 198.34 46.3379 199.607C43.9173 202.357 41.8023 204.906 38.9941 207.28C39.8859 208.223 40.643 208.707 41.9629 208.695C46.3142 208.657 46.2653 205.603 47.5713 202.769C49.7321 198.08 56.5279 194.744 61.5371 195.422Z" fill="#C4AA84"/>
<path d="M53.7115 210.642L53.6793 211.026C53.1634 210.601 52.6879 206.704 52.1526 205.993C51.7687 206.809 51.1983 211.305 51.2115 212.353C50.7184 211.612 51.2714 209.038 51.4303 208.083C51.5916 207.172 51.7228 206.415 51.8078 205.495C51.9202 204.279 51.5729 201.757 52.063 200.767C52.204 200.998 52.1362 202.136 52.148 202.496C52.2377 205.283 53.2303 207.886 53.7115 210.642Z" fill="#C4AA84"/>
<path d="M46.5606 196.463C42.3074 199.184 36.8185 201.974 31.6956 200.249C34.7749 197.865 36.911 194.387 41.4443 195.067C41.4774 195.077 41.5107 195.086 41.5439 195.096L41.3311 195.262C41.9779 195.878 45.5757 196.344 46.5606 196.463Z" fill="#FCD5D3"/>
<path d="M42.7999 196.987C42.1014 197.201 41.1497 197.225 40.2737 197.478C38.6592 197.944 37.3354 198.656 35.817 199.357C37.089 197.661 40.7464 196.833 42.7999 196.987Z" fill="#C4AA84"/>
<path d="M68.4254 120.379C68.4201 120.423 68.4149 120.467 68.4096 120.512C68.3843 120.543 68.5058 120.868 68.507 120.87C69.4452 121.551 70.4211 122.314 71.198 123.177C71.739 123.777 72.4385 124.62 72.6515 125.39C73.1105 127.048 72.9515 129.073 72.881 130.773L72.6946 131.298C72.5313 131.358 72.3788 131.413 72.2124 131.466C71.4271 130.631 67.9094 126.635 67.7269 125.787C67.914 124.724 65.4126 120.697 67.1524 119.115C67.362 119.403 68.129 120.098 68.4254 120.379Z" fill="#FCD5D3"/>
<path d="M71.7579 128.462L71.6987 128.699C71.363 128.5 71.2316 127.302 70.9405 126.824C70.0008 125.286 69.1816 124.003 68.0448 122.605L68.0101 122.387L68.1819 122.389C69.7936 124.029 71.203 126.215 71.7579 128.462Z" fill="#C4AA84"/>
<path d="M62.3645 157.127C62.265 157.539 62.2127 157.649 62.461 158.04C64.0159 160.48 62.0727 165.183 60.3181 167.106L60.1891 167.078C56.7174 160.54 60.1393 159.436 59.7443 157.69C60.7813 157.36 61.4846 155.941 61.9665 155.049C62.244 155.966 62.3304 156.162 62.3645 157.127Z" fill="#FCD5D3"/>
<path d="M60.4073 165.31L60.3221 165.399C59.4335 164.101 59.6541 160.738 60.016 159.181L60.1402 158.935C60.3125 159.111 60.1718 159.786 60.1286 160.102C59.8769 161.947 60.1081 163.491 60.4073 165.31Z" fill="#C4AA84"/>
<path d="M69.2314 93.7402C69.0864 94.7791 68.9316 95.8165 68.7673 96.8524C67.8978 97.8293 67.0158 98.8007 66.2049 99.8267L65.5565 100.585L65.114 100.692L64.8772 100.429C65.109 99.9818 65.2832 96.3844 65.3401 95.6404C66.0544 94.7872 66.6618 94.0426 67.3192 93.1454C67.6979 92.873 68.1223 92.7204 68.5837 92.8199C69.0015 93.0569 69.0554 93.2995 69.2314 93.7402Z" fill="#C01E25"/>
<path d="M67.3192 93.1453C66.6618 94.0425 66.0544 94.7871 65.3401 95.6404C65.2833 96.3844 65.109 99.9817 64.8772 100.429L64.4779 100.675L64.2901 100.819C63.9366 100.701 63.8445 100.463 63.6596 100.164C62.5544 98.3761 61.8666 95.6736 63.1382 93.8128L63.3085 93.588C63.664 93.5108 63.8407 93.4947 64.2048 93.4724C64.7035 93.6146 64.8627 93.9636 65.151 94.3989L65.1907 94.4719C65.7807 94.529 66.27 93.3095 67.3192 93.1453Z" fill="#F4E3E6"/>
<path d="M64.4778 100.675L64.2901 100.819C63.9366 100.701 63.8445 100.463 63.6595 100.164C62.5544 98.3761 61.8665 95.6736 63.1382 93.8128C63.5065 94.6895 63.9264 96.2265 63.8471 97.1618L63.6757 97.17L63.1699 96.6646C64.1239 98.7652 64.0946 98.4976 64.4778 100.675Z" fill="#C01E25"/>
<path d="M65.151 94.399C64.6062 94.7637 64.5573 94.9215 63.9749 94.96C63.6219 94.6828 63.4649 94.037 63.3085 93.588C63.6639 93.5108 63.8407 93.4947 64.2047 93.4724C64.7035 93.6147 64.8626 93.9636 65.151 94.399Z" fill="#C01E25"/>
<path d="M65.168 94.606C65.099 95.6251 64.9096 98.7278 64.6591 99.5654L64.5389 99.4144C64.2778 98.16 64.1246 96.8111 63.9579 95.5343L65.168 94.606Z" fill="#C01E25"/>
<path d="M71.5154 97.2254C71.7771 98.0047 71.0626 98.8166 70.3426 98.9738L70.3155 99.1216L70.2897 99.3415C69.7414 99.7554 69.0051 100.181 68.3525 100.393C67.9086 100.411 67.2389 100.501 66.8859 100.286L66.7389 100.108L66.3019 100.269L66.3539 100.032L66.2049 99.8266C67.0158 98.8006 67.8978 97.8293 68.7673 96.8524C68.9316 95.8165 69.0864 94.7791 69.2314 93.7402C69.7381 94.5875 69.6309 95.3969 69.5033 96.3443L69.6877 96.2619C69.8505 96.9775 69.9 97.2667 70.2449 97.9097C70.6681 97.7026 71.101 97.4537 71.5154 97.2254Z" fill="#F4E3E6"/>
<path d="M69.4623 96.572L69.8905 97.8605C68.9258 98.5249 67.9741 99.1671 67.0514 99.8899C66.9726 99.942 66.799 100.05 66.7389 100.108L66.3019 100.269L66.3539 100.032C67.4753 98.7202 68.2224 97.801 69.4623 96.572Z" fill="#C01E25"/>
<path d="M71.5154 97.2253C71.7771 98.0046 71.0626 98.8166 70.3426 98.9738C69.661 99.0559 68.7664 99.2754 68.0785 99.4236L70.2449 97.9097C70.6681 97.7026 71.101 97.4537 71.5154 97.2253Z" fill="#C01E25"/>
<path d="M70.3155 99.1216L70.2897 99.3414C69.7414 99.7554 69.0052 100.181 68.3525 100.393C67.9086 100.411 67.239 100.501 66.8859 100.286L66.7389 100.108C66.7991 100.05 66.9726 99.942 67.0514 99.8899C67.9849 99.5947 69.3288 99.3363 70.3155 99.1216Z" fill="#C01E25"/>
<path d="M62.3646 157.127L62.3946 157.176C62.5573 157.431 63.0192 157.888 63.1047 158.094C64.5574 161.598 62.3835 164.821 60.5846 167.602L60.2815 167.312L60.3181 167.106C62.0727 165.183 64.016 160.48 62.4611 158.04C62.2127 157.649 62.265 157.539 62.3646 157.127Z" fill="#C4AA84"/>
<path d="M60.1891 167.078L59.9234 167.504C58.6146 165.108 57.6216 162.87 58.4049 160.017C58.6034 159.295 59.1019 158.121 59.7444 157.69C60.1393 159.436 56.7175 160.54 60.1891 167.078Z" fill="#C4AA84"/>
<path d="M67.1524 119.115C65.4125 120.697 67.914 124.724 67.7269 125.787C66.9487 124.442 65.2971 119.929 66.5939 118.804C66.9368 118.87 66.8538 118.869 67.1524 119.115Z" fill="#C4AA84"/>
<path d="M59.8924 16.3714C60.7243 15.9427 61.3555 15.7055 62.0736 16.4568C62.1087 16.9323 62.1522 16.7574 61.8475 17.1645C61.25 17.5206 60.6559 17.404 59.9917 17.2922C59.9448 17.0685 59.9154 16.618 59.8924 16.3714Z" fill="#C4AA84"/>
<path d="M69.6877 96.2619C70.2326 96.1289 70.7357 96.0504 71.2467 96.3027C71.6014 96.8004 71.5246 96.5766 71.5154 97.2254C71.101 97.4537 70.6681 97.7026 70.2449 97.9097C69.9 97.2667 69.8505 96.9775 69.6877 96.2619Z" fill="#C01E25"/>
<path d="M65.7324 204.852C66.8919 207.44 69.088 209.709 71.0294 211.724C71.2636 211.967 71.3672 211.946 71.41 212.285C70.5263 212.264 67.2022 207.909 66.6081 207.018C66.4736 208.453 66.6772 209.939 66.5343 211.009C66.1074 209.701 66.1335 208.16 66.4089 206.822C65.2755 205.086 64.5317 203.794 63.5919 201.94C62.5068 204.628 62.9669 205.288 62.3782 207.266C61.729 206.676 63.0484 202.256 63.3725 201.392L62.5933 199.214L63.1798 199.205C63.2697 200.069 63.8498 201.446 64.1968 202.264C65.4852 205.3 68.8244 205.666 70.9765 207.656C69.3214 206.835 67.2162 205.866 65.7324 204.852Z" fill="#C4AA84"/>
<path d="M57.2711 181.102C58.0115 182.497 56.675 182.992 55.6373 183.402L55.2872 183.475C55.9762 184.379 56.3489 185.301 56.7202 186.352C56.7697 186.566 56.827 186.746 56.8132 186.965C56.8755 188.526 56.9689 189.07 55.2695 189.36L54.6707 189.458C53.503 189.475 52.2565 189.401 51.2934 188.639C51.3399 188.914 51.4502 189.338 51.3511 189.574C51.0926 190.851 51.0837 191.365 49.6831 191.57L49.3312 191.494C48.3715 191.062 47.6599 190.308 47.3047 189.307C47.2344 189.177 46.974 188.712 46.9453 188.602C46.2923 186.565 46.0768 184.412 46.3125 182.285C46.3209 181.874 46.4385 181.754 46.6764 181.409L46.525 181.107C46.963 180.94 46.9056 180.739 47.424 180.445C49.9968 179.35 51.6407 178.863 54.4772 179.118L54.878 179.302C55.8455 179.387 56.6754 180.1 57.1926 180.878L57.2711 181.102Z" fill="#C01E25"/>
<path d="M57.2711 181.102C58.0115 182.497 56.675 182.992 55.6373 183.402L55.2872 183.475C55.9762 184.379 56.3489 185.301 56.7202 186.352C56.7697 186.566 56.827 186.746 56.8132 186.965C55.9737 186.262 54.8594 184.245 53.9868 183.266C52.6257 182.8 47.7452 181.127 46.525 181.107C46.963 180.94 46.9056 180.739 47.424 180.445C49.9968 179.35 51.6407 178.863 54.4772 179.118L54.878 179.302C55.8456 179.387 56.6754 180.1 57.1926 180.878L57.2711 181.102Z" fill="#F4E3E6"/>
<path d="M54.878 179.302C55.8455 179.387 56.6754 180.1 57.1926 180.878C55.078 180.845 53.337 180.801 51.2317 180.613L54.878 179.302Z" fill="#C01E25"/>
<path d="M54.4772 179.118C52.6621 180.106 49.4964 180.875 47.424 180.445C49.9968 179.35 51.6407 178.863 54.4772 179.118Z" fill="#C01E25"/>
<path d="M57.2711 181.102C58.0115 182.497 56.675 182.992 55.6373 183.402C55.441 182.995 55.0175 181.627 54.8515 181.135L57.2711 181.102Z" fill="#C01E25"/>
<path d="M56.7202 186.352C56.2521 186.171 54.8975 184.123 54.6156 183.601C54.8597 183.44 54.9477 183.493 55.2872 183.475C55.9762 184.379 56.3488 185.301 56.7202 186.352Z" fill="#C01E25"/>
<path d="M55.1977 183.071L55.1208 183.263C54.2319 183.117 49.2205 181.422 47.8493 181.015L47.8219 180.96L47.9475 180.842C49.7729 180.773 52.7279 180.993 54.5791 181.139L55.1977 183.071Z" fill="#C01E25"/>
<path d="M50.8004 187.656C52.2793 188.189 53.8395 188.723 55.2695 189.36L54.6707 189.458C53.503 189.475 52.2565 189.401 51.2934 188.639C51.3399 188.914 51.4502 189.338 51.3511 189.574C51.0926 190.851 51.0837 191.365 49.6831 191.57L49.3312 191.494C48.3715 191.062 47.6599 190.308 47.3047 189.307C47.2344 189.177 46.974 188.712 46.9453 188.602C46.2923 186.565 46.0768 184.412 46.3125 182.285C46.3209 181.874 46.4385 181.754 46.6764 181.409C48.0827 183.367 49.2779 185.601 50.8004 187.656Z" fill="#F4E3E6"/>
<path d="M47.4967 185.652C48.1865 187.354 49.1595 189.673 49.3312 191.494C48.3715 191.062 47.6599 190.308 47.3047 189.307C47.25 188.403 47.4258 186.622 47.4967 185.652Z" fill="#C01E25"/>
<path d="M51.3511 189.574C51.0926 190.851 51.0837 191.365 49.6831 191.57C49.5102 191.028 49.2323 189.644 49.0934 189.035C49.7984 189.098 50.5086 189.042 51.1903 189.254L51.3511 189.574Z" fill="#C01E25"/>
<path d="M46.3126 182.285C47.4706 183.758 47.2262 186.849 46.9453 188.602C46.2924 186.565 46.0768 184.412 46.3126 182.285Z" fill="#C01E25"/>
<path d="M51.2933 188.639L51.3005 188.309L51.559 188.241C52.3682 188.413 53.9676 189.024 54.6707 189.458C53.503 189.475 52.2565 189.401 51.2933 188.639Z" fill="#C01E25"/>
<path d="M51.1267 188.636L51.0954 188.797C50.6276 188.96 49.608 188.884 49.0675 188.869C48.2003 186.735 47.4255 184.564 46.7454 182.362L46.7567 182.289L46.897 182.301C48.2376 184.157 49.7418 186.635 51.1267 188.636Z" fill="#C01E25"/>
<path d="M74.2145 176.57C73.5926 177.552 73.2818 177.916 72.2446 178.441C72.2853 177.837 73.3459 176.96 73.8609 176.488L74.2145 176.57Z" fill="#C4AA84"/>
<path d="M74.2764 175.127C73.7731 176.022 67.9435 176.875 66.7718 177.452C65.876 177.894 64.2626 179.194 63.4919 179.38L63.7055 178.971C65.2724 177.855 66.879 176.847 68.7347 176.299L68.633 176.38C70.5807 176.014 72.3543 175.543 74.2764 175.127Z" fill="#C4AA84"/>
<path d="M75.0992 188.585C74.4048 189.099 73.5456 189.484 72.8161 189.996C70.6715 191.5 68.3198 191.98 65.7331 191.274L65.4566 191.153L65.4825 190.907L65.1651 190.665C64.5992 189.569 65.9894 187.915 66.8922 187.413C69.5434 185.939 72.4549 187.892 75.0992 188.585Z" fill="#C4AA84"/>
<path d="M65.4825 190.907C67.0695 189.821 66.517 190.16 68.2514 190.472C68.4387 190.505 68.4724 190.448 68.568 190.353C68.0618 190.19 67.7397 190.082 67.2511 189.859L67.3657 189.625C68.5583 189.045 70.5193 189.338 71.8135 189.517C71.4903 189.423 70.8488 189.303 70.669 189.096C70.883 189.027 71.0997 188.967 71.3186 188.916C71.7851 188.81 73.4664 188.544 73.8281 188.771C73.8281 188.771 70.9495 190.608 70.7135 190.763C69.7597 191.392 66.4638 190.873 65.7331 191.274L65.4566 191.153L65.4825 190.907Z" fill="#FCD5D3"/>
<path d="M73.2551 188.547C73.1972 188.557 70.5712 188.551 70.5277 188.541L70.6858 188.181C70.0476 188.126 68.5321 189.415 67.1997 189.408L67.1266 189.232L67.5137 188.515L67.441 188.353C66.6554 188.932 67.1969 189.204 66.3994 189.779L65.592 190.378L65.4231 190.347C65.3732 190.086 65.4098 189.919 65.5287 189.679C67.2319 186.232 70.3985 187.201 73.2551 188.547Z" fill="#FCD5D3"/>
<path d="M51.2629 174.659C51.2516 175.844 50.9586 176.241 50.3266 177.262C49.8555 176.73 49.4143 176.163 48.9719 175.606C48.7117 174.771 48.6225 174.058 49.4338 173.49C50.4735 173.188 50.8358 173.866 51.2629 174.659Z" fill="#C01E25"/>
<path d="M44.1086 184.765C44.0259 184.86 43.9424 184.955 43.8584 185.05C42.6601 186.401 41.6564 186.918 40.1752 185.523C40.4077 182.983 42.6897 184.189 44.1086 184.765Z" fill="#C01E25"/>
</svg>
