<svg class="dx_stain" width="3667" height="4055" viewBox="0 0 3667 4055" fill="none" xmlns="http://www.w3.org/2000/svg">
<path d="M1785.83 27.7794C1819.67 23.2164 1988.83 -7.53571 2015.27 1.73029C2029.63 35.5723 2026.68 77.8506 2042.29 118.233C2025.44 140.811 2020.15 177.138 2041.13 187.402C2094.3 213.409 2058.92 227.895 2088.16 276.336C2080.9 291.786 2069.12 291.215 2068.37 294.296C2064.3 311.054 2065.57 337.396 2063.55 354.344C2094.3 370.641 2138.19 389.939 2152.32 423.514C2170.45 466.61 2135.56 452.959 2156.84 502.471C2151.31 509.836 2142.79 514.357 2133.58 514.81C2100.19 516.46 2116.73 469.843 2047.97 532.152L2040.6 538.87L2041.13 596.2C2066.55 603.201 2089.88 608.035 2083 639.63C2073.22 652.752 2065.38 655.173 2050.41 662.238C2056.65 668.312 2064.21 675.669 2073.08 684.3C2089.19 736.462 2069.32 724.309 2116.65 754.35C2122.47 769.36 2126.73 786.241 2140.36 793.991C2155.11 797.441 2162.91 798.11 2178.09 799.27C2180.38 897.143 2168.51 956.141 2165.74 1045.96C2210.31 1050.7 2286.31 1068.73 2287.91 1003.41C2288.38 984.477 2285.92 981.044 2277.91 964.112C2285.61 944.543 2313.14 908.208 2314.86 900.043C2323.92 856.994 2317.54 844.007 2335.27 800.298C2360.18 800.679 2387.25 801.793 2411.27 807.651C2516.12 833.218 2623.72 816.227 2730.39 825.827C2751.51 827.727 2790.29 798.164 2811.09 793.123C2829.51 793.157 2873.76 800.467 2898.21 801.081C2911.97 852.304 2909.33 889.528 2908.99 941.978L2910.36 943.244C2926.84 958.757 2927.95 963.773 2932.13 986.136C2943.91 997.018 2958.39 984.074 2956.75 1001.64C2952.1 1051.55 3042.84 1042.49 3084.35 1042.29C3142.77 1073.29 3162.84 1128.95 3189.15 1188.89C3195.91 1204.29 3185.86 1233.34 3195.96 1250.88C3211.21 1257.49 3228.31 1262.4 3232.64 1277.97C3246.66 1328.26 3236.31 1351.07 3249.83 1405.79C3229.97 1441.31 3258.26 1519.88 3253.8 1562.9C3252.62 1574.21 3255.07 1604.75 3261.52 1613.44L3270.77 1617.38L3278 1618.39C3307.6 1632.04 3292.3 1642.59 3315.69 1667.02C3326.94 1672.09 3335.93 1669.43 3340.78 1672.19C3357.38 1732.77 3305.5 1730.31 3342.75 1787.73C3359.65 1779.21 3379.43 1766.8 3397.71 1767.37C3416.92 1779.66 3406.12 1786.25 3416.46 1796.53C3423.25 1803.29 3498.44 1830.27 3501.2 1834.74C3526.37 1875.81 3551.22 1954.35 3541.53 2001.42C3539.62 2010.73 3505.06 2022.28 3512.89 2050.26C3522.93 2086.2 3555.64 2064.74 3566.8 2081.8C3565.86 2093.86 3559.92 2099.03 3552.2 2108.17C3555.39 2133.86 3580.92 2140.68 3602.59 2151.35C3630.82 2158.63 3638.7 2178.39 3646.6 2205.06C3663.68 2242.44 3671.95 2420.56 3661.45 2468.52C3651.18 2496.03 3644.27 2511.44 3649.58 2541.28C3654.53 2553.05 3664.63 2572.61 3662.86 2583.99L3658.58 2590.64C3658.03 2612.27 3657.32 2656.71 3643.85 2674.24C3645.78 2680.16 3646.35 2683.97 3650.92 2688.21C3657.81 2720.97 3653.78 2835.85 3638.6 2859.55C3596.65 2925.12 3622.56 2952.55 3610.26 3022.9C3617.24 3038.4 3624.06 3054.18 3632.17 3069.08C3606.53 3122.5 3625.99 3129.95 3619.27 3145.83C3597.2 3197.98 3592.66 3178.63 3581.84 3243.48C3536.6 3289.7 3472.45 3346.85 3468.94 3420.58C3467.77 3445.09 3478.84 3469.9 3473.73 3495.68C3466.44 3501.01 3465.21 3501.26 3456.64 3504.4C3419.15 3593.67 3383.95 3524.38 3339.92 3517.77C3288.41 3521.67 3288.15 3551.64 3252.06 3582.16C3246.26 3587.07 3229.97 3584.27 3224.43 3590.62C3198.48 3665.84 3165.69 3615.38 3129.72 3646.2C3129.49 3661.01 3130.88 3670.83 3121.95 3682.52C3091.73 3696.87 3077.53 3671.85 3042.6 3671.64C3042.43 3685.99 3042.45 3698.86 3040.89 3713.12C3047.77 3751.68 3014.64 3777.97 2983.33 3792.49C2964.23 3798.5 2958.06 3799.05 2937.92 3800.74C2933.05 3809.55 2929.14 3817.38 2922.88 3825.34C2893.53 3828.81 2850.96 3823.22 2831.15 3837.65C2785.16 3877.87 2771.71 3864.07 2723.48 3918.5C2700.65 3922.99 2641.68 3941.49 2625.98 3942.59C2607.61 3944.92 2590.53 3943.22 2579.8 3953.89C2578.12 3964.68 2576.58 3974.84 2574.25 3985.55C2537.36 4001.85 2526.31 4013.49 2489.88 3999.56L2449.71 3996.09C2416.58 4001.76 2414.98 4022 2403.84 4021.78C2376.52 4021.28 2360.98 4023.94 2333.02 4029.66C2292.28 3952.58 2292.19 4009.38 2255.82 4025.38C2238.33 4033.09 2179.84 4027.8 2158.23 4033.93C2137.54 4039.82 2122.96 4060.56 2104.14 4052.52C2096.38 4033.81 2091.91 4033.72 2073.45 4030.8C2040.84 4025.59 2023.08 4016.11 1998 3996.09C1993.9 3992.83 1974.03 3993.42 1970.96 3986.19C1965.52 3973.32 1960.05 3959.35 1954.44 3946.48C1944.83 3937.08 1911.97 3945.93 1903.1 3940.51C1854.28 3910.88 1882.94 3898.23 1824.67 3864.91L1824.19 3814.03C1823.5 3814.63 1859.83 3740.97 1861.32 3733.23C1858.42 3714.39 1847.68 3696.66 1838.81 3679.55C1841.24 3654.16 1842.12 3636.97 1849.8 3612.51L1843.81 3604.97L1842 3607.38C1834.75 3590.92 1830.49 3575.38 1816.56 3567.09L1810.19 3572.63L1797.3 3570.05C1808.8 3579.4 1811.46 3580 1810.33 3593.71C1787.46 3595.53 1776.74 3598.58 1755.09 3604.38L1749.16 3615.76C1720.58 3630.37 1698.42 3606.24 1680.17 3587.74C1620.13 3583.47 1611.84 3617.03 1559.29 3626.3C1533.58 3630.83 1486.93 3610.35 1459.07 3607.68C1422.74 3604.21 1382.29 3606.58 1345.51 3607.68C1305.48 3581.77 1291.04 3574.41 1244.97 3573.77L1259.01 3584.69L1258.66 3595.66C1244.95 3618.98 1221.96 3634.52 1194.2 3632.19L1190.88 3627.91C1200.1 3615.51 1206.44 3605.69 1214.56 3592.53C1215.21 3575.68 1215.22 3580.84 1201.73 3564.76C1192.97 3533.65 1202.08 3509.94 1211.12 3480.31C1206.63 3477.22 1185.58 3463.25 1182.5 3459.44C1153.16 3423.25 1178.06 3352.86 1175.17 3309.22C1173.9 3290.04 1171.34 3287.8 1159.77 3277.34C1139.8 3274 1138.67 3277.68 1118.51 3284.71C1073.02 3300.37 1029.83 3287.29 990.476 3263.37C936.844 3244.71 976.647 3174.1 949.698 3168.47C909.001 3159.96 898.259 3129.53 863.436 3102.1C846.447 3109.76 827.81 3119.33 810.888 3127.54C696.602 3083.39 667.236 3135.54 579.51 3057.02C566.642 3060.83 553.267 3065.44 540.455 3069.63C488.605 3038.35 449.279 3005.42 391.664 3010.88C382.619 3011.73 360.461 2983.2 354.349 2972.79C329.952 2944.47 335.057 2866.2 331.082 2826.41C299.764 2825.27 292.671 2819.47 267.872 2801.56C274.136 2779.26 295.892 2715.89 292.493 2697.14C280.408 2630.51 265.277 2606.43 267.672 2534.81L270.339 2532.01C291.832 2509.15 353.989 2412.43 364.808 2383.69C381.696 2358.89 412.789 2322.4 446.126 2339.33C468.322 2363.16 462.091 2375.86 455.01 2404.9C466.59 2411.97 475.902 2419.54 489.218 2418.61C494.264 2415.78 497.815 2414.42 501.112 2409.64C503.614 2377.38 530.114 2347.58 528.802 2324.9C524.828 2256.03 382.34 2277.19 343.336 2278.8C281.005 2281.17 111.418 2159.85 76.1887 2113.17C86.0795 1997.73 91.9776 2037.48 23.2323 1953.09C10.1313 1923.15 -2.29322 1868.97 0.371313 1835.89C-0.0558224 1808.22 9.36225 1752.09 13.909 1723.1C15.7358 1689.06 23.8178 1688.6 30.8207 1658.52C32.5287 1651.18 17.3304 1629.73 19.2424 1620.68C22.6075 1604.77 40.6564 1569.81 40.8003 1555.24C41.2049 1514.31 28.4172 1453.24 35.7889 1413.63C49.1792 1341.67 76.5193 1265.61 90.8485 1194.87C88.2031 1192.09 85.6264 1189.24 83.1202 1186.34C71.2396 1172.45 70.9137 1167.47 72.191 1149.82C94.0232 1134.65 136.016 1158.64 163.532 1129.73C165.126 1119.22 148.632 1055.05 145.791 1029.33C141.858 973.616 101.372 912.907 141.392 869.486C139.718 839.458 144.407 804.896 161.789 779.515L163.266 777.403C176.448 758.215 191.907 749.047 210.916 735.984C217.856 723.103 218.65 721.334 220.006 706.65L201.944 690.975L205.121 686.734C217.626 687.127 223.391 688.368 234.023 681.269C247.51 662.39 242.884 631.257 240.492 608.992C234.618 599.849 221.568 606.055 211.082 592.132C232.07 585.398 263.736 592.069 284.617 597.661C323.142 609.047 371.145 591.273 412.359 589.965C455.112 588.611 506.175 593.559 547.219 587.387C550.089 579.582 556.172 567.036 559.769 559.044C597.664 474.796 649.967 460.531 737.38 453.229C793.412 443.773 825.102 430.871 875.818 406.38C871.606 394.252 872.605 372.271 872.469 358.577C918.876 284.247 962.016 197.743 1071.37 221.41C1091.25 203.898 1122.18 175.025 1143.44 161.641C1252.46 83.4505 1255.78 136.002 1368.99 132.912C1409.08 159.131 1458.89 173.353 1505.15 183.229C1510.98 181.447 1519.13 179.288 1524.26 176.545L1526.28 171.977C1546.4 180.1 1560.32 177.489 1578.96 168.024C1597.52 143.253 1620.96 122.338 1645.18 103.209C1695.87 104.378 1723.82 92.97 1764.87 92.6949C1771.47 72.3389 1780.11 47.9915 1785.83 27.7794Z" fill="url(#paint0_linear_108_964)"/>
<path d="M3024.74 2029.61C3044.92 2028.42 3135.5 2022.88 3139.59 2057.8C3141.21 2071.68 3117.08 2101.44 3138.96 2115.88C3176.62 2137.8 3225.53 2143.94 3265.96 2156.55C3268.4 2157.32 3266.58 2175.86 3266.3 2178.18C3268.66 2174.54 3271.39 2171.03 3272.71 2167.05L3276.02 2147.88C3278.95 2134.08 3291.97 2117.91 3305.87 2113.93C3318.13 2115.62 3319.65 2115.96 3329.95 2122.73C3339.33 2144.24 3348.29 2155.54 3366.7 2170.52C3420.81 2197.78 3485.66 2170.06 3501.53 2218.86C3503.58 2225.38 3505.01 2232.07 3505.79 2238.84C3499.5 2281.89 3516.38 2329 3496.36 2356.94L3492.01 2359.44C3461.33 2394.32 3480.89 2423.74 3502.52 2459.55L3534.93 2494.81C3552.4 2497.01 3559.59 2488.92 3576.53 2478.55C3583.57 2493.2 3599.2 2527.78 3606.89 2540.1C3626.45 2545.14 3629.62 2545.14 3649.58 2541.28C3654.53 2553.05 3664.62 2572.61 3662.86 2583.99L3658.58 2590.64C3658.03 2612.27 3657.32 2656.71 3643.85 2674.24C3645.78 2680.17 3646.35 2683.97 3650.91 2688.21C3657.81 2720.97 3653.78 2835.85 3638.6 2859.56C3596.64 2925.12 3622.56 2952.55 3610.26 3022.9C3617.24 3038.4 3624.06 3054.19 3632.16 3069.09C3606.53 3122.5 3625.98 3129.95 3619.27 3145.83C3597.19 3197.98 3592.66 3178.63 3581.84 3243.48C3536.6 3289.7 3472.45 3346.85 3468.94 3420.59C3467.77 3445.09 3478.84 3469.9 3473.73 3495.68C3466.43 3501.01 3465.21 3501.27 3456.64 3504.4C3419.15 3593.67 3383.95 3524.38 3339.92 3517.77C3288.4 3521.67 3288.15 3551.64 3252.06 3582.16C3246.26 3587.07 3229.97 3584.27 3224.43 3590.62C3198.48 3665.84 3165.69 3615.38 3129.72 3646.2C3129.49 3661.02 3130.88 3670.84 3121.95 3682.52C3091.73 3696.87 3077.53 3671.85 3042.6 3671.64C3042.43 3685.99 3042.45 3698.86 3040.89 3713.12C3047.76 3751.68 3014.64 3777.97 2983.33 3792.49C2964.23 3798.5 2958.06 3799.05 2937.91 3800.74C2933.05 3809.55 2929.14 3817.38 2922.88 3825.34C2893.53 3828.81 2850.96 3823.22 2831.15 3837.65C2785.16 3877.87 2771.71 3864.07 2723.48 3918.5C2700.64 3922.99 2641.68 3941.49 2625.98 3942.59C2607.61 3944.92 2590.53 3943.22 2579.8 3953.89C2578.12 3964.68 2576.58 3974.84 2574.25 3985.55C2537.36 4001.85 2526.31 4013.49 2489.88 3999.56L2449.7 3996.09C2416.58 4001.76 2414.98 4022 2403.83 4021.79C2376.52 4021.28 2360.98 4023.94 2333.02 4029.66C2292.28 3952.58 2292.19 4009.38 2255.82 4025.38C2238.33 4033.09 2179.84 4027.8 2158.23 4033.93C2137.54 4039.82 2122.96 4060.56 2104.14 4052.52C2096.37 4033.81 2091.9 4033.72 2073.45 4030.8C2040.84 4025.6 2023.08 4016.11 1997.99 3996.09C1993.9 3992.83 1974.03 3993.43 1970.96 3986.19C1965.52 3973.32 1960.04 3959.35 1954.44 3946.48C1944.83 3937.09 1911.97 3945.93 1903.09 3940.51C1854.28 3910.88 1882.93 3898.23 1824.67 3864.92L1824.19 3814.04C1823.5 3814.63 1859.83 3740.98 1861.31 3733.23C1858.42 3714.39 1847.68 3696.66 1838.8 3679.56C1841.24 3654.16 1842.12 3636.97 1849.8 3612.51C1860.27 3612.8 1861.46 3612.42 1870.66 3607.38L1859.69 3602.05C1909.08 3582.2 1873.92 3557.65 1913.05 3511.51C1912.72 3491.7 1921.79 3474.34 1925.95 3455.64L1914.36 3445.86L1907.72 3469.6L1903.1 3460.59C1890.48 3484.76 1894.62 3533.44 1883.37 3545.84C1867.32 3530.18 1883 3508.76 1889.52 3492.93C1890.52 3490.47 1884.96 3467.78 1883.84 3463.47L1883.09 3465.54C1877.41 3425.12 1962.24 3388.2 1904.25 3300.25L1908.09 3309.01C1890.12 3283.14 1869.41 3223.04 1876.02 3191.08C1888.04 3194.38 1886.2 3195.82 1895.81 3206.91L1884.91 3240.99L1889.27 3242.81C1898.82 3228.03 1893.59 3208.43 1900.65 3188.45C1907.74 3194.89 1908.42 3208.43 1910.8 3219.65L1915.41 3221.94L1916.72 3215.93C1901.94 3188.33 1908.35 3171.14 1916.36 3140.37L1918.52 3180.79C1942.04 3131.39 1885.31 3042.67 1911.82 3010.55C1922.58 3040.09 1921.1 3063.96 1927.41 3088.85C1929.64 3097.66 1992.18 3123.82 2005.25 3127.12C2034.65 3084.2 1983.43 2999.96 2131.35 2982.78C2172.53 2977.99 2246.83 3007.5 2273.21 2995.98C2293 2958.18 2247.71 2905.36 2259.22 2867.94L2265.54 2895.49C2265.15 2854.22 2268.31 2859.22 2291.06 2828.45C2293.97 2824.51 2277.52 2810.62 2278.74 2792.3C2295.43 2766.22 2329.16 2771.13 2354.77 2760.8C2374.79 2752.72 2391.86 2691.6 2401.39 2668.27L2383.88 2674.49L2380.25 2672.25C2383.49 2666.2 2389.91 2654.64 2396.56 2653.67C2440.42 2647.15 2432.76 2587.04 2439.2 2579.42L2446.94 2592.8C2465.54 2580.86 2478.93 2541.03 2480.26 2519.7C2476.03 2512.16 2475.67 2510.72 2474.14 2502.09L2473.78 2499.97C2469.47 2505.09 2466.75 2505.69 2460.66 2508.31C2446.51 2504.58 2444.51 2501.28 2434.69 2490.57C2431.26 2466.91 2437.06 2489.52 2441.32 2457.6C2450.21 2449.94 2507.04 2433.22 2524.26 2426.53L2526.54 2434.7C2522.28 2450.45 2519.42 2448.24 2503.47 2460.65L2506.7 2467C2518.82 2473.6 2521.9 2475.46 2531.96 2485.07L2534.27 2487.31L2544.26 2485.71C2545.85 2479.65 2548.68 2472.37 2550.83 2466.32C2558.47 2473.52 2545 2497.47 2551.74 2516.9C2565.91 2523.59 2605.67 2515.25 2614.65 2503.57C2614.54 2472.58 2541.87 2435.93 2538.03 2393.26L2530.83 2415.31L2526.12 2415.57C2509.31 2379.08 2528.34 2362.66 2549.45 2341.07C2577.64 2312.2 2632.56 2340.26 2659.65 2323.71L2660.18 2314.7C2651.77 2302.63 2650.15 2299.46 2637.65 2291.29L2635.12 2292.39L2623.9 2283.5L2619.6 2259.71C2614 2235.46 2651.21 2189.95 2667.41 2169.55C2660.9 2156.68 2658.09 2117.36 2667.35 2105.38C2674.19 2117.61 2672.44 2138.82 2672.49 2153.59C2724.29 2154.86 2736.83 2150.38 2788.32 2138.61C2802.53 2118.08 2797.93 2101.74 2812.63 2085.61C2826.16 2076.68 2855.23 2078.63 2872.81 2078.33L2884.24 2084.89C2890.3 2103.69 2890.16 2112.62 2909.87 2098.95C2959.77 2064.41 2963.01 2034.35 3024.74 2029.61Z" fill="#F1CDCB"/>
<path d="M3658.58 2590.63C3658.03 2612.26 3657.31 2656.71 3643.84 2674.23C3645.78 2680.16 3646.34 2683.97 3650.91 2688.2C3657.8 2720.96 3653.77 2835.85 3638.6 2859.55C3596.64 2925.12 3622.56 2952.55 3610.25 3022.9C3617.23 3038.39 3624.05 3054.18 3632.16 3069.08C3606.52 3122.5 3625.98 3129.95 3619.26 3145.82C3597.19 3197.97 3592.65 3178.63 3581.84 3243.47C3536.6 3289.7 3472.45 3346.84 3468.93 3420.58C3467.76 3445.09 3478.83 3469.89 3473.73 3495.67C3466.43 3501 3465.2 3501.26 3456.63 3504.39C3419.15 3593.66 3383.95 3524.37 3339.92 3517.77C3288.4 3521.66 3288.15 3551.63 3252.05 3582.15C3246.26 3587.06 3229.97 3584.27 3224.43 3590.62C3198.47 3665.83 3165.68 3615.38 3129.71 3646.19C3129.48 3661.01 3130.88 3670.83 3121.95 3682.51C3091.73 3696.86 3077.53 3671.85 3042.59 3671.63C3042.42 3685.98 3042.44 3698.85 3040.89 3713.12C3047.76 3751.68 3014.64 3777.96 2983.33 3792.48C2964.22 3798.49 2958.05 3799.04 2937.91 3800.74C2933.04 3809.54 2929.14 3817.37 2922.88 3825.33C2910.08 3823 2885.94 3821.56 2872.17 3820.29C2922.5 3811.23 3018.19 3629.98 2979.04 3600.65C2979.08 3613.43 2977.31 3632.73 2967.26 3641.45L2964.09 3636.46C2964.7 3612.08 2967.75 3602.43 2973.95 3579.23C2949.79 3570.38 2941.89 3567.55 2919.92 3553.49L2933.76 3552.35C2955.74 3535.88 2960.6 3536.94 2987.01 3528.98C3019.16 3495.21 2981.34 3425.32 2964.1 3389.51C2928.77 3390.36 2903.41 3387.56 2862.45 3389.64L2879.95 3391.75C2870.01 3395.31 2859.97 3398.61 2849.85 3401.66C2858.79 3406.78 2872.27 3404.16 2883.41 3403.35L2879.68 3406.4C2886.74 3408.9 2902.56 3409.11 2910.72 3409.57C2901.44 3411.48 2900.82 3412.11 2892.56 3417.02L2895.39 3421.13C2913.37 3417.91 2925.09 3415.12 2943.58 3416.43L2947.38 3421.17L2945.21 3428.37L2930.83 3430.95L2936.37 3433.91C2945.2 3446.23 2952.42 3504.18 2952.87 3521.79C2943.97 3530.89 2941.26 3534.7 2928.79 3538.85C2920.28 3530.51 2921.13 3517.09 2919.26 3503.21C2892.71 3502.53 2848.02 3478.02 2853.09 3439.42C2854.61 3427.82 2882.84 3434.55 2895.52 3427.27C2885.47 3418.97 2872.32 3427.78 2857.43 3421.55L2872.02 3408.47C2857.94 3405.04 2826.63 3407.5 2819.13 3397.81C2777.32 3343.67 2708.83 3309.38 2720.23 3231.16C2723.66 3207.66 2726.95 3189.93 2727.33 3166.82L2717.41 3171.47C2725.14 3145.31 2730.17 3121.78 2731.04 3094.56C2745.66 3068.23 2771.17 3051.64 2786.25 3013.08C2777.76 2998.35 2781.12 2986.03 2783.97 2969.86C2795.98 2901.67 2822.65 2908.61 2870.62 2925.29C2884.02 2911.36 2898.51 2897.43 2912.64 2884.23C2929.16 2868.82 2923.75 2858.28 2924.63 2837.2L2932.43 2833.22C3000.02 2831.4 2955.82 2794.11 3002.53 2774.68C3022.31 2766.47 3019.96 2786.32 3060.19 2762.07C3111.9 2742.21 3119.49 2755 3155.52 2795.67L3170.57 2794.11C3190.12 2770.57 3188.27 2772.65 3217.98 2773.88C3230.4 2780.82 3281.94 2809.81 3290.79 2811.93L3293.41 2812.61C3318.75 2818.83 3353.12 2811.12 3379.78 2807.06C3389.74 2725.49 3438.43 2797.11 3479.84 2748.31C3480.5 2740.6 3485.53 2732.48 3489.13 2725.41L3501.35 2717.66C3548.33 2675.97 3558.3 2719.52 3592.39 2651.37L3622.16 2636.14C3633.88 2609.38 3634.47 2602.99 3658.58 2590.63Z" fill="url(#paint1_linear_108_964)"/>
<path d="M3650.91 2688.2C3657.8 2720.97 3653.77 2835.85 3638.6 2859.55C3596.64 2925.12 3622.56 2952.55 3610.25 3022.9C3617.23 3038.39 3624.06 3054.18 3632.16 3069.08C3606.53 3122.5 3625.98 3129.95 3619.27 3145.82C3597.19 3197.97 3592.65 3178.63 3581.84 3243.48C3536.6 3289.7 3472.45 3346.84 3468.93 3420.58C3467.77 3445.09 3478.83 3469.89 3473.73 3495.67C3466.43 3501.01 3465.21 3501.26 3456.63 3504.39C3419.15 3593.67 3383.95 3524.37 3339.92 3517.77L3339.91 3514.59C3347.56 3514 3349.15 3510.78 3356.07 3505.32L3342.9 3507.4L3342.58 3506.13L3358.32 3499.44L3363.46 3502.91L3371.6 3483.19C3405.87 3428.88 3421.14 3465.32 3453.94 3494.87C3483.22 3485.77 3453.46 3463.71 3455.13 3453.22C3459.35 3426.63 3471.48 3398.82 3467.4 3371.44C3449.23 3360.69 3437.53 3394.17 3384.56 3378.42C3395.95 3371.86 3453.56 3367.71 3468.06 3356.33C3507.46 3325.34 3470.99 3321.15 3477.69 3288.68C3493.68 3264.68 3503.28 3293.51 3529.15 3240.47C3546.91 3230.99 3563.7 3243.81 3571.73 3231.71C3613.12 3169.15 3537.66 3198.44 3543.45 3147.05C3558.07 3134.77 3559.4 3150.44 3588.93 3143.33C3599.38 3136.09 3602.05 3134.86 3606.29 3122.29C3600.27 3107.98 3584.26 3105.95 3584.26 3103.32C3584.24 3088.97 3590.46 3092.23 3581.68 3075.47L3592.38 3072.89L3590.81 3076.19C3608.07 3006.05 3597.4 2972.32 3606.83 2904.29C3610.35 2878.85 3632.92 2854.09 3638.67 2820.31C3644.61 2785.39 3636.42 2721.35 3640.06 2695.61L3650.91 2688.2Z" fill="#F3E3E1"/>
<path d="M3371.6 3483.19C3395.04 3469.98 3388.33 3474.3 3417.6 3481.03C3429.33 3483.74 3440.75 3486.45 3448.62 3495.38L3449.67 3502.57C3433.86 3511.67 3399.52 3524.88 3381.39 3520.35C3372.93 3513.54 3370.17 3511.38 3363.45 3502.91L3371.6 3483.19Z" fill="#F9ECEA"/>
<path d="M2937.92 3800.74C2922.98 3772.13 2962.99 3764.8 2973.94 3748.13C2998.3 3710.96 2997.41 3656.91 3019.98 3619.32C3029.43 3603.61 3059.32 3585.2 3074.41 3570.68L3073.89 3565.9C3064.06 3574.83 3062.42 3575.55 3050.32 3580.5L3050.45 3575.68C3059.88 3564.92 3061.52 3562.13 3075.42 3558.11C3084.81 3562.13 3091.57 3566.91 3100.11 3572.37C3098.87 3592.06 3088.07 3621.56 3080.1 3640.14C3067.36 3646.2 3051.08 3651.95 3044.02 3663.55L3042.6 3671.64C3042.43 3685.99 3042.45 3698.85 3040.89 3713.12C3047.77 3751.68 3014.64 3777.97 2983.33 3792.49C2964.23 3798.5 2958.06 3799.05 2937.92 3800.74Z" fill="#F2D4D2"/>
<path d="M3040.89 3713.12C3047.77 3751.68 3014.64 3777.97 2983.33 3792.48C2974.16 3779.62 2984.34 3748.76 2987.66 3733.56C3009.94 3726.7 3019.6 3723.57 3040.89 3713.12Z" fill="#F1CDCB"/>
<path d="M3100.1 3572.38C3094.11 3565.69 3081.1 3554.35 3083.57 3547.87C3100.96 3502.53 3111.52 3510.45 3115.54 3459.27L3119.17 3457.24C3118.86 3462.28 3119.62 3479.42 3119.02 3484.59C3113.91 3528.31 3078.33 3534.54 3107.09 3581.82C3108.81 3584.65 3100.29 3623.81 3098.8 3630.71C3124.41 3635.24 3175.88 3633.37 3197.01 3616.44C3208.32 3607.38 3210.87 3597.9 3224.43 3590.62C3198.47 3665.84 3165.68 3615.38 3129.71 3646.2C3129.49 3661.02 3130.88 3670.84 3121.95 3682.52C3091.73 3696.87 3077.53 3671.85 3042.59 3671.64L3044.02 3663.55C3051.08 3651.96 3067.35 3646.2 3080.1 3640.15C3088.06 3621.56 3098.87 3592.06 3100.1 3572.38Z" fill="#F9ECEA"/>
<path d="M3479.83 2748.31C3485.46 2755.38 3515.81 2795.68 3517.79 2801.86C3502.5 2809.56 3467.52 2786.15 3451.3 2789.46C3427.33 2794.28 3405.05 2807.28 3379.78 2807.07C3389.74 2725.5 3438.43 2797.12 3479.83 2748.31Z" fill="#F4DCD8"/>
<path d="M3089.63 3089.82C3099.89 3114.96 3098.55 3149.76 3114.56 3174.27C3135.42 3206.18 3180.74 3181.5 3199.53 3214.23C3198.5 3234.54 3174.39 3266.12 3157.15 3274.16L3156.16 3258.25L3148.62 3262.01C3145.82 3282.12 3153.98 3301.85 3146.72 3320.6L3139.68 3323.01C3118.39 3291.39 3147.73 3229.42 3137.96 3217.36C3099.8 3170.33 3093.25 3156.02 3089.63 3089.82Z" fill="#F2D4D2"/>
<path d="M2006.44 3389.13C2009.93 3368.94 2010.2 3360.81 2010.01 3340.24C2029.35 3328.86 2033.72 3342.53 2043.11 3328.39C2042.63 3286.95 2022.79 3296.43 2043.13 3264.6C2031.75 3254.99 2011.43 3242.5 2011.23 3227.14C2010.95 3205.93 2018.31 3173.47 2040.37 3165L2050.33 3166.23L2054.76 3175.2L2054.82 3168.85L2053.66 3176.51C2048.48 3179.48 2040.9 3182.48 2038.85 3186.93L2054.72 3196.37C2052.4 3201.83 2053.53 3200.3 2049.72 3204.75C2058.57 3209.83 2059.63 3210.93 2069.48 3212.58L2062.24 3220.11C2073.01 3229.47 2094.01 3219.31 2098.89 3226.8C2105.58 3237.04 2104.72 3256.35 2116.58 3260.83L2129.03 3258.08C2139.57 3265.45 2146.71 3300.11 2150.79 3314.51C2163 3305.07 2151.94 3299.82 2162.82 3300.41C2175.11 3315.44 2179.43 3323.86 2199.99 3325.3C2197.96 3335.97 2183.16 3380.41 2176.27 3386.3C2139.19 3381.64 2120.59 3336.98 2074.8 3373.13C2070.97 3376.18 2068.99 3379.99 2067.24 3384.48C2072.87 3395.02 2072.92 3391.5 2071.89 3401.7C2089.79 3405.51 2123.77 3401.58 2138.2 3403.14C2158.22 3405.26 2233.28 3441.2 2239.41 3457.32C2250.74 3487.08 2246.44 3606.83 2253.98 3633.96C2270.23 3630.28 2264.61 3633.58 2275.7 3622.15C2283.73 3600.35 2274.5 3576.31 2280.41 3571.53L2292.96 3597.69C2292.8 3569.03 2287.06 3554.3 2315.64 3540.97C2327.54 3535.38 2352.14 3536.01 2364.34 3538.81C2361.13 3545.33 2360.16 3545.16 2354.02 3548.84C2361.54 3550.53 2362.47 3550.62 2370.2 3550.87C2359.72 3565.86 2347.65 3569.5 2348.55 3580.63C2359.07 3584.48 2372.97 3587.23 2382.19 3580.71C2429.74 3547.15 2407.77 3522.05 2479.41 3536.06C2482.52 3536.65 2492.71 3549.09 2496.03 3552.73L2498.34 3562.3C2498.44 3558.79 2497.86 3558.53 2496.69 3554.98C2490.44 3568.18 2489.56 3564.54 2493.12 3574.75C2506.38 3584.19 2521.08 3594.81 2534.12 3604.33C2567.82 3629.01 2568.71 3629.52 2569.61 3669.65C2583.83 3685.35 2600.39 3704.53 2615.02 3719.38L2640.28 3693.56C2706.68 3685.61 2821.89 3681.5 2888.66 3682.26L2894.86 3673.75C2884.59 3649.12 2857.93 3661.44 2856.16 3621.22C2862.73 3609.29 2866.92 3607.09 2864.74 3596.33L2854.1 3589.56C2854.05 3580.5 2854.25 3579.44 2859.56 3572.12C2865.15 3578.51 2865.03 3580.08 2867.32 3588.5L2869.3 3585.41C2872.35 3580.67 2873.95 3579.32 2877.93 3575.38C2873.44 3572.21 2870.09 3570.34 2867.06 3565.73C2893.45 3553.62 2894.56 3547.61 2919.92 3553.5C2941.89 3567.55 2949.79 3570.39 2973.96 3579.23C2967.75 3602.43 2964.7 3612.08 2964.09 3636.46L2967.26 3641.46C2977.32 3632.74 2979.08 3613.43 2979.04 3600.65C3018.19 3629.99 2922.5 3811.24 2872.18 3820.3C2885.94 3821.57 2910.08 3823.01 2922.88 3825.33C2893.53 3828.81 2850.96 3823.22 2831.15 3837.65C2785.16 3877.86 2771.71 3864.07 2723.48 3918.5C2700.65 3922.99 2641.68 3941.49 2625.98 3942.59C2607.61 3944.91 2590.53 3943.22 2579.8 3953.89C2578.12 3964.68 2576.58 3974.84 2574.25 3985.55C2537.36 4001.85 2526.31 4013.49 2489.88 3999.56L2449.7 3996.09C2416.58 4001.76 2414.98 4021.99 2403.83 4021.78C2376.52 4021.28 2360.98 4023.94 2333.02 4029.66C2292.28 3952.58 2292.19 4009.38 2255.82 4025.38C2238.33 4033.09 2179.84 4027.79 2158.23 4033.93C2137.54 4039.82 2122.96 4060.56 2104.14 4052.51C2096.37 4033.8 2091.9 4033.72 2073.45 4030.8C2040.84 4025.59 2023.08 4016.11 1997.99 3996.09C1993.9 3992.83 1974.03 3993.42 1970.96 3986.18C1965.52 3973.32 1960.04 3959.35 1954.44 3946.48C1944.83 3937.08 1911.97 3945.93 1903.09 3940.51C1854.28 3910.88 1882.93 3898.23 1824.67 3864.91L1824.19 3814.03C1823.5 3814.63 1859.83 3740.97 1861.31 3733.23C1858.42 3714.39 1847.68 3696.65 1838.8 3679.55C1841.24 3654.16 1842.12 3636.97 1849.8 3612.5C1860.27 3612.8 1861.46 3612.42 1870.66 3607.38L1859.69 3602.05C1909.08 3582.2 1873.92 3557.65 1913.05 3511.51C1922.48 3496.65 1914.35 3492.29 1935.19 3464.06C1959.78 3430.7 1990.93 3452.42 2019.12 3427.19C2022.42 3412.79 2014.65 3403.44 2006.44 3389.13Z" fill="#F4DCD8"/>
<path d="M1861.31 3733.23C1868 3810.14 1816.9 3820.85 1904.52 3901.82C1957.96 3951.22 2093 3956.94 2133.17 4003.67L2107.17 3994.69L2108.04 3999.6C2116.02 4004.01 2126.57 4011.96 2136.94 4009.85C2164.32 4004.17 2187.08 4036.85 2201.57 4000.32C2279.06 3993.93 2289.87 3989.99 2361.17 3951.94C2380.82 3941.44 2434.8 3979.41 2449.7 3996.09C2416.58 4001.76 2414.98 4022 2403.83 4021.78C2376.52 4021.28 2360.98 4023.94 2333.02 4029.66C2292.28 3952.58 2292.19 4009.38 2255.82 4025.38C2238.33 4033.09 2179.84 4027.79 2158.23 4033.93C2137.54 4039.82 2122.96 4060.56 2104.14 4052.51C2096.37 4033.81 2091.9 4033.72 2073.45 4030.8C2040.84 4025.59 2023.08 4016.11 1997.99 3996.09C1993.9 3992.83 1974.03 3993.42 1970.96 3986.19C1965.52 3973.32 1960.04 3959.35 1954.44 3946.48C1944.83 3937.08 1911.97 3945.93 1903.09 3940.51C1854.28 3910.88 1882.93 3898.23 1824.67 3864.91L1824.19 3814.03C1823.5 3814.63 1859.83 3740.97 1861.31 3733.23Z" fill="#F2D4D2"/>
<path d="M2625.97 3942.58C2612.17 3940.97 2585.18 3943.13 2577.19 3936.83C2602.58 3917.31 2612.41 3918.79 2644.14 3917.02C2638.41 3923.24 2632.87 3925.99 2625.74 3930.31C2644.69 3937.38 2715.02 3910.71 2733.35 3900.68C2756.45 3874.6 2729.89 3844.25 2762.47 3827.41C2780.91 3817.88 2811.09 3819.02 2829.28 3828.97L2831.15 3837.65C2785.16 3877.86 2771.71 3864.06 2723.48 3918.5C2700.64 3922.98 2641.68 3941.48 2625.97 3942.58Z" fill="#F2D4D2"/>
<path d="M2489.88 3999.56L2490.72 3995.67C2504.38 3995.2 2542.77 3960.58 2573.34 3951.69L2574.24 3985.55C2537.35 4001.85 2526.3 4013.49 2489.88 3999.56Z" fill="#F2D4D2"/>
<path d="M3366.7 2170.52C3420.8 2197.78 3485.66 2170.05 3501.52 2218.86C3503.58 2225.37 3505.01 2232.06 3505.79 2238.83C3499.49 2281.88 3516.37 2329 3496.36 2356.93L3492.01 2359.43C3461.33 2394.31 3480.89 2423.73 3502.52 2459.54L3534.92 2494.8C3552.39 2497 3559.59 2488.92 3576.53 2478.54C3583.57 2493.19 3599.2 2527.77 3606.89 2540.09C3626.45 2545.13 3629.61 2545.13 3649.58 2541.28C3654.52 2553.04 3664.62 2572.6 3662.86 2583.99L3658.58 2590.63C3634.47 2602.99 3633.88 2609.38 3622.16 2636.14L3592.39 2651.37C3558.3 2719.52 3548.33 2675.97 3501.36 2717.66C3487.76 2707.63 3454.49 2671.52 3445.49 2657.81C3425.54 2627.29 3395.98 2635.67 3387.18 2628.05C3396.26 2622.29 3414.24 2627.71 3426.44 2630L3423.74 2620.43C3460.16 2602.7 3475.36 2624.96 3484.05 2625.17C3490.36 2614.46 3486.77 2608.62 3492.11 2591.61C3505.66 2581.45 3500.44 2584.24 3518.14 2582.42L3521.27 2586.1C3512.09 2596.77 3509.29 2598.17 3496.67 2604.6L3493.23 2606.34C3502.86 2633.26 3494.91 2672.62 3530.15 2677.53C3553.8 2669.32 3557.95 2642.1 3557.04 2620.39C3549.99 2614.8 3548.34 2612.77 3542.69 2605.74L3545.68 2600.2C3562.81 2606.21 3575.4 2656.84 3570.07 2669.15C3548.84 2684.43 3524.54 2682.15 3499.02 2682.02C3493.22 2689.34 3494.34 2685.36 3494.79 2694.13C3508.79 2700.48 3561.85 2690.95 3568.42 2679.06C3580.4 2657.34 3602.19 2580.43 3595.89 2559.18L3590.13 2563.84C3589.84 2573.53 3590.79 2578.7 3585.07 2586.4L3579.37 2583.73L3580.05 2569.34C3521.02 2517.23 3529.73 2545 3462.14 2526.59C3447.77 2518.33 3450.56 2497.34 3449.19 2486.63C3445.81 2460.17 3402.62 2473.68 3394.91 2471.05L3399.51 2465.13C3398.49 2463.05 3397.47 2460.94 3396.42 2458.86C3423.37 2458.31 3418.32 2454.84 3440.69 2466.57C3441.52 2456.19 3442.21 2460.26 3433.75 2449.97C3418.74 2447.09 3394.83 2447.94 3378.26 2449.17C3342.41 2451.88 3361.02 2486.97 3342.85 2509.11C3334.77 2518.97 3282.11 2560.2 3270.64 2571.96C3268.42 2570.65 3266.19 2569.38 3263.97 2568.11C3253.97 2573.45 3245.2 2582.55 3234.15 2583.39C3237.46 2572.26 3239.2 2572.85 3236.27 2562.69C3232.06 2568.58 3231.55 2570.27 3224.66 2572.64L3220.82 2563.41C3237.78 2546.65 3327.07 2493.27 3339.74 2470.97C3359.99 2435.37 3350.26 2345.5 3341.72 2305.76C3332.44 2306.56 3336.77 2307.37 3328.32 2303.13L3331.9 2292.89L3320.4 2290.56C3330.22 2285.31 3327.4 2288.7 3330.75 2277.69C3331.91 2259.79 3341.35 2247.64 3343.77 2228.63C3347.74 2197.69 3345.77 2193.54 3366.7 2170.52Z" fill="#F2D4D2"/>
<path d="M3366.69 2170.52C3420.8 2197.78 3485.66 2170.05 3501.52 2218.86C3503.58 2225.37 3505 2232.06 3505.78 2238.83C3488.42 2236.89 3474.53 2232.19 3460.67 2238.58L3461.59 2224.99L3456.39 2220.89C3385.59 2241.16 3380.08 2298.22 3330.74 2277.69C3331.9 2259.79 3341.34 2247.64 3343.77 2228.63C3347.73 2197.69 3345.77 2193.54 3366.69 2170.52Z" fill="#F4DCD8"/>
<path d="M3460.67 2238.59C3474.53 2232.19 3488.42 2236.89 3505.79 2238.84C3499.49 2281.89 3516.37 2329 3496.36 2356.94L3492 2359.44C3494.9 2362.78 3448.98 2333.28 3439.42 2324.64C3446.01 2294.08 3452.08 2268.64 3460.67 2238.59Z" fill="#F3E3E1"/>
<path d="M3606.89 2540.09C3582.83 2556.09 3565.4 2542.63 3543.05 2531.03C3520.46 2519.31 3458.38 2487.39 3454.93 2460.3C3474.84 2456.03 3475.6 2473.17 3502.52 2459.54L3534.92 2494.8C3552.39 2497 3559.59 2488.92 3576.53 2478.54C3583.56 2493.19 3599.2 2527.77 3606.89 2540.09Z" fill="#F1CDCB"/>
<path d="M3353.04 2304.91C3388.66 2307.83 3433.7 2346.52 3460.2 2368.92L3458.8 2373.15C3432.08 2365.78 3397.77 2381.28 3375.31 2359.14C3365.09 2349.06 3353.11 2319.69 3353.04 2304.91Z" fill="#F4DCD8"/>
<path d="M2658.4 3238.99C2651.4 3248.51 2650.39 3250.42 2639.55 3254.78C2637.92 3252.45 2642.69 3225.23 2643.45 3219.98L2639.05 3224.9C2620.43 3224.05 2616.38 3243.6 2596.02 3242.93C2569 3228.37 2556.12 3182.06 2537.52 3157.8C2530.38 3148.49 2513.3 3132.96 2510.51 3124.53L2517.31 3123.98C2555.13 3139.52 2570.84 3224.73 2602.61 3223.12C2630.8 3200.51 2601.6 3137.27 2601.55 3117.08C2605.05 3118.44 2610.92 3132.03 2613.35 3136.68L2619.38 3136.64L2614.78 3120.77L2618.14 3115.52L2620.81 3122.5L2626 3124.58L2627.63 3106.29L2632.12 3104.93C2632.9 3114.33 2633.32 3119.37 2635.51 3128.51L2637.24 3095.37C2631.82 3094.01 2623.68 3085.46 2619.08 3081.27C2614.04 3082.33 2611.55 3082.92 2607.87 3086.61C2605.08 3060.19 2645.31 3044.79 2655.16 3021.17C2662.11 3004.53 2668.04 2995.98 2678.62 2981.42L2677.58 2984.64C2699.65 2960.3 2752.67 2882.66 2767.52 2872.93C2783.15 2878.64 2764.31 2888.17 2777.56 2906.83C2810.37 2923.17 2831.04 2895.41 2854.39 2875.77C2867.5 2872.84 2879.05 2873.1 2886.45 2885.42C2869.6 2898.96 2874.83 2881.44 2846.61 2902.94L2846.37 2908.44C2865.78 2909.33 2869.94 2897.27 2886.04 2893.84C2913.96 2887.91 2913.92 2868.78 2917.37 2845.67C2925.85 2788.82 2871.7 2795.64 2848.65 2769.86L2849.34 2768.21C2863.96 2768.33 2885.83 2784.17 2899.9 2792.5C2916.62 2788.06 2933.06 2761.05 2944.98 2757.75C2994.91 2744.08 3040.91 2764.9 3038.28 2692.78C3037.64 2675.12 3063.2 2660.61 3082.14 2665.94C3102.06 2690.15 3081.59 2725.28 3116.63 2741.62C3172.14 2730.91 3253.99 2787.97 3311.23 2792.16C3340.83 2794.32 3345.87 2747.47 3385.35 2748.27C3409.57 2734.85 3395.7 2709.16 3409.3 2696.04C3425.98 2688.2 3444.2 2690.49 3462.75 2691.08C3471.31 2702.55 3480.37 2714.03 3489.12 2725.41C3485.53 2732.48 3480.5 2740.61 3479.83 2748.31C3438.43 2797.12 3389.74 2725.5 3379.78 2807.06C3353.12 2811.13 3318.75 2818.83 3293.41 2812.61L3290.78 2811.93C3281.93 2809.82 3230.4 2780.82 3217.98 2773.88C3188.27 2772.65 3190.12 2770.58 3170.56 2794.11L3155.52 2795.68C3119.48 2755 3111.9 2742.22 3060.19 2762.07C3019.95 2786.32 3022.3 2766.47 3002.53 2774.68C2955.82 2794.11 3000.02 2831.4 2932.43 2833.22L2924.63 2837.2C2923.75 2858.28 2929.15 2868.82 2912.64 2884.23C2898.51 2897.44 2884.02 2911.36 2870.61 2925.29C2822.64 2908.61 2795.97 2901.67 2783.97 2969.86C2781.11 2986.03 2777.76 2998.35 2786.25 3013.08C2771.16 3051.64 2745.65 3068.24 2731.03 3094.56C2730.17 3121.78 2725.13 3145.32 2717.4 3171.48C2698.15 3225.11 2682.88 3215.29 2672.14 3282.93C2672.5 3268.03 2675.56 3234.04 2668.99 3223.12C2667.02 3225.83 2659.12 3236.32 2658.4 3238.99Z" fill="#F1C7C4"/>
<path d="M2709.62 2986.79C2712.07 2993.44 2714.34 2996.32 2718.17 3002.08L2727.68 3002.88C2743.35 2995.73 2754.33 2980.66 2765.77 2967.49C2763.11 2980.19 2745.74 3048.38 2737.67 3054.9C2730.56 3049.23 2730.77 3049.44 2725.89 3041.78C2724.71 3055.03 2729.11 3080.38 2731.04 3094.56C2730.17 3121.78 2725.14 3145.32 2717.41 3171.48C2698.16 3225.11 2682.88 3215.29 2672.15 3282.93C2672.5 3268.03 2675.57 3234.04 2668.99 3223.12C2667.02 3225.83 2659.13 3236.32 2658.4 3238.99C2658.31 3238.31 2658.29 3237.59 2658.11 3236.92C2615.28 3072 2715.81 3073.1 2709.62 2986.79Z" fill="#F4DCD8"/>
<path d="M2932.43 2833.23C2922.37 2818.54 2920.04 2808.89 2927.95 2792.76C2956.95 2773.67 3026.8 2741.12 3060.19 2762.07C3019.96 2786.33 3022.31 2766.47 3002.54 2774.68C2955.82 2794.11 3000.03 2831.41 2932.43 2833.23Z" fill="#F4DCD8"/>
<path d="M2709.62 2986.79C2727.29 2962.33 2736.85 2921.44 2760.91 2910.09C2784.88 2918.86 2771.61 2950.64 2765.77 2967.49C2754.33 2980.66 2743.34 2995.73 2727.68 3002.88L2718.17 3002.07C2714.34 2996.32 2712.06 2993.44 2709.62 2986.79Z" fill="#F2D4D2"/>
<path d="M3155.52 2795.68C3160.13 2782.9 3167.57 2762.79 3180.53 2757.25C3194.73 2755.47 3205.85 2765.54 3217.98 2773.88C3188.27 2772.65 3190.13 2770.58 3170.57 2794.11L3155.52 2795.68Z" fill="#F4DCD8"/>
<path d="M2446.93 2592.79C2465.53 2580.86 2478.93 2541.02 2480.25 2519.69C2476.02 2512.16 2475.66 2510.72 2474.14 2502.08L2473.78 2499.96C2469.46 2505.09 2466.75 2505.68 2460.66 2508.3C2446.5 2504.58 2444.5 2501.28 2434.69 2490.57C2431.26 2466.91 2437.05 2489.51 2441.31 2457.59C2450.21 2449.93 2507.04 2433.21 2524.26 2426.52L2526.54 2434.69C2522.27 2450.44 2519.42 2448.24 2503.46 2460.64L2506.7 2466.99C2518.81 2473.59 2521.89 2475.46 2531.95 2485.06L2534.27 2487.31L2544.25 2485.7C2539.63 2496.15 2534.33 2504.71 2537.67 2515.63C2551.67 2531.88 2591.84 2528.62 2609.35 2520.83C2622.94 2499.75 2609.68 2488.37 2620.02 2478.33C2638.37 2493.53 2626.41 2512.71 2630.35 2528.07C2634 2542.29 2668.37 2575.86 2661.14 2592.16C2646.5 2572.98 2643.81 2555.33 2632.75 2534.55C2609.28 2534.29 2567.07 2532.26 2552.14 2550.8C2520.16 2592.33 2504.21 2646.04 2484.69 2694.13C2482.71 2699 2447.34 2712.16 2448.31 2742.17C2449.73 2786.11 2497.35 2784.12 2510.87 2806.47L2509.21 2809.52L2500.41 2810.75C2469.37 2787.08 2438.36 2783.53 2435.7 2756.48C2433.82 2737.26 2447.74 2727.1 2436.63 2712.92C2422.98 2709.66 2419.38 2708.39 2405.2 2709.45C2370.04 2777.56 2402.93 2754.02 2334.36 2802.83L2336.3 2808.84C2348.22 2811.38 2354.26 2812.69 2365.84 2816.97L2367.14 2825.9L2361.9 2828.52C2347.59 2817.39 2349.18 2815.06 2333.65 2813.12C2309.05 2824.42 2292.3 2863.23 2302.55 2889.27C2320.88 2906.32 2344.46 2904.55 2368.35 2904.42L2376.7 2897.31L2380 2902.85C2357.06 2926.6 2330.85 2927.62 2308.33 2903.74C2264.57 2857.35 2306.13 2838.94 2312.78 2809.18C2329.31 2793.73 2371.97 2771.42 2376.71 2756.06C2390.13 2712.63 2454.33 2634.19 2446.93 2592.79Z" fill="#F1C7C4"/>
<path d="M2667.41 2169.55C2660.9 2156.68 2658.08 2117.35 2667.34 2105.38C2674.19 2117.61 2672.44 2138.82 2672.49 2153.59C2724.29 2154.86 2736.83 2150.37 2788.31 2138.6C2837.4 2129.04 2842.81 2164.04 2885.61 2170.48C2903.08 2173.14 2917.82 2135.73 2935.79 2132.21C2950.38 2142.71 2957.98 2166.46 2947.55 2182.25C2934.84 2183.64 2872.75 2191.01 2868.07 2189.1C2810.68 2165.95 2743.76 2153.42 2699.02 2208.49C2692.53 2216.49 2680.3 2235.71 2677.01 2248.32C2672.1 2224.02 2679.16 2195.71 2673.24 2168.62L2667.41 2169.55Z" fill="#F1C7C4"/>
<path d="M1914.36 3445.85L1911.86 3440.01C1922.65 3411.06 1948.71 3326.95 1987.61 3329.83C1996.47 3342.15 1999.86 3369.7 2006.44 3389.13C2014.65 3403.44 2022.42 3412.8 2019.11 3427.19C1990.93 3452.42 1959.78 3430.7 1935.19 3464.06C1914.35 3492.29 1922.47 3496.65 1913.04 3511.51C1912.71 3491.7 1921.79 3474.34 1925.95 3455.63L1914.36 3445.85Z" fill="#F1C7C4"/>
<path d="M2667.4 2169.55L2673.24 2168.62C2679.16 2195.71 2672.09 2224.03 2677 2248.32C2680.64 2265.38 2684.49 2275.67 2678.49 2291.79L2670.77 2297.97C2668.12 2289.13 2668.11 2286.72 2667.42 2277.4C2647.19 2268.01 2637.11 2272.03 2619.59 2259.71C2614 2235.45 2651.2 2189.95 2667.4 2169.55Z" fill="#F4DCD8"/>
<path d="M3276.02 2147.88C3293.57 2148.13 3313.25 2146.31 3327.7 2155.37L3332.15 2163.45C3318.95 2183.22 3288.46 2181.87 3272.71 2167.05L3276.02 2147.88Z" fill="#F4DCD8"/>
<path d="M2184.09 3288.22L2198.28 3278.1C2229.93 3307.27 2256.99 3341.51 2287.51 3369.02C2302.63 3382.65 2368.63 3378.13 2388.14 3394.76C2428.41 3429.05 2461.24 3472.48 2505.2 3503.72C2511.53 3508.2 2539.92 3510.19 2551.81 3512.22C2569.89 3515.27 2639.85 3558.45 2649.13 3570.89L2650.74 3580.37C2626.34 3611.99 2575.8 3577.54 2544.41 3569.71C2543.81 3569.54 2533.92 3575.93 2524.51 3574.7C2504.42 3544.99 2508.83 3523.06 2468.35 3518.83C2398.62 3511.5 2399.96 3525.47 2377.05 3459.19C2367.07 3452.12 2363.81 3428.07 2359.78 3413.3C2348.53 3414.27 2323.96 3402.59 2306.79 3399.54L2297.22 3406.82C2285.23 3398.82 2276.19 3379.44 2268.73 3366.27C2254.31 3366.44 2227.72 3368.22 2215.17 3363.69C2213.25 3308.07 2196.09 3325.72 2184.09 3288.22Z" fill="#F4DCD8"/>
<path d="M2359.78 3413.3L2365.99 3403.69C2389.89 3400.56 2409.45 3428.96 2418.04 3448.9C2414.2 3457.36 2413.43 3458.47 2407.04 3465.15L2403.29 3483.91C2392.06 3481.96 2392.49 3469.98 2377.05 3459.19C2367.07 3452.12 2363.81 3428.07 2359.78 3413.3Z" fill="#F2D4D2"/>
<path d="M3013.58 2398.46C3034.64 2419.37 3070.91 2396.43 3100.04 2432.96C3130.25 2470.89 3172.14 2554.44 3106.36 2579.46C3092.56 2584.71 3090.47 2606.55 3087.51 2619.29C3082.21 2610.06 3078.99 2605.28 3072.75 2596.77L3074.33 2592.62L3071.56 2590.85C3061.31 2588.31 3059.19 2586.02 3050.03 2588.77L3045.45 2600.37C3040.88 2595.59 3037.44 2592.16 3032.49 2587.76L3035.19 2604.1L3030.47 2602.49C2988.89 2550.89 3018.68 2506.65 3001.61 2479.99C3000.74 2491.92 3000.36 2502.55 3000.11 2514.53C2997.45 2441.72 2968.82 2483.84 3013.58 2398.46Z" fill="#F1C7C4"/>
<path d="M2019.24 3137.44C2019.57 3112.89 2018.88 3085.04 2037.69 3067.77C2069.85 3061.71 2078.12 3093.16 2088.25 3117.71C2096.77 3139.18 2104.59 3138.33 2111.1 3150.9C2126.03 3179.73 2135.27 3198.1 2153.49 3224.98C2163.51 3239.75 2192.61 3268.96 2198.28 3278.1L2184.1 3288.22C2182.01 3286.69 2181.6 3285.93 2179.09 3285.72C2113.71 3280.55 2092.16 3120.68 2017.66 3154.41L2019.24 3137.44Z" fill="#F1C7C4"/>
<path d="M2019.24 3137.44C2019.57 3112.89 2018.88 3085.04 2037.69 3067.77C2069.85 3061.71 2078.12 3093.16 2088.26 3117.71C2069.45 3151.79 2053.61 3144.3 2019.24 3137.44Z" fill="#F4DCD8"/>
<path d="M2673.27 2370.91C2674.03 2411.16 2728.89 2450.49 2756.37 2491.25C2814.18 2577.01 2730.36 2583.27 2718.98 2643.08L2721.35 2639.57L2716.92 2642.36C2721.39 2630.51 2726.02 2597.87 2725 2585.01C2727.26 2579.38 2740.26 2565.03 2744.96 2559.52C2746.18 2544.03 2746.5 2506.57 2737.35 2494.93C2737.9 2501.83 2738.5 2502.42 2735.6 2508.86C2726.37 2501.2 2713.83 2484.6 2705.79 2474.61C2712.58 2474.1 2714.87 2474.44 2720.74 2470.76L2716.93 2465.47C2707.39 2462.93 2704.86 2461.79 2696.04 2457.34C2691.96 2449.47 2692.12 2448.03 2690.8 2439.01L2690.44 2436.35C2680.09 2424.71 2684.73 2426.61 2672.76 2425.34C2673.43 2429.02 2685.23 2439.94 2688.81 2443.63L2686.25 2447.31C2672.67 2440.07 2662.67 2428.9 2651.77 2418.02L2652.42 2413.79L2666.07 2411.8C2667.29 2394.48 2667.2 2387.03 2673.27 2370.91Z" fill="#F1C7C4"/>
<path d="M547.216 587.383C558.644 623.197 551.69 656.794 562.915 685.705L560.655 690.793C546.814 710.218 542.92 713.253 551.373 736.038L552.38 730.836C561.662 760.792 581.776 803.976 607.227 822.855L625.922 826.453C630.096 833.425 624.293 887.995 621.813 900.702C614.16 939.878 641.706 938.646 681.036 947.159C666.666 986.008 626.566 1034.25 636.572 1082.39C626.803 1101.18 592.205 1107.97 597.06 1125.41C602.575 1122.14 604.434 1121.58 607.976 1116.07C607.523 1122.83 606.05 1145.71 602.893 1150.36C577.061 1188.42 548.626 1233.82 524.174 1271.55C556.786 1279 549.379 1209.2 588.557 1202.91L585.839 1216.08L590.665 1219.79L598.605 1202.86L605.14 1200.62C616.742 1215 639.895 1248.39 636.796 1267.03C621.059 1278.21 559.368 1303.75 541.1 1306.91L536.728 1302.15L542.721 1285.14L537.879 1283.86L542.802 1286.11L538.586 1283.89C528.55 1289.39 519.924 1294.4 509.232 1298.65C492.23 1334.3 475.274 1370.17 459.406 1406.34C458.699 1407.96 466.402 1431.82 461.446 1443.85C443.436 1487.53 380.966 1471.76 359.007 1483.87C341.293 1491.88 343.151 1494.14 326.051 1492.79C299.254 1475.22 306.01 1452.01 313.624 1425.04C320.142 1417.07 323.855 1415.12 333.374 1411.34C323.055 1410.2 321.239 1410.56 312.41 1405.62C311.969 1403.8 311.529 1401.98 311.093 1400.15C311.859 1399.47 323.114 1389.6 323.114 1389.59C325.598 1381.34 326.246 1374.65 330.656 1367.01C334.923 1371.5 336.997 1374.14 342.021 1377.87C334.732 1359.11 330.479 1338.08 307.686 1338.18C279.272 1338.32 285.303 1314.17 254.38 1309.11L250.058 1315.85L242.967 1345.14L239.352 1346.98L236.2 1338.66C218.452 1358.03 249.621 1465.2 194.134 1475.48C175.993 1470.11 169.744 1467.58 159.143 1450.55C147.388 1471.77 176.671 1470.33 176.801 1494.56C168.611 1501.76 171.505 1501.31 162.236 1502.69C160.712 1496.9 158.866 1482.14 152.228 1480.2C68.7093 1455.71 83.6403 1500.16 41.2397 1540.07C35.9456 1581.79 147.825 1552.65 138.832 1605.91C127.586 1672.51 49.6223 1686.78 13.9062 1723.09C15.733 1689.06 23.815 1688.59 30.818 1658.51C32.5259 1651.18 17.3277 1629.72 19.2397 1620.68C22.6047 1604.76 40.6536 1569.8 40.7976 1555.24C41.2021 1514.31 28.4144 1453.24 35.7861 1413.62C49.1764 1341.66 76.5165 1265.61 90.8458 1194.87C88.2003 1192.09 85.6236 1189.24 83.1175 1186.34C71.2369 1172.45 70.9109 1167.47 72.1882 1149.81C94.0204 1134.65 136.013 1158.63 163.529 1129.72C165.123 1119.21 148.63 1055.04 145.788 1029.33C141.855 973.61 101.37 912.902 141.389 869.481C139.715 839.452 144.404 804.89 161.786 779.51L163.263 777.398C176.446 758.21 191.905 749.041 210.913 735.979C217.853 723.098 218.648 721.329 220.003 706.644L201.941 690.97L205.118 686.729C217.624 687.122 223.388 688.362 234.021 681.264C247.507 662.385 242.881 631.252 240.49 608.987C234.615 599.844 221.565 606.049 211.08 592.127C232.067 585.393 263.733 592.064 284.614 597.656C323.14 609.042 371.142 591.268 412.356 589.96C455.11 588.606 506.172 593.555 547.216 587.383Z" fill="#F3E3E1"/>
<path d="M141.387 869.48L148.277 853.188C189.944 875.956 187.656 912.165 174.453 955.425C166.083 964.369 162.58 965.047 151.465 969.038C143.244 995.274 155.548 1014.16 145.786 1029.33C141.853 973.61 101.367 912.901 141.387 869.48Z" fill="#F1CDCB"/>
<path d="M240.488 608.989C234.614 599.846 221.564 606.052 211.078 592.13C232.066 585.395 263.732 592.066 284.612 597.658C267.792 611.135 262.874 609.04 240.488 608.989Z" fill="#F3E3E1"/>
<path d="M250.053 1315.85C252.52 1320.47 263.879 1342.3 263.582 1345.89C260.67 1381.08 277.133 1424.82 275.106 1454.92C243.832 1565.98 198.412 1471.85 145.851 1538.69C150.557 1547.7 173.045 1555.18 173.191 1556.72C177.077 1597.36 162.698 1647.11 150.639 1685.6C149.037 1690.72 147.377 1695.81 145.656 1700.89C120.444 1710.03 83.4985 1723.14 64.4887 1742.63L61.6507 1751.77L66.0663 1753.51L76.2649 1748.12L79.0136 1755.96L92.9466 1745.16L96.0461 1751.28C93.9965 1756.35 92.5932 1758.49 92.058 1763.89L91.9978 1763.93C99.0701 1760.51 112.927 1753.06 119.983 1751.96C109.983 1767.41 112.599 1761.4 111.749 1780.41L117.21 1790.2L121.576 1790.85C123.375 1780.71 122.669 1779.6 120.337 1769.31L123.347 1769.96C125.177 1796.34 125.056 1804.85 137.867 1828.76L126.274 1830.62L126.757 1835.54L136.963 1841.99L116.972 1843.49L119.295 1847.98C193.085 1861.33 273.451 1808.96 329.677 1872.82C361.943 1884.72 338.464 1926.31 344.86 1959.21C358.811 1990.48 358.024 2004.37 367.352 2032.52C371.217 2040.65 376.169 2052.97 382.112 2059.06C412.193 2109.73 461.423 2219.15 382.899 2241.37C359.801 2247.93 348.568 2254.58 343.328 2278.79C280.998 2281.16 111.411 2159.85 76.1808 2113.16C86.0717 1997.73 91.9698 2037.47 23.2245 1953.08C10.1234 1923.14 -2.30104 1868.96 0.3635 1835.88C-0.0636349 1808.21 9.35442 1752.09 13.9012 1723.09C49.6173 1686.78 127.581 1672.5 138.827 1605.9C147.82 1552.64 35.9403 1581.78 41.2347 1540.07C83.6352 1500.16 68.7042 1455.71 152.223 1480.19C158.861 1482.14 160.707 1496.89 162.231 1502.69C171.5 1501.3 168.606 1501.76 176.796 1494.56C176.666 1470.33 147.383 1471.77 159.138 1450.54C169.739 1467.58 175.988 1470.11 194.129 1475.47C249.616 1465.2 218.447 1358.02 236.195 1338.66L239.347 1346.98L242.962 1345.14L250.053 1315.85Z" fill="#F4DCD8"/>
<path d="M0.3635 1835.88C43.1912 1890.34 37.0237 1877.93 23.2245 1953.08C10.1235 1923.14 -2.30104 1868.96 0.3635 1835.88Z" fill="#F1CDCB"/>
<path d="M106.609 1483.95C122.464 1483.41 133.558 1482.01 148.602 1486.91C158.16 1498.2 155.638 1493.57 155.148 1511.15C139.364 1514.84 130.553 1515.47 115.808 1509.53C105.089 1496.3 107.892 1501.91 106.609 1483.95Z" fill="#F9ECEA"/>
<path d="M344.866 1959.21C345.476 1953.78 347.253 1934.72 349.518 1931.3C363.172 1910.72 410.718 1898.18 429.938 1909.56L435.144 1908.21C437.248 1798.98 344.125 1829.07 324.075 1793.48L333.15 1780.3C332.473 1782.22 331.795 1784.13 331.118 1786.04C334.284 1771.03 333.823 1776.11 327.038 1760.28C308.994 1757.92 295.75 1756.49 278.045 1751.19C271.916 1740.14 268.928 1736.38 269.135 1723.38L274.219 1720.89L293.782 1739.44C322.695 1746.36 335.782 1721.39 368.831 1745.64C373.123 1764.1 374.422 1800.48 387.89 1809.1C416.283 1827.26 462.919 1880.66 442.674 1917.13C427.576 1924.88 422.937 1923.79 416.994 1936.06C419.547 1948.24 419.699 1951.11 428.668 1960.51C449.734 1967.88 460.066 1966.01 479.308 1955.31C488.738 2008.35 443.571 2007.72 456.273 2093.81C453.493 2132.12 455.821 2145.75 476.099 2179.19L477.263 2179.53C484.311 2187.74 487.371 2190.07 497.356 2194.3C515.81 2190.16 526.002 2176.69 540.245 2170.47C635.704 2192.69 604.366 2232.06 665.1 2294.62C671.026 2300.72 680.41 2307.36 679.402 2314.77C665.553 2300.42 635.717 2295.43 617.474 2287.72C611.239 2285.1 590.068 2251.49 585.264 2244.04L601.327 2278.83C584.552 2258.35 564.494 2194.26 536.017 2195.91L550.222 2187.19L550.581 2181.22C529.503 2177.75 494.714 2208.14 489.14 2229.52L494.93 2231.85L511.01 2220.29C510.265 2233.2 509.554 2234.81 504.255 2246.37L506.782 2243.45C487.049 2294.07 521.376 2289.04 533.401 2309.82C541.985 2324.64 510.464 2382.25 509.402 2406.67C506.431 2407.9 504.187 2409.08 501.11 2409.63C503.612 2377.38 530.112 2347.58 528.8 2324.89C524.826 2256.02 382.338 2277.18 343.334 2278.79C348.574 2254.58 359.807 2247.93 382.905 2241.37C461.429 2219.15 412.199 2109.73 382.118 2059.06C376.175 2052.97 371.223 2040.65 367.358 2032.52C358.03 2004.37 358.817 1990.48 344.866 1959.21Z" fill="#F1CDCB"/>
<path d="M367.359 2032.52C391.049 2004.33 396.218 1983.2 437.321 1981.81C447.856 1981.46 459.267 1979.03 468.888 1974.22C452.571 1995.45 428.284 2023.21 431.362 2051.57C433.372 2070.15 446.235 2075.19 445.909 2088.4C425.809 2086.45 410.076 2058.13 382.119 2059.06C376.176 2052.97 371.224 2040.65 367.359 2032.52Z" fill="#F2D4D2"/>
<path d="M368.826 1745.65C367.383 1731.78 364.293 1726.01 369.728 1715.28C373.55 1721.52 377.084 1727.39 380.674 1733.76C386.464 1723.11 386.836 1720.08 389.228 1708.52L394.709 1709.64C402.98 1729.38 406.895 1780.18 411.25 1805.97C420.406 1765 405.134 1730.04 408.516 1720.17C426.996 1726.5 427.051 1733.47 441.065 1730.19C453.256 1715.6 452.422 1689.83 452.303 1671.43L447.85 1666.44L434.373 1672.85C414.15 1662.78 385.41 1642.79 375.705 1620.6C367.345 1601.5 389.537 1605.36 365.352 1590.3C374.621 1580.51 378.452 1593.67 380.661 1572.76C384.919 1532.45 429.752 1556.1 452.202 1543.5C447.842 1527.14 446.784 1526.21 428.245 1523.15C435.224 1500.3 462.707 1508.3 481.936 1503.5C487.621 1502.08 482.973 1494.01 495.98 1498.16C507.074 1509.8 502.867 1508.8 516.546 1511.24L503.264 1497.58L509.91 1495.48L531.407 1507.34L530.616 1492.08C546.374 1495.38 536.923 1513.79 559.085 1506.58L565.307 1508.56C566.014 1501.77 564.879 1500.39 562.2 1494.25C575.237 1492.98 603.79 1515.24 617.026 1522.5C622.19 1525.33 620.645 1531.3 620.607 1537.67L610.123 1540.74C624.958 1543.34 649.033 1538.76 660.91 1529.15L663.666 1530.46L662.443 1541.37C637.229 1561.17 626.516 1532.31 624.704 1591.39L619.684 1589.88C618.105 1594.25 616.578 1598.64 615.105 1603.05L613.069 1601.27C585.501 1577.44 584.27 1581.5 548.965 1577.29C538.752 1576.07 546.468 1562.6 534.354 1560.16L537.634 1570.24C511.189 1572.95 507.866 1565.71 489.793 1553.77C480.477 1547.63 436.491 1556.18 432.927 1565.92C426.354 1583.87 418.866 1614.97 434.777 1628.84C449.197 1627.05 463.995 1637.39 484.709 1638.55L493.881 1645.1L495.693 1656.72L495.122 1656.29C486.695 1691.44 447.707 1741.1 453.168 1771.44C460.748 1782.14 462.911 1783.68 472.879 1791.54C476.151 1811.26 474.729 1857.05 461.121 1872.32L456.617 1870.26C456.507 1843.46 461.248 1823.97 447.263 1803.78L438.015 1799.99C427.056 1806.57 430.641 1802.85 424.555 1814.3C427.471 1837.47 443.5 1875.52 455.813 1895.35C454.641 1903.67 452.152 1909.71 455.602 1915.72L456.22 1913.98C475.237 1861.91 550.587 1851.39 591.415 1820.12C599.867 1813.64 595 1801.71 611.702 1793.13C636.217 1780.53 645.889 1798.89 669.588 1796.34L670.007 1804.26C569.214 1790.53 613.797 1847.5 525.555 1870.78C502.432 1876.88 460.897 1895.77 471.47 1924.25C474.974 1933.68 478.314 1945.19 479.304 1955.32C460.063 1966.01 449.731 1967.88 428.665 1960.51C419.696 1951.11 419.544 1948.25 416.991 1936.06C422.934 1923.8 427.573 1924.89 442.671 1917.13C462.916 1880.67 416.28 1827.27 387.887 1809.1C374.419 1800.48 373.118 1764.11 368.826 1745.65Z" fill="#F1C7C4"/>
<path d="M456.27 2093.81C467.203 2103.34 477.531 2114.85 491.545 2115.4C542.464 2103.38 542.828 2025.07 600.528 2008.35L600.765 2015.84L585.489 2025.92L585.654 2031.12C602.077 2027.82 601.658 2018.13 613.247 2020.25C606.047 2034.43 594.009 2033.5 589.459 2043.36C598.373 2042.47 603.406 2039.55 611.52 2035.91L612.307 2041.45L589.104 2055.46L599.237 2058.6C601.442 2069.14 598.89 2072.99 594.742 2082.68C589.607 2080.1 588.71 2079.68 584.211 2076.16C575.047 2088.78 553.871 2112.52 555.213 2124.76C564.148 2125.69 574.137 2127.63 582.569 2125.43L581.68 2112.23C596.231 2105.71 607.266 2132.71 618.046 2139.53C634.071 2149.65 665.816 2140.88 672.402 2160.36C685.519 2199.13 679.411 2255.85 734.864 2252.84L739.667 2241.97L733.242 2234.73C737.5 2231.98 748.247 2226.13 749.703 2222.49C743.193 2219.91 742.254 2220.93 739.845 2216.19C754.131 2206.2 792.428 2177.79 807.686 2175.68C807.458 2160.52 788.605 2152.06 802.057 2130.22C807.233 2134.15 807.064 2135.76 809.291 2141.9L817.722 2134.79L821.9 2143.04C830.864 2134.83 877.538 2093.35 885.665 2089.62L887.256 2094.83C881.677 2102.24 875.976 2109.52 870.16 2116.76L875.464 2120.86L883.887 2114.09C891.565 2122.01 889.377 2118.28 889.597 2132.25C875.375 2150.2 858.699 2162.81 847.863 2181.22C807.648 2248.99 763.426 2316.97 676.229 2266.56C640.869 2246.11 644.217 2180.12 607.444 2162.05C583.978 2150.54 559.915 2156.67 540.242 2170.47C525.999 2176.69 515.807 2190.16 497.353 2194.3C487.368 2190.07 484.308 2187.74 477.26 2179.53L476.096 2179.19C455.817 2145.75 453.489 2132.12 456.27 2093.81Z" fill="#F2D4D2"/>
<path d="M250.055 1315.86L254.377 1309.11C285.3 1314.17 279.268 1338.32 307.682 1338.19C330.475 1338.08 334.729 1359.12 342.018 1377.88C336.993 1374.14 334.919 1371.51 330.653 1367.02C326.243 1374.65 325.595 1381.34 323.11 1389.59C323.11 1389.6 311.856 1399.47 311.09 1400.15C311.526 1401.98 311.966 1403.8 312.406 1405.63C321.235 1410.56 323.051 1410.2 333.37 1411.35C323.851 1415.12 320.139 1417.08 313.621 1425.04C306.006 1452.01 299.251 1475.23 326.048 1492.79C343.148 1494.15 341.29 1491.89 359.003 1483.87C368.154 1484.96 385.318 1489.63 393.978 1488.31C450.814 1480.82 490.114 1445.81 525.58 1402.62C591.503 1322.34 659.086 1404.22 710.369 1454.76C698.225 1490.9 688.681 1532.3 711.279 1564.51L712.845 1566.7L709.7 1570.34L701.929 1570.76C706.602 1575.02 706.86 1576.29 709.878 1581.71L705.311 1587.15C683.162 1567.78 695.749 1555.26 681.976 1546.26L667.598 1554.74L665.435 1550.42C670.578 1540.51 674.049 1536.38 680.766 1527.84C681.676 1515.34 683.729 1516.02 677.765 1506.91C671.399 1511.07 664.986 1515.17 658.532 1519.19L654.092 1516.62L664.741 1488.67L662.781 1485.17L652.852 1496.7C654.011 1483.29 657.012 1467.8 650.82 1456.41C638.516 1451.19 644.06 1451.82 628.497 1456.68C591.114 1443.41 614.317 1401.28 577.497 1390.91C534.671 1398.17 477.23 1477.72 432.182 1491.14C365.844 1510.9 339.808 1477.71 325.095 1558.23C315.077 1613.07 348.168 1571.96 366.241 1601.1L356.489 1613.92C360.692 1624.66 366.419 1633.7 372.205 1643.66L369.928 1649.87L360.319 1647.7L368.277 1648.42L362.444 1642.01L360.366 1647.57C368.903 1656.95 373.716 1663.39 381.123 1673.53L377.276 1676.78C350.369 1661.8 354.8 1668.99 326.818 1671.8C318.781 1654.56 319.538 1661.79 323.822 1643.25L318.781 1643.83L317.071 1665.48L312.935 1667.77C311.48 1663.35 310.764 1661.04 309.863 1656.43L309.156 1652.71C298.731 1665.24 298.587 1669.76 285.512 1673.93C273.855 1665.84 270.376 1662.99 256.531 1659.69L253.685 1659.04L255.99 1655.05C272.738 1654.3 284.928 1654.29 296.475 1642.61C304.077 1627.11 297.833 1595.63 301.122 1589.64C346.945 1506.31 285.487 1534.32 275.108 1454.93C277.136 1424.82 260.672 1381.08 263.584 1345.89C263.881 1342.3 252.522 1320.47 250.055 1315.86Z" fill="#F1CDCB"/>
<path d="M669.586 1796.34L679.859 1798.6C711.959 1783.29 729.943 1759.88 714.761 1724.41L707.621 1728.91L701.081 1721.91C701.966 1712.76 704.095 1707.97 707.075 1699.51L711.549 1700.55C713.69 1704.93 715.853 1709.28 717.635 1713.82C720.408 1705.09 713.805 1691.49 710.414 1681.8C717.271 1664.21 716.488 1681.58 728.776 1665.24C728.433 1650.24 722.266 1639.66 723.286 1630.39C726.926 1626.32 728.043 1624.9 732.522 1621.68L735.59 1619.51C736.466 1613.79 734.316 1605.42 733.25 1599.32L736.775 1596.55L759.208 1612.33C774.378 1613.61 779.419 1609.25 792.536 1601.4C797.141 1607.36 799.448 1607.48 806.491 1609.92C817.09 1596.2 805.183 1590.13 813.039 1569L820.696 1569.28C836.416 1582.56 819.134 1583.79 832.437 1613.21C846.029 1625.78 846.295 1621.68 868.999 1621.78L870.764 1623.12C880.431 1630.34 888.711 1631.14 895.978 1640.25C911.461 1659.67 924.785 1677.51 943.731 1693.92C945.055 1711.3 938.668 1715.16 923.185 1721.37C901.578 1715.95 904.007 1706.8 885.993 1693.89C851.827 1669.39 835.112 1701.67 795.507 1708.56C781.62 1755.37 866.557 1784.18 747.924 1804.98C743.996 1805.67 725.055 1855.27 688.506 1837.59C689.043 1816.82 695.032 1818.86 686.872 1805.53L670.005 1804.27L669.586 1796.34Z" fill="#F4DCD8"/>
<path d="M267.667 2534.8L270.333 2532.01C291.827 2509.15 353.983 2412.43 364.802 2383.69C417.486 2401.51 386.406 2425.76 433.168 2420.05C511.049 2467.5 437.096 2543.65 444.262 2611.59C446.302 2630.93 466.212 2661.87 469.048 2680.54C473.89 2712.42 454.767 2698.07 474.453 2734.3L465.827 2733.45C457.679 2722.49 452.109 2693.62 453.015 2679.74C449.459 2687.02 446.217 2693.62 442.238 2700.65C439.889 2678.64 439.445 2669.37 433.422 2648.12C430.188 2636.69 444.211 2597.87 430.539 2585.43C388.179 2593.81 391.493 2590.85 350.491 2571.5C346.542 2559.99 346.783 2558.46 349.192 2546.49C358.153 2538.48 362.254 2534.46 372.996 2528.41C374.554 2537.47 375.917 2546.53 377.085 2555.59C387.773 2559.69 393.444 2558.13 404.551 2556.73L399.167 2546.1C418.172 2546.1 420.779 2552.75 430.374 2568.28C441.79 2551.65 448.219 2505.85 436.952 2490.82C422.548 2486.38 409.258 2479.27 397.681 2469.7L393.199 2455.35C322.056 2421.83 317.65 2487.44 277.982 2539.46C249.758 2576.5 320.385 2671.65 297.164 2725.33C299.179 2748.27 330.962 2764.06 325.155 2791.19C321.269 2790.05 317.587 2789.2 313.549 2788.86L315.504 2807.83L311.183 2809.69C298.954 2791.82 317.345 2770.87 293.253 2758.98C258.445 2781.07 288.275 2813.12 323.855 2818.24L328.6 2813.71L325.836 2799.66C348.815 2809.26 333.937 2843.59 338.555 2853.54C354.241 2887.32 345.84 2924.99 351.905 2959.15C352.671 2963.68 353.484 2968.25 354.343 2972.78C329.946 2944.46 335.051 2866.2 331.076 2826.41C299.758 2825.26 292.665 2819.47 267.865 2801.56C274.13 2779.25 295.886 2715.89 292.487 2697.13C280.402 2630.51 265.271 2606.42 267.667 2534.8Z" fill="#F9ECEA"/>
<path d="M119.984 1751.97C133.093 1737 145.855 1718.53 156.894 1701.86L158.142 1702.07L158.819 1712.89L164.803 1712.3C168.871 1696.45 165.694 1698 176.406 1691.2L186.167 1692.66C185.385 1703.55 180.472 1708.88 174.324 1717.73L164.377 1723.09L166.757 1722.31C172.869 1720.36 175.603 1718.76 181.743 1720.38C178.837 1737.36 158.821 1738.46 159.544 1750.28C221.533 1717.17 196.322 1741.28 239.356 1755.98C286.924 1772.25 283.111 1756.92 296.418 1809.07C301.053 1827.23 364.035 1842.81 329.679 1872.83C273.452 1808.96 193.086 1861.33 119.296 1847.99L116.973 1843.5L136.964 1841.99L126.758 1835.54L126.275 1830.63L137.869 1828.76C125.057 1804.85 125.179 1796.34 123.348 1769.96L120.338 1769.32C122.671 1779.6 123.376 1780.71 121.577 1790.85L117.211 1790.21L111.75 1780.42C112.6 1761.41 109.984 1767.41 119.984 1751.97Z" fill="#F2D4D2"/>
<path d="M182.777 1750.6C202.675 1745.75 237.699 1765.84 264.987 1774.09C255.767 1782.88 240.792 1794.34 230.558 1802.67C212.719 1814.13 199.018 1816.78 179.421 1807.03C160.017 1784.1 166.229 1772.78 182.777 1750.6Z" fill="#F1C7C4"/>
<path d="M3277.99 1618.39C3307.59 1632.04 3292.29 1642.59 3315.68 1667.02C3326.93 1672.09 3335.93 1669.43 3340.77 1672.19C3357.37 1732.77 3305.49 1730.31 3342.75 1787.73C3327.01 1815.45 3294.55 1813.89 3266.29 1816.44C3250.76 1809.89 3236.26 1805.27 3225.23 1792.46C3212.17 1754.42 3255.51 1754.73 3262.35 1706.31C3255.9 1710.88 3253.71 1711.82 3246.48 1715.1C3230.09 1694.47 3231.7 1626.66 3270.76 1617.38L3277.99 1618.39Z" fill="#F4DCD8"/>
<path d="M3278 1618.39C3307.59 1632.04 3292.3 1642.59 3315.68 1667.02C3326.93 1672.09 3335.93 1669.43 3340.78 1672.19C3326.12 1686.18 3317.76 1692.19 3316.42 1713.26C3305.61 1701.28 3286.23 1698.14 3271.11 1695.45C3275.9 1672.9 3281.77 1640.73 3278 1618.39Z" fill="#F3E3E1"/>
<path d="M3271.1 1695.45C3286.22 1698.14 3305.61 1701.29 3316.42 1713.26C3308.36 1727.55 3287.4 1729.09 3273.56 1721.64C3265.67 1710.35 3268.25 1713.19 3271.1 1695.45Z" fill="#F9ECEA"/>
<path d="M3024.74 2029.61C3044.53 2020 3046.9 2022.92 3057.67 2006.58C3050.86 1983.86 3044.65 1990.87 3046.5 1965.48L3048.23 1962.59L3061.1 1974.15L3069.19 1958.44L3072.47 1959.4L3073.65 1968.33C3088.49 1974.44 3085.7 1985.46 3085.52 1999.93L3099.51 1999.21L3100.22 2006.41L3090.31 2018.47C3109.91 2020.34 3117.05 2034.01 3138.58 2030.71C3146.82 2029.39 3162.93 2052.89 3170.27 2057.59C3197.86 2066.73 3238.4 2068 3269 2078.75C3282.89 2083.62 3293.33 2093.35 3301.76 2089.88L3301.84 2086.96C3302.37 2072.48 3305.38 2054.96 3316.07 2044.93C3328.16 2055.05 3331.72 2107.53 3329.95 2122.73C3319.64 2115.96 3318.13 2115.62 3305.87 2113.93C3291.97 2117.9 3278.95 2134.07 3276.01 2147.87L3272.71 2167.05C3271.39 2171.03 3268.66 2174.54 3266.3 2178.18C3266.58 2175.85 3268.4 2157.31 3265.96 2156.55C3225.53 2143.94 3176.62 2137.8 3138.96 2115.87C3117.08 2101.44 3141.21 2071.68 3139.59 2057.8C3135.5 2022.87 3044.92 2028.42 3024.74 2029.61Z" fill="#F3E3E1"/>
<path d="M547.211 587.383C550.081 579.577 556.163 567.031 559.761 559.039C566.465 581.317 573.504 643.575 561.069 663.448L569.644 672.375C577.72 662.072 579.18 659.6 584.916 648.116C585.373 659.524 590.397 663.719 597.499 671.707C579.062 699.741 586.059 710.501 593.796 747.971C594.219 749.986 594.663 751.992 595.133 753.995C605.533 757.944 610.396 756.83 621.194 755.895C634.4 769.021 645.498 778.308 652.841 795.578L652.473 811.219L657.176 814.593C659.228 809.894 660.138 807.473 661.65 802.571L665.895 807.439C664.274 815.909 663.622 820.303 660.587 828.333C664.668 845.176 676.367 877.494 690.322 888.25C727.154 900.322 780.448 889.139 799.338 911.429L796.959 914.346L791.448 911.908L794.966 927.18L788.689 927.879C784.626 923.451 770.247 904.67 766.882 904.297C720.128 899.154 693.628 955.02 670.488 892.843C659.555 896.784 656.973 895.391 652.689 903.666C659.119 920.716 670.496 927.023 687.554 930.469C717.749 976.091 627.861 1031.47 664.452 1070.88L670.306 1069.81C678.441 1051.48 672.033 1031.5 679.123 1009.76C686.564 1012 688.951 1018.79 695.528 1026.65C695.016 1028.02 683.448 1058.11 683.334 1056.55C684.536 1072.82 700.713 1100.9 682.445 1111.17C634.942 1043.5 644.389 1058.12 673.756 983.846C679.356 969.691 686.856 955.841 687.8 940.594C670.272 925.631 651.865 937.648 639.59 920.577C620.598 894.155 639.12 855.441 637.838 824.473C582.297 781.797 575.554 788.739 556.981 711.031C556.02 707.022 559.432 695.153 560.651 690.793L562.911 685.706C551.686 656.795 558.639 623.198 547.211 587.383Z" fill="#F1C7C4"/>
<path d="M844.561 526.551C857.953 532.338 866.592 529.887 880.568 524.773C922.806 531.813 936.075 571.043 972.142 593.381C974.245 596.712 976.345 600.039 978.444 603.366C974.834 613.466 974.791 656.138 982.211 665.552C990.88 666.987 995.273 666.999 1004.09 667.147L1004.16 672.299C992.285 679.626 989.318 676.168 975.287 677.255C977.822 677.061 954.936 697.552 954.707 697.742C936.308 677.179 897.689 692.193 873.974 665.704C862.342 640.878 889.741 630.532 868.857 603.819L865.483 614.422L861.466 612.86C860.476 571.225 836.236 576.394 831.359 551.487C839.613 548.634 841.277 548.588 847.541 542.822C845.916 532.422 846.737 535.901 836.066 527.232L844.561 526.551Z" fill="#F1CDCB"/>
<path d="M2623.89 2283.49C2618.68 2282.6 2612.71 2280.15 2607.63 2278.33C2603.74 2263.34 2591.45 2244.68 2583.33 2230.83L2596.35 2242.73C2600.47 2224.1 2589.51 2199.68 2606.73 2181.94L2607.02 2191.68C2615.33 2188.38 2619.05 2186.05 2627.8 2186.26C2622.11 2198.37 2611.56 2193.67 2608.99 2205.14C2627.87 2209.41 2653.5 2179.49 2659.01 2163.11C2654.96 2144.99 2655.43 2162.26 2640.29 2149.01C2643.75 2143.72 2654.53 2126.92 2654.25 2122.39C2649.24 2038.49 2753.67 2069.94 2805.74 2071.38C2821.71 2071.8 2852.03 2072.69 2872.81 2078.32C2855.23 2078.62 2826.16 2076.67 2812.63 2085.6C2797.92 2101.73 2802.53 2118.07 2788.31 2138.6C2736.83 2150.37 2724.29 2154.85 2672.49 2153.58C2672.44 2138.81 2674.19 2117.6 2667.34 2105.37C2658.08 2117.35 2660.9 2156.67 2667.41 2169.54C2651.2 2189.94 2614 2235.45 2619.59 2259.7L2623.89 2283.49Z" fill="#F2D4D2"/>
<path d="M868.999 1621.78C882.484 1583.95 869.968 1554.97 851.573 1521.21L853.779 1516.04C895.513 1526.04 892.262 1582.83 890.23 1619.6C907.656 1634.23 912.718 1638.48 925.983 1657.08C934.267 1654.62 941.103 1654.17 947.849 1649.4L939.791 1634.92L942.068 1631.39C956.971 1641.62 954.004 1643.36 967.405 1641.02L980.293 1628.46C983.116 1655.51 971.874 1672.12 969.233 1695.19C966.406 1719.87 990.079 1736.4 969.847 1765.16C958.097 1773.75 942.432 1779.37 928.159 1774.39L927.465 1769.66C940.028 1767.69 952.146 1767.62 960.831 1759.36L958.816 1756.16L951.1 1759.31L942.114 1749.95C931.985 1750.91 931.008 1753.03 923.012 1760.31C914.856 1754.92 913.243 1754.14 908.337 1745.77L925.776 1741.02C919.63 1730.67 901.269 1723.14 889.337 1722.93C894.302 1737.95 901.366 1730.88 901.311 1742.12C885.811 1739.05 884.347 1731.53 878.328 1716.96L874.718 1723.74C840.361 1728.66 832.361 1712.89 795.508 1708.56C835.113 1701.66 851.828 1669.38 885.994 1693.88C904.008 1706.8 901.578 1715.95 923.186 1721.37C938.669 1715.16 945.056 1711.29 943.731 1693.91C924.786 1677.51 911.461 1659.66 895.979 1640.24C888.711 1631.13 880.432 1630.33 870.765 1623.11L868.999 1621.78Z" fill="#F1C7C4"/>
<path d="M1071.36 221.409C1091.24 203.898 1122.17 175.025 1143.44 161.641C1143.36 175.952 1087.15 224.029 1073.62 228.906C1053.85 227.416 1015.06 222.713 999.856 229.994C945.42 256.068 893.519 311.545 881.261 371.902C877.219 391.797 903.119 456.366 910.818 479.16C931.867 497.95 1027.67 558.235 1045.51 577.804L1040.97 582.646C1002.1 558.222 974.21 536.465 937.7 509.108C918.331 513.027 899.491 519.081 880.567 524.774C866.591 529.887 857.952 532.338 844.56 526.552C780.838 462.266 866.832 469.209 887.022 436.103C885.782 421.576 883.297 418.705 875.81 406.379C871.598 394.252 872.597 372.271 872.462 358.577C918.869 284.247 962.008 197.743 1071.36 221.409Z" fill="#F3E3E1"/>
<path d="M880.57 524.768C899.495 519.075 918.334 513.021 937.703 509.102C974.213 536.459 1002.11 558.216 1040.98 582.64C1068.22 605.879 1108.02 602.619 1138.97 616.723C1153.17 623.195 1142.98 668.344 1168.51 664.335C1202.08 656.538 1250.89 621.43 1285.1 624.639L1288.92 630.349L1287.55 633.93C1267.14 688.602 1335.37 727.296 1323.75 771.974C1315.31 782.831 1306.59 785.007 1293.78 790.116L1295.76 789.113C1281.34 789.71 1285.75 791.318 1275 785.502C1280.21 776.469 1287.66 775.153 1297.8 771.145C1305.25 749.972 1307.56 731.453 1297.67 710.233C1290.95 695.896 1278.8 684.823 1263.9 679.451C1240.72 671.057 1208.41 678.859 1198.7 672.416C1223.03 653.542 1246.63 675.807 1268.48 667.963C1273.25 650.921 1274.49 655.387 1270.29 639.869C1235.26 624.478 1156.76 706.8 1145.45 661.724C1132.3 609.342 1150.19 627.056 1082.95 609.98C1073.61 607.61 1036.21 586.225 1020.6 579.377L1016.62 582.568L1019.86 589.997C998.683 587.872 1002.04 594.865 978.446 603.36C976.347 600.033 974.248 596.706 972.144 593.375C936.078 571.038 922.808 531.807 880.57 524.768Z" fill="#F2D4D2"/>
<path d="M875.813 406.375C883.301 418.701 885.785 421.571 887.025 436.098C866.836 469.204 780.841 462.262 844.563 526.547L836.068 527.229C823.806 520.866 821.779 514.272 815.519 501.882C800.489 508.434 802.08 504.985 795.397 516.989C802.427 521.015 799.574 518.284 803.587 526.043L781.721 522.763L779.96 525.586L799.176 540.245L785.623 534.488L788.053 546.315C775.867 555.716 785.2 536.507 751.66 544.279C736.49 526.107 754.678 510.183 756.79 480.201L751.427 483.892L747.914 503.575C743.44 499.236 738.937 462.562 737.375 453.224C793.407 443.768 825.098 430.867 875.813 406.375Z" fill="#F2D4D2"/>
<path d="M795.395 516.993C777.554 518.555 775.429 516.012 765.872 502.932C763.197 489.391 762.968 487.63 768.471 474.728C780.403 465.297 774.803 466.944 789.308 468.141C802.002 475.532 808.105 489.031 815.517 501.886C800.487 508.439 802.078 504.989 795.395 516.993Z" fill="#F1CDCB"/>
<path d="M3534.92 2494.8C3559.24 2478.08 3588.05 2462.21 3618.66 2464.07C3628.69 2464.66 3634.03 2468.43 3646.18 2468.43L3661.44 2468.52C3651.18 2496.03 3644.26 2511.44 3649.57 2541.28C3629.61 2545.13 3626.45 2545.13 3606.89 2540.09C3599.19 2527.78 3583.56 2493.19 3576.52 2478.55C3559.59 2488.92 3552.39 2497 3534.92 2494.8Z" fill="#F9ECEA"/>
<path d="M364.805 2383.68C381.693 2358.88 412.786 2322.39 446.122 2339.32C468.318 2363.15 462.088 2375.85 455.007 2404.89C442.063 2399.68 427.422 2391.51 414.877 2396L415.478 2404.21C421.573 2407.9 427.829 2411.45 433.454 2415.77L426.91 2416.4L433.171 2420.04C386.408 2425.76 417.489 2401.5 364.805 2383.68Z" fill="#F4DCD8"/>
<path d="M1680.16 3587.74L1703.58 3588.75L1703.36 3583.17L1691.49 3578.68C1697.2 3561.96 1735.14 3548.33 1753.05 3547.91C1764.89 3553.24 1760.96 3549.52 1767.02 3563.19C1767.11 3581.52 1763.12 3587.57 1755.09 3604.37L1749.16 3615.76C1720.58 3630.36 1698.42 3606.24 1680.16 3587.74Z" fill="#F2D4D2"/>
<path d="M1201.72 3564.76L1205.51 3555.57C1217.34 3556.16 1255.22 3558.7 1261.74 3568.1L1244.96 3573.77L1259 3584.69L1258.65 3595.66C1244.94 3618.98 1221.95 3634.51 1194.19 3632.19L1190.87 3627.91C1200.09 3615.51 1206.43 3605.69 1214.55 3592.52C1215.21 3575.68 1215.21 3580.84 1201.72 3564.76Z" fill="#F3E3E1"/>
<path d="M1578.96 168.023C1588.98 177.357 1586.03 174.034 1589.35 189.048C1570.37 239.53 1496.34 221.028 1524.25 176.545L1526.27 171.977C1546.39 180.1 1560.32 177.488 1578.96 168.023Z" fill="#F4DCD8"/>
<path d="M990.469 3263.37C1022.01 3250.37 1099.06 3258.16 1118.5 3284.7C1073.01 3300.36 1029.82 3287.28 990.469 3263.37Z" fill="#F2D4D2"/>
<path d="M2041.13 596.195C2066.54 603.197 2089.88 608.031 2083 639.625C2073.22 652.747 2065.38 655.168 2050.41 662.233C2042.05 630.757 2034.45 632.141 2041.13 596.195Z" fill="#F9ECEA"/>
<path d="M3602.59 2151.34C3630.82 2158.62 3638.7 2178.39 3646.6 2205.06L3643.95 2207.09C3632.38 2202.1 3601.25 2165.78 3602.59 2151.34Z" fill="#F3E3E1"/>
<path d="M1290.31 1401.65C1318.25 1461.6 1264.02 1452.92 1262.78 1480.92L1272.93 1483.98C1176.18 1618.8 1144.01 1548.66 1116.8 1565.08C1104.82 1598.32 1123.59 1600 1131.44 1629.21C1134.98 1642.41 1137.9 1670.94 1139.38 1685.43L1140.01 1684.07L1137.18 1677.75L1129.53 1679.75L1128.67 1698.82C1126.42 1686.74 1127.4 1678.64 1119.85 1672.08C1110.98 1682.4 1119.11 1685.69 1113.51 1703.9C1098.72 1709.23 1101.5 1706.87 1083.21 1701.2C1064.18 1708 1027.19 1792.33 1000.55 1795.21C1002.37 1790.53 1065.16 1694.69 1069.83 1690.23C1080.25 1690.22 1084.12 1691.23 1094.34 1693.5L1101.66 1686.43C1100.61 1673.53 1100.03 1676.46 1090.57 1664.7C1105.94 1644.04 1111.09 1521.32 1124.58 1472.63C1114.96 1469.82 1104.39 1454.24 1097.4 1445.67C1106.78 1444.38 1109.66 1452.22 1123.47 1457.43C1117.58 1449.79 1111.86 1443.01 1105.63 1435.71C1118.89 1428.23 1153.14 1453.68 1182.24 1432.53C1190.93 1419.63 1190.5 1415.73 1191.65 1400.09C1179.41 1396.11 1171.82 1390.06 1162.79 1381.22C1127.88 1347.04 1119.14 1351.55 1116.55 1302.65C1103.62 1293.62 1094.04 1289.35 1096.42 1272.88L1100.06 1271.86L1113.89 1292.43C1144.27 1304.69 1142.36 1365 1182 1388.18C1199.6 1390.02 1193.05 1390.71 1209.09 1383.36C1228.99 1358.67 1220.35 1300.01 1229.2 1260.29L1228.87 1267.14C1232.58 1255.71 1238.6 1239.26 1249.04 1233.16C1244.48 1246.26 1242.22 1250.79 1242.45 1264.76L1245.82 1264.07C1258.19 1245.87 1272.31 1243.05 1293.33 1233.85L1301.48 1238.12L1297.13 1233.69L1301.62 1239.24C1297.63 1255.95 1259.52 1305.23 1241.23 1301.68L1238.1 1304.13L1242.31 1302.11L1239.18 1306.35C1257.7 1331.35 1258.62 1306.29 1286.78 1303.48C1303.54 1285.19 1326.75 1280.8 1333.93 1268.68C1332.74 1258.69 1330.18 1255.56 1324.81 1247.41L1323 1244.69C1336.53 1239.54 1340.07 1241.75 1354.21 1243.22C1373.89 1233.28 1361.68 1217.54 1375.44 1202.4C1375.99 1201.8 1405.66 1189.27 1408.39 1188.12C1433.16 1155.82 1481.33 1102.18 1480.86 1062.27C1461.08 1056.91 1454.81 1045.2 1446.33 1027.69C1446.21 1013.85 1445.24 1009.22 1452.54 997.408L1459.17 997.162C1461.22 1014.05 1459.63 1036.11 1477.46 1041.2L1483.14 1033.96C1499.76 945.157 1403.49 889.236 1382.48 930.9C1401.76 953.58 1443.83 969.373 1466.61 983.418L1466.21 989.302C1448.5 993.399 1420.07 983.13 1403.9 975.604C1399.17 968.582 1396.1 964.924 1390.49 958.575L1387.41 974.779C1377.69 970.317 1385.59 957.965 1382.67 955.565C1362.26 938.807 1336.96 898.62 1374.92 883.034C1403.26 882.378 1450.35 912.584 1478.48 922.743C1499.64 930.388 1490.39 977.466 1494.07 985.373C1504.82 1008.5 1502.89 1024.16 1509.62 1043.69C1531.89 1049.76 1532.33 1033.97 1548.71 1036.16C1633.82 1047.52 1620.98 961.157 1635.89 907.585C1637.47 901.896 1635.98 901.909 1634.08 896.012C1622.94 886.531 1626.72 886.806 1614.53 886.548C1613.23 895.953 1614.39 898.582 1609.08 905.401C1608.15 898.231 1602.09 890.37 1598.03 883.991C1596.39 896.465 1594.91 913.727 1590.21 924.915C1582.22 911.183 1591.28 901.71 1590.34 878.678L1585.49 877.18L1582.23 888.985L1577.51 887.699C1576.82 870.64 1577.31 885.464 1570.73 873.125C1588.73 864.46 1624.89 879.796 1645.21 886.522C1634.65 921.685 1634.67 969.537 1616.63 1028.26C1591.42 1031.91 1517.03 1050.89 1493.76 1059.6C1488.95 1072.21 1467.96 1128.94 1462.16 1137.52C1444.52 1163.63 1399.83 1195.37 1377.91 1218.6C1375.42 1221.24 1369.85 1247.63 1368.74 1253.03C1340.55 1266.59 1305.65 1291.34 1290.77 1319.57C1299.18 1359.09 1300.78 1361.6 1290.31 1401.65Z" fill="#F1CDCB"/>
<path d="M1290.3 1401.65C1274.13 1384.72 1252.81 1328.27 1275.73 1312.9L1290.77 1319.56C1299.18 1359.08 1300.77 1361.59 1290.3 1401.65Z" fill="#F2D4D2"/>
<path d="M1230.93 1387.41C1241.5 1396.35 1248.23 1411.94 1243.16 1425.12C1234.66 1426.74 1231.65 1427.39 1223.54 1430.33C1190.32 1499.29 1228.88 1467.41 1156.8 1492.37C1147.13 1483.67 1144.6 1482 1140.4 1469.09C1146.76 1453.01 1166.12 1454.74 1183.01 1446.84C1193.78 1441.79 1192.05 1411.96 1196.93 1409.97C1226.42 1397.93 1211.23 1414.82 1230.93 1387.41Z" fill="#F4DCD8"/>
<path d="M2376.39 2254.84C2412.02 2253.14 2437.85 2266.1 2469.6 2277.78C2487.45 2284.38 2504.27 2266.69 2523.72 2291.16C2513.59 2309.15 2495.64 2348.98 2474.49 2348.68C2481.04 2340.34 2484.4 2334.5 2489.68 2325.57C2491.09 2311.9 2491.34 2309.95 2485.09 2297.55C2470.58 2287.01 2439.67 2288.45 2427.68 2301.4C2431.02 2313.38 2454.36 2328.74 2465.86 2337.72L2455.6 2339.79L2460.7 2344.53L2458.95 2350.46L2437.92 2353.25L2450.07 2361.68L2447.18 2365.06C2427.72 2365.44 2428.21 2352.11 2413.91 2352.49L2417.84 2365.06C2414.6 2366.29 2409.84 2363.5 2405.51 2361.89C2418.11 2383.14 2413.79 2364.22 2422.27 2377.42L2419.17 2385.13C2399.04 2377.38 2379.34 2351.56 2379.54 2330.31L2390.86 2323.79L2371.78 2320.79L2369.29 2316.68L2374.34 2312.57C2378.76 2314.78 2383.22 2316.93 2387.71 2319.05C2395.37 2322.56 2397.03 2325.19 2403.08 2322.95C2398.29 2306.35 2398.14 2313.25 2403.7 2296.87C2387.31 2278.29 2376.05 2276.3 2351.89 2274.44L2376.39 2254.84Z" fill="#F2D4D2"/>
<path d="M608.075 1162.16C620.578 1143.54 620.222 1119.24 632.552 1109.92L641.788 1109.17C667.154 1131.22 623.947 1194.14 665.308 1233.25C703.724 1269.58 769.703 1236.43 794.756 1251.43C790.21 1256.38 787.382 1260.64 784.758 1266.83C766.016 1277.63 718.704 1263.72 696.173 1263.05C682.184 1262.63 663.675 1249.7 648.861 1244.19C643.261 1261.74 668.817 1269.61 634.486 1288.5C621.429 1295.69 588.507 1302.78 578.434 1312.34C569.16 1321.13 574.37 1333.93 560.208 1331.93L556.703 1322.09C581.765 1279.31 692.783 1301.56 623.346 1211.5C604.49 1189.55 598.725 1188.92 608.075 1162.16Z" fill="#F1CDCB"/>
<path d="M608.071 1162.17C627.271 1161.98 631.783 1160.15 639.054 1181.61C636.752 1198.26 638.5 1200.82 623.343 1211.5C604.487 1189.55 598.722 1188.93 608.071 1162.17Z" fill="#F1C7C4"/>
<path d="M3139.2 1167.2C3144 1199.87 3163.85 1206.79 3163.79 1226.06L3152 1228.87C3144.13 1242.18 3162.81 1236.04 3170.51 1268.91L3166.72 1272.32L3150.51 1261.42L3152.8 1270.94L3149.58 1276.2C3131.29 1267.94 3143.21 1257.03 3120.27 1250.39C3114.38 1235.37 3109.06 1219.4 3103.7 1204.12L3106.01 1200.74C3119.06 1214.63 3115.38 1209.44 3116.8 1231.72C3124 1230.53 3124.69 1228.17 3131.36 1222.84C3129.32 1205.62 3120.15 1216.69 3112.59 1194.72L3115 1190.93L3123.56 1201.53L3130.4 1196.01C3128.94 1182.63 3132.55 1178.53 3139.2 1167.2Z" fill="#F3E3E1"/>
<path d="M1810.33 3593.71C1811.46 3580 1808.8 3579.4 1797.3 3570.05L1810.19 3572.63L1816.56 3567.09C1830.49 3575.38 1834.75 3590.92 1842 3607.38L1843.81 3604.97L1849.8 3612.51C1842.12 3636.97 1841.24 3654.16 1838.8 3679.55C1847.68 3696.66 1858.42 3714.39 1861.31 3733.23C1859.83 3740.97 1823.5 3814.63 1824.19 3814.03C1760.82 3739.7 1774.47 3677.18 1810.33 3593.71Z" fill="#F1C7C4"/>
<path d="M2198.13 745.531C2216.77 745.933 2239.21 748.833 2258.04 750.759L2250.97 809.732C2232.84 806.612 2215.75 808.475 2197.45 809.609L2198.13 745.531Z" fill="#F3E3E1"/>
<path d="M2121.07 199.82C2123.94 200.129 2126.8 200.489 2129.65 200.896C2177.22 207.745 2170.99 230.898 2164.32 268.728C2151.83 269.295 2146.44 270.231 2134.38 265.799C2115.7 249.02 2109.15 222.403 2121.07 199.82Z" fill="#F3E3E1"/>
<defs>
<linearGradient id="paint0_linear_108_964" x1="135.169" y1="1735.41" x2="3682.18" y2="1899.43" gradientUnits="userSpaceOnUse">
<stop stop-color="#F5D8D5"/>
<stop offset="1" stop-color="#F8F1EE"/>
</linearGradient>
<linearGradient id="paint1_linear_108_964" x1="2773.15" y1="2988.06" x2="3570.19" y2="3223.83" gradientUnits="userSpaceOnUse">
<stop stop-color="#F2CFCC"/>
<stop offset="1" stop-color="#F7EAE7"/>
</linearGradient>
</defs>
</svg>
