<svg class="ic_brindis" width="1835" height="2429" viewBox="0 0 1835 2429" fill="none" xmlns="http://www.w3.org/2000/svg">
<path d="M618.789 1010.63C631.831 1004.59 647.316 1009.6 654.371 1022.14C661.432 1034.61 657.702 1050.49 645.798 1058.53C637.194 1064.32 626.05 1064.83 616.963 1059.75C607.882 1054.74 602.397 1045.03 602.783 1034.61C603.169 1024.26 609.355 1015 618.789 1010.63Z" fill="#301E0F"/>
<path d="M417.082 1306.76C428.85 1303.29 441.275 1309.59 445.48 1321.1C449.686 1332.61 444.233 1345.4 433.011 1350.35C425.075 1353.83 415.847 1352.67 409.082 1347.2C402.31 1341.8 399.121 1333.06 400.799 1324.57C402.484 1316.09 408.76 1309.21 417.082 1306.76Z" fill="#301E0F"/>
<path d="M486.657 958.234C501.415 962.799 503.718 965.371 515.698 974.372C517.679 996.038 517.061 989.159 500.92 1012.11C483.956 1006.52 483.544 1005.36 470.824 992.116C471.287 970.321 469.544 978.422 486.657 958.234Z" fill="#301E0F"/>
<path d="M477.319 398.017C569.331 394.905 846.439 427.18 899.731 503.674C912.857 556.888 895.082 657.846 886.085 715.812C846.677 969.617 804.26 1219.13 673.567 1444.09C621.44 1533.84 497.448 1627.77 474.65 1687.5C416.844 1849.65 383.97 2032.04 354.633 2201.58C336.029 2309.01 498.829 2309.72 523.01 2383.08C517.595 2409.11 521.306 2399.41 500.934 2422.42C413.23 2442.42 -33.5285 2388.48 2.00879 2273.2C50.3616 2231.09 210.346 2247.29 226.308 2201C274.095 2062.39 347.328 1794.8 342.396 1649.57C338.614 1538.15 227.786 1385.59 259.232 1250.19C281.444 973.282 359.462 705.351 438.779 440.057C447.081 412.27 455.68 407.628 477.319 398.017ZM462.278 462.827C375.367 754.179 219.961 1227.04 337.586 1516.8C424.331 1730.51 313.142 1967.23 265.381 2184.22C242.314 2289.02 91.9302 2253.66 37.3135 2285.61C37.5386 2345.21 435.115 2435.28 489.757 2386.03C485.397 2378.38 485.145 2376.2 479.068 2370.28C444.824 2350.67 325.779 2294.16 326.576 2251.21C329.85 2074.22 391.694 1879.93 431.932 1706.34C453.269 1614.27 601.974 1509.93 649.253 1423.52C778.537 1187.24 861.931 813.451 878.092 545.7C769.026 566.91 554.528 529.337 462.278 462.827ZM869.068 520.47C841.711 458.75 545.343 419.969 476.438 430.635C507.768 500.803 797.912 534.389 869.068 520.47Z" fill="#301E0F"/>
<path d="M1197.45 1010.31C1210.84 1002.66 1227.86 1006.52 1236.65 1019.18C1245.44 1031.85 1243.1 1049.14 1231.25 1058.98C1222.6 1066.25 1210.62 1067.92 1200.29 1063.42C1189.97 1058.92 1183.08 1048.95 1182.47 1037.76C1181.87 1026.51 1187.67 1015.9 1197.45 1010.31Z" fill="#301E0F"/>
<path d="M1269.01 1222.41C1277.75 1217.2 1288.64 1217.13 1297.4 1222.34C1306.15 1227.55 1311.36 1237.13 1310.95 1247.29C1310.55 1257.45 1304.61 1266.58 1295.47 1271.08C1282.12 1277.63 1265.98 1272.49 1258.87 1259.44C1251.77 1246.39 1256.24 1230.06 1269.01 1222.41Z" fill="#301E0F"/>
<path d="M1401.54 1311.71C1407.88 1307.34 1416.08 1306.83 1422.91 1310.36C1429.75 1313.83 1434.15 1320.78 1434.37 1328.43C1434.6 1336.08 1430.62 1343.28 1424 1347.14C1414.23 1352.92 1401.68 1349.84 1395.62 1340.26C1389.56 1330.74 1392.18 1318.08 1401.54 1311.71Z" fill="#301E0F"/>
<path d="M1316.08 398.828C1332.21 399.767 1360.4 399.053 1374.01 407.693C1435.2 446.564 1552.38 1022.33 1564.46 1114.85C1575.1 1196.37 1579.9 1280.14 1573.13 1362.18C1564.17 1470.9 1488.51 1568.43 1491.6 1675.79C1494.09 1762.59 1523.18 1854.21 1542.49 1938.56C1557.23 2002.85 1568.75 2068.36 1584.53 2132.33C1623.95 2292.16 1725.12 2204.92 1825.41 2264.45C1892.26 2360.89 1570.27 2412.77 1513.23 2421.45C1462.27 2429.17 1415.97 2429.23 1364.7 2428.53C1333.94 2418.05 1316.82 2417.08 1312.03 2382.24C1334.2 2330.61 1436.82 2305.66 1473.32 2259.76C1483.47 2246.96 1488.06 2228.32 1485.39 2209.48C1462.5 2048.05 1420.38 1844.05 1369.27 1690.58C1360.24 1663.52 1279.89 1578.97 1259.94 1559.04C1172.27 1471.35 1137.44 1403.97 1092.38 1289.85C1005.46 1069.65 964.365 835.563 934.7 601.778C931.028 572.84 924.334 510.741 946.051 492.334C1019.28 430.241 1226.92 404.209 1316.08 398.828ZM1370.03 466.461C1255.6 534.591 1091.3 556.47 959.355 548.967C990.288 812.551 1036.71 1049.53 1129.66 1299.18C1170.28 1454.25 1320.51 1542.78 1390.58 1664.42C1440.52 1751.09 1467.86 1982.22 1495.67 2084.44C1561.42 2326.18 1460.48 2284 1337.78 2382.75C1408.76 2433.03 1810.42 2349.13 1800.27 2283.55C1732.43 2258.35 1610.24 2289.4 1576.47 2189.88C1529.37 2051.14 1480.34 1817.56 1461.38 1674.58C1451.72 1601.61 1545.6 1428.85 1545.7 1319.24C1545.94 1069.4 1475.92 812.422 1409.81 572.999C1403.43 549.879 1385.07 472.569 1370.03 466.461ZM1355.58 434.441C1328.37 425.01 1295.21 426.521 1266.83 430.636C1192.53 440.755 1020.89 463.264 967.685 511.868L969.986 519.648C994.397 526.63 1025.12 523.312 1051.01 522.136C1136.72 516.678 1284.4 491.102 1353.87 442.755L1355.58 434.441Z" fill="#301E0F"/>
<path d="M914.765 0L928.469 7.03997C945.665 45.2102 936.945 209.65 929.061 254.462L915.299 247.119C899.839 202.539 907.171 48.965 914.765 0Z" fill="#301E0F"/>
<path d="M706.229 177.367C728.634 189.274 801.996 267.119 818.156 289.357C829.397 304.819 825.584 305.372 822.085 323.394C789.462 310.928 711.875 224.435 696.557 193.922L706.229 177.367Z" fill="#301E0F"/>
<path d="M1136.22 175.117C1141.96 178.525 1144.5 182.459 1149.3 187.686C1145.07 215.402 1056.49 297.555 1032.77 321.163C1024.46 313.062 1025.17 312.419 1020.89 301.412C1035.52 270.108 1107.86 203.001 1136.22 175.117Z" fill="#301E0F"/>
</svg>
