<svg width="1919" height="2009" viewBox="0 0 1919 2009" fill="none" xmlns="http://www.w3.org/2000/svg">
<path d="M377.542 1.84277C483.361 -8.78476 518.485 49.5412 526.723 142.584L1376.24 142.977C1394.29 83.6032 1413.73 21.3365 1482.31 3.33454C1510.41 -4.12325 1540.36 1.06501 1564.31 17.5303C1610.08 48.4482 1621.02 93.7551 1631.53 143.736C1707.31 141.865 1798.79 135.095 1858.28 190.193C1898.99 227.881 1916.53 278.196 1917.13 332.619C1920.63 651.064 1916.05 970.364 1916.28 1288.72L1917.04 1645.92C1917.47 1825.95 1947.66 2000.93 1708.68 2004.93L721.183 2004.55C623.108 2004.76 136.222 2022.98 74.2419 1974.11C32.7637 1941.96 6.88599 1893.72 3.05966 1841.39C-2.45775 1760.52 1.19487 1631.5 1.079 1548.09L1.30402 955.269L2.08892 507.475C3.03431 246.218 -24.8754 142.039 280.908 143.003C302.811 65.3965 309.788 45.0086 377.542 1.84277Z" fill="#301E0F"/>
<path d="M30.114 601.075C643.584 594.17 1273.66 598.985 1887.94 600.381L1887.24 1475.74C1887.34 1599.25 1892.29 1733.13 1883.83 1856.14C1881.84 1885.08 1860.83 1911.84 1843.17 1934.19C1795.75 1969.31 1778.5 1975.49 1720.52 1975.58C1371.43 1976.14 1022.18 1975.51 673.095 1975.48L344.637 1975.74C244.953 1975.99 49.7859 2004.11 36.2362 1857.76C23.5805 1721.02 29.6835 1572.66 29.9275 1434.54L30.114 601.075Z" fill="white"/>
<path d="M944.203 787.619C1062.33 770.202 1171.04 802.522 1266.92 870.884C1375.97 876.51 1637.41 862.082 1727.5 885.504L1725.03 889.465C1655.82 894.859 1591.92 895.09 1522.45 895.624C1520.19 983.466 1520.7 1071.37 1523.96 1159.18C1574.09 1159 1694.03 1148.07 1728.22 1171.7L1723.98 1178.48C1662.97 1185.31 1584.82 1183.61 1522.07 1183.84C1520.13 1270.02 1521.38 1361.53 1521.23 1448.13C1557.71 1447.92 1696.77 1443.56 1724.54 1452.6L1729.7 1464.62L1721.66 1473.24L1522.32 1473.5C1520.59 1560.69 1521.4 1647.92 1524.73 1735.06C1570.18 1735.42 1691.06 1732.99 1730.21 1750.03L1730.15 1750.41L1718.89 1747.45L1714.2 1753.42C1631.46 1761.19 1525.4 1757.84 1439.73 1758L963.021 1758.1C878.257 1757.88 212.293 1764.12 186.583 1748.42C210.563 1728.7 355.758 1735.66 395.635 1735.87C397.178 1650.42 395.422 1559.19 395.145 1473.3C361.191 1473.17 196.775 1476.59 179.65 1465.8L184.609 1452.44C222.505 1443.2 352.452 1447.76 396.155 1448.35C396.522 1359.97 395.011 1269.82 394.335 1181.3C346.413 1182.28 211.547 1192.88 178.879 1171.92L179.67 1163.91C219.052 1154.9 350.786 1158.29 394.67 1158.65C396.747 1072.93 395.107 981.305 395.081 895.122C350.51 896.041 218.055 902.136 183.689 889.715L182.577 878.271C190.551 872.993 656.029 873.321 709.282 871.687C777.815 821.418 860.803 797.321 944.203 787.619Z" fill="#301E0F"/>
<path d="M1126.52 1183.04C1226.81 1181.36 1327.13 1181.9 1427.4 1184.63C1434.66 1288.72 1433.38 1322.87 1398.7 1423.31C1394.06 1436.49 1394.13 1435.55 1384.12 1445.49C1334.83 1452.94 1184.81 1448.81 1125.72 1448.37C1124.46 1360.93 1126.07 1270.7 1126.52 1183.04Z" fill="white"/>
<path d="M818.385 1183.31L1102.38 1183.42L1104.06 1448.79L818.918 1449.01C815.793 1362.66 817.89 1270.16 818.385 1183.31Z" fill="white"/>
<path d="M818.101 894.438L1102.73 895.891L1103.69 1158.58L818.622 1158.68C817.227 1070.61 817.053 982.517 818.101 894.438Z" fill="white"/>
<path d="M419.226 1472.55L562.349 1472.93C576.169 1500.06 591.448 1527.41 610.323 1550.87C660.837 1613.67 725.646 1662.47 794.7 1703.08C796.693 1708.27 798.681 1713.47 800.667 1718.66L799.015 1732.46C669.473 1736.24 548.671 1736.32 418.731 1735.86C417.663 1648.09 417.824 1560.31 419.226 1472.55Z" fill="white"/>
<path d="M818.802 1473.15C913.553 1471.22 1008.33 1471.32 1103.07 1473.46C1103.27 1522.64 1106.55 1645.58 1099.56 1687.95C990.973 1712.45 923.264 1708.81 818.41 1675.78L818.802 1473.15Z" fill="white"/>
<path d="M550.401 1183.17C629.892 1181.85 713.575 1183.32 793.413 1183.44C794.05 1271.62 793.954 1359.8 793.118 1447.99C722.926 1448.47 652.721 1448.51 582.523 1448.09C546.974 1337.8 543.649 1299.5 550.401 1183.17Z" fill="white"/>
<path d="M1126.38 894.929L1260.78 894.781C1353.51 981.408 1389.31 1035.77 1420.46 1158.2L1127.66 1158.5C1126.7 1070.65 1126.28 982.784 1126.38 894.929Z" fill="white"/>
<path d="M1406.12 1473.55L1499.54 1472.71C1501.9 1558.59 1500.62 1649.54 1500.82 1735.81L1171.17 1736.47C1129.79 1736.74 1087.65 1736.07 1046.19 1735.84C1062.91 1731.17 1079.49 1726.07 1095.94 1720.53C1230.78 1674.95 1342.02 1604.1 1406.12 1473.55Z" fill="white"/>
<path d="M731.576 895.985C756.398 894.603 765.787 892.629 790.019 899.56C800.302 925.656 793.067 1117.9 792.186 1158.62L618.664 1158.82L554.826 1157.82C596.748 1028.29 626.291 982.766 731.576 895.985Z" fill="white"/>
<path d="M419.201 895.889L682.277 895.625C627.159 951.07 603.918 978.343 566.209 1045.71C546.768 1086.89 539.695 1114.96 527.515 1158.31L416.906 1158.17C416.462 1072.03 418.417 982.285 419.201 895.889Z" fill="white"/>
<path d="M1126.51 1473.91L1381.3 1471.23C1353.46 1515.57 1327.38 1546.39 1290.2 1582.86C1232.48 1630.8 1195.04 1655.08 1124.74 1682.59C1126.17 1613.04 1126.76 1543.47 1126.51 1473.91Z" fill="white"/>
<path d="M418.629 1182.22L524.377 1183.2C517.785 1295.71 518.911 1341.44 552.569 1449.4L419.002 1447.67C415.536 1359.23 415.414 1270.68 418.629 1182.22Z" fill="white"/>
<path d="M1309.2 896.126L1500.66 894.57C1501.53 982.618 1501.18 1070.67 1499.6 1158.71C1493.96 1158.95 1456.19 1159.83 1454.19 1153.65C1421.67 1052.66 1377.94 976.285 1309.2 896.126Z" fill="white"/>
<path d="M597.34 1473.59C662.033 1472.31 728.933 1473.06 793.819 1472.95L795.395 1666.94C710.155 1628.52 641.448 1554.89 597.34 1473.59Z" fill="white"/>
<path d="M954.64 813.452C1069.56 805.531 1128.54 820.099 1229.25 874.394C1166.8 873.591 1104.34 873.469 1041.89 874.028C948.003 875.397 854.101 874.594 760.25 871.617C834.21 834.141 874.976 823.893 954.64 813.452Z" fill="white"/>
<path d="M1455.84 1180.77C1475.13 1181.61 1477.48 1180.98 1494.8 1188.45C1504.99 1226.57 1504.9 1407.02 1495.96 1442.76L1483.25 1449.36C1462.31 1448.97 1442.44 1451.49 1426.14 1440.24C1452.56 1345.31 1459.83 1278.08 1455.84 1180.77Z" fill="white"/>
<path d="M800.668 1718.66C830.501 1698.97 876.333 1720.51 910.718 1730.75C874.255 1732.28 835.201 1734.89 799.016 1732.46L800.668 1718.66Z" fill="white"/>
<path d="M279.724 172.885C281.537 223.457 287.524 282.991 318.263 325.141C341.601 357.133 405.072 392.255 440.859 361.601L437.246 352.998C397.902 321.553 341.826 339.33 324.225 288.359C314.47 260.116 306.708 207.268 317.839 179.86C337.022 168.217 470.017 172.402 503.097 172.293L1377.52 173.926C1377.32 246.293 1379.99 310.617 1443.96 357.859C1468.39 375.9 1507.11 391.805 1526.37 360.411C1477.66 301.179 1405.85 392.731 1406.29 171.83C1520.89 175.61 1641.92 172.113 1757.66 173.251C1932.6 202.761 1889.7 437.632 1887.73 570.543C1678.12 577.049 1444.45 572.08 1232.6 572.067L29.0144 571.681C36.3646 419.624 -20.6507 246.781 144.64 175.855C186.948 171.721 236.689 172.962 279.724 172.885Z" fill="white"/>
<path d="M1489.62 26.2656C1572.8 29.0943 1582.71 71.8292 1601.11 143.592L1528.19 143.097L1408.47 142.55C1425.94 79.1842 1434.65 60.8804 1489.62 26.2656Z" fill="white"/>
<path d="M395.105 26.7812C477.174 35.062 485.702 72.7373 503.772 142.861L412.956 143.587L312.771 143.028L315.164 134.914C332.919 75.2643 340.565 56.1818 395.105 26.7812Z" fill="white"/>
</svg>
