<svg width="1919" height="2009" viewBox="0 0 1919 2009" fill="none" xmlns="http://www.w3.org/2000/svg">
<path d="M1482.31 3.33398C1510.41 -4.12365 1540.36 1.06511 1564.31 17.5303C1610.08 48.4481 1621.02 93.755 1631.53 143.735C1707.31 141.864 1798.79 135.095 1858.29 190.193C1898.99 227.881 1916.53 278.196 1917.13 332.619C1920.63 651.064 1916.05 970.364 1916.28 1288.72L1917.04 1645.92C1917.47 1825.95 1947.66 2000.93 1708.68 2004.92L721.184 2004.54C623.108 2004.76 136.223 2022.98 74.2422 1974.11C32.7642 1941.96 6.88607 1893.72 3.05957 1841.39C-2.4578 1760.52 1.19496 1631.5 1.0791 1548.08L1.30371 955.269L2.08887 507.475C3.03423 246.218 -24.8752 142.039 280.907 143.003C302.81 65.3967 309.788 45.0083 377.542 1.84277C483.36 -8.78472 518.485 49.541 526.723 142.584L1376.24 142.977C1394.29 83.6032 1413.73 21.3359 1482.31 3.33398ZM1887.94 600.38C1273.66 598.985 643.584 594.169 30.1143 601.074L29.9277 1434.54C29.6837 1572.66 23.5806 1721.02 36.2363 1857.76C49.7864 2004.11 244.953 1975.99 344.637 1975.74L673.095 1975.48C1022.18 1975.51 1371.43 1976.14 1720.52 1975.58C1778.5 1975.49 1795.75 1969.31 1843.17 1934.19C1860.83 1911.84 1881.84 1885.07 1883.83 1856.14C1892.29 1733.13 1887.34 1599.25 1887.24 1475.74L1887.94 600.38ZM503.097 172.293C470.017 172.402 337.025 168.217 317.84 179.859C306.708 207.267 314.47 260.116 324.226 288.359C341.827 339.329 397.903 321.553 437.246 352.998L440.859 361.601C405.072 392.255 341.601 357.132 318.264 325.141C287.525 282.991 281.537 223.457 279.724 172.885C236.689 172.962 186.948 171.721 144.64 175.854C-20.6502 246.781 36.3647 419.624 29.0146 571.681L1232.6 572.066C1444.45 572.079 1678.12 577.049 1887.73 570.543C1889.7 437.632 1932.6 202.76 1757.66 173.25C1641.92 172.112 1520.89 175.61 1406.29 171.83C1405.85 392.73 1477.66 301.18 1526.37 360.411C1507.11 391.805 1468.39 375.899 1443.96 357.858C1379.99 310.617 1377.32 246.293 1377.52 173.926L503.097 172.293ZM1489.62 26.2646C1434.65 60.8792 1425.94 79.184 1408.47 142.55L1528.19 143.097L1601.11 143.592C1582.71 71.8292 1572.8 29.0934 1489.62 26.2646ZM395.104 26.7803C340.565 56.1808 332.919 75.2643 315.164 134.914L312.771 143.027L412.956 143.587L503.771 142.86C485.701 72.7371 477.174 35.061 395.104 26.7803Z" fill="#301E0F"/>
<path d="M944.203 787.619C1062.33 770.202 1171.04 802.523 1266.92 870.885C1375.97 876.51 1637.41 862.083 1727.5 885.505L1725.03 889.465C1655.82 894.859 1591.92 895.09 1522.45 895.624C1520.19 983.466 1520.7 1071.37 1523.96 1159.18C1574.09 1159 1694.02 1148.07 1728.22 1171.7L1723.98 1178.48C1662.97 1185.31 1584.82 1183.61 1522.07 1183.84C1520.13 1270.02 1521.38 1361.53 1521.23 1448.13C1557.71 1447.92 1696.77 1443.56 1724.54 1452.6L1729.7 1464.62L1721.66 1473.24L1522.32 1473.5C1520.59 1560.69 1521.4 1647.92 1524.73 1735.06C1570.18 1735.42 1691.06 1732.99 1730.21 1750.03L1730.15 1750.41L1718.89 1747.45L1714.2 1753.42C1631.46 1761.19 1525.4 1757.84 1439.73 1758L963.021 1758.1C878.258 1757.88 212.293 1764.12 186.583 1748.42C210.564 1728.7 355.758 1735.66 395.635 1735.88C397.178 1650.42 395.422 1559.19 395.146 1473.3C361.191 1473.17 196.776 1476.59 179.65 1465.8L184.608 1452.44C222.505 1443.2 352.452 1447.76 396.155 1448.35C396.522 1359.97 395.01 1269.82 394.335 1181.3C346.412 1182.28 211.547 1192.88 178.879 1171.92L179.67 1163.91C219.052 1154.9 350.786 1158.29 394.67 1158.65C396.747 1072.93 395.107 981.305 395.081 895.122C350.509 896.042 218.055 902.136 183.689 889.715L182.577 878.271C190.559 872.993 656.028 873.321 709.282 871.688C777.815 821.418 860.803 797.321 944.203 787.619ZM1406.12 1473.55C1342.02 1604.1 1230.78 1674.95 1095.94 1720.53C1079.49 1726.07 1062.91 1731.17 1046.19 1735.84C1087.65 1736.07 1129.79 1736.74 1171.17 1736.47L1500.82 1735.81C1500.62 1649.54 1501.9 1558.59 1499.54 1472.71L1406.12 1473.55ZM419.227 1472.55C417.825 1560.31 417.663 1648.09 418.73 1735.86C548.671 1736.32 669.473 1736.24 799.015 1732.46L800.667 1718.66C798.68 1713.47 796.693 1708.27 794.699 1703.08C725.646 1662.47 660.837 1613.67 610.323 1550.87C591.449 1527.41 576.169 1500.06 562.35 1472.93L419.227 1472.55ZM910.718 1730.75C876.333 1720.51 830.5 1698.97 800.668 1718.66L799.016 1732.46C835.201 1734.89 874.255 1732.28 910.718 1730.75ZM1103.07 1473.46C1008.33 1471.32 913.554 1471.22 818.803 1473.15L818.41 1675.78C923.264 1708.81 990.973 1712.45 1099.56 1687.95C1106.55 1645.58 1103.27 1522.65 1103.07 1473.46ZM1126.51 1473.91C1126.76 1543.47 1126.17 1613.04 1124.74 1682.59C1195.04 1655.08 1232.48 1630.8 1290.2 1582.86C1327.38 1546.39 1353.46 1515.57 1381.3 1471.23L1126.51 1473.91ZM793.819 1472.95C728.933 1473.06 662.033 1472.31 597.34 1473.59C641.448 1554.89 710.155 1628.52 795.395 1666.94L793.819 1472.95ZM1427.4 1184.63C1327.13 1181.9 1226.81 1181.37 1126.52 1183.04C1126.07 1270.7 1124.46 1360.93 1125.72 1448.37C1184.81 1448.81 1334.83 1452.94 1384.12 1445.49C1394.13 1435.55 1394.06 1436.49 1398.7 1423.31C1433.38 1322.87 1434.66 1288.72 1427.4 1184.63ZM418.629 1182.22C415.414 1270.68 415.536 1359.23 419.002 1447.67L552.569 1449.4C518.911 1341.44 517.786 1295.71 524.377 1183.2L418.629 1182.22ZM1455.84 1180.77C1459.83 1278.08 1452.56 1345.31 1426.14 1440.24C1442.44 1451.49 1462.31 1448.97 1483.25 1449.37L1495.96 1442.76C1504.9 1407.02 1504.99 1226.57 1494.8 1188.45C1477.48 1180.98 1475.13 1181.61 1455.84 1180.77ZM818.385 1183.31C817.89 1270.16 815.793 1362.66 818.918 1449.01L1104.06 1448.79L1102.38 1183.42L818.385 1183.31ZM793.413 1183.44C713.575 1183.32 629.892 1181.85 550.401 1183.17C543.649 1299.5 546.974 1337.8 582.523 1448.09C652.721 1448.51 722.926 1448.47 793.118 1447.99C793.954 1359.8 794.05 1271.62 793.413 1183.44ZM1309.2 896.126C1377.94 976.285 1421.67 1052.66 1454.19 1153.65C1456.19 1159.83 1493.96 1158.95 1499.6 1158.71C1501.18 1070.67 1501.53 982.618 1500.66 894.57L1309.2 896.126ZM790.019 899.56C765.788 892.629 756.398 894.603 731.575 895.985C626.291 982.766 596.748 1028.29 554.826 1157.82L618.664 1158.82L792.186 1158.62C793.066 1117.9 800.302 925.656 790.019 899.56ZM818.102 894.438C817.053 982.517 817.227 1070.61 818.622 1158.68L1103.69 1158.58L1102.73 895.891L818.102 894.438ZM1126.38 894.93C1126.28 982.785 1126.7 1070.65 1127.66 1158.5L1420.46 1158.2C1389.31 1035.77 1353.51 981.408 1260.78 894.781L1126.38 894.93ZM419.201 895.889C418.416 982.284 416.462 1072.03 416.905 1158.17L527.515 1158.31C539.695 1114.96 546.769 1086.89 566.209 1045.71C603.919 978.344 627.159 951.07 682.277 895.625L419.201 895.889ZM1229.25 874.395C1128.54 820.1 1069.56 805.531 954.64 813.452C874.975 823.893 834.21 834.141 760.25 871.617C854.101 874.594 948.004 875.398 1041.89 874.028C1104.34 873.469 1166.8 873.591 1229.25 874.395Z" fill="#301E0F"/>
</svg>
