<svg width="2043" height="2577" viewBox="0 0 2043 2577" fill="none" xmlns="http://www.w3.org/2000/svg">
<path d="M615.27 86.4062C660.182 86.4703 665.069 106.53 690.028 109.937C837.157 129.996 872.867 131.089 855.125 295.741C860.546 304.228 877.658 329.623 875.459 337.917C866.507 371.734 846.848 442.777 808.682 453.642C795.492 457.436 785.885 444.706 764.103 460.65C751.287 570.718 857.697 554.645 923.426 584.733C998.383 619.001 977.386 813.484 983.907 887.935C996.878 1035.87 1047.35 1169.53 1089.2 1311.04C1100.28 1348.33 1136.72 1398.61 1153.3 1445.48L1155.74 1452.48C1149.72 1485.66 1145.03 1540.43 1108.1 1547.38C1093.82 1533.23 1101.25 1516.39 1100.43 1487.39C1088.99 1485.14 1085.28 1485.59 1073.8 1485.34C1036.14 1456.73 1044.07 1357.91 1025.24 1319.59C951.753 1169.98 907.4 1077.47 877.69 909.344C861.099 957.949 852.52 998.581 848.848 1049.63C963.316 1256.2 996.499 1368.65 1056.25 1596.43C1122.84 1850.39 1204.2 2124.66 1330.27 2354.44C1361.2 2410.82 1398.59 2440.52 1434.02 2491.06C1419.66 2514.59 1379.4 2507.71 1349.6 2511.63C1304.27 2517.54 1243.79 2543.58 1201.34 2544.42C1119.37 2546.15 1044.76 2501.47 958.796 2507.96C900.044 2512.46 843.408 2539.98 788.058 2562.03C658.633 2593.02 614.511 2529.31 484.886 2509.38C401.601 2496.65 305.88 2550.98 271.089 2546.86C208.234 2539.4 70.8244 2510.02 0.107068 2497.74C-2.69399 2482.25 50.2663 2425.93 64.98 2403.62C314.033 2025.32 325.107 1550.01 516.313 1151.08C571.971 1034.97 562.93 1030.08 535.824 906.515C502.866 1077.15 463.529 1178.79 385.453 1332.9C362.341 1378.55 388.701 1480 323.493 1488.1C305.763 1502.18 328.573 1519.99 314.908 1548.98L300.747 1553.1C279.455 1542.75 260.381 1489.64 263.97 1467.65C274.047 1405.93 316.027 1348.07 334.393 1290.02C364.643 1194.41 388.791 1095.15 416.089 998.517C436.282 912.494 420.745 755.107 433.645 665.034C450.796 545.258 530.339 588.012 600.427 541.401C641.565 514.012 642.169 460.071 646.639 414.103C598.472 409.216 538.062 398.029 518.261 343.574C499.921 316.7 541.219 265.203 540.608 258.773C532.519 174.229 489.773 125.753 615.27 86.4062Z" fill="#301E0F"/>
<path d="M535.219 578.945C567.122 603.569 567.688 688.178 571.566 728.038C633.243 746.49 654.047 758.642 705.911 797.088C755.376 759.541 785.736 745.397 841.24 721.931C844.603 667.025 843.606 637.901 867.87 587.753C875.87 600.804 883.368 801.46 879.034 825.441C865.001 903.041 839.034 968.491 833.89 1049.82C876.976 1135.59 927.206 1226.69 957.354 1316.89C1065.05 1638.99 1173.66 2250.99 1418.64 2489.7C1235.56 2502.11 1239.02 2552.9 1040.04 2495.17C876.693 2474.79 864.211 2545.25 717.364 2553.93C657.128 2557.53 568.332 2501.92 489.477 2492.66C396.482 2481.67 331.036 2528.79 270.471 2528.09C173.926 2526.99 133.895 2489.96 17.4717 2490.86C269.223 2189.33 345.679 1679.3 464.192 1313.03C492.333 1226.04 537.046 1142.85 578.518 1061.14C572.184 935.83 517.844 807.568 532.962 674.355C536.557 642.659 524.409 615.142 535.219 578.945Z" fill="white"/>
<path d="M600.73 105.567C648.118 101.838 652.318 102.739 689.237 132.441C842.463 126.977 846.649 161.951 839.672 301.658C839.582 303.394 861.691 334.961 859.549 341.455C850.527 368.843 827.08 415.262 808.804 437.378C793.042 435.835 781.338 434.164 765.737 431.463C743.885 447.729 734.889 482.768 747.802 507.97C770.56 552.46 796.759 562.619 840.861 578.756C837.858 622.345 831.608 670.822 826.952 714.669L759.191 743.6L703.462 778.447C658.807 745.98 636.647 734.536 584.448 717.113C580.904 665.872 573.039 628.132 563.329 577.92C623.007 553.489 649.437 524.494 665.688 459.495C674.665 423.62 654.382 382.858 613.354 387.166C590.094 389.544 558.101 376.622 545.934 356.049C516.063 313.038 545.426 293.943 565.548 256.718C542.648 191.718 509.805 165.809 600.73 105.567Z" fill="white"/>
<path d="M331.03 1403.3C302.728 1431.59 304.059 1464.44 294.516 1503.27L284.162 1499.35C255.796 1438.66 336.772 1349.36 352.817 1290.72C395.595 1138.99 443.124 1002.82 442.501 842.544C442.263 782.752 440.719 660.662 473.124 610.321C480.738 598.491 493.227 596.948 505.696 596.305C557.045 670.305 507.335 1063.96 451.323 1154.55C414.604 1214.02 375.968 1301.91 358.759 1370.38C356.341 1413.01 356.772 1425.41 340.56 1464.31L333.126 1465.53C327.666 1439.04 329.159 1429.47 331.03 1403.3Z" fill="white"/>
<path d="M331.03 1403.3L329.158 1400.73C344.039 1388.32 348.161 1375.91 352.958 1357.59L358.759 1370.38C356.341 1413.01 356.772 1425.41 340.56 1464.31L333.126 1465.53C327.666 1439.04 329.159 1429.46 331.03 1403.3Z" fill="white"/>
<path d="M894.184 588.977C913.959 596.885 942.737 608.392 948.981 631.281C969.804 707.788 958.724 803.648 966.492 882.405C980.704 1026.48 1034.91 1202.77 1082.52 1340.81C1090.12 1362.86 1120.76 1405.16 1134.87 1424.58C1135.14 1452.03 1134.17 1489.96 1122.18 1514.78C1112.57 1499.54 1114.39 1474.6 1113.82 1455.5C1110.36 1439.82 1105.21 1420.98 1089.17 1415.77L1085.67 1468.94L1078.75 1466.76L1085.93 1467.14L1075.94 1461.81C1048.16 1401.76 1061.97 1361 1040.27 1309.95C1013.79 1247.58 972.35 1173.78 944.041 1111.54C893.971 1001.41 878.287 706.181 894.184 588.977Z" fill="white"/>
<path d="M1552.6 0.0634181C1598.39 -0.965363 1714.4 10.1572 1727.88 60.305C1738.15 98.5587 1760.94 224.442 1744.35 255.624C1699.43 340.104 1683.61 331.167 1743.15 419.954C1812.99 456.344 1884.23 476.853 1959.08 519.157C1985.4 605.437 2045.83 898.866 2041.86 989.581C2040.24 1026.61 1968.87 1243.99 1951.56 1301.4C1934.14 1309.76 1910.3 1318.82 1897.76 1333.8C1870.3 1366.59 1908.57 1699.69 1912.43 1760.83C1888.16 1773.43 1858.61 1784.23 1832.8 1794.39C1820.2 1978.33 1795.91 2166.45 1784.28 2351.09C1782.6 2377.71 1763.77 2436.6 1763.35 2451.2C1762.74 2472.73 1812.49 2493.5 1824.62 2532.4C1818.34 2577.85 1784.14 2573.48 1744.46 2576.05C1720.87 2575.02 1701.35 2575.28 1679.91 2563.45C1628.04 2534.97 1631.47 2539.47 1592.14 2572C1552.52 2574.83 1463.8 2586.27 1455.19 2535.61C1463.77 2510.79 1495.19 2477.04 1513.28 2455.25C1495.01 2389.41 1485.19 2272.21 1477.42 2200.65C1462.53 2065.57 1448.39 1930.37 1435.01 1795.16C1423.53 1791.5 1390.96 1781.72 1385.28 1773.49C1354.87 1729.45 1373.04 1593.93 1374.69 1537.54C1336.82 1514.46 1330.46 1510.03 1300.2 1477.24C1292.44 1410.37 1274.89 1355.21 1267.37 1290.6C1238.43 1041.53 1245.57 763.402 1298.89 517.678C1358.08 480.71 1459.96 456.087 1516.14 409.411C1579.62 356.627 1483.29 253.309 1485.44 215.827C1487.65 177.574 1493.33 118.618 1494.02 70.3989C1517.73 33.174 1519.05 29.5092 1552.6 0.0634181Z" fill="#301E0F"/>
<path d="M1746.89 441.039C1811.22 472.671 1881.9 493.566 1943.95 532.205C1973 646.259 2034.02 897.448 2021.7 1010.41C2016.65 1056.76 1959.96 1209.97 1940.74 1263.08C1844.79 1183.1 1830.88 1186.63 1884.79 1061.65C1893.6 1041.27 1903.76 1006.55 1911.27 984.371C1888.69 932.359 1876.17 880.475 1862.74 825.827C1839.65 932.423 1835.98 1022.75 1837.62 1131.21C1839.27 1240 1808.02 1218.78 1898.28 1287.96L1866.13 1345.11L1894.09 1753.82C1870.09 1762.43 1841.74 1770.34 1817.04 1777.86C1815.13 1850.13 1802.14 1946.76 1795.14 2020.63C1782.89 2157.12 1769.83 2293.55 1755.95 2429.91C1723.4 2432.61 1681.05 2431.07 1647.69 2430.81C1644.75 2360.8 1646.24 2279.02 1645.79 2208.04L1642.76 1807.18C1642.54 1718.84 1647.54 1610.38 1633.33 1525.65L1628.68 1522.5C1617.07 1616.75 1625.95 1796.89 1627.76 1899.44C1630.33 2075.28 1631.11 2251.12 1630.1 2426.89C1591.35 2432.23 1560.09 2431.58 1521.38 2431.52C1506.29 2346.27 1447.36 1853.86 1460.74 1796.96C1461.36 1794.32 1462.07 1791.75 1462.74 1789.11C1442.68 1774.01 1413.53 1769.7 1388.16 1763.53C1384.45 1629.09 1396.67 1412.62 1400.27 1274.46C1405.54 1071.49 1446.77 1059.85 1395.69 838.944C1378.76 969.392 1385.51 1180.33 1378.97 1324.86L1288.35 1331.74C1263.54 1061.59 1254.95 795.418 1315.41 527.513C1370.72 499.482 1433.09 475.823 1492.76 445.541C1496.55 446.955 1500.35 448.305 1504.14 449.719C1508.07 544.036 1567.34 860.61 1623.56 924.13L1633.3 920.851C1688.29 821.906 1735.21 555.35 1746.89 441.039Z" fill="white"/>
<path d="M1751.68 639.125C1787.55 637.775 1835.48 629.803 1865.45 642.532C1880.23 660.277 1875.45 655.519 1876.41 684.579C1838.59 683.936 1789.91 693.58 1757.79 679.95C1745.51 662.591 1749.77 666.449 1751.68 639.125Z" fill="white"/>
<path d="M1558.39 13.3047C1559.31 13.4974 1560.23 13.6906 1561.14 13.8833C1603.88 32.0138 1632.44 24.2982 1680.49 32.1422C1774.24 96.6272 1723.44 274.523 1676.94 355.21C1550.85 401.564 1584.47 336.629 1521.75 266.744C1487.38 228.49 1507.08 131.216 1511.9 83.833C1515.2 51.4299 1537.79 32.0137 1558.39 13.3047Z" fill="white"/>
<path d="M1721.99 437.695C1735.82 512.66 1673.45 794.709 1640.96 855.08L1636.48 845.178L1636.04 841.642C1625.19 745.847 1628.27 604.533 1627.35 502.952L1696 536.576C1703.41 503.787 1710.29 469.006 1721.99 437.695Z" fill="white"/>
<path d="M1541.24 516.839C1541.82 526.997 1541.53 523.461 1546.54 533.233C1566.36 531.69 1593.29 511.182 1611.63 499.609C1620.01 594.119 1615.85 777.544 1618.87 882.661C1573.31 758.513 1546.02 634.944 1523.19 505.203L1541.24 516.839Z" fill="white"/>
<path d="M1648.76 2445.98L1737.52 2446.69C1759 2478.13 1809.71 2516.96 1803.7 2551.74C1698.61 2570.26 1641.83 2565.7 1648.76 2445.98Z" fill="white"/>
<path d="M1566.91 2448.36C1605.64 2445.28 1611.49 2439.04 1632.95 2472.92C1642.33 2532.01 1590.64 2553.74 1542.79 2559.52C1510.86 2558.17 1492.97 2564.67 1480.34 2533.23C1482.99 2492.47 1529.26 2455.63 1566.91 2448.36Z" fill="white"/>
<path d="M1340.64 1345.12C1354.6 1345.05 1358.57 1343.96 1371.26 1350.39C1384.99 1384.91 1381.79 1472.99 1373.49 1509.51L1361.68 1512.47C1314.88 1479.17 1293.97 1425.42 1309.18 1367.62C1313.37 1351.74 1325.93 1351.16 1340.64 1345.12Z" fill="white"/>
<path d="M1549.89 366.656C1630.6 403.688 1663.46 363.763 1698.77 384.015C1698.44 406.067 1699.95 398.031 1682.61 418.668L1621.73 466.116C1580.42 437.056 1550.21 422.14 1549.89 366.656Z" fill="white"/>
<path d="M1711.42 405.875C1713.25 427.992 1698.16 495.562 1683.42 512.278L1674.78 504.628C1656.32 489.647 1654.46 492.926 1647.23 473.96C1654.29 451.008 1690.33 425.356 1711.42 405.875Z" fill="white"/>
<path d="M1860.38 925.672C1876.11 940.459 1883.16 967.783 1891.05 989.257L1866.39 1061.78L1861.28 1067.95L1854.2 1061.26C1848.39 1025.07 1852.07 961.225 1860.38 925.672Z" fill="white"/>
<path d="M1538.29 419.633C1558.34 435.063 1593.14 456.794 1601.49 477.881L1592.03 489.39C1580.52 500.062 1574.65 508.291 1559.4 509.706C1545.13 491.511 1543.06 447.343 1538.29 419.633Z" fill="white"/>
<path d="M1851.1 1218.01C1882.02 1225.92 1926.96 1256.9 1935.6 1288.66C1909.79 1283.33 1858.97 1244.05 1851.1 1218.01Z" fill="white"/>
<path d="M1523.19 505.202C1518.79 479.807 1513.34 465.084 1524.97 443.289C1538.44 461.612 1538.53 492.601 1541.24 516.839L1523.19 505.202Z" fill="white"/>
</svg>
