<svg class="ic_dresscode" width="2043" height="2577" viewBox="0 0 2043 2577" fill="none" xmlns="http://www.w3.org/2000/svg">
    <path d="M615.271 86.4062C660.183 86.4705 665.07 106.53 690.028 109.938C837.157 129.996 872.868 131.089 855.125 295.741C860.546 304.228 877.659 329.623 875.46 337.917C866.508 371.735 846.849 442.777 808.683 453.643C795.493 457.436 785.886 444.706 764.104 460.65C751.288 570.718 857.698 554.645 923.427 584.733C998.383 619.002 977.387 813.485 983.907 887.935C996.878 1035.87 1047.35 1169.53 1089.21 1311.04C1100.29 1348.33 1136.72 1398.61 1153.3 1445.48L1155.75 1452.48C1149.73 1485.66 1145.03 1540.43 1108.11 1547.38C1093.82 1533.23 1101.25 1516.39 1100.43 1487.39C1088.99 1485.14 1085.28 1485.59 1073.8 1485.34C1036.15 1456.73 1044.07 1357.91 1025.24 1319.59C951.754 1169.98 907.4 1077.47 877.69 909.345C861.099 957.949 852.52 998.582 848.849 1049.63C963.316 1256.2 996.5 1368.65 1056.25 1596.43C1122.84 1850.39 1204.2 2124.66 1330.27 2354.44C1361.2 2410.82 1398.59 2440.52 1434.02 2491.06C1419.66 2514.59 1379.4 2507.71 1349.6 2511.63C1304.27 2517.54 1243.79 2543.58 1201.34 2544.42C1119.37 2546.15 1044.76 2501.47 958.796 2507.96C900.045 2512.46 843.409 2539.98 788.06 2562.03C658.634 2593.02 614.512 2529.31 484.887 2509.38C401.603 2496.65 305.881 2550.98 271.09 2546.86C208.236 2539.4 70.8248 2510.02 0.107422 2497.74C-2.69364 2482.25 50.2667 2425.93 64.9805 2403.62C314.034 2025.32 325.108 1550.01 516.313 1151.08C571.972 1034.97 562.93 1030.08 535.824 906.515C502.866 1077.15 463.53 1178.79 385.454 1332.9C362.342 1378.55 388.701 1480 323.493 1488.1C305.764 1502.18 328.573 1519.99 314.908 1548.98L300.748 1553.1C279.456 1542.75 260.382 1489.64 263.971 1467.65C274.048 1405.93 316.027 1348.07 334.394 1290.02C364.644 1194.41 388.791 1095.15 416.09 998.517C436.282 912.494 420.746 755.107 433.646 665.034C450.797 545.259 530.339 588.012 600.428 541.4C641.565 514.012 642.17 460.071 646.64 414.103C598.473 409.216 538.062 398.029 518.262 343.574C499.922 316.701 541.218 265.205 540.609 258.773C532.52 174.229 489.774 125.753 615.271 86.4062ZM535.22 578.945C524.41 615.142 536.557 642.659 532.963 674.354C517.844 807.568 572.184 935.831 578.519 1061.14C537.047 1142.85 492.333 1226.04 464.192 1313.03C345.68 1679.3 269.224 2189.33 17.4727 2490.86C133.895 2489.96 173.927 2526.99 270.472 2528.09C331.037 2528.79 396.483 2481.67 489.479 2492.66C568.332 2501.92 657.129 2557.53 717.365 2553.93C864.212 2545.25 876.694 2474.79 1040.04 2495.17C1239.02 2552.9 1235.56 2502.11 1418.64 2489.7C1173.66 2250.99 1065.05 1638.99 957.354 1316.89C927.207 1226.69 876.976 1135.59 833.891 1049.82C839.035 968.491 865.002 903.041 879.034 825.44C883.368 801.458 875.87 600.804 867.87 587.753C843.607 637.901 844.604 667.025 841.24 721.931C785.736 745.397 755.376 759.541 705.911 797.088C654.047 758.642 633.244 746.49 571.566 728.038C567.689 688.177 567.123 603.569 535.22 578.945ZM894.185 588.977C878.288 706.181 893.972 1001.41 944.042 1111.54C972.35 1173.78 1013.79 1247.58 1040.27 1309.95C1061.97 1360.99 1048.16 1401.76 1075.94 1461.81L1085.8 1467.07L1085.79 1467.13L1078.75 1466.76L1085.67 1468.94L1085.79 1467.13L1085.93 1467.14L1085.8 1467.07L1089.17 1415.77C1105.21 1420.98 1110.36 1439.82 1113.82 1455.5C1114.39 1474.6 1112.57 1499.54 1122.18 1514.78C1134.17 1489.96 1135.14 1452.03 1134.88 1424.58C1120.76 1405.16 1090.12 1362.86 1082.52 1340.81C1034.91 1202.77 980.704 1026.48 966.492 882.405C958.724 803.648 969.804 707.788 948.981 631.28C942.737 608.392 913.959 596.885 894.185 588.977ZM505.696 596.305C493.227 596.948 480.739 598.492 473.125 610.321C440.72 660.662 442.263 782.753 442.501 842.544C443.125 1002.82 395.595 1138.99 352.817 1290.72C336.772 1349.36 255.797 1438.66 284.163 1499.35L294.517 1503.27C304.06 1464.44 302.728 1431.59 331.03 1403.3C329.159 1429.47 327.667 1439.04 333.127 1465.53L340.561 1464.31C356.773 1425.41 356.342 1413.01 358.76 1370.38C375.969 1301.91 414.605 1214.02 451.324 1154.55C507.336 1063.96 557.046 670.305 505.696 596.305ZM689.237 132.441C652.318 102.739 648.119 101.838 600.73 105.567C509.806 165.809 542.649 191.718 565.549 256.718C545.427 293.943 516.063 313.038 545.935 356.049C558.102 376.622 590.095 389.545 613.354 387.166C654.383 382.859 674.666 423.62 665.688 459.495C649.438 524.494 623.007 553.489 563.33 577.92C573.04 628.132 580.905 665.872 584.448 717.112C636.647 734.535 658.807 745.98 703.463 778.447L759.191 743.601L826.952 714.669C831.608 670.822 837.859 622.346 840.862 578.756C796.76 562.619 770.561 552.46 747.803 507.97C734.89 482.768 743.886 447.73 765.738 431.464C781.339 434.164 793.043 435.835 808.805 437.378C827.081 415.261 850.527 368.843 859.55 341.455C861.691 334.962 839.586 303.398 839.673 301.658C846.65 161.951 842.463 126.977 689.237 132.441Z" fill="#301E0F"/>
    <path d="M1751.68 639.125C1787.55 637.775 1835.48 629.803 1865.45 642.532C1880.23 660.277 1875.45 655.519 1876.41 684.579C1838.6 683.936 1789.91 693.58 1757.79 679.95C1745.51 662.591 1749.77 666.449 1751.68 639.125Z" fill="#301E0F"/>
    <path d="M1552.6 0.0634766C1598.39 -0.965304 1714.4 10.157 1727.88 60.3047C1738.15 98.5583 1760.94 224.442 1744.35 255.624C1699.43 340.103 1683.61 331.167 1743.15 419.954C1812.99 456.343 1884.24 476.853 1959.08 519.157C1985.4 605.437 2045.83 898.865 2041.86 989.581C2040.24 1026.61 1968.87 1243.98 1951.56 1301.4C1934.14 1309.76 1910.3 1318.82 1897.76 1333.8C1870.3 1366.59 1908.57 1699.68 1912.43 1760.83C1888.16 1773.43 1858.61 1784.23 1832.8 1794.39C1820.2 1978.33 1795.91 2166.45 1784.28 2351.09C1782.6 2377.71 1763.77 2436.6 1763.35 2451.2C1762.74 2472.73 1812.49 2493.5 1824.62 2532.4C1818.34 2577.85 1784.14 2573.48 1744.46 2576.05C1720.87 2575.02 1701.35 2575.28 1679.91 2563.45C1628.04 2534.97 1631.47 2539.47 1592.14 2572C1552.52 2574.83 1463.8 2586.27 1455.19 2535.61C1463.77 2510.79 1495.19 2477.04 1513.28 2455.25C1495.01 2389.41 1485.19 2272.21 1477.42 2200.65C1462.53 2065.57 1448.4 1930.37 1435.01 1795.16C1423.53 1791.5 1390.96 1781.72 1385.28 1773.49C1354.87 1729.45 1373.04 1593.93 1374.69 1537.54C1336.82 1514.46 1330.46 1510.03 1300.21 1477.24C1292.44 1410.37 1274.89 1355.21 1267.37 1290.6C1238.43 1041.53 1245.58 763.402 1298.89 517.678C1358.08 480.71 1459.96 456.086 1516.14 409.41C1579.62 356.626 1483.29 253.309 1485.44 215.827C1487.65 177.573 1493.33 118.618 1494.02 70.3984C1517.73 33.1739 1519.05 29.509 1552.6 0.0634766ZM1648.77 2445.98C1641.83 2565.7 1698.61 2570.26 1803.7 2551.75C1809.71 2516.96 1759 2478.13 1737.52 2446.69L1648.77 2445.98ZM1632.95 2472.92C1611.49 2439.04 1605.64 2445.28 1566.91 2448.36C1529.26 2455.63 1482.99 2492.47 1480.34 2533.23C1492.97 2564.67 1510.86 2558.17 1542.79 2559.52C1590.64 2553.74 1642.33 2532.01 1632.95 2472.92ZM1746.89 441.039C1735.21 555.35 1688.29 821.905 1633.31 920.851L1623.56 924.13C1567.34 860.61 1508.07 544.035 1504.14 449.719C1500.35 448.305 1496.56 446.956 1492.76 445.541C1433.09 475.823 1370.72 499.482 1315.41 527.513C1254.95 795.417 1263.54 1061.59 1288.35 1331.74L1378.97 1324.86C1385.51 1180.33 1378.76 969.392 1395.7 838.943C1446.77 1059.85 1405.54 1071.49 1400.27 1274.46C1396.67 1412.62 1384.45 1629.09 1388.17 1763.53C1413.53 1769.7 1442.68 1774.01 1462.74 1789.12C1462.07 1791.75 1461.36 1794.32 1460.74 1796.96C1447.36 1853.86 1506.29 2346.27 1521.38 2431.52C1560.09 2431.58 1591.35 2432.23 1630.1 2426.89C1631.11 2251.12 1630.33 2075.28 1627.76 1899.44C1625.95 1796.89 1617.07 1616.75 1628.68 1522.5L1633.33 1525.65C1647.54 1610.38 1642.54 1718.84 1642.76 1807.18L1645.79 2208.04C1646.24 2279.02 1644.75 2360.8 1647.69 2430.81C1681.05 2431.07 1723.4 2432.61 1755.95 2429.91C1769.83 2293.55 1782.89 2157.12 1795.14 2020.63C1802.15 1946.76 1815.13 1850.13 1817.04 1777.86C1841.74 1770.34 1870.09 1762.43 1894.09 1753.82L1866.13 1345.11L1898.29 1287.96C1808.02 1218.78 1839.27 1240 1837.62 1131.21C1835.98 1022.75 1839.65 932.423 1862.74 825.827C1876.17 880.475 1888.69 932.359 1911.27 984.371C1903.76 1006.55 1893.6 1041.27 1884.79 1061.65C1830.89 1186.63 1844.79 1183.1 1940.74 1263.08C1959.96 1209.97 2016.65 1056.76 2021.7 1010.41C2034.02 897.448 1973.01 646.259 1943.95 532.205C1881.9 493.566 1811.22 472.671 1746.89 441.039ZM1371.26 1350.39C1358.57 1343.96 1354.6 1345.05 1340.64 1345.12C1325.93 1351.16 1313.38 1351.74 1309.18 1367.62C1293.97 1425.42 1314.88 1479.17 1361.68 1512.47L1373.49 1509.51C1381.79 1472.99 1384.99 1384.91 1371.26 1350.39ZM1851.1 1218.01C1858.97 1244.05 1909.79 1283.33 1935.6 1288.67C1926.96 1256.91 1882.02 1225.92 1851.1 1218.01ZM1860.38 925.672C1852.07 961.225 1848.39 1025.07 1854.2 1061.26L1861.28 1067.95L1866.39 1061.78L1891.05 989.257C1883.16 967.783 1876.11 940.459 1860.38 925.672ZM1611.63 499.609C1593.29 511.182 1566.36 531.69 1546.54 533.233C1541.53 523.461 1541.82 526.997 1541.24 516.839L1523.19 505.203C1546.02 634.944 1573.31 758.514 1618.88 882.661C1615.85 777.544 1620.01 594.119 1611.63 499.609ZM1721.99 437.695C1710.3 469.006 1703.41 503.787 1696 536.576L1627.35 502.951C1628.27 604.533 1625.19 745.846 1636.04 841.642L1636.48 845.178L1640.96 855.079C1673.45 794.708 1735.83 512.66 1721.99 437.695ZM1524.97 443.289C1513.34 465.084 1518.79 479.807 1523.19 505.202L1541.24 516.839C1538.53 492.601 1538.44 461.612 1524.97 443.289ZM1711.42 405.875C1690.33 425.356 1654.29 451.008 1647.23 473.96C1654.46 492.926 1656.32 489.648 1674.78 504.628L1683.42 512.278C1698.16 495.562 1713.25 427.992 1711.42 405.875ZM1538.29 419.633C1543.06 447.343 1545.13 491.511 1559.4 509.706C1574.65 508.291 1580.52 500.062 1592.03 489.39L1601.49 477.881C1593.14 456.793 1558.34 435.063 1538.29 419.633ZM1549.89 366.656C1550.21 422.14 1580.42 437.056 1621.73 466.116L1682.61 418.668C1699.95 398.031 1698.44 406.067 1698.77 384.015C1663.46 363.763 1630.6 403.688 1549.89 366.656ZM1558.39 13.3047C1537.79 32.0137 1515.2 51.4299 1511.9 83.833C1507.08 131.216 1487.39 228.489 1521.75 266.743C1584.47 336.628 1550.85 401.563 1676.94 355.209C1723.44 274.522 1774.24 96.6276 1680.5 32.1426C1632.44 24.2986 1603.89 32.0132 1561.14 13.8828C1560.23 13.6901 1559.31 13.4974 1558.39 13.3047Z" fill="#301E0F"/>
</svg>
