<svg class="ic_dance" width="1693" height="2706" viewBox="0 0 1693 2706" fill="none" xmlns="http://www.w3.org/2000/svg">
    <path d="M1221.71 0.938477C1452.13 -15.1086 1405.89 178.069 1373.73 325.741C1386.4 353.128 1400.11 374.951 1414.42 392.593C1374.99 413.757 1285.72 472.518 1273.16 504.846L1280.23 513.25C1303.19 513.958 1298.69 495.139 1327.82 488.054L1333.41 496.7C1336.37 534.542 1338.82 554.209 1317.47 586.722L1317.14 631.038C1353.07 562.283 1380.46 474.963 1417.95 396.848C1512.14 507.745 1630.88 444.808 1655.59 593.788C1672.51 695.659 1729.48 994.308 1657.52 1063.68C1619.45 1080.78 1588.01 1063.1 1548.27 1048.96C1563.12 1187.96 1586.72 1303.74 1613.92 1440.81L1556.3 1459.91C1562.61 1586.76 1567.04 1690.14 1582.09 1841.23C1609.1 2105.34 1676.3 2367.97 1681.13 2633.24C1681.58 2658.12 1597.65 2653.62 1588.46 2654.91C1533.41 2662.56 1349.23 2742.92 1329.68 2661.14C1345.57 2612.47 1416.31 2606.11 1477.01 2552.23C1439.97 2308.24 1394.64 2065.6 1341.07 1824.7C1330.97 1978.94 1338.62 2156.51 1334.76 2311.84C1333.28 2369.96 1338.04 2478.23 1330.33 2532.11L1309.36 2545.67C1307.05 2570.49 1330.97 2570.3 1332.19 2603.08C1301.32 2642.17 1254.7 2619.67 1210.71 2629.96C1166.15 2640.44 1135.09 2677.79 1083.71 2683C1015.03 2690.01 957.856 2652.98 890.912 2659.41C847.311 2663.65 773.423 2709.68 732.266 2705.37C560.5 2687.57 586.866 2623.98 408.154 2690.91C285.52 2714.25 278.124 2667.96 167.823 2638.77C114.981 2624.82 38.2119 2670.53 0 2619.42C7.11894 2594.21 82.7062 2523.43 104.751 2485.69C347.513 2069.85 378.187 1592.99 588.73 1159.6C565.065 1044.45 522.622 944.03 501.144 837.755C399.473 891.567 293.881 792.295 412.142 676.312C348.091 556.009 345.841 513.795 468.797 442.199C447.704 384.838 433.878 338.991 457.607 278.139C473.427 237.558 516.127 205.508 555.869 190.206C604.164 171.632 688.215 175.844 734.967 198.475C740.369 201.091 755.737 211.313 757.217 215.788C779.853 283.063 808.985 366.366 832.007 432.343C822.618 463.82 804.162 535.346 787.699 559.436C751.751 583.159 731.302 544.713 696.64 581.358C670.081 655.076 717.732 687.57 766.22 731.726C837.858 797.046 917.214 852.607 995.67 909.312C1024.99 787.319 1028.92 679.064 1078.76 554.877C1151.17 498.815 1161.07 511.537 1245.5 430.202C1212.45 436.445 1179.27 441.928 1146.02 446.641C1133.61 420.795 1125.76 389.402 1117.73 361.5L1065.83 331.115C1096.63 257.61 1085.7 228.633 1077.66 148.062C1057.15 131.893 1019.79 95.2469 1023.26 68.6045C1040.62 61.0761 1202.16 6.68686 1221.71 0.938477ZM695.161 904.938C689.759 956.823 676.447 1125.46 642.621 1160.5C633.683 1164.48 622.429 1169.5 608.988 1175.48C574.906 1221.12 533.105 1321.29 515.228 1370.67C476 1479.19 445.904 1590.87 415.744 1700.55C362.498 1894.39 307.707 2083.6 234.461 2270.82C200.172 2358.45 157.67 2439.97 106.597 2519.25C83.5746 2554.99 28.6437 2597.87 22.0137 2619.16C35.113 2628.93 53.1575 2632.34 64.9385 2627.9C161.123 2591.57 266.357 2676.57 319.218 2677.66C498.572 2681.26 469.955 2600.51 664.55 2678.82C778.889 2707.04 799.339 2650.21 905.511 2641.98C950.462 2638.57 1037.99 2678.56 1080.24 2663.71C1185.25 2626.87 1209.43 2609.32 1321.97 2606.75C1056.18 2235.46 1038.63 1590.68 829.113 1178.56C819.724 1160.11 819.339 1100.51 823.068 1078.72C827.699 1051.85 835.866 1025.74 847.377 1001.05C796.253 969.68 745.514 937.599 695.161 904.938ZM1647.75 2536.6C1596.95 2539.04 1550.64 2541.42 1499.71 2540.33L1496.18 2546.25C1452.13 2619.54 1370.84 2616.71 1357.34 2662.04C1382.54 2681.45 1450 2672.19 1480.29 2668.01C1491.16 2666.54 1501.84 2664.48 1512.45 2661.91C1545.82 2644.87 1557.98 2635.61 1594.95 2636.51C1615.92 2637.03 1640.74 2637.93 1658.42 2627.12C1668.59 2601.79 1655.27 2563.54 1647.75 2536.6ZM1525.57 1468.01C1378.56 1491.99 1267.24 1496.36 1120.23 1468.14L1141.84 1932.39C1144.67 1995.33 1147.56 2119.03 1155.92 2178.18C1166.79 2254.56 1239.2 2459.13 1291.23 2514.3L1302.74 2516.48C1321.52 2482.86 1316.69 2172.65 1317.34 2112.41C1318.95 1955.6 1330.26 1774.62 1295.34 1621.41C1289.56 1593.51 1286.92 1600.71 1295.41 1577.63C1328.01 1607.33 1478.56 2423.19 1492 2522.59C1548.72 2522.33 1607.04 2522.91 1662.67 2510.44C1610.32 2179.53 1551.1 1851.12 1539.13 1516.23C1538.23 1491.09 1541.06 1479.39 1525.57 1468.01ZM1090.07 1040.59C1008.15 1094.92 942.101 1134.07 856.314 1181.59C878.887 1243.43 910.526 1310.17 928.982 1371.25C983.451 1551.59 1033.93 1735.91 1081.78 1917.92C1097.79 1973.6 1112.71 2029.53 1126.47 2085.79C1127.5 1957.91 1116.57 1819.11 1111.23 1689.94C1108.92 1633.3 1106.02 1515.26 1098.18 1464.73C1087.5 1455.73 1083.45 1452.51 1071.75 1444.93C1067.05 1329.78 1112.13 1169.37 1099.08 1047.54L1090.07 1040.59ZM1316.05 879.868C1245.57 929.501 1188.53 978.942 1114.83 1026.07C1121.39 1153.43 1103.71 1312.87 1086.02 1440.49C1191.23 1468.53 1282.55 1467.37 1390.52 1465.38C1466.21 1459.59 1521.26 1452.07 1594.7 1430.14C1573.6 1326.76 1531.67 1145.26 1530.64 1044C1453.22 996.493 1434.44 986.978 1369.49 923.265C1362.8 892.983 1342.42 889.319 1316.05 879.868ZM870.849 1018.35C850.721 1049.6 828.149 1091.84 832.586 1130.35C861.717 1168.02 900.044 1136.91 934.191 1118.46L1010.01 1070.88C937.343 1052.62 933.613 1042.98 870.849 1018.35ZM844.805 820.17C763.005 761.452 699.276 656.804 592.461 660.932C454.135 777.545 553.169 908.604 579.985 1055.51C585.066 1083.29 598.442 1126.3 620.499 1143.72C664.871 1123.15 670.788 948.144 674.003 899.153C651.753 881.73 629.052 864.821 608.603 845.405C739.726 892.467 852.135 1005.94 1004.03 1051.97C1095.67 1034.94 1229.36 926.027 1301.9 864.821C1286.28 847.334 1275.02 829.589 1253.42 825.532C1167.89 862.185 1095.6 906.546 1006.35 936.956C951.748 898.509 898.887 859.034 844.805 820.17ZM1420.42 432.969C1390.84 503.098 1353.61 585.649 1328.98 656.519C1350.07 664.607 1400.36 621.73 1431.55 685.829C1448.14 719.911 1441.96 767.049 1476.05 795.196C1495.21 810.961 1584.28 855.561 1579.97 874.334C1548.52 864.754 1532.45 855.24 1503.57 839.745C1483.06 875.556 1452.96 916.446 1443.19 953.092C1449.55 973.472 1449.3 968.008 1470.39 983.823C1514.44 1012.18 1607.11 1075.25 1656.88 1038.73C1701.19 960.485 1653.41 680.456 1635.08 585.946C1630.26 561.117 1618.75 530.031 1594.5 518.536C1528.91 487.438 1483.19 474.128 1420.42 432.969ZM1475.34 813.618C1451.8 844.183 1410.71 892.208 1393.22 922.489C1395.54 937.855 1397.53 937.92 1408.14 948.978C1440.29 931.426 1480.29 864.113 1483.57 826.527L1475.34 813.618ZM1176.44 513.587C1126.34 540.274 1090.97 551.783 1076.18 611.015C1063.96 659.96 1013.35 868.356 1021.39 906.031C1033.1 909.696 1027.76 910.338 1038.05 907.51C1091.1 884.75 1141.65 863.599 1193.03 837.175C1168.34 751.223 1172.45 664.736 1177.21 576.335C1178.37 554.656 1186.6 525.712 1176.44 513.587ZM1453.41 805.735C1437.53 770.709 1411.23 692.724 1362.03 704.226L1354.44 718.562C1305.44 714.12 1306.08 742.762 1295.21 788.011L1276.18 791.045C1270.01 829.974 1328.14 863.02 1358.75 878.707C1421.39 889.122 1425.25 858.712 1453.41 805.735ZM710.529 208.826C676.446 196.013 624.807 197.093 588.795 200.243C453.62 245.846 440.823 327.523 491.497 449.067C331.114 544.271 399.28 534.163 416.9 668.289C421.08 699.991 356.066 762.188 390.213 823.471C423.203 844.892 462.624 834.799 496.063 818.18C501.272 781.025 501.401 742.617 510.34 707.932C532.14 622.989 567.766 568.72 568.859 479.419L582.75 463.012C576.641 442.831 572.46 439.474 559.277 422.321C555.419 400.597 557.027 399.446 567.509 378.737C599.662 357.161 623.392 375.683 631.816 370.7C673.038 346.436 745.963 255.708 710.529 208.826ZM1238.62 465.008C1170.52 504.895 1194.64 760.289 1205.7 834.218C1217.98 737.092 1223.19 664.828 1248.91 569.387L1254.32 565.921L1253.67 558.187H1253.99C1260.1 613.825 1217.66 777.068 1237.47 811.034C1240.75 808.668 1311.48 648.427 1317.14 631.036L1317.47 586.72C1290.07 575.398 1282.87 563.176 1264.86 540.59C1243.19 542.596 1234.12 553.288 1216.82 567.265L1206.21 565.374L1202.03 554.701C1223.58 526.818 1234.64 521.688 1269.43 517.471C1248.4 493.516 1241.33 492.756 1238.62 465.008ZM741.333 241.422C716.317 299.96 701.269 345.665 650.401 384.723C609.952 396.257 609.63 376.184 578.698 394.103C570.724 415.788 571.238 406.615 576.383 428.802C592.974 445.698 599.469 450.017 619.212 463.268C609.63 486.4 598.697 478.995 590.98 516.11C580.691 565.776 560.242 614.547 546.287 663.486L549.566 671.651L563.071 664.387L569.695 660.51C685.32 593.267 642.941 720.243 688.278 540.721C715.802 544.456 753.423 552.627 778.374 544.456C814.193 497.317 766.156 487.808 813.679 438.67C811.878 418.52 758.824 258.973 741.333 241.422ZM1149.04 135.304C1117.92 141.842 1119.2 136.642 1099.4 155.878C1083.32 195.939 1114.38 251.918 1096.18 295.765C1095.99 296.363 1090.65 321.752 1090.01 324.844C1106.92 344.317 1119.14 337.194 1122.35 341.971C1137.85 364.91 1148.4 409.394 1160.68 434.384L1245.7 407.922C1251.61 436.249 1246.28 451.659 1259.52 471.558C1278.49 469.481 1290.78 456.886 1306.6 444.87C1331.74 426.81 1362.42 405.908 1385.57 386.325C1357.34 340.157 1337.79 330.198 1310.97 291.681C1301.58 278.16 1317.85 229.273 1301.07 204.951C1280.94 205.44 1273.35 213.734 1258.3 229.697C1255.34 232.796 1252.51 235.928 1249.68 239.104L1244.09 233.188C1210.71 197.107 1195.6 154.095 1173.87 134.969L1149.04 135.304ZM1352.45 305.895C1405.44 175.973 1411.29 5.71563 1221.52 19.2168C1202.61 26.3722 1055.6 76.5662 1050.85 82.7959C1053.74 102.006 1054.96 103.884 1069.04 117.372C1107.57 134.487 1150.46 119.808 1192.13 110.897C1202.55 136.724 1217.66 177.729 1231.61 199.961C1272.71 213.404 1265.63 194.394 1301.45 185.663C1349.49 231.156 1314.7 276.333 1352.45 305.895Z" fill="#301E0F"/>
</svg>
