<svg width="1693" height="2706" viewBox="0 0 1693 2706" fill="none" xmlns="http://www.w3.org/2000/svg">
<path d="M1221.71 0.937974C1452.13 -15.1091 1405.89 178.068 1373.73 325.741C1470.26 534.388 1626.79 420.148 1655.6 593.787C1672.51 695.658 1729.48 994.307 1657.52 1063.68C1619.45 1080.78 1588.01 1063.1 1548.27 1048.96C1563.12 1187.95 1586.72 1303.74 1613.92 1440.81L1556.3 1459.91C1562.61 1586.76 1567.04 1690.14 1582.09 1841.23C1609.1 2105.34 1676.3 2367.97 1681.13 2633.24C1681.58 2658.12 1597.65 2653.62 1588.46 2654.91C1533.41 2662.56 1349.23 2742.92 1329.68 2661.14C1345.57 2612.47 1416.31 2606.11 1477.01 2552.23C1439.97 2308.24 1394.63 2065.6 1341.07 1824.7C1330.97 1978.94 1338.62 2156.51 1334.76 2311.84C1333.28 2369.96 1338.04 2478.23 1330.33 2532.11L1309.36 2545.67C1307.05 2570.49 1330.97 2570.3 1332.19 2603.08C1301.32 2642.17 1254.7 2619.67 1210.71 2629.96C1166.15 2640.44 1135.09 2677.79 1083.71 2683C1015.03 2690.01 957.856 2652.98 890.912 2659.4C847.311 2663.65 773.423 2709.68 732.266 2705.37C560.5 2687.56 586.866 2623.98 408.154 2690.91C285.52 2714.25 278.124 2667.96 167.824 2638.77C114.982 2624.82 38.212 2670.53 0 2619.41C7.11896 2594.21 82.7064 2523.43 104.751 2485.69C347.513 2069.85 378.187 1592.99 588.73 1159.6C565.065 1044.45 522.622 944.03 501.144 837.755C399.474 891.567 293.88 792.294 412.142 676.312C348.091 556.008 345.841 513.795 468.797 442.199C447.704 384.838 433.878 338.991 457.607 278.139C473.427 237.557 516.127 205.508 555.869 190.206C604.164 171.632 688.215 175.843 734.967 198.474C740.369 201.091 755.738 211.313 757.217 215.788C779.853 283.063 808.985 366.366 832.007 432.342C822.618 463.82 804.161 535.345 787.699 559.435C751.751 583.159 731.301 544.712 696.639 581.358C670.08 655.076 717.732 687.569 766.22 731.725C837.858 797.045 917.214 852.606 995.67 909.312C1024.99 787.318 1028.92 679.063 1078.76 554.876C1151.17 498.814 1161.07 511.537 1245.51 430.201C1212.45 436.444 1179.27 441.928 1146.02 446.641C1133.61 420.795 1125.76 389.402 1117.73 361.499L1065.83 331.115C1096.63 257.609 1085.7 228.633 1077.66 148.062C1057.15 131.893 1019.79 95.2468 1023.26 68.6043C1040.62 61.0758 1202.16 6.68581 1221.71 0.937974Z" fill="#301E0F"/>
<path d="M695.161 904.938C745.514 937.598 796.252 969.68 847.377 1001.05C835.866 1025.74 827.699 1051.84 823.068 1078.72C819.339 1100.51 819.724 1160.11 829.113 1178.56C1038.63 1590.68 1056.18 2235.46 1321.97 2606.75C1209.43 2609.32 1185.25 2626.87 1080.24 2663.71C1037.98 2678.56 950.462 2638.57 905.511 2641.98C799.339 2650.21 778.889 2707.04 664.55 2678.82C469.955 2600.51 498.572 2681.26 319.217 2677.66C266.356 2676.57 161.124 2591.57 64.9386 2627.9C53.1577 2632.33 35.1131 2628.93 22.0137 2619.15C28.6437 2597.87 83.5751 2554.99 106.597 2519.25C157.67 2439.97 200.171 2358.45 234.461 2270.82C307.707 2083.6 362.497 1894.39 415.744 1700.55C445.904 1590.87 476 1479.19 515.228 1370.67C533.105 1321.29 574.905 1221.12 608.988 1175.48C622.429 1169.5 633.682 1164.48 642.621 1160.5C676.447 1125.46 689.759 956.821 695.161 904.938Z" fill="white"/>
<path d="M1525.57 1468.01C1541.06 1479.39 1538.23 1491.09 1539.13 1516.23C1551.1 1851.12 1610.32 2179.53 1662.67 2510.44C1607.04 2522.91 1548.72 2522.33 1492 2522.59C1478.56 2423.19 1328.01 1607.33 1295.41 1577.63C1286.92 1600.71 1289.56 1593.51 1295.34 1621.41C1330.26 1774.62 1318.95 1955.6 1317.34 2112.41C1316.69 2172.65 1321.52 2482.86 1302.74 2516.48L1291.23 2514.3C1239.2 2459.13 1166.79 2254.56 1155.93 2178.18C1147.56 2119.03 1144.67 1995.33 1141.84 1932.39L1120.23 1468.14C1267.24 1496.36 1378.56 1491.99 1525.57 1468.01Z" fill="white"/>
<path d="M1316.05 879.867C1342.42 889.318 1362.8 892.983 1369.49 923.264C1434.44 986.978 1453.22 996.493 1530.64 1044C1531.67 1145.26 1573.6 1326.76 1594.7 1430.14C1521.26 1452.07 1466.21 1459.59 1390.52 1465.37C1282.55 1467.37 1191.23 1468.52 1086.02 1440.49C1103.71 1312.87 1121.39 1153.43 1114.83 1026.07C1188.53 978.942 1245.57 929.5 1316.05 879.867Z" fill="white"/>
<path d="M592.461 660.931C699.276 656.804 763.005 761.451 844.804 820.17C898.887 859.034 951.748 898.509 1006.35 936.956C1095.6 906.546 1167.89 862.185 1253.42 825.532C1275.02 829.589 1286.28 847.333 1301.9 864.82C1229.36 926.026 1095.67 1034.94 1004.03 1051.97C852.135 1005.94 739.725 892.466 608.602 845.405C629.052 864.821 651.753 881.73 674.003 899.153C670.788 948.143 664.871 1123.15 620.499 1143.72C598.442 1126.3 585.065 1083.29 579.985 1055.51C553.169 908.604 454.135 777.544 592.461 660.931Z" fill="white"/>
<path d="M1420.42 432.969C1483.19 474.128 1528.91 487.438 1594.5 518.535C1618.75 530.031 1630.26 561.116 1635.08 585.946C1653.41 680.455 1701.19 960.484 1656.88 1038.73C1607.11 1075.25 1514.44 1012.18 1470.39 983.823C1449.3 968.007 1449.55 973.472 1443.19 953.091C1452.96 916.445 1483.06 875.555 1503.57 839.744C1532.45 855.239 1548.52 864.753 1579.97 874.333C1584.28 855.56 1495.21 810.96 1476.05 795.196C1441.96 767.049 1448.14 719.91 1431.55 685.828C1400.36 621.729 1350.07 664.606 1328.98 656.518C1353.61 585.649 1390.84 503.098 1420.42 432.969Z" fill="white"/>
<path d="M1090.07 1040.59L1099.08 1047.54C1112.13 1169.37 1067.05 1329.78 1071.75 1444.93C1083.45 1452.51 1087.5 1455.73 1098.18 1464.73C1106.02 1515.26 1108.92 1633.3 1111.23 1689.94C1116.57 1819.11 1127.5 1957.91 1126.47 2085.79C1112.71 2029.53 1097.79 1973.6 1081.78 1917.92C1033.93 1735.91 983.451 1551.59 928.982 1371.25C910.526 1310.17 878.887 1243.43 856.314 1181.59C942.101 1134.07 1008.14 1094.92 1090.07 1040.59Z" fill="white"/>
<path d="M588.794 200.243C624.807 197.093 676.446 196.012 710.529 208.826C745.963 255.708 673.038 346.436 631.817 370.7C623.392 375.683 599.662 357.16 567.508 378.737C557.026 399.446 555.419 400.596 559.277 422.32C572.46 439.474 576.64 442.83 582.75 463.011L568.859 479.418C567.766 568.72 532.14 622.989 510.339 707.932C501.401 742.617 501.272 781.025 496.063 818.179C462.624 834.798 423.203 844.892 390.213 823.47C356.065 762.187 421.081 699.991 416.9 668.289C399.28 534.163 331.114 544.27 491.497 449.067C440.823 327.522 453.62 245.846 588.794 200.243Z" fill="white"/>
<path d="M1149.04 135.304L1173.87 134.969C1195.6 154.096 1210.71 197.107 1244.09 233.188L1249.69 239.103C1252.51 235.927 1255.34 232.796 1258.3 229.697C1273.35 213.733 1280.94 205.439 1301.07 204.951C1317.85 229.272 1301.58 278.16 1310.97 291.68C1337.79 330.198 1357.34 340.157 1385.57 386.325C1362.42 405.908 1331.74 426.81 1306.6 444.87C1290.78 456.886 1278.49 469.48 1259.52 471.557C1246.28 451.658 1251.61 436.248 1245.7 407.921L1160.68 434.383C1148.4 409.393 1137.85 364.91 1122.35 341.97C1119.14 337.193 1106.92 344.317 1090.01 324.843C1090.65 321.751 1095.99 296.349 1096.18 295.764C1114.38 251.917 1083.32 195.938 1099.4 155.877C1119.2 136.641 1117.92 141.842 1149.04 135.304Z" fill="white"/>
<path d="M741.333 241.422C758.824 258.973 811.878 418.521 813.679 438.67C766.156 487.808 814.193 497.317 778.374 544.455C753.422 552.627 715.803 544.456 688.279 540.721C642.942 720.243 685.321 593.266 569.695 660.509L563.071 664.386L549.567 671.651L546.287 663.486C560.242 614.547 580.691 565.775 590.981 516.109C598.697 478.994 609.63 486.4 619.212 463.267C599.469 450.017 592.974 445.697 576.383 428.801C571.238 406.614 570.724 415.788 578.698 394.102C609.63 376.184 609.952 396.256 650.401 384.722C701.268 345.665 716.317 299.96 741.333 241.422Z" fill="white"/>
<path d="M1221.52 19.2164C1411.29 5.715 1405.44 175.973 1352.45 305.894C1314.7 276.333 1349.49 231.155 1301.45 185.662C1265.63 194.393 1272.71 213.404 1231.61 199.961C1217.66 177.729 1202.55 136.723 1192.13 110.897C1150.46 119.808 1107.57 134.486 1069.05 117.372C1054.96 103.883 1053.74 102.005 1050.85 82.7952C1055.6 76.5654 1202.61 26.3718 1221.52 19.2164Z" fill="white"/>
<path d="M1176.44 513.586C1186.6 525.711 1178.37 554.655 1177.21 576.335C1172.45 664.736 1168.34 751.222 1193.03 837.174C1141.65 863.598 1091.1 884.75 1038.05 907.51C1027.76 910.338 1033.1 909.695 1021.39 906.031C1013.35 868.356 1063.96 659.96 1076.18 611.014C1090.97 551.782 1126.34 540.273 1176.44 513.586Z" fill="white"/>
<path d="M1499.71 2540.33C1550.64 2541.42 1596.95 2539.04 1647.75 2536.6C1655.27 2563.54 1668.59 2601.79 1658.42 2627.12C1640.74 2637.93 1615.92 2637.03 1594.95 2636.51C1557.98 2635.61 1545.82 2644.87 1512.45 2661.91C1501.84 2664.48 1491.16 2666.54 1480.29 2668.01C1450 2672.19 1382.54 2681.45 1357.34 2662.04C1370.84 2616.71 1452.13 2619.54 1496.18 2546.25L1499.71 2540.33Z" fill="white"/>
<path d="M1205.7 834.217C1194.64 760.288 1170.52 504.895 1238.62 465.008C1241.32 492.756 1248.4 493.515 1269.43 517.47C1234.64 521.687 1223.58 526.818 1202.03 554.701L1206.21 565.374L1216.82 567.264C1234.12 553.287 1243.19 542.595 1264.86 540.589C1282.87 563.175 1290.07 575.397 1317.47 586.719L1317.14 631.036C1311.48 648.427 1240.75 808.675 1237.47 811.034C1217.66 777.068 1260.1 613.825 1253.99 558.186H1253.67L1254.32 565.921L1248.91 569.386C1223.19 664.827 1217.98 737.091 1205.7 834.217Z" fill="white"/>
<path d="M1362.03 704.225C1411.23 692.723 1437.53 770.709 1453.41 805.735C1425.25 858.712 1421.39 889.122 1358.75 878.707C1328.14 863.019 1270.01 829.973 1276.18 791.044L1295.21 788.01C1306.08 742.761 1305.44 714.119 1354.44 718.562L1362.03 704.225Z" fill="white"/>
<path d="M870.849 1018.35C933.613 1042.98 937.343 1052.62 1010.01 1070.88L934.192 1118.45C900.045 1136.91 861.717 1168.02 832.586 1130.35C828.148 1091.84 850.721 1049.6 870.849 1018.35Z" fill="white"/>
<path d="M1317.47 586.722C1338.82 554.209 1336.37 534.542 1333.41 496.7L1327.82 488.053C1298.69 495.138 1303.19 513.957 1280.23 513.249L1273.16 504.846C1286.6 470.263 1387.82 405.431 1421.9 388.734C1382.35 468.868 1354.31 559.892 1317.14 631.038L1317.47 586.722Z" fill="white"/>
<path d="M1475.34 813.617L1483.57 826.526C1480.29 864.112 1440.29 931.426 1408.14 948.977C1397.53 937.919 1395.54 937.854 1393.22 922.488C1410.71 892.207 1451.8 844.182 1475.34 813.617Z" fill="white"/>
</svg>
