<svg width="2196" height="2091" viewBox="0 0 2196 2091" fill="none" xmlns="http://www.w3.org/2000/svg">
<path d="M1045.34 493.719L1057.71 499.203C1071.65 531.092 1046.41 582.911 1057.26 621.808C1081.22 707.895 1138.07 735.605 1154.96 824.392C1296.58 757.657 1375.9 771.158 1450.09 916.844C1546.67 948.604 1513.69 1010.07 1528.17 1018.43C1622.98 1072.82 1560.94 1091.46 1583.4 1144.63C1613.81 1216.57 1622.44 1190.92 1626.49 1285.17C1692.92 1295.33 1918.79 1305.3 1944.37 1364.19C1928.47 1426.42 1623.63 1582.2 1553.91 1591.65C1342.67 1620.33 1122.32 1623.28 909.135 1622.77C620.162 1620.97 330.289 1635.63 106.581 1450.15C72.9099 1422.24 -11.2563 1409.45 1.25807 1353.58C49.2961 1301.05 251.075 1294.37 329.073 1287.81C328.302 1272.57 325.234 1218.31 329.414 1209.69C354.417 1158.32 381.336 1145.85 370.712 1082.07C366.204 1055.01 399.258 1039.71 420.583 1016.37C409.098 897.748 483 934.137 497.636 910.542C587.281 766.014 673.337 715.48 827.837 809.475C863.155 685.006 947.92 577.189 1045.34 493.719Z" fill="#301E0F"/>
<path d="M146.762 1447.58C247.692 1450.47 405.845 1476.7 525.862 1483C950.666 1508.65 1376.93 1495.67 1799.39 1444.23C1779.99 1459.92 1753.61 1477.09 1732.6 1491.49C1435.13 1655.43 690.914 1598.66 346.482 1553.53C298.753 1547.29 191.385 1478.76 146.762 1447.58Z" fill="white"/>
<path d="M568.42 1249.36C699.042 1245.5 692.348 1316.74 813.877 1321.56C898.872 1324.97 966.01 1255.21 1049.91 1255.6C1143.8 1257.4 1205.25 1330.37 1303.55 1318.8C1383.27 1309.47 1512.9 1202.49 1585.87 1266.27C1599.23 1289.8 1595.49 1312.88 1595.02 1340.91C1561.07 1345.99 1524.22 1349.4 1489.91 1353.26C1312.51 1369.71 496.782 1404.69 366.662 1332.75C355.254 1316.09 355.106 1313.59 355.556 1293.34C372.051 1267.3 426.558 1304.78 463.169 1289.41C496.127 1275.59 534.536 1261.06 568.42 1249.36Z" fill="white"/>
<path d="M394.031 1150.55C762.366 1200.82 1148.48 1192.98 1517.18 1162.57C1560.42 1159.03 1597.3 1184.11 1592.13 1231.62C1525.29 1231.55 1528.64 1215.67 1449.24 1238.05L1441.22 1240.36C1192.39 1367.02 1253.55 1237.73 1031.92 1235.09C976.722 1234.38 880.666 1307.16 808.442 1299.32C721.369 1289.74 676.09 1215.55 581.802 1225.32C528.71 1230.85 387.22 1315.33 354.333 1228.34C347.812 1211.11 382.173 1165.46 394.031 1150.55Z" fill="white"/>
<path d="M1516.62 1043.62C1563.33 1054.75 1566.14 1114.54 1544.2 1131.06C1521.07 1148.49 1398.74 1150.22 1370.34 1151.89C1153.3 1164.69 937.991 1165.33 721.023 1154.27C624.298 1149.32 526.833 1147.2 431.445 1130.42C415.118 1127.27 414.61 1128.36 402.719 1115.95C390.931 1080.98 401.253 1061.24 434.847 1049.86C482.763 1066.58 513.515 1067.16 564.009 1067.61C732.18 1069.15 900.422 1086.19 1068.62 1084.06C1140.48 1080.34 1216.62 1081.3 1288.17 1074.87C1359.26 1068.44 1457.52 1081.81 1516.62 1043.62Z" fill="white"/>
<path d="M362.397 1360.78C549.366 1417.17 1108.96 1401.99 1321.62 1392.86C1398.72 1389.58 1503.79 1368.5 1585.39 1366.7C1593.37 1386.05 1586.95 1403.21 1583.83 1426.87L1579.59 1440.63C1565.79 1452.14 1463.15 1453.68 1435.93 1455.1C1083.24 1476.76 729.472 1473.81 377.188 1446.29L362.397 1360.78Z" fill="white"/>
<path d="M678.656 792.893C811.207 788.264 818.178 872.873 923.72 913.055C1029.4 952.466 1114.21 874.673 1202.02 833.14C1327.37 773.799 1383.54 840.277 1431.36 942.758C1355.49 907.912 1350.12 870.365 1256.73 892.546C1164.96 939.993 1122.62 1012.71 1019.76 1025.44C927.617 1036.88 854.152 972.847 788.159 917.106C673.749 820.475 636.071 905.147 547.873 915.434L540.51 907.783C557.629 839.569 617.769 811.281 678.656 792.893Z" fill="white"/>
<path d="M1026.18 546.07C1026.01 678.319 1083.38 694.006 1118.19 810.182C1140.03 883.025 1003.38 895.047 960.684 897.426C732.038 870.616 962.736 618.206 1026.18 546.07Z" fill="white"/>
<path d="M993.693 680.961C1002.66 728.216 973.983 766.534 944.054 799.194C940.176 773.284 978.671 712.4 993.693 680.961Z" fill="#301E0F"/>
<path d="M655.609 914.66C663.288 914.145 698.148 912.217 703.274 915.752C766.244 958.957 829.767 1010.97 891.342 1056.49C820.423 1045.24 698.772 1045.75 618.433 1038.1C603.584 1037.97 593.539 1032.25 579.764 1026.46C536.228 1046.97 404.924 1063.88 449.258 969.5C477.843 908.68 536.144 947.641 578.021 970.786L596.799 964.357C619.719 935.362 622.96 931.568 655.609 914.66Z" fill="white"/>
<path d="M1300.87 941.02C1356.01 933.755 1347.2 934.463 1386.12 972.652L1400.92 972.33C1436.27 944.492 1485.21 930.926 1500.12 987.696C1503.42 1000.1 1501.21 1013.35 1494.06 1023.96C1454.36 1083.94 1395.41 1015.21 1372.41 1019.91L1368.31 1043.05C1277.66 1053.34 1176.68 1055.78 1085.65 1054.3C1160.96 1018.17 1223.34 972.523 1300.87 941.02Z" fill="white"/>
<path d="M1271.48 974.903C1302.56 968.603 1311.91 963.266 1333.86 984.418C1305.68 988.533 1291.24 995.155 1271.48 974.903Z" fill="#301E0F"/>
<path d="M310.984 1315.71L319.234 1315.45C328.25 1324.07 344.565 1419.54 351.015 1443.27C267.93 1435.49 185.275 1423.59 103.354 1407.71C96.7491 1405.85 90.1702 1403.98 83.6174 1401.99C62.7367 1395.56 46.1391 1391.32 35.9141 1372.16L41.541 1359.62C93.7586 1326.38 246.978 1320.53 310.984 1315.71Z" fill="white"/>
<path d="M1623.11 1311.66C1677.03 1316.94 1881.02 1329.99 1904.52 1372.23C1895.59 1390.1 1879.33 1394.09 1860.04 1402.89C1802.21 1420.12 1668.62 1435.68 1604.51 1444.49C1617.98 1391.13 1619.62 1365.35 1623.11 1311.66Z" fill="white"/>
<path d="M1275.19 915.428C1299.04 912.985 1309.98 914.207 1333.25 916.2C1322.54 924.493 1277.8 932.466 1261.48 936.13C1232.05 949.567 1206.58 957.99 1175.93 968.405C1214.31 944.681 1233.99 933.366 1275.19 915.428Z" fill="white"/>
<path d="M2016.21 10.3438C2031.65 12.1248 2052.11 11.2252 2058.66 27.0536C2089.7 102.063 2055.41 550.384 2088.06 589.602C2160.32 536.047 2040.04 31.4319 2147.03 15.031C2193.25 55.2198 2194.12 584.845 2195.56 670.096C2197.52 785.629 2160.77 839.956 2084.94 919.228C2090.48 1151.32 2099.68 1383.35 2112.53 1615.19C2118.41 1740.88 2131.07 1897.11 2120.13 2022.16C2117.41 2053.27 2087.75 2073.85 2063.7 2090.5C1992.16 2093.65 1946.92 2075 1941.87 1993.87C1935.82 1896.4 1944.8 1795.33 1949.9 1697.74L1970.28 1281.71C1976.48 1163.79 1986.03 1037.78 1979.97 920.642C1912.46 853.971 1869.51 809.031 1870.12 707.9C1871.44 487.108 1871.27 257.187 1899.62 38.7548C1901.09 27.3943 1914.39 24.2378 1923.03 20.5796C2007.56 42.7023 1923.99 523.626 1968.17 588.06L1980.48 587.867C2010.57 529.554 1971.13 92.7534 2016.21 10.3438Z" fill="#301E0F"/>
<path d="M2033.38 24.6747C2073.56 104.558 2021.56 551.149 2075.7 617.563C2148.3 628.106 2129.2 438.156 2129.22 395.981C2129.29 264.703 2117.58 130.449 2135.84 0C2165.31 132.094 2159.48 313.97 2169.86 451.06C2177.97 557.965 2181.25 692.335 2149.84 793.273C2140.17 824.326 2086.53 883.09 2062.89 910.221C2051.1 1276.68 2108.04 1653.31 2095.3 2019.32C2094.55 2040.86 2056.22 2061.05 2039.79 2070.05C1966.96 2055.39 1965.4 2009.93 1966.05 1945.64C1969.47 1607.34 2009.25 1265.31 2002.65 927.708C2001.89 888.94 1905.4 838.921 1896.43 742.354C1885.29 622.45 1892.24 501.272 1897.39 379.754C1903.9 259.522 1902.69 127.69 1920.68 9.50249C1945.08 136.633 1933.25 271.151 1935.29 399.967C1936.17 455.226 1913.9 600.848 1982.87 618.657C2055.41 566.195 1982.26 97.8907 2033.38 24.6747Z" fill="white"/>
</svg>
