<svg class="ic_food" width="2196" height="2091" viewBox="0 0 2196 2091" fill="none" xmlns="http://www.w3.org/2000/svg">
<path d="M993.693 680.961C1002.66 728.216 973.983 766.534 944.054 799.194C940.176 773.284 978.671 712.4 993.693 680.961Z" fill="#301E0F"/>
<path d="M1271.48 974.903C1302.56 968.603 1311.91 963.266 1333.86 984.418C1305.68 988.533 1291.24 995.155 1271.48 974.903Z" fill="#301E0F"/>
<path d="M1057.71 499.203C1071.65 531.092 1046.41 582.911 1057.26 621.808C1081.22 707.895 1138.07 735.605 1154.96 824.392C1296.58 757.656 1375.9 771.158 1450.09 916.844C1546.67 948.603 1513.69 1010.07 1528.17 1018.42C1622.98 1072.82 1560.94 1091.46 1583.4 1144.63C1613.81 1216.57 1622.44 1190.92 1626.49 1285.17C1692.92 1295.33 1918.78 1305.3 1944.37 1364.19C1928.47 1426.42 1623.63 1582.2 1553.91 1591.65C1342.67 1620.33 1122.32 1623.28 909.136 1622.77C620.163 1620.97 330.289 1635.63 106.582 1450.15C72.9104 1422.24 -11.2557 1409.45 1.25781 1353.58C49.2957 1301.05 251.074 1294.37 329.073 1287.81C328.302 1272.57 325.234 1218.31 329.414 1209.69C354.417 1158.32 381.336 1145.85 370.713 1082.07C366.205 1055.01 399.259 1039.71 420.583 1016.37C409.098 897.749 483 934.137 497.637 910.543C587.282 766.015 673.338 715.481 827.837 809.476C863.155 685.006 947.92 577.189 1045.34 493.719L1057.71 499.203ZM1799.39 1444.23C1376.93 1495.67 950.666 1508.65 525.862 1483C405.845 1476.7 247.692 1450.47 146.762 1447.58C191.385 1478.76 298.753 1547.29 346.482 1553.53C690.914 1598.66 1435.13 1655.43 1732.6 1491.49C1753.61 1477.09 1779.99 1459.92 1799.39 1444.23ZM377.188 1446.29C729.472 1473.81 1083.24 1476.76 1435.93 1455.1C1463.15 1453.68 1565.79 1452.14 1579.59 1440.63L1583.83 1426.87C1586.95 1403.21 1593.37 1386.05 1585.39 1366.7C1503.79 1368.5 1398.72 1389.58 1321.62 1392.86C1108.96 1401.99 549.366 1417.17 362.397 1360.78L377.188 1446.29ZM1623.11 1311.66C1619.62 1365.35 1617.98 1391.13 1604.51 1444.49C1668.62 1435.68 1802.21 1420.12 1860.04 1402.89C1879.33 1394.09 1895.59 1390.1 1904.52 1372.23C1881.02 1329.99 1677.03 1316.94 1623.11 1311.66ZM310.983 1315.71C246.978 1320.53 93.7586 1326.38 41.541 1359.62L35.9141 1372.16C46.1391 1391.32 62.7366 1395.56 83.6172 1401.99C90.1699 1403.98 96.7491 1405.85 103.354 1407.71C185.275 1423.59 267.93 1435.49 351.016 1443.27C344.566 1419.54 328.25 1324.07 319.234 1315.45L310.983 1315.71ZM1585.87 1266.27C1512.9 1202.49 1383.27 1309.47 1303.55 1318.79C1205.25 1330.37 1143.8 1257.4 1049.91 1255.6C966.01 1255.21 898.872 1324.97 813.877 1321.56C692.349 1316.74 699.042 1245.5 568.421 1249.36C534.537 1261.06 496.127 1275.59 463.169 1289.41C426.559 1304.78 372.051 1267.3 355.557 1293.33C355.106 1313.59 355.254 1316.09 366.662 1332.75C496.782 1404.69 1312.51 1369.71 1489.91 1353.25C1524.22 1349.4 1561.07 1345.99 1595.02 1340.91C1595.49 1312.88 1599.24 1289.8 1585.87 1266.27ZM394.031 1150.55C382.173 1165.46 347.813 1211.11 354.333 1228.34C387.22 1315.33 528.71 1230.85 581.803 1225.32C676.09 1215.55 721.37 1289.74 808.442 1299.32C880.666 1307.16 976.722 1234.38 1031.92 1235.09C1253.55 1237.73 1192.39 1367.02 1441.22 1240.36L1449.24 1238.05C1528.64 1215.67 1525.29 1231.55 1592.13 1231.62C1597.31 1184.11 1560.42 1159.03 1517.18 1162.57C1148.48 1192.98 762.366 1200.82 394.031 1150.55ZM1516.62 1043.62C1457.52 1081.81 1359.26 1068.44 1288.17 1074.87C1216.62 1081.3 1140.48 1080.34 1068.62 1084.06C900.423 1086.19 732.181 1069.15 564.01 1067.61C513.515 1067.16 482.762 1066.58 434.847 1049.86C401.253 1061.24 390.932 1080.98 402.719 1115.95C414.609 1128.36 415.119 1127.27 431.445 1130.42C526.833 1147.2 624.298 1149.32 721.023 1154.27C937.991 1165.33 1153.3 1164.69 1370.34 1151.89C1398.74 1150.22 1521.07 1148.49 1544.2 1131.06C1566.14 1114.54 1563.33 1054.75 1516.62 1043.62ZM703.274 915.753C698.148 912.217 663.288 914.145 655.609 914.659C622.96 931.568 619.719 935.362 596.8 964.357L578.021 970.786C536.144 947.641 477.843 908.68 449.259 969.5C404.925 1063.88 536.228 1046.97 579.765 1026.46C593.539 1032.25 603.584 1037.97 618.433 1038.1C698.772 1045.75 820.423 1045.24 891.342 1056.49C829.768 1010.97 766.244 958.957 703.274 915.753ZM1386.12 972.652C1347.2 934.463 1356.01 933.755 1300.87 941.021C1223.34 972.523 1160.96 1018.17 1085.65 1054.3C1176.68 1055.78 1277.66 1053.34 1368.31 1043.05L1372.41 1019.91C1395.41 1015.21 1454.36 1083.94 1494.06 1023.96C1501.21 1013.35 1503.42 1000.1 1500.12 987.696C1485.21 930.927 1436.27 944.492 1400.92 972.33L1386.12 972.652ZM923.72 913.056C818.178 872.873 811.207 788.265 678.656 792.894C617.77 811.281 557.629 839.569 540.51 907.782L547.873 915.434C636.071 905.147 673.75 820.475 788.159 917.105C854.152 972.847 927.617 1036.88 1019.76 1025.44C1122.62 1012.71 1164.96 939.993 1256.73 892.546C1350.12 870.365 1355.49 907.911 1431.36 942.758C1383.54 840.277 1327.37 773.799 1202.02 833.141C1114.21 874.673 1029.4 952.466 923.72 913.056ZM1333.25 916.2C1309.98 914.207 1299.04 912.986 1275.19 915.429C1233.99 933.366 1214.31 944.682 1175.93 968.405C1206.58 957.99 1232.05 949.567 1261.48 936.13C1277.8 932.466 1322.54 924.494 1333.25 916.2ZM1026.17 546.07C962.735 618.206 732.04 870.616 960.685 897.426C1003.38 895.047 1140.03 883.024 1118.19 810.182C1083.38 694.006 1026.01 678.319 1026.17 546.07Z" fill="#301E0F"/>
<path d="M2147.03 15.0312C2193.25 55.2199 2194.12 584.843 2195.56 670.096C2197.52 785.628 2160.77 839.956 2084.94 919.228C2090.48 1151.32 2099.68 1383.35 2112.53 1615.19C2118.41 1740.88 2131.07 1897.11 2120.13 2022.16C2117.41 2053.27 2087.75 2073.85 2063.7 2090.5C1992.16 2093.65 1946.92 2075 1941.87 1993.87C1935.82 1896.4 1944.81 1795.33 1949.9 1697.74L1970.28 1281.71C1976.48 1163.79 1986.03 1037.78 1979.97 920.642C1912.46 853.971 1869.51 809.031 1870.12 707.899C1871.44 487.108 1871.28 257.187 1899.62 38.7549C1900.86 29.1228 1910.61 25.3882 1918.82 22.2451C1902.77 137.113 1903.67 263.825 1897.39 379.754C1892.24 501.272 1885.29 622.45 1896.43 742.354C1905.4 838.921 2001.89 888.94 2002.65 927.708C2009.25 1265.31 1969.47 1607.34 1966.05 1945.64C1965.4 2009.94 1966.96 2055.39 2039.79 2070.05C2056.23 2061.05 2094.55 2040.86 2095.3 2019.32C2108.04 1653.31 2051.1 1276.68 2062.89 910.221C2086.53 883.09 2140.17 824.327 2149.84 793.273C2181.25 692.335 2177.97 557.964 2169.86 451.06C2159.92 319.816 2164.84 147.527 2139.42 17.166C2141.82 16.1581 2144.35 15.4419 2147.03 15.0312ZM2016.21 10.3438C2031.65 12.1247 2052.11 11.2254 2058.66 27.0537C2089.7 102.064 2055.41 550.382 2088.06 589.602C2156.87 538.607 2051.11 78.6646 2133.2 20.6318C2118.78 144.575 2129.29 271.614 2129.22 395.981C2129.2 438.157 2148.3 628.106 2075.7 617.562C2021.56 551.148 2073.56 104.558 2033.38 24.6748C1982.26 97.8909 2055.41 566.195 1982.88 618.657C1913.9 600.848 1936.17 455.226 1935.29 399.967C1933.31 274.928 1944.4 144.516 1922.73 20.7031C1922.83 20.6612 1922.93 20.6212 1923.03 20.5791C2007.56 42.7019 1923.99 523.626 1968.17 588.06L1980.48 587.866C2010.57 529.552 1971.13 92.7532 2016.21 10.3438Z" fill="#301E0F"/>
</svg>
