<svg width="2340" height="1951" viewBox="0 0 2340 1951" fill="none" xmlns="http://www.w3.org/2000/svg">
<path d="M722.943 0.486287C932.329 -11.3179 961.461 194.275 1020.75 345.638C1046.41 392.352 1082.36 417.683 1092.33 472.839C1105.19 545.92 1099.53 621.952 1097.02 695.939C1094.26 774.78 1093.93 830.785 1033.1 886.59C1073.87 995.559 1131.43 1118.48 1068.79 1229.64C1117.09 1253.86 1132.52 1265.91 1167.63 1307.03C1216.31 1242.49 1238.43 1228.47 1316.37 1206.18C1243.19 1085.31 1258.63 1008.26 1288.27 875.642C1278.24 860.276 1263.84 832.257 1261.52 811.613C1250.14 708.052 1225.64 541.021 1261.91 444.731C1282.29 403.487 1313.8 372.897 1330.52 329.545C1376.7 209.519 1401.65 37.1195 1552.13 8.47775C1612.83 -3.082 1622.67 17.4661 1672.64 23.8372C1779.39 37.4479 1858.36 45.9344 1948.46 110.573C2001.51 149.329 2044.92 199.811 2075.33 258.091C2198.93 489.948 2077.2 674.922 2140.93 906.083C2182.54 1056.93 2315.27 1169.03 2335.39 1334.75C2353.79 1485.57 2309.16 1571.81 2224.91 1686.13C2226.52 1728.85 2248.51 1931.24 2231.09 1950.45L2238.35 1948.08C2199.32 1940.56 2213.47 1846.75 2208.32 1813.22C2183.37 1648.91 2245.36 1277.31 2035.46 1223.87C1876.75 1183.45 1782.93 1457.57 1779.45 1571.94C1775.79 1693.06 1800.35 1770.22 1877.97 1859.4C1871.8 1831.03 1843.7 1648.37 1848.71 1631.01L1856.95 1634.43C1881.9 1685.98 1894.44 1849.72 1899.9 1913.78C1903.83 1926.67 1902.54 1929.94 1901.45 1943.28L1892.76 1945.57C1873.99 1920.39 1879.39 1921.26 1875.02 1885.67C1778.55 1775.39 1774.63 1737.75 1753.86 1594.91C1602.22 1645.8 1533.41 1685.03 1412.84 1789.26C1373.16 1742.99 1302.36 1625.76 1267.5 1570.16C1234.9 1657.11 1192.52 1751.27 1189.11 1844.91C1188.08 1873.51 1196.83 1925.58 1179.78 1948.75C1159.66 1940.61 1164.03 1919.06 1165.44 1894.91C1172.84 1768.8 1142.94 1694.52 1092.78 1583.42C1038.56 1665.15 995.286 1728.42 929.821 1801.18C811.88 1698.96 734.904 1662.7 592.463 1596.16C568.347 1705.79 544.811 1760.43 459.667 1833.7C456.002 1861.44 458.767 1936.78 432.272 1945.71L426.42 1937.68C437.223 1829.14 449.635 1727.25 469.956 1620C487.898 1644.79 465.776 1774.5 460.825 1808.65C552.142 1714.72 568.733 1647.74 568.411 1523.16C205.15 1483.58 412.427 1263.28 359.456 1219.03C18.0918 1224.89 178.584 1858.16 105.492 1946.2L95.0294 1943.84C88.4248 1927.49 107.698 1644.7 109.421 1604.8C31.5768 1538.23 -0.248588 1458.01 0.181973 1356.82C-3.4451 1264.42 47.5831 1194.25 114.379 1137.27C224.866 1043.02 126.533 987.902 129.093 883.492C130.964 806.965 225.516 731.608 237.76 659.505C259.149 533.486 200.616 405.776 260.962 281.217C313.637 154.273 412.999 61.9946 550.855 38.4572C611.368 28.1321 665.452 27.2192 722.943 0.486287Z" fill="#301E0F"/>
<path d="M586.418 52.7014C607.19 50.9335 621.337 46.8956 638.25 57.4011C636.836 84.1081 603.846 111.869 586.933 160.506C546.226 277.125 581.467 391.077 535.422 506.642C503.654 586.319 402.035 553.414 390.987 609.785C375.959 686.531 417.72 747.627 497.48 763.822C603.074 785.27 550.277 906.12 522.625 970.624C549.376 1000.19 599.794 1053.11 617.093 1086.02C715.227 1272.44 387.238 1326.15 637.735 1494.8C400.562 1503.88 323.818 1441.86 406.826 1226.34C411.058 1215.36 396.935 1204.78 389.353 1196.77C379.508 1195.34 371.032 1194.4 361.039 1193.85C305.638 1191.25 251.549 1211.23 211.157 1249.23C124.136 1330.59 113.402 1464.7 108.663 1576.62C-47.1293 1380.4 20.8826 1255.66 171.208 1107.74C226.017 1053.8 164.88 970.772 155.614 917.403C140.09 828.069 241.001 749.64 261.124 668.49C281.098 502.617 207.06 372.567 323.792 216.505C395.778 120.273 464.748 75.8463 586.418 52.7014Z" fill="white"/>
<path d="M1686.08 59.5075C1853.99 47.8964 1976.3 131.495 2055.46 275.76C2171.67 487.609 2053.53 686.277 2115.33 905.159C2160.61 1065.71 2289.41 1178.61 2310.7 1346.16C2324.53 1447.24 2296.42 1549.58 2233.08 1629.52L2226.39 1628.04L2220.93 1584.44C2213.4 1460.04 2202.66 1250.61 2070.83 1206.39C1802.8 1116.51 1746.91 1093.33 1786.85 771.116C1832.83 772.955 1882.41 768.789 1913.02 733.062C2035.66 590 1835.21 569.619 1814.89 522.77C1737.98 345.343 1835.02 217.795 1686.08 59.5075Z" fill="white"/>
<path d="M672.076 78.5544C805.515 63.8508 869.372 110.128 948.535 214.654C924.741 217.053 893.231 218.904 876.124 235.363L877.41 246.473C917.924 258.258 933.1 227.449 965.64 251.288C976.83 272.389 976.765 281.011 979.466 304.387C954.451 318.448 943.455 324.601 920.625 342.557C910.85 364.153 911.172 355.043 917.924 375.841C936.702 372.28 953.229 347.63 969.178 330.47C1112.97 454.175 1067.76 536.391 1075.28 699.127C1085.25 913.078 921.076 915.303 763.779 863.29C675.291 820.491 642.751 809.825 579.73 727.055C576.514 728.92 573.363 730.778 570.147 732.642C500.566 789.489 370.717 686.988 425.006 608.777C439.346 588.159 474.201 588.037 499.152 585.06C570.212 528.534 574.521 466.557 585.453 382.566C656.063 313.69 648.86 308.765 741.464 285.459L738.698 278.355C668.41 260.649 625.196 311.87 585.904 360.97C590.148 269.656 590.277 134.81 672.076 78.5544Z" fill="white"/>
<path d="M971.751 559.569C993.294 557.261 1006.03 555.249 1020.62 566.905C1035.29 608.065 1036.64 652.787 1024.55 694.756C1000.43 776.401 949.05 774.26 882.685 746.627C845.193 722.524 792.718 690.256 804.165 640.604C832.781 594.834 920.433 572.775 971.751 559.569Z" fill="#301E0F"/>
<path d="M862.619 703.005L844.612 682.599C859.982 649.142 958.051 633.101 995.735 623.656L1003.9 707.261C1000.94 719.727 1001.52 724.009 992.391 732.715C958.759 750.228 923.132 741.818 890.785 727.436C886.219 724.781 867.699 707.596 862.619 703.005Z" fill="white"/>
<path d="M862.62 703C921.654 716.463 944.291 717.189 1003.9 707.256C1000.95 719.722 1001.52 724.004 992.393 732.709C958.76 750.222 923.134 741.813 890.787 727.431C886.221 724.776 867.7 707.59 862.62 703Z" fill="white"/>
<path d="M890.786 727.431C912.908 721.709 963.454 722.66 986.283 726.158L992.392 732.709C958.759 750.223 923.133 741.813 890.786 727.431Z" fill="white"/>
<path d="M965.192 578.924L988.15 577.266C1006.03 587.604 1002.04 582.113 1010.91 598.546C1000.05 614.587 887.766 639.101 851.11 651.49C841.142 655.618 834.583 655.187 823.715 655.933L819.663 648.514C840.885 614.915 927.958 589.063 965.192 578.924Z" fill="white"/>
<path d="M862.685 326.609C866.993 329.445 951.815 439.706 971.815 456.505C1004.93 484.221 937.346 518.958 918.054 525.51L911.366 513.024C919.404 502.39 937.346 496.546 950.401 490.844C988.793 436.588 869.115 416.721 862.685 326.609Z" fill="#301E0F"/>
<path d="M711.947 392.488C735.612 391.221 761.207 389.813 783.264 397.831C760.757 414.849 727.187 411.904 694.391 432.735C680.307 449.245 678.765 453.418 659.279 460.606L652.591 455.803C663.652 421.317 682.494 410.278 711.947 392.488Z" fill="#301E0F"/>
<path d="M1596.24 77.6177C1757.72 65.8974 1753.28 253.508 1757.14 368.269C1731.74 334.182 1662.35 263.865 1617.53 281.481C1647.49 308.497 1700.35 328.801 1726.79 363.615C1733.15 371.999 1750 386.426 1758.23 393.793C1792.89 638.752 1890.06 556.606 1919.45 627.996C1927.75 648.132 1930 669.908 1920.35 690.038C1906.72 718.725 1873.54 735.782 1844.15 744.326C1810 754.233 1790.51 742.5 1761.25 726.678C1724.28 781.506 1687.11 809.454 1631.1 842.101C1527.62 887.426 1360.36 934.476 1282.93 824.266C1268.21 691.953 1228.14 427.34 1361.13 351.546C1389.81 349.495 1394.7 356.78 1421 376.761L1429.94 366.25L1428.46 352.999C1413.99 329.346 1383.45 313.743 1359.07 298.435C1382.29 234.001 1398.04 244.301 1464.02 248.114L1466.02 241.787C1452.64 226.479 1427.5 226.222 1403.12 218.642C1408.59 151.483 1535.47 89.666 1596.24 77.6177Z" fill="white"/>
<path d="M1320.62 555.391C1384.54 565.343 1533.41 587.64 1540.68 662.855C1532.38 688.186 1515.08 702.536 1496.44 722.325C1334.51 846.827 1294.64 691.722 1320.62 555.391Z" fill="#301E0F"/>
<path d="M1343.51 702.396C1340.36 680.736 1336.89 670.031 1343.45 649.149C1380.62 615.37 1460.42 656.228 1492.96 683.108C1492.13 697.516 1494.77 691.544 1485.05 701.759L1456.05 729.431C1428.4 744.282 1351.74 762.367 1344.41 718.128L1343.51 702.396Z" fill="white"/>
<path d="M1343.51 702.402C1402.35 718.642 1426.28 714.881 1485.05 701.766L1456.05 729.437C1428.4 744.288 1351.74 762.374 1344.41 718.134L1343.51 702.402Z" fill="white"/>
<path d="M1344.41 718.133L1456.05 729.435C1428.4 744.287 1351.74 762.372 1344.41 718.133Z" fill="white"/>
<path d="M1332.71 575.656C1386.21 585.255 1505.44 609.191 1527.24 661.801C1490.52 659.249 1377.47 627.701 1339.66 608.13C1331.23 603.771 1333.55 588.875 1332.71 575.656Z" fill="white"/>
<path d="M1481.32 331.633C1500.68 403.813 1401.84 418.292 1390.26 479.035C1398.3 500.277 1405.57 500.939 1425.12 516.614L1424.73 529.408C1421.52 528.006 1418.24 526.54 1415.09 525.017C1391.74 513.779 1382.8 507.047 1374.25 483.246C1376.5 437.29 1425.12 415.579 1452.26 383.272C1462.1 371.5 1474.31 346.015 1481.32 331.633Z" fill="#301E0F"/>
<path d="M1598.56 398.867C1644.15 404.249 1671.74 418.393 1693.09 460.922L1688.52 468.489L1675.79 463.989C1642.09 426.011 1615.73 428.364 1565.95 415.448L1568.46 407.572L1598.56 398.867Z" fill="#301E0F"/>
<path d="M1762.09 763.695C1795.6 811.471 1623.19 1066.21 1965.37 1198.6C1822.67 1266.39 1778.94 1427.48 1754.18 1571.76C1614.83 1614.69 1530.65 1670.87 1416.82 1757.83L1398.69 1738.77C1356.5 1675.4 1318.82 1610.12 1273.55 1548.69C1300.81 1436 1335.8 1325.32 1378.3 1217.44C1419.78 1203.38 1444.03 1193.4 1483.7 1174.66C1487.69 1201.07 1490.39 1233.45 1502.93 1256.33C1519.2 1205.11 1465.18 975.705 1452 912.885C1593.54 892.935 1662.99 870.337 1762.09 763.695Z" fill="white"/>
<path d="M1769.55 1248.65C1788.33 1246.08 1794.31 1243.68 1811.61 1249.52C1799.26 1263.46 1662.42 1285.69 1636.69 1290.36L1607.69 1295.43L1605.5 1288.27C1652.32 1267.13 1718.24 1256.68 1769.55 1248.65Z" fill="#301E0F"/>
<path d="M575.229 756.094C687.767 860.009 728.281 896.328 893.295 909.553C886.028 968.554 827.186 1230.4 847.572 1262.86C860.562 1237.22 861.398 1210.49 864.613 1181.8C903.712 1198.88 938.246 1213.32 975.416 1234.73C1037.73 1358.4 1039.85 1433.79 1082.1 1560.22C1042.23 1629.6 981.589 1708.66 933.487 1774.37L880.24 1734.35C790.788 1666.07 712.783 1634.1 612.977 1583.93C593.428 1574.11 591.756 1565.12 586.869 1547.82C604.36 1499.99 622.495 1528.01 657.735 1503.3C640.372 1443.13 488.413 1404.76 614.714 1274.46C640.051 1280.54 711.561 1301.8 729.182 1292.44L734.455 1294.26L732.59 1298.31L739.471 1297.72L728.152 1296.09L725.451 1288.82C697.156 1276.69 655.356 1269.04 624.231 1262.21C701.786 1136.34 634.585 1068.22 553.942 968.483C590.148 873.273 592.271 855.914 575.229 756.094Z" fill="white"/>
<path d="M999.338 902.208C1006.6 901.79 1004.29 902.652 1012.84 908.149C1045.83 974.82 1111.75 1162.71 1045.51 1222.67C1027.57 1227.11 993.164 1211.67 973.614 1204.84C812.33 1150.38 895.159 1054.52 918.567 912.199L999.338 902.208Z" fill="white"/>
<path d="M1310.72 888.75C1357.08 907.298 1383.7 909.117 1432.26 914.492C1443.45 976.836 1478.69 1083.37 1472.51 1146.81C1471.42 1157.87 1453.8 1163.76 1442.8 1169.42C1404.6 1185.16 1377.98 1192.45 1338.63 1203.22C1273.16 1077.14 1277.73 1024.14 1310.72 888.75Z" fill="white"/>
<path d="M1004.8 1240C1056.83 1256.35 1107.31 1267.34 1141.84 1312.64C1197.4 1385.65 1191.87 1495.6 1191.55 1583.02C1191.42 1612.62 1192.71 1700.03 1174.58 1718.78L1165.89 1708.3C1139.79 1642.85 1136.7 1537.28 1124.74 1520.32L1117.66 1568.38L1110.01 1565.53C1064.93 1455.36 1054.71 1357.47 1004.8 1240Z" fill="white"/>
<path d="M1345.06 1222.23L1350.97 1223.15L1354.12 1230.45C1297.08 1349.91 1273.74 1508.29 1220.81 1635.16L1213.16 1634.51C1218.43 1517.17 1210.14 1442.07 1182.42 1329.83C1231.29 1251.36 1258.3 1242.92 1345.06 1222.23Z" fill="white"/>
<path d="M711.689 26.3621C796.833 21.0966 892.779 48.9931 917.988 141.612L909.885 136.829C827.379 57.7111 789.308 52.9279 686.03 50.0153L685.13 44.0682L711.689 26.3621Z" fill="white"/>
<path d="M1545.18 33.0239C1582.67 29.4816 1615.02 24.0229 1649.42 41.3239C1639.97 48.8269 1551.93 59.7372 1493.16 89.9287C1469.36 104.761 1434.06 136.952 1411.61 156.252C1455.54 84.7532 1468.78 64.4887 1545.18 33.0239Z" fill="white"/>
</svg>
