<svg class="ic_girls" width="2340" height="1951" viewBox="0 0 2340 1951" fill="none" xmlns="http://www.w3.org/2000/svg">
<path d="M971.75 559.569C993.293 557.261 1006.03 555.249 1020.62 566.905C1035.29 608.065 1036.64 652.787 1024.55 694.757C1000.43 776.401 949.05 774.26 882.685 746.627C845.193 722.524 792.717 690.256 804.164 640.604C832.781 594.834 920.432 572.775 971.75 559.569ZM995.735 623.656C958.051 633.101 859.982 649.142 844.612 682.6L862.618 703.005C867.698 707.595 886.219 724.781 890.785 727.437C923.132 741.818 958.759 750.228 992.392 732.715C1001.52 724.01 1000.94 719.728 1003.9 707.262L995.735 623.656ZM965.191 578.924C927.957 589.063 840.885 614.915 819.663 648.514L823.715 655.933C834.583 655.187 841.142 655.618 851.109 651.49C887.765 639.101 1000.05 614.587 1010.91 598.546C1002.04 582.113 1006.03 587.604 988.149 577.266L965.191 578.924Z" fill="#301E0F"/>
<path d="M862.685 326.609C866.993 329.445 951.815 439.706 971.815 456.505C1004.93 484.221 937.346 518.958 918.054 525.51L911.366 513.024C919.404 502.39 937.346 496.546 950.401 490.844C988.793 436.588 869.115 416.721 862.685 326.609Z" fill="#301E0F"/>
<path d="M711.947 392.488C735.612 391.221 761.207 389.813 783.264 397.831C760.757 414.849 727.187 411.904 694.391 432.735C680.307 449.245 678.765 453.418 659.279 460.606L652.591 455.803C663.652 421.317 682.494 410.278 711.947 392.488Z" fill="#301E0F"/>
<path d="M1320.62 555.391C1384.54 565.343 1533.41 587.64 1540.68 662.855C1532.38 688.186 1515.08 702.536 1496.44 722.325C1334.51 846.827 1294.64 691.722 1320.62 555.391ZM1492.96 683.108C1460.42 656.228 1380.62 615.371 1343.45 649.149C1336.89 670.031 1340.36 680.736 1343.51 702.396L1344.41 718.128C1351.74 762.367 1428.4 744.282 1456.05 729.431L1485.05 701.76C1494.77 691.544 1492.13 697.516 1492.96 683.108ZM1332.71 575.656C1333.55 588.874 1331.23 603.77 1339.66 608.13C1377.47 627.7 1490.52 659.249 1527.24 661.801C1505.44 609.191 1386.21 585.255 1332.71 575.656Z" fill="#301E0F"/>
<path d="M1481.32 331.633C1500.68 403.813 1401.84 418.292 1390.26 479.035C1398.3 500.277 1405.57 500.939 1425.12 516.614L1424.73 529.408C1421.52 528.006 1418.24 526.54 1415.09 525.017C1391.74 513.779 1382.8 507.047 1374.25 483.246C1376.5 437.29 1425.12 415.579 1452.26 383.272C1462.1 371.5 1474.31 346.015 1481.32 331.633Z" fill="#301E0F"/>
<path d="M1598.56 398.867C1644.15 404.249 1671.74 418.393 1693.09 460.922L1688.52 468.489L1675.79 463.989C1642.09 426.011 1615.73 428.364 1565.95 415.448L1568.46 407.572L1598.56 398.867Z" fill="#301E0F"/>
<path d="M1769.55 1248.65C1788.33 1246.08 1794.31 1243.68 1811.61 1249.52C1799.26 1263.46 1662.42 1285.69 1636.69 1290.36L1607.69 1295.43L1605.5 1288.27C1652.32 1267.13 1718.24 1256.68 1769.55 1248.65Z" fill="#301E0F"/>
<path d="M2233.31 1946.51C2234.88 1947.21 2236.56 1947.74 2238.35 1948.08L2231.09 1950.45C2231.91 1949.54 2232.65 1948.21 2233.31 1946.51ZM722.943 0.486328C932.329 -11.3176 961.461 194.275 1020.75 345.638C1046.41 392.352 1082.36 417.683 1092.33 472.839C1105.19 545.92 1099.53 621.951 1097.02 695.938C1094.26 774.779 1093.93 830.784 1033.1 886.59C1073.87 995.558 1131.43 1118.49 1068.79 1229.64C1117.08 1253.86 1132.52 1265.91 1167.63 1307.03C1216.31 1242.49 1238.44 1228.47 1316.38 1206.18C1243.19 1085.31 1258.63 1008.26 1288.27 875.642C1278.24 860.276 1263.84 832.257 1261.52 811.613C1250.14 708.052 1225.64 541.021 1261.91 444.73C1282.29 403.487 1313.8 372.896 1330.52 329.545C1376.69 209.518 1401.65 37.1202 1552.13 8.47754C1612.83 -3.08184 1622.67 17.4656 1672.64 23.8369C1779.39 37.4475 1858.36 45.9351 1948.46 110.573C2001.51 149.328 2044.92 199.811 2075.33 258.091C2198.93 489.947 2077.2 674.922 2140.93 906.083C2182.54 1056.92 2315.27 1169.03 2335.39 1334.75C2353.79 1485.57 2309.16 1571.81 2224.91 1686.12C2226.45 1726.82 2246.47 1912.39 2233.31 1946.51C2200.58 1932.07 2213.23 1845.21 2208.32 1813.22C2183.37 1648.91 2245.36 1277.31 2035.46 1223.87C1876.75 1183.45 1782.93 1457.57 1779.45 1571.94C1775.79 1693.06 1800.35 1770.22 1877.97 1859.4C1871.8 1831.03 1843.7 1648.38 1848.71 1631.01L1856.95 1634.43C1881.9 1685.98 1894.44 1849.72 1899.9 1913.78C1903.83 1926.67 1902.54 1929.94 1901.45 1943.28L1892.76 1945.57C1873.99 1920.39 1879.39 1921.26 1875.02 1885.67C1778.55 1775.39 1774.63 1737.74 1753.86 1594.91C1602.22 1645.8 1533.41 1685.03 1412.84 1789.26C1373.16 1742.99 1302.36 1625.75 1267.5 1570.16C1234.9 1657.11 1192.52 1751.27 1189.11 1844.91C1188.08 1873.5 1196.83 1925.58 1179.79 1948.75C1159.66 1940.61 1164.03 1919.06 1165.44 1894.91C1172.84 1768.8 1142.94 1694.52 1092.78 1583.42C1038.57 1665.15 995.286 1728.42 929.821 1801.18C811.881 1698.96 734.904 1662.7 592.463 1596.16C568.348 1705.79 544.811 1760.43 459.668 1833.7C456.002 1861.44 458.767 1936.78 432.272 1945.71L426.42 1937.68C437.223 1829.14 449.635 1727.25 469.956 1620C487.898 1644.79 465.777 1774.5 460.825 1808.65C552.142 1714.72 568.734 1647.74 568.412 1523.16C205.154 1483.58 412.425 1263.28 359.457 1219.03C18.0947 1224.9 178.584 1858.16 105.492 1946.2L95.0293 1943.84C88.4256 1927.48 107.698 1644.7 109.422 1604.8C31.578 1538.23 -0.247858 1458 0.182617 1356.82C-3.44426 1264.42 47.5843 1194.25 114.38 1137.27C224.866 1043.02 126.533 987.901 129.093 883.491C130.964 806.965 225.516 731.608 237.761 659.505C259.15 533.486 200.617 405.775 260.963 281.217C313.637 154.273 413 61.9948 550.855 38.457C611.368 28.1321 665.453 27.2185 722.943 0.486328ZM575.229 756.094C592.271 855.914 590.148 873.272 553.942 968.482C634.584 1068.22 701.786 1136.34 624.231 1262.21C655.356 1269.03 697.156 1276.69 725.451 1288.82L727.12 1293.31C706.574 1300.32 639.157 1280.33 614.714 1274.46C488.414 1404.76 640.372 1443.13 657.735 1503.3C622.495 1528.01 604.361 1499.99 586.869 1547.82C591.756 1565.12 593.428 1574.11 612.978 1583.93C712.783 1634.1 790.788 1666.07 880.24 1734.35L933.487 1774.37C981.589 1708.66 1042.23 1629.6 1082.1 1560.22C1039.85 1433.79 1037.73 1358.4 975.416 1234.73C938.247 1213.32 903.712 1198.88 864.613 1181.8C861.398 1210.49 860.562 1237.22 847.572 1262.86C827.187 1230.39 886.028 968.554 893.295 909.553C728.282 896.328 687.768 860.009 575.229 756.094ZM1762.09 763.695C1662.99 870.337 1593.54 892.935 1452 912.885C1465.18 975.705 1519.2 1205.11 1502.93 1256.33C1490.39 1233.45 1487.69 1201.07 1483.7 1174.66C1444.03 1193.4 1419.78 1203.38 1378.3 1217.44C1335.8 1325.32 1300.81 1436 1273.55 1548.69C1318.82 1610.12 1356.5 1675.4 1398.69 1738.77L1416.82 1757.83C1530.65 1670.88 1614.83 1614.69 1754.18 1571.76C1778.94 1427.48 1822.67 1266.39 1965.37 1198.6C1623.19 1066.21 1795.6 811.471 1762.09 763.695ZM1004.8 1240C1054.71 1357.47 1064.93 1455.36 1110.01 1565.53L1117.66 1568.38L1124.74 1520.32C1136.7 1537.28 1139.79 1642.85 1165.89 1708.3L1174.58 1718.78C1192.71 1700.03 1191.43 1612.62 1191.55 1583.02C1191.88 1495.6 1197.4 1385.65 1141.84 1312.64C1107.31 1267.34 1056.83 1256.35 1004.8 1240ZM1345.06 1222.23C1258.31 1242.92 1231.29 1251.36 1182.42 1329.83C1210.14 1442.07 1218.43 1517.17 1213.16 1634.51L1220.81 1635.16C1273.74 1508.29 1297.08 1349.91 1354.12 1230.45L1350.97 1223.15L1345.06 1222.23ZM2055.46 275.76C1976.3 131.496 1853.99 47.8969 1686.08 59.5078C1835.02 217.795 1737.98 345.343 1814.89 522.77C1835.21 569.619 2035.66 590 1913.02 733.062C1882.41 768.788 1832.83 772.955 1786.85 771.116C1746.91 1093.33 1802.8 1116.51 2070.83 1206.39C2202.66 1250.61 2213.4 1460.04 2220.93 1584.44L2226.39 1628.04L2233.08 1629.52C2296.42 1549.58 2324.53 1447.24 2310.7 1346.16C2289.41 1178.61 2160.61 1065.71 2115.33 905.159C2053.53 686.277 2171.67 487.608 2055.46 275.76ZM638.251 57.4014C621.338 46.8962 607.19 50.9333 586.419 52.7012C464.749 75.8462 395.778 120.273 323.792 216.505C207.061 372.567 281.098 502.617 261.124 668.49C241.002 749.64 140.09 828.07 155.614 917.403C164.881 970.772 226.017 1053.8 171.208 1107.74C20.8829 1255.66 -47.1284 1380.4 108.663 1576.62C113.403 1464.7 124.137 1330.59 211.157 1249.23C251.549 1211.23 305.638 1191.25 361.039 1193.85C371.032 1194.4 379.508 1195.34 389.354 1196.76C396.935 1204.78 411.057 1215.36 406.826 1226.34C323.818 1441.86 400.563 1503.88 637.735 1494.8C387.239 1326.15 715.227 1272.44 617.094 1086.02C599.795 1053.11 549.377 1000.19 522.625 970.624C550.277 906.12 603.074 785.27 497.48 763.822C417.72 747.627 375.96 686.53 390.988 609.785C402.037 553.414 503.655 586.318 535.423 506.642C581.467 391.077 546.226 277.125 586.933 160.506C603.846 111.87 636.836 84.1083 638.251 57.4014ZM739.472 1297.72L732.59 1298.31L733.272 1296.83L739.472 1297.72ZM1012.84 908.148C1004.29 902.652 1006.6 901.79 999.338 902.208L918.567 912.199C895.159 1054.52 812.331 1150.38 973.614 1204.84C993.164 1211.67 1027.57 1227.11 1045.51 1222.67C1111.75 1162.71 1045.83 974.819 1012.84 908.148ZM1310.72 888.75C1277.73 1024.14 1273.16 1077.14 1338.62 1203.22C1377.98 1192.45 1404.6 1185.16 1442.8 1169.42C1453.8 1163.76 1471.42 1157.87 1472.51 1146.81C1478.69 1083.37 1443.45 976.836 1432.26 914.492C1383.7 909.117 1357.08 907.298 1310.72 888.75ZM1757.14 368.27C1753.28 253.508 1757.72 65.8978 1596.24 77.6182C1535.47 89.6673 1408.59 151.484 1403.12 218.643C1427.5 226.222 1452.64 226.48 1466.02 241.787L1464.02 248.113C1398.05 244.3 1382.29 234.002 1359.07 298.435C1383.45 313.742 1413.99 329.346 1428.46 352.999L1429.94 366.25L1421 376.762C1394.7 356.78 1389.81 349.495 1361.13 351.546C1228.15 427.341 1268.21 691.954 1282.93 824.267C1360.36 934.475 1527.62 887.426 1631.1 842.101C1687.11 809.454 1724.28 781.505 1761.25 726.678C1790.51 742.5 1810 754.233 1844.15 744.326C1873.54 735.782 1906.72 718.724 1920.35 690.038C1930 669.908 1927.75 648.132 1919.45 627.996C1890.06 556.607 1792.89 638.751 1758.23 393.793C1750 386.425 1733.15 371.998 1726.79 363.614C1700.35 328.801 1647.49 308.497 1617.53 281.481C1662.35 263.865 1731.74 334.182 1757.14 368.27ZM948.535 214.654C869.373 110.128 805.515 63.8513 672.077 78.5547C590.278 134.81 590.148 269.656 585.904 360.97C625.196 311.87 668.411 260.649 738.698 278.354L741.464 285.459C648.862 308.765 656.063 313.69 585.453 382.565C574.521 466.556 570.212 528.534 499.152 585.06C474.201 588.036 439.346 588.159 425.006 608.777C370.719 686.988 500.566 789.487 570.147 732.643C573.363 730.778 576.515 728.92 579.729 727.056C642.751 809.825 675.292 820.491 763.779 863.29C921.076 915.302 1085.25 913.078 1075.29 699.127C1067.76 536.391 1112.97 454.175 969.178 330.471C953.23 347.63 936.702 372.279 917.925 375.841C911.173 355.043 910.852 364.152 920.626 342.558C943.455 324.601 954.452 318.447 979.467 304.387C976.766 281.011 976.83 272.389 965.641 251.288C933.101 227.449 917.924 258.257 877.41 246.473L876.125 235.363C893.231 218.905 924.742 217.052 948.535 214.654ZM1649.42 41.3242C1615.02 24.0238 1582.67 29.4811 1545.18 33.0234C1468.79 64.4879 1455.54 84.7533 1411.61 156.252C1434.06 136.952 1469.36 104.761 1493.16 89.9287C1551.93 59.7383 1639.97 48.8272 1649.42 41.3242ZM917.988 141.612C892.78 48.9935 796.833 21.0968 711.689 26.3623L685.13 44.0684L686.03 50.0156C789.309 52.9282 827.379 57.7115 909.886 136.829L917.988 141.612Z" fill="#301E0F"/>
</svg>
