<svg width="2058" height="1921" viewBox="0 0 2058 1921" fill="none" xmlns="http://www.w3.org/2000/svg">
<path d="M529.412 0C687.499 0.835666 832.796 203.42 930.435 304.744C936.139 310.659 955.445 312.974 974.917 305.066C1016.11 288.286 1074.14 310.402 1118.44 307.959C1228.09 212.935 1369.31 -18.9025 1541 10.0289C1610.1 21.6659 1770.43 272.148 1734.75 357.464C1700.67 438.922 1620.19 472.546 1543.89 507.971C1686.97 507.007 1846.51 496.334 1987.47 518.129C2091.22 534.202 2046.89 709.655 2054.53 781.855C2061.94 851.741 2052.38 902.017 1982.07 932.748C1979.26 1064.74 1995.59 1763.98 1961.35 1832.58C1938.98 1877.45 1895.53 1901.89 1849.28 1915.77C1488.54 1925.16 1082.24 1917.25 719.268 1915.71C615.237 1915.45 511.2 1915.9 407.169 1917.06C298.393 1917.83 101.882 1944.06 83.1743 1787.7C72.4222 1697.76 77.9334 1590.58 78.1133 1499.16C79.4511 1311.24 78.9816 1123.25 76.6989 935.32C29.6642 911.596 2.88641 888.194 2.44268 831.553C0.108168 533.109 -37.8073 491.384 292.515 507.007C337.582 509.128 453.96 507.393 512.866 507.2C443.355 481.933 360.18 437.7 328.534 367.686C280.734 261.926 436.558 41.9185 529.412 0Z" fill="#301E0F"/>
<path d="M1203.04 932.619L1360.85 933.133C1367.29 988.489 1399.16 1314.77 1417.44 1338.69L1427.66 1339.27C1459.06 1312.91 1496.56 1248.16 1533.95 1208.88L1539.77 1202.84C1609.22 1237.17 1647.74 1260.77 1714.63 1302.81C1711.37 1227.33 1671.34 1020.31 1658.46 933.776L1951.09 932.555L1950.92 1343.7C1951.88 1467.59 1952.89 1591.55 1953.06 1715.44C1953.13 1763.4 1948.73 1818.63 1911.77 1853.67C1861.17 1901.56 1775.88 1888.71 1711.57 1890.51C1676.96 1891.47 1640.04 1890.25 1605.29 1890.12L1202.85 1889.99C1199.55 1574.57 1201.15 1248.36 1203.04 932.619Z" fill="white"/>
<path d="M699.963 931.851C751.133 931.722 804.419 933.394 855.749 934.358C857.388 1069.11 856.161 1206.44 856.295 1341.45L856.366 1889.35L450.758 1889.93C58.0949 1891.47 104.846 1884.02 105.322 1503.99L104.641 932.879L398.18 933.457C382.437 1056.9 356.36 1181.05 343.087 1302.75C400.166 1268.23 455.433 1233.96 515.007 1203.61C555.502 1241.09 604.948 1328.6 638.729 1337.98C661.474 1316.51 693.983 987.592 699.963 931.851Z" fill="white"/>
<path d="M902.165 536.584C977.875 532.791 1101.87 532.598 1176.01 537.549C1174.46 984.057 1175.18 1430.89 1172.71 1877.33C1169.97 1881.44 1167.24 1885.49 1164.5 1889.61L884.352 1889.8C877.954 1580.3 887.587 1261.03 883.118 950.432C882.455 904.527 880.545 574.452 886.314 545.585L902.165 536.584Z" fill="white"/>
<path d="M758.322 477.693C792.663 475.893 897.536 462.777 912.236 494.409C891.831 514.661 845.961 514.211 813.171 541.599C701.764 634.565 688.272 798.831 671.629 934.038C656.729 1055.04 643.765 1177.38 629.971 1298.9C609.077 1270.03 585.392 1241.74 562.865 1214.03C549.477 1201.62 531.091 1188.18 516.435 1176.68C471.638 1193.07 418.391 1228.17 376.604 1253.38C403.144 1094.7 426.797 716.153 517.946 598.498C576.055 523.534 667.108 490.23 758.322 477.693Z" fill="white"/>
<path d="M1139.54 476.922C1287.13 463.099 1522.69 491.13 1575.13 647.553C1635.58 827.956 1644.37 1061.66 1683.43 1252.54C1659.04 1236.53 1624.91 1218.85 1598.74 1204.32L1539.56 1174.68C1487.29 1212.81 1465.21 1248.94 1429.2 1301.47C1409.52 1126.91 1393.95 940.531 1365.53 769.45C1348.22 665.169 1308.55 568.152 1209.38 524.627C1186.88 514.725 1155.96 507.782 1140.05 497.302L1139.54 476.922Z" fill="white"/>
<path d="M1530.76 535.871C1651.8 527.642 1886.29 524.17 2000.96 551.88C2039.76 561.267 2038.31 845.437 2006.26 889.606C1952.2 918.666 1733.32 906.451 1656.49 905.872C1630.75 737.299 1634.81 677.056 1530.76 535.871Z" fill="white"/>
<path d="M91.4319 536.455C241.609 537.934 391.794 537.484 541.959 534.977C445.883 613.863 432.552 716.152 413.465 832.584L403.774 906.52C329.273 907.227 120.3 916.099 63.9146 894.819C11.6583 847.114 25.3042 633.408 45.4133 565.58C50.3908 548.8 76.4031 540.505 91.4319 536.455Z" fill="white"/>
<path d="M517.502 32.0182C668.271 20.2526 827.825 228.109 919.862 331.233C912.711 356.821 906.37 384.724 899.959 410.634C862.435 386.01 812.661 361.515 772.289 340.234C625.648 261.155 501.689 210.75 345.846 295.294C388.392 196.991 430.088 99.3323 517.502 32.0182Z" fill="white"/>
<path d="M1483.35 32.5354C1497.9 31.6352 1523.9 29.7068 1536.38 35.75C1619.29 75.9967 1679.1 212.167 1711.17 292.404C1579.22 217.953 1449.27 257.365 1320.22 318.185L1155.56 408.194C1151.83 384.598 1143.73 361.26 1136.68 338.307C1232.55 220.91 1339.03 89.6267 1483.35 32.5354Z" fill="white"/>
<path d="M1203.59 548.094C1328.17 605.121 1345.73 785.782 1358.11 905.879L1202.66 906.586C1200.93 789.06 1203.18 666.07 1203.59 548.094Z" fill="white"/>
<path d="M844.874 550.727L850.713 552.462C860.134 566.028 855.401 863.122 855.233 906.197L721.287 905.876C713.217 904.526 716.142 904.526 708.175 897.26C697.114 787.128 756.007 619.776 844.874 550.727Z" fill="white"/>
<path d="M1569.99 272.531C1827.89 297.283 1659.33 448.434 1498.42 487.395C1438.19 502.118 1418.71 485.788 1360.51 461.935C1473.5 430.625 1551.71 396.808 1569.99 272.531Z" fill="white"/>
<path d="M962.499 328.408C996.493 327.38 1090.61 316.45 1110.44 343.774C1137.46 380.935 1133.06 474.995 1099.19 507.784C1050.81 508.619 975.677 519.421 941.761 492.418C918.359 447.349 925.162 365.634 962.499 328.408Z" fill="white"/>
<path d="M457.517 277.163L474.789 276.648C494.217 288.157 488.371 288.479 494.937 311.495C521.927 406.005 614.17 439.372 703.493 462.389C673.564 469.718 633.456 485.984 603.733 497.042C531.142 482.641 459.162 463.546 400.585 416.034C299.769 334.319 373.569 299.408 457.517 277.163Z" fill="white"/>
<path d="M1485.74 284.171C1512.93 280.249 1523.76 275.17 1542.58 296.258C1539.71 410.44 1304.2 443.1 1220.54 446.058C1199.04 445.929 1183.99 447.601 1164.04 439.757L1167.81 432.557C1281.69 369.229 1360.77 320.56 1485.74 284.171Z" fill="white"/>
<path d="M516.801 274.977C540.453 278.513 563.861 283.527 586.89 289.892C652.323 307.766 855.683 394.945 885.721 447.601C751.511 445.543 540.518 445.479 516.801 274.977Z" fill="white"/>
</svg>
