<svg class="ic_pinata" width="2102" height="2327" viewBox="0 0 2102 2327" fill="none" xmlns="http://www.w3.org/2000/svg">
    <path d="M1042.88 0.703125C1064.49 -2.17011 1086.34 3.8356 1103.44 17.3506C1120.98 30.9814 1131.32 50.2813 1133.57 72.1934C1138.76 122.79 1111.06 158.068 1081.75 194.444C1119.61 296.632 1155.86 399.405 1190.51 502.726C1214.51 572.348 1240.92 644.846 1262.74 714.995C1321.13 697.034 1380.36 672.568 1438.24 652.474C1553.57 612.428 1668.01 568.052 1784.76 532.418C1791.98 530.212 1806.1 531.102 1813.77 531.477C1822.56 536.563 1833.25 546.269 1840.29 553.416C1919.73 634.302 1940.98 767.991 1939.73 876.694C1939.6 889.619 1941.57 903.369 1932.6 912.388C1918.53 917.065 1877.68 918.654 1863.83 913.185C1855.89 904.333 1858.84 861.686 1858.52 847.64C1857.89 813.504 1855.14 779.441 1850.3 745.641C1842.74 805.876 1845.49 875.438 1828.05 933.072C1824.97 943.287 1765.48 932.091 1755.47 922.198C1753 916.609 1753.45 908.774 1754.43 902.77C1769.05 813.77 1779.77 724.877 1790.78 635.435C1775.29 665.914 1747.55 709.414 1729.37 738.986L1630.9 898.582C1606.81 937.328 1553.92 1028.55 1528.86 1059.29C1625.39 1110.11 1730.22 1155.5 1828.05 1205.16C1881.11 1232.08 1936.01 1256.59 1987.36 1287.84C2016.95 1305.81 2008.27 1314.53 2024.85 1341.04C2035.93 1358.76 2046.37 1374.6 2055.25 1393.58C2091.44 1470.83 2085.96 1548.13 2088.19 1630.54C2088.8 1653.91 2096.09 1687.28 2101.18 1710.49C2083.83 1717.96 2034.84 1734.19 2018.81 1722.98C1996.22 1690.18 2008.5 1540.62 2006.64 1494.89C1989.95 1560.36 1985.39 1636.8 1992.61 1703.55C1993.72 1713.76 1993.79 1720.96 1987.52 1727.99C1968.52 1735.93 1937.8 1732.42 1917.44 1729.85C1898.96 1726.33 1904.27 1689.16 1903.59 1675.18C1897.91 1560.16 1944.3 1464.63 1976.13 1358.08C1955.62 1359.33 1854.21 1381.21 1829.19 1386.22L1517.76 1448.91L1603.75 1692.81C1618.85 1735.84 1662.97 1852.38 1663.97 1890.6C1669.06 1896.93 1673.84 1903.54 1678.31 1910.33C1728.45 1986.49 1738.42 2122.41 1720.51 2208.22C1698.17 2208.54 1664.19 2210.47 1646.14 2197.74C1640.56 2189.2 1646.55 2135.89 1646.98 2120.98C1647.79 2092.41 1649.11 2069.67 1644.66 2040.87C1638.92 2067.69 1626.5 2177.4 1613.56 2191.22C1595.31 2195.79 1563.24 2183.74 1545.81 2176.79C1551.67 2100.33 1585.44 1981.29 1618.93 1911.55L1209.85 1671.71C1204.71 1682.58 1200.1 1694.81 1195.58 1706.04C1158.3 1798.82 1121.89 1891.03 1082.03 1982.75C1128.43 2071.92 1148.97 2150.24 1156.17 2250.78C1157.15 2264.44 1160.45 2291.54 1157.3 2303.82C1143.23 2319.04 1094.25 2323.04 1075.94 2314.8C1064.71 2302.07 1070.18 2274.31 1068.95 2257.16C1066.36 2220.87 1068.7 2173.79 1059.79 2138.93L1059.21 2136.76C1051.57 2183.78 1045.71 2230.76 1045.43 2278.42C1045.35 2291.29 1045.14 2304.18 1043.23 2316.91C1029.39 2335.48 988.921 2323.56 970.84 2316.78C960.755 2313.53 957.211 2299.66 957.393 2290C959.261 2189.41 987.749 2078.95 1032.53 1989.05C982.589 1892.67 944.597 1766.91 895.403 1671.53C756.925 1749.35 617.722 1836.2 478.655 1910.67C508.24 1988.67 549.407 2092.93 549.868 2177.38C536.314 2183.89 495.758 2195.97 481.772 2190.07C470.423 2174.77 458.529 2071.71 450.158 2041.37C444.855 2092.11 451.863 2140.05 453.904 2190.34C454.787 2212.1 390.552 2208.81 375.464 2208.06C363.552 2152.71 367.723 2049.79 380.718 1993.91C386.328 1969.81 398.864 1941.96 412.586 1921.08C416.779 1912.91 428.047 1898.89 429.997 1890.56C438.638 1853.56 450.609 1818.57 462.59 1782.57C500.611 1670.41 539.756 1558.62 580.022 1447.23C430.796 1413 270.558 1384.11 119.922 1353.5C131.083 1391.35 147.661 1429.71 159.923 1467.7C182.277 1536.94 197.09 1607.5 194.43 1680.67C193.985 1692.88 195.061 1711.4 189.585 1722.11C176.426 1734.8 123.649 1737.3 108.916 1728.01C100.788 1717.48 109.449 1678.47 109.636 1661.56C110.172 1612.52 104.875 1571.3 97.1309 1523.26C88.4949 1536.37 96.2524 1569.83 93.1807 1589.5C92.1022 1626.93 95.7458 1665.1 88.0176 1702.41C81.1657 1735.5 61.2594 1727.63 36.043 1722.7C24.1056 1720.37 8.83463 1718.23 0.316406 1708.81C-1.9767 1695.67 8.90281 1647.08 9.74512 1627.9C13.3028 1546.97 4.86272 1482.29 37.1807 1405.15C51.7606 1370.34 68.8217 1354.45 84.1055 1323.54C84.4573 1321.77 86.6279 1310.35 87.6973 1309.08C116.876 1274.81 210.899 1235.87 247.758 1217.5C356.05 1164.06 464.883 1111.7 574.238 1060.46C485.462 924.316 404.872 778.882 317.521 641.575C324.665 696.65 330.468 749.417 339.604 804.512C342.941 824.654 355.122 903.787 353.474 920.834C343.639 934.957 295.042 941.734 280.762 934.281C271.583 918.914 261.282 779.33 259.277 753.397C252.614 788.119 251.024 825.657 250.752 860.938C250.643 874.769 253.454 892.288 251.122 905.631C250.336 910.129 248.109 912.984 244.161 915.251C234.269 920.934 194.901 918.013 183.648 914.793C179.051 913.479 174.669 911.772 172.396 907.319C154.831 872.888 184.163 716.908 198.601 674.847C212.406 634.619 249.186 555.671 288.517 537.156C300.27 531.623 312.052 533.302 324.32 535.933C377.784 547.401 440.091 573.725 492.202 592.143L837.832 716.636L955.194 378.484C973.33 326.362 1001.69 240.416 1023 191.344C999.852 162.857 980.032 140.488 972.835 102.897C963.454 53.9008 991.581 7.90876 1042.88 0.703125ZM1046.41 2021.94C1018.53 2076.21 970.772 2237.82 984.232 2293.1C986.966 2295.49 987.562 2296.46 990.695 2297.89L1019.87 2301.82C1020.18 2263.69 1022.38 2225.59 1026.46 2187.68C1027.96 2172.95 1051.37 2027.46 1046.41 2021.94ZM1072.23 2019.51C1070.6 2066.61 1081.21 2108.55 1086.8 2155.3C1092.62 2203.93 1092.98 2246.65 1092.61 2295.21C1106.94 2294.33 1118.84 2293.4 1133.13 2291.54C1132.49 2213.85 1118.66 2136.85 1092.23 2063.81C1088.3 2052.74 1079.21 2027.91 1072.23 2019.51ZM435.529 1930.89C392.373 2007.44 387.751 2098.56 398.703 2184.26L429.895 2180.79C421.254 2122.19 423.645 2063.06 426.907 2004.15C427.824 1987.56 437.454 1941.19 435.529 1930.89ZM1658.32 1930.73C1672.23 2026.8 1677.05 2081.45 1666.52 2180.72C1677.52 2181.72 1689.16 2182.58 1700.04 2184.03C1703.55 2121.28 1706.76 2057.57 1688.67 1996.5C1683.83 1980.16 1671.5 1941.03 1658.32 1930.73ZM461.649 1944.35C462.415 1980.54 470.847 2014.7 477.66 2050.31C485.037 2089.32 491.704 2128.5 497.666 2167.76L523.616 2161.15C530.719 2138 479.133 1959.53 461.649 1944.35ZM1633.44 1946.62C1613.96 1985.33 1569.15 2122.35 1572.32 2159.27L1576.42 2162.24C1582.65 2163.76 1591.81 2166.85 1597.58 2165.35C1605.26 2137.98 1610.93 2091.34 1616.36 2062.54C1620.56 2040.23 1638.06 1962.87 1633.44 1946.62ZM1096.1 1766.96C1059.62 1762.12 1038.27 1761.19 1001.51 1770.75C991.557 1773.45 980.532 1776.72 970.61 1779.08C988.56 1816.75 1003.26 1853.9 1019.36 1892.21C1026.61 1909.46 1040.94 1946.71 1051.01 1960.62L1052.94 1962.98L1057.83 1962.5C1060.78 1960.05 1068.91 1942.92 1078.93 1919.96C1081.66 1913.7 1084.54 1907.01 1087.48 1900.07C1107.59 1852.69 1131.17 1793.49 1137.11 1779.35C1120.4 1772.66 1113.3 1770.86 1096.1 1766.96ZM515.307 1718.3C505.499 1742.54 460.304 1864.59 461.817 1883.68C461.934 1883.69 462.056 1883.69 462.185 1883.69C462.697 1883.68 463.307 1883.6 464.007 1883.46C464.707 1883.32 465.498 1883.12 466.373 1882.85C466.811 1882.72 467.27 1882.57 467.75 1882.41C468.469 1882.16 469.235 1881.88 470.044 1881.58C471.123 1881.16 472.279 1880.7 473.507 1880.18C478.419 1878.1 484.479 1875.2 491.313 1871.72C493.022 1870.85 494.779 1869.94 496.579 1869C510.075 1861.96 525.965 1853.1 541.783 1844.08C546.001 1841.68 550.215 1839.26 554.376 1836.86C577.265 1823.67 598.588 1811.07 610.575 1804.25C612.21 1803.32 613.671 1802.5 614.938 1801.8C615.361 1801.57 615.763 1801.35 616.142 1801.14C607.06 1790.61 600.481 1784.16 590.287 1774.61L588.761 1773.35C572.933 1760.41 555.261 1747.54 538.896 1735.21L515.307 1718.3ZM1582.18 1718.64C1581.99 1718.75 1581.8 1718.86 1581.61 1718.97C1580.84 1719.43 1580.03 1719.93 1579.2 1720.47C1578.78 1720.74 1578.36 1721.01 1577.93 1721.3C1576.64 1722.15 1575.31 1723.06 1573.97 1724.01C1569.94 1726.83 1565.82 1729.89 1562.61 1732.17C1542.98 1746.87 1526.33 1759.61 1507.78 1775.56C1499.29 1783.37 1491.32 1790.54 1483.54 1799.05C1501.15 1810.45 1519.09 1820.95 1537.03 1831.16C1541.16 1833.52 1545.3 1835.86 1549.44 1838.2C1565.98 1847.54 1582.45 1856.76 1598.59 1866.36C1599.93 1867.16 1601.28 1867.96 1602.62 1868.76C1603.96 1869.57 1605.29 1870.38 1606.63 1871.19C1607.97 1872 1609.3 1872.82 1610.63 1873.64C1611.96 1874.45 1613.29 1875.28 1614.61 1876.1C1619.21 1879.55 1622.97 1882.92 1627.53 1883.04C1627.72 1883.04 1627.92 1883.04 1628.11 1883.04C1629.4 1882.99 1630.75 1882.69 1632.2 1882.06C1632.42 1881.97 1632.65 1881.86 1632.87 1881.75C1633.1 1880.9 1633.28 1880.07 1633.43 1879.25C1634.8 1871.37 1632.4 1864.94 1630.39 1856.47C1616.12 1813.41 1600.66 1769.92 1585.72 1726.92L1582.73 1718.32C1582.55 1718.43 1582.37 1718.53 1582.18 1718.64ZM546.897 1625.1C537.347 1647.91 529.35 1671.37 522.965 1695.26C529.286 1699.33 540.403 1706.96 546.951 1710.42C547.149 1710.53 547.342 1710.63 547.531 1710.72C547.531 1710.76 547.544 1710.77 547.57 1710.74C569.579 1727.54 589.626 1742.77 610.447 1761.17L637.853 1787.7C640.807 1785.96 643.763 1784.23 646.721 1782.49C667.423 1770.35 688.192 1758.31 709.022 1746.37C707.5 1745.26 705.959 1744.12 704.403 1742.93C702.07 1741.16 699.706 1739.32 697.329 1737.43C693.368 1734.29 689.372 1731.02 685.428 1727.78C680.694 1723.88 676.034 1720.01 671.597 1716.39L665.668 1711.52C636 1687.18 605.917 1663.37 575.432 1640.05L547.827 1622.89C547.516 1623.62 547.206 1624.36 546.897 1625.1ZM1529.09 1636.23C1498.06 1659.66 1467.36 1683.5 1436.99 1707.79L1430.93 1712.65C1422.85 1719.38 1415.72 1725.42 1408.21 1731.22C1406.96 1732.18 1405.7 1733.14 1404.42 1734.1C1401 1736.64 1397.47 1739.15 1393.7 1741.66C1392.75 1742.29 1391.8 1742.92 1390.82 1743.55C1390.34 1743.86 1389.85 1744.18 1389.35 1744.49C1401.5 1751.53 1413.61 1758.48 1425.61 1765.59C1428.61 1767.37 1431.61 1769.15 1434.6 1770.96C1440.58 1774.56 1446.53 1778.22 1452.44 1781.97C1453.92 1782.9 1455.4 1783.85 1456.88 1784.79C1458.35 1785.74 1459.82 1786.7 1461.29 1787.66L1487.21 1763.17C1509.75 1744.29 1530.41 1727.08 1554.04 1709.43C1559.59 1706.25 1569.67 1698.96 1575.34 1695.13C1569.6 1680.66 1564.66 1665.7 1559.4 1650.67C1558.34 1647.66 1557.28 1644.65 1556.19 1641.64C1554.29 1636.38 1552.32 1631.11 1550.24 1625.86L1549.34 1623.62L1529.09 1636.23ZM1134.17 1653.12C1068.42 1644.19 1022.47 1644.69 955.878 1655.5C945.621 1658.38 934.365 1661.27 924.282 1664.42C925.631 1667.62 927.063 1671.11 928.559 1674.82C930.802 1680.38 933.187 1686.44 935.645 1692.71C938.922 1701.08 942.328 1709.85 945.699 1718.37C946.963 1721.57 948.222 1724.73 949.468 1727.83C950.713 1730.92 951.945 1733.95 953.154 1736.88C953.557 1737.85 953.959 1738.82 954.356 1739.77C954.65 1740.47 954.942 1741.16 955.232 1741.85C957.262 1746.66 959.21 1751.12 961.033 1755.04C961.424 1755.89 961.809 1756.7 962.188 1757.5C971.448 1754.61 983.106 1750.64 992.28 1748.3C1022.37 1740.45 1043.3 1740.56 1073.99 1740.04L1096.34 1742.56L1097.94 1742.82C1099.01 1743 1100.07 1743.19 1101.13 1743.38C1101.82 1743.51 1102.51 1743.64 1103.19 1743.77C1113.59 1745.8 1123.76 1748.57 1133.94 1751.48C1138.08 1752.66 1142.22 1753.86 1146.38 1755.04H1146.38C1158.79 1725.2 1170.62 1695.11 1181.86 1664.81C1170.3 1661.22 1159.83 1658.65 1148.71 1656.11C1145.01 1655.27 1141.23 1654.42 1137.31 1653.55L1134.17 1653.12ZM586.589 1515.47C576.005 1542.91 564.991 1571.26 555.724 1599.13C562.18 1604.17 569.87 1609.88 576.036 1615.08C582.767 1619.44 586.471 1622.14 594.16 1624.93C608.254 1637.64 616.564 1644.88 632.156 1655.91C642.591 1641.79 650.83 1626.88 667.489 1621.39L670.718 1623.5C671.564 1641.11 658.539 1653.89 648.229 1668.21C661.958 1680.19 669.996 1687.23 685.397 1697.31C687.296 1698.78 689.196 1700.28 691.099 1701.79C693.001 1703.29 694.905 1704.81 696.81 1706.34C702.524 1710.93 708.243 1715.6 713.938 1720.26C715.836 1721.82 717.731 1723.38 719.623 1724.93C721.515 1726.48 723.402 1728.03 725.285 1729.57C727.168 1731.11 729.046 1732.64 730.918 1734.16L806.36 1689.82C801.486 1684.65 796.559 1679.67 792.042 1674.37C791.791 1674.07 791.542 1673.78 791.294 1673.48C791.046 1673.18 790.798 1672.89 790.553 1672.59C790.062 1671.99 789.576 1671.39 789.097 1670.78C787.899 1669.26 786.741 1667.7 785.633 1666.1C785.189 1665.46 784.754 1664.81 784.327 1664.16C784.114 1663.83 783.902 1663.5 783.693 1663.17C783.275 1662.51 782.866 1661.83 782.466 1661.15C782.458 1659.96 782.232 1658.82 781.829 1657.73C781.547 1656.97 781.179 1656.23 780.737 1655.53C780.548 1655.23 780.346 1654.94 780.131 1654.65C780.059 1654.56 779.986 1654.46 779.912 1654.37C779.838 1654.28 779.762 1654.18 779.685 1654.09C779.608 1654 779.53 1653.9 779.45 1653.81C779.371 1653.72 779.291 1653.63 779.209 1653.54C779.045 1653.36 778.877 1653.19 778.704 1653.01C778.358 1652.67 777.995 1652.34 777.616 1652.02C777.427 1651.86 777.234 1651.7 777.038 1651.55C776.553 1651.17 776.045 1650.82 775.523 1650.49C775.411 1650.42 775.3 1650.35 775.186 1650.28C774.971 1650.15 774.754 1650.02 774.535 1649.9C773.879 1649.54 773.203 1649.21 772.518 1648.92C772.06 1648.72 771.599 1648.55 771.135 1648.39C769.512 1647.84 767.865 1647.51 766.308 1647.45C765.196 1646.86 763.953 1646.08 762.639 1645.18C762.451 1645.05 762.262 1644.92 762.071 1644.78C758.262 1642.1 753.946 1638.48 750.555 1635.69C749.876 1635.13 749.235 1634.6 748.643 1634.12L744.228 1630.49C698.759 1593.13 657.762 1561.66 607.553 1529.45L586.589 1515.47ZM1511.19 1516.95C1503.59 1521.22 1496.76 1525.53 1489.71 1530.1L1482.56 1534.76C1440.16 1561.54 1392.11 1599.13 1354.69 1631.94L1333.03 1648.38C1332.02 1648.69 1331.12 1648.97 1330.29 1649.23C1329.88 1649.36 1329.49 1649.49 1329.11 1649.61C1328.37 1649.85 1327.69 1650.08 1327.06 1650.32C1326.75 1650.44 1326.45 1650.56 1326.16 1650.68C1325.72 1650.86 1325.3 1651.05 1324.9 1651.26C1324.77 1651.33 1324.64 1651.4 1324.5 1651.47C1324.24 1651.61 1323.98 1651.76 1323.73 1651.92C1321.94 1653.03 1320.24 1654.58 1317.73 1657.25L1316.88 1661.36C1313.87 1665.04 1311.13 1668.27 1308.42 1671.35C1306.61 1673.39 1304.81 1675.37 1302.94 1677.38C1302.01 1678.38 1301.06 1679.38 1300.09 1680.4C1298.62 1681.94 1297.1 1683.51 1295.5 1685.15L1293.86 1686.82V1686.82C1316.93 1700.98 1341.56 1716.78 1365.58 1729.18L1367.9 1730.37L1414.25 1696.1C1426.2 1687.09 1438.3 1677.06 1450.01 1667.67C1440.59 1656.48 1423.28 1638.96 1426.4 1623.07L1430.13 1621.39C1446.53 1626.04 1455.48 1642.14 1465.52 1655.89C1479.49 1646.13 1491.39 1636.57 1504.64 1625.95C1498.83 1612.74 1485.37 1594.77 1484.95 1581.11C1484.81 1576.64 1488.64 1574.19 1492.26 1571L1492.98 1570.35C1504.42 1580.65 1513.39 1601.1 1520.2 1615.24L1541.33 1600.4C1531.97 1572.32 1521.92 1544.5 1511.19 1516.95ZM103.431 1390.72C102.543 1428.05 111.284 1465.23 118.326 1502.15C130.134 1564.06 138.807 1645.13 129.916 1707.93L168.164 1706.45C170.736 1666.96 169.842 1615.9 162.543 1577.14C157.092 1548.18 119.066 1405.38 103.431 1390.72ZM1992.83 1388.7C1962.87 1473.28 1931.92 1555.62 1928.2 1645.99C1927.45 1663.9 1926.09 1687.66 1930.65 1704.86L1932.72 1707.07L1966.95 1707.54C1962.21 1627.2 1966.59 1557.41 1984 1478.23C1987.45 1462.5 2001.71 1400.32 1992.83 1388.7ZM2014.38 1370.4C2020.06 1394.03 2022.89 1427.78 2027.71 1446C2034.52 1509.46 2029.96 1562.38 2028.57 1625.04C2028.09 1646.95 2032.79 1680.67 2035.54 1702.5L2072.18 1695.79C2053.79 1605.46 2074 1512.39 2042.9 1434.84C2040.48 1426.53 2037.38 1418.25 2033.89 1410.08C2033.31 1408.72 2032.71 1407.36 2032.11 1406.01C2029.7 1400.58 2027.13 1395.21 2024.48 1389.91C2023.82 1388.58 2023.16 1387.26 2022.49 1385.94C2020.48 1382 2018.44 1378.09 2016.41 1374.24L2014.38 1370.4ZM69.3828 1395.39C67.8469 1396.33 66.2935 1397.33 64.7471 1398.4C63.9739 1398.93 63.2023 1399.48 62.4355 1400.04C60.5184 1401.45 58.6304 1402.96 56.8184 1404.56C56.2746 1405.04 55.7378 1405.52 55.209 1406.02C54.6803 1406.51 54.1596 1407.02 53.6484 1407.53C53.3076 1407.87 52.9709 1408.22 52.6387 1408.57C47.8233 1413.62 43.9616 1419.43 42.1934 1425.89C42.0104 1426.56 41.8498 1427.24 41.7129 1427.92C41.6217 1428.38 41.5405 1428.84 41.4707 1429.3C39.4998 1442.33 37.513 1456.59 35.8652 1471.32C35.5357 1474.27 35.2205 1477.23 34.9209 1480.21C33.4978 1494.35 32.4446 1508.77 32.0654 1522.81C32.0255 1524.29 31.9924 1525.76 31.9678 1527.23C31.9555 1527.96 31.9449 1528.69 31.9365 1529.43C31.8947 1533.08 31.903 1536.71 31.9668 1540.29C32.0306 1543.87 32.1497 1547.4 32.3301 1550.87C32.4022 1552.26 32.4851 1553.64 32.5771 1555.01C32.6692 1556.39 32.7711 1557.75 32.8838 1559.1C32.9964 1560.45 33.119 1561.78 33.2529 1563.11C33.3869 1564.44 33.5324 1565.75 33.6885 1567.06L35.8584 1569.99C37.3704 1618.8 34.2382 1648.24 26.2148 1695.83L63.3203 1702.16C72.1904 1629.97 65.1277 1562.27 66.6396 1489.85C66.9574 1474.58 78.4062 1390.95 74.9424 1387.43L69.3828 1395.39ZM604.622 1453.45C601.609 1467.54 599.938 1476.64 594.412 1490.14L594.836 1494.48C602.461 1499.23 610.242 1504.14 618.116 1509.17C619.992 1510.37 621.874 1511.58 623.76 1512.79C631.575 1517.82 639.468 1522.98 647.378 1528.25C649.618 1529.74 651.862 1531.24 654.104 1532.75C657.755 1535.2 661.407 1537.68 665.054 1540.18C666.877 1541.43 668.699 1542.69 670.519 1543.95C675.703 1547.55 680.871 1551.18 686.004 1554.85C688.077 1556.33 690.145 1557.82 692.206 1559.32C704.111 1567.95 715.792 1576.78 727.037 1585.75C728.48 1586.9 729.917 1588.05 731.345 1589.2C733.019 1590.56 734.682 1591.92 736.335 1593.28C737.988 1594.64 739.629 1596 741.259 1597.36C744.682 1600.23 748.051 1603.11 751.361 1606C753.563 1607.93 755.739 1609.85 757.886 1611.78C759.426 1613.17 760.952 1614.56 762.462 1615.94L772.542 1625.16V1625.16C791.903 1642.32 810.87 1659.91 829.428 1677.95C847.899 1665.85 867.448 1654.25 886.355 1642.75C881.347 1630.65 874.977 1618.19 869.203 1606.37C809.03 1580.74 763.501 1557.96 716.703 1511.16C701.771 1496.23 689.496 1480.57 674.232 1465.32C653.897 1459.35 625.861 1456.26 604.622 1453.45ZM1489.91 1453.74C1471.95 1456.65 1443.2 1460.48 1426.36 1464.79C1368.27 1534.9 1320.56 1572.62 1233.72 1606.28L1220.95 1643.36C1237.06 1654.28 1253.23 1665.1 1269.47 1675.84C1289.67 1654.41 1311.8 1635.58 1334.97 1617.44C1345.04 1607.9 1356.31 1598.21 1368.22 1588.59C1369.55 1587.52 1370.88 1586.45 1372.22 1585.38C1373.56 1584.32 1374.9 1583.25 1376.26 1582.18C1378.96 1580.06 1381.69 1577.93 1384.44 1575.82C1398.19 1565.24 1412.42 1554.86 1426.37 1544.98C1429.16 1543 1431.94 1541.05 1434.7 1539.11C1441.6 1534.28 1448.39 1529.58 1454.98 1525.06L1462.78 1519.72C1477.76 1511.02 1490.18 1503.49 1504.62 1493.87L1489.91 1453.74ZM1189.24 1488.94C1104.35 1456.16 971.5 1447.39 892.787 1500.23L891.864 1500.86C882.404 1506.96 872.407 1513.09 863.598 1520.03C878.543 1553.67 900.936 1614.04 915.557 1642.18L941.448 1634.74C944.575 1633.87 947.709 1633.05 950.851 1632.25C953.992 1631.45 957.142 1630.68 960.299 1629.95C970.048 1630.04 1001.9 1625.27 1013.06 1623.82C1017.5 1622.48 1028.56 1622.03 1033.69 1621.66C1062.03 1625.98 1098.79 1623.48 1135.69 1629.02C1136.58 1629.1 1137.45 1629.18 1138.32 1629.26C1140.04 1629.42 1141.71 1629.59 1143.37 1629.76C1145.44 1629.98 1147.48 1630.22 1149.56 1630.5C1150.39 1630.62 1151.23 1630.74 1152.08 1630.87C1152.5 1630.93 1152.93 1631 1153.36 1631.07C1154.22 1631.21 1155.09 1631.35 1155.98 1631.51C1163.22 1634.71 1182.39 1640.09 1190.75 1642.7C1204.64 1611.93 1227.45 1551.15 1238.66 1519.58C1237.65 1518.78 1236.63 1518 1235.63 1517.23C1234.62 1516.46 1233.62 1515.71 1232.62 1514.97C1232.12 1514.6 1231.62 1514.23 1231.12 1513.87C1230.12 1513.15 1229.13 1512.43 1228.13 1511.73C1227.14 1511.04 1226.15 1510.35 1225.16 1509.67C1224.17 1509 1223.18 1508.33 1222.18 1507.68C1215.74 1503.42 1209.25 1499.58 1202.39 1495.83C1201.34 1495.26 1200.27 1494.68 1199.2 1494.11C1195.98 1492.39 1192.67 1490.68 1189.24 1488.94ZM734.085 1491.28C759.208 1512.39 820.904 1562.45 852.882 1570.24L856.388 1567.85C845.926 1545.79 835.044 1531.36 842.915 1508.21C804.976 1503.9 771.62 1497.97 734.085 1491.28ZM1368.32 1487.51C1363.5 1486.63 1364.9 1486.35 1360.36 1487.17C1349.22 1489.8 1264.46 1505.89 1260.04 1508.16C1260.25 1511.68 1260.57 1528.43 1261.09 1530.41C1264.14 1541.96 1250.21 1560.57 1253.38 1566.58L1257.5 1566.6C1280.39 1555.89 1360.73 1508.44 1368.32 1487.51ZM1469.71 1315.23C1440.7 1320.43 1409.86 1325.06 1381.21 1331.14C1140.6 1369.63 895.052 1364.93 656.086 1317.27C664.788 1365.07 670.207 1448 724.104 1464.59C724.179 1464.66 724.258 1464.72 724.341 1464.79C724.588 1464.99 724.868 1465.19 725.181 1465.4C725.285 1465.47 725.393 1465.54 725.504 1465.61C727.174 1466.64 729.634 1467.73 732.692 1468.83C733.1 1468.98 733.519 1469.12 733.947 1469.27C741.662 1471.92 752.677 1474.63 764.339 1476.92C764.987 1477.04 765.637 1477.17 766.288 1477.29C767.591 1477.54 768.9 1477.79 770.212 1478.02C770.868 1478.14 771.524 1478.26 772.181 1478.37C773.494 1478.6 774.808 1478.83 776.119 1479.04C778.086 1479.36 780.046 1479.67 781.987 1479.96C786.517 1480.63 790.944 1481.21 795.113 1481.65C795.709 1481.71 796.299 1481.77 796.884 1481.83C798.053 1481.94 799.199 1482.05 800.319 1482.14C800.879 1482.19 801.432 1482.23 801.978 1482.27C805.93 1482.56 809.511 1482.69 812.548 1482.64C815.806 1482.58 818.439 1482.3 820.233 1481.77C833.921 1480.86 824.921 1436.88 832.057 1420.72C838.107 1415.16 835.208 1416.27 842.779 1415.68C855.434 1431.48 840.562 1466.56 851.963 1486.06C863.682 1491.3 874.035 1480.14 888.511 1472.96C938.826 1448.07 982.396 1440.4 1037.56 1436.56C1037.42 1430.3 1037.32 1424.03 1037.26 1417.77C1037.2 1406.08 1036.82 1398.48 1045.53 1389.63L1050.14 1389.9C1060.99 1402.81 1058.21 1419.04 1058.13 1436.33C1101.69 1437.51 1143.82 1443.44 1184.82 1459.1C1203.65 1466.27 1233.93 1493.46 1252.96 1481.81C1267.58 1463.48 1248.89 1431.05 1263.2 1416.45C1270.3 1416.2 1267.99 1415.32 1273.49 1418.7C1279.53 1431.79 1278.08 1456.17 1277.98 1471.31V1471.31L1279.3 1476.1C1279.38 1476.13 1279.47 1476.16 1279.55 1476.19C1279.73 1476.25 1279.91 1476.31 1280.1 1476.37C1280.69 1476.53 1281.35 1476.65 1282.08 1476.75C1282.9 1476.86 1283.81 1476.92 1284.81 1476.95C1285.38 1476.96 1285.98 1476.96 1286.61 1476.95C1288.83 1476.92 1291.37 1476.72 1294.12 1476.41C1294.81 1476.33 1295.51 1476.25 1296.23 1476.16C1296.27 1476.15 1296.32 1476.14 1296.36 1476.14C1296.76 1476.09 1297.17 1476.03 1297.58 1475.98C1304.14 1475.07 1311.62 1473.64 1319.01 1472.1C1328.25 1470.18 1337.33 1468.08 1344.27 1466.62C1344.97 1466.47 1345.64 1466.33 1346.29 1466.2C1347.59 1465.94 1348.79 1465.7 1349.89 1465.5C1350.44 1465.4 1350.96 1465.31 1351.45 1465.22C1352.43 1465.09 1353.36 1464.95 1354.26 1464.79C1355.16 1464.64 1356.02 1464.47 1356.86 1464.29C1357.28 1464.2 1357.69 1464.11 1358.1 1464.02C1358.51 1463.92 1358.91 1463.83 1359.31 1463.73C1361.71 1463.13 1363.97 1462.44 1366.41 1461.66C1368.03 1461.14 1369.72 1460.58 1371.57 1459.98L1397.14 1453.31C1407.05 1444.23 1416.41 1432.2 1425 1418.62C1425.91 1417.19 1426.8 1415.75 1427.69 1414.28C1429.9 1410.63 1432.06 1406.88 1434.16 1403.06C1435 1401.53 1435.83 1400 1436.65 1398.45C1451.42 1370.57 1462.99 1339.6 1469.71 1315.23ZM1499.37 1078.45C1501.13 1087.6 1502.78 1096.45 1504.27 1105.14C1504.92 1108.86 1505.53 1112.56 1506.12 1116.24C1507.09 1122.37 1507.98 1128.45 1508.76 1134.53C1509.08 1136.96 1509.38 1139.39 1509.66 1141.83C1510.22 1146.7 1510.71 1151.59 1511.12 1156.52C1511.54 1161.45 1511.87 1166.42 1512.12 1171.46C1512.56 1180.27 1512.74 1189.29 1512.61 1198.67C1510.67 1207.47 1508.99 1211.7 1512.04 1220.34C1510.79 1245.37 1508.16 1267.88 1504.07 1289.06C1503.21 1293.52 1502.28 1297.93 1501.29 1302.28C1492.87 1339.29 1479.74 1372.88 1461.47 1409.86C1460.4 1412.04 1459.31 1414.23 1458.2 1416.43C1455.42 1421.93 1452.53 1427.51 1449.53 1433.2C1473.26 1428.02 1497.01 1422.98 1520.8 1418.1C1526.75 1416.88 1532.69 1415.67 1538.65 1414.47C1556.5 1410.87 1574.37 1407.35 1592.25 1403.92C1597.46 1384.29 1601.1 1368.22 1604.94 1348.28L1605.75 1345.08C1607.66 1339.28 1608.96 1335.84 1609.61 1331.46C1609.67 1331.05 1609.73 1330.62 1609.78 1330.18C1609.9 1329.09 1609.99 1327.93 1610.04 1326.65C1610.06 1326.14 1610.07 1325.61 1610.08 1325.06C1610.08 1324.78 1610.09 1324.5 1610.09 1324.21L1610.08 1323.33C1618.18 1278.78 1624.84 1233.98 1630.07 1189.02C1630.13 1188.76 1630.2 1188.51 1630.26 1188.25C1630.32 1188 1630.39 1187.75 1630.44 1187.5C1630.62 1186.76 1630.78 1186.04 1630.91 1185.34C1630.96 1185.11 1631 1184.88 1631.04 1184.65C1631.13 1184.19 1631.21 1183.74 1631.28 1183.3C1631.49 1181.97 1631.64 1180.69 1631.75 1179.43C1631.82 1178.58 1631.88 1177.74 1631.92 1176.9C1631.96 1176.05 1631.99 1175.2 1632.01 1174.32C1632.04 1173.01 1632.06 1171.65 1632.08 1170.2L1632.14 1167.17C1632.73 1158.47 1633.79 1152.66 1631.18 1144.31C1609.82 1126.63 1550.69 1102.49 1523.23 1090.09L1499.37 1078.45ZM602.347 1080.15C572.247 1092.7 492.344 1126.61 469.596 1145.36C467.015 1152.96 469.275 1159.79 470.792 1167.94C470.969 1174.91 470.815 1182.35 472.257 1189.11C478.945 1233.23 486.037 1277.28 493.529 1321.29C493.613 1322.15 493.696 1323 493.776 1323.86C494.18 1328.15 494.551 1332.43 494.89 1336.72C494.957 1337.58 495.024 1338.44 495.089 1339.3C495.154 1340.16 495.218 1341.02 495.28 1341.88L498.266 1351.86V1351.86C498.547 1354.4 498.843 1356.8 499.156 1359.11C499.469 1361.42 499.799 1363.63 500.147 1365.78C500.322 1366.85 500.501 1367.91 500.685 1368.95C501.235 1372.08 501.829 1375.1 502.473 1378.11C502.901 1380.12 503.352 1382.12 503.826 1384.15C505.248 1390.24 506.881 1396.57 508.771 1403.97C510.76 1404.23 512.778 1404.51 514.823 1404.81C516.868 1405.1 518.939 1405.41 521.034 1405.74C525.224 1406.38 529.51 1407.09 533.87 1407.83C538.231 1408.58 542.666 1409.38 547.156 1410.21C550.15 1410.76 553.167 1411.33 556.203 1411.91C560.757 1412.78 565.353 1413.67 569.969 1414.59C576.123 1415.81 582.314 1417.06 588.494 1418.32C594.674 1419.58 600.843 1420.84 606.951 1422.09C614.587 1423.64 622.128 1425.17 629.482 1426.62C632.424 1427.2 635.336 1427.76 638.211 1428.32C639.649 1428.59 641.077 1428.86 642.496 1429.13C643.915 1429.4 645.324 1429.66 646.723 1429.92L650.887 1430.68L639.628 1371.47C632.177 1336.04 616.895 1249.89 615.018 1215.12C615.138 1207.81 614.17 1196.78 612.336 1189.82C608.84 1166.62 607.128 1132.42 605.339 1108.59L602.347 1080.15ZM1658.45 1155.07C1658.02 1157.57 1657.63 1160.15 1657.27 1162.79C1657 1164.77 1656.76 1166.77 1656.52 1168.79C1655.82 1174.83 1655.23 1180.95 1654.61 1186.68C1650.12 1224.72 1639.26 1312.98 1629.14 1349L1618.7 1399.27C1622.78 1398.4 1626.87 1397.54 1630.95 1396.7C1637.77 1395.29 1644.59 1393.92 1651.41 1392.57C1656.87 1391.48 1662.33 1390.41 1667.8 1389.34C1673.26 1388.28 1678.72 1387.21 1684.18 1386.13C1697.84 1383.45 1711.48 1380.71 1725.07 1377.78C1730.51 1376.61 1735.94 1375.41 1741.36 1374.16C1744.06 1373.54 1746.77 1372.91 1749.48 1372.26C1749.84 1370.72 1750.2 1369.17 1750.56 1367.62C1750.93 1366.07 1751.29 1364.53 1751.66 1362.98C1752.4 1359.89 1753.14 1356.81 1753.89 1353.72C1755.02 1349.1 1756.17 1344.48 1757.34 1339.86C1757.73 1338.32 1758.12 1336.79 1758.51 1335.25C1765.52 1299.98 1771.23 1271.18 1773.75 1235.5C1773.87 1234.39 1774.01 1233.31 1774.14 1232.26C1774.47 1229.63 1774.8 1227.17 1774.99 1224.74C1775.1 1223.29 1775.16 1221.85 1775.15 1220.4C1775.14 1220.16 1775.14 1219.92 1775.13 1219.67C1775.12 1219.43 1775.12 1219.19 1775.1 1218.94C1774.98 1216.51 1774.61 1214.02 1773.86 1211.35C1756.48 1198.4 1682.38 1166.26 1658.45 1155.07ZM441.246 1155.84C414.127 1165.26 355.635 1195.67 327.186 1209.56L329.428 1238.43C332.934 1267.54 337.381 1294.73 342.235 1323.16L344.34 1335.43L349.709 1371.45C374.301 1376.04 398.868 1380.78 423.407 1385.64C426.134 1386.18 428.861 1386.72 431.587 1387.27C447.943 1390.53 464.286 1393.85 480.618 1397.23C477.857 1377.05 474.877 1356.92 471.671 1336.81C462.917 1281.71 452.18 1222.82 446 1167.76L444.562 1157.66L441.246 1155.84ZM1800.04 1222.38C1795.77 1256.2 1791.91 1289.9 1785.46 1323.36C1784.65 1327.19 1783.84 1331.01 1783.02 1334.82C1782.41 1337.67 1781.8 1340.52 1781.17 1343.37C1779.28 1351.9 1777.29 1360.4 1774.97 1368.93C1832.8 1356.46 1894.99 1346.04 1951.39 1333.48L1956.83 1332.25C1966.82 1331.23 1978.51 1331.84 1983.69 1322.49C1974.97 1304.72 1826.72 1234.84 1800.04 1222.38ZM298.852 1223.91C269.485 1237.59 134.13 1302.82 120.285 1315.53L116.388 1321.02C119.094 1325.53 119.982 1325.19 127.124 1326.67C135.285 1328.35 143.448 1329.99 151.614 1331.61C155.697 1332.42 159.781 1333.23 163.864 1334.03C216.953 1344.41 270.102 1353.99 323.012 1365.77C322.951 1365.36 322.88 1364.85 322.8 1364.28C322.082 1359.12 320.658 1348.11 319.359 1339.14C319.215 1338.14 319.073 1337.17 318.933 1336.23C318.793 1335.3 318.655 1334.4 318.521 1333.54C318.188 1331.41 317.878 1329.57 317.609 1328.19C317.448 1327.36 317.302 1326.7 317.175 1326.24C312.95 1300.34 309.122 1274.38 305.696 1248.37L301.355 1222.75C300.636 1223.08 299.799 1223.47 298.852 1223.91ZM633.277 1143.45C638.874 1193.77 644.209 1242.22 651.558 1292.31C663.218 1294.6 681.386 1299.05 692.658 1298.23C694.252 1296.53 695.535 1295.6 696.397 1293.67C699.018 1294.28 702.396 1295.3 705.723 1295.99C706.106 1296.07 706.488 1296.14 706.868 1296.21C707.338 1296.29 707.805 1296.37 708.267 1296.44C708.484 1296.47 708.7 1296.5 708.915 1296.52C709.765 1296.63 710.592 1296.69 711.383 1296.7C712.371 1296.71 713.301 1296.63 714.145 1296.45C714.482 1296.37 714.805 1296.28 715.112 1296.17C715.266 1296.11 715.415 1296.05 715.561 1295.99L716.582 1301.98C727.402 1308.85 772.856 1314.1 787.078 1316.07C788.583 1297.51 788.595 1269.55 800.914 1255.47L805.228 1254.75C816.833 1267.39 810.07 1301.91 808.1 1317.96C820.975 1319.61 886.623 1328.87 896.994 1325.76C900.982 1326.25 907.406 1325.46 911.786 1325.28C912.383 1325.26 912.942 1325.24 913.452 1325.25C914.642 1325.25 915.564 1325.34 916.072 1325.58C933.582 1331.78 1020.84 1332.5 1044.04 1332.48L1045.36 1332.61C1045.78 1332.65 1046.18 1332.69 1046.57 1332.73C1048.31 1332.91 1049.71 1333.07 1050.99 1333.09C1051.55 1333.1 1052.1 1333.08 1052.63 1333.03C1053.16 1332.97 1053.69 1332.88 1054.23 1332.75C1054.5 1332.68 1054.77 1332.6 1055.05 1332.51C1055.46 1332.37 1055.89 1332.2 1056.33 1332.01C1056.78 1331.81 1057.24 1331.58 1057.73 1331.31C1058.22 1331.04 1058.74 1330.74 1059.29 1330.39C1059.77 1329.59 1060.16 1328.69 1060.5 1327.71C1060.6 1327.43 1060.69 1327.15 1060.77 1326.86C1061.16 1325.55 1061.46 1324.13 1061.69 1322.61C1062.26 1318.92 1062.44 1314.7 1062.67 1310.45C1062.76 1308.9 1062.85 1307.35 1062.97 1305.81C1063.03 1305.04 1063.1 1304.28 1063.17 1303.52C1063.41 1301.25 1063.72 1299.05 1064.2 1296.98L1064.28 1332.23C1104.69 1332.23 1152.91 1331.3 1193.03 1327.92C1191.65 1312.83 1185.94 1277.08 1197.55 1266.07L1201.87 1267C1213.28 1282.41 1212.19 1308.08 1213.11 1327.4C1241.38 1325.28 1269.4 1322.83 1297.29 1317.71C1295.25 1302.54 1288.41 1269.05 1298.4 1257.15L1302.66 1257.7C1314.41 1271.66 1314.75 1298.6 1316.49 1316.93C1340.63 1314.14 1365.25 1309.4 1389.24 1305.13C1386.85 1282.1 1381.57 1253.27 1389.18 1231.89L1393.83 1230.58C1404.25 1245.56 1405.42 1261.19 1407.96 1278.76L1407.96 1279.31C1407.97 1279.5 1407.97 1279.7 1407.98 1279.9C1407.99 1280.3 1408.01 1280.72 1408.04 1281.16C1408.17 1283.33 1408.47 1285.93 1408.83 1288.61C1408.9 1289.14 1408.98 1289.68 1409.05 1290.22C1409.18 1291.09 1409.31 1291.96 1409.44 1292.83C1409.95 1296.25 1410.48 1299.53 1410.84 1301.98L1476.14 1288.07C1478.11 1280.22 1479.69 1271.77 1480.94 1262.94C1481.15 1261.47 1481.34 1259.98 1481.53 1258.49C1486.26 1221.18 1485.39 1177.84 1483.58 1144.54C1464.55 1149.9 1446.14 1154.07 1426.86 1158.5C1164.42 1211.63 893.514 1206.5 633.277 1143.45ZM665.174 993.639C635.203 1045.84 629.276 1058.49 631.791 1117.92L657.209 1123.48C663.902 1102.62 671.171 1077.34 681.122 1058.27C685.71 1061.07 691.561 1063.22 692.047 1068.05C693.895 1086.37 681.406 1111.02 677.208 1129.77C700.978 1134.53 731.296 1139.8 754.179 1146.13C758.34 1127.47 762.664 1097.99 775.961 1084.58L779.979 1084.28C789.235 1098.01 778.737 1133.46 775.109 1149.01C818.384 1154.73 859.997 1158.59 902.536 1163.85C904.933 1145.7 905.896 1120.32 918.076 1107L922.24 1106.62C932.602 1117.96 926.182 1150.28 924.35 1165.19C967.225 1168.28 1050.95 1173 1092.45 1169.75C1091.93 1150.49 1089.08 1128.99 1098.89 1112.47L1103.26 1110.81C1115.76 1119.39 1114.6 1154.84 1115.11 1169.21C1164.08 1167.92 1213 1165.01 1261.79 1160.5C1258.56 1143.18 1251.9 1119.48 1258.89 1103.58L1262.77 1102.6C1275.71 1113.27 1280.78 1141.98 1285 1158.5C1313.43 1154.23 1343.18 1150.24 1371.39 1145.27C1366.76 1124.98 1357.46 1094.36 1362.97 1075L1365.05 1072.48C1380.31 1079.9 1388.79 1125.52 1390.48 1142.16L1426.05 1134.08C1444.63 1129.08 1459.54 1125.54 1478.42 1121.91C1476.66 1111.66 1474.69 1101.48 1472.42 1091.39C1472.27 1090.72 1472.11 1090.04 1471.96 1089.37C1464.71 1057.8 1454.43 1027.23 1438.26 998.749L1437.22 996.935C1436.34 997.24 1435.46 997.544 1434.58 997.848C1421.39 1002.4 1408.11 1006.68 1394.75 1010.7C1197.48 1067.97 904.498 1059 706.166 1007.09H706.167C692.988 1002.79 678.06 998.309 665.174 993.639ZM1386.06 701.813C1347.89 714.546 1311.4 728.412 1273.78 742.645L1281.76 768.177L1290.44 796.539C1305.64 788.952 1339.84 764.53 1350.75 766.166C1355.84 771.837 1354.69 768.628 1354.63 776.004C1346.65 790.724 1324.52 800.906 1310.27 810.535C1319.36 817.991 1350.68 846.835 1358.5 847.642L1371.7 863.391C1390.33 883.111 1406.67 900.969 1424.23 921.615C1439.26 911.457 1461.13 887.914 1472.87 888.241C1478.66 894.056 1477.31 891.092 1478.26 898.961C1471.95 916.144 1450.58 926.586 1437.16 940.267C1444.33 952.341 1459.57 976.697 1464.87 988.607C1465.04 989.124 1465.21 989.629 1465.38 990.123C1466.36 993.087 1467.17 995.655 1468.15 998.056C1468.39 998.656 1468.65 999.245 1468.92 999.828C1469.1 1000.22 1469.29 1000.6 1469.49 1000.99C1469.88 1001.75 1470.31 1002.51 1470.79 1003.27C1471.03 1003.65 1471.28 1004.03 1471.55 1004.42C1471.68 1004.61 1471.82 1004.8 1471.96 1004.99C1472.38 1005.56 1472.83 1006.14 1473.32 1006.73C1473.65 1007.12 1473.99 1007.51 1474.36 1007.91C1474.54 1008.11 1474.72 1008.31 1474.92 1008.51C1482.53 1025.65 1486.68 1035.35 1497.31 1050.13C1497.66 1050.61 1498.01 1051.09 1498.36 1051.58C1511.97 1037.36 1533.97 1003.41 1553.03 972.594C1554.94 969.512 1556.82 966.461 1558.65 963.465C1567.83 948.484 1575.99 934.859 1581.71 925.448C1570.17 911.927 1558.86 898.2 1547.8 884.276C1507.64 832.036 1452.88 770.396 1408.38 721.12C1400.24 713.236 1395.33 708.261 1386.06 701.813ZM719.452 704.059C655.213 762.524 579.539 858.437 522.708 925C550.399 965.715 574.712 1011.92 604.96 1049.76L625.063 1010.05C611.6 996.05 599.043 986.209 595.029 967.106L597.288 963.611C611.773 963.956 624.845 979.587 635.55 989.809C644.027 974.973 662.543 950.139 660.524 935.798L652.962 928.065C642.385 919.094 619.769 905.191 628.23 890.841L633.598 888.29C647.923 893.716 666.316 911.97 680.328 921.567C698.447 897.989 708.991 884.944 731.081 864.484C716.401 853.938 699.655 844.612 693.056 827.856L694.388 823.658C710.675 818.944 734.88 840.641 747.237 850.229C764.685 834.717 776.517 825.192 795.44 811.527C781.723 803.225 757.213 791.124 750.903 777.346C752.311 770.596 750.942 773.07 757.374 768.293C768.124 767.12 798.015 790.198 811.971 797.37C818.119 779.665 823.59 761.731 828.374 743.611C791.926 730.818 755.793 716.507 719.452 704.059ZM758.716 877.606C727.951 900.64 697.691 941.134 677.186 973.581C696.606 980.072 713.818 985.117 733.583 990.512C742.832 971.264 754.801 942.626 771.154 929.345C773.394 928.006 777.474 924.133 782.116 919.346C782.96 918.475 783.823 917.575 784.697 916.653C786.008 915.272 787.343 913.844 788.677 912.403L791.336 909.514C783.411 918.178 774.82 927.155 771.155 929.346C780.736 949.452 764.51 975.209 755.679 994.865C784.362 1001.58 809.499 1004.2 836.18 1009.98C841.626 992.668 847.279 967.701 861.217 956.308L865.546 956.215C873.462 969.331 861.608 998.746 856.951 1012.83C890.066 1016.93 921.349 1021.15 954.795 1022.31C957.964 1006.28 961.288 975.327 973.484 965.454L976.99 966.604C985.468 983.987 979.14 1004.96 978.132 1023.63C1024.93 1026.72 1086.87 1027.37 1133.94 1023.8C1132.48 1007.92 1126.95 976.035 1136.09 963.647C1149.88 966.21 1154.88 1011.9 1156.82 1023.83C1185.09 1021.21 1223.75 1018.76 1251.04 1014.34C1246.56 995.528 1234.66 969.455 1242.27 956.587L1247.11 953.82C1259.79 959.238 1268.92 997.323 1273.16 1011.35C1299.13 1007.71 1324.89 1002.74 1350.36 996.449L1326.25 940.033C1326.69 939.577 1327.1 939.15 1327.47 938.751C1327.84 938.352 1328.18 937.981 1328.5 937.636C1329.12 936.945 1329.63 936.357 1330.07 935.854C1330.51 935.352 1330.88 934.935 1331.21 934.587C1331.38 934.413 1331.53 934.255 1331.69 934.113C1331.84 933.971 1332 933.844 1332.15 933.73C1332.53 933.446 1332.92 933.242 1333.4 933.085C1333.88 932.928 1334.44 932.818 1335.17 932.723C1335.76 932.646 1336.44 932.578 1337.27 932.503C1337.69 932.465 1338.14 932.426 1338.63 932.382C1339.97 933.179 1341.22 934.116 1342.41 935.17C1343.4 936.048 1344.34 937.009 1345.23 938.039C1345.77 938.657 1346.3 939.3 1346.8 939.966C1347.14 940.409 1347.48 940.863 1347.8 941.326C1348.13 941.789 1348.45 942.261 1348.76 942.741C1349.39 943.702 1350 944.696 1350.59 945.717C1351.03 946.483 1351.46 947.264 1351.88 948.058C1352.44 949.116 1352.98 950.196 1353.51 951.293C1353.9 952.115 1354.29 952.947 1354.67 953.785C1358.59 962.443 1361.73 971.778 1365.36 978.84C1365.48 979.068 1365.6 979.293 1365.71 979.516C1366.15 980.344 1366.56 981.119 1366.93 981.842C1367.3 982.565 1367.65 983.236 1367.97 983.858C1368.61 985.103 1369.16 986.152 1369.66 987.025C1369.98 987.571 1370.28 988.048 1370.58 988.462C1371.18 989.289 1371.76 989.862 1372.43 990.223C1372.64 990.331 1372.85 990.42 1373.07 990.491C1373.21 990.538 1373.37 990.577 1373.53 990.608C1373.76 990.656 1374.01 990.686 1374.28 990.699C1374.45 990.708 1374.64 990.71 1374.83 990.705C1375.11 990.697 1375.42 990.674 1375.74 990.637C1376.39 990.561 1377.12 990.428 1377.95 990.246C1378.78 990.064 1379.71 989.832 1380.77 989.561C1382.18 989.199 1383.81 988.765 1385.71 988.28C1387.32 987.86 1388.92 987.426 1390.52 986.978C1391.06 986.828 1391.59 986.677 1392.12 986.524L1425.64 975.861C1403.54 939.063 1377.08 906.221 1344.16 878.607C1339.57 880.208 1332.2 883.904 1327.54 886.054C1326.02 886.584 1324.53 887.111 1323.04 887.632C1319.34 888.935 1315.73 890.204 1312.11 891.406C1310.66 891.887 1309.21 892.357 1307.76 892.814C1302.66 894.414 1297.48 895.854 1291.95 897.045C1152.26 935.641 947.053 930.131 805.988 893.208V893.207C791.522 888.487 772.619 882.854 758.716 877.606ZM1322.2 927.327H1322.2H1322.2ZM1319.79 922.886C1319.99 923.197 1320.17 923.512 1320.36 923.83C1320.17 923.512 1319.99 923.197 1319.79 922.886ZM1317.98 920.179C1318.29 920.615 1318.6 921.059 1318.91 921.51C1318.75 921.284 1318.6 921.061 1318.45 920.839C1318.29 920.617 1318.14 920.397 1317.98 920.179ZM289.518 623.66C273.632 671.888 291.127 858.028 298.624 912.885C307.369 912.059 316.258 911.445 324.864 909.793L329.004 907.73C329.667 897.009 319.652 836.856 317.541 821.972C308.165 755.926 297.284 689.992 289.518 623.66ZM1817.7 614.695C1807.35 685.246 1802.08 757.038 1789.82 827.539C1788.03 837.816 1777.29 901.805 1780.17 907.175L1787.64 909.251C1792.98 910.068 1804.28 912.63 1808.6 910.78C1819.93 874.392 1835 637.243 1817.7 614.695ZM796.459 903.862V903.861V903.862ZM544.833 662.149C505.779 703.051 472.904 740.79 440.577 787.901C462.091 827.216 490.604 868.322 509.688 905.129C516.854 896.851 547.455 860.683 553.446 855.953C556.765 854.048 560.685 849.208 563.024 844.719C563.2 844.382 563.365 844.046 563.521 843.715C564.183 842.317 564.671 840.98 564.914 839.806C584.557 813.91 619.222 775.904 641.388 751.541C629.051 744.233 610.393 735.48 608.243 720.079L611.655 716.742C629.993 715.623 639.882 725.156 655.543 735.31C660.846 729.888 666.322 723.49 671.433 717.791C677.876 710.531 688.076 702.072 695.589 695.468C660.003 684.18 605.069 663.099 567.983 648.323C565.511 647.338 563.118 646.381 560.815 645.457L544.833 662.149ZM1546.26 643.718C1508.85 656.645 1472.12 670.624 1434.85 683.837C1427.14 686.635 1419.15 689.676 1411.37 692.19C1418.18 698.82 1425.57 705.754 1432.18 712.494L1440.24 721.502L1449.73 733.93C1453.44 744.826 1454.82 745.414 1466.73 747.404C1474.66 764.851 1524.4 816.266 1539.36 836.523C1550.78 825.09 1570.93 799.991 1584.82 799.685C1589.69 802.481 1590.14 802.61 1592.24 806.34L1593.25 808.178C1592.34 809.249 1591.27 810.436 1590.08 811.717C1589.29 812.571 1588.44 813.467 1587.56 814.398C1587.12 814.864 1586.66 815.339 1586.2 815.821C1583.43 818.718 1580.33 821.905 1577.19 825.211C1566.73 836.231 1555.83 848.568 1555.15 855.838L1560.73 864.312L1594.82 904.412C1618.47 866.234 1644.59 825.621 1666.75 786.855L1642.13 752.537C1616.38 719.525 1597.54 697.499 1568.45 667.235L1546.26 643.718ZM1325.73 861.034C1252.16 795.919 1119.36 763.147 1023.25 770.923C927.854 778.642 860.488 803.663 782.779 856.171L780.49 859.224C789.365 868.703 859.705 881.463 874.586 884.271C880.707 868.441 890.849 835.948 903.676 826.286C917.448 846.512 903.712 865.882 897.083 887.54C929.989 892.871 963.188 896.199 996.496 897.504C998.074 881.933 998.794 850.965 1011.5 841.145C1026.38 844.928 1019.05 887.285 1017.74 899.351L1113.37 898.411C1111.14 880.609 1106.32 858.892 1114.21 842.89L1117.64 841.333C1130.87 851.047 1132.49 881.932 1134.22 897.136C1172.23 895.175 1201.46 890.255 1238.98 883.273C1231.91 866.919 1221.81 848.73 1224.86 831.168L1228.08 829.399C1243.17 836.344 1254.1 864.323 1261.23 879.608C1284.67 874.191 1303.19 869.956 1325.73 861.034ZM271.153 587.699C213.896 664.092 185.276 798.943 194.394 892.005L227.075 892.881C226.744 816.139 229.039 743.615 249.36 668.943C252.262 658.28 272.1 592.245 271.153 587.699ZM1837.43 589.615C1874.62 714.212 1883.18 762.653 1883 892.262L1914.74 890.546C1919.21 796.41 1901.11 674.321 1842.65 594.297C1841.34 592.509 1839.18 590.952 1837.43 589.615ZM892.227 648.98C880.963 676.112 871.991 704.27 862.598 732.062C861.609 734.988 860.615 737.909 859.614 740.825C858.613 743.741 857.604 746.651 856.584 749.554C855.564 752.456 854.532 755.352 853.487 758.238C851.397 764.012 849.25 769.749 847.021 775.438C846.186 777.572 845.338 779.698 844.478 781.817C843.617 783.936 842.745 786.047 841.857 788.15L892.146 768.249C986.757 735.443 1078.22 736.778 1174.65 757.355C1187.01 760.527 1198.26 763.746 1209.18 767.311C1211.71 768.133 1214.21 768.974 1216.7 769.837C1219.2 770.7 1221.68 771.585 1224.17 772.496C1226.66 773.407 1229.14 774.343 1231.64 775.309C1239.14 778.206 1246.72 781.367 1254.65 784.891L1257.31 786.079C1242.97 740.042 1227.49 694.366 1210.88 649.094C1194.05 654.815 1173.98 657.998 1156.35 661.377C1079.76 674.22 997.011 670.802 920.842 656.434L892.227 648.98ZM1635.26 764.142H1635.26H1635.26ZM316.321 563.307C313.761 565.526 312.394 565.497 312.316 569.126C312.042 582.093 411.988 743.49 426.085 763.96L473.056 704.975C493.697 682.345 514.612 659.966 535.797 637.843L414.164 594.617C388.144 585.228 341.497 567.442 316.321 563.307ZM1791.31 563.108C1787.38 559.974 1789.51 560.819 1783.06 561.54L1769.41 565.839C1708.62 585.581 1629.62 612.846 1569.95 635.938C1577.66 643.276 1586.51 651.234 1593.07 659.459C1616.25 684.249 1636.28 705.787 1656.98 732.929C1662.02 740.786 1674.09 755.805 1680.14 763.878C1681.19 762.469 1682.21 761.046 1683.21 759.607C1700.22 735.032 1794.93 584.3 1792.22 564.022L1792.18 563.79C1791.86 563.545 1791.57 563.317 1791.31 563.108ZM938.004 512.146C924.945 550.365 910.887 587.869 898.766 626.393C916.438 632.166 922.876 633.553 940.998 636.535C945.891 617.95 950.922 597.27 956.522 579.082C965.352 576.787 962.482 576.113 968.851 579.686C974.733 592.574 965.601 624.552 962.423 639.499C987.235 641.562 1012.09 643.065 1036.97 644.002L1038.02 644.133C1039.52 644.327 1041.4 644.591 1043.43 644.853C1049.01 645.573 1055.72 646.283 1058.76 645.511C1085.55 644.21 1111.66 643.083 1138.23 639.315C1138.85 639.361 1139.44 639.4 1140 639.434C1148.44 639.938 1150.52 639.11 1159.17 636.34C1173.26 634.71 1189.77 630.176 1203.76 626.776C1191.42 591.594 1177.9 553.096 1167.55 517.281C1167.22 516.126 1166.89 514.974 1166.56 513.824C1166.11 513.94 1165.66 514.055 1165.21 514.169C1151.12 517.706 1134.55 520.306 1120.15 523.364C1069.34 529.265 1017.96 528.035 967.491 519.704H967.49C958.071 517.46 947.031 515.115 938.004 512.146ZM956.8 569.938H956.799H956.8ZM958.959 555.929C958.687 557.358 958.43 558.771 958.191 560.159C958.43 558.771 958.687 557.358 958.959 555.929ZM976.862 400.1C970.713 416.872 964.714 433.698 958.866 450.576C956.917 456.202 954.985 461.834 953.069 467.471C952.431 469.35 951.794 471.23 951.159 473.11C949.255 478.751 947.366 484.398 945.495 490.051C949.138 491.011 952.91 492.047 956.736 493.057C958.267 493.461 959.806 493.86 961.349 494.249C962.12 494.444 962.893 494.636 963.666 494.824C965.211 495.201 966.758 495.563 968.302 495.904C972.932 496.93 977.531 497.77 981.969 498.246C1023.79 502.34 1072.84 505.186 1114.61 499.124L1156.73 491.201C1148.27 464.109 1138.84 434.734 1129.4 407.663L1127.51 402.281L1091.54 407.605C1063.91 409.934 1039.23 408.99 1011.71 406.639C1000.33 404.626 988.037 402.687 976.862 400.1ZM1052.65 205.923C1049.95 206.59 1047.76 206.67 1045.98 208.177C1038.14 219.618 994.301 352.086 985.136 377.044L1013.26 382.123C1034.65 384.004 1052.82 383.94 1074.3 383.954C1075.66 383.865 1077.02 383.761 1078.38 383.644C1091.52 382.511 1104.51 380.163 1117.55 378.042C1111.21 350.081 1067.82 219.76 1052.65 205.923ZM1051.76 27.915C962.6 45.141 1002.93 140.81 1055.02 180.893C1099.69 140.388 1143.93 35.5339 1051.76 27.915Z" fill="#301E0F"/>
</svg>
