<svg class="ic_present" width="2058" height="1921" viewBox="0 0 2058 1921" fill="none" xmlns="http://www.w3.org/2000/svg">
    <path d="M529.412 0C687.499 0.835718 832.797 203.42 930.436 304.744C936.14 310.659 955.445 312.973 974.917 305.065C1016.11 288.286 1074.14 310.402 1118.44 307.959C1228.09 212.935 1369.31 -18.9021 1541 10.0293C1610.1 21.6664 1770.43 272.148 1734.75 357.464C1700.67 438.922 1620.19 472.546 1543.89 507.971C1686.97 507.006 1846.51 496.334 1987.47 518.129C2091.22 534.202 2046.89 709.656 2054.53 781.855C2061.94 851.741 2052.38 902.016 1982.07 932.748C1979.26 1064.74 1995.59 1763.98 1961.35 1832.58C1938.98 1877.45 1895.53 1901.89 1849.28 1915.77C1488.54 1925.16 1082.24 1917.25 719.268 1915.71C615.237 1915.45 511.2 1915.9 407.17 1917.06C298.393 1917.83 101.882 1944.06 83.1748 1787.7C72.4227 1697.76 77.9333 1590.58 78.1133 1499.16C79.451 1311.24 78.9819 1123.25 76.6992 935.32C29.6645 911.596 2.88612 888.194 2.44238 831.553C0.107873 533.109 -37.8071 491.384 292.516 507.007C337.582 509.128 453.96 507.392 512.865 507.199C443.355 481.933 360.18 437.699 328.534 367.686C280.735 261.925 436.558 41.9184 529.412 0ZM1658.46 933.776C1671.34 1020.31 1711.37 1227.33 1714.63 1302.81C1647.74 1260.77 1609.22 1237.17 1539.77 1202.84L1533.95 1208.88C1496.56 1248.16 1459.06 1312.91 1427.66 1339.27L1417.44 1338.69C1399.16 1314.77 1367.29 988.491 1360.85 933.134L1203.04 932.619C1201.15 1248.36 1199.55 1574.57 1202.85 1889.99L1605.29 1890.12C1640.04 1890.25 1676.96 1891.47 1711.57 1890.51C1775.88 1888.71 1861.17 1901.56 1911.77 1853.67C1948.73 1818.63 1953.13 1763.4 1953.06 1715.44C1952.89 1591.55 1951.88 1467.59 1950.92 1343.7L1951.09 932.555L1658.46 933.776ZM699.963 931.851C693.982 987.592 661.474 1316.51 638.729 1337.98C604.948 1328.6 555.501 1241.09 515.007 1203.61C455.432 1233.96 400.166 1268.23 343.087 1302.75C356.36 1181.05 382.437 1056.9 398.18 933.457L104.641 932.88L105.322 1503.99C104.846 1884.02 58.0951 1891.47 450.758 1889.93L856.366 1889.35L856.295 1341.46C856.16 1206.44 857.389 1069.11 855.749 934.358C804.419 933.394 751.132 931.722 699.963 931.851ZM1176.01 537.549C1101.87 532.598 977.874 532.791 902.165 536.584L886.313 545.585C880.545 574.452 882.455 904.526 883.117 950.432C887.587 1261.03 877.954 1580.3 884.353 1889.8L1164.5 1889.61C1167.23 1885.49 1169.97 1881.44 1172.71 1877.33C1175.18 1430.89 1174.46 984.057 1176.01 537.549ZM1575.13 647.553C1522.69 491.13 1287.13 463.099 1139.54 476.922L1140.05 497.303C1155.96 507.782 1186.88 514.726 1209.38 524.627C1308.55 568.153 1348.22 665.169 1365.54 769.45C1393.95 940.531 1409.52 1126.91 1429.2 1301.47C1465.21 1248.94 1487.29 1212.81 1539.56 1174.68L1598.74 1204.32C1624.91 1218.85 1659.04 1236.53 1683.43 1252.54C1644.37 1061.66 1635.58 827.956 1575.13 647.553ZM912.236 494.409C897.536 462.778 792.663 475.893 758.322 477.693C667.108 490.23 576.055 523.534 517.946 598.498C426.796 716.153 403.144 1094.7 376.604 1253.38C418.391 1228.17 471.638 1193.07 516.435 1176.68C531.09 1188.18 549.477 1201.62 562.865 1214.03C585.392 1241.74 609.077 1270.03 629.971 1298.9C643.765 1177.38 656.729 1055.04 671.629 934.038C688.272 798.832 701.764 634.566 813.171 541.6C845.961 514.211 891.831 514.661 912.236 494.409ZM541.959 534.977C391.794 537.484 241.609 537.934 91.4316 536.455C76.4029 540.505 50.3909 548.799 45.4131 565.579C25.304 633.407 11.6587 847.115 63.915 894.819C120.301 916.1 329.274 907.227 403.774 906.52L413.466 832.584C432.552 716.151 445.883 613.863 541.959 534.977ZM2000.96 551.88C1886.28 524.17 1651.8 527.642 1530.76 535.871C1634.81 677.056 1630.75 737.299 1656.49 905.872C1733.32 906.451 1952.2 918.665 2006.26 889.605C2038.31 845.436 2039.76 561.267 2000.96 551.88ZM1203.59 548.094C1203.18 666.07 1200.93 789.06 1202.66 906.586L1358.11 905.879C1345.73 785.781 1328.17 605.121 1203.59 548.094ZM844.874 550.727C756.007 619.776 697.114 787.128 708.175 897.261C716.142 904.526 713.217 904.526 721.287 905.876L855.233 906.197C855.401 863.122 860.134 566.032 850.713 552.463L844.874 550.727ZM1110.44 343.774C1090.61 316.45 996.492 327.379 962.499 328.408C925.162 365.634 918.359 447.349 941.761 492.418C975.677 519.421 1050.81 508.62 1099.19 507.784C1133.06 474.995 1137.45 380.935 1110.44 343.774ZM457.517 277.163C373.57 299.408 299.77 334.319 400.585 416.034C459.163 463.546 531.142 482.641 603.732 497.042C633.456 485.984 673.565 469.718 703.493 462.389C614.17 439.372 521.928 406.004 494.938 311.495C488.372 288.478 494.216 288.157 474.789 276.648L457.517 277.163ZM1569.99 272.531C1551.71 396.807 1473.5 430.625 1360.51 461.936C1418.71 485.788 1438.19 502.118 1498.42 487.396C1659.33 448.434 1827.89 297.283 1569.99 272.531ZM516.801 274.977C540.518 445.479 751.51 445.543 885.721 447.601C855.683 394.945 652.323 307.766 586.89 289.893C563.861 283.528 540.453 278.513 516.801 274.977ZM1542.58 296.258C1523.76 275.17 1512.93 280.249 1485.74 284.171C1360.77 320.56 1281.69 369.229 1167.81 432.557L1164.04 439.757C1183.99 447.6 1199.04 445.929 1220.54 446.058C1304.2 443.1 1539.71 410.44 1542.58 296.258ZM919.862 331.233C827.825 228.109 668.271 20.253 517.502 32.0186C430.089 99.3326 388.392 196.991 345.846 295.294C501.689 210.75 625.648 261.155 772.289 340.234C812.661 361.515 862.435 386.01 899.959 410.634C906.37 384.724 912.711 356.822 919.862 331.233ZM1536.38 35.75C1523.9 29.7069 1497.9 31.635 1483.35 32.5352C1339.03 89.6264 1232.55 220.911 1136.68 338.308C1143.73 361.26 1151.83 384.598 1155.56 408.193L1320.22 318.185C1449.27 257.365 1579.22 217.953 1711.17 292.403C1679.1 212.167 1619.29 75.9968 1536.38 35.75Z" fill="#301E0F"/>
</svg>
