<svg width="1926" height="1450" viewBox="0 0 1926 1450" fill="none" xmlns="http://www.w3.org/2000/svg">
<path d="M140.105 3.34726C208.052 -0.381636 273.8 -0.188842 341.645 0.196951C805.303 2.76847 1269.09 0.00437665 1732.75 1.28991C1852.04 -0.76721 1923.68 76.7689 1924 194.423C1925.03 547.643 1923.74 901.442 1925.22 1254.73C1925.67 1357.08 1884.19 1406.52 1792.23 1445.29C1745.87 1451.78 1631.59 1449.02 1581.18 1448.95L1205.43 1448.05L556.755 1448.18C434.763 1448.31 311.613 1451.72 189.776 1446.57C162.857 1445.42 137.436 1442.97 112.253 1432.62C70.3119 1415.46 33.8492 1381.64 16.949 1339.33C-6.60681 1280.31 -0.954109 299.926 6.3448 175.071C7.71461 151.669 9.59881 129.36 19.1423 107.629C43.7913 51.5664 84.6785 24.8209 140.105 3.34726Z" fill="#301E0F"/>
<path d="M145.102 29.2623C208.972 24.1189 315.987 26.7549 382.031 26.7549L795.207 26.9478C1100.03 27.1405 1408 17.3679 1712.49 27.6544C1741.88 28.6186 1779.44 28.5546 1807.15 39.2269C1840.34 51.9568 1872.04 89.7605 1885.61 122.035C1905.42 169.161 1900.21 1172.57 1895.64 1279.16C1894.87 1296.52 1892.43 1312.53 1885.99 1328.73C1866.7 1377.4 1828.25 1399.39 1782.46 1418.61C1719.95 1424.66 1611.66 1421.7 1545.81 1421.7L1121.83 1421.12L528.331 1420.22C421.645 1420.09 313.736 1423.37 207.178 1418.61C176.922 1417.26 140.433 1415.01 111.971 1404.15C81.8038 1392.57 54.4411 1359.98 42.7369 1330.15C19.9975 1272.15 27.4189 331.434 33.1614 207.865C34.5953 176.94 34.3959 138.879 47.8622 110.462C68.4536 67.0012 102.402 46.4286 145.102 29.2623Z" fill="white"/>
<path d="M1367.55 274.859C1373.98 277.817 1382.08 284.118 1388.19 288.361C1385.23 315.364 857.714 967.413 817.843 1006.12C775.272 969.792 640.225 816.584 593.474 766.758C579.005 751.714 577.011 745.927 584.921 727.99C617.268 734.355 783.503 929.674 820.287 968.571C1003.31 743.677 1188.26 503.546 1367.55 274.859Z" fill="#301E0F"/>
<path d="M284.024 1181.11C353.798 1173.72 529.037 1178.09 607.171 1178.15L1244.72 1178.73C1358.41 1178.86 1505.42 1178.22 1622.33 1179.05C1634.49 1179.12 1637.12 1190.69 1642.52 1201.3C1585.1 1208.89 1412.82 1205.35 1345.55 1205.35L756.686 1205.09C619.261 1204.96 442.479 1206.64 302.224 1202.84C293.606 1202.59 290.133 1191.33 284.024 1181.11Z" fill="#301E0F"/>
</svg>
