<svg width="1926" height="1450" viewBox="0 0 1926 1450" fill="none" xmlns="http://www.w3.org/2000/svg">
<path d="M140.104 3.34668C208.052 -0.382208 273.8 -0.189503 341.645 0.196289C805.303 2.7678 1269.09 0.00450099 1732.75 1.29004C1852.04 -0.766897 1923.68 76.7688 1924 194.423C1925.03 547.643 1923.74 901.441 1925.22 1254.73C1925.67 1357.08 1884.19 1406.52 1792.23 1445.29C1745.87 1451.78 1631.59 1449.02 1581.18 1448.95L1205.43 1448.05L556.755 1448.18C434.763 1448.31 311.613 1451.72 189.775 1446.57C162.856 1445.42 137.436 1442.97 112.253 1432.62C70.3119 1415.46 33.8496 1381.64 16.9492 1339.33C-6.60652 1280.31 -0.954168 299.928 6.34473 175.071C7.71453 151.669 9.5992 129.36 19.1426 107.629C43.7916 51.5665 84.6781 24.8203 140.104 3.34668ZM1712.49 27.6543C1408 17.3678 1100.03 27.1399 795.207 26.9473L382.03 26.7549C315.986 26.7549 208.972 24.1183 145.102 29.2617C102.402 46.4279 68.4537 67.0009 47.8623 110.462C34.396 138.879 34.595 176.94 33.1611 207.864C27.4186 331.433 19.9979 1272.15 42.7373 1330.15C54.4415 1359.98 81.8039 1392.57 111.971 1404.15C140.433 1415.01 176.922 1417.26 207.179 1418.61C313.736 1423.37 421.645 1420.09 528.331 1420.22L1121.83 1421.12L1545.81 1421.7C1611.66 1421.7 1719.95 1424.65 1782.46 1418.61C1828.25 1399.39 1866.7 1377.4 1885.99 1328.73C1892.42 1312.53 1894.87 1296.52 1895.64 1279.16C1900.21 1172.57 1905.42 169.16 1885.61 122.034C1872.04 89.7599 1840.34 51.9565 1807.15 39.2266C1779.44 28.5543 1741.88 28.6186 1712.49 27.6543Z" fill="#301E0F"/>
<path d="M1367.55 274.859C1373.98 277.817 1382.08 284.118 1388.19 288.361C1385.23 315.364 857.714 967.413 817.843 1006.12C775.272 969.792 640.225 816.584 593.474 766.758C579.005 751.714 577.011 745.927 584.921 727.99C617.268 734.355 783.503 929.674 820.287 968.571C1003.31 743.677 1188.26 503.546 1367.55 274.859Z" fill="#301E0F"/>
<path d="M284.024 1181.11C353.798 1173.72 529.037 1178.09 607.171 1178.15L1244.72 1178.73C1358.41 1178.86 1505.42 1178.22 1622.33 1179.05C1634.49 1179.12 1637.12 1190.69 1642.52 1201.3C1585.1 1208.89 1412.82 1205.35 1345.55 1205.35L756.686 1205.09C619.261 1204.96 442.479 1206.64 302.224 1202.84C293.606 1202.59 290.133 1191.33 284.024 1181.11Z" fill="#301E0F"/>
</svg>
