<svg width="2315" height="3227" viewBox="0 0 2315 3227" fill="none" xmlns="http://www.w3.org/2000/svg">
<path d="M710.252 0.138787C866.115 -4.05929 991.084 87.634 1101.06 186.534C1157.92 160.901 1157.37 185.422 1207.52 179.822C1207.2 179.854 1257.64 141.922 1263.36 137.512C1348.11 72.1843 1462.36 -2.07278 1573.27 0.144982C1604.01 0.762075 1634.71 12.5211 1655.2 37.3444C1687.2 76.1125 1698.23 148.017 1694.29 196.763C1691.23 234.792 1669.19 255.237 1641.88 276.877C1807.53 283.101 1972.61 276.562 2137.59 282.065C2139.59 334.547 2137.89 396.081 2137.63 449.263L2035.59 449.951L2036.47 659.871C2111.53 728.02 2197.09 804.727 2217.69 907.755C2244.62 1042.44 2087.77 1127.62 2086 1251.75C2084.44 1360.66 2241.94 1420.17 2240.83 1536.31C2245.77 1650.12 2167.1 1681.75 2158.03 1785.7C2153.36 1855.3 2211.58 1924 2256.4 1972.26C2205.85 1991.45 2188.67 2001.68 2143.11 2029.11C2138 2021.48 2132.95 2013.81 2127.97 2006.1C2040.51 1870.51 2088.99 1825.16 2124.82 1687.51C2150.21 1590 2087.3 1505.8 2036.43 1428.15L2035.93 2627.14L2135.54 2627.82L2134.23 2486.99C2122.97 2480.62 2100.11 2467.5 2096.28 2455.71C2080.4 2406.89 2067.63 2349.66 2084.62 2301.05C2098.87 2286.34 2096.38 2291.33 2124.75 2290.58C2146.82 2270.59 2121.52 2270.33 2142.71 2236.96L2155.55 2235.74C2169.11 2255.93 2158.65 2254.61 2165.54 2284.34C2182.92 2290.61 2190.66 2289.38 2209.49 2289.53C2221.07 2303.64 2218.81 2375.79 2218.36 2397.67C2217.44 2442.98 2206.43 2448.89 2179.5 2471.73C2155.7 2491.9 2164.99 2594.83 2166.16 2628.11C2199.66 2627.39 2298.61 2616.89 2314.38 2641.26L2309.82 2647.51C2278.14 2668.31 1985.02 2653.71 1925.56 2657.66C1860.97 2661.96 1739.69 2658.43 1672.19 2656.52C1755.07 2788.03 1853.91 2921.06 1937.19 3053.6C1968.45 3103.37 2019.36 3174.07 2043.48 3225.62L1777.39 3225.38L260.42 3226.09C288.298 3170.09 348.246 3086.57 384.039 3031.51C465.53 2906.14 550.86 2783.06 629.495 2655.69C439.672 2656.85 247.154 2660.23 57.3949 2655.56C31.4199 2654.92 15.3211 2657.25 1.42288 2641.59L0 2641.81C42.4688 2621.39 94.0045 2625.53 140.336 2626.75C143.517 2525.97 153.506 2508.28 94.999 2428.87C83.0903 2412.71 83.524 2311.31 94.4394 2290.22L125.441 2286.47C141.468 2271.43 136.42 2273.97 140.696 2246.36C151.615 2232.07 144.698 2235.98 161.439 2233.16L171.458 2242.59C170.701 2258.69 168.919 2267.29 174.914 2282.38C192.46 2287.92 197.971 2287.24 216.672 2287.77C230.639 2306.43 226.543 2428.68 213.418 2443.68C158.377 2506.61 170.371 2535.68 171.178 2623.73L272.735 2627.64L272.587 1426.04C171.548 1584.54 150.197 1624.89 219.771 1803.87C248.183 1876.96 203.392 1968.18 165.931 2032.08C129.839 2006.23 101.447 1994.53 60.9562 1976.85C58.2754 1944.7 146.252 1883.5 150.363 1808.24C157.333 1680.65 17.9602 1612.23 82.8652 1473.7C117.213 1400.38 221.598 1339.41 221.218 1254.81C220.665 1132.42 72.8991 1061.7 86.6577 922.382C97.7079 810.501 193.951 723.816 274.194 656.374C272.548 588.784 274.316 516.828 274.883 448.878L170.435 451.102C169.53 394.171 171.1 337.485 172.284 280.567C308.599 279.378 530.647 271.303 662.143 281.249C644.742 263.89 630.613 243.979 615.675 224.389C610.659 128.131 612.916 44.8087 710.252 0.138787Z" fill="#301E0F"/>
<path d="M1095.08 1178.09C1120.27 1176 1145.18 1174.26 1170.48 1174.71C1292.85 1178.1 1408.94 1229.69 1493.44 1318.24C1667.79 1501.79 1628.73 1750.31 1628.19 1985.43C1629.33 2199.88 1628.33 2414.34 1625.21 2628.77C1502.35 2625.09 1370.42 2627.72 1246.85 2628.22C1060.28 2627.69 867.587 2624.78 681.506 2629.18C676.317 2418.33 684.227 2193.88 681.867 1981.62C680.793 1885.27 677.571 1638.12 692.426 1556.62C705.976 1482.76 737.172 1413.26 783.357 1354.04C862.269 1251.46 968.254 1195.26 1095.08 1178.09Z" fill="white"/>
<path d="M300.027 924.149C578.923 920.111 864.34 924.953 1143.44 925.165C1431.01 922.927 1718.58 922.882 2006.15 925.017C1997.52 1483.57 2005.07 2067.09 2004.93 2628.06C1929.26 2628.16 1853.59 2627.34 1777.95 2625.6C1769.7 2350.81 1776.19 2072.94 1776.79 1797.91C1777.19 1612.42 1781.1 1506.95 1695.11 1335.57C1671.6 1293.71 1631.6 1242.63 1598.69 1208.11C1487.24 1089.77 1332.92 1021.14 1170.38 1017.62C1002.18 1015.52 846.173 1070.28 725.21 1189.85C492.294 1420.06 532.165 1716.63 532.943 2014.27L532.229 2628.03L303.32 2627.87C286.169 2074.48 307.705 1483.24 300.027 924.149Z" fill="white"/>
<path d="M301.481 449.289L2007.02 449.868C2001.47 583.087 2006.24 756.219 2005.87 893.322L300.4 891.817C305.539 752.818 301.481 589.317 301.481 449.289Z" fill="white"/>
<path d="M1341.6 547.297C1490.34 565.671 1491.02 755.976 1355.45 791.394C1205.18 769.786 1203.77 574.267 1341.6 547.297Z" fill="#301E0F"/>
<path d="M1317.16 577.987C1439.43 562.531 1454.95 693.925 1371.17 762.106C1258.96 775.569 1241.63 648.432 1317.16 577.987Z" fill="white"/>
<path d="M472.41 733.947C481.124 698.992 504.763 573.089 535.078 561.323C562.113 584.16 586.788 691.932 601.083 733.214C610.666 695.732 634.8 583.851 650.002 554.939L661.237 552.618L670.195 562.448L668.131 579.53C657.706 617.045 633.327 767.102 597.476 775.512C564.897 748.785 543.721 651.209 531.509 608.32C518.712 654.475 505.715 752.495 476.648 782.873L467.999 781.227C437.659 748.991 405.884 600.335 393.582 549.859L415.82 552.759C436.488 570.696 460.558 693.09 472.41 733.947Z" fill="#301E0F"/>
<path d="M1506.16 546.891C1549.48 566.435 1581.08 652.612 1607.78 703.377C1624.86 665.542 1661.22 568.223 1693.39 551.571L1702.43 555.744C1719.59 594.132 1717.04 750.6 1695.3 787.863L1688.25 783.003C1680.89 738.584 1682.9 698.376 1683.54 653.596C1684.02 640.352 1683.52 640.776 1679.27 628.04C1655.46 641.091 1638.99 718.486 1608.15 743.772C1580.35 733.729 1541.03 642.024 1526.14 612.147C1526.72 653.153 1532.08 751.031 1512.48 783.704L1504.68 772.433C1499.62 714.963 1491.07 600.388 1506.16 546.891Z" fill="#301E0F"/>
<path d="M1771.63 551.824C1815.27 551.946 1849.28 547.857 1889.44 563.724L1890.83 571.446C1863.9 583.79 1831.12 579.431 1800.72 578.229L1803.05 653.026C1834.34 650.531 1866.73 643.343 1889.92 661.982L1887.73 673.445C1858.54 688.374 1823.87 670.597 1802.48 687.596L1801.26 758.651C1836.82 757.52 1869.53 753.077 1901.49 768.642L1894 776.171C1856.38 789.749 1814.13 785.622 1773.75 784.677L1771.63 551.824Z" fill="#301E0F"/>
<path d="M715.937 552.278C759.846 551.404 793.524 546.62 833.89 563.188L834.153 571.006C805.736 582.906 775.486 578.792 744.277 577.59L745.486 654.194C776.264 651.885 786.469 650.947 817.517 654.567L812.167 655.601L818.186 666.756L831.208 658.701L829.182 663.85C792.591 683.472 785.266 677.917 743.917 682.938C741.557 827.435 789.312 721.398 850.841 767.798L847.89 777.531C821.093 789.818 750.078 785.169 716.683 784.867L715.937 552.278Z" fill="#301E0F"/>
<path d="M1137.02 546.453C1147.82 547.816 1158.59 549.391 1169.33 551.172C1192.83 555.267 1200.53 558.765 1212.95 576.291L1208.95 584.308C1170.57 579.756 1103.13 569.984 1087.28 614.371C1055.28 703.969 1090.04 792.248 1196.39 746.98L1201.13 742.145L1211.56 745.867L1211.81 759.144C1187.47 792.961 1142.06 798.953 1108.96 780.72C1000.02 720.697 1032.43 583.633 1137.02 546.453Z" fill="#301E0F"/>
<path d="M901.446 547.312L917.182 552.064C938.84 578.147 929.284 714.793 928.77 758.3C969.103 756.622 1013.22 742.992 1028.83 782.48C993.65 785.946 935.227 784.885 898.301 785.354C897.896 719.744 894.777 609.599 901.446 547.312Z" fill="#301E0F"/>
<path d="M813.388 2654.57C1017.34 2663.67 1283.89 2656.56 1492.95 2655.81C1568.6 2815.35 1688.64 3035.71 1774.75 3194.51C1687.41 3195.05 1600.06 3195.13 1512.72 3194.76C1190.01 3194.71 860.764 3198.02 538.557 3192.98L813.388 2654.57Z" fill="white"/>
<path d="M1105.98 1049.85C1118.07 1048.64 1130.21 1047.92 1142.36 1047.69C1302.22 1046.36 1456.01 1108.76 1569.74 1221.08C1646.66 1297.22 1700.61 1393.44 1725.43 1498.77C1755.26 1620.73 1746.58 1849.75 1746.31 1984.5L1745.68 2623.81C1718.82 2624.36 1685.45 2627.73 1658.11 2629.76C1650.79 2397.32 1661 2151.17 1656.98 1918.01C1655.07 1807.56 1665.2 1647.84 1644.49 1543.36C1629.76 1468.52 1598.05 1398.06 1551.81 1337.4C1466.05 1223.54 1347.58 1163.9 1208.18 1145.19C1047.26 1139.19 933.027 1169.24 811.305 1278.86C674.838 1403 654.079 1535.55 652.632 1707.49C650.06 2012.44 660.118 2324.75 648.015 2628.25L563.868 2628.33L563.849 1970.12C563.798 1879.49 565.392 1785.92 563.965 1695.53C558.653 1359.66 758.367 1086.26 1105.98 1049.85Z" fill="white"/>
<path d="M201.23 310.793C432.597 304.107 682.709 308.266 915.11 308.407C1312.49 306.813 1709.87 307.424 2107.24 310.246C2108.27 343.324 2111 381.089 2104.93 413.139L2092.5 420.591L766.071 421.935C580.64 421.999 386.829 418.128 202.305 422.359L201.23 310.793Z" fill="white"/>
<path d="M665.05 2656.61C705.519 2660.66 739.223 2657.15 779.499 2654.3C688.253 2827.49 600.614 3018.01 503.619 3186.05C488.024 3198.09 463.305 3194.87 441.813 3195.07L315.242 3194.49C429.196 3017.79 558.415 2834.88 665.05 2656.61Z" fill="white"/>
<path d="M1528.23 2656.95L1635.94 2654.77C1707.43 2764.81 1779.73 2874.3 1852.86 2983.25C1895.87 3048.05 1951.34 3127.54 1985.95 3195.23L1808.38 3194.9C1747.96 3071.95 1676.74 2948.66 1614.17 2826.48C1593.92 2786.94 1540.48 2695.36 1528.23 2656.95Z" fill="white"/>
<path d="M704.676 31.6857C851.414 15.3429 1006.7 130.4 1099.83 233.878C1023.36 211.729 758.077 29.1721 693.879 131.197C690.799 157.203 693.281 161.054 704.522 185.048C831.433 262.513 991.926 241.046 1052.13 270.415L1051.48 277.455C1022.01 280.907 971.579 279.512 940.01 278.188C845.021 274.202 624.851 308 639.429 153.243C644.767 96.6338 663.97 67.1813 704.676 31.6857Z" fill="white"/>
<path d="M1528.52 32.8358C1565.16 29.081 1615.09 28.0781 1633.44 60.1147C1727.98 225.139 1614.26 283.787 1462.09 279.936C1389.45 278.097 1331.75 283.388 1267.39 275.139L1268.78 270.889C1350.69 245.005 1435.26 250.136 1537.9 215.611C1568.53 203.833 1595.02 196.761 1610.24 166.769C1634.3 -12.2844 1267.89 205.601 1212.72 232.199C1291.23 133.929 1407.17 63.9143 1528.52 32.8358Z" fill="white"/>
<path d="M264.548 705.414C277.802 718.137 272.201 779.35 271.706 800.142C206.839 858.165 186.531 883.381 160.714 966.446C185.042 1057.57 276.76 1166.16 264.555 1219.85L258.613 1212.65C210.254 1111.95 108.996 1028.2 119.948 915.456C128.271 829.774 201.579 757.175 264.548 705.414Z" fill="white"/>
<path d="M2036.48 708.609C2091.79 737.123 2163.28 824.399 2181.7 884.416C2217.77 1001.94 2108.5 1095.97 2059.62 1191.98L2056.16 1198.89C2051.07 1211.6 2050.19 1211.19 2040.48 1221.18C2022.48 1156.38 2142.55 1037.9 2142.22 969.693C2141.87 896.857 2084.61 848.065 2037.5 801.389L2036.48 708.609Z" fill="white"/>
<path d="M2047.09 1249.63C2062.96 1277.52 2067.45 1315.15 2085.68 1342.58C2122.02 1397.25 2185.79 1446.78 2205.83 1510.46C2223.62 1566.98 2199.55 1613.2 2172.67 1661.8L2162.8 1668.68L2157.76 1662.28C2178.42 1460.25 2004.82 1476.58 2047.09 1249.63Z" fill="white"/>
<path d="M259.867 1246.43C312.348 1355.55 203.334 1467.68 162.265 1555.78C139.284 1605.08 151.833 1631.38 143.929 1667.12L133.537 1655.17C17.8927 1451.37 219.23 1440.25 259.867 1246.43Z" fill="white"/>
<path d="M1523.67 129.038C1555.75 125.785 1562.77 127.322 1585.29 144.565L1583.22 157.648C1530.35 211.255 1446.83 211.834 1372.31 222.005C1345.43 224.133 1310.2 229.848 1282.79 233.494C1360.13 179.457 1431.51 147.471 1523.67 129.038Z" fill="white"/>
<path d="M265.179 846.57C276.086 858.259 282.761 1095.98 264.555 1112.69L249.488 1090.88C174.124 980.651 182.958 943.735 265.179 846.57Z" fill="white"/>
<path d="M736.946 128.391C822.102 130.911 927.052 171.293 997.083 219.872L992.067 226.661L980.98 225.588C919.901 219.538 767.794 208.827 730.347 163.263C724.843 142.291 724.329 151.227 736.946 128.391Z" fill="white"/>
<path d="M2035.63 844.078C2131.68 903.799 2119.87 992.085 2063.88 1073.54L2034.28 1123.6C2036.95 1030.45 2037.4 937.25 2035.63 844.078Z" fill="white"/>
<path d="M116.897 2314.19L197.019 2315.87C196.794 2362.44 193.09 2403.49 189.203 2449.77C159.646 2455.42 149.921 2458 126.802 2440.31C112.004 2407.82 116.918 2353.11 116.897 2314.19Z" fill="white"/>
<path d="M2109.37 2316.14L2190.54 2314.55L2183.54 2447.22C2149.51 2451.57 2143.25 2455.14 2119.83 2437.71C2106.04 2408.77 2110.4 2352.41 2109.37 2316.14Z" fill="white"/>
<path d="M1148.23 198.602C1186.71 208.342 1216.79 221.11 1208.25 267.053C1188.66 284.206 1198.29 279.41 1167.16 281.468C1129.88 283.493 1124.84 288.032 1100.75 267.156C1089.44 227.308 1113.8 213.954 1148.23 198.602Z" fill="white"/>
<path d="M2120.7 1804.05C2122.12 1805.85 2190.37 1946.49 2195.33 1957.67L2188.5 1970.97L2162.77 1983.25C2100.37 1962.8 2106.62 1855.58 2120.7 1804.05Z" fill="white"/>
<path d="M181.453 1804.97C209.604 1838.68 192.003 1980.36 142.274 1984.11L119.763 1969.34C108.166 1939.11 163.842 1871.65 181.453 1804.97Z" fill="white"/>
</svg>
