<svg width="2315" height="3227" viewBox="0 0 2315 3227" fill="none" xmlns="http://www.w3.org/2000/svg">
<path d="M710.253 0.138794C866.115 -4.05907 991.084 87.6345 1101.06 186.534C1157.92 160.901 1157.37 185.422 1207.52 179.822C1207.2 179.854 1257.64 141.922 1263.36 137.512C1348.11 72.1847 1462.36 -2.07213 1573.27 0.14563C1604.01 0.762796 1634.71 12.5216 1655.2 37.3448C1687.2 76.1129 1698.23 148.017 1694.29 196.764C1691.23 234.792 1669.19 255.238 1641.88 276.878C1807.53 283.102 1972.61 276.562 2137.59 282.066C2139.59 334.547 2137.89 396.081 2137.63 449.264L2035.59 449.951L2036.47 659.871C2111.53 728.02 2197.09 804.727 2217.69 907.755C2244.62 1042.44 2087.77 1127.62 2086 1251.75C2084.44 1360.66 2241.94 1420.17 2240.83 1536.31C2245.77 1650.12 2167.1 1681.75 2158.03 1785.7C2153.36 1855.3 2211.58 1924 2256.4 1972.26C2205.85 1991.45 2188.67 2001.68 2143.11 2029.11C2138 2021.48 2132.95 2013.81 2127.97 2006.1C2040.51 1870.52 2088.99 1825.16 2124.82 1687.51C2150.21 1590 2087.31 1505.8 2036.43 1428.15L2035.93 2627.14L2135.54 2627.82L2134.23 2486.99C2122.97 2480.62 2100.12 2467.5 2096.28 2455.71C2080.4 2406.89 2067.63 2349.66 2084.62 2301.05C2098.87 2286.34 2096.38 2291.33 2124.75 2290.58C2146.82 2270.59 2121.52 2270.33 2142.71 2236.96L2155.55 2235.74C2169.11 2255.93 2158.65 2254.61 2165.54 2284.34C2182.92 2290.61 2190.66 2289.38 2209.49 2289.53C2221.07 2303.64 2218.81 2375.79 2218.36 2397.67C2217.44 2442.98 2206.43 2448.89 2179.5 2471.73C2155.7 2491.9 2164.99 2594.83 2166.16 2628.11C2199.66 2627.39 2298.61 2616.89 2314.38 2641.26L2309.82 2647.51C2278.15 2668.31 1985.02 2653.71 1925.57 2657.66C1860.97 2661.96 1739.69 2658.43 1672.19 2656.52C1755.07 2788.03 1853.91 2921.06 1937.19 3053.6C1968.45 3103.37 2019.37 3174.07 2043.48 3225.62L1777.39 3225.38L260.421 3226.09C288.298 3170.09 348.245 3086.57 384.039 3031.51C465.53 2906.14 550.861 2783.06 629.496 2655.69C439.673 2656.85 247.154 2660.23 57.3955 2655.56C31.4205 2654.92 15.3211 2657.25 1.42285 2641.59L0 2641.81C42.4687 2621.39 94.0044 2625.53 140.336 2626.75C143.517 2525.97 153.506 2508.28 94.999 2428.87C83.0904 2412.72 83.5241 2311.31 94.4395 2290.22L125.441 2286.47C141.468 2271.43 136.42 2273.97 140.696 2246.36C151.615 2232.07 144.699 2235.98 161.439 2233.16L171.459 2242.59C170.701 2258.69 168.92 2267.29 174.915 2282.38C192.461 2287.92 197.971 2287.24 216.672 2287.77C230.639 2306.43 226.543 2428.68 213.418 2443.68C158.377 2506.61 170.372 2535.68 171.179 2623.73L272.735 2627.64L272.588 1426.05C171.549 1584.54 150.197 1624.89 219.771 1803.87C248.183 1876.96 203.392 1968.18 165.932 2032.08C129.839 2006.23 101.447 1994.53 60.9561 1976.85C58.2753 1944.7 146.252 1883.5 150.363 1808.24C157.333 1680.65 17.9605 1612.24 82.8652 1473.7C117.213 1400.38 221.597 1339.41 221.218 1254.81C220.665 1132.42 72.8996 1061.7 86.6582 922.382C97.7085 810.501 193.951 723.816 274.194 656.374C272.548 588.784 274.317 516.828 274.883 448.878L170.436 451.103C169.531 394.172 171.1 337.485 172.284 280.568C308.599 279.378 530.647 271.303 662.144 281.249C644.742 263.89 630.613 243.98 615.675 224.39C610.659 128.132 612.917 44.8087 710.253 0.138794ZM538.557 3192.98C860.764 3198.02 1190.01 3194.71 1512.72 3194.76C1600.06 3195.13 1687.41 3195.05 1774.75 3194.51C1688.64 3035.71 1568.61 2815.35 1492.95 2655.81C1283.89 2656.56 1017.34 2663.67 813.389 2654.57L538.557 3192.98ZM779.499 2654.3C739.223 2657.15 705.519 2660.66 665.051 2656.61C558.416 2834.88 429.196 3017.79 315.242 3194.49L441.812 3195.07C463.304 3194.87 488.025 3198.09 503.619 3186.05C600.614 3018.01 688.253 2827.49 779.499 2654.3ZM1528.23 2656.95C1540.48 2695.36 1593.92 2786.94 1614.17 2826.48C1676.74 2948.67 1747.96 3071.95 1808.38 3194.9L1985.95 3195.23C1951.34 3127.54 1895.87 3048.05 1852.86 2983.25C1779.73 2874.3 1707.43 2764.81 1635.94 2654.77L1528.23 2656.95ZM1142.36 1047.69C1130.21 1047.92 1118.07 1048.64 1105.98 1049.85C758.367 1086.26 558.653 1359.66 563.965 1695.53C565.392 1785.92 563.798 1879.49 563.85 1970.12L563.868 2628.33L648.016 2628.25C660.118 2324.75 650.06 2012.44 652.633 1707.49C654.08 1535.55 674.839 1403 811.306 1278.86C933.027 1169.24 1047.26 1139.19 1208.18 1145.19C1347.58 1163.9 1466.05 1223.54 1551.81 1337.4C1598.05 1398.06 1629.76 1468.52 1644.49 1543.36C1665.2 1647.84 1655.07 1807.56 1656.98 1918.01C1661 2151.17 1650.79 2397.32 1658.12 2629.76C1685.45 2627.73 1718.82 2624.36 1745.68 2623.81L1746.31 1984.51C1746.58 1849.76 1755.26 1620.73 1725.43 1498.77C1700.61 1393.44 1646.66 1297.22 1569.74 1221.08C1456.02 1108.76 1302.22 1046.36 1142.36 1047.69ZM1170.48 1174.71C1145.18 1174.26 1120.27 1176 1095.08 1178.09C968.255 1195.26 862.269 1251.46 783.357 1354.04C737.172 1413.26 705.976 1482.76 692.427 1556.62C677.571 1638.12 680.793 1885.27 681.867 1981.62C684.227 2193.88 676.317 2418.33 681.507 2629.18C867.588 2624.78 1060.28 2627.69 1246.86 2628.22C1370.42 2627.72 1502.35 2625.09 1625.21 2628.77C1628.33 2414.34 1629.33 2199.88 1628.19 1985.43C1628.73 1750.31 1667.79 1501.79 1493.44 1318.24C1408.94 1229.69 1292.85 1178.1 1170.48 1174.71ZM1143.44 925.165C864.34 924.953 578.923 920.112 300.027 924.15C307.706 1483.25 286.169 2074.48 303.32 2627.87L532.229 2628.03L532.943 2014.27C532.165 1716.63 492.295 1420.07 725.211 1189.85C846.174 1070.29 1002.18 1015.52 1170.38 1017.62C1332.92 1021.14 1487.24 1089.77 1598.69 1208.11C1631.6 1242.63 1671.6 1293.71 1695.11 1335.57C1781.1 1506.95 1777.19 1612.42 1776.79 1797.91C1776.19 2072.94 1769.7 2350.81 1777.95 2625.6C1853.59 2627.34 1929.26 2628.16 2004.93 2628.06C2005.07 2067.09 1997.52 1483.57 2006.15 925.017C1718.58 922.882 1431.01 922.928 1143.44 925.165ZM116.897 2314.19C116.919 2353.11 112.004 2407.82 126.802 2440.31C149.92 2458 159.646 2455.42 189.204 2449.77C193.091 2403.49 196.794 2362.44 197.02 2315.87L116.897 2314.19ZM2109.37 2316.14C2110.4 2352.41 2106.04 2408.77 2119.83 2437.71C2143.25 2455.14 2149.51 2451.57 2183.54 2447.22L2190.54 2314.55L2109.37 2316.14ZM181.453 1804.97C163.842 1871.65 108.167 1939.11 119.764 1969.34L142.274 1984.11C192.003 1980.36 209.604 1838.68 181.453 1804.97ZM2120.7 1804.05C2106.62 1855.58 2100.37 1962.8 2162.77 1983.26L2188.5 1970.97L2195.33 1957.67C2190.37 1946.49 2122.12 1805.85 2120.7 1804.05ZM2047.09 1249.63C2004.82 1476.58 2178.42 1460.25 2157.76 1662.29L2162.8 1668.68L2172.67 1661.8C2199.55 1613.2 2223.62 1566.98 2205.83 1510.46C2185.79 1446.78 2122.02 1397.25 2085.68 1342.58C2067.45 1315.15 2062.96 1277.52 2047.09 1249.63ZM259.867 1246.43C219.231 1440.25 17.8927 1451.37 133.537 1655.17L143.93 1667.12C151.833 1631.38 139.285 1605.08 162.266 1555.78C203.334 1467.68 312.349 1355.55 259.867 1246.43ZM2037.5 801.39C2084.61 848.066 2141.87 896.857 2142.22 969.693C2142.55 1037.9 2022.48 1156.38 2040.48 1221.18C2050.19 1211.19 2051.07 1211.6 2056.16 1198.89L2059.62 1191.98C2108.5 1095.97 2217.77 1001.94 2181.7 884.416C2163.28 824.399 2091.79 737.123 2036.48 708.609L2037.5 801.39ZM264.549 705.414C201.579 757.175 128.272 829.774 119.948 915.456C108.996 1028.21 210.254 1111.95 258.613 1212.65L264.556 1219.85C276.761 1166.16 185.042 1057.57 160.714 966.446C186.532 883.381 206.839 858.166 271.706 800.143C272.201 779.351 277.803 718.137 264.549 705.414ZM2035.63 844.078C2037.4 937.25 2036.95 1030.45 2034.28 1123.6L2063.88 1073.54C2119.87 992.086 2131.68 903.799 2035.63 844.078ZM265.179 846.57C182.957 943.735 174.125 980.652 249.488 1090.88L264.556 1112.69C282.761 1095.98 276.085 858.259 265.179 846.57ZM301.48 449.289C301.48 589.317 305.539 752.818 300.4 891.818L2005.87 893.322C2006.24 756.22 2001.47 583.088 2007.02 449.868L301.48 449.289ZM915.11 308.408C682.709 308.267 432.597 304.107 201.23 310.793L202.306 422.359C386.83 418.129 580.64 421.999 766.071 421.935L2092.5 420.591L2104.93 413.14C2111 381.09 2108.27 343.324 2107.24 310.246C1709.87 307.424 1312.49 306.814 915.11 308.408ZM1148.23 198.602C1113.8 213.954 1089.44 227.309 1100.75 267.157C1124.84 288.032 1129.88 283.493 1167.16 281.468C1198.29 279.41 1188.66 284.207 1208.25 267.054C1216.79 221.111 1186.71 208.342 1148.23 198.602ZM1633.44 60.1154C1615.09 28.0788 1565.16 29.0813 1528.52 32.8361C1407.17 63.9146 1291.23 133.929 1212.72 232.199C1267.89 205.602 1634.3 -12.2835 1610.24 166.77C1595.02 196.761 1568.53 203.833 1537.9 215.611C1435.26 250.136 1350.69 245.006 1268.78 270.89L1267.39 275.14C1331.75 283.388 1389.45 278.098 1462.09 279.937C1614.26 283.787 1727.98 225.14 1633.44 60.1154ZM1099.83 233.878C1006.7 130.4 851.414 15.3438 704.677 31.6866C663.97 67.1822 644.767 96.6345 639.43 153.243C624.851 308.001 845.022 274.203 940.011 278.189C971.58 279.513 1022.01 280.908 1051.48 277.455L1052.13 270.415C991.926 241.047 831.434 262.513 704.522 185.048C693.281 161.054 690.799 157.203 693.879 131.197C758.077 29.1725 1023.36 211.729 1099.83 233.878ZM1585.29 144.566C1562.77 127.322 1555.75 125.786 1523.67 129.039C1431.51 147.472 1360.13 179.457 1282.79 233.494C1310.2 229.849 1345.43 224.133 1372.31 222.005C1446.83 211.834 1530.35 211.255 1583.22 157.649L1585.29 144.566ZM736.946 128.391C724.329 151.227 724.843 142.292 730.348 163.264C767.794 208.828 919.901 219.538 980.98 225.588L992.067 226.662L997.084 219.872C927.053 171.293 822.103 130.911 736.946 128.391Z" fill="#301E0F"/>
</svg>
