<svg width="8592" height="4189" viewBox="0 0 8592 4189" fill="none" xmlns="http://www.w3.org/2000/svg">
<path fill-rule="evenodd" clip-rule="evenodd" d="M38.5351 3660.77L37.8649 3658.45C37.8518 3658.4 37.8377 3658.35 37.8245 3658.31C38.0597 3659.13 38.2961 3659.95 38.5351 3660.77ZM33.7056 3643.02C33.6261 3642.7 33.5455 3642.39 33.4669 3642.08C33.3133 3641.46 33.1615 3640.85 33.0097 3640.24C33.2392 3641.17 33.4717 3642.09 33.7056 3643.02ZM8131.32 44.9482C8489.2 -137.552 8715.07 275.246 8518.99 573.746C8283.15 932.791 7889.79 949.662 7501.61 1041.86C7617.32 1055.9 7776.01 1069.63 7846.27 1177.11C7873.46 1217.87 7882.52 1268.09 7871.28 1315.79C7856.53 1380.1 7810.24 1436.3 7755.09 1470.98C7693.47 1509.85 7618.81 1522.29 7547.92 1505.52C7467.59 1486.76 7354.47 1396.68 7453.83 1338.36C7483.43 1338.58 7486.68 1340.19 7511.17 1355.8C7529.42 1379.88 7523.99 1404.2 7521.98 1434.86C7577.59 1587.73 7883.74 1372.89 7828.74 1242.03C7734.79 1018.53 7301.26 1088.4 7124.68 1146.83C6861.82 1233.82 6593.06 1394.69 6394.55 1587C6226.61 1751.81 6107.91 1983.12 6002.5 2190.04C6125.35 2054.87 6248.31 1946.58 6409.23 1835.64C6652.82 1667.73 7114.08 1634.35 7043.73 2064.46C6996 2290.31 6515.54 2440.05 6554.3 2107.14C6557.68 2077.99 6740.46 2117.31 6782.91 2014.92C6787.28 1968.29 6748.96 1913.62 6702.78 1902.83C6433.59 1842.17 6232.16 2018.29 6059.55 2201.38C5953.34 2314.03 5867.27 2559.26 5944.5 2704.73C6021.4 2849.53 6298.04 2700.37 6196.05 2554.4C6163.66 2508.13 6078.46 2540.45 6030.43 2535.79L6026.32 2522.71C6107.05 2448.87 6292.99 2497.29 6260.5 2649.25C6237.72 2755.72 6133.18 2840.92 6028.71 2818.33C5867.53 2783.6 5874.27 2567.48 5898.9 2441.36L5898.9 2441.36L5910.75 2433.76L5910.81 2418.82C5893.01 2423.99 5881.75 2428.67 5863.01 2427.53L5855.75 2441.45C5674.85 2632.01 5492.62 2818.66 5279.49 2973.38C5263.91 2984.69 5194.24 3034.18 5188.39 3049.79L5191.41 3048.31L5195.48 3075.51L5195.48 3075.51C5053.66 3146.58 5019.25 3216.23 4927.13 3335.46C4794.19 3507.52 4438.54 3808.7 4207.19 3785.09L4192.17 3775.07L4194.5 3752.8C4242.96 3720.56 4350.11 3722.26 4400.75 3699.92C4677.37 3577.94 4813.36 3413.12 4990.66 3190.08C4795.1 3262.29 4601.1 3357.96 4406.27 3424.29C4110.52 3525.01 3824.38 3611.29 3531.95 3723.85C3507.21 3734.76 3486.06 3743.74 3460.73 3753.05L3449.07 3739.07L3471.65 3701.42C2771.34 3884.53 2089.48 3877.28 1375.51 3903.02C1239.14 3907.92 1106.59 3873 971.381 3889.07C879.717 3902.3 548.665 4015.5 500.397 4075.77C540.732 4082.64 582.719 4086.57 617.524 4107.54C633.476 4137.22 630.099 4123.78 627.682 4160.1C610.494 4186.43 620.251 4179.09 591.475 4188.55C535.561 4180.63 503.132 4129.13 451.783 4113.46C414.575 4102.1 394.775 4157.11 361.021 4122.75L383.068 4099.47C371.848 4067.63 308.404 4038.47 276.697 4020.99C279.052 4010.13 286.405 4001.71 292.887 3992.43C309.713 3982.23 429.787 3934.59 461.218 3920.41C469.215 3890.28 489.072 3878.78 513.659 3859.12C846.925 3611.93 937.116 3499.71 815.638 3075.07C815.588 3076 815.533 3076.92 815.478 3077.84C789.281 2895.13 567.743 2759.94 388.71 2783.64C284.352 2796.8 189.813 2852.15 127.23 2936.72C43.4609 3048.74 26.3332 3158.17 14.5469 3292.62C14.4431 3296.64 14.3424 3300.63 14.2437 3304.59C14.3417 3300.63 14.4426 3296.64 14.5466 3292.62L-0.000887356 3295.85C2.56059 3100.28 40.891 2911.31 219.254 2799.14C310.938 2740.35 422.437 2720.93 528.507 2745.33C895.811 2829.36 930.3 3256.31 860.847 3560.46C990.819 3452.92 1139.59 3332.73 1290.42 3258C1513.57 3147.43 1816.28 2963.21 2073.88 3020.69L2071.36 3028.61C1884.37 3016.47 1724.33 3066.5 1558.22 3151.17C2181.82 3005.07 2417.92 3186.05 2973.74 3328.18C3522.84 3468.87 4105.32 3388.48 4595.9 3104.38C4645.79 3070.19 4695.5 3035.54 4744.86 3000.52L4743.83 2988.39C4530.33 3050.04 4396.59 3112.47 4166.92 3154.09C3679.79 3242.35 2713.56 3053.6 2638.59 2448.21C2624.5 2337.93 2655.1 2226.6 2723.58 2139.03C2860.24 1965.25 3116.42 1925.49 3287.8 2066.8C3349.22 2116.68 3387.1 2189.87 3392.41 2268.78C3403.06 2414.45 3329.48 2536.99 3173.1 2559.49C3036.16 2579.21 2931.4 2382.16 3011.84 2318.39C3029.82 2304.31 3052.98 2298.62 3075.47 2302.75C3127.03 2311.75 3194.01 2378.65 3185.96 2434.25C3182.99 2455 3178.17 2477.05 3173.66 2497.58L3187.8 2507.74C3231.96 2504.71 3284.43 2468.34 3304.91 2429.27C3369.53 2310.62 3315.44 2144.74 3191.14 2087.78C2884.72 1947.43 2620.56 2270.51 2740.94 2561.52C2832.26 2782.37 3025.31 2905.49 3237.35 2994.72C3514.59 3111.34 3844.83 3136.46 4142.25 3111.17C4276 3098.52 4392.11 3053.88 4515.7 3016.39C4846.09 2916.19 5096.03 2790.88 5343.13 2543.43C5521.36 2364.92 5635.37 2182.09 5784.1 1986.36C5986.29 1726.59 6207.08 1498.12 6483.71 1320.15C6991.07 993.754 7591.16 1021.36 8142.34 823.953C8384.44 737.239 8645.37 468.755 8523.16 193.455C8491.72 123.769 8433.1 70.0118 8360.97 44.6854C8084.73 -54.6331 7949.23 337.399 8156.94 398.139C8190.18 393.521 8280.58 276.691 8330.3 391.81C8338.2 409.685 8338.2 430.07 8330.27 447.94C8283.94 554.52 8052.98 436.902 8033.99 310.528C8017.52 200.928 8024.68 100.846 8131.32 44.9482ZM32.9312 3639.92C32.9141 3639.85 32.8968 3639.79 32.8797 3639.72C32.6279 3638.69 32.3796 3637.67 32.1331 3636.64C32.3959 3637.74 32.6623 3638.83 32.9312 3639.92ZM1002.76 3840.9C754.468 3799.27 696.197 3838.95 461.221 3920.41C429.79 3934.59 309.715 3982.23 292.889 3992.43C348.242 4016.34 393.679 4035.33 450.63 4054.88C590.07 3975.44 846.241 3884.4 1002.76 3840.9ZM815.166 3082.67C794.318 3382.5 507.97 3497.91 342.356 3221.12C262.583 3087.71 421.353 2900.77 560.753 2920.46C665.237 2919.99 764.515 3103.98 815.166 3082.67ZM6710.23 1254.97C6297.7 1467.41 6124.1 1650.8 5841.45 2015.56C5771.15 2106.31 5672.16 2202.82 5603.54 2299.19C5469.96 2486.78 5365.99 2650.02 5198.61 2814.04C5050.25 2957.23 4883.05 3079.45 4701.62 3177.33C4663.66 3197.88 4532.66 3255.89 4510.32 3272.71L4529.52 3253.68C4662.81 3196.56 5047.24 2912.47 5132.28 2802.09L5134.15 2793.47C5103.86 2807.1 4966.49 2919.15 4924.77 2949.2C4341.17 3369.51 3602.29 3576.06 2896.55 3367.28C2506.14 3251.79 2128.55 3109.49 1711.21 3188.7C1614.6 3197.72 1360.86 3273.34 1285.64 3328.89L1288.11 3337.07C1301.16 3337.36 1309.66 3334.9 1317.82 3341.26L1312.29 3344.17C1185.95 3409.6 884.797 3499.9 838.81 3653.57C811.458 3659.4 811.172 3654.45 797.19 3673.09L694.827 3769.19L774.639 3784.76L800.546 3780.01C856.418 3781.35 914.424 3783.84 969.922 3790.28C1239.1 3821.37 1503.33 3832.21 1774.37 3829.46C2683.95 3816.42 3585.8 3659.93 4446.73 3365.72C4596.86 3312.95 4789.25 3249.33 4924.57 3171.17C5184.98 3020.76 5430.98 2816.18 5631.11 2591.63C5742.3 2466.86 5869.5 2330.94 5962.96 2192.92C5999.46 2139.04 6046.07 2017.07 6081.13 1953.95C6238.29 1670.97 6335.01 1542.37 6595.47 1357.17C6629.41 1325.46 6694.35 1288.96 6710.23 1254.97ZM695.536 3282.48C761.307 3212.48 751.036 3095.99 672.594 3022.28C594.151 2948.58 477.241 2945.58 411.469 3015.58C345.697 3085.59 355.969 3202.08 434.412 3275.79C512.854 3349.49 629.764 3352.49 695.536 3282.48ZM6996.81 1914.29C6988.48 1885.44 6973.23 1861.51 6956.04 1837.23C6882.5 1778.67 6811.18 1753.8 6716.19 1764.42C6604.72 1776.85 6493.72 1830.11 6398.21 1886.62C6498.75 1870.01 6647.1 1807.78 6739.68 1874.13C6779.67 1902.85 6796.66 1940.99 6803.39 1988.37C6804.02 1993.2 6804.64 1998.01 6805.25 2002.79L6802.93 2010.71C6791.48 2048.66 6769.25 2085.01 6732.94 2103.77C6692.92 2124.45 6618.01 2119.18 6589.39 2148.93C6597.54 2181.66 6628.9 2209.45 6657.11 2226C6698.85 2250.41 6746.67 2253.41 6792.75 2240.51C6867.38 2219.62 6933.73 2161.13 6970.77 2093.95C7000.27 2040.42 7014.06 1974 6996.81 1914.29Z" fill="#D6BF91"/>
</svg>
