<svg width="8344" height="11681" viewBox="0 0 8344 11681" fill="none" xmlns="http://www.w3.org/2000/svg">
<path d="M356.328 6921.18C354.41 6959.71 319.148 7001.58 330.703 7024.05C436.954 7230.6 722.604 7409.17 431.923 7672.38C414.539 7687.9 396.82 7703.15 378.78 7717.95L380.564 7729.14C414.806 7749.89 423.088 7772.18 438.028 7808.64C427.761 7809.45 377.832 7799.25 364.705 7796.82C337.827 7809.54 327.886 7811.98 299.549 7819.29L279.541 7809.81C257.386 7743.67 312.336 7680.14 355.1 7635.39C277.353 7426.86 232.991 7354.4 250.356 7113.29C253.881 7064.38 273.858 6963.77 273.002 6926.14C291.065 6908.37 307.928 6914.14 340.083 6912.61L356.328 6921.18ZM292.187 7089.2C293.618 7195.5 293.083 7299.9 323.097 7402.95C347.526 7486.87 382.751 7565.46 401.22 7651.45C423.051 7627.81 446.601 7604.53 466.562 7579.36C506.569 7515.11 525.01 7458.62 506.36 7382.28C477.739 7265.25 373.966 7171.5 292.187 7089.2Z" fill="#D6BF91"/>
<path d="M336.094 7260.2C349.996 7268.5 360.219 7277.7 370.235 7290.51C394.977 7322.1 463.984 7411.88 459.18 7449.69L448.503 7451.76C440.487 7434.17 431.419 7433.99 414.738 7426.59C416.709 7366.76 363.877 7311.45 336.094 7260.2Z" fill="#E7D7B2"/>
<path d="M166.237 7849.06C136.807 7833.99 108.413 7822.17 97.6328 7791.76C120.554 7781.29 144.07 7789.51 168.987 7794.83C240.626 7891.65 304.935 7850.14 383.376 7991.63L396.692 7990.64L416.249 7961.22L442.527 7975.12C447.316 8002.82 463.492 8038.37 460.767 8052.45L433.862 8069.86C372.631 8077.17 353.86 8127.97 332.359 8181.75L335.391 8190.42L321.652 8202.24C309.441 8199.26 298.31 8191.59 287.063 8185.09C286.348 8146.92 341.611 8133.93 346.065 8096.39C322.813 8109.21 314.602 8119.67 293.217 8116.06C286.424 8073.56 317.439 8085.93 305.612 8040.45C318.295 8008.69 328.958 7984.68 319.043 7952.47C288.607 7930.09 292.978 7936.59 251.064 7930.9L266.631 7916.56C262.59 7878.48 217.456 7913.04 166.237 7849.06Z" fill="#E8DFCC"/>
<path d="M460.77 8052.45C487.782 8166.06 404.945 8335.25 298.411 8378.02C228.602 8367.28 305.515 8260.53 321.655 8202.24L335.395 8190.42L335.394 8190.42C345.831 8187.62 351.406 8188.8 362.349 8189.16C373.402 8230.12 336.4 8250.88 349.403 8284.9C408.51 8184.46 415.111 8183.02 433.86 8069.87C433.862 8069.87 433.863 8069.87 433.864 8069.87L460.77 8052.45Z" fill="#DAC69F"/>
<path d="M0 7665.62C102.499 7733.83 -7.89131 7748.72 77.216 7807.38C82.8915 7788.7 83.0326 7784.09 83.7361 7764.51C110.196 7762.8 148.401 7779.85 168.985 7794.83C144.069 7789.51 120.553 7781.3 97.6312 7791.77C108.411 7822.17 136.806 7834 166.235 7849.06C77.2111 7859.26 61.2227 7855.65 0 7789.87V7665.62Z" fill="#E7D7B2"/>
<path d="M364.703 7796.81C377.83 7799.25 427.758 7809.45 438.026 7808.63C460.776 7861.24 472.518 7922.6 442.525 7975.12L416.247 7961.22C419.217 7877.93 416.202 7859.44 364.703 7796.81Z" fill="#DAC69F"/>
<path d="M251.066 7930.91C292.98 7936.59 288.61 7930.09 319.045 7952.47C328.961 7984.69 318.298 8008.69 305.615 8040.45C277.176 8043.61 268.709 8045.86 241.3 8036.84C223.98 7995.6 283.69 7990.82 251.066 7930.91Z" fill="#DAC69F"/>
<path d="M7883.48 3636.11L7875.7 3622.48C7886.77 3607.32 7888.92 3595.32 7894.19 3577.55L7906.73 3585.67L7906.72 3599.75C7908.06 3661.56 8132.92 3954.73 8122.63 4062.74C8109.83 4197.1 8082.1 4404.64 8060.25 4534.3L8035.16 4523.02L8034.77 4526.36C8024.8 4513.01 8020.8 4427.64 8019.7 4408.43C8004.68 4145.48 7946.09 3891.29 7883.48 3636.11Z" fill="#FEFEFD"/>
<path d="M7883.48 3636.11L7875.7 3622.48C7886.77 3607.32 7888.92 3595.32 7894.19 3577.55L7906.73 3585.67L7906.72 3599.75C7908.06 3661.56 8132.92 3954.73 8122.63 4062.74C8109.83 4197.1 8082.1 4404.64 8060.25 4534.3L8035.16 4523.02C8071.85 4437.66 8090.36 4176.61 8095.98 4078.98C8101.54 3982.52 7951.57 3696.11 7883.48 3636.11Z" fill="#DAC69F"/>
<path d="M7655.47 6323.02C7660.14 6291.08 7690.88 6212.21 7703.31 6181.35C7711.97 6193.44 7700.9 6238.74 7705.88 6276.73L7706.93 6284.4C7702.75 6311.11 7698.87 6333.76 7693.01 6360.1L7674.95 6362.36L7655.47 6323.02Z" fill="#E7D7B2"/>
<path d="M7742.91 4867.27C7745.29 4845.34 7748.49 4804.1 7754.71 4784.52L7762.09 4785.43C7770.07 4850.76 7773.47 4991.7 7760.57 5054.41C7758.76 4993.96 7756.46 4933.41 7753.67 4872.95L7742.91 4867.27Z" fill="#FAF6E3"/>
<path d="M6192.58 8512.55L6278.3 8613.08L6268.3 8637.44C6240.86 8613.44 6216.36 8568.68 6186.52 8558.12C6178.39 8536.29 6182.71 8538.72 6192.58 8512.55Z" fill="#DAC69F"/>
<path d="M1590.35 11408.2C1591.31 11387.2 1588.99 11355.7 1601.73 11338.2C1608.64 11328.7 1612.52 11330.1 1623.94 11328.3C1642.11 11338.4 1663.08 11356.2 1683.72 11353.2L1695.12 11359C1711.38 11378.8 1730.24 11388.1 1752.56 11399.7L1766.41 11404.6C1790.57 11421.7 1805.03 11436.9 1834.76 11440.1L1845.24 11435.2L1848.19 11444.8C1871.44 11425.2 1893.08 11407.9 1925.32 11410.4C1945.51 11412.1 1953.11 11420.8 1967.98 11432.7C1971.12 11441.9 1975.08 11451.2 1976.75 11460.8L1982.17 11462.6L1979.92 11477.3C1991.55 11487.8 1993.28 11489.1 2008.49 11489.6C2049.43 11490.9 2080.99 11476.7 2110.29 11449.1C2113.28 11463 2110.34 11465.4 2104.3 11477.9C2139.54 11497.9 2206.21 11480.1 2246.12 11473.1L2267.23 11485L2294.52 11546.7C2205.1 11509.2 1603.41 11535 1489.53 11560C1505.65 11548.8 1520.12 11538.2 1533.71 11523.9L1522.29 11516.2C1488.82 11523.1 1459.28 11531.1 1428.14 11545.2C1415.48 11533.5 1400.53 11523.9 1386.56 11513.7C1391.87 11508.3 1397.25 11503.2 1403.15 11498.6C1479.04 11438.9 1671.36 11478.7 1762.06 11488.8C1707.9 11455.1 1651.46 11426.9 1590.35 11408.2Z" fill="#DAC69F"/>
<path d="M1752.55 11399.7C1771.23 11376.6 1787.82 11350.5 1817.25 11340.9L1818.29 11353.6C1801.75 11372 1785.47 11388.8 1766.4 11404.6L1752.55 11399.7Z" fill="#F9F8EE"/>
<path d="M2246.11 11473.1C2245.5 11459.7 2244.76 11447.5 2249.06 11434.5C2254.02 11419.5 2276.17 11408.7 2290.25 11402.2C2310.55 11392.7 2335.43 11383.4 2357.5 11392.5C2374.11 11399.3 2380.8 11403.5 2387.6 11420.4C2370.7 11427.6 2356.63 11433.4 2342.86 11446.1L2353.6 11463.4L2338.28 11502.5L2360.27 11512L2351.94 11534.1L2363.43 11549C2337.53 11553 2319.94 11555.2 2294.52 11546.7L2267.22 11485L2246.11 11473.1Z" fill="#DAC69F"/>
<path d="M2267.23 11485L2280.41 11464.8C2307.29 11470.2 2312.47 11495.9 2338.28 11502.5L2360.27 11512L2351.95 11534.1L2363.43 11549C2337.53 11553 2319.94 11555.2 2294.52 11546.7L2267.23 11485Z" fill="#E8DFCC"/>
<path d="M749.599 10792.5C810.329 10865.2 864.472 10942.6 856.464 11042.5C853.143 11084.1 833.269 11126.7 817.015 11164.8C880.287 11115.7 912.863 11112.4 925.025 11024.1C950.406 11036.3 974.496 11045.3 1001.67 11052.6C1023.91 11050.8 1041.05 11038.6 1059.65 11027.4C1065.81 11039.4 1062.37 11045.3 1059.94 11058.3C1090.23 11085.7 1148.56 11080 1186.2 11095.9C1254.56 11124.8 1295.89 11192.3 1374.72 11203.1C1366.36 11173.3 1364.47 11158.1 1377.86 11129.6C1398.02 11114.6 1402.37 11113.7 1427.63 11111.6C1412.66 11131.5 1394.08 11151.9 1388.92 11176.9C1387.58 11183.4 1394.98 11190.2 1398.78 11195.5C1436.01 11198.8 1445.67 11171.2 1478.99 11165.6C1527.54 11157.4 1587.66 11173.7 1639.13 11170C1649.32 11158.1 1654.31 11148 1659.96 11133.5C1664.38 11122.1 1708.63 11129.5 1724.12 11114.1C1701.48 11081.3 1670.01 11051.8 1633.47 11035.5C1571.28 11007.6 1465.77 10995.4 1407.43 11038.8C1376.33 11062.1 1348.4 11100.5 1311.82 11113.9C1312.26 11109.6 1312.41 11107.4 1313.26 11102.8C1318.39 11075.8 1337.48 11056.5 1360.02 11042.3C1436.14 10994.2 1537.09 10991.4 1622.23 11011.3C1676.48 11024 1701.87 11074.7 1751.34 11097C1772.52 11095.1 1782.27 11089.7 1798.39 11076.1C1786.66 11038.8 1711.43 10982.9 1678.87 10965.1C1603.78 10924.8 1515.68 10916.3 1434.26 10941.5C1374.48 10959.4 1311.51 10988.8 1281.17 11045.6C1275.27 11056.6 1268.82 11065.8 1260.97 11075.6L1226.57 11058C1302.49 10974.7 1403.65 10916.6 1517.13 10910.2C1650.48 10902.7 1704.43 10968.6 1797.43 11045.9C1816.52 11061.8 1833.19 11068.2 1858.55 11066.2C1863.77 11059.9 1868.47 11054.1 1872.84 11047.2C1880.66 11034.7 1964.67 11075.6 1991.37 11060.8C2070.06 11017.4 2082.9 10938.3 2206.15 10898.8C2306.52 10866.7 2413.59 10900.1 2503.3 10947.8C2533.02 10963.5 2571.07 10988 2581.39 11021.9C2579.94 11021.3 2578.48 11020.8 2577.05 11020.2C2547.79 11008.1 2526.39 10985.3 2499.99 10968.5C2402.07 10906.1 2288.28 10882.7 2177.33 10927.9C2103.5 10957.9 2079.17 11029 2017.34 11063.8C1978.82 11085.3 1896.74 11083 1851.28 11091.5C1772.75 11106 1608.01 11175.6 1576.59 11253.2C1569.53 11270.7 1566.18 11289.5 1573.75 11307.3C1574.25 11308.5 1574.85 11309.6 1575.39 11310.7C1596.26 11314.5 1603.11 11310.4 1620.81 11298.7C1671.78 11264.9 1710.07 11208.9 1760.82 11174.8C1811.97 11140.5 1946.81 11133.1 2006 11144C2164.58 11172.8 2167.05 11363.5 2334.87 11250.4C2342.26 11245.4 2354.54 11247.4 2363.5 11247.2C2398.97 11268.7 2435.18 11306.9 2445.75 11347.8C2446.33 11350.1 2446.8 11352.3 2447.35 11354.5C2449.11 11361.7 2447.96 11358.6 2451.47 11365.2C2462.42 11388.1 2474.35 11403.7 2471.9 11429.3C2469.53 11430.5 2467.14 11431.6 2464.78 11432.9C2450.33 11440.6 2441.47 11450 2434.75 11464.8L2405.66 11440.8L2353.61 11463.4L2339.8 11498.6L2353.61 11463.4L2405.66 11440.7L2414.02 11419.6C2409.57 11396.6 2400.98 11380.6 2383.48 11364.9C2326 11313.2 2236.27 11401.7 2170.5 11403C2168.15 11403.1 2165.79 11403.1 2163.44 11403.1C2193.67 11383.2 2223.04 11364.4 2248.46 11338.3C2158.01 11357.6 2045.37 11389.1 1982.16 11462.6L1979.92 11477.3C1991.55 11487.8 1993.28 11489.1 2008.49 11489.6C2049.43 11490.9 2080.99 11476.7 2110.29 11449.1V11449.1C2113.28 11463 2110.34 11465.4 2104.3 11477.9C2139.53 11497.9 2206.21 11480.1 2246.12 11473.1L2267.23 11485L2294.52 11546.7C2319.94 11555.2 2337.53 11553 2363.43 11549L2363.43 11549C2337.53 11553 2319.94 11555.2 2294.52 11546.7C2205.1 11509.2 1603.4 11535 1489.52 11560C1505.64 11548.8 1520.12 11538.2 1533.7 11523.9L1522.28 11516.2C1488.82 11523.1 1459.28 11531.1 1428.13 11545.2C1415.47 11533.5 1400.52 11523.9 1386.56 11513.7C1391.86 11508.3 1397.24 11503.2 1403.14 11498.6C1479.04 11438.9 1671.36 11478.7 1762.05 11488.8C1707.89 11455.1 1651.46 11426.9 1590.35 11408.2C1537.66 11407.4 1484.64 11409.8 1431.94 11411.2L1523.05 11360.8C1451.4 11347.6 1393.07 11338.2 1334.04 11291.4L1321.34 11275.6L1324.36 11270L1317.17 11258.3C1309.79 11259.5 1301.7 11261 1294.23 11260.6C1266.33 11258.9 1246.21 11231.5 1226.83 11213.1L1190.06 11182.8C1106.12 11147.8 970.462 11118.4 884.029 11152.6C855.767 11163.8 833.142 11179.3 811.891 11200.7C807.409 11185.1 808.282 11165.3 807.152 11148.8L778.39 11154.6C766.903 11121.7 801.558 11047.1 813.506 11011.8C824.889 11002.4 828.195 11002.5 829.634 10987.1C835.546 10923.6 776.297 10848.3 738.016 10801.8L749.599 10792.5ZM1925.32 11410.4C1893.08 11407.9 1871.44 11425.2 1848.19 11444.8C1855.45 11466.1 1855.07 11473.4 1876.6 11484.7C1904.7 11499.4 1931.95 11491.6 1960.58 11484C1966.04 11476.5 1972.39 11469 1976.75 11460.8C1975.08 11451.2 1971.12 11441.9 1967.97 11432.7C1953.1 11420.8 1945.51 11412.1 1925.32 11410.4ZM1914.23 11228.9C1819 11251 1765.05 11294 1695.12 11359C1711.38 11378.8 1730.24 11388.1 1752.55 11399.7L1766.4 11404.6C1790.56 11421.7 1805.03 11436.9 1834.76 11440.1L1845.24 11435.2C1853.37 11427.3 1861.78 11419.6 1871.22 11413.1C1919.91 11379.8 1929.78 11413.1 1974.44 11420.5C2019.96 11427.9 2096.21 11362 2135.08 11335.6C2060.25 11280 2006.6 11247.6 1914.23 11228.9ZM2146.93 11236.3C2075.46 11175.7 1960.11 11152.7 1868.34 11160.9C1761.39 11170.5 1688.2 11251.1 1623.94 11328.3C1642.11 11338.4 1663.08 11356.2 1683.72 11353.2C1704.83 11317.3 1744.63 11285.5 1779.66 11263.9C1851.35 11219.6 1968.54 11196 2042.51 11248.7C2074.55 11271.6 2107.66 11317.4 2145.79 11326.8C2166.72 11320.6 2172.23 11321.3 2184.63 11303.9C2179.46 11274.4 2170.05 11255.9 2146.93 11236.3ZM1618.88 11179.6C1568.21 11177.6 1517.33 11174.5 1466.64 11176.7C1449.37 11197 1440.21 11202.1 1438.93 11229.2C1465.45 11265.5 1493.31 11272.1 1536.12 11282.5L1544.65 11273.6L1618.88 11179.6Z" fill="#E8DFCC"/>
<path d="M1190.06 11182.8C1217.51 11170.9 1233.34 11168.4 1262.49 11180.2C1286.59 11189.9 1300.6 11206 1315.46 11226.4C1318.22 11238.2 1320.35 11246.3 1317.17 11258.3C1309.79 11259.5 1301.71 11261 1294.24 11260.6C1266.33 11258.9 1246.22 11231.5 1226.84 11213.1L1190.06 11182.8Z" fill="#D6BF91"/>
<path d="M2711.61 10462.4C2742.99 10414 2713.96 10391.5 2725.16 10347.2C2726.66 10341.2 2756.22 10310.5 2761.93 10302.7C2760.39 10286 2752.98 10272.5 2742.65 10259.5C2729.9 10243.5 2709.88 10235.7 2689.92 10234.1C2643.08 10230.5 2600.01 10252.3 2566.14 10282.7C2560.62 10287.6 2556.23 10290.7 2549.17 10293.5C2545.89 10274.8 2546.05 10261.3 2550.06 10242.8C2552.14 10233.2 2562.15 10225.6 2570.71 10221.2C2589.16 10211.9 2615.98 10213 2635.89 10213.8C2757.34 10219.2 2776.69 10314.4 2851.3 10329.2C2852.81 10329.5 2854.35 10329.7 2855.88 10329.9L2862.85 10339.6C2866.8 10371.1 2873.16 10402.4 2861.82 10433.1C2824.3 10430.6 2812.53 10384.8 2771.99 10419.7C2755.68 10433.7 2740.73 10460.5 2732.14 10480.2L2711.61 10462.4Z" fill="#E8DFCC"/>
<path d="M3103.07 10191.2C3115.99 10172 3124.46 10156.8 3147.81 10149.5C3166.03 10154.7 3170.95 10155.8 3184 10169.1L3182.53 10184.4C3168.48 10193.2 3153.55 10200.9 3142.7 10213.7C3158.49 10220.4 3172.42 10220.1 3189.42 10220.2C3191.85 10237.4 3192.15 10240.2 3181.12 10255.2C3147.26 10301.2 3075.89 10280.9 3014.5 10366.5C2987.76 10346.8 2958.03 10320 2922.81 10325.2C2902.64 10328.2 2882.38 10333.8 2862.85 10339.6L2855.88 10329.9L2888.33 10280.8C2994.28 10292.1 2953.16 10252.5 3015.08 10202.8L3062.73 10212.6C3079.88 10207.2 3092.84 10206.8 3103.07 10191.2Z" fill="#DAC69F"/>
<path d="M2872.34 9870.13C2955.47 9812.92 3058.16 9791.53 3157.23 9810.84C3232.84 9825.19 3349.12 9876.81 3393.37 9942.77L3388.72 9948.63C3349.21 9939.61 3303.93 9902.34 3267.5 9882.4C3177.98 9833.4 3069.74 9816.53 2971.09 9846.94C2857.83 9881.77 2793.65 9968.94 2740.58 10068.6C2790.63 10084.2 2919.07 10126.3 2946.56 10171.1L2949.58 10176.1C2968.19 10163.8 2967.54 10163.9 2972.13 10142.1C2964.6 10107.1 2941.68 10079.4 2921.37 10050.8C2923.14 10049 2925.69 10046.1 2927.82 10044.5C2968.86 10012.2 3062.49 9970.11 3113.82 9974.8C3172.45 9980.12 3229.26 10015.5 3266.41 10059.3C3212.48 10030 3150.56 9991.58 3087.66 9990.05C3032.95 9988.7 3003.11 10018 2965.2 10053L2967.64 10067.9C3028.07 10098.1 3119.83 10037.2 3181.65 10081.3C3132.86 10083.4 3067.71 10069.9 3022.33 10087.7C3002.3 10095.6 2994.75 10102.9 2986.79 10122.2C3008.42 10144.8 3043.9 10141.2 3071.57 10152.9C3088.83 10160.2 3096.41 10174.6 3103.07 10191.2C3115.99 10172 3124.46 10156.8 3147.81 10149.5C3166.03 10154.7 3170.95 10155.8 3184 10169.1L3182.53 10184.4C3168.48 10193.2 3153.55 10200.9 3142.7 10213.6C3158.48 10220.4 3172.42 10220.1 3189.41 10220.2C3191.85 10237.4 3192.15 10240.2 3181.12 10255.2C3147.26 10301.2 3075.89 10280.9 3014.5 10366.5C2987.75 10346.8 2958.03 10320 2922.81 10325.2C2902.64 10328.2 2882.38 10333.8 2862.85 10339.6C2864.67 10354.1 2866.99 10368.6 2867.87 10382.9C2866.99 10368.6 2864.67 10354.1 2862.85 10339.6L2855.87 10329.9L2888.33 10280.8C2888.21 10279.6 2888.03 10278.4 2887.97 10277.2C2886.11 10243.1 2863.19 10223.9 2841.11 10200.4C2868.79 10209.2 2890.87 10220.9 2915.34 10236.5L2930.48 10223.9C2931.99 10200.9 2929.13 10191.2 2912.88 10173.9C2850.7 10107.5 2712.91 10071.2 2624 10071.1C2535.72 10071.1 2447.79 10101.4 2384.52 10164.1C2375.54 10173.1 2368.68 10182.9 2362.71 10194.1L2368.13 10209C2388.49 10215.2 2400.98 10218.3 2422.35 10213.5L2427.71 10217.8C2434.46 10214.3 2441.12 10210.9 2447.71 10207.6C2441.13 10210.9 2434.46 10214.3 2427.71 10217.8C2442.91 10258.1 2527.41 10304.6 2564.25 10334.9C2583.29 10329 2600.23 10321.8 2618.07 10313.1L2629.1 10319.8L2591.11 10337.5C2591.16 10358.5 2596.33 10361.5 2609.21 10378.5L2627.43 10385.6C2634.2 10379.7 2639.67 10374.5 2647.83 10370.6C2654.38 10393.6 2652.07 10410.4 2648.25 10433.3C2658.11 10456.7 2674.51 10466.6 2694.69 10480.3C2688.57 10495.4 2678.7 10513.3 2677.4 10529.5C2649 10437.4 2566.73 10394.8 2516.85 10315.7C2495.34 10330.9 2462.85 10348.1 2456.78 10375C2469.28 10413.6 2553.48 10442.7 2583.38 10470.4C2606.2 10491.6 2622.95 10521.6 2637.38 10549.4L2640.24 10554.9L2643.23 10567C2581.29 10583.7 2522.54 10600.8 2464.37 10628.1L2458.19 10610.1C2400.59 10566.2 2331.01 10539.7 2257.3 10546.9C2180.29 10554.5 2138.61 10602.2 2092.76 10658.9C2029.21 10637.4 1967.06 10615.2 1899.4 10613C1844.28 10611.2 1774.09 10643.2 1725.48 10625.9C1714.84 10611.9 1712.36 10610.1 1711.39 10591.6C1743 10583.4 1740.84 10620.3 1772.29 10629.8C1791.32 10620.6 1797.09 10606.8 1805.69 10588.8L1809.09 10581.4L1821.01 10599.1C1839.21 10596.7 1855.15 10598.4 1867.96 10584.5L1860.54 10557.6L1865.23 10551.9C1876.56 10566.8 1886.96 10579.2 1901.9 10590.5L1916.93 10582.1C1933.32 10551.6 1952.5 10521.1 1958.49 10486.6C1928.65 10434.6 1820.11 10489.9 1765.99 10465.5C1743.47 10455.3 1739.66 10440.9 1731.22 10420.1C1755.87 10421.3 1766.46 10447.2 1790.11 10451.1C1843.26 10459.9 1902.18 10441.2 1957.59 10449.7C1969.68 10451.5 1981.69 10473.8 1989.34 10483.9C2031.1 10468.7 2088.9 10438.2 2120.34 10407C2115.07 10396.4 2111.92 10391.4 2113.8 10379.1L2136.83 10402.2C2163.62 10401.1 2178.41 10395.3 2201.32 10381.8L2204.34 10363.7C2172.31 10307.4 2073.2 10250.8 2012.46 10232L2029.44 10219C2122.91 10266.5 2182.73 10314.1 2251.93 10385.5C2246.6 10386.2 2241.42 10387.1 2236.42 10388.2C2142.24 10410.1 2020.4 10454.6 1967.52 10540.8C1959.75 10553.5 1956.26 10566.8 1953.68 10581.4L1962.2 10599.1C2046 10601.8 2093.4 10451.5 2311.55 10452C2345.7 10452.1 2380.44 10451.2 2412.08 10465.7L2408.59 10474.9C2301.64 10467.8 2198.94 10445.9 2108.37 10524.6C2106.98 10525.8 2105.79 10527.1 2104.5 10528.5C2078.69 10553.2 2040.54 10581.7 2027.05 10615.2C2040.82 10624.8 2042.25 10627.7 2059.82 10624.5C2130.01 10612 2190.14 10542.2 2262.81 10532.9C2362.82 10520.2 2434.07 10600.7 2475.6 10598.2C2504.94 10596.6 2524.7 10565.9 2548.85 10558.2C2573.48 10550.2 2590.25 10563 2614.35 10546C2605.96 10508.1 2549.71 10461.6 2518.38 10441.6C2480.06 10417 2422.3 10397.7 2364.39 10388.6C2367 10387.9 2369.76 10387 2372.72 10385.7C2381.13 10382.3 2389.24 10374.9 2396.17 10369C2400.8 10350.4 2403.42 10326.5 2416.88 10312.4L2414.32 10324.7L2423.99 10350.8C2449.84 10336.4 2459.55 10332.8 2475.2 10306.9C2471.51 10287.4 2470.8 10280.1 2453.5 10267.6C2424.89 10247.1 2364.21 10244.4 2329.92 10245.7C2308.02 10265 2302.74 10290.8 2301.22 10320.4C2300.05 10343.1 2309.94 10359.9 2322.12 10377.8C2327.16 10380.4 2331.63 10382.9 2335.9 10384.9C2316.03 10382.9 2296.53 10382.2 2278.18 10383.1C2286.16 10341.3 2294.07 10299 2289.75 10256.7C2279.93 10249.4 2271.4 10244.6 2260.01 10240L2256.35 10238.6C2288.61 10193.5 2513.13 10059.3 2574.59 10049C2605.01 10043.8 2703.71 10067.7 2723.6 10051.4C2762.92 10019.2 2785.31 9930.59 2872.34 9870.13ZM2867.94 10384.1C2868.04 10385.9 2868.11 10387.6 2868.16 10389.4C2868.11 10387.6 2868.04 10385.9 2867.94 10384.1V10384.1Z" fill="#E8DFCC"/>
<path d="M1368.03 10015.4L1350.95 9994.11C1352.99 9987.25 1353.17 9979.94 1359.1 9975.52C1392.52 9950.44 1443.11 9951.97 1482.32 9958.11L1510.9 9972.54L1527.91 9989.06C1525.17 10001.1 1522.75 10012.2 1517.3 10023.3L1515.95 10040.9L1528.93 10055.8C1529.14 10088.8 1546.18 10124 1564.73 10150.8L1576.04 10155.6L1596.25 10198.5C1554.66 10250.3 1539.24 10322.8 1498.51 10369.8C1473.43 10387.9 1433.36 10443.3 1416.5 10470.8L1392.43 10481.9C1363.07 10472.8 1358.76 10470.2 1342.17 10444.3L1340.87 10458.3C1324.12 10467.8 1307.75 10478.9 1288.03 10480.1C1275.17 10480.8 1274.45 10477.8 1264.71 10469.4C1259.42 10422.4 1286.48 10390.6 1311.97 10354.7C1294.37 10358 1280.03 10357.7 1262.28 10355.4C1258.15 10350.2 1250.79 10343.9 1251.24 10337.2C1253.7 10300.5 1291.84 10265.7 1318.03 10243.1L1314.38 10229C1298.39 10232.7 1280.58 10238 1264.16 10238.1C1243.71 10238.3 1239.83 10236.2 1226.38 10222.7L1230.27 10202.4C1250.08 10179.6 1267.52 10166.4 1294.17 10152.2L1293.87 10133L1262.52 10112.6L1259.98 10093.5C1284.38 10055 1338.54 10045.2 1379.57 10033.9L1368.03 10015.4Z" fill="#6D552B"/>
<path d="M1368.03 10015.4L1350.95 9994.11C1352.99 9987.25 1353.17 9979.94 1359.1 9975.52C1392.52 9950.44 1443.11 9951.97 1482.32 9958.11L1510.9 9972.54L1527.91 9989.06C1525.17 10001.1 1522.75 10012.2 1517.3 10023.3L1515.95 10040.9L1528.93 10055.8C1529.14 10088.8 1546.18 10124 1564.73 10150.8L1576.04 10155.6L1506.97 10195.9L1499.86 10192.4C1516.35 10173 1532.64 10153.2 1550.06 10134.5C1477.95 10169.7 1394.89 10222.8 1318.03 10243.1L1314.38 10229C1298.39 10232.7 1280.58 10238 1264.16 10238.1C1243.71 10238.3 1239.83 10236.2 1226.38 10222.7L1230.27 10202.4C1250.08 10179.6 1267.52 10166.4 1294.17 10152.2L1293.87 10133L1262.52 10112.6L1259.98 10093.5C1284.38 10055 1338.54 10045.2 1379.57 10033.9L1368.03 10015.4Z" fill="#5C441E"/>
<path d="M1368.04 10015.4L1350.96 9994.11C1353 9987.25 1353.18 9979.94 1359.1 9975.52C1392.52 9950.44 1443.11 9951.97 1482.32 9958.11L1510.91 9972.54L1527.91 9989.06C1525.17 10001.1 1522.75 10012.2 1517.3 10023.3L1515.95 10040.9L1528.93 10055.8C1473.79 10104 1365.19 10125.8 1293.87 10133L1262.52 10112.6L1259.98 10093.5C1284.38 10055 1338.54 10045.2 1379.57 10033.9L1368.04 10015.4Z" fill="#5C441E"/>
<path d="M1368.03 10015.4L1350.95 9994.11C1352.99 9987.25 1353.17 9979.94 1359.1 9975.52C1392.52 9950.44 1443.11 9951.97 1482.32 9958.11L1510.9 9972.54L1527.91 9989.06C1525.17 10001.1 1522.75 10012.2 1517.3 10023.3L1515.95 10040.9C1474.28 10029 1422.83 10034.2 1379.56 10033.9L1368.03 10015.4Z" fill="#5C441E"/>
<path d="M1368.03 10015.4C1416.9 10016.3 1469.35 10013.4 1517.3 10023.3L1515.94 10040.9C1474.28 10029 1422.82 10034.2 1379.56 10033.9L1368.03 10015.4Z" fill="#A28C64"/>
<path d="M1528.94 10055.8C1529.14 10088.8 1546.19 10124.1 1564.74 10150.9L1576.04 10155.6L1506.98 10195.9L1499.87 10192.5C1516.36 10173 1532.64 10153.2 1550.07 10134.5C1477.96 10169.7 1394.9 10222.8 1318.04 10243.1L1314.38 10229C1369.16 10194.3 1485.54 10170.7 1520.47 10115.1C1468.99 10091.2 1355.9 10143.4 1299.75 10151.4L1294.17 10152.2L1293.88 10133C1365.19 10125.8 1473.79 10104 1528.94 10055.8Z" fill="#A28C64"/>
<path d="M1311.97 10354.7C1382.16 10320.1 1431.3 10253.4 1502.09 10216.5C1460.24 10301.9 1388.87 10364 1342.17 10444.3L1340.87 10458.3C1324.13 10467.8 1307.75 10478.9 1288.04 10480.1C1275.17 10480.8 1274.46 10477.8 1264.71 10469.4C1259.43 10422.4 1286.49 10390.6 1311.97 10354.7Z" fill="#5C441E"/>
<path d="M2461.5 10745.2L2461.45 10745.8L2460.81 10741L2491.21 10738.4L2461.5 10745.2ZM2460.81 10741L2460.49 10741L2460.8 10740.9L2460.81 10741ZM3289.03 10376.2C3378.1 10363.1 3512.46 10401.4 3583.82 10456.1C3605.89 10473.1 3626.38 10492.1 3645.02 10512.8L3624.25 10522.7C3615.68 10514 3606.84 10505.6 3597.74 10497.4C3496.59 10406.9 3393.95 10392.1 3264.3 10398.6C3240.85 10424.9 3221.45 10456.1 3201.16 10484.9C3220.22 10479.5 3239.45 10474.7 3258.83 10470.6C3355.36 10449.6 3429.03 10456 3512.7 10510.5C3537.99 10527 3564.64 10544 3571.04 10574.7C3545.81 10572.9 3502.41 10523.8 3478.09 10508C3405.18 10460.6 3315.4 10472 3235.21 10489.3C3212.48 10493 3189.85 10497.4 3167.37 10502.3L3152.02 10485.4C3122.43 10489.3 3047.12 10518.5 3028.97 10541.8C3027.61 10543.6 3026.39 10545.4 3025.09 10547.3L3040.89 10568.4L2987.13 10611L2986.39 10623C3026.74 10627.4 3062.55 10620 3101.89 10612.3L3100.53 10623.8C3042.95 10641.5 2917.49 10652.1 2879.41 10693.4L2874.54 10729.2L2867.95 10730.3C2866.42 10719.8 2864.74 10707.5 2858.35 10698.7C2835.73 10667.3 2765.79 10649 2729.2 10644.9C2669.24 10638 2559.64 10646.8 2510.59 10687.7C2492 10703.2 2493.49 10711.5 2491.37 10734.2L2460.8 10740.9L2457.28 10714.6C2525.98 10574.1 2849.86 10675.5 2906.68 10645C2904.23 10641.7 2901.23 10637.3 2898.13 10634.4C2847.98 10587 2750.65 10565.2 2684.05 10564.6L2643.23 10567L2640.24 10554.9L2677.4 10529.5C2678.7 10513.3 2688.57 10495.4 2694.69 10480.3L2711.6 10462.4L2732.14 10480.2L2731.49 10513.7C2758.57 10489 2779.89 10476.8 2815.1 10466.7L2836.46 10470C2876.62 10556.9 2755.17 10555.8 2916.41 10615.5C2936.6 10588.9 2960.34 10550.6 2986.69 10530.6C3026.04 10500.9 3102.74 10493.3 3150.09 10467.1C3205.79 10436.4 3217.97 10386.6 3289.03 10376.2Z" fill="#E8DFCC"/>
<path d="M2711.61 10462.4L2732.14 10480.2L2731.49 10513.7L2734.56 10552.6C2717.86 10561.1 2702.33 10562.4 2684.06 10564.6L2643.24 10567L2640.24 10554.9L2677.41 10529.5C2678.7 10513.3 2688.58 10495.4 2694.69 10480.3L2711.61 10462.4Z" fill="#DAC69F"/>
<path d="M3100.53 10623.8C3042.95 10641.5 2917.49 10652.1 2879.42 10693.4L2874.54 10729.2C2927.28 10724.1 2980 10718.7 3032.68 10713C3075.48 10735.7 3113.34 10755.7 3143.42 10795.1L3143.42 10795.1L3126.04 10828.4C3112.19 10804.8 3101.45 10779.2 3073.47 10770.7L3051.57 10772.9C3040.26 10789.3 3035.41 10798 3040.17 10819C3043.16 10832.2 3049.7 10845.7 3055.03 10858V10858C3024.94 10921.2 2960.47 10928.7 2915.28 10976.3C2912.49 10961.8 2912.87 10946.5 2912.3 10931.8C2913.08 10921.6 2913.92 10911 2912.67 10900.8C2908.18 10864.1 2846.47 10822 2818.72 10799.4C2826.99 10788 2819.6 10768 2817.38 10754C2846.26 10752.3 2848.18 10749.5 2867.95 10730.3L2874.54 10729.2L2879.41 10693.4C2917.19 10652.4 3041 10641.6 3099.16 10624.2L3100.53 10623.8ZM2980.68 10777C2961.02 10770 2932.83 10775.4 2912.38 10777.4C2904.34 10797.9 2907.29 10823.6 2915.77 10843.9C2923.34 10861.9 2937.14 10870.8 2953.9 10879.6C2970.51 10873.8 2985.64 10867 3001.18 10858.7L3025.74 10853.6C3032.38 10839 3033.89 10837.4 3027.73 10821.4C3020.63 10802.8 2999.39 10783.7 2980.68 10777Z" fill="#E7D7B2"/>
<path d="M1340.87 10458.3L1342.17 10444.3C1358.76 10470.2 1363.08 10472.8 1392.43 10481.9C1347.11 10540.4 1223.67 10689.6 1231.16 10761.4C1231.85 10768.1 1233.66 10774.1 1235.32 10780.6C1237.11 10787.5 1236.66 10784.7 1234.61 10792.9L1211.78 10786.4L1207.27 10792.1C1182.01 10787.2 1179.64 10786.6 1162.27 10767.9L1178.17 10726.4L1193.81 10706.4L1195.45 10697.5C1230.09 10656.5 1337.08 10504.9 1340.87 10458.3Z" fill="#897146"/>
<path d="M1193.81 10706.4C1204.15 10712.9 1216.37 10716.7 1219.56 10729C1223.99 10746 1215.83 10769.5 1211.78 10786.4L1207.27 10792.1C1182.01 10787.2 1179.64 10786.6 1162.27 10767.9L1178.17 10726.4L1193.81 10706.4Z" fill="#6D552B"/>
<path d="M1498.5 10369.8C1493.85 10394.3 1490.7 10420.6 1483.88 10444.7C1423.08 10550 1364.35 10663.8 1320.6 10777.3C1303.97 10820.5 1297.38 10869.6 1278.87 10910.9C1269.85 10931.1 1257.2 10946.9 1238.84 10959.3C1246.77 10910.4 1256.09 10861.8 1266.78 10813.5L1266.78 10813.5C1281.33 10705.9 1412.95 10522.7 1416.5 10470.8H1416.5C1433.35 10443.3 1473.42 10387.9 1498.5 10369.8ZM1342.16 10444.3C1358.76 10470.2 1363.07 10472.8 1392.42 10481.9C1347.1 10540.4 1223.66 10689.5 1231.15 10761.4C1231.85 10768.1 1233.65 10774.1 1235.31 10780.6C1237.1 10787.5 1236.65 10784.7 1234.6 10792.9L1211.77 10786.4L1207.26 10792.1C1182.01 10787.2 1179.63 10786.6 1162.27 10767.9L1178.16 10726.4L1193.8 10706.4L1195.44 10697.5C1230.08 10656.5 1337.08 10504.9 1340.86 10458.3L1342.16 10444.3Z" fill="#897146"/>
<path d="M2818.72 10799.4C2805.73 10815.9 2790.54 10827.1 2793.02 10849.4C2795.65 10873.1 2824.64 10908.6 2837.29 10929.3C2808.67 10973 2790.3 11000.7 2738.96 11018.1L2716.5 11046.1C2789.39 11049.3 2792.63 11078.6 2844.06 11075.3C2901.05 11035.1 2857.23 10976.8 2888.91 10928.3L2912.3 10931.8V10931.8C2912.87 10946.5 2912.49 10961.8 2915.28 10976.3C2918.54 11002.7 2913.92 11022.3 2897.74 11043.2C2833.44 11126.1 2696.66 11149.5 2599.1 11160.2C2584.75 11161.7 2571.12 11161.8 2556.72 11160.5C2580.33 11135.1 2617.04 11128.4 2634.09 11098.8C2611.15 11087 2593.37 11094.3 2569.17 11102.1C2552.13 11107.6 2535.28 11113.8 2518.46 11120L2509.84 11113L2516.38 11096.2C2545.38 11085 2570.49 11077.8 2585.05 11049L2581.38 11021.9C2601.82 11040.7 2607.57 11051.8 2637.33 11050.9C2639.52 11050.9 2641.7 11050.5 2643.88 11050.3C2652.26 11030.2 2653.72 11022.3 2672.56 11010C2683.99 11019.4 2689.94 11024.7 2694.07 11039C2695.51 11044.1 2697.66 11047.4 2700.72 11051.6L2716.49 11046.1L2738.96 11018.1C2790.3 11000.7 2808.67 10973 2837.29 10929.3C2824.64 10908.6 2795.65 10873.1 2793.02 10849.4C2790.54 10827.1 2805.73 10815.9 2818.72 10799.4L2818.72 10799.4Z" fill="#E8DFCC"/>
<path d="M1549.47 10852C1475.22 10838.2 1392.83 10876.2 1321.02 10894.5C1372.83 10846.6 1465.2 10826.3 1533.46 10826.3C1548.43 10817.1 1551.34 10805.9 1557.36 10790L1547.86 10772.2C1514.87 10756.2 1480.14 10758.4 1444.45 10756.3C1416.55 10754.8 1412.9 10750.4 1394.35 10729.5L1400.97 10730.1C1460.54 10735.8 1507.66 10754 1565.44 10764.7C1585.81 10749.8 1594.01 10736.3 1605.29 10714.3L1590.24 10689L1596.89 10685.1C1613.04 10693.3 1625.59 10698.6 1635.6 10714.4C1613.52 10744.4 1586.01 10775.9 1572.83 10811C1570.05 10818.4 1573.83 10821.2 1577.06 10828L1599.58 10829.9C1638.49 10819.2 1672.88 10772.6 1702.62 10745.9C1950.46 10524.1 2139.79 10820.8 2213.02 10824.6L2224.23 10810.6C2213.59 10766.3 2164.44 10733 2142.51 10691.9L2149.63 10679.5L2164.56 10678C2166.11 10680.2 2168.22 10682.2 2169.21 10684.7C2171.17 10689.7 2169.65 10694.9 2172.2 10700.6C2186.23 10731.6 2245.36 10797.3 2277.4 10808.7C2316.49 10781.1 2369.96 10696.7 2391.32 10653.4L2372.83 10634.7C2402.3 10636.4 2428.13 10636.5 2457.05 10629.8L2464.37 10628.1C2393.17 10674.2 2351.68 10734.9 2314.83 10809.1C2391.91 10821.3 2450.22 10836.3 2518.52 10875.4C2387.52 10834.2 2288.03 10815.7 2154.73 10857.7L2145.67 10850.4L2160.14 10834.2C2151.17 10806.4 2119.52 10780.8 2097.56 10761.9C2041.35 10713.7 1953.65 10677.8 1878.54 10685.9C1815.28 10692.8 1690.68 10755.8 1652.95 10807.5C1641.42 10823.3 1642.82 10827.8 1645.48 10846.3C1671.97 10865.6 1678.09 10860.2 1709.67 10856.2C1716.32 10869.3 1722.76 10882.7 1733.26 10893.1C1748.1 10907.8 1750.41 10908.3 1770.57 10908.2C1779.82 10893.6 1789.29 10879.9 1804.22 10870.5C1843.66 10845.6 1923.35 10840.7 1968.34 10851.7L1967.97 10859.8C1959.2 10859 1950.43 10858.4 1941.65 10857.8C1896.15 10855.1 1846.48 10861.1 1811.46 10893.5C1798.52 10905.4 1797.52 10907.6 1797.02 10924.9C1851.06 10956.9 1950.78 10907 2005.01 10947.1C1991.08 10963.6 1982.45 10980.7 1961.08 10985.9C1962.19 10969.5 1962.56 10966.3 1955.01 10951C1887.82 10921.3 1824.03 10965.8 1807.66 10962.1C1728.89 10943.7 1709.62 10865.6 1549.47 10852Z" fill="#F9F8EE"/>
<path d="M902.021 10812L944.496 10821.6C972.15 10826.6 994.084 10827.9 1021.96 10824C1046.31 10843.6 1063.8 10867.8 1067.81 10899.3C1072.86 10939 1056.97 10988.9 1031.93 11019.5C1022.59 11031 1012 11042 1001.67 11052.6C974.496 11045.3 950.406 11036.3 925.026 11024.1L921.381 11014.8C947.167 11002.6 968.64 10991.6 982.643 10965.5C995.563 10941.5 993.47 10923.8 986.486 10899C968.189 10888.4 946.688 10927.8 915.868 10929.1C899.74 10915.6 894.484 10908.1 889.506 10887.4C882.144 10856.8 887.062 10838.2 902.021 10812Z" fill="#DAC69F"/>
<path d="M2758.73 10723.2L2817.38 10754C2819.6 10768 2826.99 10788 2818.72 10799.4C2805.74 10815.9 2790.54 10827.1 2793.02 10849.4C2795.65 10873.1 2824.64 10908.6 2837.29 10929.3C2808.67 10973 2790.3 11000.7 2738.96 11018.1L2730.53 11014.6C2739.9 10981 2759.88 10940.1 2750.2 10905.6C2730.45 10875.5 2702.94 10869.8 2672.48 10854.3C2693.56 10829.7 2699 10791.5 2724.96 10772.3C2739 10761.8 2744.75 10752.4 2753.29 10737.4L2758.73 10723.2Z" fill="#DAC69F"/>
<path d="M2672.57 11010C2684 11019.4 2689.94 11024.7 2694.08 11039C2695.51 11044.1 2697.67 11047.4 2700.72 11051.6L2716.5 11046.1L2738.96 11018.1L2738.96 11018.1L2716.5 11046.1L2700.72 11051.6C2697.67 11047.4 2695.51 11044.1 2694.07 11039C2689.94 11024.7 2684 11019.4 2672.57 11010C2655.25 11021.3 2652.61 11028.9 2645.8 11045.6C2652.62 11028.9 2655.25 11021.3 2672.57 11010ZM2672.48 10854.3C2702.94 10869.8 2730.45 10875.5 2750.2 10905.6C2759.88 10940.1 2739.9 10981 2730.52 11014.6C2724.8 11010.1 2725.65 11011.9 2722.95 11006.5C2709.27 10979.5 2688.53 10928.6 2662.58 10915.2C2642.29 10935.5 2640.53 10969.5 2635.81 10996.8L2643.88 11050.3L2643.88 11050.3L2635.81 10996.8C2611.41 10965.8 2580.4 10938.1 2583.48 10897.4C2604.44 10872.3 2642.28 10864.3 2672.48 10854.3Z" fill="#F9F8EE"/>
<path d="M1617.89 10181.4C1626.76 10194.6 1637.53 10208 1644.76 10222C1611.03 10291.5 1608.74 10372.2 1577.6 10438L1563.93 10436.5C1545.62 10458.1 1537.48 10476.6 1509.22 10482.2C1497.48 10470.2 1490.49 10460.1 1483.88 10444.7C1490.7 10420.6 1493.85 10394.3 1498.51 10369.8C1539.24 10322.8 1554.66 10250.3 1596.25 10198.5L1617.89 10181.4Z" fill="#5C441E"/>
<path d="M1617.89 10181.4C1626.76 10194.6 1637.53 10208 1644.76 10222C1611.03 10291.5 1608.74 10372.2 1577.6 10438L1563.93 10436.5C1569.23 10371.7 1597.97 10311.8 1609.69 10248.4C1614.13 10224.4 1609.38 10206.3 1617.89 10181.4Z" fill="#897146"/>
<path d="M1644.76 10222C1658.89 10220.7 1674.54 10217.8 1688.51 10220.3L1703.14 10232.2C1690.19 10293.5 1681.79 10357.6 1666.45 10417.9L1656.02 10414.8C1645.91 10444.6 1644.21 10456 1620.11 10477.2C1601.3 10474.9 1601.23 10475.6 1589 10460C1583.26 10452.6 1579.75 10447.2 1577.6 10438C1608.75 10372.2 1611.03 10291.5 1644.76 10222Z" fill="#5C441E"/>
<path d="M1688.5 10220.3L1703.14 10232.2C1690.19 10293.5 1681.79 10357.6 1666.44 10417.9L1656.01 10414.8C1654.65 10350.6 1674.76 10282.8 1688.5 10220.3Z" fill="#897146"/>
<path d="M1703.14 10232.2L1723.73 10223C1735.47 10238.9 1751.08 10256.1 1759.28 10274C1749.17 10328.8 1740.02 10394.1 1701.22 10436.6L1683.4 10440.7C1676.07 10432.9 1670.79 10428 1666.45 10417.9C1681.79 10357.6 1690.19 10293.5 1703.14 10232.2Z" fill="#5C441E"/>
<path d="M1162.27 10767.9C1179.63 10786.6 1182.01 10787.2 1207.26 10792.1C1192.26 10828.2 1174.84 10863 1157.32 10898L1135.97 10891.9L1139.2 10915.9L1135.12 10908.9L1135.89 10916.3C1112.56 10868.5 1144.49 10812.2 1157.39 10765.7L1162.27 10767.9Z" fill="#897146"/>
<path d="M2753.29 10737.4C2648.71 10702.8 2636.05 10756.1 2566.88 10755.2L2571.29 10739C2577.95 10734.7 2584.99 10730.6 2592.48 10727.9C2641.18 10710.3 2710.89 10702.6 2758.73 10723.2L2753.29 10737.4Z" fill="#F9F8EE"/>
<path d="M1218.89 10969.5C1226.99 11000.1 1204.43 11028.9 1189.56 11056C1187.47 11050.8 1186.73 11049.7 1185.72 11044.7C1180.08 11016.8 1203.82 10990.7 1218.89 10969.5Z" fill="#F9F8EE"/>
<path d="M512.698 10965.8C504.516 11026.1 463.975 11070.2 472.467 11136.6C475.67 11161.6 486.456 11181.9 507.395 11196.6C549.147 11225.9 631.95 11222.4 679.846 11212.1C699.289 11189.7 661.077 11165 666.969 11138.7C671.443 11118.8 712.489 11084.3 721.859 11056C735.652 11049.4 753.581 11046 768.379 11041.6L783.749 11037.9C793.167 11026.5 800.799 11019.3 813.502 11011.8C801.555 11047.1 766.9 11121.7 778.387 11154.6L807.15 11148.8C808.279 11165.3 807.406 11185.1 811.888 11200.7C902.221 11217.1 967.951 11236.7 1044.86 11287.1C1046.85 11312.3 1048.35 11337.7 1048.8 11362.9C1049.68 11411.5 1035.84 11453.7 1000.77 11488.6C910.515 11578.1 547.636 11535.2 417.379 11532.7C421.51 11417.7 384.306 11064.9 456.657 10989.7C472.826 10972.8 489.148 10965.5 512.698 10965.8ZM466.438 11496.3L661.931 11487.9L621.105 11376L585.035 11409.2C568.483 11407.9 558.214 11401.1 544.239 11392.6C536.267 11373.4 535.249 11371.4 539.923 11351.3L545.002 11367.8L553.492 11367C578.461 11345 600.6 11328.5 603.859 11293L570.34 11284.2L468.664 11251.5L466.438 11496.3ZM741.732 11258.5C715.976 11301.5 695.453 11349.6 707.355 11400.8C714.637 11432 736.69 11458.6 764.149 11474.7C801.196 11496.3 849.306 11500.6 890.364 11489.2C923.095 11480.2 954.051 11459.2 970.084 11428.7C986.144 11398.1 986.938 11360.3 976.544 11327.7C974.496 11321.3 972.078 11315 969.579 11308.7C930.404 11282.4 903.408 11276.8 857.151 11285.5C837.293 11301.8 837.663 11303.9 832.386 11329.2L839.122 11348C868.728 11360.6 899.11 11341.6 924.079 11357.5C920.443 11381.5 918.088 11385.7 902.795 11404.7C874.134 11417.6 837.438 11421 807.77 11408.3C780.611 11396.7 765.303 11368.9 756.392 11342.3C747.218 11314.8 749.495 11285.6 741.732 11258.5Z" fill="#D6BF91"/>
<path d="M570.34 11284.2L603.858 11293C600.599 11328.5 578.461 11345 553.492 11367L545.002 11367.8L539.922 11351.3C543.058 11323.2 554.501 11306.8 570.34 11284.2Z" fill="#CFB480"/>
<path d="M1226.83 11213.1C1246.21 11231.5 1266.32 11258.9 1294.23 11260.6C1301.7 11261 1309.78 11259.5 1317.16 11258.3L1324.35 11270L1321.34 11275.6L1297.83 11284.6C1293.61 11315.5 1311.89 11381.3 1288.54 11403.3C1287.23 11379.3 1287.3 11350.5 1280.71 11327.3C1273.87 11303.3 1249.24 11269.2 1226.62 11258.2C1215.77 11253 1204.83 11253.4 1193.58 11258.4C1130.58 11286.2 1170.51 11319 1151.95 11357C1130.29 11350.5 1115.47 11343.4 1104.82 11321.9C1094.56 11301.3 1095.57 11285 1102.09 11263.2C1134.66 11224.6 1179.81 11219.5 1226.83 11213.1Z" fill="#DAC69F"/>
<path d="M642.657 10890.4C682.908 10904.8 695.322 10948.8 734.627 10954.5C760.334 10978.4 754.651 11010 768.38 11041.6C753.582 11046 735.652 11049.4 721.86 11056C717.589 11024 714.78 10995 692.635 10969.6C653.975 10925.3 586.403 10923.7 531.952 10919.3L531.523 10910.2C544.367 10909.7 557.484 10912.5 567.045 10903.6L529.773 10900L535.867 10891.2C567.629 10889.5 598.225 10895.7 629.361 10901.2L642.657 10890.4Z" fill="#E8DFCC"/>
<path d="M1193.75 11478.1C1221.04 11429.6 1228.71 11401.8 1221.49 11346.5L1235.24 11346.7C1249.66 11379.7 1237.14 11424.8 1224.58 11457.8C1219.54 11471.1 1211.27 11482.3 1202.32 11493.3L1193.75 11478.1Z" fill="#E7D7B2"/>
<path d="M623.059 10994.4C642.364 11000 659.231 11015 669.389 11032.4C680.155 11050.8 679.299 11067.8 673.539 11087.6C665.705 11114.4 640.069 11126.1 617.24 11137.8C601.426 11133.2 586.495 11126.3 571.386 11119.8C558.123 11102.3 554.922 11100.8 555.735 11079.3C575.025 11049.5 597.032 11033.5 626.326 11014.1L623.059 10994.4Z" fill="#DAC69F"/>
<path d="M407.263 9553.59C401.751 9578.41 387.298 9614.14 400.819 9637.15C404.878 9644.1 411.927 9650.33 417.691 9655.92C445.257 9720.98 442.42 9854.35 486.494 9896.85L488.752 9901.8L466.687 9907.67C437.531 9958.2 451.837 10080.2 452.245 10138.7L459.59 10144.2L461.459 10142.9C477.491 10124.1 491.154 10103.6 505.266 10083.4L505.267 10083.4C491.155 10103.6 477.492 10124.1 461.459 10142.9L480.051 10151.3C431.334 10227.4 450.154 10527.8 465.422 10618.6C465.679 10620.2 465.97 10621.7 466.245 10623.1C464.817 10624.2 463.493 10625.5 461.961 10626.4C442.266 10638.4 435.243 10637.6 413.641 10633.9C380.02 10597.9 401.392 10439.7 402.642 10385.8C406.305 10228 445.271 9776.02 339.188 9664.76C351.618 9652.76 362.51 9641.39 372.059 9626.86C381.884 9611.98 378.609 9609.54 375.203 9592.67C384.443 9578.77 396.381 9566.23 407.263 9553.59Z" fill="#DAC69F"/>
<path d="M318.731 8403.83C372.882 8463.29 293.683 9326.11 351.591 9421.22C352.698 9423.03 353.871 9424.74 355.011 9426.54L329.29 9437.19L330.73 9445.58C330.731 9445.58 330.732 9445.59 330.732 9445.59C330.042 9487.82 323.411 9538.7 341.422 9577.68C353.038 9585.35 361.566 9589.68 375.201 9592.66C384.44 9578.77 396.376 9566.22 407.257 9553.59L407.259 9553.59C407.258 9553.6 407.257 9553.6 407.257 9553.6C396.376 9566.23 384.442 9578.77 375.203 9592.67C378.609 9609.54 381.884 9611.98 372.059 9626.87C362.51 9641.39 351.618 9652.76 339.188 9664.76C322.483 9791 332.963 9928.88 333.203 10056.4C333.567 10250.5 320.274 10462.8 349.904 10654.5C358.128 10707.7 373.648 10754.8 400.907 10801.6C400.907 10801.6 400.907 10801.6 400.907 10801.6C413.079 10819.9 421.447 10827.1 415.711 10850.6C413.796 10858.5 410.1 10866.2 406.87 10873.6C384.042 10855.4 360.663 10837.6 338.654 10818.4C329.7 11083.3 354.543 11352.3 334.699 11616.1C480.39 11614.8 903.061 11632.5 1019.5 11592.6C1089.11 11568.8 1139.43 11525.3 1193.75 11478.1L1202.32 11493.3L1196.35 11507.2C1238.04 11493.4 1267.85 11439.9 1288.54 11403.3C1311.89 11381.3 1293.61 11315.5 1297.83 11284.6L1321.34 11275.6L1321.34 11275.6L1334.03 11291.4L1334.03 11291.4C1337.01 11368.8 1341.85 11442.1 1285.06 11503.3C1239.41 11552.6 1171.87 11577.7 1113.25 11608.3C1177.57 11607.8 1242.45 11608.9 1306.67 11606.1C1332.25 11575.4 1357.18 11540.6 1386.55 11513.7C1391.86 11508.3 1397.23 11503.2 1403.14 11498.6C1479.03 11438.9 1671.33 11478.7 1762.03 11488.8C1762.04 11488.8 1762.04 11488.9 1762.04 11488.9C1671.35 11478.7 1479.03 11438.9 1403.13 11498.6C1397.23 11503.2 1391.86 11508.3 1386.55 11513.7C1400.52 11523.9 1415.47 11533.5 1428.12 11545.2C1404.27 11564.4 1380.6 11583.8 1356.11 11602.1C1427.06 11607.6 1496.27 11611.7 1567.3 11605.2C1567.31 11605.2 1567.31 11605.3 1567.31 11605.3C1790.4 11613.3 2015.69 11603.6 2239.05 11603.4C2422.99 11603.1 2610.72 11613.2 2794.11 11605.1C2794.11 11605.1 2794.12 11605.1 2794.12 11605.1C2857.73 11620.9 2927.39 11618.5 2992.6 11616.3C2974.38 11600.1 2970.39 11599.4 2946.99 11596.4C2914.37 11592.3 2906.19 11592.9 2885.13 11565.8C2895.29 11547.6 2910.06 11530.7 2922.63 11514L2938.25 11500.1C2980.12 11524.9 3018.91 11555.2 3030.71 11604.9C3035.03 11623.1 3031.72 11637.5 3023.98 11654.1L3014.63 11640.6C2911.29 11666.4 2769.34 11655.2 2662.84 11654.7C2505.09 11653.4 2347.35 11652.8 2189.6 11653.2L1285.05 11664.4C950.253 11666.7 615.814 11663.4 281.047 11672L286.39 9533.56C286.403 9183.36 276.006 8829.1 286.959 8479.54C287.783 8453.19 288.125 8428.91 301.953 8405.63L318.731 8403.83ZM2807.8 11489.9C2794.02 11517.9 2798.14 11550.1 2799.28 11580.4L2799.28 11580.4C2798.13 11550.1 2794.02 11517.9 2807.8 11489.9C2807.8 11489.9 2807.8 11489.9 2807.8 11489.9ZM1526.85 11530.7C1515.26 11541.7 1502.96 11550.6 1489.52 11560C1489.52 11560 1489.52 11560 1489.52 11560L1489.52 11560C1502.96 11550.6 1515.26 11541.7 1526.85 11530.7ZM1532.56 11525C1531.3 11526.4 1530.03 11527.6 1528.75 11528.9C1530.03 11527.6 1531.3 11526.4 1532.56 11525ZM1523.04 11360.8L1431.94 11411.2C1431.94 11411.2 1431.94 11411.2 1431.93 11411.2L1523.03 11360.8C1523.03 11360.8 1523.04 11360.8 1523.04 11360.8Z" fill="#D6BF91"/>
<path d="M1600.72 8665.05C1647.14 8563.18 1623.71 8548.29 1716.39 8455.89C1706.21 8577.98 1708.34 8654.41 1729.38 8776.76C1733.27 8799.32 1751.14 8873.77 1752.68 8889.65C1776.37 8958.86 1796.63 9018.41 1826.47 9085.73L1841.61 9114.87C1858.08 9143.93 1898.86 9211.78 1907.62 9239.58C1976.74 9325.66 1996.66 9374.21 2009.04 9486.91C2022.95 9613.42 1999.34 9727.83 2158.08 9728.92L2111.43 9735.96L2108.7 9746.69C2139.28 9779.45 2239.6 9795.24 2284.65 9797.5C2308.02 9798.58 2330.68 9793.43 2353.24 9787.93C2349.93 9806.25 2348.17 9834.04 2341.01 9850.73C2320.44 9968.94 2285.15 10059.3 2182.7 10131.5C2135.42 10164.8 2081.56 10193.9 2029.44 10219L2012.46 10232C1931.33 10240.1 1836.89 10248.4 1759.28 10274C1751.08 10256.1 1735.47 10238.9 1723.73 10223L1703.14 10232.2L1688.5 10220.3C1674.54 10217.8 1658.89 10220.7 1644.76 10222C1637.53 10208 1626.76 10194.6 1617.89 10181.4L1596.25 10198.5L1576.04 10155.6L1564.73 10150.9C1546.18 10124.1 1529.14 10088.8 1528.93 10055.8L1515.95 10040.9L1517.3 10023.3C1522.75 10012.2 1525.17 10001.1 1527.91 9989.06L1510.91 9972.55L1482.32 9958.11C1466.56 9933.66 1457.39 9924.27 1462.85 9895.31C1478.59 9881.41 1478.29 9878.98 1485.14 9858.31L1476.01 9843.51C1438.63 9835.12 1425.89 9837.92 1415.15 9800.11L1434.32 9766.01C1363.57 9659.71 1298.43 9534.28 1328.67 9401.55C1341.48 9345.33 1267.51 9319.44 1298.28 9271.52L1334.94 9265.39C1340.91 9227.31 1254 9148.17 1295.34 9112.35C1315.3 9120.02 1324.68 9124.53 1346.29 9127.6C1349.34 9081.85 1286.03 9040.16 1313.51 8970.32C1330.48 8955.7 1322.35 8959.4 1344.3 8955.97C1357.98 8924.66 1322.74 8856.62 1356.17 8803.84C1378.43 8806.63 1381.16 8818.36 1399.81 8839.75L1407.17 8838.49C1414.97 8773.07 1388.55 8703.95 1434.97 8655.58C1467.92 8667.58 1447.33 8700.7 1479.14 8725.78L1488.67 8710.17C1488.87 8683.64 1491.5 8651.16 1492.95 8624.09C1503.87 8591.15 1521.97 8536.29 1553.25 8517.88C1600.5 8540.17 1576.9 8632.75 1600.72 8665.05Z" fill="#E7D7B2"/>
<path d="M1528.69 9471.38C1567.72 9477.79 1609.41 9496.2 1647.24 9484.38L1654.49 9496.11L1654.69 9496.02C1646.96 9479.32 1645.37 9465.52 1644.42 9447.38L1663.17 9440.88L1671.49 9420.58C1660.88 9390.71 1633.71 9374.11 1610.53 9352.82C1661.01 9343.88 1704.56 9429.06 1747.47 9450.54C1762.71 9458.12 1763.95 9456.86 1779.18 9451.98C1771.85 9432.4 1770.45 9417.97 1771.49 9397.21C1789.11 9373.66 1793.38 9351.37 1819.2 9334.59C1820.7 9333.6 1822.24 9332.7 1823.76 9331.7C1796.04 9439.26 1827.04 9664.58 1885.43 9762.3C1914.85 9811.57 1960.8 9853.26 2017.34 9867.88C2053.92 9877.35 2094.73 9872.57 2131.99 9869.68C2110.1 9886.46 2086.5 9903.79 2067.6 9923.82C2024.82 9969.3 1991.52 10028 1951.9 10076.9C1928.14 10106.4 1893.48 10131.2 1873.87 10162.9L1867.69 10164.4L1856.28 10156.9L1859.51 10139C1872.99 10126.4 1883.04 10114.4 1892.96 10098.9C1878.69 10079 1849.99 10083.5 1826.45 10076.8C1849.51 10054.1 1882.11 10028 1898.58 10000.4C1908.75 9983.47 1907.64 9979.95 1902.68 9961.72L1887.37 9955.94L1853.36 9984.28L1872.21 9943.67L1865.01 9932.66C1845.71 9936.09 1829.92 9943.13 1812.32 9951.25C1807.34 9939.34 1822.8 9908.39 1823.02 9891.52C1802.19 9866.79 1767.22 9852.99 1738.8 9838.37L1754.93 9822.76L1752.74 9811.21L1715.89 9804.35C1722.32 9793.97 1725.85 9784.77 1729.28 9773.13C1649.69 9745.16 1540.83 9787.02 1455.15 9768.44L1453.31 9762.48C1541.25 9760.77 1621.77 9754.99 1708.7 9742.27L1715.36 9731.35C1664.28 9676.94 1527.24 9727.74 1455.85 9693.72C1502.09 9666.02 1610.57 9719.53 1666.09 9688.76C1671.65 9685.69 1672.21 9676.49 1673.89 9670.44C1658.82 9638.5 1662.2 9586.43 1653.66 9579.67C1637.55 9567.03 1621.84 9581.38 1607.04 9558.64C1625.63 9552.15 1643.47 9550.43 1662.89 9548.54L1663.85 9538.16C1624.51 9503.42 1577.22 9488.8 1528.69 9471.38Z" fill="#DAC69F"/>
<path d="M1774.43 9763.03C1782.35 9761.85 1790.32 9760.59 1798.32 9760.05C1831.96 9757.7 1841.55 9766.19 1865.66 9788.29C1879.73 9801.2 1896.46 9811.3 1909.75 9824.93C1927.71 9843.43 1933.69 9854.34 1932.92 9879.7C1917.68 9897.39 1906.08 9903.79 1884.89 9911.91C1880.91 9903.34 1876.7 9894.77 1872.78 9886.11C1854.73 9846.13 1800.43 9822.58 1773.86 9788.2C1769.59 9782.7 1773.52 9770.07 1774.43 9763.03Z" fill="#E7D7B2"/>
<path d="M1685.77 9439.53C1692.51 9441.79 1690.29 9440.88 1696.92 9443.68C1738.94 9461.46 1778.76 9476.08 1797.2 9520.65C1772.43 9522.73 1743.08 9517.76 1722.49 9503.15C1699.06 9486.54 1689.78 9467.32 1685.77 9439.53Z" fill="#E7D7B2"/>
<path d="M1729.02 9711.77C1758.07 9708.79 1801.3 9699.86 1827.48 9713.93C1834.22 9717.63 1835.92 9733.24 1838.03 9740.73L1772.27 9754.72C1745.36 9743.89 1743.87 9735.77 1729.02 9711.77Z" fill="#E7D7B2"/>
<path d="M1694.12 9585.35C1738.06 9594.01 1781.29 9597.8 1811.35 9633.9C1780.93 9637.06 1752.63 9640.85 1722.48 9634.08C1699.12 9616.84 1699.89 9612.42 1694.12 9585.35Z" fill="#E7D7B2"/>
<path d="M1692.48 9521.02C1709.53 9524.17 1727.8 9526.97 1744.16 9532.66C1769.71 9541.59 1779.43 9550.79 1791.67 9574.25C1764.01 9574.25 1741.15 9571.82 1714.48 9564.42C1695.16 9546.91 1694.96 9546.91 1692.48 9521.02Z" fill="#E7D7B2"/>
<path d="M1700.25 9657.18C1717.58 9656.01 1735.12 9654.74 1752.5 9654.83C1781.22 9654.92 1792.04 9664.76 1811.13 9684.7C1792.73 9687.68 1772.6 9692.01 1753.97 9691.92C1727.76 9691.74 1716.4 9674.32 1700.25 9657.18Z" fill="#E7D7B2"/>
<path d="M1873.88 10162.9C1875.44 10162.8 1876.99 10162.8 1878.54 10162.6C2100.75 10141.7 2192.32 10002.1 2322.98 9841.71L2341.01 9850.73C2320.44 9968.94 2285.15 10059.3 2182.7 10131.5C2135.42 10164.8 2081.56 10193.9 2029.44 10219L2012.46 10232C1931.33 10240.1 1836.89 10248.4 1759.27 10274C1751.08 10256.1 1735.46 10238.9 1723.73 10223C1766.87 10171.7 1816.15 10182.5 1859.51 10139L1856.28 10156.9L1867.7 10164.4L1873.88 10162.9Z" fill="#D6BF91"/>
<path d="M1492.95 8624.09C1503.87 8591.15 1521.97 8536.29 1553.25 8517.88C1600.5 8540.17 1576.89 8632.75 1600.71 8665.06L1576.98 8669.03L1584.37 8684.37C1611.96 8830.82 1664.99 8955.25 1715.04 9094.03C1721.44 9111.81 1716.86 9121.19 1708.81 9135.63L1673.06 9132.65C1648.28 9113.25 1556.63 8955.43 1546.56 8919.34C1507.63 8837.04 1491.05 8800.77 1488.66 8710.17C1488.86 8683.64 1491.5 8651.16 1492.95 8624.09Z" fill="url(#paint0_linear_100_22967)"/>
<path d="M1492.95 8624.09C1495.3 8697.9 1502.54 8753.12 1525.68 8823.32C1534.56 8850.21 1551.1 8892.44 1546.56 8919.33C1507.63 8837.04 1491.05 8800.77 1488.66 8710.17C1488.86 8683.64 1491.5 8651.16 1492.95 8624.09Z" fill="#D6BF91"/>
<path d="M1600.71 8665.05C1647.13 8563.18 1623.71 8548.29 1716.39 8455.89C1706.21 8577.98 1708.34 8654.41 1729.38 8776.76C1733.27 8799.32 1751.13 8873.77 1752.68 8889.65C1776.37 8958.86 1796.63 9018.41 1826.46 9085.73C1787.86 9077.24 1779.4 9069.66 1753.07 9106.93C1741.2 9078.51 1734.39 9062.08 1726.64 9032.22C1655.84 8926.1 1625.26 8714.05 1584.37 8684.36L1576.98 8669.03L1600.71 8665.05Z" fill="#E7D7B2"/>
<path d="M1752.68 8889.65C1776.37 8958.86 1796.63 9018.41 1826.46 9085.73C1787.86 9077.25 1779.4 9069.67 1753.07 9106.93C1741.2 9078.51 1734.39 9062.09 1726.64 9032.22L1734.81 9035.65C1746.92 8978.17 1737.42 8914.73 1752.68 8889.65Z" fill="#DAC69F"/>
<path d="M1584.38 8684.36C1625.26 8714.05 1655.84 8926.1 1726.64 9032.21C1734.39 9062.08 1741.2 9078.5 1753.07 9106.93C1779.4 9069.66 1787.86 9077.24 1826.46 9085.72L1841.61 9114.87C1858.08 9143.92 1898.86 9211.78 1907.62 9239.57C1894.39 9231.81 1887.25 9225.13 1877.24 9213.49C1839.2 9225.76 1828.2 9285.5 1825.92 9323.04C1810.34 9306.7 1803.44 9302.56 1799.79 9280.36L1810.23 9286.4C1807.78 9252.2 1796.9 9219.09 1778.56 9190.03C1764.78 9168.1 1759.02 9151.68 1738.35 9146.9C1717.55 9167.83 1715.44 9173.97 1705.55 9202.03L1702.88 9209.61C1692.2 9183.99 1682.77 9158.63 1673.07 9132.64L1708.81 9135.62C1716.86 9121.18 1721.44 9111.8 1715.04 9094.02C1664.99 8955.24 1611.96 8830.81 1584.38 8684.36Z" fill="#CFB480"/>
<path d="M1753.06 9106.93C1779.4 9069.67 1787.85 9077.25 1826.46 9085.73L1841.61 9114.87C1847.34 9153.22 1857.39 9186.16 1837.48 9218.37L1820.1 9220.27C1792.43 9201.77 1753.22 9140.86 1753.06 9106.93Z" fill="#E7D7B2"/>
<path d="M1462.85 9895.31C1491.72 9898.38 1516.67 9900.64 1542.56 9914.62L1550.41 9930.77C1541.36 9950.81 1528.04 9960.01 1510.9 9972.55L1482.32 9958.12C1466.56 9933.66 1457.39 9924.28 1462.85 9895.31Z" fill="#6D552B"/>
<path d="M4803.95 10255.9L4827.18 10270.3C4727.91 10323 4629.48 10377.3 4531.95 10433.3L4548.96 10445.6L4545.48 10444.8C4455.65 10427.4 4365.11 10479.8 4292.96 10528.9C4141.6 10632 4005.85 10779.2 3971.29 10964.9C3954.79 11053.6 3960.57 11141.6 4013.67 11217.3C4045.3 11262.4 4098.37 11303.9 4154.07 11312.3C4175.4 11315.5 4197.96 11312.6 4215.31 11298.9C4247.89 11273.1 4262.31 11216.4 4264.18 11177C4265.09 11157.9 4262.76 11144.1 4252.42 11127.4C4224.44 11104.4 4187.07 11107.2 4164.09 11082.1C4184.27 11073.9 4201.47 11069.3 4222.69 11077.5C4253.71 11089.3 4282.89 11124.8 4293.88 11155.3C4304.66 11185.3 4301.32 11216.7 4287.28 11244.9C4270.05 11279.8 4238.5 11303.9 4201.79 11315.2C4152.59 11330.4 4099.68 11321.6 4055.39 11296.4C4029.73 11281.8 4007.43 11258.7 3988.35 11236.4C3973.53 11368 3956.27 11470.2 3860.77 11569.6C4045.24 11464 4235.04 11331.2 4459.07 11391.8C4593.87 11428.3 4738.79 11613.1 4830.96 11603C4854.73 11577.4 4868.48 11546.7 4900.72 11532.6C4923.49 11543.9 4928.52 11553 4942.5 11573.4C4942.7 11596 4940.89 11614.1 4924.58 11631.6C4910.39 11646.8 4890.31 11653.1 4869.95 11651.8C4835.95 11649.7 4802.67 11638.4 4768.34 11638.6C4642.15 11639.8 4617.26 11670.7 4484.09 11625.5C4457.2 11649.4 4424.29 11680.6 4385.44 11680.2C4344.94 11679.8 4308.93 11631.6 4260.05 11632.1L4238.02 11659.5L4220.31 11654.3C4213.37 11632.5 4225.87 11617.6 4235.04 11597.2C4218.17 11588.6 4217.84 11588.6 4199.41 11593.3C4189.09 11616.2 4183.86 11639.4 4178.31 11663.6L4165.35 11667.6C4146.33 11646.8 4133.43 11626.7 4136.08 11596.7C4137.5 11580.4 4149.7 11563.7 4162.24 11553.7C4182.34 11537.6 4207.9 11531.1 4233.09 11533.3C4291.7 11555.3 4325.07 11676.4 4406.97 11635.1C4425.4 11625.8 4425.54 11618.4 4432.67 11600C4428.44 11555.3 4409.19 11526.3 4374.65 11498.2C4366.99 11492 4358.92 11486.3 4350.64 11481L4350.3 11471.7C4381.67 11469.1 4399.54 11476.9 4423.4 11497C4472.16 11537.8 4547.84 11625.1 4614.21 11623.3C4634.51 11622.8 4647.03 11613.9 4662.09 11601.4C4661.73 11577.5 4641.5 11564.6 4624.75 11548.5C4537.62 11464.6 4437.47 11424.9 4316.67 11427.1C3939.57 11434.3 3857.09 11812.5 3359.6 11624.5L3310.12 11604C3307.56 11586.4 3307.58 11584 3315.25 11568.1L3345.3 11562.4C3396.8 11586.5 3449.98 11608.7 3506.23 11618.4C3610.09 11636.5 3718.6 11617 3804.99 11554.4C3875.41 11503.6 3917.4 11428.1 3931.06 11342.8C3945.9 11250.4 3925.05 11150.7 3868.99 11075C3822.85 11012.7 3750.73 10966.5 3673.26 10956.3C3609.03 10947.5 3544.05 10965.8 3493.83 11006.8C3450.05 11042.3 3416.35 11094.8 3410.72 11151.6C3406.21 11193.6 3419.35 11235.6 3446.99 11267.5C3471.11 11295.8 3506.03 11324.7 3544.79 11326.5C3573.54 11327.9 3606.5 11318.9 3627.25 11298.1C3647.8 11277.4 3647.09 11254.6 3647.26 11227.3C3659.38 11241.4 3658.23 11248.6 3660.55 11266.7C3653.77 11289 3645.05 11303.6 3627.6 11319.3C3601.93 11342.3 3571.09 11353.5 3536.6 11351.1C3498.85 11348.4 3454.47 11325.5 3429.91 11297C3398.2 11260.1 3388.8 11210 3393.39 11162.6C3400.65 11090.8 3436.85 11025 3493.64 10980.6C3548.8 10937 3621.53 10920 3690.77 10929.5C3805.63 10945.1 3867.38 11017.7 3932.9 11104.2C3931.46 11003.4 3946.28 10918.6 3987.99 10826.8C4106.68 10565.6 4274.57 10513.2 4513.25 10397.7C4610.77 10350.5 4702.02 10293.8 4803.95 10255.9Z" fill="#DAC69F"/>
<path d="M6189.85 8897.23C6193.11 8928.54 6192.06 8951.46 6213.09 8974.47C6208.03 9008.58 6183.24 9135.36 6182.74 9155.03C6187.04 9165.49 6190.15 9176.23 6198.02 9184.08C6134.75 9229.02 6095.12 9380.43 6049.65 9462C6365.4 9499.45 6179.41 9620.27 6187.17 9793.34L6176.19 9797.95L6165.07 9785.4C6185.38 9630.38 6143.45 9718.99 6112.45 9633.54C6120.33 9583.73 6184.06 9575.16 6186.1 9535.1C6156.01 9503.78 6058.88 9489.89 6015.37 9486.37C5857.13 9736.32 5626.26 9906.77 5467.66 10151.6C5307.87 10398.2 4968.23 10557.6 4678.04 10479.3L4682.39 10473.3C4733.93 10485.8 4768.49 10477.1 4818.05 10479.8C5091.1 10494.9 5398.74 10306.6 5496.38 10046.3C5211.09 10225.9 5069.08 10150.5 4827.18 10270.3L4803.95 10255.9C4723.73 10236.9 4440.28 10200.4 4388.72 10154.8L4406.66 10155.7C4434.49 10176.2 4735.01 10214.6 4805.64 10239C4840.5 10225.6 4874.07 10207.6 4907.68 10191.3C4604.72 10183.3 4316.05 10064.8 4014.97 10047C3824.49 10035.7 3610.81 10057.4 3452.92 10174.6C3385.09 10225 3325.44 10288.5 3262.17 10344.7C3293.22 10291.9 3327.18 10241.1 3370.3 10197.1C3466.6 10099.2 3584.05 10053.1 3718.02 10032.2C4155.17 9963.71 4459.9 10166.3 4858.12 10162.1C4899.51 10161.7 4940.25 10156.3 4978.82 10140.7C5108.1 10088.4 5335.3 9903.43 5435.63 9805.89C5477.25 9765.46 5510.11 9716.11 5551.03 9675.05C5565.05 9661.06 5566.84 9657.64 5586.94 9657.55L5591.24 9683.53L5619.11 9703.93C5614.37 9725.4 5610.09 9734.24 5590.5 9745.97C5572.89 9756.53 5550.5 9765.38 5530.68 9770.79C5473.75 9788.48 5250.83 9987.08 5183.6 10035.4C5128.38 10075.1 5055.63 10126.8 4996.16 10167C5095.1 10162.2 5127.34 10155.5 5223.81 10132.1C5465.23 10073.4 5739.01 9798.04 5894.58 9609.36C5938.96 9555.49 6100.33 9274.23 6138.81 9204.93C6069.95 9214.49 5900.18 9221.8 5850.84 9234.62L5851.17 9250.32C5784.63 9254.38 5498.75 9070.39 5438.34 9025.09L5443.48 9011.11C5717.26 9197.08 5809.12 9246.53 6144.28 9187.6C6175.81 9089.79 6188.28 8999.28 6189.85 8897.23Z" fill="#DAC69F"/>
<path d="M5530.68 9770.79C5530.5 9738.75 5554.73 9706.63 5571.8 9681.09L5591.25 9683.53L5619.12 9703.92C5614.37 9725.4 5610.1 9734.24 5590.51 9745.97C5572.9 9756.53 5550.5 9765.37 5530.68 9770.79Z" fill="#D6BF91"/>
<path d="M561.297 9826.55C603.831 9826.46 639.316 9858.31 682.205 9863.81L779.286 9905.59L783.716 9922.65L801.611 9932.3C782.169 9930.41 766.04 9929.69 746.652 9933.29L731.486 9949.09C721.305 9934.92 715.743 9911.55 696.192 9909.92C653.26 9906.31 616.041 9904.96 572.878 9896.39C563.797 9875.36 563.738 9849.2 561.297 9826.55Z" fill="url(#paint1_linear_100_22967)"/>
<path d="M473.859 9638.86C504.494 9636.6 556.609 9625.68 584.39 9637.59C538.31 9694.71 575.067 9762.93 561.296 9826.55C603.83 9826.46 639.314 9858.31 682.203 9863.81L779.284 9905.59L783.715 9922.65L801.609 9932.3C842.605 9926.8 884.081 9913.89 924.307 9904.06L927.915 9921.2L928.835 9935.1C1009.88 9985.09 1066.91 10030.3 1126.03 10104.8C1048.86 10076.7 968.651 10051.2 896.137 10012.2C949.767 10100.1 992.453 10190 1016.27 10290.6C944.164 10233.5 891.254 10160.9 849.302 10079.6C846.906 10163.4 836.22 10245.4 821.303 10328C783.057 10259.7 771.204 10162.7 752.213 10086.4C692.526 10166.6 615.944 10228.1 539.638 10291.7C599.681 10205 632.005 10105.6 690.708 10019.6C645.036 10042.1 599.583 10065.3 552.906 10085.7C557.006 10150.5 552.559 10211 545.025 10275.4L531.687 10286.3C511.831 10250.5 512.323 10173 492.183 10152L480.055 10151.3L461.463 10142.9C477.496 10124.1 491.16 10103.6 505.271 10083.4C501.939 10023.3 501.949 9960.36 488.759 9901.8L486.498 9896.84C486.497 9896.83 486.496 9896.83 486.495 9896.83C502.993 9829.52 499.433 9704.37 473.855 9638.86C455.601 9643.19 433.756 9646.08 417.695 9655.91V9655.91C433.756 9646.07 455.603 9643.19 473.859 9638.86ZM572.875 9896.39C570.452 9933.12 567.905 9969.75 567.582 10006.6C620.132 9979.41 670.829 9950.98 731.483 9949.09C721.302 9934.92 715.74 9911.55 696.188 9909.93C653.257 9906.32 616.038 9904.96 572.875 9896.39Z" fill="#D6BF91"/>
<path d="M465.754 10839.7C457.212 10835.5 451.372 10829.6 444.373 10823.3C440.833 10792.3 444.237 10764.3 464.804 10739.4C481.662 10719 510.78 10709.6 536.554 10708.2C613.404 10704.2 684.119 10752.3 738.018 10801.8C776.299 10848.3 835.549 10923.6 829.636 10987C828.197 11002.5 824.89 11002.4 813.508 11011.8C800.804 11019.3 793.172 11026.5 783.755 11037.9L768.385 11041.5C754.656 11010 760.339 10978.4 734.632 10954.5C695.327 10948.8 682.913 10904.8 642.662 10890.4C578.151 10864.2 503.702 10900.3 443.143 10876.3L457.027 10870.6C448.294 10867.2 440.804 10866.7 436.422 10858.1L465.754 10839.7Z" fill="#FEFEFD"/>
<path d="M465.755 10839.7C547.295 10825.4 607.968 10828.2 685.583 10861.3C702.262 10892.1 719.885 10922.7 734.632 10954.5C695.327 10948.8 682.912 10904.8 642.662 10890.4C578.151 10864.2 503.702 10900.3 443.143 10876.3L457.027 10870.7C448.294 10867.2 440.804 10866.7 436.422 10858.1L465.755 10839.7Z" fill="#E7D7B2"/>
<path d="M607.164 10291.9C637.579 10288.3 689.383 10300.4 713.191 10319.6C715.397 10321.4 717.423 10323.4 719.556 10325.3C729.304 10333.8 738.991 10342.3 748.426 10351.2C751.526 10388.6 748.211 10435.9 771.62 10465.6C800.059 10468.6 827.115 10472.5 853.247 10485C875.385 10515 886.407 10538.9 894.38 10575.3C873.972 10576.8 837.06 10574.8 821.909 10587.6L812.181 10576.6C812.179 10576.6 812.178 10576.6 812.177 10576.6C800.752 10566.2 798.532 10556.1 797.566 10541.4C797.061 10533.6 788.987 10527.5 783.892 10521.7C759.557 10522 741.286 10541.1 722.849 10555.5C690.706 10599.5 678.96 10630.1 680.626 10684.7L680.627 10684.7C697.359 10725.3 727.057 10755.6 749.6 10792.5L738.016 10801.8C776.297 10848.3 835.546 10923.6 829.634 10987.1C828.195 11002.5 824.888 11002.4 813.506 11011.8C800.802 11019.3 793.17 11026.5 783.753 11037.9L768.382 11041.6C754.653 11010 760.337 10978.4 734.63 10954.5C695.325 10948.8 682.91 10904.8 642.66 10890.4C578.149 10864.2 503.7 10900.3 443.141 10876.3L406.875 10873.6C410.106 10866.2 413.802 10858.5 415.718 10850.6C421.454 10827.1 413.085 10819.9 400.914 10801.6C404.973 10775.2 410.175 10745.6 421.458 10721.4C439.364 10682.9 464.031 10666.9 502.712 10652.4C549.617 10644.9 583.871 10654.3 628.306 10667.4C640.876 10613.8 650.219 10553.2 684.73 10508.9L688.793 10503.8L697.767 10455.6C697.767 10455.6 697.766 10455.6 697.766 10455.6C699.81 10444.8 702.271 10433.6 702.597 10422.6C703.337 10397.8 698.937 10389.5 682.95 10371.2C659.093 10361.9 641.501 10360.1 616.703 10367.5C592.028 10374.9 574.055 10387.2 561.82 10410.3C566.156 10429.8 566.472 10430.2 582.521 10442.2C586.27 10438.2 590.028 10434.2 594.223 10430.7C614.162 10413.6 660.871 10423.8 686.023 10426.1C689.002 10430.9 691.785 10435.2 693.896 10439.8C691.784 10435.2 689 10430.9 686.021 10426.1C665.561 10455.8 626.95 10511.5 589.514 10519.5C570.211 10523.6 558.321 10520.5 542.777 10509.4C524 10495.8 514.504 10466 511.917 10444.1C507.094 10403.1 519.164 10358.8 545.77 10327C562.25 10307.3 581.154 10295 607.164 10291.9Z" fill="#DAC69F"/>
<path d="M789.593 8569.41C792.908 8629.86 792.436 8649.08 838.126 8689.6C854.353 8703.77 870.851 8717.66 887.612 8731.2H887.611C870.849 8717.66 854.351 8703.77 838.124 8689.6C792.434 8649.08 792.906 8629.86 789.591 8569.41C772.513 8705.66 793.709 8876.92 780.281 9015.89L828.927 8992.97L821.415 8982.68C838.026 8983.04 843.772 8979.79 857.776 8971.22L864.769 8970.95C907.412 8896.24 915.117 8872.77 921.677 8788.04C916.76 8770.9 911.645 8753.85 906.33 8736.79L906.332 8736.79C911.646 8753.85 916.762 8770.9 921.679 8788.04C915.119 8872.78 907.414 8896.24 864.771 8970.95L857.778 8971.22C843.774 8979.79 838.028 8983.04 821.417 8982.68L828.929 8992.97L780.283 9015.89C777.65 9091.95 777.089 9159.18 789.381 9234.61L814.761 9266.2C804.263 9282.8 791.716 9293.09 772.37 9297.87C745.773 9304.28 713.09 9302.38 685.498 9302.56L672.742 9296.97C712.197 9248.15 696.661 9109.91 695.939 9036.55C691.336 8893.17 696.619 8734.81 685.465 8591.96C684.267 8576.63 663.346 8543.51 654.078 8529.52C698 8525.1 766.767 8524.29 812.693 8522.3L789.593 8569.41Z" fill="#D6BF91"/>
<path d="M695.94 9036.55C714.043 9100.88 687.09 9207.63 730.946 9246.07C754.877 9253.74 758.501 9255.27 783.03 9250.76L789.382 9234.61L814.761 9266.19C804.263 9282.8 791.716 9293.08 772.37 9297.87C745.773 9304.27 713.09 9302.38 685.498 9302.56L672.742 9296.96C712.197 9248.15 696.661 9109.91 695.94 9036.55Z" fill="#DAC69F"/>
<path d="M2451.48 11365.2C2491.13 11405.7 2528.86 11460.7 2590.22 11460.6C2709.15 11460.3 2843.13 11334.5 3010.68 11321.9C3273.22 11302.2 3466.6 11629.6 3671.02 11415.8C3703.86 11381.4 3718.2 11329.7 3716.89 11283C3715.99 11250.7 3706.23 11215.2 3682.19 11192.2C3667 11177.8 3642.57 11166.9 3621.28 11167.3C3612.2 11167.4 3600.89 11168.6 3594.7 11175.7C3580.21 11192.4 3572.66 11209.2 3564.09 11229.2L3553.74 11229.9L3544.31 11217.2C3549.31 11186.7 3565.21 11151.5 3591.11 11133.1C3603.64 11124.1 3625.15 11121.6 3640.19 11124.8C3682.01 11133.5 3723.45 11172.4 3745.08 11207.9C3765.65 11241.6 3763.7 11290.2 3754.32 11327.1C3737.96 11391.4 3693.34 11461.6 3634.43 11494.4C3569.76 11530.4 3485.61 11528.6 3416.35 11508.1C3207.59 11446.1 3095.04 11281.3 2853.48 11410.1C2842.2 11416.1 2831 11422.3 2819.9 11428.7L2819.01 11438.3C2837.98 11437.8 2855.81 11436.3 2874.47 11432.9L2886.11 11453.7L2934.73 11484.6L2938.26 11500.1L2922.64 11514C2903.26 11499.5 2876.13 11478.1 2851.6 11474.2C2830.02 11470.8 2823.82 11477.6 2807.81 11489.9C2794.03 11517.9 2798.14 11550.1 2799.29 11580.4L2772.23 11574.4C2763.94 11556.9 2761.82 11538.8 2758.8 11519.9C2729.91 11532 2697.87 11543.4 2667.2 11550.2C2575.99 11570.3 2509.05 11537 2435.34 11488.7C2413.22 11516.1 2394.65 11532.6 2363.44 11549L2351.95 11534.1L2360.28 11512L2338.28 11502.5L2353.61 11463.4L2405.66 11440.8L2434.75 11464.8C2441.47 11450 2450.33 11440.6 2464.78 11432.9C2467.14 11431.6 2469.53 11430.5 2471.9 11429.3C2474.36 11403.7 2462.42 11388.1 2451.48 11365.2Z" fill="#DAC69F"/>
<path d="M2276.9 9321.96C2318.96 9205.19 2372.75 9161.61 2494.46 9202.85L2482.68 9228.75L2492 9236.24L2517.8 9242.73L2526.68 9260.69C2475.15 9325.03 2390.59 9372.22 2401.23 9463.72C2413.62 9570.28 2467.82 9648.7 2389.82 9748.04C2378.78 9762.12 2367 9776.47 2353.24 9787.93C2330.68 9793.43 2308.02 9798.58 2284.65 9797.49C2239.6 9795.24 2139.28 9779.45 2108.7 9746.69L2111.43 9735.95L2158.07 9728.91C2159.58 9728.91 2161.09 9728.91 2162.59 9728.73C2203.33 9725.03 2253.27 9706.99 2281.01 9675.67C2338.18 9611.25 2312.85 9497.37 2306.75 9418.78C2296.24 9405.15 2283.78 9390.35 2276.58 9374.65C2268.02 9356.06 2270.48 9340.64 2276.9 9321.96Z" fill="#5C441E"/>
<path d="M2276.9 9321.96C2318.96 9205.19 2372.75 9161.61 2494.46 9202.85L2482.68 9228.75L2492 9236.24C2474.57 9266.1 2465.38 9283.07 2442.84 9309.23C2352.07 9325.84 2330.43 9322.5 2306.75 9418.78C2296.24 9405.15 2283.78 9390.36 2276.58 9374.65C2268.02 9356.07 2270.48 9340.64 2276.9 9321.96Z" fill="#E7D7B2"/>
<path d="M2276.9 9321.96C2318.96 9205.19 2372.74 9161.61 2494.46 9202.85L2482.68 9228.75C2353.47 9240.39 2322.43 9338.56 2276.9 9321.96Z" fill="#5B2F33"/>
<path d="M2934.73 11484.6C3012.91 11487 3058.12 11490.2 3119.18 11543.6C3119.75 11569.2 3118.76 11595 3127.53 11619.4L3122.42 11645C3097.95 11651 3076.76 11665.9 3051.1 11667.7C3037.44 11668.7 3034.14 11662.5 3023.99 11654.1C3031.73 11637.5 3035.04 11623.1 3030.72 11604.9C3018.92 11555.2 2980.14 11524.9 2938.26 11500.1L2934.73 11484.6Z" fill="#DAC69F"/>
<path d="M2874.47 11432.9C3005.16 11403.3 3123.94 11417 3239.03 11489.1C3275.43 11511.9 3310.51 11537.2 3345.3 11562.4L3315.25 11568.1C3307.58 11584 3307.56 11586.4 3310.12 11604L3359.6 11624.5C3359.6 11624.5 3359.6 11624.5 3359.59 11624.5L3310.12 11604C3263.76 11601.4 3168.38 11583.8 3130.93 11616.2C3129.76 11617.2 3128.66 11618.3 3127.52 11619.4L3122.42 11645H3122.41C3097.95 11651 3076.75 11665.9 3051.09 11667.7C3037.43 11668.7 3034.14 11662.5 3023.99 11654.1C3031.73 11637.5 3035.03 11623.1 3030.72 11604.9C3018.92 11555.2 2980.13 11524.8 2938.26 11500.1L2934.73 11484.6C3012.91 11487 3058.12 11490.2 3119.18 11543.6C3145.81 11546.2 3177.43 11547.7 3199.47 11530.8L3198.53 11513.1C3181.39 11495.3 3163.37 11484.7 3140.93 11474.6C3065.6 11440.8 2964.67 11424.7 2886.11 11453.7L2886.11 11453.7L2874.47 11432.9ZM3265.83 11556C3246.28 11542.8 3227.4 11537.7 3203.8 11542.3C3202.7 11542.5 3201.62 11542.9 3200.54 11543.2C3169.21 11546.4 3156.79 11545.2 3130.97 11564.1L3131.45 11579.3C3153.7 11597.5 3165.76 11594.9 3194.1 11592.2C3224.81 11589.4 3244.36 11592.9 3268.07 11572.5L3265.83 11556Z" fill="#E7D7B2"/>
<path d="M814.762 9266.2C833.95 9254.65 840.707 9250.77 863.122 9250.59C885.953 9250.41 1190.31 9290.74 1206.48 9295.16C1216.14 9297.78 1225.54 9304.64 1233.36 9310.5L1241.72 9309.42C1208.79 9323.5 1168.48 9318.89 1140.06 9332.88L1198.34 9372.76L1305.55 9448.38C1259.52 9430.33 1206.73 9402.99 1158.43 9393.43C1185.88 9459.66 1206.53 9526.79 1226.72 9595.46C1168.26 9540.87 1120.63 9490.88 1082.49 9420.14L1071.31 9435.21C1078.52 9478.52 1074.14 9527.34 1074.03 9571.37C1058.93 9540.69 1047.44 9507.66 1034.81 9475.81C1030.19 9543.31 1018.41 9601.96 998.588 9666.3C982.257 9581.3 981.346 9490.43 971.15 9403.98L966.892 9404.98C967.758 9385.49 971.511 9355.62 966.342 9336.85C961.542 9319.44 944.399 9306.17 928.276 9299.49C887.005 9282.26 819.276 9308.16 778.292 9322.23C746.931 9317 716.354 9310.23 685.5 9302.56C713.091 9302.38 745.774 9304.28 772.372 9297.87C791.719 9293.09 804.265 9282.8 814.762 9266.2Z" fill="#E8DFCC"/>
<path d="M1082.48 9420.13C1072.77 9388.46 1046.79 9355.16 1047.46 9322.05C1071.73 9311.94 1114.24 9327.1 1140.05 9332.87L1198.33 9372.76L1305.54 9448.37C1259.51 9430.33 1206.72 9402.99 1158.42 9393.42C1185.88 9459.65 1206.52 9526.79 1226.72 9595.46C1168.26 9540.86 1120.63 9490.87 1082.48 9420.13Z" fill="#CFB480"/>
<path d="M1198.34 9372.77L1305.55 9448.38C1259.52 9430.34 1206.73 9402.99 1158.43 9393.43L1147.94 9385.94C1165.41 9382.78 1181.53 9378.45 1198.34 9372.77Z" fill="#DAC69F"/>
<path d="M971.148 9403.99C972.935 9373.67 971.906 9342.99 988.589 9316.46L1005.18 9312.58C1045.65 9340.37 1057.94 9390.54 1071.31 9435.21C1078.51 9478.52 1074.14 9527.34 1074.03 9571.37C1058.93 9540.69 1047.44 9507.66 1034.81 9475.81C1030.19 9543.31 1018.41 9601.96 998.585 9666.3C982.255 9581.3 981.344 9490.43 971.148 9403.99Z" fill="#D6BF91"/>
<path d="M584.433 9018.05C619.467 9016.87 623.656 9011.28 651.013 9025.18C634.3 9040.97 627.87 9042.86 606.625 9052.06C566.295 9093.93 564.239 9157.73 568.323 9214.22C576.112 9321.96 567.903 9501.7 582.698 9602.22C562.496 9611.07 530.826 9611.25 508.614 9614.04C458.866 9592.12 489.748 9537.16 471.07 9492.59C470.152 9490.42 469.179 9488.26 468.233 9486C505.689 9443.41 489.681 9173.43 474.464 9106.02C471.152 9091.41 451.981 9070.38 440.867 9059.1L453.361 9037.81C492.516 9034.47 558.481 9036.54 584.433 9018.05Z" fill="#D6BF91"/>
<path d="M584.433 9018.05C619.467 9016.87 623.655 9011.28 651.012 9025.18C634.299 9040.97 627.87 9042.86 606.625 9052.06C558.705 9048.27 488.593 9054.59 440.867 9059.1L453.361 9037.81C492.516 9034.47 558.48 9036.54 584.433 9018.05Z" fill="#FAF6E3"/>
<path d="M1165.59 8105.24C1330.94 8001.74 1295.15 7921.97 1542.92 7885.79C1445.82 7967.09 1355.15 8044.06 1245.44 8108.58C1447.79 8127.53 1511.17 8152.97 1654.72 8298.07C1471.75 8281.2 1444.56 8222 1316.63 8187.98C1308.03 8188.25 1212.13 8128.34 1192.44 8118.59C1169.55 8120.49 1164.24 8121.75 1142.49 8114.89L1147.08 8105.42L1165.59 8105.24Z" fill="#D6BF91"/>
<path d="M1142.11 8135.29L1159.26 8138.81C1165.34 8153.52 1169.01 8159.2 1168.58 8175.35L1176.59 8162.36L1190.6 8162.54C1214.79 8189.16 1261.92 8289.14 1269.82 8323.61C1273.36 8397.42 1264.59 8509.13 1260.79 8585.56C1212.26 8468.16 1186.41 8394.17 1156.18 8272.81C1124.91 8386.86 1082.84 8464.1 1010.31 8556.41C1027.36 8394.53 1042.69 8267.3 1142.11 8135.29Z" fill="#CFB480"/>
<path d="M647.281 8035.3C706.825 8028.45 758.641 8021.14 818.66 8023.39C778.932 8092.96 783.791 8140.34 783.555 8218.84C784.415 8280.74 779.144 8387.85 792.029 8449.12C796.442 8470.14 805.809 8493.24 804.277 8514.54L812.696 8522.3C766.77 8524.28 698.004 8525.1 654.082 8529.52L664.583 8502.18C727.135 8451.92 683.284 8184.82 676.424 8103.25C674.634 8081.96 653.4 8058.22 647.281 8035.3Z" fill="#D6BF91"/>
<path d="M783.551 8218.84C784.411 8280.74 779.141 8387.85 792.026 8449.12C796.439 8470.15 805.806 8493.25 804.273 8514.54L812.693 8522.3C766.767 8524.29 698 8525.1 654.078 8529.52L664.58 8502.18C691.23 8507.41 764.738 8503.53 792.016 8497.67L793.814 8484.04C758.845 8438.2 775.616 8278.04 783.551 8218.84Z" fill="#E8DFCC"/>
<path d="M4868.25 9741.64C4860.48 9692.91 4839.42 9641.21 4810.79 9601.33C4754.57 9522.82 4670.08 9465.7 4573.69 9451.45C4517.6 9443.15 4461.98 9451.36 4416.58 9487.09C4390.54 9507.66 4360.51 9541.41 4356.86 9575.61C4352.57 9615.76 4363.77 9651.41 4388.95 9682.36C4434 9704.37 4454.05 9662.6 4499.7 9667.29C4513.95 9668.73 4515.15 9675.14 4523.27 9686.06C4523.07 9696.88 4525.3 9710.42 4519.41 9719.53C4506.7 9739.39 4491.49 9756.44 4467.11 9761.04C4435.02 9767.09 4401.91 9756.35 4375.32 9738.66C4337.81 9713.04 4312.27 9673.33 4304.54 9628.58C4296.42 9580.75 4312.19 9524.9 4340.5 9486.01C4371.08 9443.87 4416.94 9422.12 4467.39 9414.09C4564.56 9398.66 4669.65 9430.15 4748.12 9487.9C4833.09 9550.34 4869.95 9628.76 4886.5 9730.18C4881.39 9733.61 4874 9740.11 4868.25 9741.64Z" fill="#D6BF91"/>
<path d="M7674.94 6362.37L7693.01 6360.11C7669.31 6580.1 7686.49 6914.42 7822.26 7107.61C7908.71 7230.6 8076.23 7219.95 8144.81 7265.07C8113.67 7286.28 8042.04 7283.12 8003.27 7282.31C8012.23 7326.07 8028.78 7499.32 8012.87 7534.78L8005.13 7531.26C7988.19 7381.02 7967.67 7309.38 7864.41 7191.53C7678.89 6979.66 7612.96 6635.6 7674.94 6362.37Z" fill="#D6BF91"/>
<path d="M680.438 9462.81C683.489 9460.74 687.698 9457.67 691.23 9455.96C715.382 9444.59 764.047 9436.56 788.997 9444.86C764.816 9598.25 791.855 9752.56 779.283 9905.59L682.202 9863.81C696.619 9761.67 696.696 9564.15 680.438 9462.81Z" fill="#D6BF91"/>
<path d="M778.287 9322.23C819.272 9308.15 887 9282.26 928.272 9299.49C944.395 9306.17 961.537 9319.43 966.337 9336.85C971.507 9355.62 967.754 9385.48 966.888 9404.98C916.605 9458.76 872.446 9523.09 824.442 9579.58C844.4 9506.13 871.702 9438.36 904.001 9369.51C866.083 9384.85 828.754 9393.34 788.895 9401.46C789.589 9413.28 793.925 9434.57 788.994 9444.86C764.044 9436.56 715.379 9444.59 691.227 9455.96C687.695 9457.67 683.486 9460.74 680.435 9462.82C660.356 9462.27 646.417 9460.56 627.572 9452.53C619.818 9449.19 618.907 9440.62 615.883 9433.04C664.336 9388.82 722.56 9356.34 778.287 9322.23Z" fill="#D6BF91"/>
<path d="M615.883 9433.04C673.434 9421.49 730.842 9410.12 788.895 9401.45C789.589 9413.27 793.925 9434.57 788.994 9444.86C764.044 9436.55 715.379 9444.59 691.227 9455.95C687.695 9457.67 683.486 9460.74 680.435 9462.81C660.356 9462.27 646.418 9460.56 627.572 9452.53C619.818 9449.19 618.907 9440.62 615.883 9433.04Z" fill="#FAF6E3"/>
<path d="M666.015 7679.7L791.235 7679.79C784.948 7754.05 772.466 7885.43 782.869 7960.5C785.421 7978.91 797.765 7980.81 812.569 7987.48C782.176 8009.14 695.512 8009.23 651.092 8013.11L638.703 7999.85C689.918 7954.19 690.101 7951.39 689.754 7882.36C689.401 7812.43 677.881 7748.36 666.015 7679.7Z" fill="#D6BF91"/>
<path d="M7915.82 6554.92C7947.44 6555.91 7967.29 6566.92 7991.04 6586.96C8030.36 6620.07 8075.18 6671.41 8076.55 6726.28C8077.26 6754.79 8059.62 6767.97 8042.36 6787.55C8038.78 6788.09 8035.19 6788.63 8031.58 6789.08C7993.99 6793.5 7967 6778.16 7938.46 6754.97C7903.79 6726.91 7882.02 6683.32 7878.84 6638.84C7876.24 6602.3 7893.18 6581.63 7915.82 6554.92Z" fill="#D6BF91"/>
<path d="M444.801 8690.59C545.241 8615.51 427.661 8500.37 497.501 8411.58C528.775 8402.2 519.196 8400.85 549.351 8407.25C586.807 8449.48 560.839 8578.79 570.795 8636.72C575.056 8661.53 598.09 8667.85 619.939 8679.4L628.138 8693.48L619.991 8705.84C552.731 8714.95 518.58 8716.94 450.653 8716.85C449.508 8713.06 440.784 8701.69 437.953 8697.72L444.801 8690.59Z" fill="#D6BF91"/>
<path d="M619.939 8679.4L628.138 8693.48L619.991 8705.84C552.731 8714.95 518.58 8716.94 450.653 8716.85C449.508 8713.06 440.784 8701.69 437.953 8697.72L444.801 8690.59C498.48 8696 566.915 8689.78 619.939 8679.4Z" fill="#FAF6E3"/>
<path d="M1192.44 8118.59C1212.12 8128.34 1308.02 8188.26 1316.63 8187.98C1396.05 8297.35 1439.56 8382.08 1463.43 8516.53C1410.64 8459.68 1322.31 8370.35 1282.35 8308.27C1252.63 8249.79 1214.1 8179.05 1192.44 8118.59Z" fill="#CFB480"/>
<path d="M450.648 8716.84C518.575 8716.93 552.726 8714.95 619.986 8705.84C572.685 8745.18 572.936 8758.89 565.823 8822.06C561.277 8862.39 562.441 8986.01 584.428 9018.05C558.476 9036.54 492.511 9034.47 453.357 9037.81C451.579 9024.18 454.953 9016.33 458.581 9003.25L465.399 9007.58C505.137 8930.16 503.371 8789.75 450.648 8716.84Z" fill="#D6BF91"/>
<path d="M8019.26 5984.19C8051.99 5989.42 8078.44 5997.99 8101.48 6023.17C8120.8 6044.19 8130.14 6069.01 8128.19 6097.7C8125.45 6137.77 8105.24 6157.62 8076.89 6183.33C8065.61 6182.61 8054.5 6181.17 8043.44 6178.73C8015.54 6172.69 7997.59 6158.34 7982.35 6134.43C7966.25 6109.07 7959.05 6081.28 7965.86 6051.59C7973.29 6019.2 7991.91 6001.06 8019.26 5984.19Z" fill="#D6BF91"/>
<path d="M3934.8 10082.9C4030.03 10073.3 4100.36 10098.2 4192.07 10106.5L4198.15 10107L4189.48 10109.7C4187.33 10108.5 4183.8 10106.4 4181.28 10105.5C4099.23 10076.1 3952.47 10096.1 3877.71 10133.1C3801.9 10170.6 3735.09 10237.6 3708.49 10319C3697.39 10353.1 3693.73 10389.9 3711.58 10422.4C3736.7 10468 3779.61 10495.7 3828.21 10510.5C3856.35 10504.8 3878.02 10500.7 3897.56 10479.4C3892.08 10453.7 3889.98 10436.4 3896.41 10410.5C3914.63 10399.6 3916.66 10395.7 3937.2 10399.3L3948.66 10419.9C3949.36 10441.8 3948 10459.4 3938.17 10479.3C3925.85 10504.3 3904.86 10523.6 3878.16 10532.1C3845.31 10542.6 3810.12 10531.6 3780.98 10515.5C3738.36 10491.9 3703.92 10457.9 3691.49 10409.6C3676.25 10350.4 3699.93 10282.9 3730.87 10232.6C3780.12 10152.7 3844.36 10104.5 3934.8 10082.9Z" fill="#DAC69F"/>
<path d="M3167.37 10502.3C3189.85 10497.4 3212.48 10493 3235.22 10489.3C3212.57 10513.2 3198.08 10532.5 3186.48 10563.4L3188.62 10584.7C3198.17 10586.2 3204.01 10587 3213.32 10584.1L3215.03 10600.9C3196.51 10621.8 3187.19 10634 3183.92 10662.2L3192.47 10677.7C3213.37 10679.4 3227.19 10675.7 3246.68 10669.1C3238.49 10678.3 3230.51 10687.5 3222.09 10696.4C3177.28 10744.1 3194.11 10828.5 3128.17 10858.8L3121.94 10855.3L3126.05 10828.4L3143.42 10795.1C3142.71 10756.7 3142.49 10714 3132.9 10676.7C3127.43 10655.4 3120.42 10635.4 3100.53 10623.8L3101.89 10612.3C3106.2 10608.2 3108.01 10605.5 3109.18 10599.6C3116.87 10560.3 3143.17 10532.8 3167.37 10502.3Z" fill="#E7D7B2"/>
<path d="M1016.5 10683.1C1092.08 10736.1 1107.46 10668.7 1195.45 10697.5L1193.81 10706.4L1178.17 10726.4L1162.27 10767.9L1157.39 10765.7C1107.08 10771.4 1063.89 10796.9 1021.97 10824C994.088 10827.9 972.154 10826.6 944.501 10821.6L902.025 10812C886.386 10792.5 835.455 10782.9 809.891 10769.1C843.685 10770.9 877.74 10778.3 911.117 10783.8C948.479 10771 1027.2 10751.2 1045.25 10715L1037.26 10702.8L970.818 10692.3L974.319 10685.5L1016.5 10683.1ZM1178.17 10726.4C1171.52 10720.3 1163.19 10708.9 1154.17 10709.8C1095.37 10714.5 984.876 10773.3 947.622 10817.6C946.539 10818.9 945.537 10820.2 944.5 10821.6C972.153 10826.6 994.088 10827.9 1021.97 10824C1063.88 10796.9 1107.08 10771.4 1157.39 10765.7L1162.27 10767.9L1178.17 10726.4Z" fill="#E8DFCC"/>
<path d="M787.875 8753.57C920.432 8741.75 950.531 8790.56 1031.18 8888.92L897.028 8837.12C916.165 8888.56 924.421 8917.52 936.997 8970.94C880.075 8916.17 839.023 8876.83 803.222 8804.82C798.305 8787.68 793.189 8770.62 787.875 8753.57Z" fill="#D6BF91"/>
<path d="M812.57 7987.48C851.513 7993.71 1081.67 8111.11 1125.21 8084.4L1117.78 8058.5C1141.6 8064.91 1145.02 8086.47 1165.59 8105.24L1147.09 8105.42L1142.5 8114.9C1164.24 8121.75 1169.55 8120.49 1192.44 8118.59C1214.11 8179.05 1252.63 8249.8 1282.35 8308.27L1269.83 8323.61C1261.92 8289.14 1214.79 8189.16 1190.6 8162.54L1176.59 8162.36L1168.58 8175.35C1169.01 8159.2 1165.34 8153.52 1159.27 8138.81L1142.12 8135.29C981.13 8175.98 914.707 8310.61 877.457 8320.45L876.319 8302.22C915.176 8231.66 1058.23 8148.55 1128.69 8113.54C1015.32 8081.69 945.149 8035.76 818.66 8023.4C758.641 8021.14 706.825 8028.45 647.281 8035.31L651.093 8013.11C695.513 8009.23 782.177 8009.14 812.57 7987.48Z" fill="#E8DFCC"/>
<path d="M355.017 9426.54C374.577 9462.63 393.477 9498.55 410.504 9535.9C427.603 9519.93 447.762 9496.65 468.232 9486C469.178 9488.26 470.151 9490.43 471.069 9492.59C489.748 9537.17 458.865 9592.12 508.613 9614.05C530.825 9611.25 562.495 9611.07 582.697 9602.23L624.536 9605.02L632.393 9614.95C617.278 9629.75 604.412 9633.18 584.389 9637.6C556.609 9625.69 504.493 9636.6 473.858 9638.86C455.602 9643.19 433.755 9646.08 417.694 9655.91C411.93 9650.32 404.881 9644.09 400.822 9637.15C387.301 9614.14 401.754 9578.4 407.266 9553.59C379.108 9521.1 358.699 9479.6 330.738 9445.58L329.297 9437.19L355.017 9426.54Z" fill="#E8DFCC"/>
<path d="M7475.16 4103.71C7512.48 4100.91 7545.52 4127.71 7550.48 4164.8C7555.43 4201.88 7530.58 4236.44 7493.82 4243.48C7468.11 4248.44 7441.76 4238.7 7425.39 4218.31C7409.02 4197.82 7405.3 4170.03 7415.73 4146.03C7426.17 4122.03 7449.05 4105.69 7475.16 4103.71Z" fill="#CFB480"/>
<path d="M6387.55 9344.25C6407.2 9346.96 6416.63 9355.89 6431.23 9368.34C6436.46 9381.07 6442.54 9390.54 6441.23 9404.44C6437.27 9445.94 6416.71 9466.88 6385.53 9492.41C6377.36 9492.41 6368.16 9492.6 6360.23 9490.43C6337.37 9484.29 6332.69 9476.26 6321.69 9457.13C6323.08 9406.51 6354.26 9378.18 6387.55 9344.25Z" fill="#DAC69F"/>
<path d="M3062.52 9892.51C3090.45 9890.07 3120.68 9894.04 3148.31 9898.73C3224.08 9911.82 3291.28 9940.06 3336.31 10002.1C3345.48 10014.8 3351.4 10023.6 3356.09 10038.6C3342.59 10042.8 3327.49 10020.5 3317.29 10010.4C3258.2 9952.15 3204.57 9926.34 3123.57 9911.27C2920.38 9894.67 2915.85 10017.4 2836.73 10042.2L2833.5 10029.7C2836.18 10020.7 2839.64 10012.1 2845.1 10004.4C2886.09 9947.19 2997.09 9903.79 3062.52 9892.51Z" fill="#F9F8EE"/>
<path d="M2257.95 11063.9C2293.29 11063 2346.46 11056.2 2378.89 11070.2C2398.13 11078.5 2483.6 11117.7 2489.49 11133.5C2455.69 11158.6 2422.55 11182.4 2385.78 11203.2C2289.92 11099.2 2298.18 11188.6 2221.46 11174.4C2221.31 11174.4 2215.89 11165.6 2215.78 11165.4L2223.41 11152.5C2264.15 11139.4 2313.18 11145.1 2355.68 11145.7C2368.44 11155.1 2381.36 11162.7 2395.22 11170.3C2418.22 11166.1 2424.03 11166.2 2440.73 11148.5L2438.91 11125.8C2422.11 11101.4 2404.05 11089.9 2374.98 11083.6C2327.92 11073.2 2233.96 11080.9 2194.84 11107.9C2161.79 11130.7 2191.07 11142.8 2186.32 11167.8L2140.2 11135.4C2178.3 11107.7 2215.86 11085 2257.95 11063.9Z" fill="#F9F8EE"/>
<path d="M3645.02 10512.8C3667.68 10524.2 3692.18 10530.9 3700.04 10558.1C3706.2 10579.5 3700.75 10603.9 3687.73 10621.5C3674.07 10639.9 3654.8 10648.1 3632.62 10650.7C3611.77 10639.8 3612.02 10637.5 3602.79 10615.6C3604.34 10583.6 3615.07 10553.1 3624.25 10522.7L3645.02 10512.8Z" fill="#DAC69F"/>
<path d="M4650.8 10646.9C4665.73 10669.5 4685.12 10688.6 4699.72 10710.9C4721.27 10744.1 4685.21 10750.5 4669.61 10777.2C4663.14 10788.3 4661.1 10818 4658.24 10831.8C4655.92 10825.4 4653.61 10819 4650.96 10812.6C4636.64 10778.7 4622.02 10777.1 4590.47 10763.5C4586.59 10731.2 4622.01 10716.7 4638.24 10692.7C4644.32 10683.8 4647.67 10658.3 4650.8 10646.9Z" fill="#D6BF91"/>
<path d="M7656 8.09866C7673.27 -2.51317 7694.99 -2.71162 7712.45 7.59344C7729.91 17.8893 7740.24 37.01 7739.29 57.2585C7738.35 77.5163 7726.29 95.581 7707.95 104.216C7681.67 116.578 7650.32 106.273 7636.52 80.7279C7622.71 55.1917 7631.27 23.312 7656 8.09866Z" fill="#D6BF91"/>
<path d="M7346.01 7685.83C7357.47 7719.21 7390.77 7745.2 7399.03 7772.54C7401.33 7780.12 7356.25 7847.71 7349.43 7864.04C7337.02 7829.93 7315.27 7810.08 7289.45 7785.72C7291.66 7781.21 7293.84 7777.51 7297.21 7773.81C7322.8 7745.2 7334.47 7722.37 7346.01 7685.83Z" fill="#DAC69F"/>
<path d="M7812.5 168.738C7838.77 157.504 7869.21 169.18 7881.23 195.104C7893.24 221.028 7882.48 251.816 7856.93 264.602C7839.71 273.22 7819.16 271.794 7803.29 260.867C7787.43 249.94 7778.77 231.252 7780.68 212.087C7782.6 192.921 7794.79 176.308 7812.5 168.738Z" fill="#D6BF91"/>
<path d="M7213.2 3523.77C7236.49 3507.89 7268.17 3513.03 7285.13 3535.59C7302.08 3558.15 7298.33 3590 7276.6 3607.96C7261.63 3620.41 7241.06 3623.57 7223.07 3616.17C7205.07 3608.86 7192.56 3592.26 7190.5 3572.95C7188.44 3553.64 7197.16 3534.69 7213.2 3523.77Z" fill="#D6BF91"/>
<path d="M2494.45 9202.85C2577.19 9180.83 2654.48 9147.36 2738 9125.43C2662.55 9166.58 2593.24 9205.65 2526.67 9260.69L2517.79 9242.74L2492 9236.24L2482.68 9228.75L2494.45 9202.85Z" fill="#897146"/>
<path d="M4886.5 9730.18C4895.94 9826.01 4879.92 9987.62 4821.34 10066.6L4802.95 10077L4797.45 10069.3C4852.56 9961.45 4883.32 9864.27 4868.24 9741.64C4874 9740.11 4881.39 9733.61 4886.5 9730.18Z" fill="#E7D7B2"/>
<path d="M3213.31 10584.1C3285.12 10538.8 3362.99 10544.2 3442.64 10562.7C3446.6 10563.6 3450.55 10564.6 3454.49 10565.6C3476.58 10587.1 3510.31 10612.6 3519.59 10642.5C3513.52 10644.8 3512.79 10646.7 3506.59 10643.8C3406.61 10596.7 3425.29 10525.1 3269.38 10578.5C3250.84 10584.8 3232.76 10592.6 3215.02 10600.9L3213.31 10584.1Z" fill="#F9F8EE"/>
<path d="M287.348 6738.46C308.301 6727.99 333.789 6736.2 344.75 6756.87C355.712 6777.62 348.138 6803.25 327.692 6814.71C314.039 6822.29 297.32 6821.93 284.004 6813.72C270.689 6805.51 262.864 6790.8 263.558 6775.1C264.252 6759.49 273.357 6745.5 287.348 6738.46Z" fill="#DAC69F"/>
<path d="M2631.95 11185.1C2654.26 11180.2 2681.74 11176.3 2704.46 11178.3C2733.63 11180.8 2767.61 11194.1 2786.44 11217.2C2806.34 11241.7 2810.03 11269.9 2806.36 11300.1C2777.41 11280.8 2766.98 11247.7 2751.25 11217.1C2716.49 11207.9 2682.36 11198.6 2646.49 11194.8L2639.15 11194.1L2631.95 11185.1Z" fill="#E8DFCC"/>
<path d="M857.775 8971.22L864.768 8970.95C864.553 8969.5 954.4 9123.44 969.44 9163.33C934.063 9148.98 900.962 9025.36 828.926 8992.97L821.414 8982.68C838.025 8983.04 843.771 8979.79 857.775 8971.22Z" fill="#F9F8EE"/>
<path d="M7038.24 8055.97C7050.42 8048.12 7066.08 8048.12 7078.31 8055.88C7090.55 8063.73 7097.11 8077.9 7095.11 8092.24C7093.12 8106.68 7082.94 8118.5 7069.05 8122.74C7051.34 8128.07 7032.42 8119.5 7024.67 8102.71C7016.92 8085.93 7022.7 8065.99 7038.24 8055.97Z" fill="#D6BF91"/>
<path d="M6796.52 8168.22C6814.26 8172.46 6823.19 8178.14 6836.28 8190.78C6838.53 8221.19 6829.17 8234.09 6816.37 8261.34C6796.46 8257.37 6792.06 8255.93 6776.72 8242.84C6770.26 8215.59 6785.16 8192.22 6796.52 8168.22Z" fill="#DAC69F"/>
<path d="M2576.21 11303C2593.44 11314.2 2593.83 11318.6 2601.58 11338C2600.37 11365.2 2593.5 11380.1 2579.5 11403.2C2564.95 11396.5 2563.23 11392.2 2554.45 11379.3C2551.1 11351.2 2564.73 11327.8 2576.21 11303Z" fill="#E7D7B2"/>
<path d="M924.305 9904.06C954.521 9893.95 1022.4 9865.89 1051.85 9878.97C1053.47 9879.7 1055.03 9880.6 1056.63 9881.41C1016.2 9895.85 965.663 9902.8 927.913 9921.2L924.305 9904.06Z" fill="#F9F8EE"/>
<path d="M918.148 7867.11C976.469 7880.73 1023.47 7931.36 1065.5 7971.42C1020.04 7966.73 953.255 7897.61 918.148 7867.11Z" fill="#F9F8EE"/>
<path d="M1050.12 8673.99C1059.93 8673.9 1069.16 8676.15 1078.76 8677.96C1058.67 8693.93 1017.93 8697 992.451 8702.14L973.757 8705.03L965.203 8697.99C990.944 8682.47 1021.03 8679.31 1050.12 8673.99Z" fill="#F9F8EE"/>
<path d="M5766.22 9189.84L5763.9 9189.15C5763.86 9189.13 5763.81 9189.12 5763.76 9189.1C5764.58 9189.35 5765.4 9189.6 5766.22 9189.84ZM5748.67 9184.31C5748.37 9184.21 5748.06 9184.11 5747.75 9184C5747.16 9183.8 5746.56 9183.6 5745.96 9183.39C5746.86 9183.7 5747.77 9184.01 5748.67 9184.31ZM7096.52 426.416C7136.34 26.66 7605.73 59.6584 7750.96 385.937C7925.64 778.393 7727.29 1118.5 7595.12 1494.95C7669.46 1405.17 7766.75 1279.06 7895.16 1278.02C7944.15 1277.16 7991.3 1296.67 8025.36 1331.9C8071.51 1379.07 8093.79 1448.38 8093.17 1513.53C8092.58 1586.38 8062.71 1655.93 8010.29 1706.52C7951.1 1763.97 7814.18 1810.48 7818.8 1695.36C7834.97 1670.58 7838.09 1668.71 7864.45 1656.54C7894.57 1654.2 7912.11 1671.9 7936.82 1690.17C8095.49 1725.97 8080.15 1352.28 7940.31 1327.85C7701.49 1286.13 7526.03 1688.68 7479.78 1868.83C7410.94 2137.03 7401.08 2450.09 7455.64 2721.04C7503.58 2951.41 7634.07 3176.27 7751.23 3376.77C7703.87 3200.37 7679.19 3038.39 7672.79 2843.04C7663.12 2547.34 7884.27 2141.18 8208.18 2432.78C8372.43 2594.98 8238.81 3080.17 7979.63 2867.67C7956.93 2849.08 8088.78 2716.53 8025.56 2625.48C7988.69 2596.61 7921.98 2599.31 7887.94 2632.34C7691.44 2826.07 7730.81 3090.73 7791.6 3334.91C7829 3485.15 7988.84 3690.07 8152.98 3703.69C8316.37 3717.23 8340.33 3403.84 8162.4 3410.79C8105.97 3413.05 8087.12 3502.2 8057.26 3540.1L8044.03 3536.49C8025.52 3428.66 8166.73 3298.36 8277.04 3407.81C8354.32 3484.51 8369.52 3618.51 8294.07 3694.22C8177.75 3811.07 7999.53 3688.62 7906.72 3599.74C7908.06 3661.56 8132.91 3954.73 8122.62 4062.74C8109.82 4197.09 8082.1 4404.63 8060.24 4534.3C8043.42 4692.03 8083.43 4758.62 8133.98 4900.56C8206.93 5105.39 8268.18 5567.39 8123.31 5749.31L8106.76 5756.52L8089.28 5742.54C8088.34 5684.34 8147.66 5595.1 8156.23 5540.41C8203.06 5241.74 8137.85 5038.26 8045.98 4768.55C8001.07 4972.12 7976.74 5187.06 7927.28 5386.84C7852.23 5690.11 7770.22 5977.51 7706.93 6284.4C7702.74 6311.1 7698.86 6333.75 7693 6360.1L7674.94 6362.36L7655.46 6323.02C7431.14 7011.23 7056.6 7581.06 6692.48 8195.74C6622.92 8313.14 6521.91 8405.81 6462.37 8528.25C6423.98 8612.53 6340.35 8952.27 6364.99 9025.45C6392.56 8995.22 6418.55 8962.01 6455 8944.05C6488.6 8946.67 6475.47 8942.25 6504.72 8963.91C6517.59 8992.6 6516.68 8980.42 6509.09 9009.75C6472.22 9052.52 6411.36 9051.98 6370.43 9086.71C6340.77 9111.89 6376.35 9158.27 6329.2 9168.11L6321.53 9136.98C6288.67 9129.22 6229.86 9166.84 6198.02 9184.08C6190.15 9176.23 6187.04 9165.49 6182.73 9155.02C6183.24 9135.35 6208.03 9008.57 6213.08 8974.46C6192.05 8951.45 6193.11 8928.53 6189.85 8897.22C6161.93 8483.23 6116.24 8346.7 5693.28 8219.47C5694.03 8220.01 5694.78 8220.56 5695.52 8221.1C5527.63 8144.42 5294.17 8257.79 5217.37 8421.24C5172.06 8516.16 5167.55 8625.62 5204.89 8723.97C5253.89 8854.99 5336.72 8928.53 5443.48 9011.1C5446.81 9013.36 5450.11 9015.6 5453.39 9017.82C5450.11 9015.6 5446.81 9013.36 5443.48 9011.1L5438.34 9025.09C5275.16 8917.26 5136.86 8782.9 5138.85 8572.2C5138.92 8463.29 5182.83 8358.98 5260.68 8282.91C5529.85 8019.24 5907.74 8220.92 6126.14 8443.71C6105.88 8276.23 6085.14 8086.11 6103.75 7918.81C6131.29 7671.3 6139.84 7317.04 6327.4 7131.34L6332.7 7137.74C6221.45 7288.52 6177.07 7450.22 6158.56 7635.75C6372.58 7032.08 6652.44 6931.2 7072.36 6540.3C7487.45 6154.28 7734.54 5620.72 7760.56 5054.41C7758.75 4993.95 7756.45 4933.41 7753.66 4872.95L7742.9 4867.27C7679.41 5080.22 7659.67 5226.49 7570.6 5442.24C7381.65 5899.82 6700.74 6610.86 6150.82 6346.84C6050.41 6299.11 5973.27 6213.2 5936.58 6108.26C5864.2 5899.37 5969.16 5662.32 6180.68 5594.46C6255.83 5569.74 6337.89 5577.41 6407.16 5615.58C6535.48 5685.33 6598.84 5813.46 6533.27 5957.21C6475.87 6083.08 6253.46 6064.77 6243.27 5962.62C6241.14 5939.88 6248.86 5917.32 6264.48 5900.63C6299.92 5862.1 6392.41 5841.89 6434.84 5878.7C6450.69 5892.42 6466.64 5908.39 6481.48 5923.28L6497.67 5916.87C6518.98 5878.07 6516.73 5814.27 6494.92 5775.92C6430 5657.45 6261.19 5613.32 6146.1 5687.13C5862.43 5869.14 5991.55 6265.99 6301.47 6321.93C6536.65 6364.43 6744.56 6268.51 6934.21 6138.31C7182.15 5968.03 7381.72 5703.74 7521.15 5439.8C7582.78 5320.42 7607.95 5198.6 7643.19 5074.35C7737.39 4742.2 7767.01 4464.19 7692.31 4122.56C7638.4 3876.13 7546.16 3681.4 7461.83 3450.49C7352.5 3140 7279.55 2830.76 7279.27 2501.83C7278.78 1898.55 7626.26 1408.53 7757.97 838.065C7815.83 587.493 7730.9 222.865 7433.21 176.944C7357.59 165.746 7280.68 186.022 7220.39 233.034C6987.56 411.807 7244.22 737.652 7407.56 595.695C7421.64 565.232 7372.18 426.037 7495.91 446.402C7515.22 449.417 7532.37 460.434 7543.12 476.757C7607.77 573.335 7384.01 704.12 7267.41 651.812C7166.29 606.451 7085.94 546.346 7096.52 426.416ZM5745.65 9183.29C5745.58 9183.27 5745.52 9183.24 5745.45 9183.22C5744.45 9182.88 5743.46 9182.54 5742.46 9182.19C5743.52 9182.56 5744.59 9182.93 5745.65 9183.29ZM6438.8 8475.83C6269.6 8662.25 6271.51 8732.73 6213.09 8974.46C6208.03 9008.57 6183.24 9135.35 6182.73 9155.02C6232.76 9121.37 6273.29 9093.39 6320.52 9056.04C6329.01 8895.78 6390.83 8631.03 6438.8 8475.83ZM5453.39 9017.82C5458.92 9021.57 5464.38 9025.27 5469.77 9028.9L5461.13 9023.07C5458.57 9021.33 5455.99 9019.58 5453.39 9017.82ZM5699.42 8223.97C5940.45 8403.53 5882.83 8706.83 5560.45 8696.63C5405.08 8691.67 5333.57 8457.06 5425.46 8350.4C5481.53 8262.23 5689.99 8278.11 5699.42 8223.97ZM7346.83 2276.01C7302.68 2737.92 7363.19 2983.08 7517.4 3418.01C7555.77 3526.2 7583.48 3661.65 7627.5 3771.46C7713.17 3985.23 7794.35 4160.91 7841.92 4390.38C7882.24 4592.59 7894.74 4799.32 7879.07 5004.88C7875.85 5047.92 7853.88 5189.49 7855.96 5217.38L7850.32 5190.94C7874.29 5047.92 7842.95 4570.94 7796.03 4439.74L7789.78 4433.51C7784.88 4466.36 7804.94 4642.49 7807.68 4693.84C7846.02 5412.01 7620.58 6145.35 7063.56 6626.39C6755.43 6892.49 6431.66 7133.32 6272.81 7527.29C6228.19 7613.46 6154.72 7867.83 6160.82 7961.13L6169.03 7963.48C6176.33 7952.65 6178.86 7944.17 6188.62 7940.74L6188.08 7946.97C6174.87 8088.63 6088.13 8390.83 6192.58 8512.56C6182.71 8538.72 6178.39 8536.29 6186.52 8558.13L6212.07 8696.18L6268.3 8637.44L6278.3 8613.08C6309.62 8566.79 6343.06 8519.32 6378.46 8476.1C6550.07 8266.4 6701.96 8049.93 6846.1 7820.37C7326.61 7047.96 7682.23 6204.54 7899.86 5321.15C7936.59 5166.3 7987 4970.04 7994.36 4813.94C8008.5 4513.55 7969.28 4196.01 7888.47 3906.27C7843.56 3745.29 7797.92 3564.83 7732.28 3411.61C7706.68 3351.78 7629.23 3246.66 7595.06 3183.04C7441.87 2897.9 7385.92 2747.03 7370.82 2427.79C7362.47 2382.1 7366.86 2307.73 7346.83 2276.01ZM5802.91 8432.6C5779.55 8339.44 5675.97 8285.13 5571.57 8311.31C5467.17 8337.49 5401.48 8434.25 5424.84 8527.42C5448.21 8620.59 5551.78 8674.89 5656.18 8648.71C5760.59 8622.53 5826.28 8525.77 5802.91 8432.6ZM8056.46 2391.12C8027.69 2382.54 7999.31 2382.44 7969.59 2383.78C7880.58 2414.02 7821.11 2460.6 7778.73 2546.26C7728.95 2646.78 7713.79 2768.96 7709.73 2879.86C7750.08 2786.28 7777.88 2627.83 7883.73 2585.78C7929.51 2567.65 7970.79 2573.96 8014.28 2593.91C8018.69 2595.98 8023.07 2598.05 8027.43 2600.13L8032.83 2606.36C8058.58 2636.49 8077.16 2674.84 8073.32 2715.54C8069.09 2760.39 8024.19 2820.57 8033.76 2860.73C8065.7 2871.55 8106.03 2860.18 8135.2 2845.39C8178.29 2823.46 8206.66 2784.84 8220.7 2739.09C8243.44 2665.01 8230.08 2577.57 8193.57 2510.11C8164.47 2456.36 8116.03 2408.87 8056.46 2391.12Z" fill="#D6BF91"/>
<defs>
<linearGradient id="paint0_linear_100_22967" x1="1547.29" y1="9091.5" x2="1670.28" y2="8580.86" gradientUnits="userSpaceOnUse">
<stop stop-color="#DCC596"/>
<stop offset="1" stop-color="#F7E7C6"/>
</linearGradient>
<linearGradient id="paint1_linear_100_22967" x1="660.537" y1="9914.35" x2="677.685" y2="9851.81" gradientUnits="userSpaceOnUse">
<stop stop-color="#E1D8CA"/>
<stop offset="1" stop-color="white"/>
</linearGradient>
</defs>
</svg>
