<svg width="46" height="280" viewBox="0 0 46 280" fill="none" xmlns="http://www.w3.org/2000/svg">
<path d="M0 103.326C3.4269 100.591 7.03708 102.523 8.26172 101.578C8.05838 101.335 7.99558 101.281 7.91309 100.969C8.88591 99.5805 14.0254 100.591 15.4561 101.171C22.673 104.092 27.6983 110.06 30.8545 117.009C30.2676 115.017 29.9915 112.869 29.4512 111.031C28.0925 106.403 24.6471 101.513 20.7344 98.6849C18.8711 97.3387 16.6186 95.9153 15.3691 93.9612C14.0072 91.7933 13.57 89.1712 14.1553 86.678C14.6532 84.4588 15.6302 83.1473 17.4902 81.9651C9.04184 68.452 4.73795 49.5237 15.2813 35.886C12.6186 31.0301 13.3696 25.9236 14.2168 20.7278C14.5467 18.702 14.9676 15.1204 15.4453 13.1839C16.6343 8.80403 17.8725 3.76886 21.9033 1.11163C23.9828 -0.25932 26.7663 -0.674823 28.2725 1.69659C28.9019 2.68815 29.1075 3.8906 28.8428 5.03448C28.2497 7.6419 24.6412 8.64679 23.2178 6.31476L23.4746 6.23761C25.0459 7.84454 27.7807 7.16779 28.0645 4.75519C28.2597 3.09557 27.4625 0.889594 25.5957 0.879211C17.1478 0.835261 15.4279 16.8636 14.8535 22.2601C20.2351 14.7456 33.9776 18.3956 28.8008 28.9466C33.928 29.304 38.0377 30.9099 40.7188 35.6321C42.8539 39.3939 43.2392 44.5902 41.2578 48.5071C40.0362 50.8772 37.9229 52.6673 35.3818 53.4818C30.5832 55.0257 24.5184 52.4061 23.002 47.4124C21.9078 43.8076 23.6166 40.1809 27.3408 39.1673C28.9189 38.7059 29.7496 38.6282 31.1953 39.346C33.1289 40.3054 34.3294 43.1517 33.2139 45.138C32.8684 45.74 32.2929 46.176 31.6201 46.346C31.1072 46.4749 30.9255 46.3728 30.5488 46.1458C30.2945 45.5921 30.3416 45.8216 30.3887 45.1917C30.7684 44.9297 30.7057 45.0223 31.1895 45.0325C33.0033 45.0661 32.9895 42.7615 32.3135 41.5677C31.8226 40.714 31.0177 40.0867 30.0703 39.8187C27.5492 39.1243 24.1887 41.3309 23.6348 43.8724C22.6961 48.179 26.2795 51.6756 30.1904 52.6761C32.5161 53.2723 34.9849 52.9012 37.0313 51.6458C42.3598 48.4421 42.6782 40.7077 39.7217 35.7816C35.8878 29.3953 26.9348 28.852 21.0439 32.5609C16.1095 35.6677 13.1503 40.5279 11.626 46.0823C6.02594 65.8722 19.428 83.1518 30.0762 98.345C31.5967 100.514 33.3255 102.539 34.8076 104.752C35.5999 105.936 36.1474 107.012 36.877 108.208C35.5204 103.729 33.4431 101.553 31.6982 97.6331C27.5826 88.387 22.1456 75.0876 27.6318 65.5296C29.9459 70.2653 33.7381 73.7227 34.6553 78.9329C35.6108 84.3616 32.431 88.534 30.5762 93.2757C31.8626 97.1178 34.7498 101.12 36.4063 104.717C39.185 110.751 40.988 120.05 39.3154 126.601C37.7125 132.879 36.2919 135.961 36.5957 142.743C36.8365 148.12 37.9835 150.658 39.3447 155.778C40.2098 159.032 39.9925 164.361 39.3809 167.641C38.7419 171.067 37.415 175.654 35.7236 178.749C33.9795 181.941 31.9295 185.052 30.6299 188.515C31.5663 191.124 33.1389 193.718 34.0684 196.536C36.9794 205.365 31.0215 209.263 27.6553 216.068C27.5423 215.892 27.4349 215.712 27.334 215.529C22.3837 206.665 27.5856 193.276 31.5078 184.729C33.3476 180.719 35.6223 178.242 36.9238 173.677C34.7155 177.991 32.4561 180.287 29.7773 184.132C19.2295 199.273 4.63817 217.461 12.7891 237.001C14.8363 241.909 17.9143 245.942 22.8779 248.186C29.1807 251.172 37.5085 249.366 40.4834 242.618C41.7867 239.659 42.0015 235.626 40.7891 232.584C39.9257 230.381 38.2154 228.616 36.04 227.682C30.8308 225.463 23.7557 228.426 23.501 234.523C23.4237 236.266 24.2926 237.655 25.5527 238.774C26.9707 240.033 28.9309 240.458 30.707 239.705C32.3128 239.025 33.3672 237.636 32.5859 235.878C31.9464 234.44 30.8375 235.304 30.3691 234.273C30.492 233.746 30.4006 233.792 30.7451 233.447C33.6884 233.095 34.3577 237.466 32.6367 239.346C30.4048 241.785 27.1435 241.181 24.8301 239.299C21.7427 236.788 22.1856 232.299 24.582 229.477C26.3558 227.423 28.8688 226.15 31.5752 225.936C34.139 225.733 36.9436 226.648 38.8906 228.33C43.9597 232.73 43.5036 241.39 39.3115 246.226C36.4708 249.503 33.0812 250.589 28.8984 250.898C33.6403 260.317 21.5868 265.756 14.7539 257.388C15.4923 262.66 16.8191 273.433 21.0801 277.165L21.5049 277.794L21.4395 278C21.2508 277.993 20.4262 277.216 19.999 276.954C16.0058 273.943 14.4445 260.722 13.7764 255.786C13.0969 250.766 13.2859 248.347 15.2373 243.778C10.417 237.538 8.44571 228.965 9.38086 221.188C10.2299 214.127 13.6658 206.089 17.4902 200.05C15.6064 198.98 14.8056 197.797 14.2686 195.74C12.7274 189.833 16.0235 186.706 20.4209 183.736C24.5256 180.963 27.8864 175.79 29.4033 171.159C29.9158 169.553 30.3077 167.388 30.6396 165.684C26.9955 172.697 22.3576 178.548 14.5527 181.228C13.1887 181.696 8.81363 182.379 7.97559 181.02L8.20898 180.521C7.92058 180.23 7.28422 180.246 6.85059 180.242C3.96842 180.214 2.56069 180.673 0.0527344 178.866C1.47724 175.86 3.20537 175.051 6.18164 173.989C6.3638 173.924 6.5466 173.859 6.72949 173.796C8.71789 170.82 9.82133 169.024 13.7305 168.188C18.0743 167.259 21.5153 169.197 25.708 166.932C27.4077 166.014 29.4376 163.171 30.5322 162.766C30.73 163.006 30.9412 163.255 31.1279 163.501C34.7999 158.914 35.7851 157.475 35.5371 151.342C36.0801 151.741 35.8138 154.109 35.9053 154.733C36.5153 158.885 32.4445 162.271 31.5869 165.467C30.1746 170.731 29.1374 175.167 25.6533 179.639C24.6434 180.935 23.403 182.343 22.0869 183.389C18.0841 186.311 13.8064 188.699 14.6807 194.505C15.0373 196.873 15.9021 198.155 17.8926 199.409C20.7497 194.904 23.7464 190.488 26.8779 186.168C32.5969 178.326 37.7683 173.026 38.4492 162.712C38.8294 156.953 37.9717 154.18 36.3359 148.719C36.141 148.068 36.0717 146.896 35.9785 146.189C36.2205 142.689 35.9556 139.027 36.0645 135.572C36.154 132.733 37.4746 129.971 38.085 127.241C39.4349 121.419 38.087 113.323 35.3848 108.044C33.4025 104.171 29.8735 100.005 27.2461 96.4144C24.022 91.9643 20.9283 87.4205 17.9688 82.7903C17.2489 83.0965 16.8388 83.2562 16.3125 83.8392C14.2054 86.1726 14.2063 90.161 15.5068 92.9105C16.5903 95.2014 19.7887 96.8704 21.668 98.4026C22.7471 99.2698 23.9937 100.528 24.8701 101.59C27.2328 104.452 29.2503 108.131 30.2402 111.712C30.7948 113.718 31.1127 115.632 31.9697 117.539C33.0927 120.041 34.9942 122.096 35.6299 124.794C36.0654 126.643 35.9737 128.832 35.623 130.682C35.4203 124.325 35.3279 123.803 31.1895 118.811C30.9089 119.194 30.9404 119.282 30.5352 119.43L30.249 119.155C29.0302 118.333 27.8255 116.567 26.1377 115.468C22.1417 112.867 18.6939 114.816 14.4063 114.045C9.51134 113.166 9.15111 111.618 6.76074 108.343C3.60441 107.269 1.61859 106.44 0 103.326ZM16.2939 21.7874C14.2699 23.3273 13.8383 27.4487 14.25 29.763C14.4655 31.9998 14.7456 33.245 15.6777 35.3294C19.3202 31.7743 22.4683 29.6478 27.6416 29.0413C29.4572 26.3724 29.9204 22.1991 26.8486 20.2728C25.3552 19.5521 23.9854 19.4261 22.3574 19.1829C23.7132 20.0926 25.504 21.6801 24.4365 23.6927C24.318 23.9153 24.0975 23.9227 23.8623 23.9827C22.7589 23.5491 22.8709 21.9686 22.8193 20.9622C20.6133 18.5118 18.419 20.1703 16.2939 21.7874ZM15.7666 244.327C14.4954 246.969 13.8516 250.477 14.2471 253.377C14.3356 254.128 14.4242 255.156 14.749 255.826C15.7447 257.879 18.3984 260.31 20.8418 260.081C21.722 260 22.2372 259.394 22.8115 258.796C22.8788 257.785 22.8121 256.3 23.8438 255.794C24.1222 255.837 24.3512 255.863 24.4883 256.142C25.4384 258.07 23.8244 259.614 22.5742 260.487C24.7263 260.276 27.657 259.869 28.5723 257.542C29.2189 255.504 29.3362 253.714 28.3115 251.741C28.1435 251.42 27.9692 251.102 27.79 250.787C23.3763 250.175 18.6009 248.054 15.8613 244.457C15.8288 244.415 15.7977 244.371 15.7666 244.327Z" fill="#C4AA84"/>
<path d="M8.0876 109.102C13.7491 110.044 19.137 109.497 24.5093 111.558C25.2169 111.829 26.0952 112.368 26.7985 112.489L26.7888 112.344C25.2658 111.214 20.2704 109.701 18.3072 109.117L18.1589 109.182L18.6883 109.615C17.4975 109.729 16.6037 109.385 15.4992 109.357C11.8225 109.262 8.98538 109.099 5.70178 107.328C3.24985 106.005 2.54057 106.04 0.971924 103.474C3.5005 102.178 5.00569 102.727 7.70504 102.194C8.70572 101.996 9.94107 101.161 10.9164 101.105C12.0852 101.036 13.6974 101.303 14.861 101.7C20.7821 103.713 25.6397 108.75 28.7315 114.038C29.4791 115.317 30.3401 117.721 31.1899 118.811C30.9091 119.195 30.9406 119.283 30.5349 119.43L30.2486 119.155C30.2772 118.497 29.1889 117.361 28.7604 116.861C24.4748 111.868 19.3117 114.195 13.8684 113.221C11.0231 112.713 9.72823 111.469 8.0876 109.102Z" fill="#FCD5D3"/>
<path d="M7.12225 104.013C8.56544 103.937 16.4531 107.972 18.0834 108.942C17.6467 108.988 17.6214 109.027 17.1887 108.815C15.6905 108.076 13.929 107.19 12.4698 106.437C11.3848 105.876 7.82934 104.548 7.12225 104.013Z" fill="#C4AA84"/>
<path d="M0.922516 178.776C2.97884 175.603 4.10205 175.597 7.45498 174.025C8.20985 173.671 9.00048 173.461 9.7681 173.293C10.5712 173.118 18.1578 172.443 18.4573 172.561L18.3101 172.835C18.0026 172.852 13.8032 175.027 13.1411 175.382C11.2481 176.396 8.98963 177.067 7.16564 178.081C10.716 177.449 15.4714 174.347 18.7428 172.956C20.9582 172.014 23.9351 171.463 26.0436 170.167C25.7578 170.065 24.6233 170.349 24.3172 170.493C19.2143 172.901 13.5366 171.753 8.12587 173.093C13.115 164.711 20.8087 171.704 27.2539 166.652C28.1165 165.976 30.2029 163.785 30.5327 162.766C30.7304 163.006 30.9415 163.254 31.1282 163.501C30.3324 164.412 28.8825 167.69 28.1537 168.934C25.3434 173.733 20.6273 178.261 15.3742 180.249C13.9307 180.795 12.7115 181.044 11.1681 181.023C9.73543 181.003 8.63127 180.059 7.4355 179.855C4.7854 179.401 3.48452 179.95 0.922516 178.776Z" fill="#FCD5D3"/>
<path d="M26.1225 77.9359C26.0619 77.6927 26.0141 76.4198 26.0012 76.1092C25.8554 72.5994 26.2412 70.2117 27.5095 66.9832C30.6008 72.3621 33.7475 74.4173 34.1415 80.867C33.9632 85.1678 32.0299 88.452 30.2389 92.3235C28.3416 87.554 26.6459 83.1097 26.1225 77.9359Z" fill="#EC2861"/>
<path d="M28.435 74.3192L28.463 74.1698C28.884 74.8158 29.1975 75.784 29.4648 76.5194C30.7179 79.9691 30.9177 82.3553 30.2949 85.9163L30.2259 86.0467L30.1337 86.0101C30.4695 80.0965 30.2149 80.0569 28.435 74.3192Z" fill="#C4AA84"/>
<path d="M26.1094 209.542C26.0124 208.948 26.0142 207.596 25.9995 206.959C25.8554 200.674 28.0296 195.203 30.2647 189.47C30.9281 191.455 32.1583 193.383 32.9567 195.411C33.1879 196.029 33.3985 196.655 33.5879 197.287C35.8864 205.156 30.799 208.795 27.5651 214.694C26.8518 212.789 26.3982 211.56 26.1094 209.542Z" fill="#EC2861"/>
<path d="M28.2335 208.152C28.3122 207.604 28.9989 205.361 29.1894 204.751C30.3116 201.164 30.4764 199.2 30.0907 195.517C30.1781 195.698 30.2498 195.886 30.3052 196.078C31.3306 199.607 29.9414 205.072 28.2335 208.152Z" fill="#C4AA84"/>
<path d="M12.5771 144.285C11.3581 143.814 10.5477 142.51 10.1763 141.307C10.6553 140.387 11.3219 139.092 12.3809 138.742C12.5388 138.364 12.4764 138.352 12.7615 138.138C14.1879 136.94 16.6042 135.676 18.4672 135.558C18.4842 135.293 18.536 135.009 18.4019 134.786C18.1827 134.66 17.9846 134.501 17.8148 134.313C16.2973 132.642 16.0426 130.626 17.7895 129.037L18.0551 128.778C19.2782 127.84 22.2183 127.711 23.401 128.631C23.7208 128.578 23.668 128.537 23.9125 128.66C28.1005 130.628 31.6119 133.836 34.3259 137.596C35.2902 138.932 35.3909 139.465 35.665 141.012L35.7311 141.318L35.5058 141.564L35.2682 141.654L35.551 141.931C35.7172 143.121 34.909 144.641 34.2004 145.541C31.4363 149.048 28.1517 152.295 24.0357 154.158C23.8699 154.254 23.6486 154.203 23.4441 154.185C21.9972 155.243 19.6587 154.915 18.1643 154.102C18.0848 153.948 17.9832 153.934 17.806 153.839C15.9894 151.892 16.1585 149.878 18.2049 148.114L18.504 147.852C18.8115 147.734 19.4878 147.452 19.7773 147.384L19.8804 146.871C17.3886 147.636 14.9739 146.455 12.9966 144.929L12.7758 144.906C12.6649 144.683 12.6359 144.524 12.5771 144.285Z" fill="#C01E25"/>
<path d="M12.381 138.742C12.5388 138.364 12.4764 138.352 12.7615 138.138C14.188 136.94 16.6043 135.676 18.4672 135.558C18.4842 135.293 18.536 135.009 18.4019 134.786C18.1827 134.66 17.9846 134.501 17.8148 134.313C16.2973 132.642 16.0426 130.626 17.7895 129.037L18.0551 128.778C19.2782 127.84 22.2183 127.711 23.401 128.631C23.7208 128.578 23.6681 128.537 23.9125 128.66C28.1005 130.628 31.6119 133.836 34.3259 137.596C35.2902 138.932 35.3909 139.465 35.665 141.012L35.7311 141.318L35.5058 141.564C35.2143 141.182 21.7425 136.743 20.1921 136.213C17.8865 137.029 14.7051 138.097 12.381 138.742Z" fill="#F4E3E6"/>
<path d="M35.665 141.012C33.9499 140.095 29.4628 136.871 28.2632 135.421C27.8137 134.877 23.9461 128.915 23.9126 128.66C28.1005 130.628 31.6119 133.836 34.3259 137.596C35.2902 138.932 35.3909 139.465 35.665 141.012Z" fill="#C01E25"/>
<path d="M27.7112 135.419C23.4706 132.995 21.7541 131.866 18.0551 128.778C19.2783 127.84 22.2183 127.711 23.401 128.631C24.2356 130.242 26.6378 133.748 27.7112 135.419Z" fill="#C01E25"/>
<path d="M18.4019 134.786C18.1828 134.66 17.9846 134.501 17.8148 134.313C16.2973 132.642 16.0426 130.626 17.7895 129.037C19.0638 130.128 20.3445 131.211 21.6312 132.286C20.9514 132.785 18.868 134.256 18.4019 134.786Z" fill="#C01E25"/>
<path d="M12.7615 138.138C14.188 136.94 16.6043 135.676 18.4672 135.558C18.7714 135.693 19.2444 135.831 19.3728 136.076C18.1559 136.493 13.8324 137.955 12.7615 138.138Z" fill="#C01E25"/>
<path d="M18.6497 135.132C18.8997 134.687 21.4721 132.964 21.9849 132.613C25.1988 134.261 29.1233 137.061 32.128 139.136L33.6193 140.211C28.6177 138.553 23.6276 136.859 18.6497 135.132Z" fill="#C01E25"/>
<path d="M12.9966 144.929L12.7758 144.906C12.6649 144.683 12.6359 144.524 12.5771 144.285C15.2197 145.056 17.9393 145.921 20.5771 146.645C25.1306 145.079 30.9324 143.317 35.2682 141.653L35.551 141.931C35.7172 143.121 34.909 144.641 34.2004 145.541C31.4363 149.048 28.1517 152.295 24.0357 154.158C23.8699 154.254 23.6486 154.203 23.4441 154.185C21.9973 155.243 19.6588 154.915 18.1643 154.102C18.0848 153.948 17.9833 153.934 17.8061 153.839C15.9894 151.892 16.1585 149.878 18.2049 148.114L18.504 147.852C18.8116 147.734 19.4879 147.452 19.7774 147.384L19.8804 146.871C17.3886 147.636 14.9739 146.455 12.9966 144.929Z" fill="#F4E3E6"/>
<path d="M24.0357 154.158C24.0761 153.939 27.7528 148.155 28.1558 147.628C29.2989 146.134 33.8446 142.941 35.551 141.931C35.7172 143.121 34.909 144.641 34.2004 145.541C31.4363 149.048 28.1517 152.295 24.0357 154.158Z" fill="#C01E25"/>
<path d="M18.504 147.852C18.8116 147.734 19.4879 147.452 19.7773 147.384C20.1769 147.224 20.5954 147.105 21.0062 146.977C25.2669 145.645 29.4253 144.007 33.6859 142.677C30.6351 145.104 25.4193 148.386 22.0459 150.316C20.8561 149.561 19.656 148.675 18.504 147.852Z" fill="#C01E25"/>
<path d="M18.1643 154.102C21.6028 151.036 23.7566 149.796 27.6643 147.528C26.3725 149.643 24.6028 152.179 23.4441 154.185C21.9972 155.243 19.6588 154.915 18.1643 154.102Z" fill="#C01E25"/>
<path d="M17.806 153.839C15.9894 151.892 16.1585 149.878 18.2049 148.114L21.6024 150.613C20.4866 151.671 19.009 152.845 17.806 153.839Z" fill="#C01E25"/>
<path d="M19.8804 146.871C17.3886 147.636 14.9739 146.455 12.9966 144.929C14.2456 145.121 18.4822 146.441 19.8804 146.871Z" fill="#C01E25"/>
<path d="M40.5611 135.163C40.5985 133.847 40.5714 132.913 41.2134 131.697C42.0237 130.163 43.4847 129.525 45.0732 130.401C47.624 133.445 42.3559 134.534 40.5611 135.163Z" fill="#C01E25"/>
<path d="M40.6249 149.21L40.5643 147.653C42.8779 148.626 45.1165 148.142 45.6971 151.21C45.0726 154.319 40.9985 152.71 40.6249 149.21Z" fill="#C01E25"/>
<path d="M19.9992 276.954C20.4264 277.216 21.2504 277.993 21.4391 278L21.5047 277.795L21.0804 277.166C22.6521 278.388 25.5768 280.131 27.3179 278.131C28.0856 277.249 28.0316 275.892 28.0573 274.78C26.9791 272.52 24.8732 271.922 23.261 274.034L22.9808 273.707C23.7639 272.379 24.6292 271.854 26.1972 272.19C30.8482 273.188 29.2983 280.845 24.4357 279.793C22.4842 279.371 21.161 278.581 19.9992 276.954Z" fill="#C4AA84"/>
<path d="M23.2175 6.31525C23.0681 5.7132 22.8006 4.47687 23.499 4.11505C23.5851 4.99982 23.277 5.26935 23.4747 6.23761L23.2175 6.31525Z" fill="#C4AA84"/>
<path d="M23.261 274.034C23.358 274.529 23.7443 275.688 23.5559 276.073L23.5684 276.08C23.1072 275.38 23.0109 274.517 22.9807 273.707L23.261 274.034Z" fill="#C4AA84"/>
</svg>
