<svg width="43" height="290" viewBox="0 0 43 290" fill="none" xmlns="http://www.w3.org/2000/svg">
<path d="M15.9585 218.274C16.3734 218.151 16.1683 218.145 16.5925 218.327L16.7823 218.727C16.7491 219.759 17.0283 220.675 16.8944 222.106C16.7426 223.73 15.8492 224.579 15.7745 225.397C15.5428 227.93 15.8145 229.881 14.835 232.42C14.2963 233.816 12.783 235.877 11.2731 236.618L10.8094 236.507C10.197 237.044 9.23752 237.768 8.5863 238.161C7.23668 238.977 5.74274 239.565 4.30463 240.176C4.42008 238.205 4.53025 236.23 4.96377 234.298C5.15394 233.451 5.5227 233.07 5.6484 232.353C5.39231 232.227 5.35597 232.247 5.22792 232.002C5.47024 231.258 5.79315 230.542 6.19106 229.868C9.88495 223.533 18.7058 228.327 15.9585 218.274Z" fill="#C4AA84"/>
<path d="M2.487 141.885L2.62633 141.868C3.56603 141.743 4.48127 141.365 5.40426 141.116C8.03919 140.406 10.5062 141.148 12.6572 142.773C16.7055 145.827 19.0863 151.017 19.7662 155.967C20.4734 161.113 19.9474 165.548 18.583 170.549C18.2447 171.79 17.247 174.434 17.0624 175.464C16.7445 175.836 16.6714 175.952 16.2399 176.17L16.2125 176.357C15.4592 177.998 14.2262 179.809 13.3556 181.439C12.3272 183.365 11.5045 185.221 10.6558 187.231C17.464 187.086 20.2117 195.05 20.2362 200.7C20.2599 206.158 18.6457 211.599 15.2898 215.92C20.5694 221.035 21.0032 227.577 19.4915 234.465C18.4879 239.038 15.8839 245.179 19.7362 249.159C20.2825 249.714 21.2443 250.32 22.0526 250.329C22.5349 250.336 22.9979 250.139 23.3249 249.784C23.427 249.671 23.4728 249.562 23.536 249.427C23.4167 249.086 23.3961 249.062 23.2025 248.752C23.4293 248.394 23.3079 248.511 23.7287 248.336C24.1655 248.45 24.2026 248.517 24.4775 248.883C24.8594 250.914 21.4594 251.75 19.8776 250.458C17.0491 248.148 16.6282 244.178 17.2634 240.849C16.3652 242.234 15.6374 243.705 14.8168 245.126C11.4505 250.965 8.55606 257.901 9.95199 264.771C12.1007 275.346 25.3556 278.664 31.3391 269.138C34.2904 264.439 33.8756 257.872 28.8199 254.81C27.028 253.738 24.8823 253.423 22.8577 253.936C19.3866 254.823 16.6178 258.652 17.6064 262.227C17.9561 263.527 18.829 264.625 20.0175 265.259C20.5757 265.562 21.4056 265.75 22.0364 265.887C20.9226 264.758 20.1238 263.245 21.4796 261.887C21.8907 261.471 22.4583 261.245 23.0436 261.267C24.3028 261.323 25.5626 262.561 25.4293 263.847C25.0453 267.556 20.6623 267.156 18.5271 265.224C14.7996 261.853 16.6169 256.44 20.3344 253.993C24.5363 251.226 29.9888 253.13 32.572 257.233C34.1859 259.752 34.7123 262.818 34.0315 265.733C33.2342 269.155 30.7276 272.369 27.7535 274.197C25.0614 275.88 21.8047 276.409 18.718 275.665C9.25508 273.399 6.91666 263.335 9.1279 255.163C10.7553 249.147 13.629 244.931 16.5207 239.533C19.5603 233.35 20.7593 225.408 17.089 219.191C16.9939 219.031 16.8916 218.877 16.7823 218.727L16.5925 218.327C16.1683 218.145 16.3734 218.151 15.9585 218.274C15.7005 217.754 15.2458 217.137 14.9062 216.648C13.9555 218.113 12.8641 219.6 12.0786 221.151C11.6971 221.905 11.4486 223.43 10.8683 223.88C10.3514 223.94 10.548 223.991 10.1318 223.691C9.52816 221.96 15.4941 213.645 16.7599 211.272C17.6669 209.598 18.3527 207.812 18.8003 205.962C20.072 200.604 19.4577 195.712 16.585 191.04C17.4356 194.702 16.8529 194.803 15.8371 198.109C15.3857 199.578 15.7448 202.278 15.2012 204.011C14.4681 206.349 13.3778 208.32 11.2441 209.604L11.0313 209.327C10.4491 209.545 9.72069 210.619 9.03459 211.036C7.45187 211.997 5.75707 212.672 4.05993 213.383C4.20717 210.441 5.09897 203.738 7.0166 201.487C10.2808 197.656 17.5763 200.089 16.4782 192.537C16.2262 190.802 15.3485 189.707 13.9789 188.716C14.13 189.466 14.4757 190.052 14.5396 190.736C14.4129 194.315 9.70969 194.757 7.97505 190.905C8.89409 187.624 10.1813 184.457 11.8121 181.465C13.0032 179.245 14.4082 176.951 15.457 174.682C16.8749 171.652 17.8631 168.44 18.393 165.137C19.247 160.005 18.8081 152.132 15.7124 147.787C15.7933 148.256 15.8598 148.726 15.9122 149.199C16.0724 150.607 16.1957 152.779 15.5244 153.991C14.3194 156.168 14.3859 157.876 14.2857 160.273C14.1638 163.191 13.3683 166.52 11.5151 168.838C11.0857 169.376 9.32235 171.147 8.68489 171.219L8.43142 170.732C4.52334 174.603 4.20278 173.507 0.00593235 175.854C-0.0639476 171.166 0.479445 169.722 1.85325 165.603C1.43439 165.6 1.61386 165.66 1.28392 165.463C1.23909 164.869 1.87258 163.706 2.09878 163.128C5.20283 155.201 16.6593 160.487 15.4069 149.744C15.1284 147.321 13.8904 145.114 11.97 143.612C8.76399 141.107 6.01243 141.746 2.31913 142.2L2.487 141.885Z" fill="#C4AA84"/>
<path d="M11.8653 187.687C12.5808 187.672 12.7232 188.075 13.3425 188.347C13.7224 188.514 13.3574 188.103 13.9545 188.486L13.9789 188.716C14.13 189.466 14.4757 190.052 14.5396 190.736L14.2051 190.701L14.1342 190.565L13.8657 190.862C13.316 190.528 12.9408 190.577 12.2966 190.556C11.6243 190.82 10.5312 190.735 9.76861 190.758C9.68012 190.313 10.282 188.507 10.4159 187.807C10.9124 187.628 11.3335 187.678 11.8653 187.687Z" fill="#FCD5D3"/>
<path d="M10.4159 187.807C10.7443 188 10.8702 188.07 11.2225 188.21C11.9999 189.323 11.592 189.979 12.2966 190.556C11.6243 190.82 10.5312 190.735 9.76861 190.758C9.68012 190.313 10.282 188.507 10.4159 187.807Z" fill="#FCD5D3"/>
<path d="M11.8653 187.687C12.5808 187.672 12.7232 188.075 13.3425 188.347C13.7224 188.514 13.3575 188.103 13.9545 188.486L13.979 188.716C14.13 189.466 14.4758 190.052 14.5396 190.736L14.2052 190.701L14.1342 190.565C13.6902 189.503 13.3575 188.699 12.2623 188.028C12.0244 187.881 12.0234 187.985 11.8653 187.687Z" fill="#C4AA84"/>
<path d="M14.1342 190.565L14.2051 190.701C13.4954 192.852 11.2709 193.741 9.72332 192.047C9.56597 191.564 9.54355 191.73 9.68419 191.314C10.0198 191.089 10.4306 191.148 10.8587 191.145C10.5953 190.949 10.1034 190.851 9.76858 190.758C10.5312 190.735 11.6242 190.82 12.2966 190.556C12.9408 190.577 13.316 190.528 13.8656 190.862L14.1342 190.565Z" fill="#FCD5D3"/>
<path d="M12.2966 190.556C12.9408 190.577 13.316 190.528 13.8657 190.862C13.4377 191.224 11.6707 191.091 10.8588 191.145C10.5954 190.949 10.1034 190.851 9.76862 190.758C10.5312 190.735 11.6243 190.82 12.2966 190.556Z" fill="#C4AA84"/>
<path d="M12.8609 157.514C13.0964 157.575 13.2635 157.662 13.4858 157.76C13.7559 158.346 13.524 158.784 13.5337 159.414C13.5986 163.638 12.53 167.643 8.91681 170.277C8.89205 168.247 9.4246 165.964 9.30344 163.906C8.73074 164.85 9.15327 167.968 8.31715 169.53C6.86541 172.24 3.4345 173.434 0.744629 174.346C0.822719 173.762 0.848359 172.975 0.884689 172.372C1.26326 169.104 1.68594 167.711 3.16845 164.826C5.13883 163.739 6.98467 163.54 9.22975 162.529L9.08559 162.628L8.94025 162.431C6.84212 162.985 4.25114 163.924 2.20458 164.68C3.90099 161.343 5.43272 159.431 9.1981 158.555C10.164 158.331 11.8175 157.925 12.6927 157.581L12.8609 157.514Z" fill="#EC2861"/>
<path d="M8.62135 163.785L8.70954 163.864C8.53168 164.517 7.12052 166.112 6.61434 166.722L6.53992 166.641C6.56102 166.187 8.23017 164.251 8.62135 163.785Z" fill="#C4AA84"/>
<path d="M6.14841 204.45C6.62676 202.808 7.72322 201.415 9.20734 200.564C10.0369 200.1 13.8207 198.79 14.5864 198.934L14.5236 199.232L14.7273 199.191L15.0983 198.573L15.2191 198.67C14.8899 203.686 14.8107 204.931 11.4951 208.769L11.2674 208.646L11.1297 207.967C10.0547 210.209 6.92872 211.454 4.77155 212.33C5.04024 209.308 5.15247 207.393 6.67307 204.676L6.14841 204.45Z" fill="#EC2861"/>
<path d="M11.1296 207.967C11.2372 206.393 11.2618 205.423 11.2161 203.826L11.5438 203.869C12.0326 204.55 11.1562 207.214 11.495 208.769L11.2674 208.646L11.1296 207.967Z" fill="#C4AA84"/>
<path d="M6.14844 204.45C7.99399 204.02 9.14334 203.374 11.2355 203.072C10.6757 203.536 7.67549 204.163 6.67309 204.676L6.14844 204.45Z" fill="#C4AA84"/>
<path d="M25.9007 48.7773C30.1068 40.572 35.9833 31.8256 32.0333 22.0409C28.059 13.7298 18.9785 11.9651 12.5666 18.746C6.68728 24.9637 10.1967 36.58 18.9595 35.6361C20.9823 35.4079 22.8262 34.3696 24.0701 32.7582C26.2311 29.9733 26.0821 25.3866 22.3511 23.9554C21.9223 23.7909 21.5469 23.7215 21.0834 23.7861C21.3795 24.4299 22.2494 25.0738 22.1954 25.8616C21.9743 29.084 17.2257 28.7271 17.4312 25.4714C17.6914 23.2579 19.4081 22.4173 21.3912 22.7717C24.9784 23.4128 26.9233 26.6204 26.2848 30.1041C25.9019 32.194 24.4208 34.0888 22.7202 35.2718C18.5107 38.1999 13.1381 36.335 10.3608 32.3588C8.72594 30.0013 8.10327 27.0875 8.63172 24.2679C9.8448 17.6015 16.611 12.2065 23.483 13.5972C26.9753 14.2908 30.0479 16.3456 32.0223 19.3078C36.5189 26.1038 34.329 35.275 31.0352 42.0855C30.037 44.1547 28.7015 46.0712 27.609 48.0821C23.7839 55.1223 21.419 65.0831 26.2551 72.2424L26.5774 72.4048L26.7797 71.963C27.3527 73.5572 27.7985 74.1755 29.0861 75.3289C29.5241 74.3501 31.27 68.9403 31.8971 68.7303C32.0547 68.6774 32.2386 68.6619 32.4034 68.6402C32.5972 68.7692 32.6743 68.7543 32.6871 68.9825C32.753 70.1525 31.8041 71.9891 31.4334 73.0775C30.2908 76.4331 28.6345 79.5196 27.3735 82.7944C24.5229 90.1975 22.8289 98.4262 25.2221 106.197C25.7286 107.841 26.5025 109.421 27.2491 110.966C26.8301 108.632 26.6762 106.208 27.5413 103.945C27.7379 103.431 28.4621 102.338 28.4848 101.877C28.7593 96.3282 28.7242 90.8804 34.0398 87.4962L34.2674 87.4902L34.5232 87.9852C34.9258 87.6152 36.3645 86.1143 36.6455 85.9246C38.4945 84.6765 40.884 84.0171 42.8227 82.8691C42.7502 87.258 42.6668 89.249 40.9011 93.2283C41.5059 93.5898 41.4395 92.999 41.635 93.5995C41.3105 95.5713 39.5162 97.8822 38.0081 99.0745C34.4469 101.89 28.429 100.176 27.5631 105.913C26.9498 109.976 28.6102 113.319 32.0881 115.357C32.0858 114.556 31.2059 114.232 30.8295 112.823C30.1059 110.7 31.5569 109.205 33.5156 108.825C39.2107 107.722 41.5793 113.036 42.6147 117.334C38.4858 115.283 36.0941 119.122 31.2259 115.982C22.5186 110.365 21.5818 98.4973 23.8666 89.2867C24.8781 85.2091 25.896 81.7669 26.5691 77.6461L26.8863 78.056L26.7844 80.4093C27.3645 78.9576 28.0851 77.4592 28.7416 76.0325C28.5468 75.8728 28.3532 75.7115 28.1609 75.5489C22.2785 70.5711 21.8162 62.7345 23.4397 55.7057C24.223 52.3142 25.6124 48.7295 25.2864 45.2341C25.098 43.2122 24.5681 41.1847 22.9086 39.8677C22.2786 39.3677 21.3807 38.9297 20.5775 39.0865C19.0279 39.3887 19.8746 40.3004 19.3943 40.9791C18.8958 40.9502 18.832 40.8997 18.4067 40.6294C18.0104 39.9228 18.3565 39.5482 18.9189 39.0507C20.4757 37.6733 22.5436 38.0645 23.8355 39.5866C26.1559 42.3203 26.114 45.4307 25.9007 48.7773Z" fill="#C4AA84"/>
<path d="M31.0919 111.447C31.4637 110.939 31.8247 110.418 32.3707 110.105C37.2789 107.294 40.5685 112.548 41.796 116.289C38.7507 115.466 37.113 116.86 34.2007 116.138C33.6113 115.992 32.8958 115.096 32.5864 115.269L32.5308 115.576C32.266 115.481 32.2935 115.525 32.0881 115.357C32.0858 114.556 31.2058 114.232 30.8295 112.823L31.184 112.041L31.0919 111.447Z" fill="#FCD5D3"/>
<path d="M31.0919 111.447C32.6738 112.163 34.9755 110.839 37.0138 111.415L36.968 111.578C35.5662 111.502 34.2927 111.8 32.9576 112.174C32.6813 112.251 31.7246 111.983 31.184 112.041L31.0919 111.447Z" fill="#C4AA84"/>
<path d="M33.3999 112.262C34.4529 112.393 37.0988 113.157 37.8339 113.893L37.7241 114.032C36.8639 113.701 36.009 113.41 35.134 113.121C34.4883 112.909 34.0535 112.551 33.3999 112.262Z" fill="#C4AA84"/>
<path d="M41.6374 84.5453C41.713 84.5339 41.876 84.5684 41.9623 84.5815C42.5117 86.4306 40.9955 93.3257 39.0119 94.2421C38.258 94.5905 34.0917 96.1765 33.3869 96.0253C33.6382 95.6919 33.6488 95.3107 33.5898 94.9155L33.4086 94.821C33.1293 95.1576 32.9711 95.8803 33.1309 96.2963C34.0948 96.6878 39.687 94.3868 40.8246 93.9399C40.0042 95.7817 39.2059 96.919 37.7401 98.2785C35.3669 99.9916 32.6722 100.365 29.9314 101.205C29.0062 101.488 29.4756 98.2066 29.4331 97.8839C29.1325 95.6059 31.7262 88.5016 34.0747 88.6431C34.1065 88.9554 34.1262 89.2335 34.143 89.5467C34.4565 89.4111 35.2443 88.0647 35.8734 87.5361C37.7745 85.9382 39.3705 85.3035 41.6374 84.5453Z" fill="#EC2861"/>
<path d="M25.8879 175.953C25.7277 174.705 24.7767 172.128 24.3969 170.743C23.1066 166.03 22.4622 161.798 23.0284 156.934C23.654 151.562 25.8184 146.27 30.1245 142.826C32.1161 141.232 34.8223 140.421 37.2975 141.068C38.6092 141.412 39.4835 141.756 40.872 141.941L40.7262 141.978C39.6406 142.23 37.8475 141.888 36.7288 141.799C30.5882 141.314 26.3988 147.556 27.7224 153.239C27.9503 154.474 28.8231 155.942 29.9871 156.513C33.5365 158.251 37.8109 157.944 40.082 161.882C40.6154 162.806 41.428 164.259 41.5774 165.346L41.4028 165.4C41.2189 165.458 41.1851 165.463 41.0298 165.587C42.5404 169.337 42.8576 171.701 42.8686 175.821C40.9439 174.799 38.9807 174.036 37.0571 173.038C36.2678 172.629 35.1742 171.216 34.4846 170.913L34.2809 171.25C33.6133 171.2 32.0593 169.624 31.6372 169.156C28.4471 165.62 28.7856 160.823 28.4109 156.422C28.3852 156.118 27.763 155.117 27.6216 154.789C26.6272 152.478 26.7585 149.762 27.4453 147.402C22.1129 156.425 23.6307 167.281 28.2926 176.274C30.5423 180.613 33.9785 186.081 34.853 190.877C34.3701 192.066 34.0399 192.795 32.7912 193.301C30.6324 194.177 28.6908 193.011 28.3329 190.763C28.4092 190.199 28.7637 189.368 28.9258 188.718C27.6378 189.66 26.663 190.905 26.4354 192.535C25.3041 200.636 33.9496 197.237 36.7585 202.64C37.3543 203.787 37.6179 203.841 37.3061 205.228C37.4998 205.827 37.9396 206.806 38.0554 207.235C38.5594 209.1 38.6624 211.42 38.7265 213.335C37.3885 212.772 36.0363 212.234 34.7591 211.49C33.8201 210.942 32.815 210.166 31.9661 209.457L31.4883 209.519C30.0515 208.709 28.757 206.888 28.1982 205.521C26.8842 202.307 27.818 199.354 26.4779 196.233C26.3074 195.834 26.0391 195.075 26.0046 194.664C25.9102 193.543 26.0674 192.4 26.2484 191.302C22.2867 197.123 23.0341 205.252 26.154 211.272C26.6501 212.242 27.1891 213.188 27.7694 214.109C28.8289 215.76 33.2201 221.752 32.8421 223.609C32.5014 223.955 32.6803 223.865 32.1465 223.912C31.2339 223.345 31.2003 221.485 30.5363 220.395C29.7481 219.103 28.8308 217.918 28.0205 216.661C27.363 217.426 27.1787 217.653 26.7546 218.558L26.4347 218.503L26.0567 219.074C25.1818 219.781 24.2365 222.903 23.9908 224.059C22.4255 231.414 25.3702 238.492 28.9422 244.774C30.2385 247.055 31.7093 249.86 31.9894 252.499L31.7666 253.337C31.3902 250.816 29.8855 247.706 28.5548 245.554C23.1872 236.87 19.0204 224.223 27.5943 215.927C24.5568 211.533 22.8859 207.25 22.6465 201.868C22.3734 195.73 25.0517 187.419 32.2947 187.183C31.0642 183.815 28.5268 179.391 26.6674 176.232L26.5141 175.625L26.3037 175.547L25.8879 175.953Z" fill="#C4AA84"/>
<path d="M30.3413 188.004C31.0573 187.884 31.6754 187.754 32.3835 187.591C32.7657 188.746 33.1025 189.72 33.1919 190.952C32.1616 190.502 30.1927 190.411 29.0879 190.593L28.9624 190.583L28.3328 190.763C28.4092 190.199 28.7637 189.368 28.9257 188.718C29.3153 188.237 29.7252 188.048 30.3413 188.004Z" fill="#FCD5D3"/>
<path d="M28.9257 188.718C29.3153 188.237 29.7252 188.048 30.3413 188.004C29.6772 188.628 28.7743 189.573 28.9624 190.583L28.3328 190.763C28.4092 190.199 28.7637 189.368 28.9257 188.718Z" fill="#C4AA84"/>
<path d="M29.2866 157.559C30.2669 157.44 33.4723 158.39 34.5694 158.727C37.97 159.774 39.2704 161.869 40.7771 164.795C39.0483 164.038 35.3589 162.608 33.4675 162.386L33.4274 162.894C39.6582 163.328 41.3772 165.711 41.8924 171.661C41.9147 172.528 42.007 173.523 42.0668 174.399C38.5748 172.827 34.0606 171.597 33.9686 167.01C33.9434 165.748 33.9316 164.708 33.5116 163.489C33.4055 164.041 34.038 169.525 34.136 170.391C29.41 167.186 29.5038 162.607 29.2866 157.559Z" fill="#EC2861"/>
<path d="M31.5394 208.777C28.3863 205.662 27.991 203.979 27.83 199.433C27.8258 199.312 27.8545 199.178 27.8766 199.057C29.0249 198.745 29.6836 199.146 30.7723 199.414C33.0448 199.972 36.2494 201.749 36.7224 204.279L36.5006 204.312L36.0552 204.554C34.699 204.068 33.0096 203.488 31.5831 203.519L31.2431 203.459L31.0652 203.576C31.2861 205.2 31.5054 207.137 31.5394 208.777Z" fill="#EC2861"/>
<path d="M31.243 203.459L31.1746 202.876C32.4664 203.126 35.2014 203.888 36.5006 204.313L36.0552 204.554C34.699 204.068 33.0096 203.488 31.5831 203.519L31.243 203.459Z" fill="#C4AA84"/>
<path d="M31.5831 203.519C33.0097 203.488 34.6991 204.068 36.0553 204.554C37.6928 207.124 37.7758 209.341 38.1632 212.293C36.165 211.505 33.4309 210.515 32.2833 208.606C31.6346 207.528 31.2862 205.177 31.6001 203.971L31.7204 203.87L31.5831 203.519Z" fill="#EC2861"/>
<path d="M29.3352 190.873C30.6841 190.933 31.7768 190.941 33.0971 191.246C33.149 191.292 33.2597 191.475 33.3037 191.542C32.8951 193.774 29.1013 192.714 29.038 191.13L29.3352 190.873Z" fill="#FCD5D3"/>
<path d="M21.569 116.333C22.9676 117.133 23.7927 117.515 24.3848 119.039C24.7979 119.091 24.6395 118.998 24.8914 119.296C26.0242 120.81 27.3027 123.066 27.4157 124.965C27.5944 124.931 27.7052 124.843 27.869 124.747C28.689 122.576 31.8483 122.246 33.5246 124.08L33.7853 124.358C34.7988 126.244 34.8315 127.301 34.2906 129.399C34.1983 129.721 34.1454 130.035 33.92 130.276C31.838 134.906 26.7437 140.754 21.9612 142.552L21.8191 142.603L21.5309 142.695L21.1984 142.626C15.7543 140.21 11.5318 135.633 9.01601 130.287C8.95829 130.162 8.86656 129.828 8.82115 129.679C7.85816 127.71 8.2527 126.237 9.09468 124.323L9.29848 124.009C10.2686 123.201 10.6613 123.002 11.8905 122.724C13.2064 123.08 14.3339 123.508 15.009 124.773C15.1648 124.986 15.344 125.165 15.3539 125.415L15.7029 125.537C15.4423 123.373 16.9513 120.871 18.1797 119.15L18.7571 118.716C19.2866 117.409 20.3268 116.933 21.569 116.333Z" fill="#C01E25"/>
<path d="M18.1797 119.15L18.7571 118.716C18.1517 120.627 16.6701 124.885 16.2672 126.732C17.0737 129.321 18.0845 131.842 18.8825 134.465C19.7036 137.163 20.4821 140.098 21.5309 142.695L21.1984 142.626C15.7543 140.21 11.5318 135.633 9.016 130.287C8.95828 130.162 8.86656 129.828 8.82115 129.679C7.85816 127.71 8.2527 126.237 9.09468 124.323L9.29847 124.009C10.2686 123.201 10.6613 123.002 11.8905 122.724C13.2064 123.08 14.3339 123.508 15.009 124.773C15.1648 124.986 15.344 125.165 15.3539 125.415L15.7029 125.537C15.4422 123.373 16.9513 120.871 18.1797 119.15Z" fill="#FCD5D3"/>
<path d="M9.01599 130.287C9.63161 130.408 14.5206 133.865 15.2981 134.554C17.4766 136.484 19.8054 140.078 21.1984 142.627C15.7543 140.21 11.5318 135.633 9.01599 130.287Z" fill="#C01E25"/>
<path d="M12.9269 128.54C13.3435 127.641 14.3632 125.977 15.1137 125.356L15.3539 125.415C16.7035 130.079 18.6625 135.434 20.1739 140.165C19.6914 139.326 19.2973 138.748 18.7469 137.965C18.051 136.994 16.7362 135.241 16.1807 134.26C15.0715 132.302 14.1032 130.483 12.9269 128.54Z" fill="#C01E25"/>
<path d="M9.09468 124.323C11.6269 127.009 13.774 130.73 15.5552 133.982C12.905 132.03 11.5418 131.32 8.82115 129.679C7.85816 127.71 8.2527 126.237 9.09468 124.323Z" fill="#C01E25"/>
<path d="M9.29846 124.009C10.2686 123.201 10.6613 123.002 11.8905 122.724C13.2064 123.08 14.3339 123.508 15.009 124.773C14.0955 125.783 13.3616 126.82 12.6423 127.97C11.5409 126.464 10.5653 125.376 9.29846 124.009Z" fill="#C01E25"/>
<path d="M18.1797 119.15C17.8998 120.023 16.1905 125.5 15.9401 125.94L15.7029 125.537C15.4422 123.373 16.9513 120.871 18.1797 119.15Z" fill="#C01E25"/>
<path d="M24.3848 119.039C24.7979 119.091 24.6395 118.998 24.8914 119.296C26.0242 120.81 27.3027 123.066 27.4157 124.965C27.5944 124.931 27.7052 124.843 27.869 124.748C28.689 122.576 31.8483 122.246 33.5246 124.08L33.7853 124.358C34.7988 126.244 34.8315 127.301 34.2906 129.399C34.1983 129.721 34.1454 130.035 33.92 130.276C31.838 134.906 26.7437 140.754 21.9612 142.552L21.8191 142.603L21.5309 142.695C21.7563 141.718 22.3555 140.593 22.5804 139.572C23.4209 135.752 26.1998 129.748 26.4606 126.094C26.5273 125.159 24.7194 120.138 24.3848 119.039Z" fill="#FCD5D3"/>
<path d="M21.8191 142.603C22.7346 140.748 23.9801 139.245 25.1348 137.559C27.3081 134.385 30.4723 132.311 33.6761 130.222L33.92 130.276C31.838 134.906 26.7436 140.754 21.9612 142.552L21.8191 142.603Z" fill="#C01E25"/>
<path d="M27.5021 133.919C29.6499 130.038 30.9228 127.714 33.7852 124.358C34.7988 126.244 34.8315 127.301 34.2906 129.399C31.9738 131.094 29.9257 131.917 27.5021 133.919Z" fill="#C01E25"/>
<path d="M27.869 124.747C28.689 122.576 31.8483 122.246 33.5246 124.08C32.451 125.341 31.2942 126.657 30.2747 127.953C29.8646 127.304 28.4271 125.143 27.869 124.747Z" fill="#C01E25"/>
<path d="M24.8914 119.296C26.0241 120.81 27.3027 123.066 27.4157 124.965C27.2364 125.16 27.0961 125.721 27.0071 126.002C26.3219 123.806 25.6491 121.453 24.8914 119.296Z" fill="#C01E25"/>
<path d="M27.6722 125.061C28.742 126.373 29.2201 127.058 30.0084 128.517C27.7719 132.326 26.4085 134.777 23.8953 138.589L22.7809 140.198C24.5436 135.196 26.1746 130.149 27.6722 125.061Z" fill="#C01E25"/>
<path d="M4.06189 50.2397C7.54774 51.8298 7.87737 51.5947 10.8378 54.2834L11.2237 54.0346C13.1677 55.1652 14.7319 57.6344 15.3303 59.7946C15.8077 61.5177 15.402 63.6997 15.7678 65.2413C16.4384 68.0665 17.2746 68.8716 16.7214 72.0158L16.8493 72.0585C20.9956 66.2526 19.2945 56.4093 16.5826 50.3538C14.9371 46.6801 9.60425 38.2148 10.7986 34.4022L10.9351 34.4349C11.4784 40.6168 14.8126 44.5781 17.3265 50.0586C21.0519 58.18 22.2524 69.9133 14.2474 76.0674C14.9346 77.4853 15.6037 78.9121 16.2547 80.3472C16.0286 78.4408 15.8951 77.2237 15.9762 75.3036C16.5326 77.4418 16.5615 79.9496 17.1632 81.9808C20.0433 91.7033 22.2305 101.362 16.8652 110.63L16.1597 109.924C20.9407 100.508 18.6704 89.8731 14.7029 80.5756C13.0661 76.7399 10.9048 72.8513 10.0458 68.7303C10.2238 68.534 10.264 68.5088 10.5368 68.508C10.8585 68.5072 11.1816 68.7045 11.3893 68.9406C11.5928 69.1716 13.4014 74.4351 13.8332 75.3514C15.442 73.7129 16.4489 72.3836 16.4328 69.9133C16.4359 68.4399 15.9184 67.0129 14.9717 65.8841C13.1991 65.1149 11.319 64.9329 9.53613 64.1818C7.50935 63.3278 5.21988 61.2566 5.23424 58.8768C5.39979 58.804 5.54102 58.7365 5.67258 58.611C5.4685 57.886 4.94782 57.0576 4.82783 56.547C4.40574 54.751 4.08811 52.0672 4.06189 50.2397Z" fill="#C4AA84"/>
<path d="M11.2684 54.9188C13.9098 57.2365 14.6864 58.7085 15.0408 62.3837C15.0928 62.9216 15.1517 64.774 14.9472 65.1676L14.7853 64.8174C14.2085 64.9069 14.4467 64.9309 13.8789 64.6879C9.58959 63.5368 7.90328 63.6572 5.89642 59.2133C6.7929 59.6069 10.8485 60.9248 11.7885 61.0143C11.5991 60.6379 11.4946 60.5059 11.5457 60.0831L11.793 60.1576C11.8452 59.5561 11.3957 55.6395 11.2684 54.9188Z" fill="#FCD5D3"/>
<path d="M4.84741 52.2746L4.87759 51.7398C5.7559 51.4947 7.40499 52.5383 8.23026 52.9457C11.7839 54.7 10.9061 57.0897 11.5457 60.0831L11.2228 60.1338L11.3803 60.5324C10.0631 60.3083 7.9415 59.7724 6.78805 59.1291C5.28137 56.8722 5.08402 54.9026 4.84741 52.2746Z" fill="#FCD5D3"/>
<path d="M0.015625 82.9116C1.98044 83.9104 4.32352 84.6445 6.15984 85.8834C6.86205 86.3572 7.54565 87.4076 8.39437 87.9946L8.73823 87.5948C9.42286 87.6774 10.1293 88.3968 10.6333 88.8927C14.2337 92.4345 14.3304 97.2905 14.3916 101.97C15.6692 104.601 16.1981 105.86 15.9741 108.937C15.9273 109.578 15.7442 110.192 15.7225 110.774C15.6232 111.162 15.5845 111.225 15.3954 111.583L15.0659 111.75L14.8679 111.671L14.7289 111.209C15.7698 108.066 15.9478 104.527 13.1671 102.223C11.4657 101.252 9.48496 101.063 7.62212 100.447C4.8546 99.5326 2.76336 97.6111 1.73679 94.8648C1.56376 94.4019 1.21347 93.7643 1.38078 93.2805C1.58267 93.2452 1.78117 93.2227 1.9857 93.2116C0.284752 89.379 0.112465 87.1551 0.015625 82.9116Z" fill="#C4AA84"/>
<path d="M0.864151 84.3452C3.55139 85.3281 7.66692 86.8395 8.60574 89.872C8.89187 90.7962 8.86081 94.1981 9.41929 94.7685L9.30531 94.8049L9.3979 95.0064C9.30838 94.8225 9.34413 94.9175 9.29007 94.7212L9.42031 94.6247C9.35087 92.8037 9.03895 90.3812 8.91794 88.4385C13.6489 92.5125 13.1327 94.8236 13.5801 100.402L13.0597 101.074L13.1089 101.212C7.48862 99.2952 5.21893 100.335 2.23941 93.9723C5.39342 95.4447 6.08889 95.5338 9.43775 96.392L9.51086 96.1827C8.59387 95.6646 7.61623 95.5736 6.63404 95.2607C5.58344 94.926 4.48873 94.5167 3.4875 94.0571C1.32476 91.3909 0.976381 87.6125 0.864151 84.3452Z" fill="#EC2861"/>
<path d="M13.5802 100.402C13.7592 101.134 13.8384 101.393 14.3917 101.97C15.6692 104.601 16.1981 105.86 15.9741 108.937C15.9273 109.578 15.7442 110.192 15.7225 110.774C15.6232 111.162 15.5845 111.225 15.3954 111.583L15.0659 111.75L14.868 111.671L14.7289 111.209C15.7698 108.066 15.9479 104.527 13.1671 102.223C13.2121 101.904 13.148 101.539 13.109 101.212L13.0598 101.074L13.5802 100.402Z" fill="#C4AA84"/>
<path d="M26.109 69.0216C26.2209 67.6171 27.0968 66.2337 27.1401 65.4827C27.4137 60.7581 27.2978 56.8615 31.7595 53.9611C31.9322 54.0754 31.9477 54.0912 32.0931 54.2396C32.5862 53.8474 33.2624 52.9681 33.4858 52.8295C35.082 51.8403 37.1321 50.9929 38.8494 50.242C38.6883 52.2289 38.5665 54.2242 38.1432 56.183C38.0022 56.8354 37.1542 58.3949 37.2012 58.7703C38.0797 59.3967 36.8178 61.2105 36.3271 61.8614C32.4715 66.9775 26.9853 62.4721 26.4285 70.3975L26.7797 71.963L26.5774 72.4048L26.2551 72.2423C26.0221 70.9224 26.0224 70.3131 26.109 69.0216Z" fill="#C4AA84"/>
<path d="M26.109 69.0216L26.3348 69.1599C26.348 69.5049 26.3427 70.0901 26.4285 70.3975L26.7797 71.963L26.5774 72.4048L26.2551 72.2424C26.0221 70.9224 26.0224 70.3132 26.109 69.0216Z" fill="#FCD5D3"/>
<path d="M37.7488 51.5792L38.0225 51.6326C38.4071 52.8618 37.1382 58.2082 36.0592 59.0694C35.3728 59.6174 32.3162 60.5802 31.4127 60.4312L31.2275 60.5948L31.3125 60.8484C31.5941 60.9151 36.2448 59.5914 36.8729 59.3925C34.4981 64.5789 32.0412 63.2582 28.6049 64.9863L28.4907 65.045L28.3612 65.1673L27.9444 64.8843C27.7811 64.5845 27.7633 64.236 27.7912 63.8931C28.1693 59.2378 28.2207 58.0945 31.5472 54.8756C31.412 56.4254 31.3012 57.9921 31.0614 59.5289C30.9966 59.9441 30.7285 60.3168 30.8012 60.6865C31.9564 58.6501 31.3008 57.597 32.0056 55.2379C34.2022 52.9598 34.8027 52.6586 37.7488 51.5792Z" fill="#FCD5D3"/>
<path d="M11.1873 230.343C11.8731 230.359 11.4667 231.969 11.4423 232.361C11.1934 236.365 9.09236 237.376 5.7498 238.685L5.35512 238.777C4.68294 237.931 5.89221 233.418 6.42549 232.37C6.56863 232.089 6.88142 231.723 7.10294 231.487C8.1534 230.987 10.0227 230.607 11.1873 230.343Z" fill="#FCD5D3"/>
<path d="M14.6464 225.97C14.6314 226.011 14.6164 226.052 14.6013 226.095C12.2181 230.844 10.5231 229.758 6.50798 231.324C6.39913 230.659 7.30234 229.287 7.80574 228.822C9.71195 227.059 12.2238 226.627 14.6464 225.97Z" fill="#FCD5D3"/>
<path d="M26.0567 219.074L26.4347 218.503L26.7545 218.558C26.4855 219.622 26.3544 220.095 26.35 221.22C27.7159 228.522 31.7403 223.848 35.9471 228.734C36.4005 229.262 37.6033 231.295 37.5188 232.005L37.2024 232.247C37.0872 232.666 37.9639 234.119 38.0739 234.73C38.3838 236.451 38.5058 238.375 38.6608 240.11C35.371 238.427 35.3361 238.963 31.9672 236.428C31.6552 236.5 31.6314 236.513 31.2968 236.511C26.9952 233.003 27.7014 230.517 27.0541 225.655C26.7299 223.221 25.342 222.447 26.0619 219.326L26.0567 219.074Z" fill="#C4AA84"/>
<path d="M26.0567 219.074L26.4347 218.503L26.7545 218.558C26.4855 219.622 26.3544 220.095 26.35 221.22C26.062 220.402 26.0702 220.202 26.062 219.326L26.0567 219.074Z" fill="#FCD5D3"/>
<path d="M27.7174 225.991C28.3268 226.438 28.1443 226.008 28.4738 226.077C33.1903 227.069 34.5343 227.459 36.9829 231.628C35.6118 231.018 32.9985 230.315 31.5063 230.018C32.5854 230.587 34.4483 230.891 35.9103 231.644L35.9799 231.68C37.2292 233.662 37.5354 235.364 37.6838 237.651C37.7374 238.068 37.7916 238.303 37.7223 238.728C36.5383 238.779 33.1888 236.728 32.4059 235.823C31.3661 234.619 31.6708 231.607 31.1704 230.44L30.9845 230.388C30.8807 230.957 31.5807 235.029 31.7182 235.928C27.9052 232.446 28.0411 231.102 27.7174 225.991Z" fill="#FCD5D3"/>
<path d="M0.271606 117.324C2.84984 105.013 13.2938 108.334 12.4278 112.146C12.3763 112.366 12.3152 112.584 12.2446 112.798C11.8757 113.638 11.0061 114.636 11.1523 115.105C12.9 114.208 13.8735 112.917 14.7289 111.209L14.868 111.671L15.0659 111.75L15.3954 111.583C15.5845 111.225 15.6232 111.162 15.7226 110.774L16.1597 109.924L16.8652 110.63C15.0603 113.488 12.57 116.217 9.14394 117.099C5.43965 118.052 3.71438 115.414 0.271606 117.324Z" fill="#FCD5D3"/>
<path d="M0.271606 117.324C2.84984 105.013 13.2938 108.334 12.4278 112.146C12.3763 112.366 12.3152 112.584 12.2446 112.798C11.9298 112.212 12.0792 112.28 11.566 112.033C10.8423 112.179 10.8352 112.478 9.99735 112.444C9.8778 111.844 10.3562 112.212 9.93246 111.819C10.6949 111.701 11.3527 111.689 12.0832 111.583C10.3187 108.965 7.45033 108.63 4.89041 110.374C2.94655 111.698 1.86723 114.028 1.22626 116.22C4.99662 115.5 7.9467 117.685 10.6773 114.87L10.7254 114.908L10.5353 115.387C10.957 115.335 10.8001 115.387 11.1523 115.105C12.9 114.208 13.8735 112.917 14.729 111.209L14.868 111.671L15.0659 111.75L15.3954 111.583C15.5846 111.225 15.6232 111.162 15.7226 110.774L16.1597 109.924L16.8652 110.63C15.0604 113.488 12.57 116.217 9.14394 117.099C5.43965 118.052 3.71438 115.414 0.271606 117.324Z" fill="#C4AA84"/>
<path d="M9.22299 112.231L9.48641 112.242L9.38561 112.402L9.39118 112.283L9.30415 112.273L9.23983 112.462C8.34907 113.013 7.03432 113.236 5.82388 113.808L5.38435 113.892L5.36853 113.772C6.11821 113.187 8.27216 112.53 9.22299 112.231Z" fill="#C4AA84"/>
<path d="M0.463928 141.184C1.2706 141.57 1.5916 141.834 2.48705 141.885L2.31915 142.2C3.37444 143.015 6.8389 143.377 8.22354 144.203C9.05863 144.702 13.2442 146.64 11.9681 148.09C10.0959 150.217 6.8033 150.488 4.54211 148.714C1.9022 146.645 0.986528 144.398 0.463928 141.184Z" fill="#C4AA84"/>
<path d="M11.6338 147.365C11.061 148.001 10.3853 148.682 9.54771 148.912C5.04159 150.146 2.57953 146.283 1.43018 142.761C5.20406 143.914 8.235 144.086 11.2569 146.905C10.3964 146.848 9.53847 146.85 8.75333 146.501L8.46648 147.071C9.53701 147.093 10.5718 147.238 11.6338 147.365Z" fill="#FCD5D3"/>
<path d="M8.46648 147.071C7.335 147.244 6.89226 147.247 5.79272 146.949C6.72905 146.927 7.95313 146.999 8.75335 146.501L8.46648 147.071Z" fill="#C4AA84"/>
<path d="M5.26099 145.369C6.1415 145.278 6.92004 145.628 7.76363 145.909C6.80415 145.984 6.13989 145.744 5.26099 145.369Z" fill="#C4AA84"/>
<path d="M40.872 141.941C41.6039 141.638 41.8423 141.504 42.5124 141.078C41.4513 145.732 39.0803 150.808 33.3617 149.667C31.887 148.988 31.5377 148.71 30.5549 147.441C31.7607 145.991 32.5197 145.215 34.2557 144.329C36.2942 143.289 39.0071 143.171 40.872 141.941Z" fill="#C4AA84"/>
<path d="M41.4515 142.632L41.5093 142.672C41.5094 142.711 41.5095 142.751 41.5097 142.789C40.3006 147.661 34.9643 151.84 31.2353 147.289C32.205 147.178 33.2013 147.17 34.1786 147.144C35.2877 147.214 36.0042 147.258 37.1184 147.197L37.083 147.066C35.3029 146.872 34.1251 146.766 32.3383 146.722L32.2361 146.577C34.136 144.209 38.9177 143.725 41.3137 142.694L41.4515 142.632Z" fill="#FCD5D3"/>
<path d="M37.0489 145.511L37.2401 145.531C36.8814 145.846 35.3904 146.299 34.8529 146.486C34.8294 146.318 34.9657 146.174 35.0757 145.984C35.731 145.817 36.3889 145.659 37.0489 145.511Z" fill="#C4AA84"/>
<path d="M21.3765 0C22.9321 0.75252 23.9345 2.70841 24.1498 4.36431C24.5228 7.23581 23.1929 9.5702 21.5204 11.7673C18.086 8.67484 17.3423 3.03468 21.3765 0Z" fill="#C01E25"/>
<path d="M21.3561 277.565C21.5479 277.732 21.6669 277.864 21.8277 278.056C24.7404 281.526 25.3612 286.408 21.4855 289.461C21.3402 289.375 21.2848 289.342 21.1497 289.24C19.8133 288.214 18.9344 286.704 18.7029 285.036C18.3447 282.361 19.7598 279.629 21.3561 277.565Z" fill="#C01E25"/>
<path d="M25.8879 175.953L26.3037 175.547L26.5141 175.625L26.6673 176.232C26.9357 180.402 26.8319 187.244 21.5686 188.293C17.003 187.238 15.8955 182.447 16.0732 178.331C16.0982 177.753 16.2428 176.891 16.2126 176.357L16.24 176.17C16.6714 175.952 16.7445 175.836 17.0625 175.464C16.5072 178.968 16.4382 182.441 18.6029 185.47C19.7025 187.008 21.0524 187.644 22.8573 186.906C22.3893 186.417 22.3167 186.357 22.3753 185.721C22.7024 185.315 22.5256 185.435 23.0646 185.294C23.7155 185.456 23.4694 185.333 23.994 185.836C26.3862 182.331 26.2996 179.952 25.8879 175.953Z" fill="#C4AA84"/>
<path d="M22.8573 186.906C22.3894 186.417 22.3167 186.357 22.3753 185.721C22.7024 185.315 22.5256 185.435 23.0646 185.294C23.7155 185.456 23.4694 185.333 23.994 185.836C23.5506 186.332 23.4032 186.516 22.8573 186.906Z" fill="#C4AA84"/>
<path d="M27.5676 9.69163C28.3346 9.68094 28.882 9.60272 29.4064 10.2584C29.6392 11.6604 28.2967 12.1677 27.2092 12.51C26.5759 12.6061 25.6441 12.6295 24.9829 12.6659C25.6212 11.0131 25.9572 10.4153 27.5676 9.69163Z" fill="#C01E25"/>
<path d="M24.9217 276.569C26.297 276.589 30.2193 276.976 29.3084 279.27C26.8894 280.334 25.7398 278.557 24.9217 276.569Z" fill="#C01E25"/>
<path d="M17.5821 276.666C17.7182 276.732 17.6587 276.714 17.7364 276.944C17.0112 278.835 16.0727 279.866 13.919 279.584C12.667 278.372 13.9744 277.399 15.1306 277.013C16.0486 276.704 16.6317 276.705 17.5821 276.666Z" fill="#C01E25"/>
<path d="M14.1438 9.67975C15.6441 9.6358 17.9934 11.0334 17.618 12.5525L17.1608 12.6893C15.8091 12.5148 11.648 11.6049 14.1438 9.67975Z" fill="#C01E25"/>
<path d="M26.569 77.6461C26.6726 76.7063 26.7236 76.1703 26.9719 75.247C26.9743 76.0244 27.0206 77.3332 26.8862 78.056L26.569 77.6461Z" fill="#FCD5D3"/>
<path d="M31.9894 252.499C32.1055 253.388 32.1606 253.641 31.9885 254.508L31.8975 254.583C31.8134 254.106 31.7506 253.83 31.7665 253.336L31.9894 252.499Z" fill="#C4AA84"/>
</svg>
