<svg width="46" height="280" viewBox="0 0 46 280" fill="none" xmlns="http://www.w3.org/2000/svg">
<path d="M45.7578 103.326C42.3309 100.591 38.7208 102.523 37.4961 101.578C37.6995 101.335 37.7623 101.281 37.8448 100.969C36.8719 99.5805 31.7325 100.591 30.3018 101.171C23.0848 104.092 18.0595 110.06 14.9034 117.009C15.4902 115.017 15.7664 112.869 16.3067 111.031C17.6654 106.403 21.1108 101.513 25.0235 98.6849C26.8867 97.3387 29.1393 95.9153 30.3887 93.9612C31.7507 91.7933 32.1878 89.1712 31.6026 86.678C31.1046 84.4588 30.1277 83.1473 28.2676 81.9651C36.716 68.452 41.0199 49.5237 30.4766 35.886C33.1393 31.0301 32.3883 25.9236 31.541 20.7278C31.2111 18.702 30.7902 15.1204 30.3125 13.1839C29.1235 8.80403 27.8854 3.76886 23.8545 1.11163C21.7751 -0.25932 18.9916 -0.674823 17.4854 1.69659C16.8559 2.68815 16.6504 3.8906 16.9151 5.03448C17.5081 7.6419 21.1167 8.64679 22.5401 6.31476L22.2832 6.23761C20.7119 7.84454 17.9772 7.16779 17.6934 4.75519C17.4982 3.09557 18.2953 0.889594 20.1621 0.879211C28.61 0.835261 30.3299 16.8636 30.9043 22.2601C25.5228 14.7456 11.7803 18.3956 16.9571 28.9466C11.8299 29.304 7.72012 30.9099 5.03909 35.6321C2.90392 39.3939 2.51861 44.5902 4.50003 48.5071C5.72161 50.8772 7.83499 52.6673 10.376 53.4818C15.1746 55.0257 21.2394 52.4061 22.7559 47.4124C23.8501 43.8076 22.1412 40.1809 18.417 39.1673C16.839 38.7059 16.0082 38.6282 14.5625 39.346C12.629 40.3054 11.4284 43.1517 12.544 45.138C12.8894 45.74 13.4649 46.176 14.1377 46.346C14.6506 46.4749 14.8323 46.3728 15.209 46.1458C15.4633 45.5921 15.4162 45.8216 15.3692 45.1917C14.9894 44.9297 15.0522 45.0223 14.5684 45.0325C12.7545 45.0661 12.7684 42.7615 13.4444 41.5677C13.9352 40.714 14.7402 40.0867 15.6875 39.8187C18.2086 39.1243 21.5692 41.3309 22.1231 43.8724C23.0617 48.179 19.4783 51.6756 15.5674 52.6761C13.2417 53.2723 10.7729 52.9012 8.72659 51.6458C3.39806 48.4421 3.07966 40.7077 6.03616 35.7816C9.87004 29.3953 18.823 28.852 24.7139 32.5609C29.6484 35.6677 32.6076 40.5279 34.1319 46.0823C39.7319 65.8722 26.3298 83.1518 15.6817 98.345C14.1612 100.514 12.4324 102.539 10.9502 104.752C10.158 105.936 9.6104 107.012 8.88089 108.208C10.2374 103.729 12.3148 101.553 14.0596 97.6331C18.1753 88.387 23.6123 75.0876 18.126 65.5296C15.8119 70.2653 12.0197 73.7227 11.1026 78.9329C10.147 84.3616 13.3269 88.534 15.1817 93.2757C13.8952 97.1178 11.0081 101.12 9.35159 104.717C6.5728 110.751 4.76983 120.05 6.44241 126.601C8.04535 132.879 9.46595 135.961 9.16214 142.743C8.92132 148.12 7.77437 150.658 6.41312 155.778C5.54801 159.032 5.76534 164.361 6.37698 167.641C7.01595 171.067 8.3428 175.654 10.0342 178.749C11.7784 181.941 13.8283 185.052 15.128 188.515C14.1915 191.124 12.6189 193.718 11.6895 196.536C8.77849 205.365 14.7363 209.263 18.1026 216.068C18.2155 215.892 18.3229 215.712 18.4239 215.529C23.3741 206.665 18.1722 193.276 14.25 184.729C12.4102 180.719 10.1356 178.242 8.83401 173.677C11.0423 177.991 13.3017 180.287 15.9805 184.132C26.5284 199.273 41.1197 217.461 32.9688 237.001C30.9216 241.909 27.8436 245.942 22.8799 248.186C16.5771 251.172 8.24934 249.366 5.27444 242.618C3.97116 239.659 3.75634 235.626 4.96878 232.584C5.83211 230.381 7.54246 228.616 9.7178 227.682C14.927 225.463 22.0022 228.426 22.2569 234.523C22.3341 236.266 21.4652 237.655 20.2051 238.774C18.7871 240.033 16.8269 240.458 15.0508 239.705C13.4451 239.025 12.3907 237.636 13.1719 235.878C13.8114 234.44 14.9204 235.304 15.3887 234.273C15.2658 233.746 15.3573 233.792 15.0127 233.447C12.0694 233.095 11.4001 237.466 13.1211 239.346C15.353 241.785 18.6144 241.181 20.9278 239.299C24.0152 236.788 23.5723 232.299 21.1758 229.477C19.4021 227.423 16.889 226.15 14.1826 225.936C11.6188 225.733 8.81426 226.648 6.86722 228.33C1.79818 232.73 2.25424 241.39 6.44632 246.226C9.28707 249.503 12.6767 250.589 16.8594 250.898C12.1175 260.317 24.171 265.756 31.0039 257.388C30.2655 262.66 28.9387 273.433 24.6778 277.165L24.253 277.794L24.3184 278C24.507 277.993 25.3317 277.216 25.7588 276.954C29.7521 273.943 31.3134 260.722 31.9815 255.786C32.661 250.766 32.4719 248.347 30.5205 243.778C35.3408 237.538 37.3121 228.965 36.377 221.188C35.5279 214.127 32.092 206.089 28.2676 200.05C30.1514 198.98 30.9522 197.797 31.4893 195.74C33.0305 189.833 29.7343 186.706 25.3369 183.736C21.2322 180.963 17.8714 175.79 16.3545 171.159C15.842 169.553 15.4502 167.388 15.1182 165.684C18.7624 172.697 23.4002 178.548 31.2051 181.228C32.5692 181.696 36.9442 182.379 37.7823 181.02L37.5489 180.521C37.8373 180.23 38.4736 180.246 38.9073 180.242C41.7894 180.214 43.1972 180.673 45.7051 178.866C44.2806 175.86 42.5525 175.051 39.5762 173.989C39.394 173.924 39.2112 173.859 39.0284 173.796C37.04 170.82 35.9365 169.024 32.0274 168.188C27.6835 167.259 24.2425 169.197 20.0498 166.932C18.3501 166.014 16.3203 163.171 15.2256 162.766C15.0279 163.006 14.8167 163.255 14.6299 163.501C10.9579 158.914 9.97273 157.475 10.2207 151.342C9.67776 151.741 9.94404 154.109 9.85257 154.733C9.24252 158.885 13.3133 162.271 14.1709 165.467C15.5833 170.731 16.6205 175.167 20.1045 179.639C21.1144 180.935 22.3548 182.343 23.6709 183.389C27.6737 186.311 31.9515 188.699 31.0772 194.505C30.7206 196.873 29.8558 198.155 27.8653 199.409C25.0081 194.904 22.0114 190.488 18.8799 186.168C13.1609 178.326 7.98949 173.026 7.30862 162.712C6.9284 156.953 7.78612 154.18 9.42191 148.719C9.61683 148.068 9.68611 146.896 9.77933 146.189C9.53738 142.689 9.80229 139.027 9.69339 135.572C9.60383 132.733 8.28322 129.971 7.67288 127.241C6.3229 121.419 7.67087 113.323 10.3731 108.044C12.3554 104.171 15.8844 100.005 18.5117 96.4144C21.7359 91.9643 24.8295 87.4205 27.7891 82.7903C28.5089 83.0965 28.919 83.2562 29.4453 83.8392C31.5524 86.1726 31.5515 90.161 30.251 92.9105C29.1675 95.2014 25.9692 96.8704 24.0899 98.4026C23.0108 99.2698 21.7641 100.528 20.8877 101.59C18.5251 104.452 16.5076 108.131 15.5176 111.712C14.963 113.718 14.6451 115.632 13.7881 117.539C12.6651 120.041 10.7636 122.096 10.128 124.794C9.69248 126.643 9.78419 128.832 10.1348 130.682C10.3375 124.325 10.43 123.803 14.5684 118.811C14.849 119.194 14.8175 119.282 15.2227 119.43L15.5088 119.155C16.7277 118.333 17.9323 116.567 19.6201 115.468C23.6161 112.867 27.064 114.816 31.3516 114.045C36.2465 113.166 36.6067 111.618 38.9971 108.343C42.1534 107.269 44.1393 106.44 45.7578 103.326ZM29.4639 21.7874C31.488 23.3273 31.9195 27.4487 31.5078 29.763C31.2924 31.9998 31.0123 33.245 30.0801 35.3294C26.4376 31.7743 23.2896 29.6478 18.1162 29.0413C16.3006 26.3724 15.8374 22.1991 18.9092 20.2728C20.4026 19.5521 21.7725 19.4261 23.4004 19.1829C22.0446 20.0926 20.2539 21.6801 21.3213 23.6927C21.4399 23.9153 21.6604 23.9227 21.8955 23.9827C22.999 23.5491 22.8869 21.9686 22.9385 20.9622C25.1446 18.5118 27.3389 20.1703 29.4639 21.7874ZM29.9912 244.327C31.2624 246.969 31.9063 250.477 31.5108 253.377C31.4222 254.128 31.3336 255.156 31.0088 255.826C30.0132 257.879 27.3595 260.31 24.916 260.081C24.0359 260 23.5206 259.394 22.9463 258.796C22.8791 257.785 22.9458 256.3 21.9141 255.794C21.6357 255.837 21.4067 255.863 21.2696 256.142C20.3195 258.07 21.9334 259.614 23.1836 260.487C21.0315 260.276 18.1009 259.869 17.1856 257.542C16.5389 255.504 16.4217 253.714 17.4463 251.741C17.6143 251.42 17.7887 251.102 17.9678 250.787C22.3815 250.175 27.157 248.054 29.8965 244.457C29.9291 244.415 29.9602 244.371 29.9912 244.327Z" fill="#C4AA84"/>
<path d="M37.6702 109.102C32.0087 110.044 26.6209 109.497 21.2486 111.558C20.5409 111.829 19.6626 112.368 18.9594 112.489L18.969 112.344C20.4921 111.214 25.4874 109.701 27.4506 109.117L27.599 109.182L27.0696 109.615C28.2603 109.729 29.1542 109.385 30.2586 109.357C33.9353 109.262 36.7725 109.099 40.0561 107.328C42.508 106.005 43.2173 106.04 44.7859 103.474C42.2573 102.178 40.7521 102.727 38.0528 102.194C37.0521 101.996 35.8168 101.161 34.8415 101.105C33.6727 101.036 32.0605 101.303 30.8968 101.7C24.9757 103.713 20.1182 108.75 17.0263 114.038C16.2788 115.317 15.4178 117.721 14.5679 118.811C14.8488 119.195 14.8173 119.283 15.223 119.43L15.5092 119.155C15.4807 118.497 16.569 117.361 16.9974 116.861C21.283 111.868 26.4462 114.195 31.8894 113.221C34.7348 112.713 36.0296 111.469 37.6702 109.102Z" fill="#FCD5D3"/>
<path d="M38.6356 104.013C37.1924 103.937 29.3047 107.972 27.6745 108.942C28.1111 108.988 28.1365 109.027 28.5692 108.815C30.0673 108.076 31.8289 107.19 33.288 106.437C34.373 105.876 37.9285 104.548 38.6356 104.013Z" fill="#C4AA84"/>
<path d="M44.8353 178.776C42.779 175.603 41.6558 175.597 38.3028 174.025C37.548 173.671 36.7573 173.461 35.9897 173.293C35.1866 173.118 27.6 172.443 27.3005 172.561L27.4477 172.835C27.7552 172.852 31.9546 175.027 32.6167 175.382C34.5097 176.396 36.7682 177.067 38.5922 178.081C35.0418 177.449 30.2864 174.347 27.015 172.956C24.7997 172.014 21.8227 171.463 19.7142 170.167C20 170.065 21.1345 170.349 21.4406 170.493C26.5435 172.901 32.2212 171.753 37.6319 173.093C32.6428 164.711 24.9492 171.704 18.5039 166.652C17.6413 165.976 15.5549 163.785 15.2251 162.766C15.0274 163.006 14.8163 163.254 14.6296 163.501C15.4254 164.412 16.8753 167.69 17.6041 168.934C20.4144 173.733 25.1305 178.261 30.3836 180.249C31.8271 180.795 33.0463 181.044 34.5898 181.023C36.0224 181.003 37.1265 180.059 38.3223 179.855C40.9724 179.401 42.2733 179.95 44.8353 178.776Z" fill="#FCD5D3"/>
<path d="M19.6354 77.9359C19.6959 77.6927 19.7437 76.4198 19.7566 76.1092C19.9024 72.5994 19.5166 70.2117 18.2483 66.9832C15.157 72.3621 12.0103 74.4173 11.6163 80.867C11.7946 85.1678 13.7279 88.452 15.5189 92.3235C17.4162 87.554 19.1119 83.1097 19.6354 77.9359Z" fill="#EC2861"/>
<path d="M17.3228 74.3192L17.2948 74.1698C16.8739 74.8158 16.5604 75.784 16.293 76.5194C15.0399 79.9691 14.8401 82.3553 15.4629 85.9163L15.532 86.0467L15.6242 86.0101C15.2884 80.0965 15.543 80.0569 17.3228 74.3192Z" fill="#C4AA84"/>
<path d="M19.6484 209.542C19.7454 208.948 19.7437 207.596 19.7583 206.959C19.9024 200.674 17.7282 195.203 15.4931 189.47C14.8297 191.455 13.5995 193.383 12.8011 195.411C12.5699 196.029 12.3593 196.655 12.1699 197.287C9.87146 205.156 14.9588 208.795 18.1927 214.694C18.906 212.789 19.3596 211.56 19.6484 209.542Z" fill="#EC2861"/>
<path d="M17.5244 208.152C17.4457 207.604 16.759 205.361 16.5684 204.751C15.4462 201.164 15.2815 199.2 15.6671 195.517C15.5798 195.698 15.5081 195.886 15.4527 196.078C14.4272 199.607 15.8165 205.072 17.5244 208.152Z" fill="#C4AA84"/>
<path d="M33.1807 144.285C34.3997 143.814 35.2101 142.51 35.5815 141.307C35.1025 140.387 34.4359 139.092 33.3769 138.742C33.219 138.364 33.2814 138.352 32.9964 138.138C31.5699 136.94 29.1536 135.676 27.2906 135.558C27.2736 135.293 27.2218 135.009 27.356 134.786C27.5751 134.66 27.7733 134.501 27.943 134.313C29.4605 132.642 29.7152 130.626 27.9684 129.037L27.7028 128.778C26.4796 127.84 23.5396 127.711 22.3568 128.631C22.037 128.578 22.0898 128.537 21.8453 128.66C17.6573 130.628 14.1459 133.836 11.4319 137.596C10.4676 138.932 10.3669 139.465 10.0928 141.012L10.0267 141.318L10.252 141.564L10.4896 141.654L10.2068 141.931C10.0406 143.121 10.8488 144.641 11.5574 145.541C14.3215 149.048 17.6062 152.295 21.7222 154.158C21.8879 154.254 22.1093 154.203 22.3137 154.185C23.7606 155.243 26.0991 154.915 27.5936 154.102C27.673 153.948 27.7746 153.934 27.9518 153.839C29.7684 151.892 29.5993 149.878 27.553 148.114L27.2538 147.852C26.9463 147.734 26.27 147.452 25.9805 147.384L25.8774 146.871C28.3692 147.636 30.7839 146.455 32.7612 144.929L32.982 144.906C33.0929 144.683 33.122 144.524 33.1807 144.285Z" fill="#C01E25"/>
<path d="M33.3769 138.742C33.219 138.364 33.2815 138.352 32.9964 138.138C31.5699 136.94 29.1536 135.676 27.2906 135.558C27.2736 135.293 27.2219 135.009 27.356 134.786C27.5751 134.66 27.7733 134.501 27.943 134.313C29.4605 132.642 29.7153 130.626 27.9684 129.037L27.7028 128.778C26.4796 127.84 23.5396 127.711 22.3569 128.631C22.037 128.578 22.0898 128.537 21.8453 128.66C17.6573 130.628 14.146 133.836 11.432 137.596C10.4676 138.932 10.3669 139.465 10.0928 141.012L10.0267 141.318L10.252 141.564C10.5436 141.182 24.0154 136.743 25.5657 136.213C27.8713 137.029 31.0528 138.097 33.3769 138.742Z" fill="#F4E3E6"/>
<path d="M10.0928 141.012C11.8079 140.095 16.2951 136.871 17.4946 135.421C17.9442 134.877 21.8117 128.915 21.8453 128.66C17.6573 130.628 14.146 133.836 11.432 137.596C10.4676 138.932 10.3669 139.465 10.0928 141.012Z" fill="#C01E25"/>
<path d="M18.0466 135.419C22.2872 132.995 24.0038 131.866 27.7028 128.778C26.4796 127.84 23.5396 127.711 22.3569 128.631C21.5223 130.242 19.12 133.748 18.0466 135.419Z" fill="#C01E25"/>
<path d="M27.356 134.786C27.5751 134.66 27.7733 134.501 27.943 134.313C29.4605 132.642 29.7153 130.626 27.9684 129.037C26.6941 130.128 25.4134 131.211 24.1266 132.286C24.8064 132.785 26.8899 134.256 27.356 134.786Z" fill="#C01E25"/>
<path d="M32.9964 138.138C31.5699 136.94 29.1536 135.676 27.2906 135.558C26.9864 135.693 26.5134 135.831 26.385 136.076C27.6019 136.493 31.9255 137.955 32.9964 138.138Z" fill="#C01E25"/>
<path d="M27.1081 135.132C26.8582 134.687 24.2858 132.964 23.7729 132.613C20.5591 134.261 16.6345 137.061 13.6299 139.136L12.1386 140.211C17.1402 138.553 22.1302 136.859 27.1081 135.132Z" fill="#C01E25"/>
<path d="M32.7613 144.929L32.982 144.906C33.093 144.683 33.122 144.524 33.1808 144.285C30.5381 145.056 27.8186 145.921 25.1808 146.645C20.6272 145.079 14.8255 143.317 10.4896 141.653L10.2068 141.931C10.0406 143.121 10.8488 144.641 11.5574 145.541C14.3215 149.048 17.6062 152.295 21.7222 154.158C21.8879 154.254 22.1093 154.203 22.3137 154.185C23.7606 155.243 26.0991 154.915 27.5936 154.102C27.673 153.948 27.7746 153.934 27.9518 153.839C29.7684 151.892 29.5993 149.878 27.553 148.114L27.2538 147.852C26.9463 147.734 26.27 147.452 25.9805 147.384L25.8774 146.871C28.3692 147.636 30.7839 146.455 32.7613 144.929Z" fill="#F4E3E6"/>
<path d="M21.7222 154.158C21.6817 153.939 18.005 148.155 17.6021 147.628C16.4589 146.134 11.9133 142.941 10.2069 141.931C10.0406 143.121 10.8489 144.641 11.5574 145.541C14.3215 149.048 17.6062 152.295 21.7222 154.158Z" fill="#C01E25"/>
<path d="M27.2538 147.852C26.9463 147.734 26.27 147.452 25.9805 147.384C25.5809 147.224 25.1625 147.105 24.7516 146.977C20.4909 145.645 16.3326 144.007 12.0719 142.677C15.1227 145.104 20.3385 148.386 23.7119 150.316C24.9017 149.561 26.1019 148.675 27.2538 147.852Z" fill="#C01E25"/>
<path d="M27.5936 154.102C24.155 151.036 22.0012 149.796 18.0935 147.528C19.3853 149.643 21.1551 152.179 22.3137 154.185C23.7606 155.243 26.0991 154.915 27.5936 154.102Z" fill="#C01E25"/>
<path d="M27.9518 153.839C29.7685 151.892 29.5993 149.878 27.553 148.114L24.1555 150.613C25.2712 151.671 26.7488 152.845 27.9518 153.839Z" fill="#C01E25"/>
<path d="M25.8775 146.871C28.3693 147.636 30.784 146.455 32.7613 144.929C31.5123 145.121 27.2757 146.441 25.8775 146.871Z" fill="#C01E25"/>
<path d="M5.19675 135.163C5.15937 133.847 5.18649 132.913 4.54449 131.697C3.73422 130.163 2.27315 129.525 0.684696 130.401C-1.86616 133.445 3.40193 134.534 5.19675 135.163Z" fill="#C01E25"/>
<path d="M5.13297 149.21L5.19351 147.653C2.87995 148.626 0.641301 148.142 0.0607109 151.21C0.685271 154.319 4.75934 152.71 5.13297 149.21Z" fill="#C01E25"/>
<path d="M25.7586 276.954C25.3315 277.216 24.5074 277.993 24.3188 278L24.2531 277.795L24.6774 277.166C23.1057 278.388 20.1811 280.131 18.4399 278.131C17.6723 277.249 17.7262 275.892 17.7005 274.78C18.7788 272.52 20.8846 271.922 22.4968 274.034L22.7771 273.707C21.9939 272.379 21.1287 271.854 19.5606 272.19C14.9096 273.188 16.4595 280.845 21.3221 279.793C23.2736 279.371 24.5968 278.581 25.7586 276.954Z" fill="#C4AA84"/>
<path d="M22.5403 6.31525C22.6897 5.7132 22.9572 4.47687 22.2588 4.11505C22.1727 4.99982 22.4808 5.26935 22.2831 6.23761L22.5403 6.31525Z" fill="#C4AA84"/>
<path d="M22.4968 274.034C22.3998 274.529 22.0136 275.688 22.2019 276.073L22.1894 276.08C22.6506 275.38 22.7469 274.517 22.7771 273.707L22.4968 274.034Z" fill="#C4AA84"/>
</svg>
