<svg width="34" height="39" viewBox="0 0 34 39" fill="none" xmlns="http://www.w3.org/2000/svg">
<path d="M22.0392 20.0176C21.5822 19.4071 20.8146 18.6424 20.3008 17.9859C17.912 14.9333 16.1749 11.6925 16.713 7.65936C16.9455 5.91633 17.872 4.13891 19.2695 3.07234C20.5848 2.08565 22.2302 1.66017 23.8522 1.88718C25.3963 2.11099 26.8271 3.00634 27.755 4.26832C28.6096 5.44098 28.9708 6.90811 28.7597 8.34929C28.5879 9.52832 27.9681 10.6872 26.9782 11.4682C24.4226 13.4844 20.4796 12.0341 20.7822 8.49137C20.8387 7.82896 21.3126 7.13138 21.8238 6.76262C22.8325 5.90821 24.7144 6.59629 24.4229 8.04068C24.3595 8.34589 24.1772 8.61235 23.9171 8.77983C23.3983 9.1184 22.5586 9.04107 22.2121 8.48328C21.9166 8.00759 22.0775 7.46229 22.2887 6.99112C21.698 7.56199 21.3223 8.00597 21.293 8.88862C21.2076 10.5388 22.6782 11.8389 24.2726 11.8343C26.6546 11.8273 28.2391 9.90125 28.2426 7.55869C28.2471 4.59354 25.7936 2.44308 22.9544 2.40626C21.4594 2.38685 20.0434 3.00984 19.0203 4.10639C17.5866 5.52096 17.1843 7.28703 17.1767 9.26074C17.1649 12.3049 18.6469 14.8813 20.4022 17.2385C21.4257 18.613 22.4485 19.7278 23.6123 20.9609C25.2796 22.7274 26.9959 24.6309 27.952 26.8957C28.5913 28.3862 28.9489 29.6513 28.7786 31.314C28.546 34.6683 25.8536 37.3831 22.5014 37.3959C19.5567 37.407 16.9083 35.0379 16.9403 31.9939C16.9538 30.6984 17.3784 29.6439 18.2859 28.7372C19.0906 27.9175 20.1892 27.4624 21.3312 27.4758C22.2638 27.4839 23.248 27.9034 23.8999 28.5799C24.8958 29.6132 25.1341 31.5488 24.0509 32.6148C23.3422 33.3125 22.0782 33.4722 21.3636 32.7027C20.9004 32.2007 20.8711 31.377 21.393 30.9073C21.6598 30.6698 22.0095 30.5505 22.3639 30.5765C23.4312 30.6469 23.6248 31.5872 23.2715 32.4615C23.7118 32.1502 24.1369 31.7496 24.2172 31.1836C24.4333 29.6597 23.3085 28.3201 21.8571 28.0856C19.7381 27.7437 17.8741 29.2686 17.5563 31.3766C17.3893 32.5538 17.6818 33.7509 18.3719 34.7138C20.1951 37.2083 23.4935 37.3996 25.8762 35.5982C27.1231 34.6524 27.9463 33.2431 28.1638 31.6822C28.4839 29.4131 27.7244 27.1925 26.4192 25.3331C25.9969 24.7313 24.9772 24.2815 24.3683 23.8712C22.9292 22.9891 20.6767 21.7254 19.0486 21.3763C18.2003 21.1947 16.2634 21.5697 15.5491 22.2004C14.7567 22.8345 14.7082 23.9635 14.3496 24.8661C14.0645 25.5834 13.6398 26.4418 13.0441 26.9715C12.2915 27.6402 11.0325 28.3521 10.0896 28.713C9.41327 28.9721 8.48271 29.0502 7.7787 29.2382L7.64474 29.2551C7.41849 29.1597 7.485 28.9525 7.52307 28.7467C7.703 27.6062 7.91776 26.5729 8.58586 25.6056C8.76475 25.3465 8.97815 25.1552 9.17586 24.9065C9.16254 24.8863 9.12707 24.8516 9.11065 24.8344L8.98101 24.8358C8.84739 24.8459 8.79856 24.8516 8.75213 24.7179C8.78527 24.5393 9.06062 24.1272 9.17443 23.9672C10.1115 22.6519 11.5489 21.9646 13.125 21.8275C13.6907 21.7779 14.3291 21.8241 14.8851 21.725C15.2448 21.661 15.7004 21.4033 16.0545 21.2618C16.5437 21.0667 16.9674 20.9784 17.4839 20.8956C16.1106 20.4269 13.524 20.247 12.0545 20.3703C11.685 20.4013 11.0215 20.5839 10.6587 20.6995C9.43465 21.0896 8.15474 21.6735 6.88111 21.8406C5.61668 22.0064 4.12054 21.7638 3.08979 20.9596C3.00975 20.8972 2.91726 20.8171 2.90563 20.7126L3.00486 20.5971L2.994 20.5522C2.1085 20.1624 1.47213 19.6433 0.714697 19.304C0.512661 19.2201 0.0725339 19.09 0 18.8973C0.0379322 18.8115 0.0897347 18.7962 0.175063 18.749C0.65832 18.5165 1.11384 18.2212 1.58216 17.957C2.55774 17.4068 3.24243 17.417 4.28724 17.315C4.85645 16.3217 7.71322 17.7901 8.42109 18.1859C9.31435 18.6854 10.0295 19.3346 11.059 19.5634C12.1997 19.9785 13.3268 19.7787 14.5077 19.8643C16.0128 19.9761 17.4238 20.3899 18.8689 20.7598C20.4819 21.1728 21.7691 21.7769 23.2428 22.5414C23.497 22.6735 25.1599 23.6997 25.2415 23.7044C25.0598 23.2614 24.4405 22.7685 24.1428 22.4026C23.1587 21.1934 21.9653 20.6628 20.6695 19.9007C19.6474 19.2993 18.6327 18.4099 17.547 17.8882C17.3761 17.7998 17.1138 17.7909 16.9263 17.8001C14.2641 17.9314 11.0169 17.2208 9.49787 14.7917C9.45983 14.7308 9.45913 14.6858 9.47256 14.6195C9.65571 14.5465 10.1247 14.6801 10.3305 14.7251C10.3031 14.6494 9.72909 14.2197 9.61418 14.0991C8.8259 13.271 8.46739 12.3062 8.23391 11.1988C8.16496 10.872 8.07307 10.5014 8.07393 10.1712C8.80132 10.2026 10.7314 10.9902 11.4582 11.3302C11.6427 11.4165 12.1623 11.8229 12.3 11.7716C12.3484 11.6581 12.3505 11.5955 12.3646 11.4754C13.5823 11.7072 14.7381 12.6762 15.4639 13.6861C16.0371 14.4838 16.4228 15.8852 16.7965 16.4224C17.4679 17.3878 20.0762 18.735 21.1393 19.4354C21.3735 19.5897 21.8248 19.8973 22.0392 20.0176Z" fill="#C4AA84"/>
<path d="M8.98101 24.8358C9.08762 24.7906 9.2429 24.737 9.29666 24.635C9.82064 23.639 10.3338 23.1842 11.3557 22.7142C12.5528 22.1634 13.7432 22.3551 15.002 22.065C13.8662 22.6974 12.923 23.6323 11.9282 24.4486C11.8698 24.4965 11.7471 24.5635 11.6765 24.6087L11.7495 24.6697C11.7043 24.7529 11.6568 24.7505 11.6019 24.8108L11.6486 24.8856C11.5918 25.0244 11.1551 25.4624 11.0144 25.6511C10.7561 25.9978 10.5901 26.3795 10.3608 26.7188C10.3402 26.8246 10.3194 26.8822 10.3456 26.9866C10.704 26.2646 12.9889 23.4288 13.6737 23.3048C13.7239 23.4025 13.055 24.5143 12.9647 24.8294C13.3647 24.2263 14.125 23.0777 14.6201 22.5528C13.9487 24.8172 13.6595 26.4934 11.3422 27.5176C11.3935 26.7403 11.6685 26.0423 11.754 25.2801C11.6289 25.4981 11.0382 27.5274 10.9984 27.7972C9.97682 28.3798 9.14062 28.5486 7.98487 28.7456C8.10824 27.7807 8.42539 26.4914 9.01912 25.7013C9.1198 25.5675 9.3317 25.0393 9.26366 24.8873L9.17586 24.9065C9.16254 24.8863 9.12706 24.8516 9.11064 24.8344L8.98101 24.8358Z" fill="#FCD5D3"/>
<path d="M8.91423 26.243C9.46053 25.1841 10.6301 25.0049 11.6765 24.6087L11.7495 24.6697C11.7043 24.7529 11.6568 24.7505 11.6019 24.8108C11.4338 24.8937 10.9758 25.0544 10.7811 25.1154C9.88922 25.3954 9.57774 25.6262 8.91423 26.243Z" fill="#B6A586"/>
<path d="M10.3608 26.7188C10.3402 26.8246 10.3194 26.8822 10.3456 26.9866C10.2801 27.1345 10.1799 27.2828 10.0925 27.4209C10.1492 27.1975 10.2483 26.9186 10.3608 26.7188Z" fill="#C2B79F"/>
<path d="M0.714697 19.304C0.512661 19.2201 0.0725339 19.09 0 18.8973C0.0379322 18.8115 0.0897346 18.7962 0.175063 18.749C0.264605 18.8178 0.346371 18.87 0.41023 18.9627L0.343632 19.0526C0.510479 19.1308 0.602614 19.1594 0.714697 19.304Z" fill="#C2B79F"/>
<path d="M7.7787 29.2382L7.64474 29.2551C7.41848 29.1597 7.485 28.9525 7.52307 28.7467L7.53483 28.7622C7.63291 28.8885 7.75415 28.9266 7.75355 29.118C7.75342 29.1651 7.75841 29.1958 7.7787 29.2382Z" fill="#C2B79F"/>
<path d="M4.68512 17.5716C5.70215 16.7933 7.66469 19.0163 8.42262 19.6247C6.97853 19.5449 5.63097 19.2888 4.23575 18.9206C3.9535 18.8458 3.42699 18.8417 3.12156 18.8182L3.11037 18.8356C3.92013 18.991 5.40105 19.435 6.25438 19.6803C4.50876 20.2504 4.62184 20.9603 2.71565 19.9108C2.41546 19.7457 1.01342 18.9812 0.74736 18.8812C1.50159 18.4242 2.2826 17.9674 3.1551 17.7906C3.5325 17.7141 4.1657 17.5868 4.53271 17.7173C4.72785 17.8227 5.1735 18.1831 5.26856 18.1871C5.14073 17.9685 4.8764 17.7377 4.68512 17.5716Z" fill="#EC2861"/>
<path d="M8.69624 10.858C10.1047 11.0682 11.2162 11.6977 12.4921 12.2696C13.4341 12.6919 13.2675 13.2526 13.5425 14.1443C13.6144 14.3774 13.6986 14.6187 13.7827 14.8483C12.7427 14.3345 11.9578 13.5322 11.0613 12.8902C10.8226 12.7288 10.7539 12.6792 10.4873 12.5571C11.3704 13.3812 12.1631 14.0009 13.1142 14.7206C11.7979 14.7423 11.0987 14.9517 10.0909 13.9711C9.3288 13.2297 8.72662 11.9128 8.69624 10.858Z" fill="#FCD5D3"/>
<path d="M6.61732 19.8198C7.37822 19.8019 8.12286 19.9316 8.87623 19.9775C9.61911 20.0229 10.4772 19.9394 11.2084 20.0469C10.7597 20.2386 10.1918 20.3656 9.72442 20.5378C8.97715 20.8134 8.33263 21.0772 7.54875 21.2554C6.35237 21.4666 5.3068 21.5906 4.16674 21.0947C3.9616 21.0054 3.57027 20.7773 3.37593 20.7918L3.34682 20.751C3.46306 20.6698 4.11374 20.7301 4.29413 20.6681C5.11591 20.3848 5.74305 19.9775 6.61732 19.8198Z" fill="#EC2861"/>
<path d="M10.8614 14.9441L10.8883 14.9422C11.2527 14.9195 13.032 14.9493 13.3252 15.0265C13.7997 15.1515 15.2069 16.1019 15.6001 16.4497C15.3755 16.4946 15.0186 16.6156 14.7888 16.6868C13.2466 17.0937 12.1895 16.7116 10.9418 15.7252C10.6717 15.5117 10.4237 15.2029 10.1692 14.958C10.4247 14.9644 10.6065 14.9603 10.8614 14.9441Z" fill="#FCD5D3"/>
<path d="M13.1893 12.3179C13.2534 12.3229 13.3154 12.3352 13.3722 12.3636C14.722 13.0362 15.3794 14.4531 15.9883 15.7597C16.1285 16.0606 16.3938 16.3516 16.5088 16.6543C16.351 16.609 15.545 16.0607 15.3703 15.9541C14.1432 15.206 13.8506 14.8401 13.5757 13.4102C13.5042 13.0388 13.3807 12.6615 13.1893 12.3179Z" fill="#FCD5D3"/>
<path d="M13.9402 17.0952C14.1718 17.0596 14.8432 16.9678 15.0372 16.915C15.9105 16.6776 16.08 16.6886 16.8462 17.258C16.926 17.3174 17.005 17.3778 17.0833 17.4393C16.9785 17.4185 16.8545 17.3958 16.7478 17.3899C15.8239 17.3391 14.9016 17.2498 13.9786 17.192L13.9402 17.0952Z" fill="#FCD5D3"/>
<path d="M7.3172 18.0981C7.7317 18.2752 9.71956 19.3596 9.86121 19.6352C8.63266 19.4923 8.54493 19.6274 7.72388 18.5302C7.6089 18.3765 7.36882 18.3007 7.3172 18.0981Z" fill="#EC2861"/>
<path d="M13.9786 17.192C13.8642 17.1923 13.7893 17.1992 13.6793 17.1611C13.7286 17.1056 13.8477 17.1086 13.9402 17.0952L13.9786 17.192Z" fill="#C2B79F"/>
<path d="M29.4017 33.5844C29.445 33.6215 29.5481 33.7926 29.5958 33.857C29.8568 34.2101 30.0614 34.4577 30.4155 34.7228C31.0851 35.2245 31.9113 35.3599 32.5728 35.8212C32.9551 36.0873 33.2675 36.6978 33.3248 37.1547C33.3708 37.5199 33.2712 37.8255 33.0444 38.1136C32.241 38.8221 30.7337 38.0233 30.1881 37.2841C29.427 36.2524 29.253 34.8226 29.4017 33.5844Z" fill="#B1101E"/>
<path d="M32.0002 0.0144798C32.0948 0.00784201 32.1897 0.0031584 32.2843 0.000396098C32.9082 -0.014225 33.3501 0.376865 33.3511 1.01902C33.3508 1.34741 33.2629 1.66964 33.097 1.95197C32.4748 2.99795 31.277 2.8704 30.4156 3.57249C30.2709 3.69048 30.1429 3.81831 30.0111 3.95071C29.755 4.24053 29.5374 4.48489 29.3531 4.82753C29.347 3.48543 29.2833 2.45101 30.0533 1.25217C30.5089 0.542861 31.1958 0.169629 32.0002 0.0144798Z" fill="#B1101E"/>
</svg>
