<svg width="34" height="39" viewBox="0 0 34 39" fill="none" xmlns="http://www.w3.org/2000/svg">
<path d="M11.3119 20.0176C11.769 19.4071 12.5365 18.6424 13.0503 17.9859C15.4391 14.9333 17.1762 11.6925 16.6382 7.65936C16.4056 5.91633 15.4791 4.13891 14.0817 3.07234C12.7663 2.08565 11.1209 1.66017 9.49889 1.88718C7.95482 2.11099 6.52409 3.00634 5.59619 4.26832C4.74154 5.44098 4.38032 6.90811 4.59145 8.34929C4.76322 9.52832 5.38299 10.6872 6.37291 11.4682C8.92851 13.4844 12.8715 12.0341 12.569 8.49137C12.5124 7.82896 12.0385 7.13138 11.5274 6.76262C10.5187 5.90821 8.63674 6.59629 8.92825 8.04068C8.9916 8.34589 9.17395 8.61235 9.43401 8.77983C9.9528 9.1184 10.7926 9.04107 11.1391 8.48328C11.4345 8.00759 11.2736 7.46229 11.0624 6.99112C11.6531 7.56199 12.0289 8.00597 12.0581 8.88862C12.1435 10.5388 10.6729 11.8389 9.07849 11.8343C6.69655 11.8273 5.11201 9.90125 5.10851 7.55869C5.10408 4.59354 7.55757 2.44308 10.3968 2.40626C11.8918 2.38685 13.3077 3.00984 14.3309 4.10639C15.7646 5.52096 16.1668 7.28703 16.1745 9.26074C16.1863 12.3049 14.7042 14.8813 12.9489 17.2385C11.9255 18.613 10.9026 19.7278 9.73887 20.9609C8.07153 22.7274 6.35529 24.6309 5.39912 26.8957C4.75986 28.3862 4.4022 29.6513 4.5725 31.314C4.80512 34.6683 7.49758 37.3831 10.8498 37.3959C13.7945 37.407 16.4428 35.0379 16.4109 31.9939C16.3973 30.6984 15.9727 29.6439 15.0652 28.7372C14.2606 27.9175 13.1619 27.4624 12.0199 27.4758C11.0873 27.4839 10.1032 27.9034 9.45123 28.5799C8.45539 29.6132 8.21708 31.5488 9.30022 32.6148C10.009 33.3125 11.2729 33.4722 11.9875 32.7027C12.4507 32.2007 12.4801 31.377 11.9581 30.9073C11.6914 30.6698 11.3416 30.5505 10.9872 30.5765C9.91996 30.6469 9.72635 31.5872 10.0796 32.4615C9.63935 32.1502 9.21426 31.7496 9.13395 31.1836C8.91783 29.6597 10.0426 28.3201 11.494 28.0856C13.6131 27.7437 15.4771 29.2686 15.7949 31.3766C15.9618 32.5538 15.6693 33.7509 14.9792 34.7138C13.1561 37.2083 9.85761 37.3996 7.47497 35.5982C6.22806 34.6524 5.40488 33.2431 5.18735 31.6822C4.86724 29.4131 5.62677 27.1925 6.93197 25.3331C7.35427 24.7313 8.37393 24.2815 8.98281 23.8712C10.4219 22.9891 12.6744 21.7254 14.3026 21.3763C15.1508 21.1947 17.0877 21.5697 17.8021 22.2004C18.5944 22.8345 18.643 23.9635 19.0015 24.8661C19.2866 25.5834 19.7113 26.4418 20.3071 26.9715C21.0597 27.6402 22.3186 28.3521 23.2616 28.713C23.9379 28.9721 24.8684 29.0502 25.5724 29.2382L25.7064 29.2551C25.9327 29.1597 25.8661 28.9525 25.8281 28.7467C25.6481 27.6062 25.4334 26.5729 24.7653 25.6056C24.5864 25.3465 24.373 25.1552 24.1753 24.9065C24.1886 24.8863 24.2241 24.8516 24.2405 24.8344L24.3701 24.8358C24.5038 24.8459 24.5526 24.8516 24.599 24.7179C24.5659 24.5393 24.2905 24.1272 24.1767 23.9672C23.2397 22.6519 21.8022 21.9646 20.2261 21.8275C19.6604 21.7779 19.0221 21.8241 18.4661 21.725C18.1064 21.661 17.6508 21.4033 17.2966 21.2618C16.8075 21.0667 16.3837 20.9784 15.8673 20.8956C17.2405 20.4269 19.8272 20.247 21.2967 20.3703C21.6661 20.4013 22.3297 20.5839 22.6924 20.6995C23.9165 21.0896 25.1964 21.6735 26.47 21.8406C27.7345 22.0064 29.2306 21.7638 30.2614 20.9596C30.3414 20.8972 30.4339 20.8171 30.4455 20.7126L30.3463 20.5971L30.3571 20.5522C31.2426 20.1624 31.879 19.6433 32.6364 19.304C32.8385 19.2201 33.2786 19.09 33.3511 18.8973C33.3132 18.8115 33.2614 18.7962 33.1761 18.749C32.6928 18.5165 32.2373 18.2212 31.769 17.957C30.7934 17.4068 30.1087 17.417 29.0639 17.315C28.4947 16.3217 25.6379 17.7901 24.9301 18.1859C24.0368 18.6854 23.3216 19.3346 22.2921 19.5634C21.1515 19.9785 20.0243 19.7787 18.8435 19.8643C17.3384 19.9761 15.9273 20.3899 14.4822 20.7598C12.8692 21.1728 11.582 21.7769 10.1083 22.5414C9.85419 22.6735 8.19127 23.6997 8.1096 23.7044C8.29136 23.2614 8.9106 22.7685 9.20833 22.4026C10.1925 21.1934 11.3859 20.6628 12.6816 19.9007C13.7037 19.2993 14.7184 18.4099 15.8042 17.8882C15.9751 17.7998 16.2374 17.7909 16.4248 17.8001C19.087 17.9314 22.3342 17.2208 23.8533 14.7917C23.8913 14.7308 23.892 14.6858 23.8786 14.6195C23.6954 14.5465 23.2265 14.6801 23.0206 14.7251C23.0481 14.6494 23.6221 14.2197 23.737 14.0991C24.5252 13.271 24.8838 12.3062 25.1172 11.1988C25.1862 10.872 25.2781 10.5014 25.2772 10.1712C24.5498 10.2026 22.6198 10.9902 21.893 11.3302C21.7084 11.4165 21.1888 11.8229 21.0511 11.7716C21.0027 11.6581 21.0006 11.5955 20.9865 11.4754C19.7688 11.7072 18.613 12.6762 17.8872 13.6861C17.314 14.4838 16.9283 15.8852 16.5547 16.4224C15.8832 17.3878 13.275 18.735 12.2119 19.4354C11.9776 19.5897 11.5263 19.8973 11.3119 20.0176Z" fill="#B6A586"/>
<path d="M24.3701 24.8358C24.2635 24.7906 24.1082 24.737 24.0545 24.635C23.5305 23.639 23.0173 23.1842 21.9954 22.7142C20.7983 22.1634 19.608 22.3551 18.3491 22.065C19.485 22.6974 20.4281 23.6323 21.423 24.4486C21.4814 24.4965 21.6041 24.5635 21.6746 24.6087L21.6017 24.6697C21.6468 24.7529 21.6943 24.7505 21.7493 24.8108L21.7025 24.8856C21.7593 25.0244 22.1961 25.4624 22.3367 25.6511C22.595 25.9978 22.761 26.3795 22.9904 26.7188C23.011 26.8246 23.0318 26.8822 23.0055 26.9866C22.6472 26.2646 20.3622 23.4288 19.6775 23.3048C19.6272 23.4025 20.2961 24.5143 20.3865 24.8294C19.9864 24.2263 19.2262 23.0777 18.731 22.5528C19.4025 24.8172 19.6916 26.4934 22.0089 27.5176C21.9576 26.7403 21.6827 26.0423 21.5972 25.2801C21.7222 25.4981 22.3129 27.5274 22.3528 27.7972C23.3743 28.3798 24.2105 28.5486 25.3663 28.7456C25.2429 27.7807 24.9258 26.4914 24.332 25.7013C24.2313 25.5675 24.0194 25.0393 24.0875 24.8873L24.1753 24.9065C24.1886 24.8863 24.2241 24.8516 24.2405 24.8344L24.3701 24.8358Z" fill="#FCD5D3"/>
<path d="M24.4369 26.243C23.8906 25.1841 22.721 25.0049 21.6746 24.6087L21.6017 24.6697C21.6468 24.7529 21.6943 24.7505 21.7493 24.8108C21.9173 24.8937 22.3753 25.0544 22.5701 25.1154C23.4619 25.3954 23.7734 25.6262 24.4369 26.243Z" fill="#B6A586"/>
<path d="M22.9904 26.7188C23.011 26.8246 23.0318 26.8822 23.0055 26.9866C23.071 27.1345 23.1713 27.2828 23.2587 27.4209C23.202 27.1975 23.1029 26.9186 22.9904 26.7188Z" fill="#C2B79F"/>
<path d="M32.6364 19.304C32.8385 19.2201 33.2786 19.09 33.3511 18.8973C33.3132 18.8115 33.2614 18.7962 33.1761 18.749C33.0865 18.8178 33.0048 18.87 32.9409 18.9627L33.0075 19.0526C32.8407 19.1308 32.7485 19.1594 32.6364 19.304Z" fill="#C2B79F"/>
<path d="M25.5724 29.2382L25.7064 29.2551C25.9327 29.1597 25.8661 28.9525 25.8281 28.7467L25.8163 28.7622C25.7182 28.8885 25.597 28.9266 25.5976 29.118C25.5977 29.1651 25.5927 29.1958 25.5724 29.2382Z" fill="#C2B79F"/>
<path d="M28.666 17.5716C27.649 16.7933 25.6865 19.0163 24.9285 19.6247C26.3726 19.5449 27.7202 19.2888 29.1154 18.9206C29.3976 18.8458 29.9242 18.8417 30.2296 18.8182L30.2408 18.8356C29.431 18.991 27.9501 19.435 27.0968 19.6803C28.8424 20.2504 28.7293 20.9603 30.6355 19.9108C30.9357 19.7457 32.3377 18.9812 32.6038 18.8812C31.8495 18.4242 31.0685 17.9674 30.196 17.7906C29.8186 17.7141 29.1854 17.5868 28.8184 17.7173C28.6233 17.8227 28.1776 18.1831 28.0826 18.1871C28.2104 17.9685 28.4747 17.7377 28.666 17.5716Z" fill="#EC2861"/>
<path d="M24.6549 10.858C23.2465 11.0682 22.135 11.6977 20.859 12.2696C19.917 12.6919 20.0837 13.2526 19.8086 14.1443C19.7368 14.3774 19.6526 14.6187 19.5684 14.8483C20.6084 14.3345 21.3933 13.5322 22.2899 12.8902C22.5285 12.7288 22.5973 12.6792 22.8638 12.5571C21.9807 13.3812 21.1881 14.0009 20.237 14.7206C21.5532 14.7423 22.2524 14.9517 23.2602 13.9711C24.0223 13.2297 24.6245 11.9128 24.6549 10.858Z" fill="#FCD5D3"/>
<path d="M26.7338 19.8198C25.9729 19.8019 25.2283 19.9316 24.4749 19.9775C23.732 20.0229 22.8739 19.9394 22.1428 20.0469C22.5915 20.2386 23.1594 20.3656 23.6267 20.5378C24.374 20.8134 25.0185 21.0772 25.8024 21.2554C26.9988 21.4666 28.0443 21.5906 29.1844 21.0947C29.3895 21.0054 29.7809 20.7773 29.9752 20.7918L30.0043 20.751C29.8881 20.6698 29.2374 20.7301 29.057 20.6681C28.2352 20.3848 27.6081 19.9775 26.7338 19.8198Z" fill="#EC2861"/>
<path d="M22.4897 14.9441L22.4628 14.9422C22.0984 14.9195 20.3191 14.9493 20.0259 15.0265C19.5514 15.1515 18.1442 16.1019 17.751 16.4497C17.9756 16.4946 18.3326 16.6156 18.5623 16.6868C20.1046 17.0937 21.1616 16.7116 22.4093 15.7252C22.6794 15.5117 22.9274 15.2029 23.1819 14.958C22.9264 14.9644 22.7446 14.9603 22.4897 14.9441Z" fill="#FCD5D3"/>
<path d="M20.1618 12.3179C20.0977 12.3229 20.0358 12.3352 19.9789 12.3636C18.6292 13.0362 17.9717 14.4531 17.3629 15.7597C17.2226 16.0606 16.9573 16.3516 16.8423 16.6543C17.0001 16.609 17.8061 16.0607 17.9809 15.9541C19.2079 15.206 19.5005 14.8401 19.7755 13.4102C19.8469 13.0388 19.9705 12.6615 20.1618 12.3179Z" fill="#FCD5D3"/>
<path d="M19.411 17.0952C19.1794 17.0596 18.508 16.9678 18.314 16.915C17.4406 16.6776 17.2711 16.6886 16.5049 17.258C16.4251 17.3174 16.3461 17.3778 16.2679 17.4393C16.3727 17.4185 16.4966 17.3958 16.6033 17.3899C17.5272 17.3391 18.4495 17.2498 19.3725 17.192L19.411 17.0952Z" fill="#FCD5D3"/>
<path d="M26.0339 18.0981C25.6194 18.2752 23.6316 19.3596 23.4899 19.6352C24.7185 19.4923 24.8062 19.6274 25.6273 18.5302C25.7422 18.3765 25.9823 18.3007 26.0339 18.0981Z" fill="#EC2861"/>
<path d="M19.3725 17.192C19.487 17.1923 19.5618 17.1992 19.6719 17.1611C19.6225 17.1056 19.5035 17.1086 19.411 17.0952L19.3725 17.192Z" fill="#C2B79F"/>
<path d="M3.94943 33.5844C3.90617 33.6215 3.80309 33.7926 3.75539 33.857C3.49436 34.2101 3.28976 34.4577 2.93567 34.7228C2.26604 35.2245 1.43986 35.3599 0.778385 35.8212C0.396021 36.0873 0.0836043 36.6978 0.026316 37.1547C-0.0196482 37.5199 0.0799387 37.8255 0.306759 38.1136C1.11012 38.8221 2.61739 38.0233 3.16303 37.2841C3.92416 36.2524 4.09815 34.8226 3.94943 33.5844Z" fill="#B1101E"/>
<path d="M1.35093 0.0144798C1.25634 0.00784201 1.16141 0.0031584 1.06682 0.000396098C0.442982 -0.014225 0.000999024 0.376865 9.87258e-07 1.01902C0.000335182 1.34741 0.0882644 1.66964 0.254132 1.95197C0.876304 2.99795 2.07412 2.8704 2.9355 3.57249C3.08025 3.69048 3.20828 3.81831 3.34001 3.95071C3.59618 4.24053 3.81374 4.48489 3.99806 4.82753C4.00412 3.48543 4.06784 2.45101 3.29785 1.25217C2.84228 0.542861 2.15536 0.169629 1.35093 0.0144798Z" fill="#B1101E"/>
</svg>
