<svg width="86" height="106" viewBox="0 0 86 106" fill="none" xmlns="http://www.w3.org/2000/svg">
<path d="M0.0156471 0C2.09169 0.13811 3.87725 0.29583 5.7498 1.28117C7.22625 2.05809 7.75105 3.14813 8.63909 4.48877C8.90297 3.80366 9.10297 3.23536 9.52319 2.63101C12.6237 -1.29033 16.1299 3.11114 13.0507 4.12919C12.4908 4.03472 12.5292 4.06537 12.0384 3.59464C11.9802 4.24415 12.5332 5.30038 12.83 5.94586L12.9834 6.2117C13.4586 6.6189 13.7877 6.97718 14.4285 6.83709C16.162 -0.86803 20.8631 3.78491 19.8076 5.31198C18.5941 5.6988 15.9156 3.70921 16.2458 7.59882C16.3163 8.42892 16.9282 8.35235 17.5248 8.27173C18.333 8.67761 17.7308 8.92728 18.2618 9.39775C18.4974 9.60647 19.7937 9.71914 19.931 9.96964C20.4444 10.9065 20.7349 10.6999 21.743 10.7951C22.1362 11.1115 22.1056 11.6442 22.2217 12.2627C22.5658 12.4625 23.097 12.3169 23.5781 12.2715C23.6098 9.961 25.3194 6.03278 24.2728 3.85935C24.1028 3.50634 23.1816 3.82362 22.6548 3.74902L22.4728 3.49188C22.4575 3.13737 22.4595 2.82086 22.6647 2.51106C22.8348 2.25726 23.1043 2.08722 23.4067 2.04297C23.8955 1.96828 24.2455 2.13439 24.63 2.39964C25.7052 2.98508 26.0079 3.83311 26.196 4.9664L26.4303 5.52247L27.3973 4.07314C27.4344 4.29408 27.4838 4.58797 27.5453 4.95483C27.1787 6.21206 26.1852 7.46938 25.6025 8.63153C25.2993 9.23607 25.0659 9.99718 24.9276 10.5691C24.4356 12.0985 24.3648 14.6432 26.6639 14.3721L26.6296 14.3132L27.2375 14.2536C26.017 15.3888 25.7562 14.3539 24.9134 14.9089C24.7428 15.4123 24.6893 15.2989 24.8518 15.6617L25.3106 15.8631C25.2961 16.221 25.2219 16.354 25.0958 16.6821L25.174 16.938C25.5403 17.1159 25.6117 17.1118 26.0218 17.1733C26.397 17.5455 26.331 17.3769 26.4145 17.8399C26.0162 18.4474 25.7882 18.4985 25.75 19.098L26.0561 19.5433C26.5986 19.4164 26.4609 18.9721 27.0041 18.6465C27.2501 18.9737 27.1884 18.787 27.1355 19.2417C26.8026 19.6481 26.7123 19.609 26.7087 20.0126C27.0729 20.4934 27.5191 20.9451 27.4981 21.5314C27.3657 21.9301 27.2658 21.9559 26.9053 22.2187C27.0218 22.7639 27.401 22.9722 27.8688 23.4067C27.4324 23.8602 26.9837 24.2126 26.8463 24.8003C26.939 25.2736 26.9578 25.289 27.2382 25.6928C27.5437 26.2499 27.46 26.9589 27.4537 27.6103L26.9984 27.5642C26.6453 28.0729 26.6321 28.3914 26.3245 28.7752C25.7858 29.0448 25.6741 29.0898 25.0867 29.2175C24.6516 29.134 24.6359 29.1343 24.3059 28.8292C23.7182 28.4406 23.8045 28.3712 23.1868 28.3442C21.3973 29.552 21.4797 27.9534 20.6158 27.9414C19.0835 29.6076 19.5274 28.0697 18.4539 27.7189L17.938 28.1835C17.4732 28.2821 17.6659 28.2946 17.202 28.0758C16.7565 27.5385 17.0293 26.9731 16.7339 26.7248L16.3896 27.0023C15.882 26.8568 15.5518 26.7866 15.0401 26.6916L14.9447 26.0544C14.6639 25.7207 14.4599 25.7602 13.9695 25.6313L13.9935 26.6349C14.2123 27.3519 13.8643 27.8045 13.2035 28.0454C12.1129 27.8103 12.31 27.1599 11.2152 27.0025L9.95983 27.257C8.95236 27.6925 8.5462 28.197 7.73773 28.9307C7.51791 29.604 6.95798 31.2014 7.33731 31.7706C7.80774 32.4765 9.93815 34.6257 8.51039 35.2962C7.22286 35.9007 5.93675 35.1018 5.04323 34.3235C5.75573 35.992 6.05419 36.76 7.84808 37.4876C8.04556 37.5671 8.24468 37.6426 8.44531 37.7138C9.36467 37.5768 9.4662 37.4711 10.1777 38.1332C9.33874 39.3229 9.67896 39.2973 8.17611 39.963C8.06032 39.8639 8.11785 39.9036 7.97908 39.8259C6.41197 38.9485 5.48232 38.2325 4.33524 36.8596C4.31367 37.0965 4.31578 37.2724 4.31547 37.5093L4.10543 37.4274C2.98093 34.8695 3.06435 32.4472 3.64139 29.7692C3.17033 29.6341 3.09675 29.6195 2.75469 29.2742C2.61191 28.0685 4.23385 26.4742 5.20512 25.8409C6.29067 25.4951 7.36705 25.1211 8.43318 24.7194L8.10521 24.4275C8.37541 24.1978 9.02634 24.2633 9.60714 23.8316C9.99058 23.6 10.6454 23.7499 10.9951 23.2739C10.605 22.6325 10.0438 23.0984 9.49301 22.3459C9.45931 21.825 9.61389 21.8006 9.97228 21.2905C10.0249 20.3284 9.51909 20.9532 8.90224 20.2531L8.98444 19.4618C8.71015 18.4623 7.59791 18.8104 8.33783 17.4553C8.46916 17.2147 7.4898 16.2923 7.28281 15.7079C7.56716 15.6991 7.62959 15.7209 7.88669 15.5946C7.77224 15.0774 7.12501 14.808 6.90944 14.3795C6.77899 14.1203 6.69416 13.5525 6.55649 13.1577C5.98607 12.7301 4.69057 12.8324 3.96886 12.8401C4.87907 16.8446 1.64046 16.0587 0.978938 14.0262C0.732208 13.251 0.813107 12.4087 1.20285 11.6948C2.02616 10.1726 3.50078 9.71312 5.01721 9.27715C0.516177 7.78795 -0.117173 4.31067 0.0156471 0Z" fill="#CBA76A"/>
<path d="M3.6414 29.7692C4.03271 29.0018 4.66083 27.8388 5.13787 27.0661C5.37104 26.9573 5.56836 26.8653 5.72983 26.7899L5.43341 27.1987L5.53786 27.3384L5.93187 27.3667C5.22664 28.7019 4.73165 29.6771 4.42116 31.1831C3.87505 33.832 5.3851 37.5365 8.3188 37.9734L8.56541 37.8591L8.44532 37.7138C9.36468 37.5768 9.46621 37.4711 10.1777 38.1332C9.33875 39.3229 9.67897 39.2973 8.17612 39.963C8.06033 39.8639 8.11786 39.9036 7.97909 39.8259C6.41198 38.9485 5.48233 38.2325 4.33525 36.8596C4.31368 37.0965 4.31579 37.2724 4.31548 37.5093L4.10544 37.4274C2.98094 34.8695 3.06436 32.4472 3.6414 29.7692Z" fill="#E9C788"/>
<path d="M11.2152 27.0025L11.3138 26.9228L11.3194 26.7226C11.0223 26.642 10.7598 26.5603 10.4671 26.4652C10.5575 26.0293 10.5773 26.564 11.2605 26.0894L11.2653 25.8774C10.1464 25.7322 8.67179 26.2826 7.82587 27.0291C6.6755 28.0326 5.97761 29.4569 5.88961 30.9806C5.85147 31.6733 5.86829 32.317 6.34628 32.854C6.76413 33.0056 6.79409 33.0279 7.15655 33.2923C7.37506 33.7386 7.36449 33.5557 7.25885 33.9901C6.48496 34.3312 5.74455 33.6976 5.45306 32.9965C3.54973 28.4179 8.28211 23.8802 12.945 25.7009C13.282 25.9445 13.7856 26.5278 13.9935 26.6349C14.2123 27.3519 13.8643 27.8045 13.2035 28.0454C12.113 27.8103 12.31 27.1599 11.2152 27.0025Z" fill="#E9C788"/>
<path d="M12.9834 6.21171C13.0228 6.78209 13.3636 7.2647 13.6527 7.76412L13.5169 7.95896C12.9998 8.15441 13.1951 8.15808 12.6945 8.05803C12.5606 7.49782 13.0612 7.77558 13.024 7.1636C11.9169 6.78024 9.95837 8.01065 9.29346 6.52943L9.70679 6.7179L9.96657 6.48747L9.72086 5.62077L9.8457 5.47635C10.0743 5.66211 10.0691 5.65998 10.3402 5.77421C10.3804 4.92842 10.1386 3.81016 10.7946 3.19395C11.2464 3.09545 11.2612 3.0923 11.6964 3.2206C12.0291 4.13649 10.6627 5.07577 12.1234 6.46967L12.1894 6.42794C12.0639 6.01008 11.6347 4.8404 11.8296 4.5022C12.1113 5.04169 12.3191 5.60477 12.83 5.94591L12.9834 6.21171Z" fill="#E9C788"/>
<path d="M9.52321 2.63102C12.6237 -1.29032 16.13 3.11115 13.0507 4.1292C12.4908 4.03473 12.5292 4.06538 12.0384 3.59465C12.2898 2.94424 13.2836 2.72217 12.7943 2.00607C10.2998 1.05445 10.1478 3.47043 9.30548 3.71078C9.4038 3.3139 9.46284 3.03522 9.52321 2.63102Z" fill="#D9B575"/>
<path d="M26.4303 5.52247L26.3726 5.5867L26.2305 5.5362C26.0014 5.67511 25.668 6.72443 25.3767 7.21464L25.3329 6.96474L25.111 6.89296C24.7654 6.26853 25.6841 2.40262 23.0372 3.51489L22.7497 3.18041C22.6397 2.26103 24.0017 2.37095 24.63 2.39966C25.7052 2.9851 26.0079 3.83312 26.196 4.96641L26.4303 5.52247Z" fill="#E9C788"/>
<path d="M24.63 2.39964C25.7052 2.98508 26.0079 3.83311 26.196 4.9664C25.9483 5.03014 26.0693 5.03931 25.833 4.93756C25.7292 4.05965 25.1172 3.11402 24.63 2.39964Z" fill="#CBA76A"/>
<path d="M27.2382 25.6928C27.5437 26.2499 27.4601 26.9589 27.4538 27.6103L26.9984 27.5642C26.6453 28.0729 26.6321 28.3914 26.3245 28.7752C25.7858 29.0448 25.6741 29.0898 25.0867 29.2176C24.6516 29.1341 24.6359 29.1343 24.3059 28.8292C24.2445 28.2739 23.7357 28.2676 23.6784 27.6579C24.0066 27.4023 24.0467 27.4101 24.4653 27.3198C25.2039 27.4905 25.1351 27.9655 25.6712 28.0819C25.7886 27.6568 25.6784 27.822 25.9656 27.5418C26.1761 27.6988 26.1891 27.7429 26.4416 27.7861C26.5675 27.2189 25.891 27.5097 25.7859 26.7926C26.1348 26.2445 26.6744 26.1988 27.2382 25.6928Z" fill="#E9C788"/>
<path d="M7.73773 28.9307L7.62605 28.949C6.14458 30.3674 7.76697 32.2269 6.79503 32.9281L6.60042 32.8539C6.68146 31.9873 5.61498 30.9294 6.56974 29.3563C7.25157 28.2329 7.5429 27.6737 8.85213 27.1925L8.82957 27.2489C9.21008 27.2568 9.37082 27.2451 9.73492 27.1356L9.95983 27.257C8.95236 27.6925 8.5462 28.197 7.73773 28.9307Z" fill="#E4BF7E"/>
<path d="M2.7547 29.2742C3.90562 28.1028 3.54289 26.6466 5.89389 26.1603L5.99395 26.2985L5.72983 26.7899C5.56836 26.8653 5.37105 26.9573 5.13787 27.0661C4.66083 27.8388 4.0327 29.0018 3.64139 29.7692C3.17033 29.6341 3.09676 29.6195 2.7547 29.2742Z" fill="url(#paint0_linear_133_6145)"/>
<path d="M12.9451 25.7009L12.5076 25.2606L12.5375 24.817L12.7728 24.6121C13.4753 24.6642 13.6469 24.9645 13.9695 25.6313L13.9936 26.6349C13.7857 26.5278 13.2821 25.9445 12.9451 25.7009Z" fill="#E9C788"/>
<path d="M11.7688 8.89381C12.4661 8.92785 13.1831 8.97991 13.8775 8.93859L14.2127 9.17777C16.6907 9.22352 20.0567 11.0198 21.7354 12.8048C24.1601 15.3833 25.8886 19.5837 25.4705 23.1241C25.4391 23.7229 25.4185 24.2479 25.3282 24.8425C24.8993 26.93 24.5682 26.807 22.5468 26.8483L22.3534 26.8609C20.5943 26.9668 16.6784 26.3268 15.3801 25.174C13.0901 23.8868 11.9858 23.0678 10.5506 20.7166C8.7162 17.7111 8.00305 13.9281 8.82418 10.4853C8.82184 10.155 8.91722 9.8967 9.00572 9.5783C9.66579 8.87702 10.7751 8.96379 11.7688 8.89381Z" fill="#C81A37"/>
<path d="M11.7688 8.89381C12.4661 8.92785 13.1832 8.97991 13.8775 8.93859C13.8538 10.3754 14.2693 9.81422 15.1273 10.6067C14.3323 10.4016 14.4922 10.3174 13.8197 10.5524C13.0837 11.5404 14.187 12.2885 14.9876 12.7366C13.1984 13.5127 12.269 13.7445 12.0759 15.897C11.8686 16.9007 12.885 17.8392 13.5596 18.4546L13.8929 18.8832C14.112 19.5923 14.5309 20.8117 14.6145 21.5066L14.9851 21.8996C15.1014 22.5283 15.1996 23.1603 15.2791 23.7947C16.9606 23.6514 17.6397 23.4909 19.2516 23.9306C19.9839 24.1284 20.3401 24.0921 21.0954 24.0767C22.0032 23.777 22.2627 23.559 22.8687 22.8909C23.0566 23.1162 23.1045 23.2241 23.3499 23.3665C23.9795 24.1405 23.8989 24.4694 24.9717 24.4496L25.3282 24.8425C24.8993 26.93 24.5682 26.807 22.5468 26.8483L22.3534 26.8609C20.5943 26.9668 16.6784 26.3268 15.3801 25.174C13.0901 23.8868 11.9858 23.0678 10.5506 20.7166C8.7162 17.7111 8.00305 13.9281 8.82418 10.4853C8.82184 10.155 8.91722 9.8967 9.00572 9.5783C9.66579 8.87702 10.7751 8.96379 11.7688 8.89381Z" fill="#AA172D"/>
<path d="M11.7688 8.89381C12.466 8.92785 13.1831 8.97991 13.8775 8.93859C13.8537 10.3754 14.2693 9.81422 15.1273 10.6067C14.3323 10.4016 14.4921 10.3174 13.8196 10.5524C13.0836 11.5404 14.1869 12.2885 14.9875 12.7366C13.1984 13.5127 12.269 13.7445 12.0759 15.897C11.801 15.3912 11.0316 14.3582 10.8288 13.7242C10.5408 13.5795 10.2914 13.4541 10.0808 13.3482C10.1123 13.0241 10.0471 12.4083 10.0215 12.0609L9.22517 11.9434C8.90869 11.6511 8.88012 10.9234 8.82414 10.4853C8.8218 10.1549 8.91718 9.89669 9.00568 9.57829C9.66575 8.87701 10.7751 8.96379 11.7688 8.89381Z" fill="#981B2B"/>
<path d="M8.8242 10.4853C8.82186 10.1549 8.91724 9.89669 9.00574 9.57829C9.66581 8.87701 10.7751 8.96379 11.7688 8.89381C11.7259 9.56074 11.8367 9.39602 11.4689 9.80103C11.1666 9.86094 10.97 9.91529 10.6602 9.92627L11.2034 10.6799L11.5584 11.3877L11.5098 11.9647C10.982 12.4076 10.6938 12.2302 10.0216 12.0608L9.22523 11.9434C8.90875 11.6511 8.88018 10.9234 8.8242 10.4853Z" fill="#D4516B"/>
<path d="M8.8242 10.4853C8.82186 10.1549 8.91724 9.89669 9.00574 9.57829C9.66581 8.87701 10.7751 8.96379 11.7688 8.89381C11.7259 9.56074 11.8367 9.39602 11.4689 9.80103C11.1666 9.86094 10.97 9.91529 10.6602 9.92627C9.99109 9.77026 10.2113 9.7335 9.66069 9.91367C9.26684 10.399 9.28926 11.2635 9.22523 11.9434C8.90875 11.6511 8.88018 10.9234 8.8242 10.4853Z" fill="#802020"/>
<path d="M11.2034 10.6799C11.795 10.3025 12.1257 10.4514 12.7637 10.759L12.841 11.0116C12.3544 11.4481 12.2656 11.2465 11.5584 11.3878L11.2034 10.6799Z" fill="#AA172D"/>
<path d="M10.0809 13.3481C10.2914 13.4541 10.5408 13.5794 10.8289 13.7242C11.0316 14.3582 11.801 15.3912 12.0759 15.897C11.8686 16.9007 12.885 17.8392 13.5595 18.4546L13.8929 18.8832C14.1119 19.5923 14.5308 20.8117 14.6145 21.5066C14.1143 21.3056 13.8013 21.2025 13.3562 20.8811L12.1885 20.1777L12.0526 20.2313C11.8643 20.1919 11.6847 20.1184 11.5228 20.0145C10.7406 19.5022 10.1739 18.3523 9.97448 17.4465L10.2026 16.8479C9.61594 16.1994 9.31982 14.7333 9.83996 14.0135C10.0775 14.0757 10.1481 14.1081 10.3919 14.1104C9.99323 13.7031 10.0751 13.9082 10.0809 13.3481Z" fill="#B11D34"/>
<path d="M13.3562 20.8811L13.5458 20.5991C13.2728 20.0841 13.0555 19.7482 12.9407 19.1725C13.1342 18.6301 12.9983 18.8261 13.5596 18.4546L13.8929 18.8832C14.112 19.5923 14.5309 20.8117 14.6145 21.5066C14.1143 21.3056 13.8013 21.2025 13.3562 20.8811Z" fill="#CC3149"/>
<path d="M10.2026 16.8479C10.8715 17.444 11.835 18.6279 11.8532 19.5494C10.7295 19.3127 10.9918 18.0989 9.97449 17.4465L10.2026 16.8479Z" fill="#A41B2F"/>
<path d="M22.8687 22.8909C23.0566 23.1162 23.1045 23.2241 23.3499 23.3665C23.9795 24.1405 23.8989 24.4694 24.9717 24.4496L25.3282 24.8425C24.8993 26.93 24.5682 26.807 22.5468 26.8483L22.543 26.5421C22.6838 25.9265 22.6108 25.7608 23.0038 25.3779L23.2564 25.3376C23.2164 25.296 22.0295 24.3947 21.6513 24.0375C21.2328 24.3614 21.056 24.54 20.5289 24.6639L20.5256 24.4858L21.0954 24.0767C22.0032 23.7769 22.2627 23.559 22.8687 22.8909Z" fill="#8B1F27"/>
<path d="M24.9717 24.4496L25.3282 24.8425C24.8993 26.93 24.5682 26.807 22.5468 26.8483L22.543 26.5421C22.6838 25.9265 22.6108 25.7608 23.0038 25.3779L23.2564 25.3376C24.4023 25.2682 24.3938 25.4246 24.9717 24.4496Z" fill="#802020"/>
<path d="M22.543 26.5421C22.6838 25.9265 22.6108 25.7608 23.0038 25.3779C23.4823 25.4725 23.6122 25.4104 23.8952 25.7183C23.6385 26.1485 23.0302 26.3541 22.543 26.5421Z" fill="#821620"/>
<path d="M13.2206 22.5925C13.669 21.8475 14.2017 21.8002 14.985 21.8996C15.1014 22.5283 15.1996 23.1603 15.2791 23.7947L15.1008 23.9116C14.3944 23.5293 13.7754 23.1724 13.2206 22.5925Z" fill="#E76782"/>
<path d="M12.0526 20.2313L12.1886 20.1777L13.3562 20.8811C13.8013 21.2025 14.1143 21.3056 14.6145 21.5066L14.9851 21.8996C14.2018 21.8002 13.669 21.8475 13.2207 22.5925C12.7339 21.8687 12.4035 21.0326 12.0526 20.2313Z" fill="#D4516B"/>
<path d="M13.8775 8.9386L14.2127 9.17778C16.6907 9.22353 20.0567 11.0198 21.7354 12.8048C24.1601 15.3833 25.8886 19.5837 25.4705 23.1241C25.4391 23.7229 25.4185 24.2479 25.3282 24.8425L24.9717 24.4496C23.8989 24.4694 23.9795 24.1405 23.3499 23.3665C23.1045 23.2241 23.0566 23.1162 22.8687 22.8909C24.5738 19.8283 24.2668 19.1015 22.5572 16.0997C22.3936 15.7183 22.3544 15.6658 22.1062 15.3288C21.9553 15.0234 21.7735 14.5361 21.6382 14.2071C20.8205 13.5162 20.5087 13.3953 19.55 12.9279C19.5834 13.2381 19.6709 13.7656 19.604 14.05C18.6711 13.8789 18.6821 13.6007 17.4248 13.5735C16.9917 13.5658 15.4837 12.9283 14.9875 12.7366C14.187 12.2885 13.0837 11.5404 13.8196 10.5524C14.4922 10.3174 14.3323 10.4016 15.1273 10.6067C14.2693 9.81423 13.8538 10.3754 13.8775 8.9386Z" fill="#8B1F27"/>
<path d="M14.9875 12.7366C14.187 12.2885 13.0837 11.5404 13.8196 10.5523C14.4922 10.3174 14.3323 10.4016 15.1273 10.6067C15.5458 10.8512 16.2815 11.3073 16.6898 11.4985C17.4703 12.1108 18.5326 13.2083 19.2939 13.2485L19.55 12.9279C19.5834 13.2381 19.6709 13.7656 19.604 14.05C18.6711 13.8789 18.6821 13.6007 17.4248 13.5735C16.9917 13.5658 15.4837 12.9283 14.9875 12.7366Z" fill="#B11D34"/>
<path d="M16.2243 10.6722C17.3494 10.4977 20.2647 13.0104 21.4054 13.5771C21.5534 13.6506 21.6212 13.8087 21.6763 13.9568L21.6382 14.2071C20.8205 13.5162 20.5087 13.3953 19.55 12.9279L19.2939 13.2485C18.5326 13.2083 17.4703 12.1108 16.6898 11.4985C16.7236 11.4337 16.7329 11.2804 16.744 11.1964L16.2243 10.6722Z" fill="#A41B2F"/>
<path d="M23.3499 23.3665L23.4586 22.7715C24.513 22.1248 24.7144 22.4044 25.4705 23.1241C25.4391 23.7229 25.4185 24.2479 25.3282 24.8425L24.9717 24.4496C23.8989 24.4694 23.9795 24.1405 23.3499 23.3665Z" fill="#A41B2F"/>
<path d="M13.8775 8.93858L14.2127 9.17776C14.9717 9.93931 16.162 9.38929 16.3452 10.2623L16.0713 10.5178L16.2243 10.6722L16.744 11.1964C16.7329 11.2804 16.7236 11.4337 16.6898 11.4985C16.2814 11.3073 15.5458 10.8512 15.1273 10.6067C14.2693 9.81421 13.8538 10.3754 13.8775 8.93858Z" fill="#821620"/>
<path d="M14.9875 12.7366C15.4837 12.9283 16.9916 13.5658 17.4248 13.5735L18.3591 13.9855C18.5641 16.1656 19.3235 17.508 19.5449 19.7216C17.5424 19.1008 15.933 18.365 13.8929 18.8832L13.5596 18.4546C12.885 17.8392 11.8686 16.9007 12.0759 15.897C12.269 13.7446 13.1984 13.5127 14.9875 12.7366Z" fill="#AA172D"/>
<path d="M19.55 12.9279C20.5087 13.3953 20.8205 13.5162 21.6382 14.2071C21.7735 14.5361 21.9553 15.0234 22.1062 15.3288C22.3544 15.6658 22.3935 15.7183 22.5572 16.0997L22.013 16.2219C21.8743 16.8323 22.376 17.5545 22.5502 18.343C22.3987 18.6075 22.2643 18.7736 22.0812 19.0121L21.8861 18.9786C21.4724 18.3881 20.8697 17.8901 21.3015 17.2712C21.3732 16.8969 21.2335 16.681 21.0861 16.3227L20.9169 16.2743L20.7868 16.9543C20.6835 16.3854 20.4718 16.0638 20.6209 15.5996L20.9503 15.9166L21.0869 15.7506C20.1613 15.1953 19.2346 14.5004 18.3591 13.9855L17.4247 13.5734C18.682 13.6007 18.671 13.8789 19.6039 14.0499C19.6709 13.7656 19.5834 13.2381 19.55 12.9279Z" fill="#CC3149"/>
<path d="M19.55 12.9279C20.5087 13.3953 20.8205 13.5162 21.6382 14.2071C21.7735 14.5361 21.9553 15.0233 22.1062 15.3288L21.9922 15.6383C21.3005 15.7788 19.7707 14.8136 19.6039 14.05C19.6709 13.7656 19.5834 13.2381 19.55 12.9279Z" fill="#E76782"/>
<path d="M22.5572 16.0997C24.2668 19.1015 24.5738 19.8283 22.8687 22.8909C22.2627 23.559 22.0032 23.777 21.0954 24.0767C20.3401 24.092 19.9839 24.1284 19.2516 23.9306C23.4205 23.3642 23.2806 22.1872 22.5502 18.343C22.376 17.5544 21.8743 16.8323 22.0131 16.2219L22.5572 16.0997Z" fill="#A41B2F"/>
<path d="M0.552609 0.634079C1.77619 0.655289 2.81299 0.581839 3.93447 1.0882C4.20477 1.31931 4.45901 1.49343 4.62679 1.80247L4.62606 1.96477C4.67985 2.273 4.73487 2.66434 4.83 2.95209C5.2719 3.28402 5.74789 3.66453 6.21775 3.94612L6.9404 3.5777L7.48156 3.74097C8.25048 4.80316 8.48593 6.17749 8.23056 7.45564L8.17903 7.92413C7.90064 8.50346 7.93682 8.63388 7.23145 8.88828C6.49303 9.15457 5.20559 8.9895 4.4746 8.72108L4.09536 8.44266C2.66355 7.81767 2.2931 7.29686 1.48906 5.9982C0.384879 4.30509 0.380579 2.55625 0.552609 0.634079Z" fill="#C81A37"/>
<path d="M0.552609 0.634079C1.77619 0.655289 2.81299 0.581839 3.93447 1.0882C4.20477 1.31931 4.45901 1.49343 4.62679 1.80247L4.62606 1.96477C4.67985 2.273 4.73487 2.66434 4.83 2.95209C4.07574 2.79915 3.7044 2.70642 2.93957 2.71461C2.21295 2.22289 2.85427 1.67831 1.64168 1.46306L1.47936 1.60931C1.77521 2.5529 2.71324 4.73398 2.23948 5.7315C1.96194 5.80143 1.72109 5.83518 1.48906 5.99819C0.384879 4.30508 0.380579 2.55625 0.552609 0.634079Z" fill="#AA172D"/>
<path d="M6.94042 3.5777L7.48158 3.74097C8.2505 4.80316 8.48595 6.17749 8.23058 7.45564L8.17905 7.92413L7.87493 7.85827C6.85572 7.59951 6.90013 7.33932 6.4588 6.41388L6.57166 5.30965C6.37235 4.8009 6.32345 4.47498 6.21777 3.94613L6.94042 3.5777Z" fill="#8B1F27"/>
<path d="M6.57166 5.30965C7.23771 5.91155 7.72425 6.70926 8.23058 7.45565L8.17905 7.92414L7.87493 7.85828C6.85572 7.59952 6.90013 7.33933 6.4588 6.41389L6.57166 5.30965Z" fill="#B11D34"/>
<path d="M6.45876 6.41388C6.90009 7.33932 6.85568 7.59951 7.87489 7.85827L8.17901 7.92413C7.90062 8.50346 7.9368 8.63388 7.23143 8.88828C6.49301 9.15457 5.20557 8.9895 4.47458 8.72108L4.09534 8.44266L4.13619 8.04352L4.10026 7.17469L5.68647 7.57789C6.02578 7.22643 6.21511 6.83844 6.45876 6.41388Z" fill="#8B1F27"/>
<path d="M6.4588 6.41388C6.90013 7.33932 6.85572 7.59951 7.87493 7.85827C7.53209 8.0301 7.18637 8.19614 6.83795 8.35636C6.24982 8.3074 6.46261 8.3509 5.8887 7.87254L5.68652 7.57789C6.02583 7.22643 6.21515 6.83844 6.4588 6.41388Z" fill="#981B2B"/>
<path d="M4.10027 7.17468L5.68648 7.57788L5.88866 7.87253C5.18668 8.17124 5.07342 8.25345 4.47458 8.72107L4.09534 8.44265L4.13619 8.04351L4.10027 7.17468Z" fill="#AA172D"/>
<path d="M1.48907 5.9982C1.7211 5.83519 1.96195 5.80144 2.23949 5.73151L2.25748 5.97835C3.19829 5.48249 3.57424 6.41772 4.10029 7.17469L4.13623 8.04352L4.09537 8.44266C2.66356 7.81767 2.29311 7.29686 1.48907 5.9982Z" fill="#D4516B"/>
<path d="M1.48907 5.9982C1.7211 5.83519 1.96195 5.80144 2.23949 5.73151L2.25748 5.97835C2.6474 6.80429 3.15214 7.81173 4.13623 8.04352L4.09537 8.44266C2.66356 7.81767 2.29311 7.29686 1.48907 5.9982Z" fill="#8B1F27"/>
<path d="M5.42791 11.7341C4.91949 11.5329 3.9761 11.7667 3.53373 12.0768C2.7903 12.5982 3.04702 13.9593 2.77591 14.2545C0.675029 12.4735 3.87787 9.7152 6.22416 11.0008C5.92895 11.3186 5.78993 11.5023 5.42791 11.7341Z" fill="#E9C788"/>
<path d="M3.93445 1.08821C5.54919 1.65064 6.66365 2.13587 7.48154 3.74098L6.94038 3.57771L6.21773 3.94613C5.74787 3.66454 5.27188 3.28404 4.82998 2.9521C4.73484 2.66435 4.67983 2.27301 4.62604 1.96478L4.62677 1.80248C4.45899 1.49344 4.20475 1.31932 3.93445 1.08821Z" fill="#CC3149"/>
<path d="M3.93445 1.08821C5.54919 1.65064 6.66365 2.13587 7.48154 3.74098L6.94038 3.57771C6.21471 2.49274 5.86139 2.21902 4.62604 1.96479L4.62677 1.80249C4.45899 1.49345 4.20475 1.31932 3.93445 1.08821Z" fill="#802020"/>
<path d="M6.22417 11.0007C6.62004 11.6485 7.31466 12.117 7.52917 12.7653L7.47982 12.9548C6.98794 12.6954 5.98895 12.1216 5.50155 12.0195L5.42792 11.734C5.78994 11.5023 5.92896 11.3186 6.22417 11.0007Z" fill="#E4BF7E"/>
<path d="M14.6961 6.91014C15.5915 7.30467 15.7708 7.72691 15.5855 8.68565C14.6453 8.50695 14.6747 7.64637 14.6961 6.91014Z" fill="#F2D49D"/>
<path d="M11.2473 23.4731C12.1188 23.6001 12.4461 23.994 12.3399 24.8192C12.0198 24.8501 11.8291 24.6893 11.5403 24.5249C11.1727 23.9332 11.2595 24.2054 11.2473 23.4731Z" fill="#E4BF7E"/>
<path d="M30.7799 2.27705C31.0774 1.81403 31.6192 1.84211 32.1035 1.85645C32.4383 2.96099 32.2438 3.12827 31.7713 4.07762C33.0041 4.27842 33.9178 4.01999 35.3449 4.37052C37.7537 4.96211 38.8898 5.57965 41.4032 5.87266C41.5037 5.88469 41.6047 5.89504 41.7057 5.90376C43.3383 6.03472 43.3807 5.28976 44.2268 4.57229L44.5646 4.6299C45.4342 5.94701 45.7441 7.29479 44.1672 8.27238C44.0208 8.3296 43.7783 8.43439 43.6361 8.4715C43.6466 8.5229 43.6597 8.61321 43.7057 8.64935C46.1915 10.6014 52.5007 10.6761 53.3565 6.84583C53.423 6.54806 53.421 5.76965 53.2085 5.48704L52.8062 5.55047L52.6586 5.60966C50.5814 6.43126 49.5542 4.29193 50.2541 3.54704C53.766 -0.19035 57.8134 4.80609 54.7122 8.84416L54.8251 9.11116L54.2435 9.4011L54.7666 9.57843C54.4087 10.2913 53.6623 10.6997 52.9997 11.2307L53.1821 11.252L53.0602 11.7065L53.3652 11.9207L53.2753 12.061C56.4129 12.4426 56.0188 14.0838 55.1688 16.3823L55.0311 16.4072C53.479 16.7444 52.4731 16.711 51.0413 16.0048L51.8223 16.837L51.801 16.9719C51.5049 16.9707 51.4572 16.9738 51.211 17.1395L51.061 17.0319C50.8506 16.8831 50.7511 16.837 50.5212 16.7252L50.2059 16.8562L50.1537 16.7662C49.2223 15.1713 47.3316 12.9395 45.7549 11.9891C45.5848 11.8865 42.5287 10.4303 42.4853 10.4191L42.8064 10.8645L42.6582 10.9527L42.6403 11.1167C42.7538 12.5498 42.8319 14.4802 42.075 15.743L41.873 15.8442L41.7267 15.7902L41.4142 15.7846C41.8372 14.7288 42.1653 14.1894 42.0001 13.0632C41.5439 16.118 38.9768 18.3273 35.8277 17.9346C35.5475 17.6242 35.4566 17.5499 35.2747 17.1809C35.6359 16.6117 36.1521 16.5135 36.853 16.3111C36.4193 16.3039 35.9906 16.2162 35.5889 16.0526C35.1729 15.8801 35.0132 15.6881 34.8623 15.3206L35.0778 15.2768L35.3773 15.6059C38.2443 17.2674 40.4964 12.6395 39.7144 11.5628C39.3269 12.0352 38.896 12.5343 38.3138 12.7254C37.3109 12.418 37.7707 10.8279 37.9097 10.0823L36.6624 8.32483C36.252 9.19599 36.1043 9.84191 35.076 10.0066C34.5708 9.45058 34.6758 8.28963 33.1544 6.63784C32.6627 6.49453 32.2129 6.29772 31.7348 6.40916C31.6727 6.83134 31.966 7.11438 32.2466 7.5416L31.6662 7.1008L30.8148 6.30161C30.8816 6.06384 30.8218 6.17852 31.1247 6.00776C28.5752 5.29384 26.8798 7.21671 25.6483 9.22914C25.3915 9.64874 25.2448 10.1955 24.9276 10.569C25.0659 9.99718 25.2993 9.23607 25.6025 8.63153C26.1852 7.46938 27.1787 6.21206 27.5453 4.95483C27.4838 4.58797 27.4344 4.29408 27.3974 4.07314C28.2073 2.9481 28.7358 2.00979 30.2645 2.55484L30.7799 2.27705Z" fill="#BB9556"/>
<path d="M52.8061 5.55046L52.6586 5.60965C50.5814 6.43125 49.5541 4.29192 50.254 3.54703C53.766 -0.190361 57.8133 4.80608 54.7122 8.84415L54.825 9.11115L54.2435 9.40109L54.7666 9.57842C54.4086 10.2913 53.6623 10.6997 52.9997 11.2307L53.1821 11.252L53.0602 11.7065L53.3651 11.9206L53.2753 12.061L52.8612 12.5671L51.4186 12.5674C50.1847 12.4451 48.3534 12.4746 47.0703 12.4609L46.9163 12.2838C47.1074 12.1446 47.0347 12.1909 47.2237 12.0772L47.3497 12.0027L47.2393 11.7523C46.1587 11.3741 41.8135 9.75136 41.7535 8.66246C45.105 9.33806 49.2793 11.7992 52.8026 8.79834C53.8048 7.94466 53.6639 6.42939 53.6769 5.18863C54.4249 5.99607 53.7428 7.85522 53.4803 8.8295C54.0491 8.56442 54.5544 7.01006 54.4218 6.39601C54.2029 5.38225 53.6466 4.08406 52.6945 3.57687C52.2051 3.60289 52.3925 3.51842 52.0224 3.92099L52.0325 4.13916C52.3559 4.32112 52.5502 4.44521 52.8545 4.65722C52.959 5.10003 52.962 5.11395 52.8061 5.55046Z" fill="#E9C788"/>
<path d="M52.9997 11.2307L53.1821 11.252L53.0602 11.7065L53.3651 11.9207L53.2753 12.061L52.8612 12.5671L51.4186 12.5674C50.1847 12.4451 48.3534 12.4747 47.0703 12.4609L46.9163 12.2838C47.1074 12.1446 47.0347 12.1909 47.2237 12.0773L47.3497 12.0027L47.2393 11.7524C47.5905 11.7343 47.95 11.7091 48.3004 11.7166C49.0671 11.9548 49.7678 12.2309 50.5524 11.9585C51.5527 11.7297 52.0489 11.6022 52.9997 11.2307Z" fill="#C29D5F"/>
<path d="M52.8062 5.55046L52.6586 5.60965C50.5814 6.43125 49.5541 4.29192 50.2541 3.54703C53.766 -0.190361 57.8133 4.80608 54.7122 8.84415C54.9382 7.10695 56.4123 5.39604 54.7112 3.32649C52.3736 0.482509 47.364 5.75476 52.8062 5.55046Z" fill="#AF8C52"/>
<path d="M50.8872 11.04C51.0157 10.872 51.0259 10.9112 51.2533 10.808L51.5466 11.0015C52.4157 10.8802 53.5475 9.89875 54.2435 9.40111L54.7666 9.57844C54.4086 10.2913 53.6623 10.6997 52.9997 11.2307C52.0489 11.6022 51.5527 11.7297 50.5524 11.9585L50.2838 11.7531C50.5093 11.5068 50.6791 11.3012 50.8872 11.04Z" fill="url(#paint1_linear_133_6145)"/>
<path d="M50.8872 11.04C50.6791 11.3012 50.5093 11.5069 50.2838 11.7531L50.5524 11.9585C49.7677 12.2309 49.0671 11.9548 48.3004 11.7166C49.5648 11.4471 49.6272 11.5962 50.8872 11.04Z" fill="#CBA76A"/>
<path d="M36.853 16.3111C36.9415 16.2831 37.0297 16.2541 37.1175 16.2239C39.5962 15.3641 40.8545 12.552 39.9752 10.0514C39.4045 8.42844 37.7064 6.49506 36.0891 5.88604C35.8828 5.80837 35.9316 5.41284 35.9283 5.2375L36.1575 5.14542C38.2633 5.64183 41.7821 8.54 42.0813 10.8412C42.3259 12.7231 42.7531 14.0822 41.7267 15.7902L41.4142 15.7846C41.8372 14.7288 42.1653 14.1894 42.0001 13.0632C41.5439 16.118 38.9768 18.3273 35.8277 17.9346C35.5475 17.6242 35.4565 17.5499 35.2747 17.1809C35.6359 16.6117 36.1521 16.5135 36.853 16.3111Z" fill="#E9C788"/>
<path d="M27.3974 4.07314C28.2073 2.9481 28.7358 2.00979 30.2645 2.55484L30.7799 2.27705C30.4432 3.14619 29.4725 3.79754 29.3575 4.59969C28.956 4.854 28.8032 4.83814 28.7244 5.16924C29.9445 4.89383 30.1944 4.69016 31.4558 4.69564C30.8749 4.82494 30.4503 4.88001 29.9563 5.22565L30.0076 5.40395C31.096 5.65855 32.0227 5.5126 33.0958 5.57267L32.99 5.79408L32.7408 5.76566L32.5341 5.99503L32.3584 5.93206C32.7996 6.42023 33.1254 6.22383 33.1544 6.63784C32.6627 6.49453 32.2129 6.29772 31.7348 6.40916C31.6727 6.83134 31.966 7.11438 32.2466 7.5416L31.6662 7.1008L30.8148 6.30161C30.8816 6.06384 30.8218 6.17852 31.1247 6.00776C28.5752 5.29384 26.8798 7.21671 25.6483 9.22914C25.3915 9.64874 25.2448 10.1955 24.9276 10.5691C25.0659 9.99718 25.2993 9.23607 25.6025 8.63153C26.1852 7.46938 27.1787 6.21206 27.5453 4.95483C27.4838 4.58797 27.4344 4.29408 27.3974 4.07314Z" fill="#D7AF6A"/>
<path d="M53.2753 12.061C56.4129 12.4426 56.0187 14.0838 55.1688 16.3823L55.0311 16.4072C53.479 16.7444 52.4731 16.711 51.0413 16.0048C50.7484 15.7347 50.6733 15.6421 50.4294 15.3245L50.5314 15.2205C51.2523 15.4821 52.3864 16.0833 53.0054 15.5444C53.8429 15.1638 54.669 14.7935 54.515 13.7C54.1395 13.0027 53.5683 12.821 52.8612 12.5671L53.2753 12.061Z" fill="#E4BF7E"/>
<path d="M51.4186 12.5674L52.8612 12.5671C53.5683 12.821 54.1395 13.0027 54.515 13.7C54.669 14.7935 53.8429 15.1638 53.0054 15.5444C52.2797 15.4454 51.7721 15.409 51.0917 15.1298L51.0214 14.9394C51.805 14.7623 52.0344 14.7874 52.3295 14.0456C52.1499 13.4733 51.8529 13.4483 51.3642 12.8693L51.4186 12.5674Z" fill="white"/>
<path d="M32.99 5.79409C34.4256 6.22257 37.267 8.53203 35.076 10.0066C34.5708 9.45058 34.6758 8.28963 33.1544 6.63784C33.1254 6.22383 32.7996 6.42024 32.3584 5.93206L32.5341 5.99503L32.7408 5.76566L32.99 5.79409Z" fill="#E9C788"/>
<path d="M42.9651 7.33593C44.0299 6.85652 44.4513 6.10561 44.9937 6.06128C45.2674 7.2056 44.3483 7.62857 44.1672 8.27237C44.0208 8.32959 43.7783 8.43438 43.636 8.47149C41.8729 8.29274 41.4272 7.82352 40.0376 6.76978C41.0943 7.017 41.8968 7.16797 42.9651 7.33593Z" fill="#E9C788"/>
<path d="M36.6624 8.32483C36.44 7.67813 36.1176 7.07965 35.8035 6.47396C36.7417 6.19472 39.4526 8.66138 38.3692 10.4796C38.1333 10.3507 38.0891 10.134 37.9806 9.87399L37.9097 10.0823L36.6624 8.32483Z" fill="#E9C788"/>
<path d="M41.4032 5.87267C41.5037 5.8847 41.6047 5.89505 41.7056 5.90377C43.3383 6.03473 43.3806 5.28977 44.2268 4.5723L44.5645 4.62991C44.4916 5.14838 44.4423 5.60082 44.1815 6.06491C43.5402 7.20594 40.7229 6.96753 39.8347 6.27763C40.0472 6.00501 41.0231 5.90087 41.4032 5.87267Z" fill="url(#paint2_linear_133_6145)"/>
<path d="M30.7799 2.27705C31.0774 1.81403 31.6192 1.84211 32.1034 1.85645C31.8777 3.95063 31.2618 4.01041 29.3575 4.59969C29.4725 3.79754 30.4432 3.14618 30.7799 2.27705Z" fill="#F2D49D"/>
<path d="M31.4558 4.69565C32.634 4.63918 33.2057 4.52576 34.2318 5.09221L34.1786 5.09076L34.3222 5.48792L34.256 5.16877L34.3182 5.24606C34.0286 5.57796 34.0923 5.60701 33.7345 5.7328L33.0958 5.57268C32.0227 5.51261 31.096 5.65856 30.0076 5.40396L29.9563 5.22566C30.4502 4.88002 30.8749 4.82495 31.4558 4.69565Z" fill="#E4BF7E"/>
<path d="M47.6898 12.9988C48.67 13.1165 51.73 13.0604 51.9833 13.9317C50.1248 14.3924 49.1301 14.3778 47.6898 12.9988Z" fill="#FCFAEC"/>
<path d="M39.153 9.44673C40.0107 10.363 39.6608 12.5327 37.8223 12.2005C37.7739 11.9321 37.787 11.9503 37.7946 11.6747L38.1111 11.4688L38.1034 11.7317C38.8718 10.8109 38.858 10.6379 39.153 9.44673Z" fill="#F2D49D"/>
<path d="M24.9276 10.5691C25.2449 10.1955 25.3915 9.64876 25.6484 9.22915C26.8799 7.21672 28.5753 5.29385 31.1247 6.00777C30.8218 6.17853 30.8816 6.06384 30.8148 6.30162L31.6662 7.10081L32.2466 7.54161C32.6821 8.27998 32.6295 8.96998 32.0043 9.56046C30.4202 9.70993 29.5782 6.9313 26.7402 10.9681C26.5797 11.5234 26.4008 12.1077 26.2557 12.6638C26.6714 13.0348 27.0863 13.3208 27.2789 13.825L27.2375 14.2536L26.6296 14.3132L26.6639 14.3721C24.3649 14.6432 24.4356 12.0985 24.9276 10.5691Z" fill="#E9C788"/>
<path d="M26.7402 10.9681L26.6502 10.7929C26.7965 10.3438 26.9976 9.95103 27.3392 9.61207C28.2155 8.742 30.2618 7.76763 31.2738 8.88888C31.4974 9.13659 31.5411 9.1822 31.8488 9.29354L32.012 9.09319C31.9761 7.77615 31.1247 7.93561 30.1392 7.42237C29.4501 7.06342 28.9304 7.77954 28.4694 7.67967L28.5639 7.46298C29.5346 6.91265 30.5905 7.2836 31.6662 7.1008L32.2466 7.5416C32.682 8.27997 32.6294 8.96997 32.0042 9.56045C30.4202 9.70992 29.5782 6.93129 26.7402 10.9681Z" fill="#CBA76A"/>
<path d="M25.7846 11.0296L25.9732 11.0176C26.086 11.4704 25.9388 11.8212 25.8198 12.2857L25.6891 12.2227C25.6407 11.681 25.5906 11.5335 25.7846 11.0296Z" fill="#CBA76A"/>
<path d="M34.7628 13.2163C36.3541 13.6165 36.5002 14.468 35.3773 15.6059L35.0778 15.2768L34.8623 15.3206C35.0132 15.6881 35.1729 15.8801 35.5889 16.0525C35.9906 16.2162 36.4193 16.3039 36.853 16.3111C36.1521 16.5135 35.6359 16.6117 35.2747 17.1809C35.4566 17.5499 35.5475 17.6242 35.8277 17.9346C34.5812 17.7015 33.715 16.6807 33.4488 15.4303C33.2797 14.6356 34.2443 13.7929 34.7628 13.2163Z" fill="#E4BF7E"/>
<path d="M35.8277 17.9346C38.9768 18.3273 41.5439 16.118 42.0001 13.0632C42.1653 14.1894 41.8372 14.7288 41.4142 15.7846C40.3537 16.9401 40.1634 17.3834 38.779 18.1906C35.3849 20.1701 30.327 15.009 34.7628 13.2163C34.2443 13.7929 33.2797 14.6356 33.4488 15.4303C33.715 16.6807 34.5812 17.7015 35.8277 17.9346Z" fill="#AF8C52"/>
<path d="M26.3245 28.7752C26.6321 28.3914 26.6453 28.0729 26.9984 27.5642L27.4538 27.6103C27.6388 28.1019 27.7131 28.148 28.1289 28.4778C29.1008 29.2279 28.8269 30.6229 27.6051 30.8401C26.5283 30.597 26.4834 29.6986 26.3245 28.7752Z" fill="#D9B575"/>
<path d="M27.4538 27.6103C27.6388 28.1019 27.7131 28.1481 28.1289 28.4778C28.1537 29.2054 27.673 29.5925 26.9889 29.6397C26.6834 29.2723 26.7666 29.4402 26.7751 28.8613C27.1216 28.4233 27.3621 28.1856 27.4538 27.6103Z" fill="#F2D49D"/>
<path d="M12.379 77.2145C11.7781 73.4397 11.4602 74.1963 10.3206 71.2619L9.86165 70.9243C9.66986 71.8086 9.39132 73.6114 8.82136 74.2338L8.00117 74.4163L7.82831 74.2876C8.95382 72.5618 9.41741 71.3495 9.07587 69.1364C8.94371 68.2796 8.48528 67.6408 8.67045 66.6138C9.31338 67.623 9.85565 69.1471 10.4299 70.0145C12.2747 72.8018 13.1894 74.5511 13.9525 77.8121C14.2936 79.2696 14.1597 80.9155 14.3207 81.6576C14.1006 82.1765 13.9198 82.6054 13.7393 83.1415C14.0858 84.3554 12.6919 86.098 12.8036 88.0071C12.1884 88.2157 11.351 89.5501 10.9096 90.1531C11.1034 90.9748 11.4999 91.9238 10.5313 92.2722C9.99601 92.2105 9.91924 92.2299 9.47938 91.9524C9.25066 91.5153 9.4385 90.8642 9.61784 90.429C9.19952 90.3111 9.13213 90.2784 8.7626 90.0487C8.61593 89.5776 8.65198 89.7434 8.80802 89.1964L8.90692 88.9274C8.78663 88.8266 6.98049 88.5696 6.49803 88.4633C4.18269 87.9535 2.82791 84.4275 5.42241 83.0907C5.9642 82.9794 6.56843 82.9112 7.05586 83.2429C7.3702 83.4569 7.57892 83.7944 7.63012 84.1712C7.8156 85.4457 6.84038 85.8245 5.8498 86.0423C7.4545 87.2816 9.27455 87.1 10.5339 85.473L10.3929 85.3279C9.98107 85.3912 9.90635 85.3603 9.52583 85.1901C9.52246 85.0726 9.57799 84.6541 9.61916 84.6169C10.4448 83.8697 10.8965 83.4641 11.4747 82.5029L11.643 82.3955C12.1862 81.1814 12.2677 78.6547 12.379 77.2145Z" fill="#E9C788"/>
<path d="M5.42242 83.0907C5.22498 83.6343 4.60648 83.9996 4.51313 84.3213C3.568 87.5784 6.79187 88.5428 9.22709 88.5308C11.382 87.5279 12.7406 85.9052 13.5563 83.6627C13.619 83.4896 13.6801 83.3158 13.7393 83.1415C14.0858 84.3554 12.6919 86.098 12.8036 88.0071C12.1884 88.2157 11.351 89.5501 10.9096 90.1531C11.1034 90.9748 11.4999 91.9238 10.5312 92.2722C9.99601 92.2105 9.91924 92.2299 9.47938 91.9524C9.25066 91.5153 9.4385 90.8642 9.61784 90.429C9.19952 90.3111 9.13213 90.2784 8.7626 90.0487C8.61593 89.5776 8.65198 89.7434 8.80802 89.1964L8.90692 88.9274C8.78663 88.8266 6.98048 88.5696 6.49802 88.4633C4.18268 87.9535 2.82792 84.4275 5.42242 83.0907Z" fill="#C29D5F"/>
<path d="M8.80806 89.1964L8.92073 89.3372L9.43326 88.9917L9.77978 89.0823C9.94374 89.5635 9.86916 89.9784 9.61788 90.429C9.19956 90.311 9.13217 90.2784 8.76264 90.0487C8.61597 89.5776 8.65202 89.7434 8.80806 89.1964Z" fill="#D9B575"/>
<path d="M12.379 77.2145C12.9696 78.3655 13.3148 81.5413 12.7072 82.6432C12.1872 82.9255 11.8955 83.9914 11.2584 84.7303L9.52584 85.1901C9.52247 85.0726 9.578 84.6541 9.61917 84.6169C10.4448 83.8697 10.8965 83.4641 11.4747 82.5028L11.6431 82.3955C12.1862 81.1814 12.2677 78.6547 12.379 77.2145Z" fill="#D9B575"/>
<path d="M11.2584 84.7303C11.8955 83.9914 12.1872 82.9255 12.7072 82.6432C11.6595 85.335 10.1168 86.8275 7.29897 87.3752C6.47925 86.9675 5.83443 86.7037 5.31976 85.9136L5.75548 85.8332L5.84981 86.0423C7.45451 87.2816 9.27456 87.1 10.5339 85.473L10.393 85.3279C9.98108 85.3912 9.90636 85.3603 9.52584 85.1901L11.2584 84.7303Z" fill="#AF8C52"/>
<path d="M5.31977 85.9136C5.09375 85.5938 5.10355 85.567 5.06647 85.1645C5.19698 84.7436 5.20244 84.7315 5.54583 84.4754L5.81488 84.5302C6.00429 84.951 5.85114 85.3536 5.7555 85.8332L5.31977 85.9136Z" fill="#C29D5F"/>
<path d="M4.10547 37.4274L4.31551 37.5093C4.31582 37.2724 4.31371 37.0965 4.33528 36.8596C5.48236 38.2325 6.41201 38.9485 7.97912 39.8259C8.11789 39.9036 8.06035 39.8639 8.17615 39.963C9.60529 41.1802 13.9942 40.1073 13.9524 38.2268C13.3029 37.8608 13.3194 38.4102 12.9558 37.9272C13.0082 37.313 12.9193 37.5412 13.2797 37.0572C15.3161 35.9612 15.7665 39.2237 15.2457 40.4296C14.1461 42.9765 10.3835 42.8139 8.23389 41.9378C7.79433 41.7585 6.94062 41.157 6.62292 41.1516C6.51082 41.9252 7.09537 42.471 7.28759 43.222C7.47511 43.9546 7.25068 44.5483 7.45909 45.2362C7.12541 45.7862 6.7287 46.2961 6.08873 46.5031C5.17953 46.6172 4.09292 46.4658 3.55897 45.6538C3.59926 43.6657 5.73808 45.7657 4.51465 40.6095C4.32338 40.3667 4.21087 39.938 4.10788 39.6286L4.27956 39.4843C4.13157 38.8398 3.72426 37.9802 3.48914 37.278L3.63888 37.1457L4.10547 37.4274Z" fill="url(#paint3_linear_133_6145)"/>
<path d="M4.51459 40.6095C4.86542 40.8338 4.86552 40.854 5.01586 41.2597L5.2519 41.0653L5.22569 40.7331L5.42855 40.7774C6.52893 42.5674 6.72922 44.847 4.74563 46.0899C4.98421 46.3575 5.69277 46.4259 6.08866 46.5031C5.17946 46.6172 4.09285 46.4658 3.5589 45.6538C3.59919 43.6657 5.73802 45.7657 4.51459 40.6095Z" fill="#AF8C52"/>
<path d="M5.25194 41.0653C5.87903 42.4297 6.64157 46.2834 4.00647 45.5636C4.02304 45.0904 4.2557 45.0531 4.63532 44.5679C5.41579 43.5705 5.15048 42.4433 5.01589 41.2597L5.25194 41.0653Z" fill="#E4BF7E"/>
<path d="M15.9707 67.406C16.1361 66.7038 16.2268 66.2239 16.8781 65.7934C17.3398 65.486 17.9131 65.3967 18.4466 65.5486C20.2426 66.0462 20.5458 67.7138 20.1462 69.2898C19.5373 70.3854 18.9689 70.9124 17.7819 71.4176C17.48 71.5621 17.3289 71.668 16.9925 71.6653C16.7267 71.6387 16.1578 71.7159 15.7992 71.6886C14.3066 71.5751 13.3293 71.1422 12.0397 70.5169C11.699 70.0736 11.5818 70.015 11.1083 69.7076C10.1554 68.7879 9.85199 67.9477 9.3125 66.7575C9.51353 66.5205 9.60305 66.5666 9.96906 66.4659L9.95543 66.3242C10.0608 66.1224 10.0291 66.2327 9.98825 65.9775L10.332 66.6803C10.288 66.3478 10.2537 66.234 10.3229 65.8978L10.5163 65.7992C10.7959 66.0812 12.0365 67.0761 12.3786 66.8656C13.7975 67.35 14.2647 67.4905 15.7459 67.5103L15.9707 67.406Z" fill="#CBA76A"/>
<path d="M9.96911 66.4659L9.95548 66.3242C10.0608 66.1224 10.0292 66.2327 9.9883 65.9775L10.332 66.6803C10.2881 66.3478 10.2538 66.234 10.323 65.8978L10.5164 65.7992C10.4371 67.6218 14.5301 70.5522 16.6131 69.3449C17.2459 69.403 18.4084 69.0645 19.0947 68.9171C19.5064 68.5446 19.6273 68.2632 19.8645 67.7797C19.9348 68.2019 20.0292 68.9018 20.1463 69.2898C19.5373 70.3854 18.969 70.9124 17.782 71.4176C17.48 71.5621 17.329 71.668 16.9926 71.6653C16.7268 71.6387 16.1578 71.7159 15.7993 71.6886C14.3067 71.5751 13.3294 71.1422 12.0397 70.5169C11.6991 70.0736 11.5819 70.015 11.1083 69.7076C10.1555 68.7879 9.85205 67.9477 9.31256 66.7575C9.51359 66.5205 9.6031 66.5667 9.96911 66.4659Z" fill="#E9C788"/>
<path d="M9.96907 66.4659L9.95544 66.3242C10.0608 66.1224 10.0291 66.2327 9.98826 65.9775L10.332 66.6803C10.288 66.3478 10.2538 66.234 10.3229 65.8978L10.5163 65.7992C10.4371 67.6218 14.5301 70.5522 16.613 69.3449C17.2459 69.403 18.4083 69.0645 19.0946 68.9171C18.3505 69.6399 17.0624 69.6419 15.8873 70.71C13.8135 70.8061 10.7952 68.2487 9.96907 66.4659Z" fill="#D9B575"/>
<path d="M19.0947 68.9171C19.5064 68.5446 19.6272 68.2632 19.8645 67.7797C19.9348 68.2019 20.0292 68.9018 20.1462 69.2898C19.5373 70.3854 18.9689 70.9124 17.782 71.4176C18.1653 70.4675 19.3943 70.7045 19.3391 69.4662C18.2377 69.0663 16.7316 70.653 15.8873 70.71C17.0624 69.642 18.3505 69.6399 19.0947 68.9171Z" fill="#D9B575"/>
<path d="M15.9707 67.406C16.1361 66.7038 16.2268 66.2239 16.8781 65.7934C17.3398 65.486 17.9131 65.3967 18.4466 65.5486C20.2426 66.0462 20.5458 67.7138 20.1462 69.2898C20.0292 68.9018 19.9348 68.2019 19.8645 67.7797C19.6273 68.2632 19.5064 68.5446 19.0947 68.9171C18.4084 69.0645 17.2459 69.403 16.613 69.3449C17.258 68.7849 18.0204 68.6022 18.5237 67.7552C18.5698 67.2059 18.6396 67.3688 18.3632 67.025C17.6444 67.2484 17.8108 67.7327 17.7313 67.8619C16.7861 67.8402 16.9333 67.7072 16.1436 67.5563L15.9707 67.406Z" fill="#D7AF6A"/>
<path d="M15.9707 67.406L16.1436 67.5563L16.6852 68.3198C16.6801 68.8329 16.7356 68.6327 16.4198 69.0701C15.7897 69.3973 14.4797 69.3261 13.9921 68.7966C15.006 68.6004 15.3651 68.5137 15.7459 67.5103L15.9707 67.406Z" fill="#FCFAEC"/>
<path d="M10.1012 64.0155C8.3199 60.8461 10.2754 56.532 11.2047 53.3752C11.2716 53.1475 11.9452 51.401 11.9462 51.4124C11.8712 50.5832 11.6143 49.7438 11.8076 48.8248L12.2514 48.8744L12.5245 49.6577L12.8436 49.0367C13.7527 49.92 13.765 50.4105 14.3842 51.244L14.4258 51.4391L13.99 52.1262C13.9381 52.692 14.0126 52.8572 13.7173 53.2848C12.7097 53.5158 12.3672 52.6827 11.9689 52.9867C11.6233 57.5321 14.5105 54.2293 14.6757 56.9445C14.8562 59.9125 12.8806 60.3044 10.7654 58.6388C10.7584 60.9049 11.3333 63.0608 12.9439 64.6631C13.4313 65.148 13.7187 65.4034 13.4362 65.9448C12.5815 66.2595 12.5241 66.2715 11.6602 65.9842C10.9043 65.3998 10.5269 64.845 10.1012 64.0155Z" fill="#CBA76A"/>
<path d="M10.2788 57.805C10.4809 58.0211 10.6296 58.3679 10.7654 58.6388C10.7584 60.9049 11.3333 63.0609 12.9439 64.6631C13.4314 65.148 13.7187 65.4034 13.4362 65.9448C12.5815 66.2595 12.5241 66.2715 11.6602 65.9842C10.9043 65.3998 10.5269 64.845 10.1013 64.0155C10.3884 63.5078 9.91019 61.9514 9.97964 60.9009C10.055 59.7616 10.1265 58.9528 10.2788 57.805Z" fill="#D9B575"/>
<path d="M12.8437 49.0367C13.7527 49.92 13.765 50.4105 14.3842 51.244L14.4258 51.4391L13.99 52.1262C13.6775 52.5241 13.7557 52.5538 13.3559 52.7016L13.0488 52.5152C12.7449 51.915 12.658 50.4562 12.5245 49.6577L12.8437 49.0367Z" fill="#FCFAEC"/>
<path d="M11.2473 54.2853C11.2826 54.8084 11.2744 54.9956 11.4672 55.4781C12.3292 56.385 13.1257 55.8881 14.2754 56.3299L14.406 56.7368C12.4694 58.0462 10.6738 56.317 11.2473 54.2853Z" fill="#E9C788"/>
<path d="M11.5555 57.5718C12.4371 57.7561 13.4765 57.835 14.2586 58.024L14.1694 58.1476C14.1124 58.1905 14.0548 58.2326 13.9965 58.2737C13.4381 58.667 13.3609 58.6802 12.8238 58.5844C12.3093 58.0698 12.1638 57.9658 11.5555 57.5718Z" fill="#C29D5F"/>
<path d="M5.42801 53.4548C4.90159 53.5145 4.59972 53.5467 4.0757 53.6834C3.62297 54.1026 3.74616 53.894 3.58306 54.4636C4.04376 56.4979 7.55466 55.6718 8.56029 54.4681C9.11252 53.807 9.58608 52.8691 9.67252 51.9845C9.69552 51.7488 9.43545 51.6039 9.26768 51.4467L9.21933 51.8982L9.05156 51.9673C8.85464 51.327 9.20482 49.128 9.00467 47.8219C8.67954 45.6994 8.06093 44.9932 7.5824 43.0786L7.72266 42.8541C7.96226 42.9767 9.29243 45.1523 9.68188 45.5967C10.7714 47.0652 10.9252 50.3721 10.5739 52.0592C9.80231 55.7633 7.62167 57.8164 3.83247 56.9936C1.773 55.2824 1.87961 52.2512 4.74029 51.8954C5.28044 52.4595 5.38328 52.6659 5.42801 53.4548Z" fill="#E4BF7E"/>
<path d="M8.10788 61.944C7.9059 55.9467 12.0921 54.1977 11.0026 48.1602L11.1452 48.0011C11.4306 48.1524 11.5452 48.2349 11.7984 48.4194L12.2514 48.8744L11.8076 48.8248C11.6143 49.7438 11.8712 50.5832 11.9462 51.4124C11.9452 51.401 11.2716 53.1475 11.2047 53.3752C10.2754 56.532 8.31989 60.8462 10.1012 64.0155C10.5269 64.845 10.9043 65.3998 11.6602 65.9842C11.856 66.6806 12.0102 66.4222 12.3786 66.8656C12.0365 67.0761 10.7959 66.0812 10.5163 65.7992L10.3229 65.8978C10.2538 66.234 10.288 66.3478 10.332 66.6803L9.98826 65.9775C10.0291 66.2327 10.0608 66.1224 9.95544 66.3242L9.96907 66.4659C9.60305 66.5667 9.51353 66.5205 9.3125 66.7575C8.9169 66.3622 8.75616 65.5471 8.61741 65.0066C7.99363 63.9474 8.07428 63.1452 8.10788 61.944Z" fill="#E4BF7E"/>
<path d="M8.10788 61.9441C8.58343 62.7957 9.13097 64.3504 9.26196 65.3169L9.14445 65.5987C8.86313 65.351 8.84306 65.3136 8.61742 65.0066C7.99364 63.9474 8.07428 63.1452 8.10788 61.9441Z" fill="#D9B575"/>
<path d="M11.1083 69.7076C11.5818 70.015 11.699 70.0736 12.0397 70.5169C13.3294 71.1422 14.3067 71.5751 15.7993 71.6886C16.1578 71.7159 16.7267 71.6387 16.9925 71.6653L16.5153 72.0297C16.5358 72.4647 16.821 72.5831 17.027 72.9601C17.7262 73.1835 18.2466 73.8065 18.1286 74.5627C17.7332 75.0635 17.5628 74.9602 16.9446 74.8479L16.9036 74.3186C16.0233 73.272 13.6126 74.7742 11.1083 69.7076Z" fill="#D9B575"/>
<path d="M12.0397 70.5169C13.3293 71.1422 14.3066 71.5751 15.7992 71.6886C16.1578 71.7159 16.7267 71.6387 16.9925 71.6653L16.5153 72.0297C16.5358 72.4647 16.8209 72.5831 17.0269 72.9601C16.1273 72.9632 15.1702 72.6027 14.4061 72.1416L14.635 72.1843C13.8046 71.6936 12.4047 71.3576 12.0397 70.5169Z" fill="#BB9556"/>
<path d="M14.3207 81.6576C14.8362 81.0576 14.2218 80.4969 14.7635 80.1247C15.0832 81.9815 14.1276 84.1711 14.4596 85.1337C14.1711 85.9499 13.6508 87.6843 12.8036 88.0071C12.6919 86.098 14.0858 84.3554 13.7393 83.1415C13.9198 82.6054 14.1006 82.1765 14.3207 81.6576Z" fill="#D9B575"/>
<path d="M12.6892 48.1417C13.5509 48.2574 13.9466 48.0463 14.7022 47.7023C14.9014 48.051 14.4105 49.1605 14.3795 49.7138C14.349 50.2577 14.3639 50.7065 14.3842 51.244C13.765 50.4105 13.7527 49.92 12.8436 49.0367C12.8012 48.9296 12.7131 48.2958 12.6892 48.1417Z" fill="#E4BF7E"/>
<path d="M11.7984 48.4194C11.5543 47.8999 11.4447 47.8785 11.4951 47.3558L11.7736 47.2804C12.2878 47.5153 12.3682 47.6847 12.6892 48.1417C12.7131 48.2958 12.8012 48.9297 12.8437 49.0367L12.5245 49.6577L12.2514 48.8744L11.7984 48.4194Z" fill="#F2D49D"/>
<path d="M11.4791 44.9961C11.0823 44.7251 11.0012 44.6775 10.7125 44.2974C11.227 44.2569 12.1011 44.4342 12.7796 44.3919C13.6513 44.3375 14.8151 43.9556 15.5751 44.0706L15.6762 44.271L15.262 44.7563C15.6941 44.6794 15.6677 44.6527 16.0783 44.4565C15.827 45.6474 14.6059 48.0913 13.1832 47.9147C12.8882 47.7059 12.815 47.6866 12.7061 47.3385C13.1079 46.7577 13.4891 46.9287 13.7054 46.3908L13.6544 46.2456C12.3665 47.0018 10.4378 46.7407 10.6563 45.0667L10.9263 44.9183L11.2799 45.0604L11.4791 44.9961Z" fill="#D7AF6A"/>
<path d="M11.4791 44.9961C11.0823 44.7251 11.0012 44.6775 10.7125 44.2974C11.227 44.2569 12.1011 44.4342 12.7796 44.3919C13.6513 44.3375 14.8151 43.9556 15.5751 44.0706L15.6762 44.271L15.262 44.7563C13.68 45.9201 13.206 45.9983 11.4791 44.9961Z" fill="#FCFAEC"/>
<path d="M13.6544 46.2456C12.3665 47.0018 10.4378 46.7407 10.6563 45.0667L10.9263 44.9183L11.2799 45.0604C12.0907 45.6223 12.7544 45.8673 13.6544 46.2456Z" fill="#FCFAEC"/>
<path d="M11.1836 73.7445C11.7472 75.0379 12.0221 76.0127 11.493 77.4045C11.2694 77.997 10.9683 78.5573 10.5975 79.0707C9.94329 79.5364 9.63486 79.6231 8.90666 79.3775C8.50695 78.8968 8.55838 79.0958 8.5144 78.5511L8.74989 78.3628L9.16762 78.7999C11.1197 78.3768 11.1533 75.3012 11.1836 73.7445Z" fill="#E9C788"/>
<path d="M10.5975 79.0707C9.9433 79.5364 9.63487 79.6231 8.90667 79.3775C8.50695 78.8968 8.55838 79.0958 8.5144 78.5511L8.7499 78.3628L9.16763 78.7999C9.68866 78.8816 10.0812 78.9526 10.5975 79.0707Z" fill="#E9C788"/>
<path d="M78.7697 4.20848C80.6173 1.55342 82.6841 3.56897 83.3872 5.83028C83.4829 6.13803 83.5997 6.45353 83.6888 6.7656C84.4973 6.83547 84.846 6.5274 85.0224 7.50568C85.1431 8.1758 84.0527 8.97801 84.1007 9.23862C84.4818 11.3082 82.869 11.5728 80.721 12.246L80.7136 12.4278C80.6996 12.7281 80.6857 13.1253 80.4268 13.2707C78.9194 14.1165 76.8397 13.4191 75.2253 13.8289C75.1815 13.84 74.9672 14.3724 74.9203 14.4954C73.9875 14.8571 73.8787 14.0182 72.9108 13.9669L72.5596 14.2007C72.5861 14.7997 72.8418 15.3655 73.0497 15.9389C73.4604 16.7568 73.7632 17.5656 73.0637 18.3353C71.7306 18.7831 71.6214 17.1827 71.4444 16.2539L71.0843 15.4448C70.7096 15.1115 70.1281 13.935 69.8547 13.436C69.6709 13.007 69.4969 12.5527 69.3223 12.1178C68.9221 12.207 68.9225 12.1834 68.6435 12.4656C68.3446 12.0611 68.0801 11.7522 67.7538 11.3762L67.6769 11.8874C66.3714 10.4565 65.6917 11.0571 64.0901 10.1211C62.3963 8.47813 59.6177 8.73359 57.5643 8.40059C57.0683 8.54108 56.6475 8.69747 56.1276 8.58452C58.7149 7.41071 62.0343 7.58928 64.7549 8.1995C67.4567 8.80556 72.3121 10.0547 74.4136 7.64665C74.0482 7.17378 74.0998 7.37555 74.0787 6.84198C75.0793 5.80694 76.7744 7.18894 75.4678 9.08173C74.7216 10.0374 74.4296 10.1738 73.2885 10.6089L74.1223 10.9266C77.2346 10.3785 77.7152 10.5582 80.007 8.48853L80.1222 8.26264C80.3853 8.46776 80.5788 8.6137 80.858 8.79584C81.5745 7.84602 81.8369 6.73023 81.1593 5.68962C80.045 6.99283 78.0627 6.02987 78.7697 4.20848Z" fill="#C29D5F"/>
<path d="M78.7697 4.20849C79.1818 4.13488 79.593 3.733 80.1023 3.53526C81.236 3.09513 82.0082 3.79574 82.8026 4.65604C83.9837 8.5008 81.859 11.1351 78.2649 12.4835C75.7824 13.4147 70.6009 12.7972 68.6593 10.8318C69.2438 10.2296 72.099 11.5657 72.6756 10.9996L72.5584 10.9417L72.5635 10.7791L73.2885 10.6089L74.1223 10.9266C77.2346 10.3785 77.7151 10.5582 80.007 8.48856L80.1222 8.26267C80.3853 8.46779 80.5787 8.61373 80.858 8.79587C81.5745 7.84605 81.8369 6.73026 81.1592 5.68965C80.045 6.99286 78.0627 6.02988 78.7697 4.20849Z" fill="url(#paint4_linear_133_6145)"/>
<path d="M80.007 8.48857L80.1222 8.26268C80.3854 8.4678 80.5788 8.61374 80.858 8.79588C79.8577 10.5912 77.9867 11.5385 75.9637 11.6041C74.941 11.4368 74.6794 11.5964 73.5185 11.2199L73.8299 11.179C73.2563 10.8745 73.3957 10.9679 72.6756 10.9996L72.5584 10.9417L72.5635 10.7791L73.2885 10.6089L74.1223 10.9266C77.2346 10.3785 77.7152 10.5582 80.007 8.48857Z" fill="#E9C788"/>
<path d="M74.1223 10.9266C77.2346 10.3785 77.7152 10.5582 80.007 8.48857C79.1635 10.4032 75.9716 11.3695 74.1223 10.9266Z" fill="#CBA76A"/>
<path d="M81.1593 5.68965L80.9033 5.15443L80.721 5.10713L80.7456 5.094L81.0303 5.39721L80.6227 5.32441L80.5782 5.41233C80.2869 5.14133 80.378 5.24978 80.2803 4.79737C80.5877 4.46494 80.4289 4.55826 80.9934 4.52948C81.5036 4.78237 81.4083 4.65216 81.6772 5.18251C83.0759 7.94176 78.5198 13.009 75.9637 11.6041C77.9867 11.5385 79.8577 10.5912 80.858 8.79587C81.5745 7.84605 81.8369 6.73026 81.1593 5.68965Z" fill="#BB9556"/>
<path d="M74.4136 7.64667C74.0482 7.1738 74.0998 7.37557 74.0787 6.842C75.0793 5.80696 76.7743 7.18896 75.4678 9.08175C74.7453 9.07749 74.4645 9.74229 73.7565 10.0465C71.4186 11.051 68.6776 10.0452 66.4905 9.21155C66.6967 9.19015 67.7745 9.10068 67.8853 9.14176C69.0576 9.5765 70.2419 10.1291 71.5915 9.68252C71.6173 9.41847 71.5966 9.4225 71.7637 9.22183C72.7632 9.09697 74.262 8.71403 74.8237 7.79333L74.7273 7.56974L74.4136 7.64667Z" fill="#E4BF7E"/>
<path d="M57.5642 8.40062C60.8435 7.87323 63.8204 8.42746 66.6233 10.2405L67.7489 11.2839L67.7538 11.3762L67.6769 11.8874C66.3714 10.4566 65.6917 11.0572 64.0901 10.1211C62.3963 8.47816 59.6177 8.73362 57.5642 8.40062Z" fill="url(#paint5_linear_133_6145)"/>
<path d="M71.4444 16.254C71.743 15.7739 71.6522 15.9345 71.6536 15.2872C71.7536 15.8508 71.8428 16.1785 72.2882 16.5239C72.7297 16.4763 72.6897 16.3634 73.0497 15.9389C73.4604 16.7569 73.7632 17.5656 73.0638 18.3354C71.7306 18.7832 71.6214 17.1827 71.4444 16.254Z" fill="#D9B575"/>
<path d="M67.7763 10.5481C68.3188 10.9234 69.9609 11.9605 70.2251 12.3732L70.1486 12.481C69.5077 12.3304 69.7807 12.1439 69.3223 12.1178C68.9221 12.2071 68.9225 12.1835 68.6435 12.4656C68.3446 12.0612 68.0801 11.7522 67.7538 11.3762L67.7489 11.2839L67.8053 11.2543C67.9055 10.9732 67.833 10.8883 67.7763 10.5481Z" fill="#D7AF6A"/>
<path d="M66.6233 10.2405L66.648 9.81333C67.1072 9.76558 67.5714 10.1544 67.7763 10.5481C67.833 10.8882 67.9055 10.9732 67.8053 11.2543L67.7489 11.2839L66.6233 10.2405Z" fill="#CBA76A"/>
<path d="M61.9132 10.5033C63.0858 9.77877 63.2332 11.012 64.1223 11.1535L63.9841 10.9506L64.1321 10.7901L64.1248 10.6848C63.6599 10.487 63.2397 10.3459 62.852 10.0262C63.1967 9.93258 63.7022 10.0622 64.0901 10.1211C65.6917 11.0571 66.3714 10.4565 67.6769 11.8874L67.7538 11.3762C68.0801 11.7522 68.3446 12.0611 68.6435 12.4656C68.9225 12.1834 68.922 12.207 69.3223 12.1178C69.4968 12.5527 69.6709 13.007 69.8546 13.436C70.128 13.935 70.7096 15.1115 71.0842 15.4448C68.1689 16.5365 68.7181 18.985 65.2829 20.2231C63.7613 19.3861 62.2775 18.4539 63.3972 16.4735C63.8193 15.8535 64.3491 15.8132 65.036 15.7298C65.1844 15.6116 65.3609 15.3594 65.486 15.1999C65.5316 14.6488 65.5787 14.1951 65.3885 13.6527C65.1559 12.9893 63.9578 10.5998 62.9984 11.0202C63.1874 11.5533 63.3359 11.901 62.8176 12.2163C62.3046 12.1837 62.1384 12.0276 61.7327 11.7324L61.5938 11.6302C61.7383 11.6514 62.2625 11.8095 62.4323 11.8571L62.6785 11.7179C62.6178 11.284 62.2057 10.871 61.9132 10.5033Z" fill="url(#paint6_linear_133_6145)"/>
<path d="M68.6435 12.4656C68.9225 12.1834 68.922 12.207 69.3223 12.1178C69.4968 12.5527 69.6709 13.007 69.8546 13.436C70.128 13.935 70.7096 15.1115 71.0842 15.4448C68.1689 16.5365 68.7181 18.985 65.2829 20.2231C63.7613 19.3861 62.2775 18.4539 63.3972 16.4735C63.4539 17.0438 63.4152 17.3744 63.3698 17.9349C64.3355 17.6938 64.6861 17.5477 65.1053 18.6963C65.328 18.7109 65.35 18.743 65.5417 18.6786C66.281 18.3837 66.939 17.2785 67.5357 16.6966C68.1327 16.1145 68.0541 16.2418 68.8611 16.2222L68.8647 13.6613L68.8873 13.4243L68.6435 12.4656Z" fill="#CBA76A"/>
<path d="M65.5417 18.6786C66.281 18.3837 66.939 17.2785 67.5357 16.6966C68.1327 16.1145 68.0541 16.2418 68.8611 16.2222C68.3606 17.4062 68.1801 17.813 67.3084 18.7364C65.8763 20.2534 64.0325 20.0312 63.3698 17.9349C64.3355 17.6938 64.6861 17.5477 65.1053 18.6963C65.328 18.711 65.35 18.743 65.5417 18.6786Z" fill="#E9C788"/>
<path d="M68.6435 12.4656C68.9225 12.1834 68.922 12.207 69.3223 12.1178C69.4968 12.5527 69.6709 13.007 69.8546 13.436C69.728 13.6536 69.7768 13.7444 69.5653 14.0702L68.8647 13.6613L68.8873 13.4243L68.6435 12.4656Z" fill="#D9B575"/>
<path d="M63.3972 16.4735C63.8193 15.8535 64.3491 15.8132 65.036 15.7298L65.1469 15.9254C65.1333 17.2218 64.6319 17.0154 64.7518 17.4311C65.2009 17.5498 65.4853 17.581 65.8385 17.8804L65.7873 17.9486C65.6152 18.1804 65.5769 18.2192 65.4705 18.4988L65.5417 18.6786C65.35 18.743 65.328 18.711 65.1053 18.6963C64.6861 17.5477 64.3355 17.6938 63.3698 17.9349C63.4152 17.3744 63.4539 17.0438 63.3972 16.4735Z" fill="#E4BF7E"/>
<path d="M66.4889 15.0483L66.5956 14.4193L66.8706 14.2293C67.1949 14.7146 66.6851 16.0079 66.5089 16.588C65.7642 17.2361 65.7434 17.3101 64.7518 17.4311C64.6319 17.0154 65.1333 17.2218 65.147 15.9254L65.036 15.7298C65.1845 15.6116 65.3609 15.3594 65.486 15.1999C65.7472 15.1023 65.9657 15.0168 66.2214 14.9065L66.4889 15.0483Z" fill="#C29D5F"/>
<path d="M65.486 15.1999C65.7473 15.1023 65.9657 15.0167 66.2214 14.9064L66.4889 15.0482C66.3786 15.5574 66.3087 16.2028 65.9897 16.5731L65.698 16.5922C65.5125 16.3714 65.3288 16.1492 65.147 15.9254L65.036 15.7298C65.1845 15.6116 65.3609 15.3594 65.486 15.1999Z" fill="#FCFAEC"/>
<path d="M67.7538 11.3762C68.0801 11.7522 68.3446 12.0611 68.6435 12.4656L68.8873 13.4243C68.4826 13.2756 67.8665 12.2733 67.6769 11.8874L67.7538 11.3762Z" fill="#E9C788"/>
<path d="M56.1276 8.58455C56.6475 8.6975 57.0683 8.54112 57.5642 8.40062C59.6177 8.73362 62.3963 8.47815 64.0901 10.1211C63.7023 10.0622 63.1968 9.93258 62.852 10.0262C63.2397 10.346 63.6599 10.487 64.1248 10.6848L64.1322 10.7901L63.9842 10.9506L64.1223 11.1535C63.2333 11.012 63.0859 9.77877 61.9133 10.5033C62.2057 10.871 62.6179 11.2841 62.6785 11.7179L62.4324 11.8571C62.2626 11.8095 61.7383 11.6514 61.5938 11.6302C59.1925 10.6363 57.347 10.4103 54.8384 11.1667C55.8086 11.6346 56.8976 12.0005 57.1528 13.1668C55.5796 14.465 57.1741 15.4704 55.1688 16.3823C56.0187 14.0838 56.4129 12.4426 53.2753 12.061L53.3651 11.9207L53.0602 11.7065L53.1821 11.252L52.9997 11.2307C53.6623 10.6997 54.4086 10.2913 54.7666 9.57845L54.2435 9.40112L54.825 9.11118L56.1276 8.58455Z" fill="#D7AF6A"/>
<path d="M53.1821 11.252C55.1878 10.2989 58.0032 10.2676 60.1741 10.3238C60.8034 10.3401 61.223 10.5582 61.9133 10.5033C62.2057 10.871 62.6179 11.284 62.6785 11.7179L62.4324 11.8571C62.2626 11.8095 61.7383 11.6514 61.5938 11.6302C59.1925 10.6363 57.3469 10.4103 54.8384 11.1667C55.8086 11.6346 56.8976 12.0005 57.1528 13.1668C55.5796 14.4649 57.1741 15.4704 55.1688 16.3823C56.0187 14.0838 56.4129 12.4426 53.2753 12.061L53.3651 11.9207L53.0602 11.7065L53.1821 11.252Z" fill="#CBA76A"/>
<path d="M8.56939 98.6495C8.95254 97.8483 9.60368 97.3408 10.4885 97.2068C13.2027 98.8659 13.7555 103.281 10.6922 104.138C10.9786 104.676 11.1867 105.021 10.7703 105.514C10.2841 105.571 10.468 105.613 10.0485 105.401C9.90449 105.014 10.0661 104.716 10.1997 104.299C10.0242 103.972 9.20822 103.948 8.56924 102.967C8.53364 102.888 8.49924 102.809 8.46628 102.729C7.82975 101.176 7.95754 100.162 8.56939 98.6495Z" fill="#802020"/>
<path d="M8.5694 98.6495C8.95255 97.8483 9.60368 97.3408 10.4885 97.2068C9.79752 97.9789 9.55781 98.2045 9.47342 99.2832C9.48808 100.18 9.40588 102.062 9.51958 102.777L9.62023 102.792C9.87137 103.306 9.96997 103.574 10.3525 104.01L10.6922 104.138C10.9786 104.676 11.1867 105.021 10.7703 105.514C10.2841 105.571 10.468 105.613 10.0485 105.401C9.90449 105.014 10.0661 104.716 10.1997 104.299C10.0242 103.972 9.20822 103.948 8.56924 102.967C8.53364 102.888 8.49924 102.809 8.46628 102.729C7.82975 101.176 7.95754 100.162 8.5694 98.6495Z" fill="#CC3149"/>
<path d="M9.47339 99.2832C11.3483 99.0534 11.1692 100.066 11.5285 101.688C10.8099 103 10.9963 102.461 9.6202 102.792L9.51954 102.777C9.40584 102.062 9.48804 100.18 9.47339 99.2832Z" fill="#B11D34"/>
<path d="M11.5285 101.688C11.6788 102.713 11.2279 103.473 10.3525 104.01C9.96993 103.574 9.87132 103.306 9.62018 102.792C10.9963 102.461 10.8099 103 11.5285 101.688Z" fill="#821620"/>
<path d="M55.1688 16.3823C57.1741 15.4704 55.5796 14.465 57.1528 13.1668C57.2341 13.946 57.2864 13.6451 56.8309 14.356C56.771 15.0058 56.7629 15.8599 56.6784 16.4563C56.0873 17.1105 55.5978 17.7608 54.6401 17.784C54.0023 17.7994 52.8842 17.5035 52.3972 17.0981C52.8031 16.6654 53.9821 16.9115 55.0311 16.4072L55.1688 16.3823Z" fill="#E9C788"/>
<path d="M4.23555 24.9427C4.53807 24.8898 5.26761 25.0498 5.73146 25.0391C6.71438 25.0167 7.46479 24.8886 8.43317 24.7194C7.36705 25.1211 6.29066 25.4951 5.20511 25.8409C4.23384 26.4742 2.61189 28.0685 2.75468 29.2742C3.09673 29.6195 3.17031 29.6341 3.64138 29.7692C3.06434 32.4472 2.98093 34.8695 4.10542 37.4274L3.63881 37.1457L3.48907 37.278C3.72419 37.9802 4.1315 38.8398 4.27949 39.4843L4.10781 39.6286C3.38719 38.4351 2.23603 34.4308 2.39862 32.9897C2.47324 32.3283 2.7737 30.9792 2.63381 30.5284C1.94643 30.9188 1.2096 31.266 0.551112 30.6975C0.323392 29.8095 1.15779 29.2523 1.74437 28.6423C1.35042 28.4965 1.32667 28.4976 1.0589 28.1886L1.13143 27.8756C1.98419 26.7988 3.7079 26.2688 5.03446 25.4965L5.04176 25.4794C4.91495 25.1876 4.58817 25.1151 4.23555 24.9427Z" fill="#C29D5F"/>
<path d="M2.09431 22.7012C1.44942 20.5486 3.14076 18.8573 4.34836 20.1535C4.55747 21.4701 3.82289 20.4528 3.22918 21.6825C4.5873 24.3222 7.01044 24.1202 9.60714 23.8316C9.02633 24.2633 8.3754 24.1978 8.10521 24.4275L8.43319 24.7194C7.46481 24.8886 6.71438 25.0167 5.73147 25.0391C5.26762 25.0498 4.53808 24.8898 4.23556 24.9427C3.31415 24.5765 2.53938 23.5629 2.09431 22.7012Z" fill="url(#paint7_linear_133_6145)"/>
<path d="M2.09431 22.7012C1.44942 20.5486 3.14076 18.8573 4.34836 20.1535C4.55747 21.4701 3.82289 20.4528 3.22918 21.6825C3.23409 21.3444 3.30136 20.8186 3.16184 20.5704C2.82158 20.9126 3.00757 21.6387 3.08933 22.1025C2.84621 22.4249 2.9059 22.3218 2.36844 22.4158L2.25716 22.2985L2.09431 22.7012Z" fill="#D9B575"/>
<path d="M10.5014 92.4855C10.963 92.7295 11.0422 92.7613 11.3335 93.1892C11.4589 94.463 10.2706 93.5217 10.9963 96.2023C10.8831 96.753 10.7207 96.8677 10.3302 97.2649C9.33301 95.8496 10.337 96.0797 10.349 94.6171C10.3528 94.1505 9.80407 94.1615 9.57843 93.546C9.75836 93.0343 10.0794 92.8435 10.5014 92.4855Z" fill="#D9B575"/>
<path d="M4.86514 15.7445C5.66074 15.7739 5.98218 15.7753 6.27135 16.5185C6.23519 17.1172 5.99378 17.4206 5.68836 17.941C5.17232 17.975 5.07974 17.9943 4.61608 17.7781C3.95583 16.9873 4.25184 16.4873 4.86514 15.7445Z" fill="#CBA76A"/>
<defs>
<linearGradient id="paint0_linear_133_6145" x1="4.80296" y1="28.1987" x2="3.98759" y2="27.3651" gradientUnits="userSpaceOnUse">
<stop stop-color="#BA9654"/>
<stop offset="1" stop-color="#EBC782"/>
</linearGradient>
<linearGradient id="paint1_linear_133_6145" x1="51.93" y1="10.3347" x2="52.3834" y2="11.1938" gradientUnits="userSpaceOnUse">
<stop stop-color="#C9A667"/>
<stop offset="1" stop-color="#F2D18E"/>
</linearGradient>
<linearGradient id="paint2_linear_133_6145" x1="42.2809" y1="5.3881" x2="42.4907" y2="6.5646" gradientUnits="userSpaceOnUse">
<stop stop-color="#C3A266"/>
<stop offset="1" stop-color="#F0D094"/>
</linearGradient>
<linearGradient id="paint3_linear_133_6145" x1="4.80499" y1="36.4303" x2="11.5933" y2="43.6524" gradientUnits="userSpaceOnUse">
<stop stop-color="#CCA662"/>
<stop offset="1" stop-color="#EDCF91"/>
</linearGradient>
<linearGradient id="paint4_linear_133_6145" x1="71.9514" y1="5.59868" x2="81.1905" y2="10.8537" gradientUnits="userSpaceOnUse">
<stop stop-color="#D3A864"/>
<stop offset="1" stop-color="#F0CD8C"/>
</linearGradient>
<linearGradient id="paint5_linear_133_6145" x1="62.3739" y1="10.9703" x2="63.9311" y2="8.63658" gradientUnits="userSpaceOnUse">
<stop stop-color="#DEB276"/>
<stop offset="1" stop-color="#F9D694"/>
</linearGradient>
<linearGradient id="paint6_linear_133_6145" x1="62.9856" y1="13.725" x2="68.705" y2="14.0321" gradientUnits="userSpaceOnUse">
<stop stop-color="#C9A262"/>
<stop offset="1" stop-color="#E6C47D"/>
</linearGradient>
<linearGradient id="paint7_linear_133_6145" x1="5.67826" y1="21.7596" x2="4.51331" y2="24.8277" gradientUnits="userSpaceOnUse">
<stop stop-color="#B89256"/>
<stop offset="1" stop-color="#DDBC82"/>
</linearGradient>
</defs>
</svg>
