<svg width="280" height="46" viewBox="0 0 280 46" fill="none" xmlns="http://www.w3.org/2000/svg">
<path d="M176.567 0C179.301 3.4269 177.369 7.03708 178.314 8.26172C178.557 8.05838 178.611 7.99558 178.923 7.91309C180.312 8.88591 179.301 14.0254 178.721 15.4561C175.8 22.673 169.832 27.6983 162.883 30.8545C164.875 30.2676 167.023 29.9915 168.861 29.4512C173.489 28.0925 178.379 24.6471 181.207 20.7344C182.553 18.8711 183.977 16.6186 185.931 15.3691C188.099 14.0072 190.721 13.57 193.214 14.1553C195.433 14.6532 196.745 15.6302 197.927 17.4902C211.44 9.04184 230.368 4.73795 244.006 15.2812C248.862 12.6186 253.968 13.3696 259.164 14.2168C261.19 14.5467 264.772 14.9676 266.708 15.4453C271.088 16.6343 276.123 17.8725 278.78 21.9033C280.151 23.9828 280.567 26.7663 278.195 28.2725C277.204 28.9019 276.001 29.1075 274.858 28.8428C272.25 28.2497 271.245 24.6412 273.577 23.2178L273.654 23.4746C272.048 25.0459 272.724 27.7807 275.137 28.0645C276.796 28.2597 279.002 27.4625 279.013 25.5957C279.057 17.1478 263.028 15.4279 257.632 14.8535C265.146 20.2351 261.496 33.9776 250.945 28.8008C250.588 33.928 248.982 38.0377 244.26 40.7188C240.498 42.8539 235.302 43.2392 231.385 41.2578C229.015 40.0362 227.225 37.9229 226.41 35.3818C224.866 30.5832 227.486 24.5184 232.48 23.002C236.084 21.9078 239.711 23.6166 240.725 27.3408C241.186 28.9189 241.264 29.7496 240.546 31.1953C239.587 33.1289 236.74 34.3294 234.754 33.2139C234.152 32.8684 233.716 32.2929 233.546 31.6201C233.417 31.1072 233.519 30.9255 233.746 30.5488C234.3 30.2945 234.07 30.3416 234.7 30.3887C234.962 30.7684 234.87 30.7057 234.86 31.1895C234.826 33.0033 237.131 32.9895 238.324 32.3135C239.178 31.8226 239.805 31.0177 240.073 30.0703C240.768 27.5492 238.561 24.1887 236.02 23.6348C231.713 22.6961 228.216 26.2795 227.216 30.1904C226.62 32.5161 226.991 34.9849 228.246 37.0312C231.45 42.3598 239.184 42.6782 244.111 39.7217C250.497 35.8878 251.04 26.9348 247.331 21.0439C244.224 16.1095 239.364 13.1503 233.81 11.626C214.02 6.02594 196.74 19.428 181.547 30.0762C179.378 31.5967 177.353 33.3255 175.14 34.8076C173.956 35.5999 172.881 36.1474 171.684 36.877C176.163 35.5204 178.339 33.4431 182.259 31.6982C191.505 27.5826 204.805 22.1456 214.362 27.6318C209.627 29.9459 206.169 33.7381 200.959 34.6553C195.53 35.6108 191.358 32.431 186.616 30.5762C182.774 31.8626 178.772 34.7498 175.175 36.4062C169.141 39.185 159.842 40.988 153.291 39.3154C147.013 37.7125 143.931 36.2919 137.149 36.5957C131.772 36.8365 129.234 37.9835 124.114 39.3447C120.861 40.2098 115.531 39.9925 112.251 39.3809C108.825 38.7419 104.238 37.415 101.143 35.7236C97.9512 33.9795 94.8405 31.9295 91.3771 30.6299C88.7681 31.5663 86.1741 33.1389 83.3556 34.0684C74.5272 36.9794 70.629 31.0215 63.8244 27.6553C64.0003 27.5423 64.1804 27.4349 64.3634 27.334C73.2268 22.3837 86.6156 27.5856 95.1632 31.5078C99.1729 33.3476 101.65 35.6223 106.215 36.9238C101.901 34.7155 99.605 32.4561 95.7599 29.7773C80.6195 19.2295 62.4306 4.63817 42.8908 12.7891C37.9831 14.8363 33.9499 17.9143 31.7062 22.8779C28.7203 29.1807 30.5262 37.5085 37.2736 40.4834C40.2328 41.7867 44.2656 42.0015 47.3078 40.7891C49.5109 39.9257 51.2764 38.2154 52.2101 36.04C54.4289 30.8308 51.4658 23.7557 45.3693 23.501C43.6258 23.4237 42.2371 24.2926 41.1183 25.5527C39.8594 26.9707 39.4344 28.9309 40.1867 30.707C40.8671 32.3128 42.2565 33.3672 44.0138 32.5859C45.4522 31.9464 44.5878 30.8375 45.6193 30.3691C46.1461 30.492 46.1 30.4006 46.4455 30.7451C46.7969 33.6884 42.4263 34.3577 40.5461 32.6367C38.1075 30.4048 38.7113 27.1435 40.5929 24.8301C43.1041 21.7427 47.5934 22.1856 50.4152 24.582C52.4693 26.3558 53.742 28.8688 53.9562 31.5752C54.1593 34.139 53.2444 36.9436 51.5617 38.8906C47.1622 43.9597 38.5022 43.5036 33.6662 39.3115C30.3892 36.4708 29.3031 33.0812 28.9943 28.8984C19.5751 33.6403 14.1364 21.5868 22.5041 14.7539C17.2322 15.4923 6.45899 16.8191 2.72672 21.0801L2.09781 21.5049L1.89175 21.4395C1.89887 21.2508 2.67608 20.4262 2.93765 19.999C5.94861 16.0058 19.1696 14.4445 24.1056 13.7764C29.1266 13.0969 31.5453 13.2859 36.1144 15.2373C42.3539 10.417 50.9271 8.44571 58.7043 9.38086C65.7651 10.2299 73.803 13.6658 79.8419 17.4902C80.9122 15.6064 82.0951 14.8056 84.1525 14.2686C90.0586 12.7274 93.1858 16.0235 96.1564 20.4209C98.9292 24.5256 104.102 27.8864 108.733 29.4033C110.339 29.9158 112.504 30.3077 114.208 30.6396C107.195 26.9955 101.344 22.3576 98.6642 14.5527C98.1959 13.1887 97.5133 8.81363 98.8722 7.97559L99.3712 8.20898C99.662 7.92058 99.6464 7.28422 99.6505 6.85059C99.6785 3.96842 99.2192 2.56069 101.027 0.0527344C104.032 1.47724 104.841 3.20537 105.903 6.18164C105.969 6.3638 106.033 6.5466 106.096 6.72949C109.072 8.71789 110.868 9.82133 111.704 13.7305C112.633 18.0743 110.695 21.5153 112.96 25.708C113.879 27.4077 116.721 29.4376 117.126 30.5322C116.886 30.73 116.637 30.9412 116.391 31.1279C120.978 34.7999 122.417 35.7851 128.55 35.5371C128.151 36.0801 125.783 35.8138 125.159 35.9053C121.007 36.5153 117.621 32.4445 114.425 31.5869C109.161 30.1746 104.725 29.1374 100.253 25.6533C98.9567 24.6434 97.5493 23.403 96.5031 22.0869C93.5806 18.0841 91.1927 13.8064 85.3869 14.6807C83.0194 15.0373 81.7372 15.9021 80.4826 17.8926C84.9881 20.7497 89.4043 23.7464 93.7238 26.8779C101.566 32.5969 106.866 37.7683 117.18 38.4492C122.939 38.8294 125.712 37.9717 131.173 36.3359C131.824 36.141 132.997 36.0717 133.703 35.9785C137.204 36.2205 140.865 35.9556 144.32 36.0645C147.159 36.154 149.921 37.4746 152.652 38.085C158.473 39.4349 166.569 38.087 171.848 35.3848C175.721 33.4025 179.887 29.8735 183.478 27.2461C187.928 24.022 192.472 20.9283 197.102 17.9688C196.796 17.2489 196.636 16.8388 196.053 16.3125C193.719 14.2054 189.731 14.2063 186.982 15.5068C184.691 16.5903 183.022 19.7887 181.489 21.668C180.622 22.7471 179.364 23.9937 178.302 24.8701C175.44 27.2328 171.761 29.2503 168.18 30.2402C166.175 30.7948 164.26 31.1127 162.353 31.9697C159.851 33.0927 157.796 34.9942 155.098 35.6299C153.249 36.0654 151.06 35.9737 149.21 35.623C155.568 35.4203 156.089 35.3279 161.081 31.1895C160.698 30.9089 160.61 30.9404 160.462 30.5352L160.737 30.249C161.559 29.0302 163.325 27.8255 164.424 26.1377C167.025 22.1417 165.077 18.6939 165.847 14.4062C166.726 9.51134 168.274 9.15111 171.549 6.76074C172.623 3.60441 173.452 1.61859 176.567 0ZM258.105 16.2939C256.565 14.2699 252.443 13.8383 250.129 14.25C247.892 14.4655 246.647 14.7456 244.563 15.6777C248.118 19.3202 250.244 22.4683 250.851 27.6416C253.52 29.4572 257.693 29.9204 259.619 26.8486C260.34 25.3552 260.466 23.9854 260.709 22.3574C259.799 23.7132 258.212 25.504 256.199 24.4365C255.977 24.318 255.969 24.0975 255.909 23.8623C256.343 22.7589 257.923 22.8709 258.93 22.8193C261.38 20.6133 259.722 18.419 258.105 16.2939ZM35.5646 15.7666C32.9235 14.4954 29.4151 13.8516 26.5148 14.2471C25.7641 14.3356 24.7364 14.4242 24.0666 14.749C22.0128 15.7447 19.5821 18.3984 19.8107 20.8418C19.892 21.722 20.4979 22.2372 21.0959 22.8115C22.107 22.8788 23.5922 22.8121 24.0978 23.8438C24.0552 24.1222 24.0286 24.3512 23.7502 24.4883C21.8218 25.4384 20.2786 23.8244 19.4054 22.5742C19.6159 24.7263 20.0233 27.657 22.3498 28.5723C24.3884 29.2189 26.178 29.3362 28.1515 28.3115C28.4723 28.1435 28.79 27.9692 29.1046 27.79C29.7167 23.3763 31.8381 18.6009 35.4347 15.8613C35.4772 15.8288 35.521 15.7977 35.5646 15.7666Z" fill="#C4AA84"/>
<path d="M170.79 8.0876C169.848 13.7491 170.395 19.137 168.334 24.5093C168.063 25.2169 167.524 26.0952 167.403 26.7985L167.548 26.7888C168.678 25.2658 170.191 20.2704 170.776 18.3072L170.71 18.1589L170.277 18.6883C170.163 17.4975 170.507 16.6037 170.535 15.4992C170.631 11.8225 170.793 8.98538 172.564 5.70178C173.887 3.24985 173.852 2.54057 176.418 0.971924C177.714 3.5005 177.165 5.00569 177.698 7.70504C177.896 8.70572 178.731 9.94107 178.787 10.9164C178.856 12.0852 178.589 13.6974 178.192 14.861C176.179 20.7821 171.142 25.6397 165.854 28.7315C164.575 29.4791 162.171 30.3401 161.081 31.1899C160.697 30.9091 160.61 30.9406 160.462 30.5349L160.737 30.2486C161.395 30.2772 162.531 29.1889 163.031 28.7604C168.025 24.4748 165.697 19.3117 166.671 13.8684C167.179 11.0231 168.423 9.72823 170.79 8.0876Z" fill="#EC2861"/>
<path d="M175.879 7.12225C175.955 8.56544 171.92 16.4531 170.95 18.0834C170.904 17.6467 170.865 17.6214 171.077 17.1887C171.816 15.6905 172.702 13.929 173.455 12.4698C174.016 11.3848 175.344 7.82934 175.879 7.12225Z" fill="#C4AA84"/>
<path d="M101.116 0.922531C104.289 2.97885 104.295 4.10206 105.867 7.45499C106.221 8.20986 106.431 9.00049 106.599 9.76811C106.774 10.5712 107.449 18.1578 107.331 18.4573L107.057 18.3101C107.04 18.0026 104.865 13.8032 104.51 13.1411C103.496 11.2481 102.826 8.98964 101.811 7.16565C102.443 10.716 105.545 15.4714 106.936 18.7428C107.879 20.9582 108.429 23.9351 109.725 26.0436C109.827 25.7578 109.543 24.6233 109.399 24.3173C106.991 19.2144 108.139 13.5366 106.799 8.12588C115.181 13.115 108.188 20.8087 113.24 27.2539C113.916 28.1165 116.107 30.2029 117.126 30.5327C116.886 30.7304 116.638 30.9415 116.391 31.1282C115.48 30.3325 112.202 28.8825 110.958 28.1538C106.159 25.3435 101.631 20.6274 99.6429 15.3742C99.0967 13.9307 98.8482 12.7115 98.8693 11.1681C98.8891 9.73544 99.8326 8.63128 100.037 7.43551C100.491 4.78541 99.9416 3.48453 101.116 0.922531Z" fill="#EC2861"/>
<path d="M201.956 26.1225C202.199 26.0619 203.472 26.0141 203.783 26.0012C207.293 25.8554 209.68 26.2412 212.909 27.5095C207.53 30.6008 205.475 33.7475 199.025 34.1415C194.724 33.9633 191.44 32.0299 187.569 30.2389C192.338 28.3416 196.782 26.6459 201.956 26.1225Z" fill="#FCD5D3"/>
<path d="M205.573 28.435L205.722 28.463C205.076 28.884 204.108 29.1975 203.373 29.4648C199.923 30.7179 197.537 30.9177 193.976 30.2949L193.845 30.2259L193.882 30.1337C199.796 30.4695 199.835 30.2149 205.573 28.435Z" fill="#C4AA84"/>
<path d="M70.3498 26.1094C70.9438 26.0124 72.296 26.0142 72.9326 25.9995C79.2181 25.8554 84.6893 28.0296 90.4218 30.2647C88.4374 30.9281 86.5088 32.1583 84.4813 32.9567C83.8631 33.1879 83.2374 33.3985 82.605 33.5879C74.7357 35.8864 71.0975 30.799 65.1985 27.5651C67.1027 26.8519 68.3318 26.3982 70.3498 26.1094Z" fill="#FCD5D3"/>
<path d="M71.7397 28.2335C72.2879 28.3122 74.5315 28.9989 75.1407 29.1894C78.728 30.3116 80.6917 30.4764 84.3754 30.0907C84.1945 30.1781 84.0065 30.2498 83.8136 30.3052C80.2855 31.3306 74.8196 29.9414 71.7397 28.2335Z" fill="#C4AA84"/>
<path d="M135.607 12.5771C136.078 11.3582 137.382 10.5477 138.585 10.1763C139.506 10.6553 140.8 11.322 141.151 12.381C141.528 12.5388 141.54 12.4764 141.754 12.7615C142.952 14.188 144.216 16.6043 144.334 18.4672C144.599 18.4842 144.883 18.536 145.106 18.4019C145.232 18.1827 145.391 17.9846 145.579 17.8148C147.25 16.2973 149.266 16.0426 150.855 17.7895L151.114 18.0551C152.052 19.2783 152.181 22.2183 151.261 23.401C151.314 23.7208 151.355 23.6681 151.232 23.9125C149.264 28.1005 146.056 31.6119 142.296 34.3259C140.96 35.2902 140.427 35.3909 138.88 35.665L138.574 35.7311L138.328 35.5058L138.239 35.2682L137.961 35.551C136.771 35.7172 135.251 34.909 134.351 34.2004C130.844 31.4363 127.597 28.1517 125.734 24.0357C125.638 23.8699 125.689 23.6486 125.707 23.4441C124.649 21.9972 124.977 19.6588 125.79 18.1643C125.944 18.0848 125.958 17.9833 126.053 17.806C128 15.9894 130.014 16.1585 131.778 18.2049L132.04 18.504C132.158 18.8116 132.44 19.4879 132.508 19.7773L133.021 19.8804C132.256 17.3886 133.437 14.9739 134.963 12.9966L134.986 12.7758C135.209 12.6649 135.368 12.6359 135.607 12.5771Z" fill="#C01E25"/>
<path d="M141.151 12.381C141.528 12.5388 141.54 12.4764 141.754 12.7615C142.952 14.188 144.216 16.6043 144.334 18.4672C144.599 18.4842 144.883 18.536 145.106 18.4019C145.232 18.1827 145.391 17.9846 145.579 17.8148C147.25 16.2973 149.266 16.0426 150.855 17.7895L151.114 18.0551C152.052 19.2782 152.181 22.2183 151.261 23.401C151.314 23.7208 151.355 23.6681 151.232 23.9125C149.264 28.1005 146.056 31.6119 142.296 34.3259C140.96 35.2902 140.427 35.3909 138.88 35.665L138.574 35.7311L138.328 35.5058C138.71 35.2143 143.149 21.7425 143.679 20.1921C142.863 17.8865 141.795 14.7051 141.151 12.381Z" fill="#F4E3E6"/>
<path d="M138.88 35.665C139.797 33.9499 143.021 29.4628 144.471 28.2632C145.015 27.8137 150.977 23.9461 151.232 23.9126C149.264 28.1005 146.056 31.6119 142.296 34.3259C140.96 35.2902 140.427 35.3909 138.88 35.665Z" fill="#C01E25"/>
<path d="M144.473 27.7112C146.897 23.4706 148.027 21.7541 151.114 18.0551C152.052 19.2782 152.181 22.2183 151.261 23.401C149.65 24.2356 146.144 26.6378 144.473 27.7112Z" fill="#C01E25"/>
<path d="M145.106 18.4019C145.232 18.1827 145.391 17.9846 145.579 17.8148C147.25 16.2973 149.266 16.0426 150.855 17.7895C149.764 19.0638 148.681 20.3444 147.606 21.6312C147.107 20.9514 145.636 18.868 145.106 18.4019Z" fill="#C01E25"/>
<path d="M141.754 12.7615C142.952 14.188 144.216 16.6043 144.334 18.4672C144.199 18.7714 144.061 19.2444 143.817 19.3728C143.399 18.1559 141.937 13.8324 141.754 12.7615Z" fill="#C01E25"/>
<path d="M144.76 18.6497C145.205 18.8996 146.928 21.4721 147.279 21.9849C145.631 25.1988 142.831 29.1233 140.757 32.128L139.681 33.6193C141.34 28.6176 143.033 23.6276 144.76 18.6497Z" fill="#C01E25"/>
<path d="M134.963 12.9966L134.986 12.7758C135.209 12.6649 135.368 12.6359 135.607 12.5771C134.836 15.2197 133.971 17.9393 133.247 20.5771C134.813 25.1306 136.575 30.9324 138.239 35.2682L137.961 35.551C136.771 35.7172 135.251 34.909 134.351 34.2004C130.844 31.4363 127.597 28.1517 125.734 24.0357C125.638 23.8699 125.689 23.6486 125.707 23.4441C124.649 21.9973 124.977 19.6588 125.79 18.1643C125.944 18.0848 125.958 17.9833 126.053 17.8061C128 15.9894 130.014 16.1585 131.778 18.2049L132.04 18.504C132.158 18.8116 132.44 19.4879 132.508 19.7774L133.021 19.8804C132.256 17.3886 133.437 14.9739 134.963 12.9966Z" fill="#F4E3E6"/>
<path d="M125.734 24.0357C125.954 24.0761 131.737 27.7528 132.264 28.1558C133.758 29.2989 136.951 33.8446 137.961 35.551C136.771 35.7172 135.251 34.909 134.351 34.2004C130.844 31.4363 127.597 28.1517 125.734 24.0357Z" fill="#C01E25"/>
<path d="M132.04 18.504C132.158 18.8116 132.44 19.4879 132.508 19.7773C132.668 20.1769 132.787 20.5954 132.915 21.0062C134.247 25.2669 135.885 29.4253 137.215 33.6859C134.788 30.6351 131.506 25.4193 129.577 22.0459C130.331 20.8561 131.217 19.656 132.04 18.504Z" fill="#C01E25"/>
<path d="M125.79 18.1643C128.856 21.6028 130.096 23.7566 132.364 27.6643C130.249 26.3725 127.714 24.6028 125.707 23.4441C124.649 21.9972 124.977 19.6588 125.79 18.1643Z" fill="#C01E25"/>
<path d="M126.053 17.806C128 15.9894 130.014 16.1585 131.778 18.2049L129.279 21.6024C128.221 20.4866 127.047 19.009 126.053 17.806Z" fill="#C01E25"/>
<path d="M133.021 19.8804C132.256 17.3886 133.437 14.9739 134.963 12.9966C134.771 14.2456 133.451 18.4822 133.021 19.8804Z" fill="#C01E25"/>
<path d="M144.729 40.5611C146.045 40.5985 146.979 40.5714 148.195 41.2134C149.729 42.0236 150.367 43.4847 149.491 45.0732C146.447 47.624 145.358 42.3559 144.729 40.5611Z" fill="#C01E25"/>
<path d="M130.682 40.6249L132.239 40.5643C131.266 42.8779 131.75 45.1165 128.682 45.6971C125.573 45.0726 127.182 40.9985 130.682 40.6249Z" fill="#C01E25"/>
<path d="M2.93771 19.9993C2.67613 20.4264 1.89895 21.2504 1.89183 21.4391L2.09751 21.5047L2.72629 21.0804C1.50411 22.6521 -0.238927 25.5768 1.76108 27.318C2.64283 28.0856 3.99967 28.0316 5.1122 28.0573C7.37207 26.9791 7.97032 24.8732 5.85839 23.261L6.18468 22.9808C7.51328 23.7639 8.03828 24.6292 7.7018 26.1972C6.7037 30.8483 -0.953017 29.2984 0.0990033 24.4357C0.521183 22.4842 1.31069 21.161 2.93771 19.9993Z" fill="#C4AA84"/>
<path d="M273.577 23.2175C274.179 23.0681 275.415 22.8006 275.777 23.4991C274.892 23.5851 274.623 23.277 273.654 23.4747L273.577 23.2175Z" fill="#C4AA84"/>
<path d="M5.85839 23.261C5.36352 23.358 4.20383 23.7443 3.81857 23.5559L3.81227 23.5684C4.51162 23.1072 5.37535 23.0109 6.18469 22.9808L5.85839 23.261Z" fill="#C4AA84"/>
</svg>
